<svg xmlns="http://www.w3.org/2000/svg" viewBox="0 0 368.52 611.45"><defs><style>*{vector-effect:non-scaling-stroke}.cls-1,.cls-3,.cls-4{fill:#fff;}.cls-1,.cls-2,.cls-3,.cls-4{stroke:#000000;stroke-width:1.5px;}.cls-1,.cls-2,.cls-3{stroke-miterlimit:10;stroke-width:1.5px;}.cls-2{fill:none;}.cls-2,.cls-3{stroke-width:0.5px;}.cls-4{stroke-linejoin:round;stroke-width:0.75px;}</style></defs><g id="Layer_2" data-name="Layer 2"><g id="Layer_1-2" data-name="Layer 1"><path class="cls-1" d="M206.89,44.94,223.36,57.3l11.72-9.5L218.93,31.64S191.37,4.08,189.78.59C179.33,3.45,165.07,25,162.85,39.24,183.76,42.73,206.89,44.94,206.89,44.94Z"/><path class="cls-1" d="M124.05,163.46s37.06-49.66,51.55-69,35.2-48,35.2-48l10.35,6.9s-30.37,35.89-40.72,48.31-36.23,51.76-48.65,66.94-30.36,43.47-30.36,43.47L91.76,209S104.58,181.72,124.05,163.46Z"/><path class="cls-2" d="M101.42,212.14s17.94-28.29,30.36-43.47,38.3-54.52,48.65-66.94,40.72-48.31,40.72-48.31l-7.25-4.83s-20.71,28.65-35.19,48-51.56,69-51.56,69c-17.36,16.28-29.43,39.77-31.84,44.65Z"/><path class="cls-1" d="M118,187.34c-1.32,0-2.85-2.38-2.85-2.38a40.15,40.15,0,0,0-3-2.69,11.93,11.93,0,0,1-2-2.92l-.79-3.7,1.06-.79v-2.65l1-.53,1.18-.25.26-1-.17-2.16s.43-.87.69-1l1.13-.34s1.73.17,2,.17-.78-1.82-.78-2.08.17-1.73.52-1.9a13.74,13.74,0,0,1,2-.78,5.09,5.09,0,0,1,2.25.95c.86.52,3.18,1.5,3.18,1.5s-.12-1.18.36-1.42a13.81,13.81,0,0,1,3.92-1.19c1.07,0,3,.12,3.44.12s1.55,3.45,2.14,3.92a4,4,0,0,1,1.31,3.21c-.12,1.42-.67,9.74-.67,9.74s-1.11,4.75-.95,5.54,3.64,13.31,4.27,13.78,4.44,7.76,5.07,8.4,11.72,12.67,11.72,12.67L169.67,210l9.82-1s8,4.07,8.32,6,8.06,21.13,6.48,22.55-26.84,2.68-26.84,2.68l-44-39Z"/><path class="cls-1" d="M364.83,542.89a5.88,5.88,0,0,1,1.19,1.87,7.21,7.21,0,0,1,.08,1.27c0,.34-4.5,4-4.84,4.25a41,41,0,0,1-4.67,3,68.91,68.91,0,0,1-9.6,4,86.42,86.42,0,0,1-10.53,2.64c-2.3.34-8.25.85-10.45,1.1s-5.27.51-6.21-.08-3.65-2.38-3.73-3,.51-5.86.51-5.86,2.46-3.06,4.24-4,6.63-5.35,7.06-5.61,3.31-3.23,3.73-3.48a30.73,30.73,0,0,1,4.85-1.79C337.47,537,364.83,542.89,364.83,542.89Z"/><path class="cls-3" d="M331.61,539c-.42.25-3.31,3.23-3.73,3.48s-5.2,4.6-7,5.58c0,.79.1,1.52.53,1.7.8.31,1,.79,2.38,1.26a37.7,37.7,0,0,0,3.8.64,28.49,28.49,0,0,0,9.66.47c3.8-.63,4.28-.79,7.29-1.27a58.22,58.22,0,0,0,8.71-2.05,40.68,40.68,0,0,0,5.86-2.86c.95-.47,1.27-1.58.64-1.58a54.82,54.82,0,0,0-7.77.95,45.12,45.12,0,0,1-8.55,1.58c-1.9,0-3.17,0-2.69-1s2.53-2.06,1.9-3.8-.95-2.53-1.11-3a6.34,6.34,0,0,0-.45-1.16,44.78,44.78,0,0,0-4.61-.77A30.73,30.73,0,0,0,331.61,539Z"/><path class="cls-1" d="M221.3,506c-1.05.18-6.23,3-7.91,3.6s-11.27,3.52-12.63,4.24-5.44,2.15-6.71,3.27-3.44,2.16-4.16,3.6a43.31,43.31,0,0,0-1.76,5.68s5.45,4.7,15.59,2.8,19.32-3.64,20.91-3.8a100,100,0,0,0,9.82-2.53c4.59-1.27,18.53-2.85,20.27-3s5.07-2.22,5.07-2.22l-1.9-5.38S231,504.31,221.3,506Z"/><path class="cls-3" d="M224.94,508.08l-2.46-2.27c-.42,0-.81.08-1.18.14-1.05.18-6.23,3-7.91,3.6s-11.27,3.52-12.63,4.24-5.44,2.15-6.71,3.27-3.44,2.16-4.16,3.6c-.13.27-.28.65-.43,1.06a13,13,0,0,0,3.65,1.25c1.42.15,3-1,4.27-1.43s3-1.74,3.49-1.9,2.53-5.07,2.53-5.07a21.14,21.14,0,0,0,3.33-2.06c.31-.47,2.22,1.9,2.53,2.38a5.73,5.73,0,0,0,3.81,1.58c1.74,0,.47-2.21.47-2.21l-.79-3.65s6.65,5.23,7,5.7,2.06-1.74,3.32-2.53S225.1,508.55,224.94,508.08Z"/><path class="cls-3" d="M196.75,525.66s5.86-4.59,7-5.54a14.27,14.27,0,0,1,4.75-2.22,34,34,0,0,1,4.91-.32c2.38-.16,4.6,0,5.86-.16a32.26,32.26,0,0,1,5.86.32,4.41,4.41,0,0,1,2.38,1.9c.47,1,.48,2.69-.16,2.69s-4.75-1.58-7-1.58A87.31,87.31,0,0,0,208,522.17C205.46,522.81,196.75,525.66,196.75,525.66Z"/><path class="cls-1" d="M333.6,306.29c1.31,0,6,12.67,6,12.67s1.58,4.75,1.9,6.34,1.27,9.18,1.27,10.13a26.31,26.31,0,0,0,0,5.07c.31,1.9.95,1.9-.32,4.44a40.57,40.57,0,0,0-2.22,7,19.57,19.57,0,0,0-.32,3.8l-.31,3.48a9.94,9.94,0,0,1-1.27,3.8c-1,1.27-5.38,7.29-5.38,7.29s-4.76,7-5.39,8.24-1.9,1.58-2.53,3.8-3.81,5.38-4.76,8.23a58.77,58.77,0,0,0-1.9,12.36c0,2.53.64,8.87-1.26,10.45a60.22,60.22,0,0,1-6.34,4.12s-1.27,8.23-1.27,9.5-.95,6.66-.95,7.61,1.59,2.22,3.49,3.48,1.58.32,3.48,3.17,2.22,2.22,4.44,6.34,5.7,9.82,5.7,11.4,1.27,4.75,2.22,5.38a3.79,3.79,0,0,1,1.58,2.85c0,1-1.9,3.17-.63,5.07s2.85,2.85,3.48,4.76.64,3.16,1.59,4.75.31,1.9.95,3.8.95.63,1.9,4.43-.95,2.22,1,5.07,1.27,3.8,2.22,5.07,3.16,1.59,4.43,2.54a8.06,8.06,0,0,1,2.53,4.11c.32,1.27-.31,2.22.32,3.8s2.54,2.86,4.12,3.49a9.71,9.71,0,0,1,2.85,1.9l4.12,5.7s-3.17,1.9-2.54,2.85a7.58,7.58,0,0,0,2.22,2.22,20.49,20.49,0,0,1,2.85,3.17s-2.53-2.22,1,1.9,2.85,7.6,2.85,7.6l2.86,3.8s-9.51-.32-10.46-1-13.94-3.17-15.52-3.17a25.83,25.83,0,0,1-6.65-.31,56.4,56.4,0,0,0-8.56-.64v-3.8a25,25,0,0,1-3.8-1.58,8.26,8.26,0,0,1-1.9-2.53l-.32-1.59s-1.58,1.9-3.8,0-1.58-1.27-2.85-3.17-1.9-2.53-4.43-6.33-3.8-6.34-5.39-7.92-3.8-5.71-5.07-10.14a46,46,0,0,0-5.07-11.4,57.86,57.86,0,0,0-5.06-7.92c-1.59-1.9-3.17-2.86-4.44-5.39s-2.53-3.8-4.43-6.65-3.49-4.44-4.75-7.29-2.86-8.23-2.86-8.23l.64-21.86-.95-8.87s.63-7,.63-8.87-.63-13.31-.63-13.31-5.7,6-7.29,6.66-7.92,5.07-9.5,7.28-6.34,5.39-6.65,6.34-2.86,3.16-3.17,5.38-.95,10.46-.64,12.36,2.22,3.48,1.27,7.6-.95,12-.32,13.31a35.91,35.91,0,0,1,2.86,6c.63,2.22,1.26,7,1.58,8.56a23,23,0,0,0,2.22,4.75,10.47,10.47,0,0,1,.63,3.48c0,1.9,1,5.07,2.22,6a10.52,10.52,0,0,1,3.16,3.49,10.7,10.7,0,0,1,.64,4.75c-.32,1.58,1.58,7,1.58,7a26.23,26.23,0,0,1,.32,3.8c0,1.9-1.27,5.07-1.27,6S248.39,517,248.39,517H244.9c-1,0-2.53-.32-3.48-.32s-1.59-.63-4.44-1a39.46,39.46,0,0,1-7.6-1.58c-1.9-.64-5.39-1-7-2.54s-4.75-5.38-4.75-5.38l3.8-3.17-3.8-2.53a33.38,33.38,0,0,1-.95-5.07c-.32-2.85-5.07-13.31-5.07-13.31s-.95-5.06-1.27-8.87-7-27.87-7-27.87,2.22-9.19,1.27-11.09-3.17-6-3.48-8.87-1-5.07-.32-7.6a51.14,51.14,0,0,0,.63-11.72c-.31-1.59,3.91-8.74,4.75-9.51,3.81-3.48,7.61-11.4,7.61-11.4s7-8.87,7.92-9.82,14.57-21.23,15.83-21.86,7-7.92,7-7.92l8.24-9.82.63-5.38s.64-4.76,2.86-5.39S277.53,304.39,333.6,306.29Z"/><path class="cls-3" d="M326.44,310.76c1.26,0,4.89,8.53,5.68,9.16s4.11,1.89,3.48,4.58-1.27,4.89-1.27,5.52-.15,2.85,1.11,4.11-1.11,3.95-1.11,4.42,1.58,1.1,1.9,2.37,0,3.79.32,4.58a8.56,8.56,0,0,1-.32,4.42c-.47.79-1.58,2.36-.79,3.31s.95.95.16,2.21a10.14,10.14,0,0,0-1.27,5.06c.16,1.26-1.1,1.58-1.1,1.1s1.1-5.21,1.26-5.84a12.32,12.32,0,0,0-.47-3.95c-.32-.95-.32-2.36.16-2.84a4.34,4.34,0,0,0,1.26-2.84,13.69,13.69,0,0,0-.63-4.42c-.16-.48-.63-.47-1.26-1.58s-1.9-.95-1.11-2.21,1.89-2.69,1.89-3.48-.94-4.26-.94-5.05a9.58,9.58,0,0,1,.63-3.47c.47-.95-.63-3.79-1.74-4.11s-4.26-3.31-4.42-4.1-3.79-6.79-3.79-6.79Z"/><path class="cls-3" d="M305,325c1.27.63,2.06,3.47,3.8,4.89s4.26,4.43,5.68,5.69a8.3,8.3,0,0,0,3.63,2.21,46.39,46.39,0,0,0,7.58.47,51.1,51.1,0,0,0,6-.47s-.79,3.16-1.74,3.16h-8.05c-.79,0-5.53-2.21-6.32-2.84s-3.94-3.95-4.57-4.58-3.48-3.64-3.79-4.11-2.22-5.05-2.22-5.05"/><path class="cls-3" d="M244.58,345.57s-5.7,7.29-7,7.92-14.88,20.91-15.83,21.86-7.92,9.82-7.92,9.82-3.8,7.92-7.61,11.4c-.84.77-5.06,7.92-4.75,9.51a51.14,51.14,0,0,1-.63,11.72c-.64,2.53,0,4.75.32,7.6a21.29,21.29,0,0,0,2.07,6,27.56,27.56,0,0,1-.17-5.4c.63-4.43,2.53-4.75,5.06-3.48s1.91,4.43,5.71,9.82,2.53-3.8,3.8-4.75,3.48-3.81,2.85-6.34-.63-5.07-2.54-6.65-6.33-1.58-9.18-2.54a5.65,5.65,0,0,1-3.8-3.16c-.64-.95,3.48-4.12,5.07-4.44s11.72-4.43,16.47-7,9.82-1.58,13.62-3.17-.32-4.11-1.27-4.43-7-.32-9.5-.32-7.92.32-8.87-1,4.43-2.21,7.92-3.8,9.82-1.9,10.77-1.9,10.14-4.75,14.89-5.7,7.6-1.9,7.28-3.17-9.18-1.27-12.67-.95a14.09,14.09,0,0,1-7-1.58S246.8,369,249,369s8.55,1.27,11.09,1.27,2.53-2.85,2.21-3.8.64-7.92-.95-14.57a32.14,32.14,0,0,0-1.35-4.82,15.45,15.45,0,0,0,4.2-1.84c1.91-1.26.32-3.16-1-3.48s-2.85-1.27-5.7-2.85,3.17-.95,4.12-.95,4.75-.64,4.75-.64-7.92-7.28-13-7l-.63,5.38Z"/><path class="cls-3" d="M244.69,432.89c.16-2.45.38-4.85.53-5.91.31-2.22,2.85-4.43,3.17-5.38s5.06-4.12,6.65-6.34,7.92-6.65,9.5-7.28c-.32-1.59-6.33-12-12.67-11.41-8.1.81-9.19,2.85-12.67,3.8a138.54,138.54,0,0,0-16.79,5.39c-6,2.53-.32,5.07.63,5.07S228.43,414,231,414s9.19.63,9.82,1.9-2.53,3.48-3.8,4.75-5.38,2.85-6.33,0-2.85-.95-2.85-.95-1.91,7.92-3.81,10.77,2.86,5.38,2.86,5.38,10.45.32,13.3-1.26A27.52,27.52,0,0,1,244.69,432.89Z"/><path class="cls-3" d="M350.07,522c1.59-2.22-1.58-3.17-4.43-4.44s-10.46-1.26-11.72-3.16-6.34-4.12-8.56-6.66-5.07-5.7-7.6-9.18.95-5.71,1.9-9.51,0-3.17-2.85-7-5.07.32-8.87-.31-10.77.95-12.35-2.54a7.16,7.16,0,0,1,1-7.6c.95-.95,6.33.63,9.5.63s16.16-1.9,15.84-4.11-14.89-7.29-16.16-8.56-11.72-12-13-13.3,1.91-5.07,5.39-5.7,7.92-2.22,5.39-3.81-8.56-2.85-8.24-7,7.29-4.43,6.33-6.33-1.26-3.8-1-4.75,2.54-3.17,4.76-4.75,2.85-4.76,2.21-8.87-2.53-2.86-3.16-5.07,2.21-2.22,3.8-6.34-.32-5.07-.32-7.28-.63-5.71-.63-7.29,9.5-7.29,15.2-10.46-2.53-8.86-4.75-10.13-17.42-.63-19.32-1.59-3.49-1.26-4.44-4.43-11.4-.32-11.4-.32-10.14,5.71-10.77,8.56-1.27,6-3.17,7.6-1.9,1.26-1.9,2.85a8.55,8.55,0,0,1-1.59,5.07c-1.26,1.9-1.58,1.9-4.11,2.85a38.42,38.42,0,0,0-7.29,3.17c-1.9,1.27,2.22,1.58,3.17,1.58s6.65-2.85,8.87-4.12,3.8.32,3.17,1.9-3.81,1.91-5.71,3.17-4.43,1.9-7.6,3.17-7,.63-8.55,1.58,2.53,1.9,4.43,1.9,8.24-1.9,11.09-3.16,8.24-1.9,8.24-1.9.63,8.55.31,10.45a17.1,17.1,0,0,0,.37,4.71l.27-.28s.63,11.41.63,13.31-.63,8.87-.63,8.87l.95,8.87-.64,21.86s1.59,5.38,2.86,8.23,2.85,4.44,4.75,7.29,3.17,4.12,4.43,6.65,2.85,3.49,4.44,5.39a57.86,57.86,0,0,1,5.06,7.92,46,46,0,0,1,5.07,11.4c1.27,4.43,3.49,8.55,5.07,10.14s2.85,4.12,5.39,7.92,3.17,4.43,4.43,6.33.64,1.27,2.85,3.17,3.8,0,3.8,0l.32,1.59a12.73,12.73,0,0,0,.7,1.18c1.46-1.35,2.79-3,2.79-3.72,0-1,6-1.9,6-1.9s8.87-.32,13.3-.32S348.49,524.24,350.07,522Z"/><path class="cls-1" d="M270.88,386.44s.63,8.55.31,10.45a17.1,17.1,0,0,0,.37,4.71"/><path class="cls-3" d="M252.82,489.07c.41-.25.9-.6,1.4-1a11,11,0,0,1-1.27-3.7c-3,1-4.33,2.28-5.83,2.78a20.65,20.65,0,0,1-6,.63c-1.58,0-4.44-1.58-4.44-1.58s1.27-3.48,3.49-3.48h5.07c2.53,0,3.8.31,5.7-.95a12.15,12.15,0,0,0,1.56-1.29,9.5,9.5,0,0,0-.29-.93,23,23,0,0,1-2.22-4.75c-.05-.24-.11-.57-.17-.94-1.83.39-3.07.94-3.63.94-.95,0-3.49.31-2.54-2.22s1.9-2.85,2.22-4.75,0-5.7-1.58-6.34-1-.32-3.8-2.53-6.34-5.07-8.56-5.7-7.6-6.34-4.12-7c2.6-.48,12.6.63,18.3-1.66a8.86,8.86,0,0,0-.91-3.61c-3.27.42-7.27,1-8.83.83-2.85-.31-10.46-.31-12.67-1.26s-8.87-3.49-9.19-4.44-4.12-3.8-4.12-2.53-.63,5.38,1.59,7,2.21,1.9,6.33,5.7,2.85,4.11,8.24,10.77,5.07,7.28,8.87,11.4,4.12,4.75,4.43,6-.63,3.8-4.12,0-9.82-9.82-12.67-15.2-6.65-10.78-8.55-12.68-3.8-3.8-3.8-.95,1.27,7.92,2.22,11.72,1.26,7.29,3.48,12-.32,7-.63,8.87c-.21,1.27-2.55,2.83-3.69,4.76,1.17,2.65,4.38,10,4.64,12.35,0,.35.08.68.13,1,6.59.07,20.26-1.52,22-2.28C241.1,493.19,250.29,490.66,252.82,489.07Z"/><path class="cls-3" d="M259.62,501.74a83.2,83.2,0,0,1-9.65-.31c-3.17-.32-7.61,1.26-6-1.27s5.39-3.17,7.29-3.17,3.8,1.27,7.6.32a10.7,10.7,0,0,0-.64-4.75.08.08,0,0,0,0-.05c-7.12,1.44-14.7,2.58-17.08,3.53-3.17,1.27-10.14,3.17-10.46,4.12s-6.33,0-3.48,2.53a31,31,0,0,0,8.55,5.71c2.54,1,2.22.31,6.34,1.9a41.22,41.22,0,0,0,16.15,2.53,12.45,12.45,0,0,0,1.58-.21,20.14,20.14,0,0,0,1-4.54,26.23,26.23,0,0,0-.32-3.8S260,503.13,259.62,501.74Z"/><path class="cls-3" d="M251.56,375c-1.77,0-14.77-.29-18.61-1.18s-3.54-.88-5.31-2.95a6.37,6.37,0,0,1-1.21-2.06c-2.39,3.45-4.32,6.2-4.65,6.54-.95.95-7.92,9.82-7.92,9.82s-3.37,7-6.93,10.74a14.89,14.89,0,0,0,3.28-.53c1.77-.59,3.25-1.77,5-2.66s3-3.54,3.25-4.72,2.36-3.25,2.36-3.25l2.07-4.13,6.2-1.48a38.43,38.43,0,0,1,5.32-.59c2.07,0,5.32,0,8.56-.3s6.2-.88,9.45-1.47S253.33,375,251.56,375Z"/><path class="cls-3" d="M253.63,363.19c-4.14-.88-4.14-1.48-5-2.36s-7.08-3.25-8-3.84,3.54-5.61,5.91-8.27,5.9,2.66,5.9,2.66,5.62,5.31,5.91,7.38,2.36,5,2.36,5a38.92,38.92,0,0,0-.59-9.15,18.21,18.21,0,0,0-4.43-8.27c-1.16-1.17-3.84-4.48-6.14-6.71l-5,5.92s-5.7,7.29-7,7.92c-.54.27-3.38,4.19-6.51,8.64a15,15,0,0,1,1.85,1.95c.59.88,3.55,1.18,4.73,1.47s4.43,1.48,4.43,1.48,8,.59,10.33.59,9.88-1.14,9.88-1.14A40.64,40.64,0,0,0,253.63,363.19Z"/><path class="cls-1" d="M185.11,238.66l2.14-5.94s4.51-5,7.12-6.42,8.79-5.7,10.22-6.18,8.32-.47,10.93-.71,7.6-.47,8.31-1.19-1-3.09,1.43-3.8,2.61-.47,4.28-.95S224.07,199,224.07,199s15,1.42,16.4,1.66,6.17,1.66,10.21,2.85,6.89,1.67,9.27,2.85,6.18,4.52,7.84,5.47,3.8.95,7.13,3.09,5.46,3.32,6.89,6.41,10,13.07,10.69,15.45a49.93,49.93,0,0,0,3.8,8.07c1.19,2.14,9.26,15.45,10,17.82s4,8.55,4.27,9.27,2.62,1.9,3.57,2.61,1.66,4,1.66,4l-2.61.95,6.89.24s1.42.95,1.18,1.9-2.13,2.85-2.13,2.85l1.18,1.66.48,3.09h2.85a22.61,22.61,0,0,0,.48,2.85c.23.71-1,3.09-1,3.09s3.8.71,4.75,1.66,3.32,2.85,4.75,4,4,3.09,3.8,5-3.33,5.23-4.51,5.94-9.27,3.8-10.7,4.28-10,4-10.69,5.23-5.22,3.56-6.41,4.27a22,22,0,0,1-6.18,1.67c-.95,0-3.32,4.51-4,5.22s-2.61,3.09-4.75,3.57a46.25,46.25,0,0,1-5,.71s.48,3.56-2.14,4a45.48,45.48,0,0,1-7.36.47,10.66,10.66,0,0,1-6.65-2.37c-2.86-2.14-3.33-3.33-5.23-5s-2.85-2.14-6.18-5-10.93-9-12.35-11.17-6.89-7.6-9-9.5-7.6-6.42-8.79-8.56-3.33-7.36-4.75-10-6.89-11.65-8.08-13.07-2.85-4-2.85-5.94-.24-6.42,0-8.08a45,45,0,0,0,.24-4.75l-8.32-2.38s-4.51-2.85-5.94-3.56S183.44,247,185.11,238.66Z"/><path class="cls-2" d="M296.3,244.83a49.93,49.93,0,0,1-3.8-8.07c-.72-2.38-9.27-12.36-10.69-15.45s-3.57-4.27-6.89-6.41-5.47-2.14-7.13-3.09-5.47-4.28-7.84-5.47-5.23-1.66-9.27-2.85-8.79-2.61-10.21-2.85-16.4-1.66-16.4-1.66,7.13,14,5.47,14.49-1.9.24-4.28.95-.71,3.09-1.43,3.8-5.7.95-8.31,1.19-9.5.24-10.93.71-7.6,4.76-10.22,6.18-7.12,6.42-7.12,6.42l-2.14,5.94a8,8,0,0,0-.14,1.27,162.61,162.61,0,0,0,16.29,4.19s9.51-7.36,10.46-8.08,6.89-1.66,10.69-1.66S235.24,236,235.24,236a4,4,0,0,0-2.14-2.85c-1.9-.95-7.84-2.37-10.45-4s-8.08-4.27-7.13-4.27,17.11,1.18,19.72.71,4,2.37,5.94-1.19,4.75-3.56,4.75-3.56,1.9,1.18,2.61.71a33.55,33.55,0,0,0,3.09-3.33s2.62-.71,3.57,0,4.27,2.14,4.75,2.85,3.8,5.23,5.46,6.42,4.52,3.33,5.23,2.61-1.43-3.56-1.9-4.27-3.57-2.14-4.75-3.57a33.19,33.19,0,0,1-2.85-4.75s5.94.71,6.65,1,1.9,1.9,2.37,2.61,3.33,5.23,3.57,6.66,1.19,5.94,2.14,6.41,2.13-2.85,2.13-2.85-2.37-3.33-2.85-5.7a18.7,18.7,0,0,0-1.42-4.75,32.37,32.37,0,0,0-3.09-4.76s4.51,0,4.75,1,3.33,6.17,3.56,7.84,3.09,6.65,4,8.07a40.64,40.64,0,0,0,3.09,4.76c1.26,1.47,8.47,6.1,10.61,7.8Z"/><path class="cls-1" d="M107.4,178.92s-1.46-.36-1.74-.36-3.21.91-3.21.91l.09,2.2,1.1,2.11-1.46.28s-1.75.18-1.84.46-.64,1.46-.73,1.83a2.73,2.73,0,0,0,.46,1.74c.27.19-.46.64-.46.64l-1.83.46a11.4,11.4,0,0,0-.46,1.56,4.29,4.29,0,0,0,.55,1.83c.27.19-.83.65-.83.65l-.82,1.37s-.46,1.1.27,1.38,3.12,1.83,3.49,2,.82,1,1.1,1.29.09.55,1,1a12.52,12.52,0,0,0,1.55.65A2.85,2.85,0,0,1,105,202a10.43,10.43,0,0,0,1.37,1.37c.55.55,2.39,4.13,2.75,4.4a23.09,23.09,0,0,0,3.4,1.56c.82.28,2.11.55,2.65.73s2.52,3.22,3,4.17,11.56,12.2,12.51,13,9.19,9.35,9.82,9.82,5.55,5.54,7.29,7.13,7.76,7.28,9.82,9,4.91,3.32,6,4.43a22.32,22.32,0,0,0,5.86,3.33,72.76,72.76,0,0,0,7.28-.79s21.23-.32,30.41-13.15c0,0-1.42-14.1-17.42-12.51s-11.4.79-11.4.79a127.61,127.61,0,0,0-17.27-7.92c-10.13-3.8-23.28-17.26-23.28-17.26l-10.61-7.92s-3.33-3.65-3.33-4.12-3.48-7.13-3.48-7.13-.48-3-1-3.17S107.4,178.92,107.4,178.92Z"/><path class="cls-3" d="M152.8,233.9c1.9.48,19.48,8.79,20.9,9.51s2.86,2.37,5.23,3.09,6.18-1.67,7.6-1.9a46.41,46.41,0,0,1,5.71-.72c1.23,0,2.82-5.19-2.22-9.35h-.24c-16,1.58-11.4.79-11.4.79a127.61,127.61,0,0,0-17.27-7.92c-10.13-3.8-23.28-17.26-23.28-17.26l-10.61-7.92-.36-.4c-2.72.61-6.21,2.29-7.09,4.75-1.19,3.33.48,6.42,1.66,6.65a9.38,9.38,0,0,1,4.76,2.14c1.42,1.43,6.65,7.13,8.31,9.27S150.9,233.43,152.8,233.9Z"/><path class="cls-3" d="M154.7,236c.71-.95,9,5.47,10.21,6.42a21.9,21.9,0,0,0,4.52,2.61c1.19.48,5.7,3.8,5,5.23s-5.94,5.7-7.13,5.94-3.57-5.47-3.57-5.47l1.19-3.56-4.51-1.66a38.86,38.86,0,0,1-4-4.28C155.41,239.84,154,237,154.7,236Z"/><path class="cls-3" d="M113.43,183.44c-3-2.24-6-4.52-6-4.52s-1.46-.36-1.74-.36-3.21.91-3.21.91l.09,2.2,1.1,2.11-1.46.28s-1.75.18-1.84.46-.64,1.46-.73,1.83a2.73,2.73,0,0,0,.46,1.74c.27.19-.46.64-.46.64l-1.83.46a11.4,11.4,0,0,0-.46,1.56,4.29,4.29,0,0,0,.55,1.83c.27.19-.83.65-.83.65l-.51.85c2,1.11,5.42,3.47,5.42,3.47a5.81,5.81,0,0,0,1-2.14l.24-1.18s2.14-2.85,1.9-3.8a3.4,3.4,0,0,1,.48-2.14l1.42-.48,1.19-1.9s1.19-2.61,2.38-2.61,1.42.24,2.13.24A5.92,5.92,0,0,0,113.43,183.44Z"/><path class="cls-3" d="M332.65,300.9c-1.43-1.19-3.8-3.09-4.75-4a8.33,8.33,0,0,0-3.1-1.28c-.73.6-1.42,1.05-1.42,1.05s-.47,2.37.48,2.85,1.42-.24,2.85,1.42,1.66,2.62,4.28,4.28a14.73,14.73,0,0,0,5.12,1.74,3.75,3.75,0,0,0,.34-1C336.69,304,334.07,302.09,332.65,300.9Z"/><path class="cls-3" d="M324.1,292.16v-.05a22.61,22.61,0,0,1-.48-2.85h-2.85l-.48-3.09-1.18-1.66s1.9-1.9,2.13-2.85-1.18-1.9-1.18-1.9l-6.89-.24,2.61-.95s-.71-3.33-1.66-4a37.33,37.33,0,0,1-3.26-2.21c.62,1,1.29,2.79,2.31,3.4,1.18.71,1.42,1.42.23,2.85s-2.85,2.61-2.13,3.09,3.32,1.9,3.32,1.9l.48,1.19,2.61,2.61s.24,2.61,1.19,3.33,1.42,1.42,3.33,1.42C322.83,292.11,323.49,292.12,324.1,292.16Z"/><path class="cls-3" d="M310.42,271.61a.92.92,0,0,0,.13.31C310.53,271.86,310.48,271.74,310.42,271.61Z"/><path class="cls-3" d="M282,340.82c1.89-.34,2.16-2.28,2.17-3.34-1.06-.32-1.81-.64-1.93-.94-.47-1.19-7.6-11.88-9.74-13.54s-8.79-6.65-11.17-8.32-5.46-5-8.55-8.31a95.85,95.85,0,0,1-9.27-12.83c-1.66-2.85-5.7-14.26-6.41-15.68s-6.65-14.5-8.08-16.87-5.23-4-5.23-4,8.08,18.77,8.8,19.24-2.62,2.86-4.28.72S225,265,223.83,262.41s-7.36,1.43-8.55,2.62,1.9,8.55,3.09,11.16,14,17.11,14.49,18.77a49.34,49.34,0,0,0,3.33,6.42l-10.09-2.33c.12.23.24.47.35.66,1.19,2.14,6.65,6.66,8.79,8.56s7.6,7.36,9,9.5,9,8.32,12.35,11.17,4.28,3.32,6.18,5,2.37,2.85,5.23,5a10.66,10.66,0,0,0,6.65,2.37A45.48,45.48,0,0,0,282,340.82Z"/><path class="cls-3" d="M317.44,317.06c-2.37-1.9-4.75-2.61-5.7-4s1.9-3.33,3.09-3.33,9.27-4.75,8.32-6.41-7.13-1.66-9.27-1.9-8.32-.71-13.31-2.38-39.67-17.34-41.81-19.95,8.79.95,10,1.42,15.68,7.84,18.77,9.27,17.82,6.65,19.24,6.65a12.79,12.79,0,0,0,6.18-1.66c1.66-1.19-1.66-3.33-3.09-4s-9-3.33-11.88-3.33-12.35-2.61-14-3.56-2.13-1.67-.23-1.43,16.63,3.8,20,4,5.94,0,6.42-1-.95-2.38-3.09-3.09-8.08-.47-10.22-.95-12.83-3.33-15-4.51-12.6-5.71-15-7.13-5.7-4.51-5.23-5.23,6.18,2.38,8.79,2.85,27.56,5.94,31.84,6.18a77.74,77.74,0,0,0,9.74-.42,3.92,3.92,0,0,1-1.43-1.24c-.23-.72-3.56-6.89-4.27-9.27-.42-1.38-3.31-6.44-5.9-10.86a43.39,43.39,0,0,1-9.31,1.83c-4.75.24-6.89.72-9.5.72a77.73,77.73,0,0,0-9.74.95,20.33,20.33,0,0,1-8.08-.72,36.44,36.44,0,0,0-8.79-.23c-1.9.23-6.65,4.27-7.6,5s-5.47,4.27-5.47,4.27a68.77,68.77,0,0,0,.71,7.6c.48,2.14,2.85,10,2.85,11.65s5.71,14.25,7.13,16.63,11.41,10.93,13.31,12.35,10.69,7.13,13.78,8.32c2.34.9,12.35,5.91,17,8.27.5-.66,1-1.14,1.26-1.14a22,22,0,0,0,6.18-1.67c1.19-.71,5.7-3.09,6.41-4.27.47-.79,4.37-2.61,7.37-3.89Z"/><path class="cls-3" d="M295.9,345.25c4.12-1.9,9.51-4.43,13.31-2.53s5.06,1.58,8.23,2.85,8.24,3.17,8.24,3.17,8.24-.32,7,1.9-12,1.9-15.21.32-5.7-2.22-7.6-3.17a20.83,20.83,0,0,0-7.92-1.9A41.3,41.3,0,0,1,295.9,345.25Z"/><path class="cls-3" d="M257.26,287c1.61.13,7.28,2.85,9.82,4.44s23.76,11.09,26.29,12,10.14,3.8,11.09,4.75,1,.32,1.9,2.53-5.71,2.54-5.71,2.54-7-3.8-9.5-4.75-7.92-3.49-9.5-3.49-7.6,2.22-7.6,2.22,4.11,1.27,6.65,1.9,2.85,0,5.07,1.58,5.7,4.76,7.28,5.71,3.49.63,5.39,1.58,13.3-.95,11.72,1.27-6,5.07-7.6,4.12-9.19-4.12-10.46-4.76-7.92-5.07-9.5-6.33-4.12-1.59-6.65-2.85-7-2.22-8.56-4.44-1.9-.95-3.48-4.43-1-4.75-4.12-7.61S253.14,286.65,257.26,287Z"/><path class="cls-3" d="M125.24,163c.19.89.61,2.17,1.35,2.23,1,.09,2,.09,2.33.09a16.59,16.59,0,0,1,1.9.43l2.44.2c-.6-1-1.44-3.53-1.85-3.53s-2.37-.12-3.44-.12A10.16,10.16,0,0,0,125.24,163Z"/><path class="cls-3" d="M123.92,167.36c.22-.15-.2-1.79-.43-2.56-.57-.25-2.27-1-3-1.42a5.09,5.09,0,0,0-2.25-.95,13.74,13.74,0,0,0-2,.78c-.35.17-.52,1.64-.52,1.9s1,2.08.78,2.08-2-.17-2-.17l-1.13.34c-.26.09-.69,1-.69,1l.17,2.16-.26,1-1.18.25-1,.53v2.65l-1.06.79.3,1.43c1.81,2.4,5,5.63,6.57,4.32,2.27-1.88.81-2.23.81-2.23l-2.5-1.72,3.53.6a1.63,1.63,0,0,0,1-.43c.43-.43,1.29-1.12.69-1.9a13.35,13.35,0,0,0-1.82-1.89,11.36,11.36,0,0,0-2.14-1l4.73,1.76s1.21.26,1.47-.26a11,11,0,0,0,.78-2.41,5.66,5.66,0,0,0-.61-2.16c-.26-.17-3.62-1.29-3.62-1.29l4,.17S123.66,167.53,123.92,167.36Z"/><path class="cls-3" d="M118.91,183.14a8.28,8.28,0,0,1,3.37-.86c.77.09,1.46-.09,2.15.35s.61-2.33.61-2.59a14.51,14.51,0,0,1,2.24-1.9,33.53,33.53,0,0,1,1.64-4.4c.52-.78,3.62.09,3.8.35a3,3,0,0,1,.69,3.36,11.41,11.41,0,0,1-2.59,4c-.95,1-5.52,2.41-5.87,2.41s-2.15,2.5-2.67,2.76S116.76,188.15,118.91,183.14Z"/><path class="cls-1" d="M187.56,227.09l3.29,2a20.05,20.05,0,0,1,3.52-2.77c2.62-1.42,8.79-5.7,10.22-6.18s8.32-.47,10.93-.71,7.6-.47,8.31-1.19-1-3.09,1.43-3.8,2.61-.47,4.28-.95S224.07,199,224.07,199l1.65.16-1.25-.87L212.59,193,179,217.75l3.33,4.75,1.42,3,1.9,1.74Z"/><path class="cls-4" d="M215,189.82l5.44-2.12a3.82,3.82,0,0,0,2.58-.15c.9-.6,2-3,2-3a1.65,1.65,0,0,1,.16,2.43L223,189.06l3.17-.3,1.07-1.21c.6,0-1.21,2.57-1.82,2.72s2-.6,2-.6.6,1.06,0,1.51a6.77,6.77,0,0,1-1.36.76l2.87-.46-2.42,1.67h-1.36s-2.88-.15-.76.45,5.45,1.37,6.05,1.67l.61.3-2.42.76c-.46.15,2.87,1.51,2.87,1.51s-.6.15-1.66.45,1.36,1.06,1.36,1.06.76,1.06-.3,1.37l-1.06.3s1.36,1.06.76,1.66.6,1.37.6,1.37l3.33,2.57s-.3.3-1.36.3.45,1.06.75,1.66,1.36-.3.3.61a22.22,22.22,0,0,0-2.41,2.72l-2.27,1.56a6.3,6.3,0,0,1-2.11-.1,7.89,7.89,0,0,1-1.37-.4c-.77-.29-4.6-1.69-5.15-2a27.58,27.58,0,0,1-3.18-2.43l10,6.36s-1.89-.43-2.46-.52.49.22-1.63-.69-3.33-1.36-3.33-1.36,3.33,2.12,3.94,2.57,1.51,1.06,1.51,1.06a9.07,9.07,0,0,1-2.72-.15,26.68,26.68,0,0,1-2.27-1.52s-.31-.3.3.61a26.72,26.72,0,0,0,1.82,2.12c1,1.16.6,1.66.9,2.12a12,12,0,0,1,.76,1.51s-.91,1.06-1.51-.15a24.81,24.81,0,0,0-1.21-2.27c-.31-.45-1.82-3.18-1.82-3.18s.15-.15.15,1.21a10.06,10.06,0,0,1-.45,2.73s.45.45-.91-.61a13.66,13.66,0,0,1-2.27-2.27l1.21,2.88s-3.78-3.48-4.24-3.79a25.12,25.12,0,0,0-3-1.06l-2,.31-2,.45.76,2s1.67,1.21-.91,0a24.62,24.62,0,0,0-3.78-1.52,1,1,0,0,1-.76,0,10.24,10.24,0,0,0-3-.75,10.66,10.66,0,0,1-2.43-.31c-.45-.15-.6.31-1.81-.75s-2-6.21-2-6.21Z"/><path class="cls-3" d="M231.59,208.58a25.41,25.41,0,0,0-3.65-.25,10,10,0,0,1-2.89-.5c-1.13-.25-3.52-1.13-3.9-1.26s-.63-.38-1-.5,1.76,0-2.9-1.51-6.28-1.51-6.28-1.51-1.51-.38-1.64-1a5.85,5.85,0,0,1,.13-1.76s3.39-.12,3.77-.12a8.07,8.07,0,0,1,1.89,0c1.25.12,2.13-.38,3.52.12a7,7,0,0,1,2.51,1.89s.25.5.63,1.13,1,1.64,1,1.64a3.6,3.6,0,0,1,1.13.62,11.38,11.38,0,0,0,2.93.67,13.18,13.18,0,0,1-2.18-1.55,10.58,10.58,0,0,1-1.25-1.25,5.33,5.33,0,0,1,3.64.88l-1.63-1.64-.38-.88c1.51.88,1.63.63,2.26,1.26l.63.63a12.52,12.52,0,0,0-.88-2.14l-.5-.88-3-2s-1.63-.38-2-.5,3.14.12,3.52.12h2.77c1.25,0,2.39-.63.12-.75a39.61,39.61,0,0,0-5-.26c-1.51.13-3.27.13-3.27.13a29.56,29.56,0,0,1,4.15-.63,16.3,16.3,0,0,0,5-1c.36-.18.82-.41,1.28-.62-1-.34-3.47-.92-5.31-1.43a17.32,17.32,0,0,0-3,.16A13.75,13.75,0,0,1,220,194s3.65-1.64,4.28-1.89a5.45,5.45,0,0,1,2-.29,6.45,6.45,0,0,0,1.1-.64.7.7,0,0,0,.26-.56c-1.8.41-3.81.86-4.26.86a3.77,3.77,0,0,0-2,.5,9.91,9.91,0,0,1-1.25.63,13.87,13.87,0,0,1,1.88-1.76,15.24,15.24,0,0,0,1.64-.88,4.12,4.12,0,0,0,1.76-.63,3.18,3.18,0,0,0,.67-.57l-3.07.29,2.12-2.11a1.49,1.49,0,0,0,.48-1c-1.2,1-2.39,2.07-3,2.54-1.38,1.13-2,.88-2.64,1.51a5.56,5.56,0,0,1-1.51,1,3.14,3.14,0,0,1,1.64-1.76,3.59,3.59,0,0,0,1.74-1.36,5.4,5.4,0,0,1-1.44-.16L215,189.82l-13.73,10.76,1.77,7c.62.37,4,2.89,5.15,3.64a58.07,58.07,0,0,0,6,2.64l-2.52-2.14s-1.13-.62-1.88-1.13-2-1.76-1.26-1.38,3,1,3.52,1.38a17,17,0,0,1,1.51,1,17.73,17.73,0,0,0,2.14,1.63c1.13.76,1.76,1.26,1.76,1.26s1-.12-.88-1.51-1.51-1.13-2.9-2.26-1.88-1.76-2.51-2.14-1.76-.63-2.26-1a9.67,9.67,0,0,1-1.64-1.14c-.63-.63-2.26-2.51-2.26-2.51s3.27.25,4.78,1.26,3,2.51,3.77,2.89a6.5,6.5,0,0,1,2.26,1.51,8.63,8.63,0,0,0,1.51,1.51l.75.62s-1.13-2.51-1.88-3-2.39-1.89-2.39-1.89-2.39-1.13-1-.75,2.39.75,2.77.88,1.38.63,1.38.63a28.87,28.87,0,0,0,3.9,2.89c1.13.5.5.12,1.76.63s.63.5,2,.5a11.56,11.56,0,0,1,2.14,0,16.07,16.07,0,0,0,2.52,0,9.2,9.2,0,0,0-2.14-.76,10.6,10.6,0,0,1-2.39-.88,4.32,4.32,0,0,1-2.39-.62C221,208.58,219.64,208,220,208s6,1,7.54,1.13,0,.13,1.51.13a9.93,9.93,0,0,0,2.14,0C231.59,209.08,232.22,208.71,231.59,208.58Z"/><path class="cls-3" d="M226.85,206.23a1,1,0,0,0,.34.09C227.37,206.32,227.18,206.28,226.85,206.23Z"/><path class="cls-3" d="M226.81,191.86a1.92,1.92,0,0,0,.72-.15l-.88.13Z"/><path class="cls-3" d="M189.78.59C179.47,3.41,165.46,24.41,163,38.66l.33.65c1.55.26,3.11.51,4.67.75,5.87-13.54,12.73-25.9,25.06-35.35A26.67,26.67,0,0,1,189.78.59Z"/><path class="cls-1" d="M167.49,208.89,154,220.24A21.81,21.81,0,0,0,158,223c1.66.76,12.41-1.06,12.41-1.06s3.93-1.66,4.38-1.82,10.75-3.93,10.75-3.93,10-2.87,12-4.08,7.86-6.51,8.47-7,5-3.17,5.75-4.23a21.89,21.89,0,0,1,3-3.33,3.66,3.66,0,0,0,1.81-2.57,5.29,5.29,0,0,0-.3-4.09c-.61-1.21-1.36-3.48-1.67-4.24s-1.21-2.42-1.21-2.42-1.05-1.51-2-2.87-6.66-2.58-8.48-3-11.8-.91-13.16-.61-5.45,1.37-7.72,2.88a31.76,31.76,0,0,0-6.51,5.14c-1.66,2-5.3,7.12-5.3,7.57s-.45,3.18-.45,4.09-.6,6.2-.6,6.2l2.72,3.18Z"/><path class="cls-2" d="M210.62,187c.3-2.12-.61-2.88-.3-3.79a14.79,14.79,0,0,0,.37-2.39c-1.81-1.12-6.23-2.06-7.79-2.45-1.81-.45-11.8-.91-13.16-.61s-5.45,1.37-7.72,2.88a31.76,31.76,0,0,0-6.51,5.14c-1.66,2-5.3,7.12-5.3,7.57s-.45,3.18-.45,4.09c0,.47-.17,2.17-.33,3.67.21,1.25.45,2.33.78,2.53a4.73,4.73,0,0,0,2.58.91c1.81.3,10.59-1.21,13.92-2.27s7.57-4.54,9.08-5.75,3.33-3,4.84-4.09,1.06-.6,3.48-1.66,4.24-1.82,4.24-1.82A2.14,2.14,0,0,0,210.62,187Z"/><path class="cls-1" d="M84.42,611c2.11-.37,59-12.73,59-12.73l5-2.53s1-.29,1.07-.88.49-1.75.58-2.53-.48-1.07-1.85-1.46-66.95-15-66.95-15L10.42,585l3.09,4.67,64,21.21Z"/><path class="cls-3" d="M148.13,590.82c-1.36-.39-66.95-15-66.95-15l-69.41,9c15.29,4.94,65.49,21.11,68,21.45a34.35,34.35,0,0,0,7,.41c1.9-.14,39.92-7.31,39.92-7.31l.28-1.9,3.92-.4-.14,1.35s12.45-2,15.16-2.43a10.83,10.83,0,0,0,3.41-1,.5.5,0,0,0,0-.13c.1-.58.49-1.75.58-2.53S149.5,591.21,148.13,590.82Z"/><path class="cls-3" d="M149.89,591.72c-.21-.39-.79-.62-1.76-.9-1.36-.39-66.95-15-66.95-15L17.94,584c19.35,5.61,61.27,17.74,62.51,18.06a13.93,13.93,0,0,0,6.23.67c2.84-.4,57.92-9.74,61.44-10.28C149.21,592.29,149.72,592,149.89,591.72Z"/><polygon class="cls-3" points="76.67 580.96 129.17 594.08 96.42 599.49 69.36 591.65 76.67 580.96"/><path class="cls-1" d="M.5,505.26s2.91,74.85,2.91,76.65.9,2,2.88,2.87,66.55,22.31,69.06,23,5.76.53,5.94-3.06,0-92.1-.18-95.69-1.26-5.22-5.76-5.22-71.86-.42-72.8-.42A1.87,1.87,0,0,0,.5,505.26Z"/><path class="cls-3" d="M76.09,503.86l-.74,0c-4.49,0-71.86-.42-72.8-.42a1.87,1.87,0,0,0-2,1.84s2.91,74.85,2.91,76.65a2.43,2.43,0,0,0,.33,1.38c.45.26,1,.49,1.79.83,2,.89,66.1,22.16,68.6,22.87s5.72.54,5.9-3,0-91.48-.18-95.05C79.7,505.93,78.93,504.31,76.09,503.86Z"/><path class="cls-3" d="M73.3,606.41c2.47.71,5.65.53,5.83-3s0-90.46-.18-94-1.24-5.12-5.65-5.12-70.59-.42-71.51-.42A2.5,2.5,0,0,0,1,504a1.52,1.52,0,0,0-.45,1.22s2.91,74.85,2.91,76.65a3.35,3.35,0,0,0,.13,1,18.88,18.88,0,0,0,1.92.92C7.4,584.68,70.83,605.7,73.3,606.41Z"/></g></g></svg>