<?xml version="1.0" encoding="utf-8"?>
<!-- Generator: Adobe Illustrator 25.2.0, SVG Export Plug-In . SVG Version: 6.00 Build 0)  -->
<svg version="1.1" id="Layer_1" xmlns="http://www.w3.org/2000/svg" xmlns:xlink="http://www.w3.org/1999/xlink" x="0px" y="0px"
	 viewBox="0 0 600 600" style="enable-background:new 0 0 600 600;" xml:space="preserve">
<style type="text/css">
	*{vector-effect:non-scaling-stroke}
	.st0{fill:#FFFFFF;stroke:#000000;stroke-width:1.5;stroke-miterlimit:10;}
	.st1{fill:none;stroke:#000000;stroke-width:0.5;stroke-miterlimit:10;}
	.st2{fill:#FFFFFF;stroke:#000000;stroke-width:0.5;stroke-miterlimit:10;}
	.st3{fill:#FFFFFF;stroke:#000000;stroke-width:0.75;stroke-linejoin:round;}
</style>
<g id="Layer_2_1_">
	<g id="Layer_1-2">
		<path class="st0" d="M322.2,46.6l16,12l11.4-9.2l-15.7-15.7c0,0-26.8-26.8-28.3-30.1c-10.1,2.8-24,23.7-26.1,37.6
			C299.7,44.5,322.2,46.6,322.2,46.6z"/>
		<path class="st0" d="M241.7,161.8c0,0,36-48.3,50.1-67C305.9,76.1,326,48.2,326,48.2l10.1,6.7c0,0-29.5,34.9-39.5,46.9
			s-35.2,50.3-47.3,65c-12.1,14.7-29.5,42.3-29.5,42.3l-9.4-3C210.4,206,222.8,179.5,241.7,161.8z"/>
		<path class="st1" d="M219.7,209c0,0,17.4-27.5,29.5-42.3s37.2-52.9,47.2-65S336,54.9,336,54.9l-7-4.7c0,0-20.1,27.9-34.2,46.6
			c-14.1,18.7-50.1,67-50.1,67c-16.9,15.8-28.6,38.7-30.9,43.3L219.7,209z"/>
		<path class="st0" d="M235.8,184.9c-1.3,0-2.7-2.3-2.7-2.3c-1-0.9-1.9-1.7-2.9-2.6c-0.8-0.9-1.5-1.8-1.9-2.8l-0.8-3.6l1.1-0.8v-2.5
			l1-0.5l1.2-0.2l0.3-1l-0.2-2.1c0,0,0.4-0.9,0.7-1l1.1-0.3c0,0,1.7,0.2,1.9,0.2c0.3,0-0.8-1.7-0.8-2s0.2-1.7,0.5-1.8
			c0.6-0.3,1.3-0.6,1.9-0.8c0.8,0.1,1.6,0.5,2.1,0.9c0.9,0.5,3.1,1.5,3.1,1.5s-0.1-1.2,0.4-1.4c1.2-0.6,2.5-1,3.8-1.2
			c1.1,0,2.9,0.1,3.3,0.1c0.4,0,1.6,3.3,2,3.8c0.9,0.8,1.4,1.9,1.3,3.1c-0.1,1.4-0.7,9.4-0.7,9.4s-1.1,4.7-0.9,5.3
			c0.2,0.7,3.5,12.9,4.2,13.4c0.7,0.5,4.3,7.6,5,8.2s11.4,12.3,11.4,12.3l15-9.3l9.5-1c0,0,7.8,4,8.1,5.8c0.3,1.8,7.9,20.5,6.3,22
			c-1.6,1.5-26,2.6-26,2.6l-42.7-37.9L235.8,184.9z"/>
		<path class="st0" d="M475.5,530.4c0.5,0.5,0.9,1.2,1.2,1.8c0.1,0.4,0.1,0.8,0.1,1.3c0,0.3-4.4,3.9-4.7,4.1c-1.5,1.1-2.9,2-4.6,2.9
			c-3,1.6-6.1,2.8-9.3,3.9c-3.4,1.1-6.8,1.9-10.2,2.5c-2.2,0.3-8,0.8-10.2,1.1c-2.2,0.3-5.1,0.5-6-0.1c-0.9-0.6-3.5-2.3-3.6-2.9
			c-0.1-0.6,0.5-5.7,0.5-5.7s2.4-3,4.1-3.9c1.7-0.9,6.4-5.1,6.9-5.4c0.5-0.3,3.2-3.1,3.6-3.4c1.6-0.7,3.1-1.3,4.8-1.7
			C449,524.6,475.5,530.4,475.5,530.4z"/>
		<path class="st0" d="M336.1,494.5c-1.1,0.2-6,2.9-7.7,3.5c-1.7,0.6-11,3.4-12.2,4.1c-1.3,0.7-5.2,2.1-6.5,3.2s-3.3,2.1-4.1,3.5
			c-0.7,1.8-1.3,3.6-1.7,5.5c0,0,5.2,4.6,15.2,2.7c9.9-1.8,18.7-3.5,20.3-3.7c3.2-0.7,6.4-1.5,9.5-2.4c4.5-1.3,18-2.7,19.7-2.9
			c1.7-0.2,5-2.1,5-2.1l-1.8-5.2C371.7,500.6,345.6,492.9,336.1,494.5z"/>
		<path class="st0" d="M445.2,300.5c1.3,0,5.8,12.3,5.8,12.3s1.6,4.7,1.8,6.1c0.3,1.5,1.3,8.9,1.3,9.8c-0.2,1.7-0.2,3.3,0,5
			c0.3,1.8,1,1.8-0.3,4.3c-1,2.2-1.7,4.5-2.1,6.8c-0.2,1.3-0.3,2.4-0.3,3.7l-0.3,3.4c-0.2,1.3-0.6,2.5-1.3,3.7
			c-1,1.3-5.2,7.1-5.2,7.1s-4.7,6.8-5.2,8s-1.8,1.6-2.4,3.7c-0.6,2.1-3.7,5.2-4.7,8c-1.1,3.9-1.7,8-1.8,12c0,2.4,0.6,8.6-1.3,10.2
			c-1.9,1.5-4,2.8-6.1,4c0,0-1.3,8-1.3,9.2c0,1.3-1,6.5-1,7.4s1.6,2.1,3.4,3.4c1.8,1.3,1.6,0.3,3.4,3.1c1.8,2.8,2.1,2.1,4.3,6.1
			c2.1,4,5.5,9.5,5.5,11.1s1.3,4.7,2.1,5.2c0.9,0.7,1.5,1.7,1.6,2.8c0,1-1.8,3.1-0.6,5c1.3,1.8,2.8,2.8,3.4,4.7
			c0.6,1.8,0.6,3.1,1.6,4.7s0.3,1.8,1,3.7c0.7,1.8,1,0.6,1.8,4.3c0.9,3.7-1,2.1,1,5c1.9,2.8,1.3,3.7,2.1,5c0.9,1.3,3.1,1.6,4.3,2.4
			c1.2,1.1,2,2.4,2.4,4c0.3,1.3-0.3,2.1,0.3,3.7c0.6,1.6,2.4,2.8,4,3.4c1.1,0.5,1.9,1.1,2.8,1.8l4,5.5c0,0-3.1,1.8-2.4,2.7
			c0.6,0.9,1.3,1.6,2.1,2.1c1.1,1,1.9,1.9,2.8,3.1c0,0-2.4-2.1,1,1.8s2.8,7.4,2.8,7.4l2.8,3.7c0,0-9.2-0.3-10.2-1
			s-13.5-3.1-15.1-3.1c-2.1,0.2-4.4,0.1-6.4-0.3c-2.7-0.4-5.5-0.6-8.4-0.6v-3.7c-1.3-0.4-2.5-0.9-3.7-1.6c-0.8-0.7-1.4-1.6-1.8-2.4
			l-0.3-1.6c0,0-1.6,1.8-3.7,0c-2.1-1.8-1.6-1.3-2.8-3.1c-1.3-1.8-1.8-2.4-4.3-6.1c-2.4-3.7-3.7-6.1-5.2-7.7c-1.6-1.6-3.7-5.5-5-9.8
			c-1.2-3.9-2.8-7.6-5-11.1c-1.5-2.7-3.1-5.2-5-7.7c-1.6-1.8-3.1-2.8-4.3-5.2c-1.2-2.4-2.4-3.7-4.3-6.4c-1.8-2.7-3.4-4.3-4.7-7.1
			c-1.3-2.8-2.8-8-2.8-8l0.6-21.3l-1-8.6c0,0,0.6-6.8,0.6-8.6s-0.6-12.9-0.6-12.9s-5.5,5.8-7.1,6.5s-7.7,5-9.2,7.1
			c-1.6,2.1-6.1,5.2-6.4,6.1c-0.3,0.9-2.8,3.1-3.1,5.2c-0.3,2.1-0.9,10.2-0.6,12c0.3,1.8,2.1,3.4,1.3,7.4c-0.9,4-0.9,11.7-0.3,12.9
			c1.1,1.8,2,3.8,2.8,5.8c0.6,2.1,1.3,6.8,1.6,8.4c0.6,1.7,1.3,3.2,2.1,4.7c0.4,1.1,0.6,2.2,0.6,3.4c0,1.8,1,5,2.1,5.8
			c1.3,0.9,2.3,2,3.1,3.4c0.6,1.5,0.8,3,0.6,4.7c-0.3,1.6,1.6,6.8,1.6,6.8c0.2,1.3,0.3,2.4,0.3,3.7c0,1.8-1.3,5-1.3,5.8
			s-10.9,2.8-10.9,2.8H359c-1,0-2.4-0.3-3.4-0.3s-1.6-0.6-4.3-1c-2.5-0.3-5-0.8-7.4-1.6c-1.8-0.6-5.2-1-6.8-2.4s-4.7-5.2-4.7-5.2
			l3.7-3.1l-3.7-2.4c-0.4-1.7-0.8-3.3-0.9-5c-0.3-2.8-5-12.9-5-12.9s-0.9-5-1.3-8.6c-0.4-3.7-6.8-27.1-6.8-27.1s2.1-8.9,1.3-10.8
			s-3.1-5.8-3.4-8.6c-0.3-2.8-1-5-0.3-7.4c0.7-3.8,0.9-7.6,0.6-11.4c-0.3-1.6,3.8-8.5,4.7-9.2c3.7-3.4,7.4-11.1,7.4-11.1
			s6.8-8.6,7.7-9.5s14.2-20.6,15.3-21.3c1.2-0.7,6.8-7.7,6.8-7.7l8-9.5l0.6-5.2c0,0,0.6-4.7,2.8-5.2
			C372.2,318.4,390.7,298.7,445.2,300.5z"/>
		<path class="st2" d="M438.2,304.9c1.3,0,4.8,8.3,5.5,8.9s4,1.8,3.4,4.5c-0.6,2.6-1.3,4.8-1.3,5.3c0,0.6-0.1,2.8,1.1,4
			c1.2,1.2-1.1,3.9-1.1,4.3c0,0.4,1.6,1.1,1.8,2.3c0.3,1.3,0,3.7,0.3,4.5c0.3,1.5,0.2,2.9-0.3,4.3c-0.5,0.8-1.6,2.3-0.8,3.2
			s1,1,0.2,2.1c-0.9,1.5-1.3,3.2-1.3,5"/>
		<path class="st2" d="M441.6,334.2h-7.8c-0.8,0-5.3-2.1-6.1-2.7s-3.8-3.9-4.5-4.5c-0.7-0.6-3.4-3.5-3.7-4c-0.3-0.5-2.1-4.9-2.1-4.9
			"/>
		<path class="st2" d="M356,363.8c0,0,5-2.3,7.1-2.3s8.3,1.3,10.8,1.3"/>
		<path class="st1" d="M335.4,380.4c-0.9-1.3,4.3-2.1,7.7-3.7s9.5-1.8,10.5-1.8s9.8-4.7,14.5-5.5c4.7-1,7.4-1.8,7.1-3.1"/>
		<path class="st1" d="M320.3,400.2c-0.6-1,3.4-4,5-4.3c1.6-0.3,11.4-4.3,16-6.8s9.5-1.6,13.2-3.1c3.7-1.6-0.3-4-1.3-4.3"/>
		<path class="st2" d="M385.2,353.4c-0.6,2.8-1.3,5.8-3.1,7.4s-1.8,1.3-1.8,2.8c0,1.7-0.5,3.5-1.6,5c-1.3,1.8-1.6,1.8-4,2.8
			c-2.4,0.8-4.9,1.8-7.1,3.1"/>
		<path class="st2" d="M379.4,371.8c2.1-1.3,3.7,0.3,3.1,1.8c-0.6,1.6-3.7,1.8-5.5,3.1c-1.8,1.3-4.3,1.8-7.4,3.1
			c-3.1,1.3-6.8,0.6-8.4,1.6"/>
		<path class="st0" d="M384.3,378.3c0,0,0.6,8.3,0.3,10.2c-0.1,1.6,0,3.1,0.4,4.6"/>
		<path class="st2" d="M365.6,367.3c-1.7,0-14.4-0.3-18.1-1.2s-3.4-0.9-5.1-2.9"/>
		<path class="st2" d="M367.5,355.8c-4-0.9-4-1.5-4.9-2.3s-6.9-3.1-7.8-3.7"/>
		<path class="st0" d="M301,234.9l2-5.7c0,0,4.4-4.9,6.9-6.2s8.5-5.5,9.9-6s8.1-0.5,10.6-0.7c2.5-0.2,7.4-0.5,8.1-1.2
			c0.7-0.7-1-3,1.4-3.7c2.3-0.7,2.5-0.5,4.2-0.9c1.7-0.4-5.3-14.1-5.3-14.1s14.6,1.4,15.9,1.7c1.4,0.3,6,1.7,9.9,2.8
			c3.9,1.2,6.7,1.7,9,2.8c2.3,1.2,6,4.4,7.6,5.3c1.6,1,3.7,0.9,6.9,3c3.2,2.1,5.3,3.2,6.7,6.2c1.4,3,9.7,12.7,10.4,15
			c1,2.7,2.2,5.3,3.7,7.9c1.2,2,9,15.1,9.7,17.3c0.7,2.2,3.9,8.3,4.2,9c0.3,0.8,2.5,1.8,3.5,2.5c1,0.7,1.7,3.9,1.7,3.9l-2.5,1
			l6.7,0.2c0,0,1.4,1,1.2,1.8s-2,2.8-2,2.8l1.2,1.7l0.5,3h2.8c0.1,1,0.3,1.8,0.5,2.8c0.2,0.7-1,3-1,3s3.7,0.7,4.7,1.7
			c1,1,3.2,2.8,4.7,3.9s3.9,3,3.7,4.9c-0.2,1.8-3.2,5.1-4.4,5.7c-1.2,0.7-9,3.7-10.4,4.2c-1.4,0.5-9.7,3.9-10.4,5.1
			s-5.1,3.5-6.2,4.2c-1.9,0.9-3.9,1.4-6,1.7c-1,0-3.2,4.4-3.9,5.1s-2.5,3-4.7,3.5c-1.7,0.3-3.2,0.6-4.9,0.7c0,0,0.5,3.5-2,3.9
			c-2.3,0.4-4.8,0.5-7.2,0.5c-2.3,0-4.7-0.8-6.4-2.3c-2.8-2-3.2-3.2-5.1-4.9c-1.8-1.7-2.8-2-6-4.9c-3.2-2.8-10.6-8.7-12-10.9
			c-1.5-2.1-6.7-7.4-8.7-9.2s-7.4-6.2-8.5-8.4c-1.2-2.1-3.2-7.2-4.7-9.7c-1.5-2.5-6.7-11.3-7.9-12.7c-1.2-1.5-2.8-3.9-2.8-5.7
			s-0.2-6.2,0-7.9c0.2-1.6,0.2-3.1,0.2-4.7l-8.1-2.3c0,0-4.4-2.8-5.7-3.5C311,247.2,299.3,242.9,301,234.9z"/>
		<path class="st1" d="M388.7,213.9c0.2,1,3.2,6,3.5,7.6c0.3,1.6,3,6.4,3.9,7.9c0.9,1.7,1.9,3.1,3,4.7"/>
		<path class="st1" d="M362.6,218.3c1.1-1,2-2.1,3-3.2c0,0,2.5-0.7,3.5,0c1,0.7,4.2,2,4.7,2.8s3.7,5.1,5.3,6.2
			c1.7,1.2,4.4,3.2,5.1,2.5c0.7-0.7-1.4-3.5-1.8-4.2c-0.5-0.7-3.5-2-4.7-3.5"/>
		<path class="st1" d="M347.6,229.4c-1.8-0.9-7.6-2.3-10.1-3.9c-2.5-1.6-7.9-4.2-6.9-4.2"/>
		<path class="st0" d="M225.5,176.8c0,0-1.5-0.4-1.7-0.4c-0.2,0-3.1,0.9-3.1,0.9l0.1,2.1l1.1,2l-1.5,0.3c0,0-1.7,0.2-1.7,0.5
			c0,0.3-0.6,1.5-0.7,1.7c0,0.6,0.1,1.2,0.5,1.7c0.3,0.2-0.5,0.6-0.5,0.6l-1.7,0.5c-0.2,0.5-0.3,1-0.5,1.6c0,0.6,0.2,1.3,0.6,1.7
			c0.3,0.2-0.8,0.6-0.8,0.6l-0.8,1.4c0,0-0.5,1.1,0.3,1.4s3,1.7,3.4,1.9c0.4,0.2,0.8,1,1.1,1.3c0.3,0.3,0.1,0.6,1,1
			c0.5,0.3,1,0.5,1.6,0.6c0.6,0.2,1,0.6,1.4,1.1c0.4,0.5,0.9,1,1.4,1.4c0.6,0.6,2.3,4,2.7,4.3c1.1,0.6,2.1,1.1,3.3,1.6
			c0.8,0.3,2,0.6,2.6,0.7c0.6,0.1,2.4,3.1,2.9,4.1s11.3,11.9,12.1,12.6c0.9,0.8,8.9,9.1,9.5,9.5c0.6,0.4,5.4,5.3,7.1,6.9
			c1.7,1.6,7.6,7.1,9.5,8.7s4.8,3.2,5.8,4.3c1.7,1.4,3.6,2.4,5.7,3.2c2.3-0.1,4.8-0.4,7.1-0.8c0,0,20.6-0.3,29.5-12.7
			c0,0-1.4-13.7-16.9-12.1c-15.5,1.6-11.1,0.8-11.1,0.8c-5.4-3-11-5.5-16.8-7.7c-9.8-3.7-22.6-16.8-22.6-16.8l-10.3-7.7
			c0,0-3.2-3.5-3.2-4s-3.4-6.9-3.4-6.9s-0.5-2.9-1-3.1C237.1,185.1,225.5,176.8,225.5,176.8z"/>
		<path class="st2" d="M422.7,266.8c0,0.1,0.1,0.2,0.1,0.3C422.8,267.1,422.8,266.9,422.7,266.8z"/>
		<path class="st2" d="M385.9,316.8c-2-1.7-8.5-6.4-10.9-8.1c-2.3-1.7-5.3-4.9-8.4-8.1c-3.3-3.9-6.3-8.1-9-12.4
			c-1.7-2.8-5.5-13.9-6.2-15.3c-0.7-1.4-6.4-14.1-7.9-16.4"/>
		<path class="st2" d="M347.1,271.3c0.7,0.5-2.5,2.8-4.2,0.7c-1.7-2.1-3.2-11.7-4.4-14.1"/>
		<path class="st2" d="M422.5,280.3c0.5-1-1-2.3-3-3c-2-0.7-7.9-0.5-9.9-1c-2-0.5-12.4-3.2-14.6-4.4c-2.1-1.2-12.2-5.5-14.6-6.9"/>
		<path class="st2" d="M422.2,285.5c-1.4-0.7-8.7-3.2-11.6-3.2c-2.8,0-12-2.5-13.6-3.5"/>
		<path class="st1" d="M435,297.6c-0.9-1.7-6.9-1.7-9-1.8c-2.1-0.2-8.1-0.7-12.9-2.3"/>
		<path class="st1" d="M403.9,249.3c-4.7,0.2-6.7,0.7-9.2,0.7c-3.2,0.1-6.3,0.4-9.4,0.9c-2.6,0.3-5.3,0.1-7.9-0.7
			c-2.8-0.4-5.7-0.5-8.5-0.2c-1.8,0.2-6.4,4.2-7.4,4.9"/>
		<path class="st2" d="M408.6,338.3c4-1.8,9.2-4.3,12.9-2.4s5,1.6,8,2.8c3,1.3,8,3.1,8,3.1"/>
		<path class="st2" d="M415.1,317.1c-1.6-1-8.9-4-10.2-4.7c-1.3-0.7-7.7-5-9.2-6.1c-1.6-1.2-4-1.6-6.4-2.8c-2.4-1.3-6.8-2.1-8.4-4.3
			c-1.6-2.1-1.8-1-3.4-4.3c-1.6-3.3-1-4.7-4-7.4"/>
		<path class="st2" d="M371.1,281.8c1.6,0.1,7.1,2.8,9.5,4.3c2.4,1.5,23.1,10.8,25.5,11.7s9.8,3.7,10.8,4.7"/>
		<path class="st2" d="M237.6,183.4c2.2-1.8,0.8-2.1,0.8-2.1l-2.4-1.7l3.4,0.6c0.4,0,0.7-0.2,1-0.4c0.4-0.4,1.3-1.1,0.7-1.8
			c-0.5-0.7-1.2-1.3-1.7-1.8c-0.7-0.4-1.4-0.7-2-1l4.6,1.7c0,0,1.2,0.3,1.5-0.3c0.4-0.8,0.6-1.6,0.8-2.3c-0.1-0.8-0.3-1.5-0.6-2.1
			c-0.3-0.2-3.5-1.3-3.5-1.3l3.9,0.2c0,0,1.1-1.2,1.4-1.4c0.2-0.1-0.2-1.7-0.4-2.5"/>
		<path class="st0" d="M303.4,223.6l3.2,1.9c1.1-1.1,2.1-1.9,3.4-2.7c2.5-1.4,8.5-5.5,9.9-6c1.4-0.5,8.1-0.5,10.6-0.7
			c2.5-0.2,7.4-0.5,8.1-1.2s-1-3,1.4-3.7c2.3-0.7,2.5-0.5,4.2-0.9c1.7-0.4-5.3-14.1-5.3-14.1l1.6,0.2l-1.2-0.9l-11.6-5.1l-32.5,24.1
			l3.2,4.7l1.4,2.9l1.8,1.7L303.4,223.6z"/>
		<path class="st3" d="M330,187.4l5.2-2c0.9,0.3,1.7,0.2,2.5-0.1c0.9-0.6,1.9-2.9,1.9-2.9c0.7,0.6,0.8,1.6,0.3,2.2l-0.1,0.1l-2.1,2
			l3.1-0.3l1.1-1.2c0.6,0-1.2,2.5-1.7,2.6c-0.6,0.1,1.9-0.6,1.9-0.6s0.6,1.1,0,1.5c-0.4,0.3-0.9,0.6-1.4,0.8l2.8-0.5l-2.3,1.7h-1.4
			c0,0-2.8-0.1-0.8,0.4s5.2,1.4,5.9,1.7l0.6,0.3l-2.3,0.8c-0.5,0.1,2.8,1.5,2.8,1.5s-0.6,0.1-1.7,0.4c-1.1,0.3,1.4,1.1,1.4,1.1
			s0.8,1.1-0.3,1.4l-1.1,0.3c0,0,1.4,1.1,0.8,1.7c-0.6,0.6,0.6,1.4,0.6,1.4l3.2,2.5c0,0-0.3,0.3-1.4,0.3s0.4,1.1,0.8,1.7
			c0.4,0.6,1.4-0.3,0.3,0.6c-0.9,0.8-1.7,1.7-2.3,2.6l-2.2,1.6c-0.7,0.1-1.4,0.1-2-0.1c-0.5-0.1-0.9-0.2-1.4-0.4
			c-0.8-0.3-4.5-1.7-5-1.9c-1.1-0.7-2.1-1.5-3.1-2.3l9.7,6.2c0,0-1.8-0.4-2.4-0.5c-0.6-0.1,0.5,0.2-1.6-0.7c-2-0.9-3.2-1.4-3.2-1.4
			s3.2,2,3.8,2.5s1.5,1.1,1.5,1.1c-0.9,0.1-1.7,0-2.6-0.1c-0.8-0.5-1.5-1-2.2-1.5c0,0-0.3-0.3,0.3,0.6c0.6,0.7,1.2,1.4,1.7,2
			c1,1.2,0.6,1.7,0.9,2c0.3,0.5,0.5,1,0.8,1.5c0,0-0.9,1.1-1.5-0.1c-0.4-0.8-0.8-1.5-1.2-2.2c-0.3-0.4-1.7-3.1-1.7-3.1
			s0.1-0.1,0.1,1.2c0,0.9-0.2,1.7-0.4,2.6c0,0,0.4,0.4-0.9-0.6c-0.8-0.7-1.6-1.4-2.2-2.2l1.2,2.8c0,0-3.7-3.4-4.1-3.7
			c-1-0.4-1.9-0.8-2.9-1.1l-1.9,0.3l-1.9,0.4l0.8,1.9c0,0,1.7,1.2-0.9,0c-1.2-0.6-2.4-1.1-3.7-1.5c-0.2,0.1-0.5,0.1-0.8,0
			c-1-0.4-1.9-0.7-2.9-0.8c-0.8,0-1.6-0.1-2.3-0.3c-0.4-0.1-0.6,0.3-1.7-0.8c-1.2-1.1-1.9-6-1.9-6L330,187.4z"/>
		<path class="st2" d="M346.2,205.6c-1.2-0.2-2.3-0.3-3.5-0.2c-1,0-1.9-0.2-2.8-0.5c-1.1-0.2-3.4-1.1-3.8-1.3
			c-0.4-0.2-0.6-0.4-1-0.5c-0.4-0.1,1.7,0-2.8-1.5s-6.1-1.5-6.1-1.5s-1.5-0.4-1.6-1c0-0.6,0-1.2,0.1-1.7c0,0,3.3-0.1,3.7-0.1
			c0.6-0.1,1.3-0.1,1.8,0c1.2,0.1,2-0.4,3.4,0.1c1,0.4,1.7,1.1,2.4,1.8c0,0,0.2,0.5,0.6,1.1s1,1.6,1,1.6c0.4,0.1,0.8,0.3,1.1,0.6
			c0.9,0.4,1.8,0.6,2.8,0.7c-0.8-0.4-1.5-1-2.1-1.6c-0.5-0.4-0.9-0.8-1.2-1.2c1.3-0.2,2.5,0.2,3.5,0.9l-1.6-1.6l-0.4-0.9
			c1.5,0.9,1.6,0.6,2.2,1.3l0.6,0.6c-0.2-0.7-0.5-1.5-0.9-2l-0.5-0.9l-2.9-1.9c0,0-1.6-0.4-1.9-0.5c-0.4-0.1,3,0.1,3.4,0.1h2.7
			c1.2,0,2.3-0.6,0.1-0.8c-1.7-0.2-3.2-0.3-4.9-0.3c-1.5,0.1-3.2,0.1-3.2,0.1c1.4-0.3,2.7-0.5,4-0.6c1.7-0.1,3.3-0.4,4.9-1
			c0.4-0.2,0.8-0.4,1.3-0.6c-1-0.3-3.4-0.9-5.1-1.4c-1,0-1.9,0-2.9,0.2c-0.6,0.1-1.2,0.1-1.7,0.1c0,0,3.5-1.6,4.2-1.8
			c0.6-0.2,1.3-0.3,1.9-0.3c0.4-0.2,0.8-0.4,1.1-0.6c0.2-0.1,0.3-0.3,0.3-0.6c-1.7,0.4-3.7,0.9-4.2,0.9c-0.7,0-1.4,0.2-1.9,0.5
			c-0.4,0.2-0.8,0.4-1.2,0.6c0.6-0.6,1.2-1.2,1.8-1.7c0.6-0.3,1.1-0.6,1.6-0.9c0.6-0.1,1.2-0.3,1.7-0.6c0.2-0.2,0.5-0.3,0.7-0.6
			l-3,0.3l2-2c0.3-0.3,0.5-0.6,0.5-1c-1.2,1-2.3,2-2.9,2.4c-1.4,1.1-1.9,0.9-2.5,1.5c-0.4,0.4-1,0.8-1.5,1c0.3-0.8,0.9-1.4,1.6-1.7
			c0.7-0.3,1.3-0.7,1.7-1.4c-0.5,0-1,0-1.4-0.2l-5.2,2l-13.3,10.5l1.7,6.8c0.6,0.4,3.9,2.8,5,3.5c1.8,1,3.9,1.8,5.8,2.5l-2.4-2
			c0,0-1.1-0.6-1.8-1.1s-1.9-1.7-1.3-1.4s2.9,1,3.4,1.4c0.5,0.3,1,0.6,1.5,1c0.7,0.6,1.4,1.1,2,1.6c1.1,0.8,1.7,1.3,1.7,1.3
			s1-0.1-0.9-1.5s-1.5-1.1-2.8-2.2c-1.4-1.2-1.8-1.7-2.4-2c-0.6-0.3-1.7-0.6-2.2-1c-0.6-0.3-1.1-0.7-1.6-1.1
			c-0.6-0.6-2.2-2.4-2.2-2.4s3.2,0.2,4.7,1.3c1.5,1.1,2.9,2.4,3.7,2.8c0.9,0.3,1.6,0.9,2.2,1.5c0.4,0.6,0.9,1.1,1.5,1.5l0.8,0.6
			c0,0-1.1-2.4-1.8-2.9s-2.3-1.8-2.3-1.8s-2.3-1.1-1-0.8c1.4,0.3,2.3,0.8,2.7,0.9s1.4,0.6,1.4,0.6c1.2,1.1,2.4,1.9,3.8,2.8
			c1.1,0.5,0.5,0.1,1.7,0.6c1.3,0.5,0.6,0.5,1.9,0.5c0.7-0.1,1.4-0.1,2,0c0.8,0.1,1.7,0.1,2.4,0c-0.7-0.3-1.4-0.6-2-0.8
			c-0.8-0.2-1.6-0.5-2.3-0.9c-0.8,0-1.7-0.2-2.3-0.6c-1.4-0.8-2.6-1.3-2.3-1.3s5.8,1,7.3,1.1c1.5,0.1,0,0.1,1.5,0.1
			c0.7,0.1,1.4,0.1,2,0C346.2,206.1,346.7,205.7,346.2,205.6z"/>
		<path class="st2" d="M341.6,203.3c0.1,0,0.2,0.1,0.3,0.1C342.1,203.4,341.9,203.4,341.6,203.3z"/>
		<path class="st2" d="M341.5,189.4c0.2,0,0.5-0.1,0.7-0.1l-0.9,0.1H341.5z"/>
		<path class="st2" d="M305.5,3.6c-10,2.7-23.6,23.1-26,37l0.3,0.7c1.6,0.3,3,0.5,4.6,0.8c5.7-13.1,12.3-25.2,24.4-34.3
			C307.5,6.3,306.4,5.1,305.5,3.6z"/>
		<path class="st0" d="M283.9,205.9l-13.1,11c1.2,1.1,2.5,1.9,3.9,2.7c1.7,0.8,12-1.1,12-1.1s3.8-1.7,4.3-1.7
			c0.5-0.1,10.5-3.8,10.5-3.8s9.7-2.8,11.7-4c1.9-1.2,7.7-6.3,8.3-6.8s4.9-3.1,5.6-4.1c0.9-1.2,1.8-2.2,2.9-3.2
			c1-0.5,1.6-1.5,1.7-2.5c0.5-1.3,0.3-2.7-0.3-4c-0.6-1.2-1.4-3.4-1.7-4.1c-0.3-0.7-1.2-2.3-1.2-2.3s-1.1-1.5-1.9-2.8
			s-6.5-2.5-8.3-2.9c-1.7-0.4-11.5-0.9-12.8-0.6c-1.4,0.3-5.2,1.4-7.5,2.8c-2.3,1.4-4.5,3-6.3,5c-1.7,1.9-5.1,6.9-5.1,7.4
			c0,0.5-0.4,3.1-0.4,4s-0.6,6-0.6,6l2.6,3.1L283.9,205.9z"/>
		<path class="st1" d="M325.8,184.7c0.3-2-0.6-2.8-0.3-3.7c0.2-0.8,0.3-1.6,0.4-2.3c-1.7-1.1-6-2-7.6-2.3
			c-1.7-0.4-11.5-0.9-12.8-0.6c-1.4,0.3-5.2,1.4-7.5,2.8c-2.3,1.4-4.5,3-6.3,5c-1.7,1.9-5.1,6.9-5.1,7.4c0,0.5-0.4,3.1-0.4,4
			c0,0.5-0.2,2.1-0.3,3.6c0.2,1.2,0.4,2.2,0.8,2.4c0.8,0.6,1.6,0.9,2.5,0.9c1.7,0.3,10.3-1.2,13.5-2.2c3.2-1.1,7.4-4.4,8.8-5.6
			c1.5-1.3,3.2-2.9,4.7-4c1.5-1.1,1.1-0.6,3.4-1.7c2.3-1.1,4.1-1.7,4.1-1.7C324.7,186.6,325.7,185.8,325.8,184.7z"/>
		<path class="st0" d="M203.2,596.5c2-0.4,57.3-12.3,57.3-12.3l4.9-2.4c0,0,1-0.3,1.1-0.9s0.5-1.7,0.6-2.4c0.1-0.7-0.5-1.1-1.8-1.5
			c-1.4-0.4-65-14.6-65-14.6l-68.9,8.8l3,4.6l62.2,20.6L203.2,596.5z"/>
		<path class="st2" d="M265,576.9c-1.4-0.4-65-14.6-65-14.6l-67.4,8.7c14.9,4.8,63.6,20.5,66.1,20.9c2.2,0.4,4.6,0.5,6.8,0.4
			c1.8-0.1,38.8-7.1,38.8-7.1l0.3-1.8l3.8-0.4l-0.1,1.3c0,0,12-1.9,14.8-2.3c1.2-0.1,2.2-0.5,3.3-1v-0.1c0.1-0.6,0.5-1.7,0.6-2.4
			C267,577.8,266.4,577.3,265,576.9z"/>
		<path class="st2" d="M266.8,577.8c-0.2-0.4-0.8-0.6-1.7-0.9c-1.4-0.4-65-14.6-65-14.6l-61.5,8c18.8,5.4,59.5,17.2,60.7,17.6
			c1.9,0.7,4,0.9,6,0.7c2.7-0.4,56.2-9.4,59.6-10C266.1,578.3,266.6,578,266.8,577.8z"/>
		<polygon class="st2" points="195.7,567.4 246.7,580.1 214.8,585.3 188.6,577.8 		"/>
		<path class="st0" d="M121.7,493.8c0,0,2.8,72.7,2.8,74.5c0,1.8,0.9,1.9,2.8,2.8c1.9,0.9,64.7,21.7,67.1,22.3
			c2.4,0.7,5.6,0.5,5.7-3c0.1-3.5,0-89.5-0.2-93c-0.2-3.5-1.3-5.1-5.6-5.1c-4.4,0-69.8-0.4-70.7-0.4
			C122.6,492,121.8,492.8,121.7,493.8C121.7,493.6,121.7,493.7,121.7,493.8z"/>
		<path class="st2" d="M195.1,492.5h-0.7c-4.4,0-69.8-0.4-70.7-0.4c-1-0.1-1.8,0.7-1.9,1.7v0.1c0,0,2.8,72.7,2.8,74.5
			c0,0.5,0.1,1,0.3,1.4c0.5,0.3,1,0.5,1.7,0.8c1.9,0.9,64.2,21.6,66.6,22.2c2.4,0.7,5.5,0.5,5.7-2.9s0-88.9-0.2-92.3
			C198.6,494.4,197.8,492.9,195.1,492.5z"/>
		<path class="st2" d="M192.4,592c2.4,0.7,5.5,0.5,5.6-2.9s0-87.9-0.2-91.3c-0.2-3.4-1.2-5-5.5-5c-4.4,0-68.6-0.4-69.5-0.4
			c-0.3,0-0.5,0-0.8,0.1c-0.3,0.3-0.5,0.8-0.4,1.2c0,0,2.8,72.8,2.8,74.4c0,0.3,0,0.7,0.1,1c0.6,0.3,1.3,0.6,1.8,0.9
			C128.4,571,190,591.4,192.4,592z"/>
	</g>
</g>
</svg>
