<?xml version="1.0" encoding="utf-8"?>
<!-- Generator: Adobe Illustrator 25.0.0, SVG Export Plug-In . SVG Version: 6.00 Build 0)  -->
<svg version="1.1" id="Layer_1" xmlns="http://www.w3.org/2000/svg" xmlns:xlink="http://www.w3.org/1999/xlink" x="0px" y="0px"
	 viewBox="0 0 368.5 611.5" style="enable-background:new 0 0 368.5 611.5;" xml:space="preserve">
<style type="text/css">
	*{vector-effect:non-scaling-stroke}
	.st0{fill:#FFFFFF;stroke:#000000;stroke-width:1.5;stroke-miterlimit:10;}
	.st1{fill:none;stroke:#000000;stroke-width:0.5;stroke-miterlimit:10;}
	.st2{fill:#FFFFFF;stroke:#000000;stroke-width:0.5;stroke-miterlimit:10;}
	.st3{fill:#FFFFFF;stroke:#000000;stroke-width:0.75;stroke-linejoin:round;}
</style>
<g id="Layer_2_1_">
	<g id="Layer_1-2">
		<path class="st0" d="M206.9,44.9l16.5,12.4l11.7-9.5l-16.2-16.2c0,0-27.6-27.6-29.1-31c-10.4,2.9-24.7,24.4-26.9,38.7
			C183.8,42.7,206.9,44.9,206.9,44.9z"/>
		<path class="st0" d="M124.1,163.5c0,0,37.1-49.7,51.6-69s35.2-48,35.2-48l10.4,6.9c0,0-30.4,35.9-40.7,48.3s-36.2,51.8-48.7,66.9
			s-30.4,43.5-30.4,43.5l-9.7-3.1C91.8,209,104.6,181.7,124.1,163.5z"/>
		<path class="st1" d="M101.4,212.1c0,0,17.9-28.3,30.4-43.5s38.3-54.5,48.6-66.9s40.7-48.3,40.7-48.3l-7.2-4.8
			c0,0-20.7,28.7-35.2,48s-51.6,69-51.6,69c-17.4,16.3-29.4,39.8-31.8,44.6L101.4,212.1z"/>
		<path class="st0" d="M118,187.3c-1.3,0-2.8-2.4-2.8-2.4c-1-0.9-2-1.8-3-2.7c-0.8-0.9-1.5-1.9-2-2.9l-0.8-3.7l1.1-0.8v-2.6l1-0.5
			l1.2-0.2l0.3-1l-0.2-2.2c0,0,0.4-0.9,0.7-1l1.1-0.3c0,0,1.7,0.2,2,0.2s-0.8-1.8-0.8-2.1s0.2-1.7,0.5-1.9c0.6-0.3,1.3-0.6,2-0.8
			c0.8,0.1,1.6,0.5,2.2,0.9c0.9,0.5,3.2,1.5,3.2,1.5s-0.1-1.2,0.4-1.4c1.2-0.6,2.6-1,3.9-1.2c1.1,0,3,0.1,3.4,0.1s1.6,3.4,2.1,3.9
			c0.9,0.8,1.4,2,1.3,3.2c-0.1,1.4-0.7,9.7-0.7,9.7s-1.1,4.8-0.9,5.5s3.6,13.3,4.3,13.8s4.4,7.8,5.1,8.4s11.7,12.7,11.7,12.7
			l15.4-9.6l9.8-1c0,0,8,4.1,8.3,6s8.1,21.1,6.5,22.6s-26.8,2.7-26.8,2.7l-44-39L118,187.3z"/>
		<path class="st0" d="M364.8,542.9c0.5,0.5,0.9,1.2,1.2,1.9c0.1,0.4,0.1,0.8,0.1,1.3c0,0.3-4.5,4-4.8,4.2c-1.5,1.1-3,2.1-4.7,3
			c-3.1,1.6-6.3,2.9-9.6,4c-3.5,1.1-7,2-10.5,2.6c-2.3,0.3-8.2,0.8-10.5,1.1s-5.3,0.5-6.2-0.1s-3.6-2.4-3.7-3s0.5-5.9,0.5-5.9
			s2.5-3.1,4.2-4s6.6-5.3,7.1-5.6s3.3-3.2,3.7-3.5c1.6-0.7,3.2-1.3,4.9-1.8C337.5,537,364.8,542.9,364.8,542.9z"/>
		<path class="st0" d="M221.3,506c-1.1,0.2-6.2,3-7.9,3.6s-11.3,3.5-12.6,4.2s-5.4,2.2-6.7,3.3s-3.4,2.2-4.2,3.6
			c-0.7,1.9-1.3,3.7-1.8,5.7c0,0,5.4,4.7,15.6,2.8s19.3-3.6,20.9-3.8c3.3-0.7,6.6-1.5,9.8-2.5c4.6-1.3,18.5-2.8,20.3-3
			s5.1-2.2,5.1-2.2l-1.9-5.4C257.9,512.3,231,504.3,221.3,506z"/>
		<path class="st0" d="M333.6,306.3c1.3,0,6,12.7,6,12.7s1.6,4.8,1.9,6.3s1.3,9.2,1.3,10.1c-0.2,1.7-0.2,3.4,0,5.1
			c0.3,1.9,1,1.9-0.3,4.4c-1,2.3-1.7,4.6-2.2,7c-0.2,1.3-0.3,2.5-0.3,3.8l-0.3,3.5c-0.2,1.3-0.6,2.6-1.3,3.8c-1,1.3-5.4,7.3-5.4,7.3
			s-4.8,7-5.4,8.2s-1.9,1.6-2.5,3.8s-3.8,5.4-4.8,8.2c-1.1,4-1.7,8.2-1.9,12.4c0,2.5,0.6,8.9-1.3,10.5c-2,1.5-4.1,2.9-6.3,4.1
			c0,0-1.3,8.2-1.3,9.5s-1,6.7-1,7.6s1.6,2.2,3.5,3.5s1.6,0.3,3.5,3.2s2.2,2.2,4.4,6.3s5.7,9.8,5.7,11.4s1.3,4.8,2.2,5.4
			c0.9,0.7,1.5,1.7,1.6,2.9c0,1-1.9,3.2-0.6,5.1s2.9,2.9,3.5,4.8s0.6,3.2,1.6,4.8s0.3,1.9,1,3.8s1,0.6,1.9,4.4s-1,2.2,1,5.1
			s1.3,3.8,2.2,5.1s3.2,1.6,4.4,2.5c1.2,1.1,2.1,2.5,2.5,4.1c0.3,1.3-0.3,2.2,0.3,3.8c0.6,1.6,2.5,2.9,4.1,3.5
			c1.1,0.5,2,1.1,2.9,1.9l4.1,5.7c0,0-3.2,1.9-2.5,2.8c0.6,0.9,1.3,1.6,2.2,2.2c1.1,1,2,2,2.9,3.2c0,0-2.5-2.2,1,1.9
			s2.9,7.6,2.9,7.6l2.9,3.8c0,0-9.5-0.3-10.5-1s-13.9-3.2-15.5-3.2c-2.2,0.2-4.5,0.1-6.6-0.3c-2.8-0.4-5.7-0.6-8.6-0.6v-3.8
			c-1.3-0.4-2.6-0.9-3.8-1.6c-0.8-0.7-1.4-1.6-1.9-2.5l-0.3-1.6c0,0-1.6,1.9-3.8,0s-1.6-1.3-2.9-3.2s-1.9-2.5-4.4-6.3
			s-3.8-6.3-5.4-7.9s-3.8-5.7-5.1-10.1c-1.2-4-2.9-7.8-5.1-11.4c-1.5-2.8-3.2-5.4-5.1-7.9c-1.6-1.9-3.2-2.9-4.4-5.4
			s-2.5-3.8-4.4-6.6s-3.5-4.4-4.8-7.3s-2.9-8.2-2.9-8.2l0.6-21.9l-1-8.9c0,0,0.6-7,0.6-8.9s-0.6-13.3-0.6-13.3s-5.7,6-7.3,6.7
			s-7.9,5.1-9.5,7.3s-6.3,5.4-6.6,6.3s-2.9,3.2-3.2,5.4s-0.9,10.5-0.6,12.4s2.2,3.5,1.3,7.6s-0.9,12-0.3,13.3c1.1,1.9,2.1,3.9,2.9,6
			c0.6,2.2,1.3,7,1.6,8.6c0.6,1.7,1.3,3.3,2.2,4.8c0.4,1.1,0.6,2.3,0.6,3.5c0,1.9,1,5.1,2.2,6c1.3,0.9,2.4,2.1,3.2,3.5
			c0.6,1.5,0.8,3.1,0.6,4.8c-0.3,1.6,1.6,7,1.6,7c0.2,1.3,0.3,2.5,0.3,3.8c0,1.9-1.3,5.1-1.3,6s-11.2,2.9-11.2,2.9h-3.5
			c-1,0-2.5-0.3-3.5-0.3s-1.6-0.6-4.4-1c-2.6-0.3-5.1-0.8-7.6-1.6c-1.9-0.6-5.4-1-7-2.5s-4.8-5.4-4.8-5.4l3.8-3.2l-3.8-2.5
			c-0.4-1.7-0.8-3.4-0.9-5.1c-0.3-2.9-5.1-13.3-5.1-13.3s-0.9-5.1-1.3-8.9s-7-27.9-7-27.9s2.2-9.2,1.3-11.1s-3.2-6-3.5-8.9
			s-1-5.1-0.3-7.6c0.7-3.9,0.9-7.8,0.6-11.7c-0.3-1.6,3.9-8.7,4.8-9.5c3.8-3.5,7.6-11.4,7.6-11.4s7-8.9,7.9-9.8s14.6-21.2,15.8-21.9
			s7-7.9,7-7.9l8.2-9.8l0.6-5.4c0,0,0.6-4.8,2.9-5.4S277.5,304.4,333.6,306.3z"/>
		<path class="st2" d="M326.4,310.8c1.3,0,4.9,8.5,5.7,9.2s4.1,1.9,3.5,4.6s-1.3,4.9-1.3,5.5s-0.1,2.9,1.1,4.1s-1.1,4-1.1,4.4
			s1.6,1.1,1.9,2.4s0,3.8,0.3,4.6c0.3,1.5,0.2,3-0.3,4.4c-0.5,0.8-1.6,2.4-0.8,3.3s1,1,0.2,2.2c-0.9,1.5-1.3,3.3-1.3,5.1"/>
		<path class="st2" d="M329.9,341h-8c-0.8,0-5.5-2.2-6.3-2.8s-3.9-4-4.6-4.6s-3.5-3.6-3.8-4.1s-2.2-5-2.2-5"/>
		<path class="st2" d="M241.7,371.4c0,0,5.1-2.4,7.3-2.4s8.5,1.3,11.1,1.3"/>
		<path class="st1" d="M220.5,388.5c-0.9-1.3,4.4-2.2,7.9-3.8s9.8-1.9,10.8-1.9s10.1-4.8,14.9-5.7c4.8-1,7.6-1.9,7.3-3.2"/>
		<path class="st1" d="M205,408.9c-0.6-1,3.5-4.1,5.1-4.4s11.7-4.4,16.5-7s9.8-1.6,13.6-3.2s-0.3-4.1-1.3-4.4"/>
		<path class="st2" d="M271.8,360.7c-0.6,2.9-1.3,6-3.2,7.6s-1.9,1.3-1.9,2.9c0,1.8-0.5,3.6-1.6,5.1c-1.3,1.9-1.6,1.9-4.1,2.9
			c-2.5,0.8-5,1.9-7.3,3.2"/>
		<path class="st2" d="M265.8,379.7c2.2-1.3,3.8,0.3,3.2,1.9s-3.8,1.9-5.7,3.2s-4.4,1.9-7.6,3.2s-7,0.6-8.6,1.6"/>
		<path class="st0" d="M270.9,386.4c0,0,0.6,8.5,0.3,10.5c-0.1,1.6,0,3.2,0.4,4.7"/>
		<path class="st2" d="M251.6,375c-1.8,0-14.8-0.3-18.6-1.2s-3.5-0.9-5.3-3"/>
		<path class="st2" d="M253.6,363.2c-4.1-0.9-4.1-1.5-5-2.4s-7.1-3.2-8-3.8"/>
		<path class="st0" d="M185.1,238.7l2.1-5.9c0,0,4.5-5,7.1-6.4s8.8-5.7,10.2-6.2s8.3-0.5,10.9-0.7s7.6-0.5,8.3-1.2s-1-3.1,1.4-3.8
			s2.6-0.5,4.3-0.9s-5.5-14.5-5.5-14.5s15,1.4,16.4,1.7s6.2,1.7,10.2,2.9s6.9,1.7,9.3,2.9s6.2,4.5,7.8,5.5s3.8,0.9,7.1,3.1
			s5.5,3.3,6.9,6.4s10,13.1,10.7,15.4c1,2.8,2.3,5.5,3.8,8.1c1.2,2.1,9.3,15.5,10,17.8s4,8.5,4.3,9.3s2.6,1.9,3.6,2.6s1.7,4,1.7,4
			l-2.6,1l6.9,0.2c0,0,1.4,1,1.2,1.9s-2.1,2.9-2.1,2.9l1.2,1.7l0.5,3.1h2.9c0.1,1,0.3,1.9,0.5,2.9c0.2,0.7-1,3.1-1,3.1
			s3.8,0.7,4.8,1.7s3.3,2.9,4.8,4s4,3.1,3.8,5s-3.3,5.2-4.5,5.9s-9.3,3.8-10.7,4.3s-10,4-10.7,5.2s-5.2,3.6-6.4,4.3
			c-2,0.9-4,1.4-6.2,1.7c-1,0-3.3,4.5-4,5.2s-2.6,3.1-4.8,3.6c-1.7,0.3-3.3,0.6-5,0.7c0,0,0.5,3.6-2.1,4c-2.4,0.4-4.9,0.5-7.4,0.5
			c-2.4,0-4.8-0.8-6.6-2.4c-2.9-2.1-3.3-3.3-5.2-5s-2.9-2.1-6.2-5s-10.9-9-12.4-11.2s-6.9-7.6-9-9.5s-7.6-6.4-8.8-8.6
			s-3.3-7.4-4.8-10s-6.9-11.6-8.1-13.1s-2.9-4-2.9-5.9s-0.2-6.4,0-8.1c0.2-1.6,0.2-3.2,0.2-4.8l-8.3-2.4c0,0-4.5-2.9-5.9-3.6
			S183.4,247,185.1,238.7z"/>
		<path class="st1" d="M275.4,217.1c0.2,1,3.3,6.2,3.6,7.8s3.1,6.6,4,8.1c0.9,1.7,2,3.2,3.1,4.8"/>
		<path class="st1" d="M248.5,221.6c1.1-1,2.1-2.2,3.1-3.3c0,0,2.6-0.7,3.6,0s4.3,2.1,4.8,2.9s3.8,5.2,5.5,6.4s4.5,3.3,5.2,2.6
			s-1.4-3.6-1.9-4.3s-3.6-2.1-4.8-3.6"/>
		<path class="st1" d="M233.1,233.1c-1.9-0.9-7.8-2.4-10.4-4s-8.1-4.3-7.1-4.3"/>
		<path class="st0" d="M107.4,178.9c0,0-1.5-0.4-1.7-0.4s-3.2,0.9-3.2,0.9l0.1,2.2l1.1,2.1l-1.5,0.3c0,0-1.8,0.2-1.8,0.5
			s-0.6,1.5-0.7,1.8c0,0.6,0.1,1.2,0.5,1.7c0.3,0.2-0.5,0.6-0.5,0.6l-1.8,0.5c-0.2,0.5-0.3,1-0.5,1.6c0,0.6,0.2,1.3,0.6,1.8
			c0.3,0.2-0.8,0.6-0.8,0.6l-0.8,1.4c0,0-0.5,1.1,0.3,1.4s3.1,1.8,3.5,2s0.8,1,1.1,1.3s0.1,0.6,1,1c0.5,0.3,1,0.5,1.6,0.6
			c0.6,0.2,1,0.6,1.4,1.1c0.4,0.5,0.9,1,1.4,1.4c0.6,0.6,2.4,4.1,2.8,4.4c1.1,0.6,2.2,1.1,3.4,1.6c0.8,0.3,2.1,0.6,2.7,0.7
			s2.5,3.2,3,4.2s11.6,12.2,12.5,13s9.2,9.4,9.8,9.8s5.6,5.5,7.3,7.1s7.8,7.3,9.8,9s4.9,3.3,6,4.4c1.8,1.4,3.7,2.5,5.9,3.3
			c2.4-0.1,4.9-0.4,7.3-0.8c0,0,21.2-0.3,30.4-13.1c0,0-1.4-14.1-17.4-12.5s-11.4,0.8-11.4,0.8c-5.6-3.1-11.3-5.7-17.3-7.9
			c-10.1-3.8-23.3-17.3-23.3-17.3l-10.6-7.9c0,0-3.3-3.6-3.3-4.1s-3.5-7.1-3.5-7.1s-0.5-3-1-3.2S107.4,178.9,107.4,178.9z"/>
		<path class="st2" d="M310.4,271.6c0,0.1,0.1,0.2,0.1,0.3C310.5,271.9,310.5,271.7,310.4,271.6z"/>
		<path class="st2" d="M272.5,323c-2.1-1.7-8.8-6.6-11.2-8.3s-5.5-5-8.6-8.3c-3.4-4-6.5-8.3-9.3-12.8c-1.7-2.9-5.7-14.3-6.4-15.7
			s-6.6-14.5-8.1-16.9"/>
		<path class="st2" d="M232.6,276.2c0.7,0.5-2.6,2.9-4.3,0.7s-3.3-12-4.5-14.5"/>
		<path class="st2" d="M310.2,285.5c0.5-1-1-2.4-3.1-3.1s-8.1-0.5-10.2-1s-12.8-3.3-15-4.5s-12.6-5.7-15-7.1"/>
		<path class="st2" d="M309.9,290.8c-1.4-0.7-9-3.3-11.9-3.3s-12.4-2.6-14-3.6"/>
		<path class="st1" d="M323.1,303.3c-0.9-1.7-7.1-1.7-9.3-1.9s-8.3-0.7-13.3-2.4"/>
		<path class="st1" d="M291.1,253.6c-4.8,0.2-6.9,0.7-9.5,0.7c-3.3,0.1-6.5,0.4-9.7,0.9c-2.7,0.3-5.5,0.1-8.1-0.7
			c-2.9-0.4-5.9-0.5-8.8-0.2c-1.9,0.2-6.6,4.3-7.6,5"/>
		<path class="st2" d="M295.9,345.2c4.1-1.9,9.5-4.4,13.3-2.5s5.1,1.6,8.2,2.9s8.2,3.2,8.2,3.2"/>
		<path class="st2" d="M302.6,323.4c-1.6-1-9.2-4.1-10.5-4.8s-7.9-5.1-9.5-6.3s-4.1-1.6-6.6-2.9s-7-2.2-8.6-4.4s-1.9-1-3.5-4.4
			s-1-4.8-4.1-7.6"/>
		<path class="st2" d="M257.3,287c1.6,0.1,7.3,2.9,9.8,4.4s23.8,11.1,26.3,12s10.1,3.8,11.1,4.8"/>
		<path class="st2" d="M119.8,185.7c2.3-1.9,0.8-2.2,0.8-2.2l-2.5-1.7l3.5,0.6c0.4,0,0.7-0.2,1-0.4c0.4-0.4,1.3-1.1,0.7-1.9
			c-0.5-0.7-1.2-1.3-1.8-1.9c-0.7-0.4-1.4-0.7-2.1-1l4.7,1.8c0,0,1.2,0.3,1.5-0.3c0.4-0.8,0.6-1.6,0.8-2.4c-0.1-0.8-0.3-1.5-0.6-2.2
			c-0.3-0.2-3.6-1.3-3.6-1.3l4,0.2c0,0,1.1-1.2,1.4-1.4c0.2-0.1-0.2-1.8-0.4-2.6"/>
		<path class="st0" d="M187.6,227.1l3.3,2c1.1-1.1,2.2-2,3.5-2.8c2.6-1.4,8.8-5.7,10.2-6.2s8.3-0.5,10.9-0.7s7.6-0.5,8.3-1.2
			s-1-3.1,1.4-3.8s2.6-0.5,4.3-0.9s-5.5-14.5-5.5-14.5l1.6,0.2l-1.2-0.9l-11.9-5.3L179,217.8l3.3,4.8l1.4,3l1.9,1.7L187.6,227.1z"/>
		<path class="st3" d="M215,189.8l5.4-2.1c0.9,0.3,1.8,0.2,2.6-0.1c0.9-0.6,2-3,2-3c0.7,0.6,0.8,1.6,0.3,2.3c0,0-0.1,0.1-0.1,0.1
			l-2.2,2.1l3.2-0.3l1.1-1.2c0.6,0-1.2,2.6-1.8,2.7s2-0.6,2-0.6s0.6,1.1,0,1.5c-0.4,0.3-0.9,0.6-1.4,0.8l2.9-0.5l-2.4,1.7h-1.4
			c0,0-2.9-0.1-0.8,0.4s5.4,1.4,6.1,1.7l0.6,0.3l-2.4,0.8c-0.5,0.1,2.9,1.5,2.9,1.5s-0.6,0.1-1.7,0.4s1.4,1.1,1.4,1.1
			s0.8,1.1-0.3,1.4l-1.1,0.3c0,0,1.4,1.1,0.8,1.7s0.6,1.4,0.6,1.4l3.3,2.6c0,0-0.3,0.3-1.4,0.3s0.4,1.1,0.8,1.7s1.4-0.3,0.3,0.6
			c-0.9,0.8-1.7,1.7-2.4,2.7l-2.3,1.6c-0.7,0.1-1.4,0.1-2.1-0.1c-0.5-0.1-0.9-0.2-1.4-0.4c-0.8-0.3-4.6-1.7-5.1-2
			c-1.1-0.7-2.2-1.5-3.2-2.4l10,6.4c0,0-1.9-0.4-2.5-0.5s0.5,0.2-1.6-0.7s-3.3-1.4-3.3-1.4s3.3,2.1,3.9,2.6s1.5,1.1,1.5,1.1
			c-0.9,0.1-1.8,0-2.7-0.1c-0.8-0.5-1.5-1-2.3-1.5c0,0-0.3-0.3,0.3,0.6c0.6,0.7,1.2,1.4,1.8,2.1c1,1.2,0.6,1.7,0.9,2.1
			c0.3,0.5,0.5,1,0.8,1.5c0,0-0.9,1.1-1.5-0.1c-0.4-0.8-0.8-1.5-1.2-2.3c-0.3-0.4-1.8-3.2-1.8-3.2s0.1-0.1,0.1,1.2
			c0,0.9-0.2,1.8-0.4,2.7c0,0,0.4,0.4-0.9-0.6c-0.8-0.7-1.6-1.4-2.3-2.3l1.2,2.9c0,0-3.8-3.5-4.2-3.8c-1-0.4-2-0.8-3-1.1l-2,0.3
			l-2,0.4l0.8,2c0,0,1.7,1.2-0.9,0c-1.2-0.6-2.5-1.1-3.8-1.5c-0.2,0.1-0.5,0.1-0.8,0c-1-0.4-2-0.7-3-0.8c-0.8,0-1.6-0.1-2.4-0.3
			c-0.4-0.1-0.6,0.3-1.8-0.8s-2-6.2-2-6.2L215,189.8z"/>
		<path class="st2" d="M231.6,208.6c-1.2-0.2-2.4-0.3-3.6-0.2c-1,0-2-0.2-2.9-0.5c-1.1-0.2-3.5-1.1-3.9-1.3s-0.6-0.4-1-0.5
			s1.8,0-2.9-1.5s-6.3-1.5-6.3-1.5s-1.5-0.4-1.6-1c0-0.6,0-1.2,0.1-1.8c0,0,3.4-0.1,3.8-0.1c0.6-0.1,1.3-0.1,1.9,0
			c1.2,0.1,2.1-0.4,3.5,0.1c1,0.4,1.8,1.1,2.5,1.9c0,0,0.2,0.5,0.6,1.1s1,1.6,1,1.6c0.4,0.1,0.8,0.3,1.1,0.6
			c0.9,0.4,1.9,0.6,2.9,0.7c-0.8-0.4-1.5-1-2.2-1.6c-0.5-0.4-0.9-0.8-1.2-1.2c1.3-0.2,2.6,0.2,3.6,0.9l-1.6-1.6l-0.4-0.9
			c1.5,0.9,1.6,0.6,2.3,1.3l0.6,0.6c-0.2-0.7-0.5-1.5-0.9-2.1l-0.5-0.9l-3-2c0,0-1.6-0.4-2-0.5s3.1,0.1,3.5,0.1h2.8
			c1.2,0,2.4-0.6,0.1-0.8c-1.7-0.2-3.3-0.3-5-0.3c-1.5,0.1-3.3,0.1-3.3,0.1c1.4-0.3,2.8-0.5,4.1-0.6c1.7-0.1,3.4-0.4,5-1
			c0.4-0.2,0.8-0.4,1.3-0.6c-1-0.3-3.5-0.9-5.3-1.4c-1,0-2,0-3,0.2c-0.6,0.1-1.2,0.1-1.8,0.1c0,0,3.6-1.6,4.3-1.9
			c0.6-0.2,1.3-0.3,2-0.3c0.4-0.2,0.8-0.4,1.1-0.6c0.2-0.1,0.3-0.3,0.3-0.6c-1.8,0.4-3.8,0.9-4.3,0.9c-0.7,0-1.4,0.2-2,0.5
			c-0.4,0.2-0.8,0.4-1.2,0.6c0.6-0.6,1.2-1.2,1.9-1.8c0.6-0.3,1.1-0.6,1.6-0.9c0.6-0.1,1.2-0.3,1.8-0.6c0.2-0.2,0.5-0.3,0.7-0.6
			l-3.1,0.3l2.1-2.1c0.3-0.3,0.5-0.6,0.5-1c-1.2,1-2.4,2.1-3,2.5c-1.4,1.1-2,0.9-2.6,1.5c-0.4,0.4-1,0.8-1.5,1
			c0.3-0.8,0.9-1.4,1.6-1.8c0.7-0.3,1.3-0.7,1.7-1.4c-0.5,0-1,0-1.4-0.2l-5.4,2.1l-13.7,10.8l1.8,7c0.6,0.4,4,2.9,5.1,3.6
			c1.9,1,4,1.9,6,2.6l-2.5-2.1c0,0-1.1-0.6-1.9-1.1s-2-1.8-1.3-1.4s3,1,3.5,1.4c0.5,0.3,1,0.6,1.5,1c0.7,0.6,1.4,1.1,2.1,1.6
			c1.1,0.8,1.8,1.3,1.8,1.3s1-0.1-0.9-1.5s-1.5-1.1-2.9-2.3s-1.9-1.8-2.5-2.1s-1.8-0.6-2.3-1c-0.6-0.3-1.1-0.7-1.6-1.1
			c-0.6-0.6-2.3-2.5-2.3-2.5s3.3,0.2,4.8,1.3s3,2.5,3.8,2.9c0.9,0.3,1.6,0.9,2.3,1.5c0.4,0.6,0.9,1.1,1.5,1.5l0.8,0.6
			c0,0-1.1-2.5-1.9-3s-2.4-1.9-2.4-1.9s-2.4-1.1-1-0.8s2.4,0.8,2.8,0.9s1.4,0.6,1.4,0.6c1.2,1.1,2.5,2,3.9,2.9
			c1.1,0.5,0.5,0.1,1.8,0.6s0.6,0.5,2,0.5c0.7-0.1,1.4-0.1,2.1,0c0.8,0.1,1.7,0.1,2.5,0c-0.7-0.3-1.4-0.6-2.1-0.8
			c-0.8-0.2-1.6-0.5-2.4-0.9c-0.8,0-1.7-0.2-2.4-0.6c-1.4-0.8-2.7-1.3-2.4-1.3s6,1,7.5,1.1s0,0.1,1.5,0.1c0.7,0.1,1.4,0.1,2.1,0
			C231.6,209.1,232.2,208.7,231.6,208.6z"/>
		<path class="st2" d="M226.9,206.2c0.1,0,0.2,0.1,0.3,0.1C227.4,206.3,227.2,206.3,226.9,206.2z"/>
		<path class="st2" d="M226.8,191.9c0.2,0,0.5-0.1,0.7-0.1l-0.9,0.1L226.8,191.9z"/>
		<path class="st2" d="M189.8,0.6c-10.3,2.8-24.3,23.8-26.8,38.1l0.3,0.7c1.6,0.3,3.1,0.5,4.7,0.8c5.9-13.5,12.7-25.9,25.1-35.3
			C191.8,3.4,190.7,2.1,189.8,0.6z"/>
		<path class="st0" d="M167.5,208.9L154,220.2c1.2,1.1,2.6,2,4,2.8c1.7,0.8,12.4-1.1,12.4-1.1s3.9-1.7,4.4-1.8s10.8-3.9,10.8-3.9
			s10-2.9,12-4.1s7.9-6.5,8.5-7s5-3.2,5.8-4.2c0.9-1.2,1.9-2.3,3-3.3c1-0.5,1.6-1.5,1.8-2.6c0.5-1.3,0.3-2.8-0.3-4.1
			c-0.6-1.2-1.4-3.5-1.7-4.2s-1.2-2.4-1.2-2.4s-1.1-1.5-2-2.9s-6.7-2.6-8.5-3s-11.8-0.9-13.2-0.6s-5.4,1.4-7.7,2.9
			c-2.4,1.4-4.6,3.1-6.5,5.1c-1.7,2-5.3,7.1-5.3,7.6s-0.4,3.2-0.4,4.1s-0.6,6.2-0.6,6.2l2.7,3.2L167.5,208.9z"/>
		<path class="st1" d="M210.6,187c0.3-2.1-0.6-2.9-0.3-3.8c0.2-0.8,0.3-1.6,0.4-2.4c-1.8-1.1-6.2-2.1-7.8-2.4
			c-1.8-0.4-11.8-0.9-13.2-0.6s-5.4,1.4-7.7,2.9c-2.4,1.4-4.6,3.1-6.5,5.1c-1.7,2-5.3,7.1-5.3,7.6s-0.4,3.2-0.4,4.1
			c0,0.5-0.2,2.2-0.3,3.7c0.2,1.2,0.4,2.3,0.8,2.5c0.8,0.6,1.6,0.9,2.6,0.9c1.8,0.3,10.6-1.2,13.9-2.3s7.6-4.5,9.1-5.8
			s3.3-3,4.8-4.1s1.1-0.6,3.5-1.7s4.2-1.8,4.2-1.8C209.5,189,210.5,188.2,210.6,187z"/>
		<path class="st0" d="M84.4,611c2.1-0.4,59-12.7,59-12.7l5-2.5c0,0,1-0.3,1.1-0.9s0.5-1.8,0.6-2.5s-0.5-1.1-1.9-1.5
			s-66.9-15-66.9-15L10.4,585l3.1,4.7l64,21.2L84.4,611z"/>
		<path class="st2" d="M148.1,590.8c-1.4-0.4-66.9-15-66.9-15l-69.4,9c15.3,4.9,65.5,21.1,68,21.5c2.3,0.4,4.7,0.5,7,0.4
			c1.9-0.1,39.9-7.3,39.9-7.3l0.3-1.9l3.9-0.4l-0.1,1.3c0,0,12.4-2,15.2-2.4c1.2-0.1,2.3-0.5,3.4-1c0,0,0-0.1,0-0.1
			c0.1-0.6,0.5-1.8,0.6-2.5S149.5,591.2,148.1,590.8z"/>
		<path class="st2" d="M149.9,591.7c-0.2-0.4-0.8-0.6-1.8-0.9c-1.4-0.4-66.9-15-66.9-15L17.9,584c19.4,5.6,61.3,17.7,62.5,18.1
			c2,0.7,4.1,0.9,6.2,0.7c2.8-0.4,57.9-9.7,61.4-10.3C149.2,592.3,149.7,592,149.9,591.7z"/>
		<polygon class="st2" points="76.7,581 129.2,594.1 96.4,599.5 69.4,591.7 		"/>
		<path class="st0" d="M0.5,505.3c0,0,2.9,74.8,2.9,76.7s0.9,2,2.9,2.9s66.6,22.3,69.1,23s5.8,0.5,5.9-3.1s0-92.1-0.2-95.7
			s-1.3-5.2-5.8-5.2s-71.9-0.4-72.8-0.4c-1-0.1-1.9,0.7-2,1.7C0.5,505.1,0.5,505.2,0.5,505.3z"/>
		<path class="st2" d="M76.1,503.9h-0.7c-4.5,0-71.9-0.4-72.8-0.4c-1-0.1-1.9,0.7-2,1.7c0,0,0,0.1,0,0.1c0,0,2.9,74.8,2.9,76.7
			c0,0.5,0.1,1,0.3,1.4c0.5,0.3,1,0.5,1.8,0.8c2,0.9,66.1,22.2,68.6,22.9s5.7,0.5,5.9-3s0-91.5-0.2-95
			C79.7,505.9,78.9,504.3,76.1,503.9z"/>
		<path class="st2" d="M73.3,606.4c2.5,0.7,5.7,0.5,5.8-3s0-90.5-0.2-94s-1.2-5.1-5.7-5.1s-70.6-0.4-71.5-0.4c-0.3,0-0.5,0-0.8,0.1
			c-0.3,0.3-0.5,0.8-0.4,1.2c0,0,2.9,74.9,2.9,76.6c0,0.3,0,0.7,0.1,1c0.6,0.3,1.3,0.6,1.9,0.9C7.4,584.7,70.8,605.7,73.3,606.4z"/>
	</g>
</g>
</svg>
