<?xml version="1.0" encoding="utf-8"?>
<!-- Generator: Adobe Illustrator 25.2.0, SVG Export Plug-In . SVG Version: 6.00 Build 0)  -->
<svg version="1.1" xmlns="http://www.w3.org/2000/svg" xmlns:xlink="http://www.w3.org/1999/xlink" x="0px" y="0px"
	 viewBox="0 0 300 550" style="enable-background:new 0 0 300 550;" xml:space="preserve">
<style type="text/css">
	.st0{fill:none;}
	.st1{fill:#CCCCCC;}
	.st2{fill:none;stroke:#000000;stroke-width:0.5;stroke-miterlimit:10;}
	.st3{fill:none;stroke:#000000;stroke-width:1.0242;stroke-miterlimit:10;}
	.st4{fill:url(#SVGID_1_);stroke:#000000;stroke-width:0.5;stroke-miterlimit:10;}
</style>
<pattern  width="1.8" height="1.8" patternUnits="userSpaceOnUse" id="New_Pattern_Swatch_2" viewBox="0 -1.8 1.8 1.8" style="overflow:visible;">
	<g>
		<rect y="-1.8" class="st0" width="1.8" height="1.8"/>
		<path d="M1.8,0L1.8,0L1.8,0L1.8,0z M1.8-0.9v0.3L1.2,0H0.9L1.8-0.9z M0-1.5v-0.3h0.3L0-1.5z M0,0l1.8-1.8v0.3L0.3,0L0,0L0,0z
			 M0-0.9l0.9-0.9h0.3L0-0.6V-0.9z"/>
	</g>
</pattern>
<g id="Layer_1">
</g>
<g id="Layer_2">
	<g>
		<path class="st1" d="M121.1,495.4v-16H7.5v16H121.1z M53.2,480.8c3.6,0,6.5,2.9,6.5,6.5c0,3.6-2.9,6.5-6.5,6.5
			c-3.6,0-6.5-2.9-6.5-6.5C46.7,483.7,49.6,480.8,53.2,480.8z"/>
		<path class="st1" d="M121.1,30V14H7.5v16H121.1z M53.2,15.5c3.6,0,6.5,2.9,6.5,6.5c0,3.6-2.9,6.5-6.5,6.5c-3.6,0-6.5-2.9-6.5-6.5
			C46.7,18.4,49.6,15.5,53.2,15.5z"/>
		<g>
			<path d="M252.3,139.5V190h-58.6c-13.9,0-25.2-11.3-25.2-25.2s11.3-25.2,25.2-25.2H252.3 M252.8,139h-0.5h-58.6
				c-14.2,0-25.7,11.5-25.7,25.7s11.5,25.7,25.7,25.7h58.6h0.5V190v-50.4V139L252.8,139z"/>
		</g>
		<line class="st2" x1="196.5" y1="139.5" x2="196.5" y2="190"/>
		<line class="st2" x1="202.1" y1="139.5" x2="202.1" y2="190"/>
		<line class="st2" x1="207.7" y1="139.5" x2="207.7" y2="190"/>
		<line class="st2" x1="213.3" y1="139.5" x2="213.3" y2="190"/>
		<line class="st2" x1="218.9" y1="139.5" x2="218.9" y2="190"/>
		<line class="st2" x1="224.6" y1="139.5" x2="224.6" y2="190"/>
		<line class="st2" x1="230.2" y1="139.5" x2="230.2" y2="190"/>
		<line class="st2" x1="235.8" y1="139.5" x2="235.8" y2="190"/>
		<line class="st2" x1="241.4" y1="139.5" x2="241.4" y2="190"/>
		<line class="st2" x1="247" y1="139.5" x2="247" y2="190"/>
		<line class="st2" x1="196.5" y1="164.7" x2="168.4" y2="164.7"/>
		<path class="st3" d="M168.4,234.9"/>
		<line class="st2" x1="208.6" y1="196.7" x2="246.2" y2="235"/>
		<line class="st2" x1="246.2" y1="196.7" x2="228" y2="216.4"/>
		<line class="st2" x1="206.4" y1="196.7" x2="168.4" y2="234.9"/>
		<line class="st2" x1="168.4" y1="196.7" x2="186.9" y2="216.4"/>
		<rect x="7.5" y="348.2" class="st1" width="113.6" height="36.7"/>
		<g>
			<path class="st1" d="M49.6,398C49.6,398,49.6,398,49.6,398c0,0-0.3-0.1-0.7-0.1l-2.1-0.3c-0.4-0.1-0.7-0.4-0.7-0.8l0-0.7
				c0-0.4-0.3-0.7-0.7-0.7l-0.1,0c-0.4,0-0.7-0.3-0.7-0.7l0-3c0-0.4,0.3-0.7,0.7-0.7l0.1,0c0.4,0,0.7-0.3,0.7-0.7l0-1.1
				c0-0.4,0.3-0.8,0.7-0.8c0,0,2.3-0.4,3.9-0.4c1.6,0,3.9,0.4,3.9,0.4c0.4,0.1,0.7,0.4,0.7,0.8l0,1.1c0,0.4,0.3,0.7,0.7,0.7l0.1,0
				c0.4,0,0.7,0.3,0.7,0.7l0,3c0,0.4-0.3,0.7-0.7,0.7h-0.1c-0.4,0-0.7,0.3-0.7,0.7l0,0.7c0,0.4-0.3,0.8-0.7,0.8l-2.1,0.3
				c-0.4,0-0.7,0.1-0.7,0.1c0,0,0,0,0,0c0,0.6-0.5,1-1,1C50,399,49.6,398.6,49.6,398z"/>
		</g>
		<g>
			<path class="st1" d="M76.9,398C76.9,398,76.9,398,76.9,398c0,0-0.3-0.1-0.7-0.1l-2.1-0.3c-0.4-0.1-0.7-0.4-0.7-0.8l0-0.7
				c0-0.4-0.3-0.7-0.7-0.7l-0.1,0c-0.4,0-0.7-0.3-0.7-0.7l0-3c0-0.4,0.3-0.7,0.7-0.7l0.1,0c0.4,0,0.7-0.3,0.7-0.7l0-1.1
				c0-0.4,0.3-0.8,0.7-0.8c0,0,2.3-0.4,3.9-0.4c1.6,0,3.9,0.4,3.9,0.4c0.4,0.1,0.7,0.4,0.7,0.8l0,1.1c0,0.4,0.3,0.7,0.7,0.7l0.1,0
				c0.4,0,0.7,0.3,0.7,0.7l0,3c0,0.4-0.3,0.7-0.7,0.7h-0.1c-0.4,0-0.7,0.3-0.7,0.7l0,0.7c0,0.4-0.3,0.8-0.7,0.8l-2.1,0.3
				c-0.4,0-0.7,0.1-0.7,0.1c0,0,0,0,0,0c0,0.6-0.5,1-1,1C77.3,399,76.9,398.6,76.9,398z"/>
		</g>
		<g>
			<path class="st1" d="M104.2,398C104.2,398,104.2,398,104.2,398c0,0-0.3-0.1-0.7-0.1l-2.1-0.3c-0.4-0.1-0.7-0.4-0.7-0.8l0-0.7
				c0-0.4-0.3-0.7-0.7-0.7l-0.1,0c-0.4,0-0.7-0.3-0.7-0.7l0-3c0-0.4,0.3-0.7,0.7-0.7l0.1,0c0.4,0,0.7-0.3,0.7-0.7l0-1.1
				c0-0.4,0.3-0.8,0.7-0.8c0,0,2.3-0.4,3.9-0.4c1.6,0,3.9,0.4,3.9,0.4c0.4,0.1,0.7,0.4,0.7,0.8l0,1.1c0,0.4,0.3,0.7,0.7,0.7l0.1,0
				c0.4,0,0.7,0.3,0.7,0.7l0,3c0,0.4-0.3,0.7-0.7,0.7h-0.1c-0.4,0-0.7,0.3-0.7,0.7l0,0.7c0,0.4-0.3,0.8-0.7,0.8l-2.1,0.3
				c-0.4,0-0.7,0.1-0.7,0.1c0,0,0,0,0,0c0,0.6-0.5,1-1,1C104.6,399,104.2,398.6,104.2,398z"/>
		</g>
		<g>
			<path class="st1" d="M49.6,335.1C49.6,335.1,49.6,335.1,49.6,335.1c0,0-0.3,0.1-0.7,0.1l-2.1,0.3c-0.4,0.1-0.7,0.4-0.7,0.8l0,0.7
				c0,0.4-0.3,0.7-0.7,0.7l-0.1,0c-0.4,0-0.7,0.3-0.7,0.7l0,3c0,0.4,0.3,0.7,0.7,0.7l0.1,0c0.4,0,0.7,0.3,0.7,0.7l0,1.1
				c0,0.4,0.3,0.8,0.7,0.8c0,0,2.3,0.4,3.9,0.4c1.6,0,3.9-0.4,3.9-0.4c0.4-0.1,0.7-0.4,0.7-0.8l0-1.1c0-0.4,0.3-0.7,0.7-0.7l0.1,0
				c0.4,0,0.7-0.3,0.7-0.7l0-3c0-0.4-0.3-0.7-0.7-0.7h-0.1c-0.4,0-0.7-0.3-0.7-0.7l0-0.7c0-0.4-0.3-0.8-0.7-0.8l-2.1-0.3
				c-0.4,0-0.7-0.1-0.7-0.1c0,0,0,0,0,0c0-0.6-0.5-1-1-1C50,334.1,49.6,334.5,49.6,335.1z"/>
		</g>
		<g>
			<path class="st1" d="M76.9,335.1C76.9,335.1,76.9,335.1,76.9,335.1c0,0-0.3,0.1-0.7,0.1l-2.1,0.3c-0.4,0.1-0.7,0.4-0.7,0.8l0,0.7
				c0,0.4-0.3,0.7-0.7,0.7l-0.1,0c-0.4,0-0.7,0.3-0.7,0.7l0,3c0,0.4,0.3,0.7,0.7,0.7l0.1,0c0.4,0,0.7,0.3,0.7,0.7l0,1.1
				c0,0.4,0.3,0.8,0.7,0.8c0,0,2.3,0.4,3.9,0.4c1.6,0,3.9-0.4,3.9-0.4c0.4-0.1,0.7-0.4,0.7-0.8l0-1.1c0-0.4,0.3-0.7,0.7-0.7l0.1,0
				c0.4,0,0.7-0.3,0.7-0.7l0-3c0-0.4-0.3-0.7-0.7-0.7h-0.1c-0.4,0-0.7-0.3-0.7-0.7l0-0.7c0-0.4-0.3-0.8-0.7-0.8l-2.1-0.3
				c-0.4,0-0.7-0.1-0.7-0.1c0,0,0,0,0,0c0-0.6-0.5-1-1-1C77.3,334.1,76.9,334.5,76.9,335.1z"/>
		</g>
		<g>
			<path class="st1" d="M88.6,267.4C88.6,267.4,88.6,267.4,88.6,267.4c0,0-0.3,0.1-0.7,0.1l-2.1,0.3c-0.4,0.1-0.7,0.4-0.7,0.8l0,0.7
				c0,0.4-0.3,0.7-0.7,0.7l-0.1,0c-0.4,0-0.7,0.3-0.7,0.7l0,3c0,0.4,0.3,0.7,0.7,0.7l0.1,0c0.4,0,0.7,0.3,0.7,0.7l0,1.1
				c0,0.4,0.3,0.8,0.7,0.8c0,0,2.3,0.4,3.9,0.4c1.6,0,3.9-0.4,3.9-0.4c0.4-0.1,0.7-0.4,0.7-0.8l0-1.1c0-0.4,0.3-0.7,0.7-0.7l0.1,0
				c0.4,0,0.7-0.3,0.7-0.7l0-3c0-0.4-0.3-0.7-0.7-0.7l-0.1,0c-0.4,0-0.7-0.3-0.7-0.7l0-0.7c0-0.4-0.3-0.8-0.7-0.8l-2.1-0.3
				c-0.4,0-0.7-0.1-0.7-0.1c0,0,0,0,0,0c0-0.6-0.5-1-1-1C89.1,266.4,88.6,266.8,88.6,267.4z"/>
		</g>
		<g>
			<path class="st1" d="M88.6,308.6C88.6,308.6,88.6,308.6,88.6,308.6c0,0-0.3-0.1-0.7-0.1l-2.1-0.3c-0.4-0.1-0.7-0.4-0.7-0.8l0-0.7
				c0-0.4-0.3-0.7-0.7-0.7l-0.1,0c-0.4,0-0.7-0.3-0.7-0.7l0-3c0-0.4,0.3-0.7,0.7-0.7l0.1,0c0.4,0,0.7-0.3,0.7-0.7l0-1.1
				c0-0.4,0.3-0.8,0.7-0.8c0,0,2.3-0.4,3.9-0.4c1.6,0,3.9,0.4,3.9,0.4c0.4,0.1,0.7,0.4,0.7,0.8l0,1.1c0,0.4,0.3,0.7,0.7,0.7l0.1,0
				c0.4,0,0.7,0.3,0.7,0.7l0,3c0,0.4-0.3,0.7-0.7,0.7l-0.1,0c-0.4,0-0.7,0.3-0.7,0.7l0,0.7c0,0.4-0.3,0.8-0.7,0.8l-2.1,0.3
				c-0.4,0-0.7,0.1-0.7,0.1c0,0,0,0,0,0c0,0.6-0.5,1-1,1C89.1,309.6,88.6,309.2,88.6,308.6z"/>
		</g>
		<g>
			<path class="st1" d="M104.2,335.1C104.2,335.1,104.2,335.1,104.2,335.1c0,0-0.3,0.1-0.7,0.1l-2.1,0.3c-0.4,0.1-0.7,0.4-0.7,0.8
				l0,0.7c0,0.4-0.3,0.7-0.7,0.7l-0.1,0c-0.4,0-0.7,0.3-0.7,0.7l0,3c0,0.4,0.3,0.7,0.7,0.7l0.1,0c0.4,0,0.7,0.3,0.7,0.7l0,1.1
				c0,0.4,0.3,0.8,0.7,0.8c0,0,2.3,0.4,3.9,0.4c1.6,0,3.9-0.4,3.9-0.4c0.4-0.1,0.7-0.4,0.7-0.8l0-1.1c0-0.4,0.3-0.7,0.7-0.7l0.1,0
				c0.4,0,0.7-0.3,0.7-0.7l0-3c0-0.4-0.3-0.7-0.7-0.7h-0.1c-0.4,0-0.7-0.3-0.7-0.7l0-0.7c0-0.4-0.3-0.8-0.7-0.8l-2.1-0.3
				c-0.4,0-0.7-0.1-0.7-0.1c0,0,0,0,0,0c0-0.6-0.5-1-1-1C104.6,334.1,104.2,334.5,104.2,335.1z"/>
		</g>
		<rect x="7.5" y="422.3" class="st1" width="113.6" height="36.7"/>
		<g>
			<path class="st1" d="M22.3,472.1C22.3,472.1,22.3,472.1,22.3,472.1c0,0-0.3-0.1-0.7-0.1l-2.1-0.3c-0.4-0.1-0.7-0.4-0.7-0.8l0-0.7
				c0-0.4-0.3-0.7-0.7-0.7l-0.1,0c-0.4,0-0.7-0.3-0.7-0.7l0-3c0-0.4,0.3-0.7,0.7-0.7l0.1,0c0.4,0,0.7-0.3,0.7-0.7l0-1.1
				c0-0.4,0.3-0.8,0.7-0.8c0,0,2.3-0.4,3.9-0.4c1.6,0,3.9,0.4,3.9,0.4c0.4,0.1,0.7,0.4,0.7,0.8l0,1.1c0,0.4,0.3,0.7,0.7,0.7l0.1,0
				c0.4,0,0.7,0.3,0.7,0.7l0,3c0,0.4-0.3,0.7-0.7,0.7h-0.1c-0.4,0-0.7,0.3-0.7,0.7l0,0.7c0,0.4-0.3,0.8-0.7,0.8l-2.1,0.3
				c-0.4,0-0.7,0.1-0.7,0.1c0,0,0,0,0,0c0,0.6-0.5,1-1,1C22.7,473.1,22.3,472.7,22.3,472.1z"/>
		</g>
		<g>
			<path class="st1" d="M49.6,472.1C49.6,472.1,49.6,472.1,49.6,472.1c0,0-0.3-0.1-0.7-0.1l-2.1-0.3c-0.4-0.1-0.7-0.4-0.7-0.8l0-0.7
				c0-0.4-0.3-0.7-0.7-0.7l-0.1,0c-0.4,0-0.7-0.3-0.7-0.7l0-3c0-0.4,0.3-0.7,0.7-0.7l0.1,0c0.4,0,0.7-0.3,0.7-0.7l0-1.1
				c0-0.4,0.3-0.8,0.7-0.8c0,0,2.3-0.4,3.9-0.4c1.6,0,3.9,0.4,3.9,0.4c0.4,0.1,0.7,0.4,0.7,0.8l0,1.1c0,0.4,0.3,0.7,0.7,0.7l0.1,0
				c0.4,0,0.7,0.3,0.7,0.7l0,3c0,0.4-0.3,0.7-0.7,0.7h-0.1c-0.4,0-0.7,0.3-0.7,0.7l0,0.7c0,0.4-0.3,0.8-0.7,0.8l-2.1,0.3
				c-0.4,0-0.7,0.1-0.7,0.1c0,0,0,0,0,0c0,0.6-0.5,1-1,1C50,473.1,49.6,472.7,49.6,472.1z"/>
		</g>
		<g>
			<path class="st1" d="M76.9,472.1C76.9,472.1,76.9,472.1,76.9,472.1c0,0-0.3-0.1-0.7-0.1l-2.1-0.3c-0.4-0.1-0.7-0.4-0.7-0.8l0-0.7
				c0-0.4-0.3-0.7-0.7-0.7l-0.1,0c-0.4,0-0.7-0.3-0.7-0.7l0-3c0-0.4,0.3-0.7,0.7-0.7l0.1,0c0.4,0,0.7-0.3,0.7-0.7l0-1.1
				c0-0.4,0.3-0.8,0.7-0.8c0,0,2.3-0.4,3.9-0.4c1.6,0,3.9,0.4,3.9,0.4c0.4,0.1,0.7,0.4,0.7,0.8l0,1.1c0,0.4,0.3,0.7,0.7,0.7l0.1,0
				c0.4,0,0.7,0.3,0.7,0.7l0,3c0,0.4-0.3,0.7-0.7,0.7h-0.1c-0.4,0-0.7,0.3-0.7,0.7l0,0.7c0,0.4-0.3,0.8-0.7,0.8l-2.1,0.3
				c-0.4,0-0.7,0.1-0.7,0.1c0,0,0,0,0,0c0,0.6-0.5,1-1,1C77.3,473.1,76.9,472.7,76.9,472.1z"/>
		</g>
		<g>
			<path class="st1" d="M104.2,472.1C104.2,472.1,104.2,472.1,104.2,472.1c0,0-0.3-0.1-0.7-0.1l-2.1-0.3c-0.4-0.1-0.7-0.4-0.7-0.8
				l0-0.7c0-0.4-0.3-0.7-0.7-0.7l-0.1,0c-0.4,0-0.7-0.3-0.7-0.7l0-3c0-0.4,0.3-0.7,0.7-0.7l0.1,0c0.4,0,0.7-0.3,0.7-0.7l0-1.1
				c0-0.4,0.3-0.8,0.7-0.8c0,0,2.3-0.4,3.9-0.4c1.6,0,3.9,0.4,3.9,0.4c0.4,0.1,0.7,0.4,0.7,0.8l0,1.1c0,0.4,0.3,0.7,0.7,0.7l0.1,0
				c0.4,0,0.7,0.3,0.7,0.7l0,3c0,0.4-0.3,0.7-0.7,0.7h-0.1c-0.4,0-0.7,0.3-0.7,0.7l0,0.7c0,0.4-0.3,0.8-0.7,0.8l-2.1,0.3
				c-0.4,0-0.7,0.1-0.7,0.1c0,0,0,0,0,0c0,0.6-0.5,1-1,1C104.6,473.1,104.2,472.7,104.2,472.1z"/>
		</g>
		<g>
			<path class="st1" d="M22.3,409.2C22.3,409.2,22.3,409.2,22.3,409.2c0,0-0.3,0.1-0.7,0.1l-2.1,0.3c-0.4,0.1-0.7,0.4-0.7,0.8l0,0.7
				c0,0.4-0.3,0.7-0.7,0.7l-0.1,0c-0.4,0-0.7,0.3-0.7,0.7l0,3c0,0.4,0.3,0.7,0.7,0.7l0.1,0c0.4,0,0.7,0.3,0.7,0.7l0,1.1
				c0,0.4,0.3,0.8,0.7,0.8c0,0,2.3,0.4,3.9,0.4c1.6,0,3.9-0.4,3.9-0.4c0.4-0.1,0.7-0.4,0.7-0.8l0-1.1c0-0.4,0.3-0.7,0.7-0.7l0.1,0
				c0.4,0,0.7-0.3,0.7-0.7l0-3c0-0.4-0.3-0.7-0.7-0.7h-0.1c-0.4,0-0.7-0.3-0.7-0.7l0-0.7c0-0.4-0.3-0.8-0.7-0.8l-2.1-0.3
				c-0.4,0-0.7-0.1-0.7-0.1c0,0,0,0,0,0c0-0.6-0.5-1-1-1C22.7,408.2,22.3,408.6,22.3,409.2z"/>
		</g>
		<g>
			<path class="st1" d="M49.6,409.2C49.6,409.2,49.6,409.2,49.6,409.2c0,0-0.3,0.1-0.7,0.1l-2.1,0.3c-0.4,0.1-0.7,0.4-0.7,0.8l0,0.7
				c0,0.4-0.3,0.7-0.7,0.7l-0.1,0c-0.4,0-0.7,0.3-0.7,0.7l0,3c0,0.4,0.3,0.7,0.7,0.7l0.1,0c0.4,0,0.7,0.3,0.7,0.7l0,1.1
				c0,0.4,0.3,0.8,0.7,0.8c0,0,2.3,0.4,3.9,0.4c1.6,0,3.9-0.4,3.9-0.4c0.4-0.1,0.7-0.4,0.7-0.8l0-1.1c0-0.4,0.3-0.7,0.7-0.7l0.1,0
				c0.4,0,0.7-0.3,0.7-0.7l0-3c0-0.4-0.3-0.7-0.7-0.7h-0.1c-0.4,0-0.7-0.3-0.7-0.7l0-0.7c0-0.4-0.3-0.8-0.7-0.8l-2.1-0.3
				c-0.4,0-0.7-0.1-0.7-0.1c0,0,0,0,0,0c0-0.6-0.5-1-1-1C50,408.2,49.6,408.6,49.6,409.2z"/>
		</g>
		<g>
			<path class="st1" d="M76.9,409.2C76.9,409.2,76.9,409.2,76.9,409.2c0,0-0.3,0.1-0.7,0.1l-2.1,0.3c-0.4,0.1-0.7,0.4-0.7,0.8l0,0.7
				c0,0.4-0.3,0.7-0.7,0.7l-0.1,0c-0.4,0-0.7,0.3-0.7,0.7l0,3c0,0.4,0.3,0.7,0.7,0.7l0.1,0c0.4,0,0.7,0.3,0.7,0.7l0,1.1
				c0,0.4,0.3,0.8,0.7,0.8c0,0,2.3,0.4,3.9,0.4c1.6,0,3.9-0.4,3.9-0.4c0.4-0.1,0.7-0.4,0.7-0.8l0-1.1c0-0.4,0.3-0.7,0.7-0.7l0.1,0
				c0.4,0,0.7-0.3,0.7-0.7l0-3c0-0.4-0.3-0.7-0.7-0.7h-0.1c-0.4,0-0.7-0.3-0.7-0.7l0-0.7c0-0.4-0.3-0.8-0.7-0.8l-2.1-0.3
				c-0.4,0-0.7-0.1-0.7-0.1c0,0,0,0,0,0c0-0.6-0.5-1-1-1C77.3,408.2,76.9,408.6,76.9,409.2z"/>
		</g>
		<g>
			<path class="st1" d="M104.2,409.2C104.2,409.2,104.2,409.2,104.2,409.2c0,0-0.3,0.1-0.7,0.1l-2.1,0.3c-0.4,0.1-0.7,0.4-0.7,0.8
				l0,0.7c0,0.4-0.3,0.7-0.7,0.7l-0.1,0c-0.4,0-0.7,0.3-0.7,0.7l0,3c0,0.4,0.3,0.7,0.7,0.7l0.1,0c0.4,0,0.7,0.3,0.7,0.7l0,1.1
				c0,0.4,0.3,0.8,0.7,0.8c0,0,2.3,0.4,3.9,0.4c1.6,0,3.9-0.4,3.9-0.4c0.4-0.1,0.7-0.4,0.7-0.8l0-1.1c0-0.4,0.3-0.7,0.7-0.7l0.1,0
				c0.4,0,0.7-0.3,0.7-0.7l0-3c0-0.4-0.3-0.7-0.7-0.7h-0.1c-0.4,0-0.7-0.3-0.7-0.7l0-0.7c0-0.4-0.3-0.8-0.7-0.8l-2.1-0.3
				c-0.4,0-0.7-0.1-0.7-0.1c0,0,0,0,0,0c0-0.6-0.5-1-1-1C104.6,408.2,104.2,408.6,104.2,409.2z"/>
		</g>
		<rect x="7.5" y="133.6" class="st1" width="113.6" height="36.7"/>
		<g>
			<path class="st1" d="M49.6,183.4C49.6,183.4,49.6,183.4,49.6,183.4c0,0-0.3-0.1-0.7-0.1l-2.1-0.3c-0.4-0.1-0.7-0.4-0.7-0.8l0-0.7
				c0-0.4-0.3-0.7-0.7-0.7l-0.1,0c-0.4,0-0.7-0.3-0.7-0.7l0-3c0-0.4,0.3-0.7,0.7-0.7l0.1,0c0.4,0,0.7-0.3,0.7-0.7l0-1.1
				c0-0.4,0.3-0.8,0.7-0.8c0,0,2.3-0.4,3.9-0.4c1.6,0,3.9,0.4,3.9,0.4c0.4,0.1,0.7,0.4,0.7,0.8l0,1.1c0,0.4,0.3,0.7,0.7,0.7l0.1,0
				c0.4,0,0.7,0.3,0.7,0.7l0,3c0,0.4-0.3,0.7-0.7,0.7h-0.1c-0.4,0-0.7,0.3-0.7,0.7l0,0.7c0,0.4-0.3,0.8-0.7,0.8l-2.1,0.3
				c-0.4,0-0.7,0.1-0.7,0.1c0,0,0,0,0,0c0,0.6-0.5,1-1,1C50,184.4,49.6,184,49.6,183.4z"/>
		</g>
		<g>
			<path class="st1" d="M76.9,183.4C76.9,183.4,76.9,183.4,76.9,183.4c0,0-0.3-0.1-0.7-0.1L74,183c-0.4-0.1-0.7-0.4-0.7-0.8l0-0.7
				c0-0.4-0.3-0.7-0.7-0.7l-0.1,0c-0.4,0-0.7-0.3-0.7-0.7l0-3c0-0.4,0.3-0.7,0.7-0.7l0.1,0c0.4,0,0.7-0.3,0.7-0.7l0-1.1
				c0-0.4,0.3-0.8,0.7-0.8c0,0,2.3-0.4,3.9-0.4c1.6,0,3.9,0.4,3.9,0.4c0.4,0.1,0.7,0.4,0.7,0.8l0,1.1c0,0.4,0.3,0.7,0.7,0.7l0.1,0
				c0.4,0,0.7,0.3,0.7,0.7l0,3c0,0.4-0.3,0.7-0.7,0.7h-0.1c-0.4,0-0.7,0.3-0.7,0.7l0,0.7c0,0.4-0.3,0.8-0.7,0.8l-2.1,0.3
				c-0.4,0-0.7,0.1-0.7,0.1c0,0,0,0,0,0c0,0.6-0.5,1-1,1C77.3,184.4,76.9,184,76.9,183.4z"/>
		</g>
		<g>
			<path class="st1" d="M104.2,183.4C104.2,183.4,104.2,183.4,104.2,183.4c0,0-0.3-0.1-0.7-0.1l-2.1-0.3c-0.4-0.1-0.7-0.4-0.7-0.8
				l0-0.7c0-0.4-0.3-0.7-0.7-0.7l-0.1,0c-0.4,0-0.7-0.3-0.7-0.7l0-3c0-0.4,0.3-0.7,0.7-0.7l0.1,0c0.4,0,0.7-0.3,0.7-0.7l0-1.1
				c0-0.4,0.3-0.8,0.7-0.8c0,0,2.3-0.4,3.9-0.4c1.6,0,3.9,0.4,3.9,0.4c0.4,0.1,0.7,0.4,0.7,0.8l0,1.1c0,0.4,0.3,0.7,0.7,0.7l0.1,0
				c0.4,0,0.7,0.3,0.7,0.7l0,3c0,0.4-0.3,0.7-0.7,0.7h-0.1c-0.4,0-0.7,0.3-0.7,0.7l0,0.7c0,0.4-0.3,0.8-0.7,0.8l-2.1,0.3
				c-0.4,0-0.7,0.1-0.7,0.1c0,0,0,0,0,0c0,0.6-0.5,1-1,1C104.6,184.4,104.2,184,104.2,183.4z"/>
		</g>
		<g>
			<path class="st1" d="M49.6,120.5C49.6,120.5,49.6,120.5,49.6,120.5c0,0-0.3,0.1-0.7,0.1l-2.1,0.3c-0.4,0.1-0.7,0.4-0.7,0.8l0,0.7
				c0,0.4-0.3,0.7-0.7,0.7l-0.1,0c-0.4,0-0.7,0.3-0.7,0.7l0,3c0,0.4,0.3,0.7,0.7,0.7l0.1,0c0.4,0,0.7,0.3,0.7,0.7l0,1.1
				c0,0.4,0.3,0.8,0.7,0.8c0,0,2.3,0.4,3.9,0.4c1.6,0,3.9-0.4,3.9-0.4c0.4-0.1,0.7-0.4,0.7-0.8l0-1.1c0-0.4,0.3-0.7,0.7-0.7l0.1,0
				c0.4,0,0.7-0.3,0.7-0.7l0-3c0-0.4-0.3-0.7-0.7-0.7l-0.1,0c-0.4,0-0.7-0.3-0.7-0.7l0-0.7c0-0.4-0.3-0.8-0.7-0.8l-2.1-0.3
				c-0.4,0-0.7-0.1-0.7-0.1c0,0,0,0,0,0c0-0.6-0.5-1-1-1C50,119.5,49.6,119.9,49.6,120.5z"/>
		</g>
		<g>
			<path class="st1" d="M76.9,120.5C76.9,120.5,76.9,120.5,76.9,120.5c0,0-0.3,0.1-0.7,0.1l-2.1,0.3c-0.4,0.1-0.7,0.4-0.7,0.8l0,0.7
				c0,0.4-0.3,0.7-0.7,0.7l-0.1,0c-0.4,0-0.7,0.3-0.7,0.7l0,3c0,0.4,0.3,0.7,0.7,0.7l0.1,0c0.4,0,0.7,0.3,0.7,0.7l0,1.1
				c0,0.4,0.3,0.8,0.7,0.8c0,0,2.3,0.4,3.9,0.4c1.6,0,3.9-0.4,3.9-0.4c0.4-0.1,0.7-0.4,0.7-0.8l0-1.1c0-0.4,0.3-0.7,0.7-0.7l0.1,0
				c0.4,0,0.7-0.3,0.7-0.7l0-3c0-0.4-0.3-0.7-0.7-0.7l-0.1,0c-0.4,0-0.7-0.3-0.7-0.7l0-0.7c0-0.4-0.3-0.8-0.7-0.8l-2.1-0.3
				c-0.4,0-0.7-0.1-0.7-0.1c0,0,0,0,0,0c0-0.6-0.5-1-1-1C77.3,119.5,76.9,119.9,76.9,120.5z"/>
		</g>
		<g>
			<path class="st1" d="M104.2,120.5C104.2,120.5,104.2,120.5,104.2,120.5c0,0-0.3,0.1-0.7,0.1l-2.1,0.3c-0.4,0.1-0.7,0.4-0.7,0.8
				l0,0.7c0,0.4-0.3,0.7-0.7,0.7l-0.1,0c-0.4,0-0.7,0.3-0.7,0.7l0,3c0,0.4,0.3,0.7,0.7,0.7l0.1,0c0.4,0,0.7,0.3,0.7,0.7l0,1.1
				c0,0.4,0.3,0.8,0.7,0.8c0,0,2.3,0.4,3.9,0.4c1.6,0,3.9-0.4,3.9-0.4c0.4-0.1,0.7-0.4,0.7-0.8l0-1.1c0-0.4,0.3-0.7,0.7-0.7l0.1,0
				c0.4,0,0.7-0.3,0.7-0.7l0-3c0-0.4-0.3-0.7-0.7-0.7l-0.1,0c-0.4,0-0.7-0.3-0.7-0.7l0-0.7c0-0.4-0.3-0.8-0.7-0.8l-2.1-0.3
				c-0.4,0-0.7-0.1-0.7-0.1c0,0,0,0,0,0c0-0.6-0.5-1-1-1C104.6,119.5,104.2,119.9,104.2,120.5z"/>
		</g>
		<rect x="7.5" y="59.5" class="st1" width="113.6" height="36.7"/>
		<g>
			<path class="st1" d="M22.3,109.3C22.3,109.3,22.3,109.3,22.3,109.3c0,0-0.3-0.1-0.7-0.1l-2.1-0.3c-0.4-0.1-0.7-0.4-0.7-0.8l0-0.7
				c0-0.4-0.3-0.7-0.7-0.7l-0.1,0c-0.4,0-0.7-0.3-0.7-0.7l0-3c0-0.4,0.3-0.7,0.7-0.7l0.1,0c0.4,0,0.7-0.3,0.7-0.7l0-1.1
				c0-0.4,0.3-0.8,0.7-0.8c0,0,2.3-0.4,3.9-0.4c1.6,0,3.9,0.4,3.9,0.4c0.4,0.1,0.7,0.4,0.7,0.8l0,1.1c0,0.4,0.3,0.7,0.7,0.7l0.1,0
				c0.4,0,0.7,0.3,0.7,0.7l0,3c0,0.4-0.3,0.7-0.7,0.7l-0.1,0c-0.4,0-0.7,0.3-0.7,0.7l0,0.7c0,0.4-0.3,0.8-0.7,0.8l-2.1,0.3
				c-0.4,0-0.7,0.1-0.7,0.1c0,0,0,0,0,0c0,0.6-0.5,1-1,1C22.7,110.3,22.3,109.9,22.3,109.3z"/>
		</g>
		<g>
			<path class="st1" d="M49.6,109.3C49.6,109.3,49.6,109.3,49.6,109.3c0,0-0.3-0.1-0.7-0.1l-2.1-0.3c-0.4-0.1-0.7-0.4-0.7-0.8l0-0.7
				c0-0.4-0.3-0.7-0.7-0.7l-0.1,0c-0.4,0-0.7-0.3-0.7-0.7l0-3c0-0.4,0.3-0.7,0.7-0.7l0.1,0c0.4,0,0.7-0.3,0.7-0.7l0-1.1
				c0-0.4,0.3-0.8,0.7-0.8c0,0,2.3-0.4,3.9-0.4c1.6,0,3.9,0.4,3.9,0.4c0.4,0.1,0.7,0.4,0.7,0.8l0,1.1c0,0.4,0.3,0.7,0.7,0.7l0.1,0
				c0.4,0,0.7,0.3,0.7,0.7l0,3c0,0.4-0.3,0.7-0.7,0.7l-0.1,0c-0.4,0-0.7,0.3-0.7,0.7l0,0.7c0,0.4-0.3,0.8-0.7,0.8l-2.1,0.3
				c-0.4,0-0.7,0.1-0.7,0.1c0,0,0,0,0,0c0,0.6-0.5,1-1,1C50,110.3,49.6,109.9,49.6,109.3z"/>
		</g>
		<g>
			<path class="st1" d="M76.9,109.3C76.9,109.3,76.9,109.3,76.9,109.3c0,0-0.3-0.1-0.7-0.1l-2.1-0.3c-0.4-0.1-0.7-0.4-0.7-0.8l0-0.7
				c0-0.4-0.3-0.7-0.7-0.7l-0.1,0c-0.4,0-0.7-0.3-0.7-0.7l0-3c0-0.4,0.3-0.7,0.7-0.7l0.1,0c0.4,0,0.7-0.3,0.7-0.7l0-1.1
				c0-0.4,0.3-0.8,0.7-0.8c0,0,2.3-0.4,3.9-0.4c1.6,0,3.9,0.4,3.9,0.4c0.4,0.1,0.7,0.4,0.7,0.8l0,1.1c0,0.4,0.3,0.7,0.7,0.7l0.1,0
				c0.4,0,0.7,0.3,0.7,0.7l0,3c0,0.4-0.3,0.7-0.7,0.7l-0.1,0c-0.4,0-0.7,0.3-0.7,0.7l0,0.7c0,0.4-0.3,0.8-0.7,0.8l-2.1,0.3
				c-0.4,0-0.7,0.1-0.7,0.1c0,0,0,0,0,0c0,0.6-0.5,1-1,1C77.3,110.3,76.9,109.9,76.9,109.3z"/>
		</g>
		<g>
			<path class="st1" d="M104.2,109.3C104.2,109.3,104.2,109.3,104.2,109.3c0,0-0.3-0.1-0.7-0.1l-2.1-0.3c-0.4-0.1-0.7-0.4-0.7-0.8
				l0-0.7c0-0.4-0.3-0.7-0.7-0.7l-0.1,0c-0.4,0-0.7-0.3-0.7-0.7l0-3c0-0.4,0.3-0.7,0.7-0.7l0.1,0c0.4,0,0.7-0.3,0.7-0.7l0-1.1
				c0-0.4,0.3-0.8,0.7-0.8c0,0,2.3-0.4,3.9-0.4c1.6,0,3.9,0.4,3.9,0.4c0.4,0.1,0.7,0.4,0.7,0.8l0,1.1c0,0.4,0.3,0.7,0.7,0.7l0.1,0
				c0.4,0,0.7,0.3,0.7,0.7l0,3c0,0.4-0.3,0.7-0.7,0.7l-0.1,0c-0.4,0-0.7,0.3-0.7,0.7l0,0.7c0,0.4-0.3,0.8-0.7,0.8l-2.1,0.3
				c-0.4,0-0.7,0.1-0.7,0.1c0,0,0,0,0,0c0,0.6-0.5,1-1,1C104.6,110.3,104.2,109.9,104.2,109.3z"/>
		</g>
		<g>
			<path class="st1" d="M22.3,46.4C22.3,46.4,22.3,46.4,22.3,46.4c0,0-0.3,0.1-0.7,0.1l-2.1,0.3c-0.4,0.1-0.7,0.4-0.7,0.8l0,0.7
				c0,0.4-0.3,0.7-0.7,0.7l-0.1,0c-0.4,0-0.7,0.3-0.7,0.7l0,3c0,0.4,0.3,0.7,0.7,0.7l0.1,0c0.4,0,0.7,0.3,0.7,0.7l0,1.1
				c0,0.4,0.3,0.8,0.7,0.8c0,0,2.3,0.4,3.9,0.4c1.6,0,3.9-0.4,3.9-0.4c0.4-0.1,0.7-0.4,0.7-0.8l0-1.1c0-0.4,0.3-0.7,0.7-0.7l0.1,0
				c0.4,0,0.7-0.3,0.7-0.7l0-3c0-0.4-0.3-0.7-0.7-0.7l-0.1,0c-0.4,0-0.7-0.3-0.7-0.7l0-0.7c0-0.4-0.3-0.8-0.7-0.8l-2.1-0.3
				c-0.4,0-0.7-0.1-0.7-0.1c0,0,0,0,0,0c0-0.6-0.5-1-1-1C22.7,45.4,22.3,45.9,22.3,46.4z"/>
		</g>
		<g>
			<path class="st1" d="M49.6,46.4C49.6,46.4,49.6,46.4,49.6,46.4c0,0-0.3,0.1-0.7,0.1l-2.1,0.3c-0.4,0.1-0.7,0.4-0.7,0.8l0,0.7
				c0,0.4-0.3,0.7-0.7,0.7l-0.1,0c-0.4,0-0.7,0.3-0.7,0.7l0,3c0,0.4,0.3,0.7,0.7,0.7l0.1,0c0.4,0,0.7,0.3,0.7,0.7l0,1.1
				c0,0.4,0.3,0.8,0.7,0.8c0,0,2.3,0.4,3.9,0.4c1.6,0,3.9-0.4,3.9-0.4c0.4-0.1,0.7-0.4,0.7-0.8l0-1.1c0-0.4,0.3-0.7,0.7-0.7l0.1,0
				c0.4,0,0.7-0.3,0.7-0.7l0-3c0-0.4-0.3-0.7-0.7-0.7l-0.1,0c-0.4,0-0.7-0.3-0.7-0.7l0-0.7c0-0.4-0.3-0.8-0.7-0.8l-2.1-0.3
				c-0.4,0-0.7-0.1-0.7-0.1c0,0,0,0,0,0c0-0.6-0.5-1-1-1C50,45.4,49.6,45.9,49.6,46.4z"/>
		</g>
		<g>
			<path class="st1" d="M76.9,46.4C76.9,46.4,76.9,46.4,76.9,46.4c0,0-0.3,0.1-0.7,0.1L74,46.8c-0.4,0.1-0.7,0.4-0.7,0.8l0,0.7
				c0,0.4-0.3,0.7-0.7,0.7l-0.1,0c-0.4,0-0.7,0.3-0.7,0.7l0,3c0,0.4,0.3,0.7,0.7,0.7l0.1,0c0.4,0,0.7,0.3,0.7,0.7l0,1.1
				c0,0.4,0.3,0.8,0.7,0.8c0,0,2.3,0.4,3.9,0.4c1.6,0,3.9-0.4,3.9-0.4c0.4-0.1,0.7-0.4,0.7-0.8l0-1.1c0-0.4,0.3-0.7,0.7-0.7l0.1,0
				c0.4,0,0.7-0.3,0.7-0.7l0-3c0-0.4-0.3-0.7-0.7-0.7l-0.1,0c-0.4,0-0.7-0.3-0.7-0.7l0-0.7c0-0.4-0.3-0.8-0.7-0.8l-2.1-0.3
				c-0.4,0-0.7-0.1-0.7-0.1c0,0,0,0,0,0c0-0.6-0.5-1-1-1C77.3,45.4,76.9,45.9,76.9,46.4z"/>
		</g>
		<g>
			<path class="st1" d="M104.2,46.4C104.2,46.4,104.2,46.4,104.2,46.4c0,0-0.3,0.1-0.7,0.1l-2.1,0.3c-0.4,0.1-0.7,0.4-0.7,0.8l0,0.7
				c0,0.4-0.3,0.7-0.7,0.7l-0.1,0c-0.4,0-0.7,0.3-0.7,0.7l0,3c0,0.4,0.3,0.7,0.7,0.7l0.1,0c0.4,0,0.7,0.3,0.7,0.7l0,1.1
				c0,0.4,0.3,0.8,0.7,0.8c0,0,2.3,0.4,3.9,0.4c1.6,0,3.9-0.4,3.9-0.4c0.4-0.1,0.7-0.4,0.7-0.8l0-1.1c0-0.4,0.3-0.7,0.7-0.7l0.1,0
				c0.4,0,0.7-0.3,0.7-0.7l0-3c0-0.4-0.3-0.7-0.7-0.7l-0.1,0c-0.4,0-0.7-0.3-0.7-0.7l0-0.7c0-0.4-0.3-0.8-0.7-0.8l-2.1-0.3
				c-0.4,0-0.7-0.1-0.7-0.1c0,0,0,0,0,0c0-0.6-0.5-1-1-1C104.6,45.4,104.2,45.9,104.2,46.4z"/>
		</g>
		<circle class="st1" cx="84" cy="230.5" r="16.9"/>
		<path class="st1" d="M58.3,226.6c-0.4,1.2-0.7,2.4-0.7,3.8c0,1.3,0.3,2.6,0.7,3.8h7.9v-7.5H58.3z"/>
		<path class="st1" d="M93.6,254.5c1.2-0.2,2.5-0.6,3.6-1.3c1.2-0.7,2.1-1.5,2.9-2.5l-4-6.9l-6.5,3.8L93.6,254.5z"/>
		<path class="st1" d="M93.6,206.2c1.2,0.2,2.5,0.6,3.6,1.3c1.2,0.7,2.1,1.5,2.9,2.5l-4,6.9l-6.5-3.8L93.6,206.2z"/>
		<polygon class="st1" points="24.5,260.4 24.5,274.3 24.5,315.6 38.4,315.6 38.4,274.3 56.4,274.3 56.4,315.6 70.3,315.6 
			70.3,274.3 70.3,274.1 70.3,260.4 		"/>
		<polygon class="st1" points="108.3,269.9 108.3,281.8 72.6,281.8 72.6,294.2 108.3,294.2 108.3,306.1 122.2,306.1 122.2,269.9 		
			"/>
		<g>
			<path class="st1" d="M34.6,253.9C34.6,253.9,34.6,253.9,34.6,253.9c0,0-0.3-0.1-0.7-0.1l-2.1-0.3c-0.4-0.1-0.7-0.4-0.7-0.8l0-0.7
				c0-0.4-0.3-0.7-0.7-0.7l-0.1,0c-0.4,0-0.7-0.3-0.7-0.7l0-3c0-0.4,0.3-0.7,0.7-0.7l0.1,0c0.4,0,0.7-0.3,0.7-0.7l0-1.1
				c0-0.4,0.3-0.8,0.7-0.8c0,0,2.3-0.4,3.9-0.4c1.6,0,3.9,0.4,3.9,0.4c0.4,0.1,0.7,0.4,0.7,0.8l0,1.1c0,0.4,0.3,0.7,0.7,0.7l0.1,0
				c0.4,0,0.7,0.3,0.7,0.7l0,3c0,0.4-0.3,0.7-0.7,0.7l-0.1,0c-0.4,0-0.7,0.3-0.7,0.7l0,0.7c0,0.4-0.3,0.8-0.7,0.8l-2.1,0.3
				c-0.4,0-0.7,0.1-0.7,0.1c0,0,0,0,0,0c0,0.6-0.5,1-1,1C35,254.9,34.6,254.5,34.6,253.9z"/>
		</g>
		<rect x="24.5" y="231.4" class="st1" width="22.2" height="8.5"/>
		<g>
			<path class="st1" d="M34.5,225.4C34.5,225.3,34.5,225.3,34.5,225.4c0,0-0.3-0.1-0.7-0.1l-2.1-0.3c-0.4-0.1-0.7-0.4-0.7-0.8l0-0.7
				c0-0.4-0.3-0.7-0.7-0.7l-0.1,0c-0.4,0-0.7-0.3-0.7-0.7l0-3c0-0.4,0.3-0.7,0.7-0.7l0.1,0c0.4,0,0.7-0.3,0.7-0.7l0-1.1
				c0-0.4,0.3-0.8,0.7-0.8c0,0,2.3-0.4,3.9-0.4c1.6,0,3.9,0.4,3.9,0.4c0.4,0.1,0.7,0.4,0.7,0.8l0,1.1c0,0.4,0.3,0.7,0.7,0.7l0.1,0
				c0.4,0,0.7,0.3,0.7,0.7l0,3c0,0.4-0.3,0.7-0.7,0.7l-0.1,0c-0.4,0-0.7,0.3-0.7,0.7l0,0.7c0,0.4-0.3,0.8-0.7,0.8l-2.1,0.3
				c-0.4,0-0.7,0.1-0.7,0.1c0,0,0,0,0,0c0,0.6-0.5,1-1,1C35,226.4,34.5,225.9,34.5,225.4z"/>
		</g>
		<rect x="24.5" y="202.9" class="st1" width="22.2" height="8.5"/>
		<rect x="247.4" y="397.8" class="st1" width="14.6" height="76.7"/>
		<circle class="st1" cx="241.2" cy="408.8" r="3.2"/>
		<circle class="st1" cx="241.2" cy="427.1" r="3.2"/>
		<circle class="st1" cx="241.2" cy="445.3" r="3.2"/>
		<circle class="st1" cx="241.2" cy="463.5" r="3.2"/>
		<circle class="st1" cx="268.2" cy="408.8" r="3.2"/>
		<circle class="st1" cx="268.2" cy="427.1" r="3.2"/>
		<circle class="st1" cx="268.2" cy="445.3" r="3.2"/>
		<circle class="st1" cx="268.2" cy="463.5" r="3.2"/>
		<rect x="197.5" y="397.8" class="st1" width="14.6" height="76.7"/>
		<circle class="st1" cx="191.3" cy="408.8" r="3.2"/>
		<circle class="st1" cx="191.3" cy="427.1" r="3.2"/>
		<circle class="st1" cx="191.3" cy="445.3" r="3.2"/>
		<circle class="st1" cx="191.3" cy="463.5" r="3.2"/>
		<circle class="st1" cx="218.3" cy="408.8" r="3.2"/>
		<circle class="st1" cx="218.3" cy="427.1" r="3.2"/>
		<circle class="st1" cx="218.3" cy="445.3" r="3.2"/>
		<circle class="st1" cx="218.3" cy="463.5" r="3.2"/>
		<g>
			<path class="st1" d="M187.8,93.5c-0.4,1.2-0.7,2.4-0.7,3.8c0,1.3,0.3,2.6,0.7,3.8h7.9v-7.5H187.8z"/>
			<path class="st1" d="M187.8,76.3c-0.4,1.2-0.7,2.4-0.7,3.8c0,1.3,0.3,2.6,0.7,3.8h7.9v-7.5H187.8z"/>
			<path class="st1" d="M187.8,59.1c-0.4,1.2-0.7,2.4-0.7,3.8c0,1.3,0.3,2.6,0.7,3.8h7.9v-7.5H187.8z"/>
			<path class="st1" d="M215.6,121.3c-1.2,0.4-2.4,0.7-3.8,0.7c-1.3,0-2.6-0.3-3.8-0.7v-7.9h7.5V121.3z"/>
			<path class="st1" d="M232.8,121.3c-1.2,0.4-2.4,0.7-3.8,0.7c-1.3,0-2.6-0.3-3.8-0.7v-7.9h7.5V121.3z"/>
			<path class="st1" d="M250,121.3c-1.2,0.4-2.4,0.7-3.8,0.7c-1.3,0-2.6-0.3-3.8-0.7v-7.9h7.5V121.3z"/>
			<path class="st1" d="M187.8,41.9c-0.4,1.2-0.7,2.4-0.7,3.8c0,1.3,0.3,2.6,0.7,3.8h7.9v-7.5H187.8z"/>
			<path class="st1" d="M270.3,93.5c0.4,1.2,0.7,2.4,0.7,3.8c0,1.3-0.3,2.6-0.7,3.8h-7.9v-7.5H270.3z"/>
			<path class="st1" d="M270.3,76.3c0.4,1.2,0.7,2.4,0.7,3.8c0,1.3-0.3,2.6-0.7,3.8h-7.9v-7.5H270.3z"/>
			<path class="st1" d="M270.3,59.1c0.4,1.2,0.7,2.4,0.7,3.8c0,1.3-0.3,2.6-0.7,3.8h-7.9v-7.5H270.3z"/>
			<path class="st1" d="M270.3,41.9c0.4,1.2,0.7,2.4,0.7,3.8c0,1.3-0.3,2.6-0.7,3.8h-7.9v-7.5H270.3z"/>
			<path class="st1" d="M242.5,21.6c1.2-0.4,2.4-0.7,3.8-0.7c1.3,0,2.6,0.3,3.8,0.7v7.9h-7.5V21.6z"/>
			<path class="st1" d="M225.3,21.6c1.2-0.4,2.4-0.7,3.8-0.7c1.3,0,2.6,0.3,3.8,0.7v7.9h-7.5V21.6z"/>
			<path class="st1" d="M208.1,21.6c1.2-0.4,2.4-0.7,3.8-0.7c1.3,0,2.6,0.3,3.8,0.7v7.9h-7.5V21.6z"/>
			<rect x="199.5" y="33.3" class="st1" width="59.1" height="76.3"/>
		</g>
		<pattern  id="SVGID_1_" xlink:href="#New_Pattern_Swatch_2" patternTransform="matrix(1.5 0 0 1.5 3946.4729 3609.3281)">
		</pattern>
		<path class="st4" d="M184.2,482.9c0,3.6-2.9,6.5-6.5,6.5c-3.6,0-6.5-2.9-6.5-6.5s2.9-6.5,6.5-6.5
			C181.3,476.3,184.2,479.2,184.2,482.9z M53.2,480.8c-3.6,0-6.5,2.9-6.5,6.5s2.9,6.5,6.5,6.5c3.6,0,6.5-2.9,6.5-6.5
			S56.8,480.8,53.2,480.8z M177.7,15.5c-3.6,0-6.5,2.9-6.5,6.5s2.9,6.5,6.5,6.5c3.6,0,6.5-2.9,6.5-6.5S181.3,15.5,177.7,15.5z
			 M53.2,15.5c-3.6,0-6.5,2.9-6.5,6.5s2.9,6.5,6.5,6.5c3.6,0,6.5-2.9,6.5-6.5S56.8,15.5,53.2,15.5z M26.3,360
			c-3.6,0-6.5,2.9-6.5,6.5c0,3.6,2.9,6.5,6.5,6.5s6.5-2.9,6.5-6.5C32.9,362.9,29.9,360,26.3,360z M26.3,145.4
			c-3.6,0-6.5,2.9-6.5,6.5s2.9,6.5,6.5,6.5s6.5-2.9,6.5-6.5S29.9,145.4,26.3,145.4z M196.5,165.9h55.8v-2.2h-55.8V165.9z
			 M22.2,211.4h2.2v-8.5h22.2v26.3H24.5v-5.5h-2.2v16.1h2.2v-8.4h22.2v26.7H24.5v-4.5h-2.2v64.3h18.5v-2.2H24.5v-55.2h45.9v55.2
			H54.7v2.2h67.5v-2.2H72.6v-55.2h49.6v-22h-2.2v19.8h-71v-55.2h71v19.2h2.2v-21.5h-100V211.4z M299.3,12.9v479.9v3v30.9h-74.1
			L0.7,547.4v-26.2v-3.8V2.6h274.6v10.3H299.3z M7.5,513.8l156.5-14.4V397.8h2.3v101.4l55-5.1v-5.1h71.3V346.3H168.4v27.3h-6.8
			v-27.3v-3.4v-63.1h6.7v5.3l65.1-6.6v8.1h-2.2v-5.6l-62.8,6.4V313h21.8v2.2h-21.8v24.3h41.8v-36h31.2v2.2h-29v33.8h41.3v-36h2.2
			v8.4h2.2v2.2H256v25.4h16.9v-25.4h-1.8v-2.2h5.9v2.2h-1.8v25.4h17.4v-25.4h-2.2v-2.2h2.2v-38.1h-34.3v12.8h-6.8v-19.6h41v-21.2
			h-5.9v-6.8h5.9v-25.8h-5.9v-6.8h5.9v-67H168.4V190h95.2v16.6h4.1v6.8h-4.1v28.4h-29.1v-2.2h-53.9v2.2h-12.1v2.2h-6.7V132.8h130.9
			V19.7h-24V9.4H166.2V115h-2.3V9.4H7.5V513.8z M180.6,235v2.2h25.8v-40.5h-38V235H180.6z M248.5,196.7V235h8.4v-38.3H248.5z
			 M246.2,196.7h-37.6v40.5h25.8V235h11.8V196.7z M297,495.9H228v4.5L3,521v23.9L225,524.6l0.1,0h0.1H297V495.9z"/>
	</g>
</g>
</svg>
