<svg xmlns="http://www.w3.org/2000/svg" viewBox="0 0 348.77 394.07"><defs><style>*{vector-effect:non-scaling-stroke}.cls-1{fill:none;}.cls-1,.cls-2,.cls-3,.cls-5{stroke:#231f20;}.cls-1,.cls-2,.cls-3{stroke-miterlimit:10;}.cls-2,.cls-3,.cls-4,.cls-5{fill:#fff;}.cls-3,.cls-5{stroke-linecap:round;}.cls-5{stroke-linejoin:round;}.cls-6{fill:#231f20;}</style></defs><g id="Layer_2" data-name="Layer 2"><g id="Layer_1-2" data-name="Layer 1"><path class="cls-1" d="M162.89,49.19c-93.82,0-140.34,27.63-137.06,54.51,0,0,17.71,203.3,21,227.56,5,36.79,57.48,62.31,116.07,62.31S274,368.05,279,331.26C282.24,307,300,103.7,300,103.7,303.23,76.82,256.72,49.19,162.89,49.19Z"/><path class="cls-2" d="M286.69,96.28c0,22.92-55.43,41.51-123.8,41.51S39.1,119.2,39.1,96.28"/><path class="cls-3" d="M286.69,98.73c0,22.93-55.43,41.51-123.8,41.51S39.1,121.66,39.1,98.73"/><path class="cls-4" d="M162.89,140.24c44.35,0,83.26-7.83,105.11-19.57C252,105,211,93.78,162.89,93.78S73.78,105,57.77,120.67C79.64,132.41,118.54,140.24,162.89,140.24Z"/><path class="cls-1" d="M162.89,140.24c44.35,0,83.26-7.83,105.11-19.57C252,105,211,93.78,162.89,93.78S73.78,105,57.77,120.67C79.64,132.41,118.54,140.24,162.89,140.24Z"/><path class="cls-1" d="M340.3,116.69C330,101.21,312.15,95.09,299.73,97a22,22,0,0,1,.23,6.72l-2.46,28c14.6-12.21,18.49-10.38,17.77,3-2.62,48.66-16.79,76-25.94,88.76-2.22,24.59-4.45,48.88-6.3,68.38,10.5-10.42,30.44-33.3,46.73-70.2C353,169,351.71,133.82,340.3,116.69Z"/><path class="cls-5" d="M318.13,94.76c-1.33-1.52-6.63-7.61-7.68-8.76s-5.47-6.37-5.9-6.72S303.46,77,303,76.45a42.11,42.11,0,0,0-3.26-2.83c-1.45-1.19-5.73-5.72-6.85-6.79s-5.06-7.6-6.87-9.39-12.33-4.39-15.2-5.89-24.06-12-30.73-13.58S221,34.46,216,34.83s-8.83,2.8-13.49,2.84c-6.29,0-16.82,1.88-21.5,3.14s-19.37,11.95-19.37,11.95-12.37,3.65-15.13,6.08c-.56-2-1.19-1.34-1.19-1.34l-.18-.63h0a.25.25,0,0,0,.18-.08.25.25,0,0,0,0-.36,1,1,0,0,1-.41-.73c0-.05,0-.08,0-.13a2.94,2.94,0,0,1,.1-.39h0a1.24,1.24,0,0,1,.38.66.27.27,0,0,0,.26.23h0a.26.26,0,0,0,.23-.29,5.57,5.57,0,0,0-.75-1.54c0-.06,0-.13,0-.19a3.05,3.05,0,0,1,.22.32s-.16-.76-.16-.8,0-.26.07-.43l0,0a3.07,3.07,0,0,0,.25.26c0,.06.12.13.11.18a.26.26,0,0,0,.22.29h0a.26.26,0,0,0,.25-.22,1.17,1.17,0,0,0-.48-1,1.23,1.23,0,0,1-.19-.71,3.92,3.92,0,0,1,.31.28l.13.13c.19.19.2.37.2.72v.11a.26.26,0,0,0,.26.25h0a.24.24,0,0,0,.25-.26v-.11a1.31,1.31,0,0,0-.35-1.07l-.12-.13a3,3,0,0,0-.53-.46l0,0c.08-.42.14-.78.18-1.07,0,0,.2.12.19,0,.29,0,.63-.07.75-.34a.5.5,0,0,0-.1-.52,1.17,1.17,0,0,0-.66-.42,1.16,1.16,0,0,0-.19-.42l0,0c0-.36.49-.17.63-.17h0a.25.25,0,0,0,.25-.25.76.76,0,0,0-.24-.68,1.87,1.87,0,0,0-.29-.2,1.16,1.16,0,0,1-.24-.18.53.53,0,0,1-.06-.13,1.2,1.2,0,0,0-.13-.25,1,1,0,0,0-.23-.18l-.27-.69s.1,0,.1-.1v-.08a.77.77,0,0,0-.43-.79c-.06,0-.12,0-.18,0a2.2,2.2,0,0,0-.12-.19l-.3-.3c.09-.06.18-.15.14-.26a1.62,1.62,0,0,0-.41-.71s0-.05,0-.08,0,0-.06-.06a1.25,1.25,0,0,0-.18-.49c0-.08-.12-.09-.17-.14s.14-.09.12-.18c-.1-.57-.87-1-1.44-1.23a2.66,2.66,0,0,0-1-.23c-.42-.66-.8-1.29-.8-1.29s-.16-3.45-.16-4.57a6.78,6.78,0,0,0-.8-3.28c-.4-.4.21-2.35.21-2.67s-.11-2.57.32-3.1a4.74,4.74,0,0,0,.68-2.28.62.62,0,0,0,.55-.55c.12-1.52,0-3.69-2.13-5a7,7,0,0,0-1.43-.62.58.58,0,0,0,.48-.33,2.69,2.69,0,0,0-.67-3.18c-.11-.09-.26-.09-.38-.16a1.75,1.75,0,0,0-.72-2.11,2.87,2.87,0,0,0-1.73-.23,5.33,5.33,0,0,0-.46-.32c.06-.08.14-.14.15-.24s0-.48.06-.74a.66.66,0,0,0,.51.18.64.64,0,0,0,.55-.72c-.21-1.44-.46-3.23-2.08-4.15a4.33,4.33,0,0,0-4.31.12A2.57,2.57,0,0,0,128,8.43l0,.17a3.36,3.36,0,0,1,0,.51l-.06.05a.73.73,0,0,0-.38.31s0,0,0,0a6.19,6.19,0,0,1-.65-.16A4.33,4.33,0,0,0,125.21,7a5.32,5.32,0,0,0-.48-1.64,5.26,5.26,0,0,0-3.45-2.45c-.16,0-.32,0-.48-.05a3.09,3.09,0,0,0-.42-.83c-1-1.33-2.8-1.4-3.89-1.45A19.85,19.85,0,0,0,112,.72a2.19,2.19,0,0,0-1.7,1.16,4.79,4.79,0,0,0-2,.51,39.31,39.31,0,0,0-3.42,2.08,8.92,8.92,0,0,1-1.47,0c-.27,0-.55-.09-.82-.15a8,8,0,0,0-1.49-.21c-.12,0-.22.07-.34.08a3,3,0,0,0-.59-.53,2.67,2.67,0,0,0-2.61-.15c-1,.56.19,1.37.64,1.12a1.2,1.2,0,0,1,1,0,3.9,3.9,0,0,0-1.21,1,4.54,4.54,0,0,0-.83,2.57l-.06.06a10.67,10.67,0,0,1-1-.45,5,5,0,0,0-3-1A5.45,5.45,0,0,0,89,8.92a2.9,2.9,0,0,0-.29,2.27,4.71,4.71,0,0,0-.86.32c-1.26-.15-2.66-.22-3.52.42s-.77,1.54-.16,3c0,.11.17.11.26.18a3.1,3.1,0,0,0-1.84-.35,1.81,1.81,0,0,0-1.22.91,1.79,1.79,0,0,0-.13,1.71,2.18,2.18,0,0,0,1.4,1,3,3,0,0,0-.35.67,3.16,3.16,0,0,0,0,.61A2.93,2.93,0,0,0,82,22.35l.05.22s-.1-.07-.13-.12A3.49,3.49,0,0,1,81.7,21a.64.64,0,0,0-.63-.65.69.69,0,0,0-.65.63A4.49,4.49,0,0,0,80.73,23a2,2,0,0,0,.31.4l-.23-.21-.39-.33a.65.65,0,0,0-.64-.63h0a.65.65,0,0,0-.62.66A1.89,1.89,0,0,0,80,24.19l.27.25.16.12,0,.05-.12.1h0l-.59-.16-.41-.1c-.95-.26-2.27-.62-3.26.42a.64.64,0,0,0,.92.88c.44-.45,1-.33,2-.07l.17,0a1.7,1.7,0,0,0-.52.87h-.24c-.76,0-2.36,0-2.45,1.57A1.69,1.69,0,0,0,77.22,30a5.45,5.45,0,0,0-.5.61c-1.67-.65-3.21-1-4.1-.43a1.65,1.65,0,0,0-.73,1.57,3.79,3.79,0,0,0,.39,1.49,2.19,2.19,0,0,0-.26.83l0,.24a2.28,2.28,0,0,0,.26,1.71,2.9,2.9,0,0,0-.43.41,2.1,2.1,0,0,0-.22.67,3.82,3.82,0,0,0-.64.31c-2,1.33-1.3,3.72-.69,5.38a2.17,2.17,0,0,0,.16.78,3.37,3.37,0,0,0-1,.79A3.27,3.27,0,0,0,68.79,47c.18,1,1.36.34,1.26-.24a2,2,0,0,1,.45-1.55,2.11,2.11,0,0,1,.57-.48.57.57,0,0,0,.08.13,5.38,5.38,0,0,0-.22,2.27,4.54,4.54,0,0,0,1.72,3.18,6.47,6.47,0,0,0,2.62,1.07c0,.22,0,.42,0,.63a6,6,0,0,0-3.36.63,2.13,2.13,0,0,0-.84,2.87c.13.32.29.64.43,1s.32.65.46,1a16.08,16.08,0,0,0-.47,1.93,68.49,68.49,0,0,1-9.41.33c-3.48-.47-11.21-3-18.79-3.47-.52,0-1-.06-1.57-.07H39.67l-1.18,0-.41,0-1.3.06-.24,0c-5.49.34-10.62,1.21-13,1.21-3.32,0-9-1.58-13.89,2.05-5.69.79-7.74,3.79-8.21,5.53S-.9,68.36,2.42,72s8.36,11.84,10.89,13.74a69.74,69.74,0,0,0,14,7.89c5.06,1.89,17.37,9.15,20.21,11.21s6.32,5.37,6.32,6.32-2.85,6.94-2.06,10.1A33.12,33.12,0,0,1,52,131.67c-.31,1.89-.66,3.73-1.47,4.82a29,29,0,0,0-2.35,5c-.82,1.91-2.44,2.69-3.19,4.6-1,2.54-1.55,4.36.36,5.18a4.81,4.81,0,0,0,3.45-.18c-1.18,1.54-1,2.45-.27,3.17s3.36,2.55,6.72-.45c.91,1.91,2.18,3.36,4.72,1.73a50.84,50.84,0,0,0,6-4.73c1.73,1.27,4.44,1.09,5.9.82s4.18.45,4.45-2.82-.27-7.27.28-10.26.18-6.45-1.82-10.81S72,116.25,71.71,112s-2.24-8.44-7.58-11.75S53.56,89.87,51.31,87.52,44.58,79,44.58,79c4.49,2.57,10.48,3,11.65,3.1s9,4.7,13.56,6.09c1.95,4.72,6.38,11.61,7.94,15.38a34.85,34.85,0,0,0,1,3.45c.95,3.12,2.82,8.26,4.27,11.71l.09.22c.08.18.15.35.23.52l.19.45q.09.21.18.39t.21.45c0,.1.09.2.14.29s.14.28.21.4l.1.19a3.77,3.77,0,0,0,.26.41s6.54,3.87,27,2.46c9.29-.64,15.38-2.57,25.64-2.89a86.14,86.14,0,0,0,20.83-3.2c1.92-.64,14.43-9.49,14.43-9.49s-2.9-25.76-.66-32.17c10.26-3.85,16.48-8.16,24.16-15s10.17-7.31,14.82-8.3,17,2.24,22.27,3.49,20.14,2.12,27.69,3.86,13.89.63,15.78,3.19,2.09,11,2.91,13,4.19,6,5.05,7.59a54.68,54.68,0,0,1,3,8.5,22.14,22.14,0,0,0,3.12,6.29c1.08,1.47,2.65,1.47,3.25.39s2.33-2.65.33-7.17-3.16-5-3.35-6.19.1-3.07,1.57-2.43,7.36,4.63,9.55,5.43l.61.28.17.09c.21.1.42.22.66.35a1.05,1.05,0,0,0,.11.07c.6.34,1.28.77,2,1.25h0l.07,0,1.81,1.25,1.68,1.54.55,1-1.39.13-1,.42-1,.84.14.7-2.1-.14-1.11.42-.14,1.67,1.67.84,4.19.84s-1.68.28-2.1.42-2.09.41-2.09.41l-1.39.7.55,2,5.17-.28,2.23-.14,2.37-2.79,1.26-1.82-.56,2.23a19.17,19.17,0,0,1-.28,2.24,15.66,15.66,0,0,0,.42,2.51,7,7,0,0,0,1,1.81l1.11-.27.56-4,.84-2.65.27-.55.07.06a30.9,30.9,0,0,0,1.13-2.94A4.75,4.75,0,0,0,318.13,94.76Z"/><path class="cls-5" d="M133.13,22.09c.2.54-1.12,4.81-.16,5.45s5.77,6.25,5.77,6.25.83,1.51.37,2l-.88,1.33"/><path class="cls-6" d="M146.5,58.84c-.56-2-1.19-1.34-1.19-1.34l-.18-.63h0a.25.25,0,0,0,.18-.08.25.25,0,0,0,0-.36,1,1,0,0,1-.41-.73c0-.05,0-.08,0-.13a2.94,2.94,0,0,1,.1-.39h0a1.24,1.24,0,0,1,.38.66.27.27,0,0,0,.26.23h0a.26.26,0,0,0,.23-.29,5.57,5.57,0,0,0-.75-1.54c0-.06,0-.13,0-.19a3.05,3.05,0,0,1,.22.32s-.16-.76-.16-.8,0-.26.07-.43l0,0a3.07,3.07,0,0,0,.25.26c0,.06.12.13.11.18a.26.26,0,0,0,.22.29h0a.26.26,0,0,0,.25-.22,1.17,1.17,0,0,0-.48-1,1.23,1.23,0,0,1-.19-.71,3.92,3.92,0,0,1,.31.28l.13.13c.19.19.2.37.2.72v.11a.26.26,0,0,0,.26.25h0a.24.24,0,0,0,.25-.26v-.11a1.31,1.31,0,0,0-.35-1.07l-.12-.13a3,3,0,0,0-.53-.46l0,0c.08-.42.14-.78.18-1.07,0,0,.2.12.19,0,.29,0,.63-.07.75-.34a.5.5,0,0,0-.1-.52,1.17,1.17,0,0,0-.66-.42,1.16,1.16,0,0,0-.19-.42l0,0c0-.36.49-.17.63-.17h0a.25.25,0,0,0,.25-.25.76.76,0,0,0-.24-.68,1.87,1.87,0,0,0-.29-.2,1.16,1.16,0,0,1-.24-.18.53.53,0,0,1-.06-.13,1.2,1.2,0,0,0-.13-.25,1,1,0,0,0-.23-.18l-.27-.69s.1,0,.1-.1v-.08a.77.77,0,0,0-.43-.79c-.06,0-.12,0-.18,0a2.2,2.2,0,0,0-.12-.19l-.3-.3c.09-.06.18-.15.14-.26a1.62,1.62,0,0,0-.41-.71s0-.05,0-.08,0,0-.06-.06a1.25,1.25,0,0,0-.18-.49c0-.08-.12-.09-.17-.14s.14-.09.12-.18c-.1-.57-.87-1-1.44-1.23a2.66,2.66,0,0,0-1-.23c-.14-.23-.4-.3-.53-.49-.23-.37-.39-.27-.51-.63s.22-.34.2-.71c-.2,0-.3-.32-.49-.28a4.3,4.3,0,0,0-.6.17c-.24.08-.3.3-.71.36s-.24.13-.51.1c-.58-.08-.63,0-1.12.34s-.39.47-.88.33-.19-.22-.67-.06-.25,0-.48.16c-.4.2-.51.06-.83.38s-.06.45-.31.53-.37.4-.78.4-.48-.43-.72-.43-.55.21-.79.13-.17-.55-.65-.55a3.44,3.44,0,0,0-.9.11c-.39.14-.39.3-.7.55s-.56.2-.79.59,0,.49-.38.73a3.62,3.62,0,0,0-.74.71s0-.06,0-.11a3.2,3.2,0,0,0-.21.4.09.09,0,0,1,.06,0l0,.06c.06,0,.16-.1.15-.08s.05.3,0,.34a2.61,2.61,0,0,0-.47.16h0a.45.45,0,0,0-.12.06.09.09,0,0,0,0,0,3.11,3.11,0,0,0-.85.38h.08a.86.86,0,0,0,0,.16s0,.13.08.24.06.14,0,.15a1.12,1.12,0,0,1,0-.15,2.22,2.22,0,0,1-.16-.4h-.15c-.07,0,.18.68.1.73s-.41,0-.34.1-.17,0-.13,0a1.91,1.91,0,0,0,.47,1.2c0-.11.07-.21.08-.28.15.12.13.19.27.33,0,0-.21.16-.19.12a.87.87,0,0,1-.16-.17c0,.11,0,.21,0,.27s0,.35,0,.53h0a0,0,0,0,1,0,0s0,.06,0,.08a1.12,1.12,0,0,1-.29.21l0,0,0,0s0,0,0,0-.07-.11,0-.11.15-.06.14,0h0a1.37,1.37,0,0,1-.36.05,4,4,0,0,1,0-1c-.08.3-.41.62-.36.93l.07-.09s0,0,0-.06,0,0,0,.06.15.2.17.3-.29.44-.16.44l-.06.06h0a.08.08,0,0,1,.06.08l0,0a1,1,0,0,1,0,.11s0-.06,0-.11-.41.09-.35.13,0-.1,0-.09-.32.19-.44.17-.5,0-.51.18a.89.89,0,0,0,.42.59c.05,0,.13-.41.18-.41s.41.9.13,1.13l-.07-.11c0,.13-.05.34-.14.41a5.83,5.83,0,0,1-.73.06s.08,0,.12-.12a.54.54,0,0,0-.23,0,1.23,1.23,0,0,0-.55.52c-.1-.19.23-.38.22-.61s-.49-.49-.63-.49v.37c-.14,0-.26,0-.26.13a2.16,2.16,0,0,0,.15.45c-.17-.28-.44-.53-.61-.85,0-.1,0,.21-.16.24s-.11-.23-.12-.24,0-.3,0-.3l-.09,0,0,.42c-.12,0-.34-.32-.38-.21a1.73,1.73,0,0,0-.08.73l.18.14a.39.39,0,0,1,.11.15s-.27.12-.25.13a2.85,2.85,0,0,1,0-.42c-.27-.18-.67-.41-.65-.68s.29-.23.16-.23,0-.22,0-.22,0,.26-.09.29-.13,0-.22,0-.24-.23-.29-.11.33.33.32.37-.44-.12-.49-.07a1.11,1.11,0,0,1,0-.13,1.42,1.42,0,0,1,0,.19v0c.09,0,.17,0,.19.07a.59.59,0,0,1-.24,0c0,.14,0,.29,0,.26a.6.6,0,0,1-.06-.25.58.58,0,0,0-.21,0s.22.37.2.41c-.3.19-.26.29-.57.46-.11.06-.26.09-.39.15s0-.65,0-.69-.2.13-.22.1-.09-.12-.17-.12.17,0,.14,0a2,2,0,0,1,0-.43c0-.14-.37-.56-.52-.56v.3c-.14,0,.09.1.09.24s-.36,0-.36.07-.11,0-.13,0,0,.43-.13.39c-.33-.33-.29-.31-.56-.61.13-.18.08.2.42.31.14,0,.42-.37.46-.51s-.15,0-.29,0,.16-.3,0-.31c.15-.11,0-.48.11-.73s.58-.72.51-.76-.29.17-.36.29-.58.22-.79.41-.32.56-.56.72c-.15,0,.25-.41.17-.53a.61.61,0,0,0-.19-.2s-.18.12-.15.11.11.22.14.27c0-.12-.41-.1-.41-.23a.08.08,0,0,0,0-.08c-.21,0-.53,0-.63.07a3.39,3.39,0,0,1,.57-.8,1.37,1.37,0,0,0,0,.18,1.52,1.52,0,0,1,.32-.11s0,.2,0,.2.4-.18.4-.32a.4.4,0,0,0-.1-.23s-.17.06-.18,0-.06,0-.2,0a2.13,2.13,0,0,1-.83-.25l-.15.1c-.11.07,0,0-.09-.09l-.17,0a2.79,2.79,0,0,0-.69.55c.06.21.1.4,0,.42a1.69,1.69,0,0,1-.13-.36l-.12.09c-.12.06-.35.34-.47.4.09-.12.16-.56.27-.68l.26.06a.53.53,0,0,1,.06.13l.09-.06c-.06-.2-.14-.4-.16-.47a1.81,1.81,0,0,1,.85-.08h0a.56.56,0,0,1,.4,0c.09-.06.17-.13.12-.21-.25-.37-.85,0-1.25.14a.4.4,0,0,1,0-.15c0-.09.21-.37.35-.38s.09.32.15.31.18-.58,0-.75c-.27,0-1.07.88-1,1-.35.07-.66.21-.41,0s-.06-.28-.15-.38-.34-.41-.45-.31,0,.55-.06.56-.08-.57-.08-.6.3,0,.36-.06.12,0,0-.12,0-.11-.14,0-.6.06-.85.22-.47.14-.7.29c-.12-.06,0-.19,0-.66,0,0-.18.08-.23.11s.08-.14,0-.21,0,0-.15.06l0,0c.07-.07-.67-.6-.7-.59h0a1.23,1.23,0,0,0-1,0c-.2-.1-.29.1-.49,0,0,0,.09.11.13.17l0,0s0,0,0,0-.21-.37-.3-.42a.14.14,0,0,1,0,.06s0,0,0,0l0,0s0-.11,0-.08,0,0,0,0a.13.13,0,0,0,0-.12c-.07-.13-.24,0-.36.12a1.83,1.83,0,0,1-.24.13s-.14-.41-.15-.41c.21-.1.7-.15.6-.44s-.33-.17-.5-.11-.32.07-.32.18l-.14.07s0,0,0,0a.77.77,0,0,0,0,.15l0-.18s0,0,.05,0c.06-.27.26-.5.35-.77s-.3-.27-.43-.32-.18,0-.22.09a2.26,2.26,0,0,0-.16.48c0-.11-.13-.18-.11-.32s.09-.43,0-.45-.06.25-.07.25.1.08.08.21a2.38,2.38,0,0,1-1,.85s.6-1,.58-1.38c0-.15-.34-.38-.46-.36s-.12.18-.15.19c0-.18.14-.37.14-.54s-.14,0-.28,0v-.08a1.7,1.7,0,0,0-.39,0s-.06.09-.06.07,0-.06.06-.07.06-.07.06-.06a.66.66,0,0,0-.35.4l0,0c0-.14.06-.25.06-.39s.41,0,.33,0a1.18,1.18,0,0,0-.19-1.31c-.1-.08-.28.1-.38.22h.06s-.29.22-.26.23.09-.09.14-.16l.06-.07c-.1,0-.3.11-.3.08s-.05-.15,0-.19c.14-.29.72-.5.68-.83a1.18,1.18,0,0,0-.59-.49s0,.59,0,.59-.09-.16-.14-.24l0,0s0,0,0,0,.05.05,0,.05c0-.33,0-.66,0-1s.22-.19.22-.38a1.13,1.13,0,0,0-.57-.57s-.06.06-.1.12.2.19.21.3-.34-.07-.34-.06a2.2,2.2,0,0,0,.13-.24c-.12-.11-.23-.22-.19-.34.1-.3.56-.57.51-.89s-.63-.5-.73-.79c0-.08.22-.16.15-.19s0-.27,0-.42c0,.11-.26.07-.38.21,0-.31-.52-.47-.52-.67,0,0,.54-.08.57,0a1.46,1.46,0,0,1,.34.5c0-.16.34-.33.26-.47s-.16-.32-.1-.32.2.4.29.4-.12-.13-.13-.27.07-.07.12-.05V35c-.09,0,.07-.2,0-.2s-.14-.2-.23-.26-.05-.19-.18-.27-.22,0-.36,0a.28.28,0,0,1-.18.1s-.07-.07-.09-.08a.33.33,0,0,0,.27,0,.29.29,0,0,0,.11-.14c.06-.13.08-.61,0-.67s-.61.15-.73.05c.08-.17.33-.73.41-.93.34.23.72,1,1.1,1,.13,0-.08-.34-.09-.49s.45,0,.45,0,0-.08,0-.11a.88.88,0,0,1,.17-.26.65.65,0,0,1-.3,0s0-.35,0-.48a4.52,4.52,0,0,0-.53.06c0,.14-.08.29,0,.36s-.13-.25-.13-.27.07-.07.15-.09a.88.88,0,0,0,.07-.3s-.3,0-.32,0,0-.32,0-.33.31,0,.42,0a7.79,7.79,0,0,0,.51.63h-.16s.1.1.1.15.27.06.27.1a.49.49,0,0,1-.1.21,1.11,1.11,0,0,1,.27-.06c.21,0,.38-.25.39-.46s-.37-.28-.52-.42c.09-.08.41-.2.52-.31s0,0,0,0,.08-.14.11-.14.2-.18.23-.16-.09.72-.05.71.21-.1.38-.15c0,0-.15-.5-.14-.52s.25.13.35.12-.11.12-.07.19.14.27.23.27-.06-.42,0-.44c.22-.11.7.13.82-.12.19,0,.28-.09.47-.11s.26-.12.33-.29-.42-.26-.55-.34c.06-.22.48-.63.42-.73-.2-.34-.95-.52-1.35-.56-.15-.1-.3.09-.45,0,.13,0,.12-.11.11-.25s0-.14-.18-.14v.07a3.84,3.84,0,0,1-1.17-.21c-.21-.15-.18,0-.4-.07s-.5-.58-.46-.89l.2,0c.06-.15.19-.62.23-.68s.27.29.36.31.1-.1.17-.08,0,0,0,0,.55.16.58,0-.39-.29-.53-.33-.09.06-.17,0,0-.13,0-.14c.14-.21.3-.4.46-.6s.38-.21.54-.39c.17,0,.25-.15.45-.15s.43-.14.54-.45a.75.75,0,0,0-.13-.11v.06a3.56,3.56,0,0,1-.87.11c.12-.12.72-.06.83-.21l0,0c0-.08,0-.11.08-.07s.1.05,0,.18h0a.17.17,0,0,0,.13.1s.08-.63.09-.63l.12,0a.53.53,0,0,1-.08-.15h0c-.07,0-.09-.16-.12-.26s-.05-.07-.07-.08,0,0,0,0,0,0,.07.09l.14.26a1.72,1.72,0,0,1,.39.1.72.72,0,0,1,.24-.25.23.23,0,0,0,.11-.29,2.88,2.88,0,0,0,.9.08c.14,0,.11-.08.11-.22a1.73,1.73,0,0,0,0-.45c-.39.12-.73.28-.94.31,0,0-.11-.28-.12-.28.27.13.6-.12,1-.12,0,0,.06,0,.08.09l0,0c.17.07.25-.31.44-.31s.35.47.44.45a1,1,0,0,0,.26-.27.7.7,0,0,0,0-.31.68.68,0,0,1-.23,0l.21-.09s0,.08,0,.14c.3,0,.61-.16.9-.16s.48.64.67.61.32-.37.34-.47-.2-.39-.19-.42a3.84,3.84,0,0,1-.69.28,4.21,4.21,0,0,0,.29-.51c-.15-.29-.62-.47-.53-.69a2.31,2.31,0,0,0,.57.34c.14.1.33.39.47.49l0,0h0a2.52,2.52,0,0,0,.7.1c.07,0,.13,0,.2,0s.13.2.2.2.24-.45.3-.46.54.67,1,.63.52-.25,1-.36c-.29,0-.56-.35-.84-.38,0,0,0,0,0,0h0c0,.05.11.16,0,.14s-.13.06-.06,0a.22.22,0,0,0,0-.1s0,0,0,0,0-.18,0-.17.17-.12.25-.12.21-.18.35-.26.34.22.46.22.18-.1.26-.17l-.08-.1c-.06.08-.11.13-.16.13a2,2,0,0,1-.08-.43.22.22,0,0,0-.16-.1c-.06,0-.19.16-.24.2s0,.14,0,.16-.13-.15-.21-.21h0s0,0,0,0h0s0,0,0,0c.19,0,.38-.33.57-.33a1.38,1.38,0,0,1,0,.28,1.76,1.76,0,0,1,.24.3,1.55,1.55,0,0,0,.21-.35.53.53,0,0,1-.25.05s.29-.29.3-.22a.51.51,0,0,1,0,.17,1.36,1.36,0,0,1,.42-.09c.07,0,.16.2.23.2s0-.43,0-.57,0,0,0,0h0l-.78,0c-.26,0-.49-.25-.74-.32a.25.25,0,0,1-.08.12s0,.07,0,.06,0,0,0-.06,0-.14.07-.12h0c.06-.19,0-.45.23-.5,0,0,.12.14.15.15.46.24.77.61,1.22.62v-.54s0,0,0,0h0l-.06,0s-.13.2-.16.19-.06-.25-.16-.31-.19-.12-.26-.16,0,0,0,0,0,0,0,0,.45-.07.62-.07,0,.23,0,.39a4.12,4.12,0,0,0,.58.38,4.06,4.06,0,0,0,.79.1,3.75,3.75,0,0,0,0-.38h0c-.19,0-.28-.22-.38-.43a1.49,1.49,0,0,1-.43-.05,3.76,3.76,0,0,1-.09-.58s-.06-.06,0-.06,0,0,0,.06a.79.79,0,0,1,.17.14.92.92,0,0,1,.35.49h.41l.34,0c.15,0,.28-.24.44-.23V20c.14,0,.07-.18.07-.32a3.07,3.07,0,0,0,0-.34h-.07s0,0,0,0h0l0,0c-.12,0-.33,0-.4.07.08,0,.27-.2.36-.19s.06,0,.07.08,0-.06,0,0a.12.12,0,0,1,0,0s0,0,0,.06c.23,0,.47-.21.76-.19,0,0,0,.42,0,.42s.34-.45.36-.58,0,0,0-.05a5,5,0,0,1-1.18-.38s.14-.33.14-.29c.26.07.38.45.72.48.13,0,.29.08.32.19h.05v-.09c.06,0,0-.4.07-.43s.12.3.16.3.14-.18.21-.19.08.18.12.14,0,0,.07,0,.14-.47.17-.47.26.08.31,0c.2.2.1.87.32,1a1.27,1.27,0,0,0,.34,0c.08,0,.1-.34.15-.41s0-.13.06-.15.21-.06.25,0,0,.25,0,.28a.19.19,0,0,0,.1,0c.09,0-.1-.16,0-.25s.22,0,.09-.07,0-.12,0-.19a.26.26,0,0,1-.12,0s0,0,0-.05l-.12,0s0,0,0,0-.24-.11-.34-.13a1,1,0,0,0,.36.09s0-.1.06-.1.06.07.06.13a.58.58,0,0,1,.14,0s0,0,0,.07c.24.08.61,0,1,.05s.6,0,.82.1.39.49.59.56c0,0,0,.05.06.05s.26,0,.29-.14-.15-.06-.29-.1-.18-.32-.3-.36c.08,0-.11-.1-.11-.2s.23-.24.1-.24-.33,0-.52,0c.26-.07.3-.51.49-.6s.58.07.92-.13c.07.32.42.39.69.64.11.26-.11.8.14.91,0,.16,0,.38.17.53a2.75,2.75,0,0,0,1,.53c.32.09.93-.44,1.26-.41.17.25,0,1,.24,1.25s.68.2.93.36,0,.3.13.39.29-.09.34-.09.25-.17.3-.25-.13-.19-.25-.27,0-.32-.13-.41a1,1,0,0,1-.26-.23.52.52,0,0,1-.34.14c-.08,0,0-.24.11-.43a2.47,2.47,0,0,0-.21-.27c0-.05-.16.24-.21.42a1.25,1.25,0,0,0,0,.14s0-.06,0-.14,0-.53,0-.53,0,.1.05.09l.43.06a.79.79,0,0,1-.09.23,2.09,2.09,0,0,0,.23.29c.17-.11.35-.24.48-.21s.46.48.75.6a3.51,3.51,0,0,0,1,.08c0,.11-.12.72,0,.75a1.13,1.13,0,0,0,.11-.24v0s0-.06.06-.09l-.06.11a.17.17,0,0,0,.2.18c.09,0,.1-.15.19-.14s.16,0,.25,0a1.22,1.22,0,0,0,.45-.1s.1-.2.13-.2c.21,0,.52.51.7.41,0,0,0-.08,0-.15h0s0-.08,0-.16,0-.14,0-.16,0,.08,0,.16,0,.12,0,.17c.22.19.8,0,1,.25s0,.78.21,1,.67.28.82.37a5.85,5.85,0,0,0,.74.32,1.76,1.76,0,0,1,.75.54c.13.19,0,.57,0,.92s.58.51.66.8-.42.83-.32,1.09c.19.52.91.31.9.77,0,.71-.17.49.15,1.24.08.19-.06.59,0,.92s0,.58.06.86.11.52.16.77a1.8,1.8,0,0,1,.16-.58c.1-.64.28-1.33.28-1.51s-.11-2.57.32-3.1a4.74,4.74,0,0,0,.68-2.28.62.62,0,0,0,.55-.55c.12-1.52,0-3.69-2.13-5a7,7,0,0,0-1.43-.62.58.58,0,0,0,.48-.33,2.69,2.69,0,0,0-.67-3.18c-.11-.09-.26-.09-.38-.16a1.75,1.75,0,0,0-.72-2.11,2.87,2.87,0,0,0-1.73-.23,5.33,5.33,0,0,0-.46-.32c.06-.08.14-.14.15-.24s0-.48.06-.74a.66.66,0,0,0,.51.18.64.64,0,0,0,.55-.72c-.21-1.44-.46-3.23-2.08-4.15a4.33,4.33,0,0,0-4.31.12A2.57,2.57,0,0,0,128,8.43l0,.17a3.36,3.36,0,0,1,0,.51l-.06.05a.73.73,0,0,0-.38.31s0,0,0,0a6.19,6.19,0,0,1-.65-.16A4.33,4.33,0,0,0,125.21,7a5.32,5.32,0,0,0-.48-1.64,5.26,5.26,0,0,0-3.45-2.45c-.16,0-.32,0-.48-.05a3.09,3.09,0,0,0-.42-.83c-1-1.33-2.8-1.4-3.89-1.45A19.85,19.85,0,0,0,112,.72a2.19,2.19,0,0,0-1.7,1.16,4.79,4.79,0,0,0-2,.51,39.31,39.31,0,0,0-3.42,2.08,8.92,8.92,0,0,1-1.47,0c-.27,0-.55-.09-.82-.15a8,8,0,0,0-1.49-.21c-.12,0-.22.07-.34.08a3,3,0,0,0-.59-.53,2.67,2.67,0,0,0-2.61-.15c-1,.56.19,1.37.64,1.12a1.2,1.2,0,0,1,1,0,3.9,3.9,0,0,0-1.21,1,4.54,4.54,0,0,0-.83,2.57l-.06.06a10.67,10.67,0,0,1-1-.45,5,5,0,0,0-3-1A5.45,5.45,0,0,0,89,8.92a2.9,2.9,0,0,0-.29,2.27,4.71,4.71,0,0,0-.86.32c-1.26-.15-2.66-.22-3.52.42s-.77,1.54-.16,3c0,.11.17.11.26.18a3.1,3.1,0,0,0-1.84-.35,1.81,1.81,0,0,0-1.22.91,1.79,1.79,0,0,0-.13,1.71,2.18,2.18,0,0,0,1.4,1,3,3,0,0,0-.35.67,3.16,3.16,0,0,0,0,.61A2.93,2.93,0,0,0,82,22.35l.05.22s-.1-.07-.13-.12A3.49,3.49,0,0,1,81.7,21a.64.64,0,0,0-.63-.65.69.69,0,0,0-.65.63A4.49,4.49,0,0,0,80.73,23a2,2,0,0,0,.31.4l-.23-.21-.39-.33a.65.65,0,0,0-.64-.63h0a.65.65,0,0,0-.62.66A1.89,1.89,0,0,0,80,24.19l.27.25.16.12,0,.05-.12.1h0l-.59-.16-.41-.1c-.95-.26-2.27-.62-3.26.42a.64.64,0,0,0,.92.88c.44-.45,1-.33,2-.07l.17,0a1.7,1.7,0,0,0-.52.87h-.24c-.76,0-2.36,0-2.45,1.57A1.69,1.69,0,0,0,77.22,30a5.45,5.45,0,0,0-.5.61c-1.67-.65-3.21-1-4.1-.43a1.65,1.65,0,0,0-.73,1.57,3.79,3.79,0,0,0,.39,1.49,2.19,2.19,0,0,0-.26.83l0,.24a2.28,2.28,0,0,0,.26,1.71,2.9,2.9,0,0,0-.43.41,2.1,2.1,0,0,0-.22.67,3.82,3.82,0,0,0-.64.31c-2,1.33-1.3,3.72-.69,5.38a2.17,2.17,0,0,0,.16.78,3.37,3.37,0,0,0-1,.79A3.27,3.27,0,0,0,68.79,47c.18,1,1.36.34,1.26-.24a2,2,0,0,1,.45-1.55,2.11,2.11,0,0,1,.57-.48.57.57,0,0,0,.08.13,5.38,5.38,0,0,0-.22,2.27,4.54,4.54,0,0,0,1.72,3.18,6.47,6.47,0,0,0,2.62,1.07c0,.22,0,.42,0,.63a6,6,0,0,0-3.36.63,2.13,2.13,0,0,0-.84,2.87c.13.32.29.64.43,1s.32.65.46,1a16.08,16.08,0,0,0-.47,1.93c5.24,0,16.53.34,22.69,4,3.46,2.08,9.54,5.9,9.8,6.16a8.29,8.29,0,0,0,1.39.78,9.28,9.28,0,0,0-1-1.74,7.17,7.17,0,0,0-1.39-1c-.6-.26-.44-2.45-1.08-2.88s-1.81-1.39-1.93-1.92l-.11-.54-.85-1-.43-.32s.86-.53.11-1.07a2.35,2.35,0,0,0-1.17-.53l-.22-.75s.43-.85,0-.85a11.62,11.62,0,0,0-1.17.1L96,56.22l-1.81-1.07L94,54.3s1-.75,0-1.28a14.47,14.47,0,0,1-1.39-.86s.86-1.17.32-1.49a4.57,4.57,0,0,1-2.35-3.53,7.75,7.75,0,0,1,.64-4.59c0-.32,1.92-1.92,1.92-1.92s1.61-.11,1.93-.11h1.6a11,11,0,0,1,1.71.54l1.07,1.06,1.39.64a21.75,21.75,0,0,0,2.56,2.89c.86.64,1.29,2,1.82,2.56a9.11,9.11,0,0,1,1.17,2.24s.32,4,1.39,5.24S109,58.14,110,59a31.2,31.2,0,0,1,2.57,2.35,7.51,7.51,0,0,0,2.67,2.35c1.71,1,3.73,1.18,4.59,1.92s6.2,1.92,8.65,1.92,3.85.11,4.7.65a7.31,7.31,0,0,0,3.53,1.06,24.5,24.5,0,0,0,4.06-.1,11,11,0,0,0,3.2-1.93,6.76,6.76,0,0,0,1.71-2.67c.32-1.07,1.28-4.16,1.28-4.16A3,3,0,0,0,146.5,58.84Zm-40-28.7s.07.22.11.36c0-.07.57-.23.55-.29s.05-.14.06-.12a1.26,1.26,0,0,1,0,.38s-.54,0-.57,0l0,.14-.6-.09S106.46,30.16,106.47,30.14Zm-.64.44s.15.53.16.53-.16.14-.18.14S105.81,30.59,105.83,30.58Zm24-11.47-.12-.13s-.51-.08-.5-.1l.48.06S129.8,19.09,129.8,19.11Zm-1.71-.51s.07-.39.14-.41l.34.34a.85.85,0,0,0,0,.22,1.5,1.5,0,0,0,.16-.14l.47.18c0,.13-.59.3-.54.41s0,.15-.1.12.23-.38.24-.44a.33.33,0,0,0-.22,0s0,0,0,.06l0-.05h-.09a.12.12,0,0,1,.05-.06,2.22,2.22,0,0,0-.17-.21c0-.05-.43.36-.47.31S128.09,18.62,128.09,18.6ZM126.55,18l-.54-.1s.61,0,.62,0S126.56,18,126.55,18Zm-.4-1a.66.66,0,0,1,.2-.21c.08-.15.15-.28.24-.32a1.61,1.61,0,0,0,.19.72s-.1.49-.09.51-.54-.3-.58-.21a2.2,2.2,0,0,1,.18-.39c.08-.11.34-.25.23-.33s-.11,0-.17,0a1.32,1.32,0,0,1-.32.46c0,.06-.36-.39-.35-.33C125.74,16.88,126.06,17.17,126.15,17.06Zm-19,6.6c.06,0,.3.39.36.42s-.52.26-.59.26S107.15,23.67,107.17,23.66Zm-4.5,10.83c.11.07.46.16.56.22l-.39-.06s-.34.42-.36.42S102.7,34.55,102.67,34.49Zm.08,3.26s0,.39,0,.41-.51.07-.53.05Zm-1.17,1.77a6.76,6.76,0,0,0-.17-.83s.62-.32.65-.35-.51.5-.47.62.55.37.54.56C102.12,39.5,101.59,39.53,101.58,39.52Zm1.25,0a3.91,3.91,0,0,1-.62.14c0-.15-.2-.47-.2-.62s.68-.13.67-.16-.54,0-.55-.06.24-.05.23-.14c.08.08.31,0,.34.09S102.9,39.35,102.83,39.51Zm.58,1.09s-.25.34-.25.36l.38.29c-.1,0-.25.21-.35.26s-.25-.57-.28-.62C103,40.85,103.3,40.63,103.41,40.6Zm.49,1.54-.52,0c-.1-.19-.23-.33-.33-.53.12-.07.63.14.76.08s.18-.16.18-.13A4.34,4.34,0,0,0,103.9,42.14Zm1.19,2.47c-.1-.07-.47-.5-.53-.55s.54-.23.6-.27S105.08,44.53,105.09,44.61Zm5.09,2c.15-.1,0-.68.15-.75,0,0,.28.43.27.44a2.66,2.66,0,0,1-.31.26,2.43,2.43,0,0,1-.2.25S110.21,46.65,110.18,46.64Zm.09.1s.44-.35.45-.37.06.55.06.57Zm1.57,1.53c-.14-.24-.35-.26-.41-.53.14-.11.35-.19.48-.3-.09.19.36.28.4.56a1,1,0,0,0,.07.15Zm1,.61c0-.08-.44-.53-.47-.61s.57.32.64.28.14-.1.13-.07A2.78,2.78,0,0,0,112.84,48.88Zm4.07,2.38s.36-.42.37-.45c.17,0,.22.45.21.5Zm5.37.71a.74.74,0,0,1-.36-.06c0-.09-.21-.3-.23-.34s.18-.51.12-.56h0s-.23.39-.24.39a2.76,2.76,0,0,1-.06-.71,1.52,1.52,0,0,0,.3.32h0a5,5,0,0,1,.57.56S122.29,52,122.28,52Zm4-5.82a7.45,7.45,0,0,1-.15-.77,2.64,2.64,0,0,1,0-.28s.49.44.51.42.35-.27.47-.33A11.8,11.8,0,0,1,126.25,46.15Z"/><path class="cls-5" d="M124.08,50a.66.66,0,0,0,.26-.07c-.11-.19-.21-.35-.42-.24a1.19,1.19,0,0,0-.08.16s.06-.08.09-.08S124,49.88,124.08,50Z"/><path class="cls-5" d="M111.5,22.67l.16,0h0l0,0Z"/><path class="cls-5" d="M125.31,46.27v-.13C125.24,46.14,125.27,46.2,125.31,46.27Z"/><path class="cls-5" d="M125.37,46.37s0,0,0,0S125.41,46.36,125.37,46.37Z"/><path class="cls-5" d="M107.19,24.92c.13,0,.25.07.25,0s0-.08-.12-.11A.42.42,0,0,1,107.19,24.92Z"/><path class="cls-5" d="M104.21,32.26a.2.2,0,0,1,0,.05h0Z"/><path class="cls-5" d="M107.12,25a.13.13,0,0,0,.07,0l-.18-.06C107,24.92,107.08,25,107.12,25Z"/><path class="cls-5" d="M125.75,47.21c0-.05,0-.09,0-.1A.23.23,0,0,0,125.75,47.21Z"/><path class="cls-5" d="M115.89,48.2l-.08,0v.06C115.9,48.23,116,48.22,115.89,48.2Z"/><path class="cls-5" d="M125.91,47.59l-.18.12Z"/><path class="cls-5" d="M104.88,28.48c.14,0,.38-.36.38-.51s-.23-.08-.37-.08h-.43a3.65,3.65,0,0,0,.42.05S104.88,28.48,104.88,28.48Z"/><path class="cls-5" d="M119.39,49.22c-.16.21-.13.31-.06.58,0,0,.08.07.16.1a2,2,0,0,1,.08-.31A1.3,1.3,0,0,0,119.39,49.22Z"/><path class="cls-5" d="M127.45,43.3s0-.08,0-.08S127.46,43.26,127.45,43.3Z"/><path class="cls-5" d="M111.72,22.8a.16.16,0,0,0,0-.08l-.13.05C111.67,22.76,111.75,22.92,111.72,22.8Z"/><path class="cls-5" d="M118,20.45c0-.08,0,0,0,0S118,20.53,118,20.45Z"/><path class="cls-5" d="M115.94,22c.14.05.26.09.25,0S116.07,22,115.94,22Z"/><path class="cls-5" d="M128.87,49.2a2,2,0,0,1,.61-.84,11.48,11.48,0,0,0,1.31-2.16l.6.12.6-.25a2.31,2.31,0,0,0,.6-.59l.24-.36.73.12.72-.24,1.07-.12,1-.24s-.12.24.48.36-.36.24.61.12a6.43,6.43,0,0,1,1.68,0l.95.36.73.24.72.6.36.6.48.84-.24.6L142,49l.48.72v.6l-.36.48a4.64,4.64,0,0,1-.12,1.08c-.12.36-1.33-1.44-1.33-1.44a1.05,1.05,0,0,0-1,.72s.13.84-.23.84h-.36l-.48.84-.36.72-.72-1-.6.6s-.25-1.2-.49-.72l-.24.48-.72.12s.24-1.2-.12-.6-.71,1.08-.71,1.08l-.73-.36-.84-.36-.24-.6s0-1.2-.48-1l-1.2.6-.6.12-.47-.84-.36-.48-.61-.36-.48-.48Z"/><path class="cls-5" d="M104.23,52.49a8.7,8.7,0,0,1-2.16.66c-.4-.08-5,.08-6.17-.24A11.51,11.51,0,0,1,92.54,51a7.68,7.68,0,0,1-2.33-3.77"/><path class="cls-5" d="M100.85,48.37c0-.24,1-.56,1.2-.56a3.24,3.24,0,0,1,.8.24s-1-.88-1.6-.88a.72.72,0,0,1-.72-.64A2.18,2.18,0,0,1,99,45.17c-.24-.57-.24-1.21-.64-1.53s-.56-.72-1.44-.72a4.35,4.35,0,0,0-2.48.24,5.14,5.14,0,0,0-1.85,2.09"/><path class="cls-5" d="M125.91,27.55a5.81,5.81,0,0,0,.51,1.79,2.54,2.54,0,0,1-.85.42c-.26,0-4.42-.34-5-.34a8,8,0,0,1-2-.68"/><path class="cls-5" d="M139,29.65l.15.38s.37.18-.28.3-1.64.16-1.9.21-1.09-.41-1.44-.5"/><path class="cls-6" d="M134.49,37.39c-.26-.57,1.69-1.61,1.92-1.68.62-.19,2.21.71-.24,1.2-.4.08-1,.24-1,.24S134.81,38.11,134.49,37.39Z"/><path class="cls-5" d="M72.86,52.21l.19-.05Z"/><path class="cls-6" d="M116.29,24.42c-1.52,1.65,0,.25.48.21a8.17,8.17,0,0,0,1.75-.78,7.18,7.18,0,0,1,3.34-.3c1.31.36.63-.06.63-.06h1.6l.81.09,1,.55a13.75,13.75,0,0,0,2.9,0c.46-.21-.07-.59-.07-.59l-.82-.69L126.35,22a11.36,11.36,0,0,0-2.32-.54c-1-.07-3.39.87-4.35,1A5.8,5.8,0,0,0,116.29,24.42Z"/><path class="cls-6" d="M133.6,24.68l.79.14h1.17a6.88,6.88,0,0,1,.93.15,7.82,7.82,0,0,1,1,.39s.35.44.49.49.2,0,.2,0L138,25l-.29-.44-.69-.34c-.19-.1-1-.49-1.22-.59a9.31,9.31,0,0,0-1.76-.34,1.13,1.13,0,0,0-.64.24l-.15.74C133.16,24.48,133.6,24.68,133.6,24.68Z"/><path class="cls-5" d="M132.53,46.07s1.73-.42,2.31-.5,2.55-.08,2.55-.08l-1.49.66a15.16,15.16,0,0,1-2.55.41C132.86,46.64,131.46,46.23,132.53,46.07Z"/><path class="cls-3" d="M48.78,151.12c1.3-.71,3.77-5.4,4-6.13S55,140.3,55,140.3l2-3"/><path class="cls-3" d="M55.23,153.84c1.26-2,2.74-3.43,3-4.42s1.23-3.69,1.23-3.69l2.22-5.18,1.23-2.47"/><path class="cls-3" d="M66,150.84a50.31,50.31,0,0,1,2.13-7.58c.74-2,3.94-5.92,3.94-5.92"/><path class="cls-2" d="M69.79,88.16S73,90.26,83.12,90.5"/></g></g></svg>