<?xml version="1.0" encoding="utf-8"?>
<!-- Generator: Adobe Illustrator 25.2.0, SVG Export Plug-In . SVG Version: 6.00 Build 0)  -->
<svg version="1.1" id="Layer_1" xmlns="http://www.w3.org/2000/svg" xmlns:xlink="http://www.w3.org/1999/xlink" x="0px" y="0px"
	 viewBox="0 0 600 600" style="enable-background:new 0 0 600 600;" xml:space="preserve">
<style type="text/css">
	*{vector-effect:non-scaling-stroke}
	.st0{fill:none;stroke:#231F20;stroke-miterlimit:10;}
	.st1{fill:#FFFFFF;stroke:#231F20;stroke-miterlimit:10;}
	.st2{fill:#FFFFFF;stroke:#231F20;stroke-linecap:round;stroke-miterlimit:10;}
	.st3{fill:#FFFFFF;}
	.st4{fill:#FFFFFF;stroke:#231F20;stroke-linecap:round;stroke-linejoin:round;}
	.st5{fill:#231F20;}
</style>
<g id="Layer_2_1_">
	<g id="Layer_1-2">
		<path class="st0" d="M284,94.6c-130.3,0-194.9,38.4-190.4,75.7c0,0,24.6,282.4,29.2,316.1c6.9,51.1,79.8,86.6,161.2,86.6
			s154.3-35.5,161.3-86.6c4.5-33.7,29.2-316.1,29.2-316.1C479,133,414.4,94.6,284,94.6z"/>
		<path class="st1" d="M456,160c0,31.8-77,57.7-172,57.7s-172-25.8-172-57.7"/>
		<path class="st2" d="M456,163.4c0,31.9-77,57.7-172,57.7s-172-25.8-172-57.7"/>
		<path class="st3" d="M284,221.1c61.6,0,115.7-10.9,146-27.2c-22.2-21.8-79.2-37.4-146-37.4s-123.8,15.6-146,37.4
			C168.4,210.2,222.4,221.1,284,221.1z"/>
		<path class="st0" d="M284,221.1c61.6,0,115.7-10.9,146-27.2c-22.2-21.8-79.2-37.4-146-37.4s-123.8,15.6-146,37.4
			C168.4,210.2,222.4,221.1,284,221.1z"/>
		<path class="st0" d="M530.5,188.4c-14.3-21.5-39.1-30-56.4-27.4c0.6,3.1,0.7,6.2,0.3,9.3l-3.4,38.9c20.3-17,25.7-14.4,24.7,4.2
			c-3.6,67.6-23.3,105.6-36,123.3c-3.1,34.2-6.2,67.9-8.8,95c14.6-14.5,42.3-46.3,64.9-97.5C548.1,261,546.3,212.2,530.5,188.4z"/>
		<path class="st4" d="M499.7,157.9c-1.8-2.1-9.2-10.6-10.7-12.2c-1.5-1.6-7.6-8.8-8.2-9.3c-0.6-0.5-1.5-3.2-2.2-3.9
			c-1.4-1.4-3-2.7-4.5-3.9c-2-1.7-8-7.9-9.5-9.4c-1.6-1.5-7-10.6-9.5-13S438,100,434,97.9S400.6,81.2,391.3,79
			c-9.3-2.2-26.5-4.9-33.5-4.4c-6.9,0.5-12.3,3.9-18.7,3.9c-8.7,0-23.4,2.6-29.9,4.4c-6.5,1.8-26.9,16.6-26.9,16.6s-17.2,5.1-21,8.4
			c-0.8-2.8-1.7-1.9-1.7-1.9l-0.3-0.9l0,0c0.1,0,0.2,0,0.3-0.1c0.1-0.1,0.1-0.4,0-0.5c0,0,0,0,0,0c-0.3-0.2-0.5-0.6-0.6-1
			c0-0.1,0-0.1,0-0.2c0-0.2,0.1-0.4,0.1-0.5l0,0c0.3,0.2,0.5,0.6,0.5,0.9c0,0.2,0.2,0.3,0.4,0.3l0,0c0.2,0,0.3-0.2,0.3-0.4
			c0,0,0,0,0,0c-0.2-0.8-0.6-1.5-1-2.1c0-0.1,0-0.2,0-0.3c0.1,0.1,0.2,0.3,0.3,0.4c0,0-0.2-1.1-0.2-1.1s0-0.4,0.1-0.6l0,0
			c0.1,0.1,0.2,0.2,0.3,0.4c0,0.1,0.2,0.2,0.2,0.3c0,0.2,0.1,0.4,0.3,0.4l0,0c0.2,0,0.3-0.1,0.3-0.3c0-0.5-0.2-1.1-0.7-1.4
			c-0.2-0.3-0.3-0.6-0.3-1c0.2,0.1,0.3,0.3,0.4,0.4l0.2,0.2c0.3,0.3,0.3,0.5,0.3,1v0.2c0,0.2,0.2,0.3,0.4,0.3l0,0
			c0.2,0,0.3-0.1,0.3-0.3c0,0,0,0,0,0V100c0.1-0.5-0.1-1.1-0.5-1.5l-0.2-0.2c-0.2-0.2-0.5-0.5-0.7-0.6l0,0c0.1-0.6,0.2-1.1,0.3-1.5
			c0,0,0.3,0.2,0.3,0c0.4,0,0.9-0.1,1-0.5c0.1-0.2,0-0.5-0.1-0.7c-0.2-0.3-0.6-0.5-0.9-0.6c0-0.2-0.1-0.4-0.3-0.6l0,0
			c0-0.5,0.7-0.2,0.9-0.2l0,0c0.2,0,0.3-0.2,0.3-0.3c0.1-0.4-0.1-0.7-0.3-0.9c-0.1-0.1-0.3-0.2-0.4-0.3c-0.1-0.1-0.2-0.2-0.3-0.3
			c0-0.1-0.1-0.1-0.1-0.2c0-0.1-0.1-0.2-0.2-0.3c-0.1-0.1-0.2-0.2-0.3-0.3l-0.4-1c0,0,0.1,0,0.1-0.1v-0.1c0.1-0.5-0.2-0.9-0.6-1.1
			c-0.1,0-0.2,0-0.3,0c-0.1-0.1-0.1-0.2-0.2-0.3l-0.4-0.4c0.1-0.1,0.3-0.2,0.2-0.4c-0.1-0.4-0.3-0.7-0.6-1c0,0,0-0.1,0-0.1
			c0,0,0,0-0.1-0.1c0-0.2-0.1-0.5-0.3-0.7c0-0.1-0.2-0.1-0.2-0.2c-0.1-0.1,0.2-0.1,0.2-0.3c-0.1-0.8-1.2-1.4-2-1.7
			c-0.4-0.2-0.9-0.3-1.4-0.3c-0.6-0.9-1.1-1.8-1.1-1.8s-0.2-4.8-0.2-6.3c0-1.6-0.4-3.2-1.1-4.6c-0.6-0.6,0.3-3.3,0.3-3.7
			c0-0.4-0.2-3.6,0.4-4.3c0.6-1,0.9-2,0.9-3.2c0.4,0,0.7-0.4,0.8-0.8c0.2-2.1,0-5.1-3-6.9c-0.6-0.4-1.3-0.6-2-0.9
			c0.3,0,0.5-0.2,0.7-0.5c0.7-1.5,0.3-3.3-0.9-4.4c-0.2-0.1-0.4-0.1-0.5-0.2c0.4-1.1,0-2.3-1-2.9c-0.7-0.4-1.6-0.5-2.4-0.3
			c-0.2-0.2-0.4-0.3-0.6-0.4c0.1-0.1,0.2-0.2,0.2-0.3c0-0.1,0-0.7,0.1-1c0.2,0.2,0.4,0.3,0.7,0.3c0.5-0.1,0.8-0.5,0.8-1c0,0,0,0,0,0
			c-0.3-2-0.6-4.5-2.9-5.8c-1.9-1-4.2-0.9-6,0.2c-1.2,0.8-1.8,2.2-1.5,3.6v0.2c0,0.2,0,0.5,0,0.7l-0.1,0.1c-0.2,0.1-0.4,0.2-0.5,0.4
			l0,0c-0.3-0.1-0.6-0.1-0.9-0.2c-0.4-1.3-1.2-2.4-2.4-3.2c-0.1-0.8-0.3-1.6-0.7-2.3c-1.1-1.8-2.8-3-4.8-3.4c-0.2,0-0.4,0-0.7-0.1
			c-0.1-0.4-0.3-0.8-0.6-1.2c-1.4-1.8-3.9-1.9-5.4-2c-2.1-0.2-4.2-0.1-6.2,0.2c-1,0.1-1.9,0.7-2.4,1.6c-1,0-1.9,0.3-2.8,0.7
			c-1.6,0.9-3.2,1.8-4.8,2.9c-0.7,0.1-1.4,0.1-2,0c-0.4,0-0.8-0.1-1.1-0.2c-0.7-0.2-1.4-0.3-2.1-0.3c-0.2,0-0.3,0.1-0.5,0.1
			c-0.2-0.3-0.5-0.5-0.8-0.7c-1.1-0.7-2.5-0.8-3.6-0.2c-1.4,0.8,0.3,1.9,0.9,1.6c0.4-0.2,0.9-0.2,1.4,0c-0.6,0.3-1.2,0.8-1.7,1.4
			c-0.7,1-1.1,2.3-1.2,3.6l-0.1,0.1c-0.5-0.2-0.9-0.4-1.4-0.6c-1.2-0.9-2.7-1.4-4.2-1.4c-2.2,0.1-4.3,1.2-5.7,2.9
			c-0.6,1-0.7,2.1-0.4,3.2c-0.4,0.1-0.8,0.3-1.2,0.4c-1.8-0.2-3.7-0.3-4.9,0.6c-1.2,0.9-1.1,2.1-0.2,4.2c0,0.2,0.2,0.2,0.4,0.3
			c-0.8-0.4-1.7-0.6-2.6-0.5c-0.7,0.2-1.3,0.6-1.7,1.3c-0.5,0.7-0.5,1.6-0.2,2.4c0.4,0.7,1.1,1.2,1.9,1.4c-0.2,0.3-0.4,0.6-0.5,0.9
			c0,0.3,0,0.6,0,0.8c-0.7,1.1-0.9,2.5-0.4,3.7l0.1,0.3c0,0-0.1-0.1-0.2-0.2c-0.2-0.6-0.3-1.3-0.3-2c0-0.5-0.4-0.9-0.9-0.9
			c0,0,0,0,0,0c-0.5,0-0.9,0.4-0.9,0.9c-0.1,1,0.1,1.9,0.4,2.8c0.1,0.2,0.3,0.4,0.4,0.6l-0.3-0.3l-0.5-0.5c0-0.5-0.4-0.9-0.9-0.9
			l0,0c-0.5,0-0.9,0.4-0.9,0.9c0.1,0.7,0.5,1.4,1.2,1.8l0.4,0.3l0.2,0.2v0.1l-0.2,0.1l0,0l-0.8-0.2l-0.6-0.1
			c-1.3-0.4-3.2-0.9-4.5,0.6c-0.3,0.4-0.2,0.9,0.2,1.2c0.3,0.3,0.8,0.2,1.1,0c0.6-0.6,1.4-0.5,2.8-0.1h0.2c-0.4,0.3-0.6,0.7-0.7,1.2
			h-0.3c-1.1,0-3.3,0-3.4,2.2c-0.2,1.2,0.6,2.3,1.8,2.6c-0.3,0.3-0.5,0.5-0.7,0.8c-2.3-0.9-4.5-1.4-5.7-0.6c-0.7,0.5-1.1,1.3-1,2.2
			c0,0.7,0.2,1.4,0.5,2.1c-0.2,0.4-0.3,0.7-0.4,1.2v0.3c-0.2,0.8-0.1,1.7,0.4,2.4c-0.2,0.2-0.4,0.4-0.6,0.6
			c-0.2,0.3-0.3,0.6-0.3,0.9c-0.3,0.1-0.6,0.3-0.9,0.4c-2.8,1.8-1.8,5.2-1,7.5c0,0.4,0.1,0.7,0.2,1.1c-0.5,0.3-1,0.6-1.4,1.1
			c-0.8,1-1.2,2.4-0.9,3.7c0.3,1.4,1.9,0.5,1.8-0.3c-0.1-0.8,0.1-1.6,0.6-2.2c0.2-0.3,0.5-0.5,0.8-0.7c0,0.1,0.1,0.1,0.1,0.2
			c-0.3,1-0.4,2.1-0.3,3.2c0.2,1.7,1,3.3,2.4,4.4c1.1,0.8,2.3,1.3,3.6,1.5c0,0.3,0,0.6,0,0.9c-1.6-0.2-3.2,0.1-4.7,0.9
			c-1.4,0.8-1.9,2.6-1.2,4c0.2,0.4,0.4,0.9,0.6,1.4c0.2,0.5,0.4,0.9,0.6,1.4c-0.3,0.9-0.5,1.8-0.7,2.7c-4.3,0.5-8.7,0.6-13.1,0.5
			c-4.8-0.7-15.6-4.2-26.1-4.8c-0.7,0-1.4-0.1-2.2-0.1h-2.8h-1.6h-0.6l-1.8,0.1h-0.3c-7.6,0.5-14.8,1.7-18.1,1.7
			c-4.6,0-12.5-2.2-19.3,2.8c-7.9,1.1-10.8,5.3-11.4,7.7c-0.7,2.4-3.3,4.6,1.4,9.6c4.6,5.1,11.6,16.4,15.1,19.1
			c6,4.4,12.6,8.1,19.4,11c7,2.6,24.1,12.7,28.1,15.6c3.9,2.9,8.8,7.5,8.8,8.8c0,1.3-4,9.6-2.9,14c0.9,4.8,1,9.7,0.3,14.5
			c-0.4,2.6-0.9,5.2-2,6.7c-1.3,2.2-2.4,4.5-3.3,6.9c-1.1,2.7-3.4,3.7-4.4,6.4c-1.4,3.5-2.2,6.1,0.5,7.2c1.6,0.5,3.3,0.4,4.8-0.3
			c-1.6,2.1-1.4,3.4-0.4,4.4c1,1,4.7,3.5,9.3-0.6c1.3,2.7,3,4.7,6.6,2.4c2.9-2,5.7-4.2,8.3-6.6c2.4,1.8,6.2,1.5,8.2,1.1
			s5.8,0.6,6.2-3.9c0.4-4.5-0.4-10.1,0.4-14.3c0.8-4.2,0.3-9-2.5-15c-2.8-6.1-3.9-16-4.3-21.9c-0.4-5.9-3.1-11.7-10.5-16.3
			c-7.4-4.6-14.7-14.4-17.8-17.7c-3.1-3.3-9.3-11.8-9.3-11.8c6.2,3.6,14.6,4.2,16.2,4.3c1.6,0.1,12.5,6.5,18.8,8.5
			c2.7,6.6,8.9,16.1,11,21.4c0.4,1.6,0.8,3.2,1.4,4.8c1.3,4.3,3.9,11.5,5.9,16.3l0.1,0.3c0.1,0.3,0.2,0.5,0.3,0.7l0.3,0.6
			c0.1,0.2,0.2,0.4,0.3,0.5c0.1,0.2,0.2,0.4,0.3,0.6c0,0.1,0.1,0.3,0.2,0.4c0.1,0.1,0.2,0.4,0.3,0.6l0.1,0.3
			c0.1,0.2,0.2,0.4,0.4,0.6c0,0,9.1,5.4,37.5,3.4c12.9-0.9,21.4-3.6,35.6-4c9.8-0.3,19.5-1.8,28.9-4.4c2.7-0.9,20-13.2,20-13.2
			s-4-35.8-0.9-44.7c14.3-5.3,22.9-11.3,33.6-20.8s14.1-10.2,20.6-11.5c6.5-1.4,23.6,3.1,30.9,4.8s28,2.9,38.5,5.4
			c10.5,2.4,19.3,0.9,21.9,4.4c2.6,3.6,2.9,15.3,4,18.1c1.1,2.8,5.8,8.3,7,10.5c1.7,3.8,3.1,7.8,4.2,11.8c1,3.1,2.4,6.1,4.3,8.7
			c1.5,2,3.7,2,4.5,0.5c0.8-1.5,3.2-3.7,0.5-10s-4.4-6.9-4.7-8.6c-0.3-1.7,0.1-4.3,2.2-3.4c2,0.9,10.2,6.4,13.3,7.5l0.8,0.4l0.2,0.1
			c0.3,0.1,0.6,0.3,0.9,0.5c0,0,0.1,0.1,0.2,0.1c0.8,0.5,1.8,1.1,2.8,1.7l0,0h0.1l2.5,1.7l2.3,2.1l0.8,1.4l-1.9,0.2l-1.4,0.6
			l-1.4,1.2l0.2,1l-2.9-0.2l-1.5,0.6l-0.2,2.3l2.3,1.2l5.8,1.2c0,0-2.3,0.4-2.9,0.6c-0.6,0.2-2.9,0.6-2.9,0.6l-1.9,1l0.8,2.8
			l7.2-0.4l3.1-0.2l3.3-3.9l1.8-2.5l-0.8,3.1c-0.1,1-0.2,2.1-0.4,3.1c0.1,1.2,0.3,2.3,0.6,3.5c0.3,0.9,0.8,1.7,1.4,2.5l1.5-0.4
			l0.8-5.6l1.2-3.7l0.4-0.8l0.1,0.1c0.6-1.3,1.1-2.7,1.6-4.1C501.5,160.6,500.8,159.1,499.7,157.9z"/>
		<path class="st4" d="M242.7,57c0.3,0.8-1.6,6.7-0.2,7.6c1.3,0.9,8,8.7,8,8.7s1.2,2.1,0.5,2.8l-1.2,1.8"/>
		<path class="st5" d="M261.3,108c-0.8-2.8-1.7-1.9-1.7-1.9l-0.3-0.9l0,0c0.1,0,0.2,0,0.3-0.1c0.1-0.1,0.1-0.4,0-0.5c0,0,0,0,0,0
			c-0.3-0.2-0.5-0.6-0.6-1c0-0.1,0-0.1,0-0.2c0-0.2,0.1-0.4,0.1-0.5l0,0c0.3,0.2,0.5,0.6,0.5,0.9c0,0.2,0.2,0.3,0.4,0.3l0,0
			c0.2,0,0.3-0.2,0.3-0.4c0,0,0,0,0,0c-0.2-0.8-0.6-1.5-1-2.1c0-0.1,0-0.2,0-0.3c0.1,0.1,0.2,0.3,0.3,0.4c0,0-0.2-1.1-0.2-1.1
			s0-0.4,0.1-0.6l0,0c0.1,0.1,0.2,0.2,0.3,0.4c0,0.1,0.2,0.2,0.2,0.3c0,0.2,0.1,0.4,0.3,0.4l0,0c0.2,0,0.3-0.1,0.3-0.3
			c0-0.5-0.2-1.1-0.7-1.4c-0.2-0.3-0.3-0.6-0.3-1c0.2,0.1,0.3,0.3,0.4,0.4l0.2,0.2c0.3,0.3,0.3,0.5,0.3,1v0.2c0,0.2,0.2,0.3,0.4,0.3
			l0,0c0.2,0,0.3-0.1,0.3-0.3c0,0,0,0,0,0V100c0.1-0.5-0.1-1.1-0.5-1.5l-0.2-0.2c-0.2-0.2-0.5-0.5-0.7-0.6l0,0
			c0.1-0.6,0.2-1.1,0.3-1.5c0,0,0.3,0.2,0.3,0c0.4,0,0.9-0.1,1-0.5c0.1-0.2,0-0.5-0.1-0.7c-0.2-0.3-0.6-0.5-0.9-0.6
			c0-0.2-0.1-0.4-0.3-0.6l0,0c0-0.5,0.7-0.2,0.9-0.2l0,0c0.2,0,0.3-0.2,0.3-0.3c0.1-0.4-0.1-0.7-0.3-0.9c-0.1-0.1-0.3-0.2-0.4-0.3
			c-0.1-0.1-0.2-0.2-0.3-0.3c0-0.1-0.1-0.1-0.1-0.2c0-0.1-0.1-0.2-0.2-0.3c-0.1-0.1-0.2-0.2-0.3-0.3l-0.4-1c0,0,0.1,0,0.1-0.1v-0.1
			c0.1-0.5-0.2-0.9-0.6-1.1c-0.1,0-0.2,0-0.3,0c-0.1-0.1-0.1-0.2-0.2-0.3l-0.4-0.4c0.1-0.1,0.3-0.2,0.2-0.4c-0.1-0.4-0.3-0.7-0.6-1
			c0,0,0-0.1,0-0.1c0,0,0,0-0.1-0.1c0-0.2-0.1-0.5-0.3-0.7c0-0.1-0.2-0.1-0.2-0.2c-0.1-0.1,0.2-0.1,0.2-0.3c-0.1-0.8-1.2-1.4-2-1.7
			c-0.4-0.2-0.9-0.3-1.4-0.3c-0.2-0.3-0.6-0.4-0.7-0.7c-0.3-0.5-0.5-0.4-0.7-0.9s0.3-0.5,0.3-1c-0.3,0-0.4-0.4-0.7-0.4
			c-0.3,0.1-0.6,0.1-0.8,0.2c-0.3,0.1-0.4,0.4-1,0.5c-0.6,0.1-0.3,0.2-0.7,0.1c-0.8-0.1-0.9,0-1.6,0.5c-0.7,0.5-0.5,0.7-1.2,0.5
			c-0.7-0.2-0.3-0.3-0.9-0.1c-0.7,0.2-0.3,0-0.7,0.2c-0.6,0.3-0.7,0.1-1.2,0.5c-0.4,0.4-0.1,0.6-0.4,0.7c-0.3,0.1-0.5,0.6-1.1,0.6
			c-0.6,0-0.7-0.6-1-0.6c-0.3,0-0.8,0.3-1.1,0.2c-0.3-0.1-0.2-0.8-0.9-0.8c-0.4,0-0.8,0-1.3,0.2c-0.5,0.2-0.5,0.4-1,0.8
			c-0.4,0.3-0.8,0.3-1.1,0.8c-0.3,0.5,0,0.7-0.5,1c-0.4,0.3-0.7,0.6-1,1c0,0,0-0.1,0-0.2c-0.1,0.2-0.2,0.4-0.3,0.6c0,0,0.1,0,0.1,0
			v0.1c0.1,0,0.2-0.1,0.2-0.1c0,0,0.1,0.4,0,0.5c-0.2,0.1-0.4,0.1-0.7,0.2l0,0c-0.1,0-0.1,0-0.2,0.1l0,0c-0.4,0.1-0.8,0.3-1.2,0.5
			h0.1c0,0.1,0,0.1,0,0.2c0,0,0,0.2,0.1,0.3c0.1,0.2,0.1,0.2,0,0.2c0-0.1,0-0.1,0-0.2c-0.1-0.2-0.2-0.4-0.2-0.6h-0.2
			c-0.1,0,0.3,0.9,0.1,1c-0.1,0.1-0.6,0-0.5,0.1s-0.2,0-0.2,0c0,0.6,0.2,1.2,0.7,1.7c0-0.2,0.1-0.3,0.1-0.4c0.2,0.2,0.2,0.3,0.4,0.5
			c0,0-0.3,0.2-0.3,0.2c-0.1-0.1-0.2-0.1-0.2-0.2c0,0.2,0,0.3,0,0.4c0,0.1,0,0.5,0,0.7l0,0l0,0c0,0,0,0.1,0,0.1
			c-0.1,0.1-0.3,0.2-0.4,0.3l0,0l0,0l0,0c0,0-0.1-0.2,0-0.2c0.1,0,0.2-0.1,0.2,0l0,0c-0.2,0-0.3,0.1-0.5,0.1c-0.1-0.5-0.1-0.9,0-1.4
			c-0.1,0.4-0.6,0.9-0.5,1.3l0.1-0.1c0,0,0,0,0-0.1s0,0,0,0.1c0,0.1,0.2,0.3,0.2,0.4c0,0.1-0.4,0.6-0.2,0.6l-0.1,0.1l0,0
			c0.1,0,0.1,0.1,0.1,0.1l0,0c0,0.1,0,0.1,0,0.2c0,0,0-0.1,0-0.2c0-0.1-0.6,0.1-0.5,0.2c0.1,0.1,0-0.1,0-0.1c0,0-0.4,0.3-0.6,0.2
			c-0.2,0-0.7,0-0.7,0.3c0.1,0.3,0.3,0.6,0.6,0.8c0.1,0,0.2-0.6,0.3-0.6s0.6,1.3,0.2,1.6l-0.1-0.2c0,0.2-0.1,0.5-0.2,0.6
			c-0.3,0-0.7,0.1-1,0.1c0,0,0.1,0,0.2-0.2c-0.1,0-0.2,0-0.3,0c-0.3,0.2-0.6,0.4-0.8,0.7c-0.1-0.3,0.3-0.5,0.3-0.8
			c0-0.3-0.7-0.7-0.9-0.7V96c-0.2,0-0.4,0-0.4,0.2c0,0.2,0.1,0.4,0.2,0.6c-0.2-0.4-0.6-0.7-0.8-1.2c0-0.1,0,0.3-0.2,0.3
			c-0.2,0-0.2-0.3-0.2-0.3c0,0,0-0.4,0-0.4h-0.1v0.6c-0.2,0-0.5-0.4-0.5-0.3c-0.1,0.3-0.1,0.7-0.1,1l0.3,0.2
			c0.1,0.1,0.1,0.1,0.2,0.2c0,0-0.4,0.2-0.3,0.2c0-0.2,0-0.4,0-0.6c-0.4-0.3-0.9-0.6-0.9-0.9c0-0.4,0.4-0.3,0.2-0.3
			c-0.2,0,0-0.3,0-0.3s0,0.4-0.1,0.4c-0.1,0-0.2,0-0.3,0c-0.1,0-0.3-0.3-0.4-0.2s0.5,0.5,0.4,0.5c0,0.1-0.6-0.2-0.7-0.1
			c0-0.1,0-0.1,0-0.2c0,0.1,0,0.2,0,0.3l0,0c0.1,0,0.2,0,0.3,0.1c-0.1,0-0.2,0-0.3,0c0,0.2,0,0.4,0,0.4c-0.1-0.1-0.1-0.2-0.1-0.3
			c-0.1,0-0.2,0-0.3,0c0,0,0.3,0.5,0.3,0.6c-0.4,0.3-0.4,0.4-0.8,0.6c-0.2,0.1-0.4,0.1-0.5,0.2c-0.2,0.1,0-0.9,0-1
			c0-0.1-0.3,0.2-0.3,0.1c0,0-0.1-0.2-0.2-0.2c-0.1,0,0.2,0,0.2,0c0-0.2,0-0.4,0-0.6c0-0.2-0.5-0.8-0.7-0.8v0.4
			c-0.2,0,0.1,0.1,0.1,0.3s-0.5,0-0.5,0.1c0,0.1-0.2,0-0.2,0c0,0,0,0.6-0.2,0.5c-0.5-0.5-0.4-0.4-0.8-0.8c0.2-0.3,0.1,0.3,0.6,0.4
			c0.2,0,0.6-0.5,0.6-0.7c0.1-0.2-0.2,0-0.4,0s0.2-0.4,0-0.4c0.2-0.2,0-0.7,0.2-1c0.2-0.3,0.8-1,0.7-1.1c-0.1-0.1-0.4,0.2-0.5,0.4
			c-0.1,0.2-0.8,0.3-1.1,0.6s-0.4,0.8-0.8,1c-0.2,0,0.3-0.6,0.2-0.7c-0.1-0.1-0.2-0.2-0.3-0.3c0,0-0.3,0.2-0.2,0.2s0.2,0.3,0.2,0.4
			c0-0.2-0.6-0.1-0.6-0.3c0,0,0-0.1,0-0.1c-0.3,0-0.7,0-0.9,0.1c0.2-0.4,0.5-0.8,0.8-1.1c0,0.1,0,0.2,0,0.3c0.1-0.1,0.3-0.1,0.4-0.2
			v0.3c0,0,0.6-0.3,0.6-0.4c0-0.1-0.1-0.2-0.1-0.3c0,0-0.2,0.1-0.3,0c0-0.1-0.1,0-0.3,0c-0.4,0-0.8-0.2-1.2-0.3l-0.2,0.1
			c-0.2,0.1,0,0-0.1-0.1h-0.2c-0.4,0.2-0.7,0.5-1,0.8c0.1,0.3,0.1,0.6,0,0.6c-0.1-0.2-0.1-0.3-0.2-0.5l-0.2,0.1
			c-0.2,0.1-0.5,0.5-0.7,0.6c0.1-0.2,0.2-0.8,0.4-0.9l0.4,0.1c0,0.1,0.1,0.1,0.1,0.2l0.1-0.1c-0.1-0.3-0.2-0.6-0.2-0.7
			c0.4-0.1,0.8-0.2,1.2-0.1l0,0c0.2-0.1,0.4-0.1,0.6,0c0.1-0.1,0.2-0.2,0.2-0.3c-0.3-0.5-1.2,0-1.7,0.2c0-0.1,0-0.1,0-0.2
			c0-0.1,0.3-0.5,0.5-0.5s0.1,0.4,0.2,0.4c0.1,0,0.3-0.8,0-1c-0.4,0-1.5,1.2-1.4,1.4c-0.5,0.1-0.9,0.3-0.6,0s-0.1-0.4-0.2-0.5
			c-0.1-0.1-0.5-0.6-0.6-0.4s0,0.8-0.1,0.8s-0.1-0.8-0.1-0.8s0.4,0,0.5-0.1c0.1-0.1,0.2,0,0-0.2c-0.2-0.2,0-0.2-0.2,0
			s-0.8,0.1-1.2,0.3c-0.3,0.2-0.7,0.2-1,0.4c-0.2-0.1,0-0.3,0-0.9c0,0-0.3,0.1-0.3,0.2s0.1-0.2,0-0.3c-0.1-0.1,0,0-0.2,0.1l0,0
			c0.1-0.1-0.9-0.8-1-0.8l0,0c-0.4-0.2-0.9-0.2-1.4,0c-0.3-0.1-0.4,0.1-0.7,0c0,0,0.1,0.2,0.2,0.2l0,0l0,0c0,0-0.3-0.5-0.4-0.6
			c0,0,0,0.1,0,0.1l0,0l0,0c0,0,0-0.2,0-0.1s0,0,0,0c0-0.1,0-0.1,0-0.2c-0.1-0.2-0.3,0-0.5,0.2c-0.1,0.1-0.2,0.1-0.3,0.2
			c0,0-0.2-0.6-0.2-0.6c0.3-0.1,1-0.2,0.8-0.6c-0.1-0.4-0.5-0.2-0.7-0.2s-0.4,0.1-0.4,0.3l-0.2,0.1l0,0c0,0.1,0,0.1,0,0.2v-0.3
			c0,0,0,0,0.1,0c0.1-0.4,0.4-0.7,0.5-1.1s-0.4-0.4-0.6-0.4c-0.2-0.1-0.3,0-0.3,0.1c-0.1,0.2-0.2,0.4-0.2,0.7c0-0.2-0.2-0.3-0.2-0.4
			c0-0.2,0.1-0.6,0-0.6c-0.1,0-0.1,0.3-0.1,0.3c0,0,0.1,0.1,0.1,0.3c-0.3,0.5-0.8,0.9-1.4,1.2c0,0,0.8-1.4,0.8-1.9
			c0-0.2-0.5-0.5-0.6-0.5c-0.2,0-0.2,0.3-0.2,0.3c0-0.3,0.2-0.5,0.2-0.8s-0.2,0-0.4,0v-0.1c-0.2,0-0.4,0-0.5,0c0,0-0.1,0.1-0.1,0.1
			c0,0,0-0.1,0.1-0.1c0.1,0,0.1-0.1,0.1-0.1c-0.2,0.1-0.4,0.3-0.5,0.6l0,0c0-0.2,0.1-0.3,0.1-0.5s0.6,0,0.5,0
			c0.3-0.6,0.2-1.3-0.3-1.8c-0.1-0.1-0.4,0.1-0.5,0.3h0.1c0,0-0.4,0.3-0.4,0.3c0,0,0.1-0.1,0.2-0.2l0.1-0.1c-0.1,0-0.4,0.2-0.4,0.1
			s-0.1-0.2,0-0.3c0.2-0.4,1-0.7,0.9-1.2c-0.2-0.3-0.5-0.6-0.8-0.7v0.8c0,0-0.1-0.2-0.2-0.3l0,0l0,0c0,0,0.1,0.1,0,0.1
			c0-0.5,0-0.9,0-1.4s0.3-0.3,0.3-0.5c-0.2-0.4-0.4-0.6-0.8-0.8c0,0-0.1,0.1-0.1,0.2c-0.1,0.1,0.3,0.3,0.3,0.4
			c0,0.2-0.5-0.1-0.5-0.1c0.1-0.1,0.1-0.2,0.2-0.3c-0.2-0.2-0.3-0.3-0.3-0.5c0.1-0.4,0.8-0.8,0.7-1.2c-0.1-0.4-0.9-0.7-1-1.1
			c0-0.1,0.3-0.2,0.2-0.3c-0.1,0,0-0.4,0-0.6c0,0.2-0.4,0.1-0.5,0.3c0-0.4-0.7-0.7-0.7-0.9c0,0,0.8-0.1,0.8,0
			c0.2,0.2,0.4,0.4,0.5,0.7c0-0.2,0.5-0.5,0.4-0.7c-0.1-0.2-0.2-0.4-0.1-0.4c0.1,0,0.3,0.6,0.4,0.6s-0.2-0.2-0.2-0.4
			c0-0.2,0.1-0.1,0.2-0.1v-0.3c-0.1,0,0.1-0.3,0-0.3c-0.1,0-0.2-0.3-0.3-0.4c-0.1-0.1-0.1-0.3-0.3-0.4c-0.2-0.1-0.3,0-0.5,0
			c-0.1,0.1-0.2,0.1-0.3,0.1c0,0-0.1-0.1-0.1-0.1c0.1,0.1,0.3,0.1,0.4,0c0.1,0,0.1-0.1,0.2-0.2c0.1-0.2,0.1-0.8,0-0.9
			c-0.1-0.1-0.8,0.2-1,0.1c0.1-0.2,0.5-1,0.6-1.3c0.5,0.3,1,1.4,1.5,1.4c0.2,0-0.1-0.5-0.1-0.7s0.6,0,0.6,0s0-0.1,0-0.2
			c0.1-0.1,0.1-0.3,0.2-0.4c-0.1,0-0.3,0-0.4,0c0,0,0-0.5,0-0.7c-0.2,0-0.5,0-0.7,0.1c0,0.2-0.1,0.4,0,0.5s-0.2-0.3-0.2-0.4
			c0,0,0.1-0.1,0.2-0.1c0.1-0.1,0.1-0.3,0.1-0.4c0,0-0.4,0-0.4,0c0,0,0-0.4,0-0.5c0,0,0.4,0,0.6,0c0.2,0.3,0.5,0.6,0.7,0.9h-0.2
			c0,0,0.1,0.1,0.1,0.2s0.4,0.1,0.4,0.1c0,0.1-0.1,0.2-0.1,0.3c0.1,0,0.2-0.1,0.4-0.1c0.3,0,0.5-0.3,0.5-0.6c0-0.3-0.5-0.4-0.7-0.6
			c0.1-0.1,0.6-0.3,0.7-0.4c0.2-0.2,0,0,0,0s0.1-0.2,0.2-0.2s0.3-0.3,0.3-0.2c0,0-0.1,1-0.1,1c0.1,0,0.3-0.1,0.5-0.2
			c0,0-0.2-0.7-0.2-0.7c0,0,0.3,0.2,0.5,0.2c0.1,0-0.2,0.2-0.1,0.3c0.1,0.1,0.2,0.4,0.3,0.4c0.1,0-0.1-0.6,0-0.6
			c0.3-0.2,1,0.2,1.1-0.2c0.3,0,0.4-0.1,0.7-0.2c0.3,0,0.4-0.2,0.5-0.4c0.1-0.2-0.6-0.4-0.8-0.5c0.1-0.3,0.7-0.9,0.6-1
			c-0.3-0.5-1.3-0.7-1.9-0.8c-0.2-0.1-0.4,0.1-0.6,0c0.2,0,0.2-0.2,0.2-0.3c0-0.2,0-0.2-0.3-0.2v0.1c-0.6,0-1.1-0.1-1.6-0.3
			c-0.3-0.2-0.3,0-0.6-0.1s-0.7-0.8-0.6-1.2h0.3c0.1-0.2,0.3-0.9,0.3-0.9c0.1-0.1,0.4,0.4,0.5,0.4c0.1,0,0.1-0.1,0.2-0.1
			c0.1,0,0,0,0,0s0.8,0.2,0.8,0c0-0.2-0.5-0.4-0.7-0.5c-0.2-0.1-0.1,0.1-0.2,0c-0.1-0.1,0-0.2,0-0.2c0.2-0.3,0.4-0.6,0.6-0.8
			c0.2-0.3,0.5-0.3,0.8-0.5c0.2,0,0.3-0.2,0.6-0.2s0.6-0.2,0.8-0.6c-0.1-0.1-0.1-0.1-0.2-0.2v0.1c-0.4,0.1-0.8,0.2-1.2,0.2
			c0.2-0.2,1-0.1,1.2-0.3l0,0c0-0.1,0-0.2,0.1-0.1s0.1,0.1,0,0.3l0,0c0,0.1,0.1,0.1,0.2,0.1c0,0,0.1-0.9,0.1-0.9h0.2
			c0-0.1-0.1-0.1-0.1-0.2l0,0c-0.1,0-0.1-0.2-0.2-0.4s-0.1-0.1-0.1-0.1c0,0,0,0,0,0s0,0,0.1,0.1l0.2,0.4c0.2,0,0.4,0.1,0.5,0.1
			c0.1-0.1,0.2-0.3,0.3-0.3c0.1-0.1,0.2-0.2,0.2-0.4c0.4,0.1,0.8,0.1,1.3,0.1c0.2,0,0.2-0.1,0.2-0.3c0-0.2,0-0.4,0-0.6
			c-0.5,0.2-1,0.4-1.3,0.4c0,0-0.2-0.4-0.2-0.4c0.4,0.2,0.8-0.2,1.4-0.2c0,0,0.1,0,0.1,0.1l0,0c0.2,0.1,0.3-0.4,0.6-0.4
			c0.3,0,0.5,0.7,0.6,0.6c0.1-0.1,0.3-0.2,0.4-0.4c0-0.1,0-0.3,0-0.4c-0.1,0-0.2,0-0.3,0l0.3-0.1c0,0,0,0.1,0,0.2
			c0.4,0,0.8-0.2,1.3-0.2c0.4,0,0.7,0.9,0.9,0.8c0.3,0,0.4-0.5,0.5-0.7c0-0.1-0.3-0.5-0.3-0.6c-0.3,0.2-0.6,0.3-1,0.4
			c0.2-0.2,0.3-0.5,0.4-0.7c-0.2-0.4-0.9-0.7-0.7-1c0.2,0.2,0.5,0.4,0.8,0.5c0.2,0.1,0.5,0.5,0.7,0.7l0,0l0,0c0.3,0.1,0.6,0.1,1,0.1
			c0.1,0,0.2,0,0.3,0c0.1,0,0.2,0.3,0.3,0.3c0.1,0,0.3-0.6,0.4-0.6s0.8,0.9,1.4,0.9s0.7-0.3,1.4-0.5c-0.4,0-0.8-0.5-1.2-0.5l0,0l0,0
			c0,0.1,0.2,0.2,0,0.2s-0.2,0.1-0.1,0c0,0,0-0.1,0-0.1l0,0c0,0,0-0.3,0-0.2c0,0,0.2-0.2,0.3-0.2s0.3-0.3,0.5-0.4
			c0.2-0.1,0.5,0.3,0.6,0.3s0.3-0.1,0.4-0.2l-0.1-0.1c-0.1,0.1-0.2,0.2-0.2,0.2c-0.1-0.2-0.1-0.4-0.1-0.6c0-0.1-0.1-0.1-0.2-0.1
			c-0.1,0-0.3,0.2-0.3,0.3c-0.1,0.1,0,0.2,0,0.2c0,0-0.2-0.2-0.3-0.3l0,0l0,0l0,0l0,0c0.3,0,0.5-0.5,0.8-0.5c0,0.1,0,0.3,0,0.4
			c0.1,0.1,0.2,0.3,0.3,0.4c0.1-0.1,0.2-0.3,0.3-0.5c-0.1,0.1-0.2,0.1-0.3,0.1c0,0,0.4-0.4,0.4-0.3c0,0.1,0,0.2,0,0.2
			c0.2-0.1,0.4-0.1,0.6-0.1c0.1,0,0.2,0.3,0.3,0.3c0.1,0,0-0.6,0-0.8c0-0.2,0,0,0,0l0,0h-1.1c-0.4,0-0.7-0.3-1-0.4
			c0,0.1-0.1,0.1-0.1,0.2c0,0,0,0.1,0,0.1c0,0,0,0,0-0.1c0-0.1,0-0.2,0.1-0.2l0,0c0.1-0.3,0-0.6,0.3-0.7c0,0,0.2,0.2,0.2,0.2
			c0.6,0.3,1.1,0.8,1.7,0.9v-0.8l0,0l0,0h-0.1c0,0-0.2,0.3-0.2,0.3c0,0-0.1-0.3-0.2-0.4c-0.1-0.1-0.3-0.2-0.4-0.2c-0.1-0.1,0,0,0,0
			l0,0c0,0,0.6-0.1,0.9-0.1c0.2,0,0,0.3,0,0.5c0.3,0.2,0.5,0.4,0.8,0.5c0.4,0.1,0.7,0.1,1.1,0.1c0-0.2,0-0.4,0-0.5l0,0
			c-0.3,0-0.4-0.3-0.5-0.6c-0.2,0-0.4,0-0.6-0.1c-0.1-0.3-0.1-0.5-0.1-0.8c0,0-0.1-0.1,0-0.1s0,0,0,0.1c0.1,0.1,0.2,0.1,0.2,0.2
			c0.2,0.2,0.4,0.4,0.5,0.7h0.6h0.5c0.2,0,0.4-0.3,0.6-0.3v0.2c0.2,0,0.1-0.3,0.1-0.4c0-0.2,0-0.3,0-0.5h-0.1l0,0l0,0l0,0
			c-0.2,0-0.5,0-0.6,0.1c0.1,0,0.4-0.3,0.5-0.3c0.1,0,0.1,0,0.1,0.1c0,0.1,0-0.1,0,0l0,0c0,0,0,0,0,0.1c0.3,0,0.7-0.3,1.1-0.3v0.6
			c0,0,0.5-0.6,0.5-0.8c0-0.2,0,0,0-0.1c-0.6-0.1-1.1-0.3-1.6-0.5c0,0,0.2-0.5,0.2-0.4c0.4,0.1,0.5,0.6,1,0.7c0.2,0,0.4,0.1,0.4,0.3
			h0.1v-0.1c0.1,0,0-0.6,0.1-0.6c0.1,0,0.2,0.4,0.2,0.4c0.1,0,0.2-0.3,0.3-0.3c0.1,0,0.1,0.3,0.2,0.2c0.1-0.1,0,0,0.1,0
			c0.1,0,0.2-0.7,0.2-0.7s0.4,0.1,0.4,0c0.3,0.3,0.1,1.2,0.4,1.4c0.2,0,0.3,0,0.5,0c0.1,0,0.1-0.5,0.2-0.6s0-0.2,0.1-0.2
			s0.3-0.1,0.3,0c0.1,0.1,0,0.3,0,0.4c0,0,0.1,0,0.1,0c0.1,0-0.1-0.2,0-0.3c0.1-0.1,0.3,0,0.1-0.1c-0.2-0.1,0-0.2,0-0.3
			c-0.1,0-0.1,0-0.2,0c0,0,0,0,0-0.1h-0.2l0,0c0,0-0.3-0.2-0.5-0.2c0.2,0.1,0.3,0.1,0.5,0.1c0,0,0-0.1,0.1-0.1s0.1,0.1,0.1,0.2
			c0.1,0,0.1,0,0.2,0c0,0,0,0,0,0.1c0.3,0.1,0.8,0,1.4,0.1c0.5,0.1,0.8,0,1.1,0.1s0.5,0.7,0.8,0.8c0,0,0,0.1,0.1,0.1s0.4,0,0.4-0.2
			c0-0.2-0.2-0.1-0.4-0.1s-0.3-0.4-0.4-0.5c0.1,0-0.2-0.1-0.2-0.3s0.3-0.3,0.1-0.3s-0.5,0-0.7,0c0.4-0.1,0.4-0.7,0.7-0.8
			c0.3-0.1,0.8,0.1,1.3-0.2c0.1,0.4,0.6,0.5,1,0.9c0.2,0.4-0.2,1.1,0.2,1.3c0,0.2,0,0.5,0.2,0.7c0.4,0.3,0.9,0.6,1.4,0.7
			c0.4,0.1,1.3-0.6,1.8-0.6c0.2,0.3,0,1.4,0.3,1.7c0.3,0.3,0.9,0.3,1.3,0.5c0.3,0.2,0,0.4,0.2,0.5c0.2,0.1,0.4-0.1,0.5-0.1
			s0.3-0.2,0.4-0.3s-0.2-0.3-0.3-0.4s0-0.4-0.2-0.6c-0.1-0.1-0.3-0.2-0.4-0.3c-0.1,0.1-0.3,0.2-0.5,0.2c-0.1,0,0-0.3,0.2-0.6
			c-0.1-0.1-0.2-0.3-0.3-0.4c0-0.1-0.2,0.3-0.3,0.6c0,0.1,0,0.1,0,0.2c0,0,0-0.1,0-0.2s0-0.7,0-0.7s0,0.1,0.1,0.1l0.6,0.1
			c0,0.1-0.1,0.2-0.1,0.3c0.1,0.1,0.2,0.3,0.3,0.4c0.2-0.2,0.5-0.3,0.7-0.3c0.2,0,0.6,0.7,1,0.8c0.5,0.1,0.9,0.1,1.4,0.1
			c0,0.2-0.2,1,0,1c0.1-0.1,0.1-0.2,0.2-0.3l0,0c0,0,0-0.1,0.1-0.1l-0.1,0.2c0,0.1,0.1,0.2,0.2,0.3c0,0,0,0,0.1,0
			c0.1,0,0.1-0.2,0.3-0.2c0.1,0,0.2,0,0.3,0c0.2,0,0.4-0.1,0.6-0.1c0,0,0.1-0.3,0.2-0.3c0.3,0,0.7,0.7,1,0.6c0,0,0-0.1,0-0.2l0,0
			c0,0,0-0.1,0-0.2c0-0.1,0-0.2,0-0.2s0,0.1,0,0.2c0,0.1,0,0.2,0,0.2c0.3,0.3,1.1,0,1.4,0.3c0.3,0.3,0,1.1,0.3,1.4
			c0.3,0.3,0.9,0.4,1.1,0.5c0.3,0.2,0.7,0.3,1,0.4c0.4,0.2,0.8,0.4,1,0.8c0.2,0.3,0,0.8,0,1.3c0,0.5,0.8,0.7,0.9,1.1
			s-0.6,1.2-0.4,1.5c0.3,0.7,1.3,0.4,1.3,1.1c0,1-0.2,0.7,0.2,1.7c0.1,0.3-0.1,0.8,0,1.3s0,0.8,0.1,1.2c0.1,0.4,0.2,0.7,0.2,1.1
			c0-0.3,0.1-0.6,0.2-0.8c0.1-0.9,0.4-1.8,0.4-2.1c0-0.3-0.2-3.6,0.4-4.3c0.6-1,0.9-2,0.9-3.2c0.4,0,0.7-0.4,0.8-0.8
			c0.2-2.1,0-5.1-3-6.9c-0.6-0.4-1.3-0.6-2-0.9c0.3,0,0.5-0.2,0.7-0.5c0.7-1.5,0.3-3.3-0.9-4.4c-0.2-0.1-0.4-0.1-0.5-0.2
			c0.4-1.1,0-2.3-1-2.9c-0.7-0.4-1.6-0.5-2.4-0.3c-0.2-0.2-0.4-0.3-0.6-0.4c0.1-0.1,0.2-0.2,0.2-0.3c0-0.1,0-0.7,0.1-1
			c0.2,0.2,0.4,0.3,0.7,0.3c0.5-0.1,0.8-0.5,0.8-1c0,0,0,0,0,0c-0.3-2-0.6-4.5-2.9-5.8c-1.9-1-4.2-0.9-6,0.2
			c-1.2,0.9-1.7,2.4-1.3,3.8v0.2c0,0.2,0,0.5,0,0.7l-0.1,0.1c-0.2,0.1-0.4,0.2-0.5,0.4l0,0c-0.3-0.1-0.6-0.1-0.9-0.2
			c-0.4-1.3-1.2-2.4-2.4-3.2c-0.1-0.8-0.3-1.6-0.7-2.3c-1.1-1.8-2.8-3-4.8-3.4c-0.2,0-0.4,0-0.7-0.1c-0.1-0.4-0.3-0.8-0.6-1.2
			c-1.4-1.8-3.9-1.9-5.4-2c-2.1-0.2-4.2-0.1-6.2,0.2c-1,0.1-1.9,0.7-2.4,1.6c-1,0-1.9,0.3-2.8,0.7c-1.6,0.9-3.2,1.8-4.8,2.9
			c-0.7,0.1-1.4,0.1-2,0c-0.4,0-0.8-0.1-1.1-0.2c-0.7-0.2-1.4-0.3-2.1-0.3c-0.2,0-0.3,0.1-0.5,0.1c-0.2-0.3-0.5-0.5-0.8-0.7
			c-1.1-0.7-2.5-0.8-3.6-0.2c-1.4,0.8,0.3,1.9,0.9,1.6c0.4-0.2,0.9-0.2,1.4,0c-0.6,0.3-1.2,0.8-1.7,1.4c-0.7,1-1.1,2.3-1.2,3.6
			l-0.1,0.1c-0.5-0.2-0.9-0.4-1.4-0.6c-1.2-0.9-2.7-1.4-4.2-1.4c-2.2,0.1-4.3,1.2-5.7,2.9c-0.6,1-0.7,2.1-0.4,3.2
			c-0.4,0.1-0.8,0.3-1.2,0.4c-1.8-0.2-3.7-0.3-4.9,0.6c-1.2,0.9-1.1,2.1-0.2,4.2c0,0.2,0.2,0.2,0.4,0.3c-0.8-0.4-1.7-0.6-2.6-0.5
			c-0.7,0.2-1.3,0.6-1.7,1.3c-0.5,0.7-0.5,1.6-0.2,2.4c0.4,0.7,1.1,1.2,1.9,1.4c-0.2,0.3-0.4,0.6-0.5,0.9c0,0.3,0,0.6,0,0.8
			c-0.7,1.1-0.9,2.5-0.4,3.7l0.1,0.3c0,0-0.1-0.1-0.2-0.2c-0.2-0.6-0.3-1.3-0.3-2c0-0.5-0.4-0.9-0.9-0.9c0,0,0,0,0,0
			c-0.5,0-0.9,0.4-0.9,0.9c-0.1,1,0.1,1.9,0.4,2.8c0.1,0.2,0.3,0.4,0.4,0.6l-0.3-0.3l-0.5-0.5c0-0.5-0.4-0.9-0.9-0.9l0,0
			c-0.5,0-0.9,0.4-0.9,0.9c0.1,0.7,0.5,1.4,1.2,1.8l0.4,0.3l0.2,0.2v0.1l-0.2,0.1l0,0l-0.8-0.2l-0.6-0.1c-1.3-0.4-3.2-0.9-4.5,0.6
			c-0.3,0.4-0.2,0.9,0.2,1.2c0.3,0.3,0.8,0.2,1.1,0c0.6-0.6,1.4-0.5,2.8-0.1h0.2c-0.4,0.3-0.6,0.7-0.7,1.2h-0.3
			c-1.1,0-3.3,0-3.4,2.2c-0.2,1.2,0.6,2.3,1.8,2.6c-0.3,0.3-0.5,0.5-0.7,0.8c-2.3-0.9-4.5-1.4-5.7-0.6c-0.7,0.5-1.1,1.3-1,2.2
			c0,0.7,0.2,1.4,0.5,2.1c-0.2,0.4-0.3,0.7-0.4,1.2v0.3c-0.2,0.8-0.1,1.7,0.4,2.4c-0.2,0.2-0.4,0.4-0.6,0.6
			c-0.2,0.3-0.3,0.6-0.3,0.9c-0.3,0.1-0.6,0.3-0.9,0.4c-2.8,1.8-1.8,5.2-1,7.5c0,0.4,0.1,0.7,0.2,1.1c-0.5,0.3-1,0.6-1.4,1.1
			c-0.8,1-1.2,2.4-0.9,3.7c0.3,1.4,1.9,0.5,1.8-0.3c-0.1-0.8,0.1-1.6,0.6-2.2c0.2-0.3,0.5-0.5,0.8-0.7c0,0.1,0.1,0.1,0.1,0.2
			c-0.3,1-0.4,2.1-0.3,3.2c0.2,1.7,1,3.3,2.4,4.4c1.1,0.8,2.3,1.3,3.6,1.5c0,0.3,0,0.6,0,0.9c-1.6-0.2-3.2,0.1-4.7,0.9
			c-1.4,0.8-1.9,2.6-1.2,4c0.2,0.4,0.4,0.9,0.6,1.4c0.2,0.5,0.4,0.9,0.6,1.4c-0.3,0.9-0.5,1.8-0.7,2.7c7.3,0,23,0.5,31.5,5.6
			c4.8,2.9,13.3,8.2,13.6,8.6c0.6,0.4,1.3,0.8,1.9,1.1c-0.4-0.9-0.8-1.7-1.4-2.4c-0.6-0.5-1.2-1-1.9-1.4c-0.8-0.4-0.6-3.4-1.5-4
			c-0.9-0.6-2.5-1.9-2.7-2.7l-0.2-0.8l-1.2-1.4l-0.6-0.4c0,0,1.2-0.7,0.2-1.5c-0.5-0.4-1-0.6-1.6-0.7l-0.3-1c0,0,0.6-1.2,0-1.2
			c-0.5,0-1.1,0.1-1.6,0.1l-0.2-2.3l-2.5-1.5l-0.3-1.2c0,0,1.4-1,0-1.8c-0.7-0.4-1.3-0.8-1.9-1.2c0,0,1.2-1.6,0.4-2.1
			c-1.8-1-3-2.8-3.3-4.9c-0.4-2.2-0.1-4.4,0.9-6.4c0-0.4,2.7-2.7,2.7-2.7s2.2-0.2,2.7-0.2h2.2c0.8,0.2,1.6,0.4,2.4,0.8l1.5,1.5
			l1.9,0.9c1.1,1.4,2.3,2.8,3.6,4c1.2,0.9,1.8,2.8,2.5,3.6c0.7,1,1.2,2,1.6,3.1c0,0,0.4,5.6,1.9,7.3s1.7,3.4,3.1,4.6
			c1.2,1,2.4,2.1,3.6,3.3c1,1.4,2.2,2.5,3.7,3.3c2.4,1.4,5.2,1.6,6.4,2.7c1.2,1,8.6,2.7,12,2.7s5.3,0.2,6.5,0.9
			c1.5,0.9,3.2,1.4,4.9,1.5c1.9,0.1,3.8,0.1,5.6-0.1c1.6-0.6,3.1-1.5,4.4-2.7c1.1-1,1.9-2.3,2.4-3.7c0.4-1.5,1.8-5.8,1.8-5.8
			C261.9,109.4,261.7,108.7,261.3,108z M205.7,68.2c0,0,0.1,0.3,0.2,0.5c0-0.1,0.8-0.3,0.8-0.4c0-0.1,0.1-0.2,0.1-0.2
			c0,0.2,0,0.4,0,0.5c0,0-0.8,0-0.8,0v0.2l-0.8-0.1C205.1,68.7,205.7,68.2,205.7,68.2L205.7,68.2z M204.8,68.8c0,0,0.2,0.7,0.2,0.7
			c0,0-0.2,0.2-0.3,0.2C204.8,69.7,204.8,68.8,204.8,68.8L204.8,68.8z M238.2,52.8l-0.2-0.2c0,0-0.7-0.1-0.7-0.1l0.7,0.1
			C238,52.6,238.1,52.8,238.2,52.8L238.2,52.8z M235.8,52.1c0,0,0.1-0.5,0.2-0.6l0.5,0.5c0,0.1,0,0.2,0,0.3c0.1-0.1,0.2-0.1,0.2-0.2
			l0.7,0.3c0,0.2-0.8,0.4-0.8,0.6c0.1,0.2,0,0.2-0.1,0.2c-0.1,0,0.3-0.5,0.3-0.6c-0.1,0-0.2,0-0.3,0c0,0,0,0,0,0.1v-0.1h-0.1
			c0,0,0-0.1,0.1-0.1c-0.1-0.1-0.2-0.2-0.2-0.3c0-0.1-0.6,0.5-0.7,0.4C235.5,52.5,235.7,52.2,235.8,52.1L235.8,52.1z M233.6,51.3
			l-0.8-0.1c0,0,0.8,0,0.9,0S233.6,51.3,233.6,51.3z M233,49.9c0.1-0.1,0.2-0.2,0.3-0.3c0.1-0.2,0.2-0.4,0.3-0.4
			c0,0.3,0.1,0.7,0.3,1c0,0-0.1,0.7-0.1,0.7c0,0-0.8-0.4-0.8-0.3c0.1-0.2,0.1-0.4,0.3-0.5c0.1-0.2,0.5-0.3,0.3-0.5
			c-0.2-0.1-0.2,0-0.2,0c-0.1,0.2-0.3,0.5-0.4,0.6c0,0.1-0.5-0.5-0.5-0.5C232.4,49.7,232.9,50.1,233,49.9L233,49.9z M206.6,59.1
			c0.1,0,0.4,0.5,0.5,0.6c0.1,0-0.7,0.4-0.8,0.4C206.2,60,206.6,59.2,206.6,59.1L206.6,59.1z M200.4,74.1c0.2,0.1,0.6,0.2,0.8,0.3
			l-0.5-0.1c0,0-0.5,0.6-0.5,0.6S200.4,74.3,200.4,74.1L200.4,74.1z M200.5,78.6c0,0,0,0.5,0,0.6c0,0-0.7,0.1-0.7,0.1L200.5,78.6z
			 M198.9,81.1c-0.1-0.4-0.1-0.8-0.2-1.2c0,0,0.9-0.4,0.9-0.5c0,0-0.7,0.7-0.7,0.9c0.1,0.2,0.8,0.5,0.8,0.8
			C199.6,81.2,198.9,81.2,198.9,81.1L198.9,81.1z M200.6,81.1c-0.3,0.1-0.6,0.2-0.9,0.2c0-0.2-0.3-0.7-0.3-0.9
			c0-0.2,0.9-0.2,0.9-0.2c0,0-0.8,0-0.8-0.1c0-0.1,0.3-0.1,0.3-0.2c0.1,0.1,0.4,0,0.5,0.1C200.4,80.2,200.7,80.9,200.6,81.1
			L200.6,81.1z M201.4,82.6c0,0-0.3,0.5-0.3,0.5l0.5,0.4c-0.1,0-0.3,0.3-0.5,0.4c-0.1,0.1-0.3-0.8-0.4-0.9
			C200.9,83,201.3,82.7,201.4,82.6L201.4,82.6z M202.1,84.8h-0.7c-0.1-0.3-0.3-0.5-0.5-0.7c0.2-0.1,0.9,0.2,1.1,0.1s0.3-0.2,0.3-0.2
			C202.1,84.2,202.1,84.5,202.1,84.8L202.1,84.8z M203.7,88.2c-0.1-0.1-0.7-0.7-0.7-0.8c-0.1-0.1,0.8-0.3,0.8-0.4
			S203.7,88.1,203.7,88.2L203.7,88.2z M210.8,91c0.2-0.1,0-0.9,0.2-1c0,0,0.4,0.6,0.4,0.6c-0.1,0.1-0.3,0.3-0.4,0.4
			c-0.1,0.1-0.2,0.2-0.3,0.3c0,0,0.2-0.2,0.2-0.2L210.8,91z M210.9,91.1c0,0,0.6-0.5,0.6-0.5c0,0,0.1,0.8,0.1,0.8L210.9,91.1z
			 M213.1,93.2c-0.2-0.3-0.5-0.4-0.6-0.7c0.2-0.2,0.5-0.3,0.7-0.4c-0.1,0.3,0.5,0.4,0.6,0.8c0,0.1,0.1,0.1,0.1,0.2L213.1,93.2z
			 M214.5,94.1c0-0.1-0.6-0.7-0.7-0.8s0.8,0.4,0.9,0.4c0.1-0.1,0.2-0.1,0.2-0.1c-0.2,0.2-0.3,0.4-0.4,0.7L214.5,94.1z M220.1,97.4
			c0,0,0.5-0.6,0.5-0.6c0.2,0,0.3,0.6,0.3,0.7L220.1,97.4z M227.6,98.4c-0.2,0-0.3,0-0.5-0.1c0-0.1-0.3-0.4-0.3-0.5s0.3-0.7,0.2-0.8
			l0,0c0,0-0.3,0.5-0.3,0.5c-0.1-0.3-0.1-0.7-0.1-1c0.1,0.2,0.3,0.3,0.4,0.4l0,0c0.3,0.2,0.5,0.5,0.8,0.8c0,0-0.1,0.7-0.1,0.7
			L227.6,98.4z M233.2,90.3c-0.1-0.4-0.2-0.7-0.2-1.1c0-0.1,0-0.3,0-0.4c0,0,0.7,0.6,0.7,0.6c0,0,0.5-0.4,0.7-0.5
			c-0.4,0.5-0.8,1-1.2,1.4L233.2,90.3z"/>
		<path class="st4" d="M230.1,95.7c0.1,0,0.2,0,0.4-0.1c-0.2-0.3-0.3-0.5-0.6-0.3c0,0.1-0.1,0.1-0.1,0.2c0,0,0.1-0.1,0.1-0.1
			S230,95.6,230.1,95.7z"/>
		<path class="st4" d="M212.7,57.8h0.2l0,0l0,0H212.7z"/>
		<path class="st4" d="M231.8,90.6v-0.2C231.7,90.4,231.8,90.5,231.8,90.6z"/>
		<path class="st4" d="M231.9,90.7L231.9,90.7C231.9,90.7,232,90.7,231.9,90.7z"/>
		<path class="st4" d="M206.7,60.9c0.2,0,0.3,0.1,0.3,0s0-0.1-0.2-0.2C206.8,60.8,206.7,60.9,206.7,60.9z"/>
		<path class="st4" d="M202.5,71.1C202.5,71.1,202.5,71.1,202.5,71.1L202.5,71.1L202.5,71.1z"/>
		<path class="st4" d="M206.6,61C206.6,61,206.6,61,206.6,61l-0.2-0.1C206.4,60.9,206.5,61,206.6,61z"/>
		<path class="st4" d="M232.5,91.9c0-0.1,0-0.1,0-0.1C232.4,91.8,232.4,91.8,232.5,91.9z"/>
		<path class="st4" d="M218.8,93.2h-0.1v0.1C218.8,93.3,218.9,93.3,218.8,93.2z"/>
		<path class="st4" d="M232.7,92.4l-0.3,0.2L232.7,92.4z"/>
		<path class="st4" d="M203.5,65.8c0.2,0,0.5-0.5,0.5-0.7s-0.3-0.1-0.5-0.1h-0.6c0.2,0,0.4,0.1,0.6,0.1L203.5,65.8z"/>
		<path class="st4" d="M223.6,94.7c-0.2,0.3-0.2,0.4-0.1,0.8c0,0,0.1,0.1,0.2,0.1c0-0.1,0.1-0.3,0.1-0.4
			C223.8,95,223.7,94.8,223.6,94.7z"/>
		<path class="st4" d="M234.8,86.4v-0.1C234.8,86.3,234.8,86.4,234.8,86.4z"/>
		<path class="st4" d="M213,58c0,0,0-0.1,0-0.1l-0.2,0.1C212.9,57.9,213,58.1,213,58z"/>
		<path class="st4" d="M221.7,54.7C221.7,54.6,221.7,54.7,221.7,54.7S221.7,54.8,221.7,54.7z"/>
		<path class="st4" d="M218.8,56.8c0.2,0.1,0.4,0.1,0.3,0C219.2,56.7,219,56.8,218.8,56.8z"/>
		<path class="st4" d="M236.8,94.6c0.2-0.5,0.5-0.9,0.8-1.2c0.7-0.9,1.3-1.9,1.8-3l0.8,0.2l0.8-0.3c0.3-0.2,0.6-0.5,0.8-0.8l0.3-0.5
			l1,0.2l1-0.3l1.5-0.2l1.4-0.3c0,0-0.2,0.3,0.7,0.5c0.8,0.2-0.5,0.3,0.8,0.2c0.8-0.1,1.6-0.1,2.3,0l1.3,0.5l1,0.3l1,0.8l0.5,0.8
			l0.7,1.2l-0.3,0.8l-0.2,0.9l0.7,1v0.8l-0.5,0.7c0,0.5-0.1,1-0.2,1.5c-0.2,0.5-1.8-2-1.8-2c-0.6,0-1.2,0.4-1.4,1
			c0,0,0.2,1.2-0.3,1.2H251l-0.7,1.2l-0.5,1l-1-1.4l-0.8,0.8c0,0-0.3-1.7-0.7-1l-0.3,0.7l-1,0.2c0,0,0.3-1.7-0.2-0.8
			c-0.5,0.8-1,1.5-1,1.5l-1-0.5l-1.2-0.5l-0.3-0.8c0,0,0-1.7-0.7-1.4l-1.7,0.8l-0.8,0.2l-0.7-1.2l-0.5-0.7l-0.8-0.5l-0.7-0.7
			L236.8,94.6z"/>
		<path class="st4" d="M202.6,99.2c-1,0.4-2,0.7-3,0.9c-0.6-0.1-6.9,0.1-8.6-0.3c-1.7-0.6-3.3-1.5-4.7-2.7c-1.6-1.4-2.7-3.2-3.2-5.2
			"/>
		<path class="st4" d="M197.9,93.5c0-0.3,1.4-0.8,1.7-0.8c0.4,0.1,0.8,0.2,1.1,0.3c0,0-1.4-1.2-2.2-1.2c-0.5,0-0.9-0.4-1-0.9
			c-1-0.2-1.8-0.9-2.1-1.9c-0.3-0.8-0.3-1.7-0.9-2.1c-0.6-0.4-0.8-1-2-1c-1.2-0.2-2.4-0.1-3.4,0.3c-1.1,0.7-2,1.7-2.6,2.9"/>
		<path class="st4" d="M232.7,64.6c0.1,0.9,0.3,1.7,0.7,2.5c-0.4,0.3-0.8,0.5-1.2,0.6c-0.4,0-6.1-0.5-6.9-0.5
			c-1-0.2-1.9-0.5-2.8-0.9"/>
		<path class="st4" d="M250.9,67.5l0.2,0.5c0,0,0.5,0.3-0.4,0.4c-0.9,0.2-2.3,0.2-2.6,0.3c-0.4,0.1-1.5-0.6-2-0.7"/>
		<path class="st5" d="M244.6,78.2c-0.4-0.8,2.3-2.2,2.7-2.3c0.9-0.3,3.1,1-0.3,1.7c-0.6,0.1-1.4,0.3-1.4,0.3S245,79.2,244.6,78.2z"
			/>
		<path class="st4" d="M159,98.8l0.3-0.1L159,98.8z"/>
		<path class="st5" d="M219.3,60.2c-2.1,2.3,0,0.3,0.7,0.3c0.9-0.3,1.7-0.6,2.4-1.1c1.5-0.5,3.1-0.6,4.6-0.4
			c1.8,0.5,0.9-0.1,0.9-0.1h2.2l1.1,0.1l1.4,0.8c1.3,0.1,2.7,0.1,4,0c0.6-0.3-0.1-0.8-0.1-0.8l-1.1-1l-2.2-1.2
			c-1-0.4-2.1-0.6-3.2-0.8c-1.4-0.1-4.7,1.2-6,1.4C222.2,57.8,220.5,58.8,219.3,60.2z"/>
		<path class="st5" d="M243.4,60.6l1.1,0.2h1.6c0.4,0,0.9,0.1,1.3,0.2c0.5,0.1,0.9,0.3,1.4,0.5c0,0,0.5,0.6,0.7,0.7s0.3,0,0.3,0
			l-0.3-1.2l-0.4-0.6l-1-0.5c-0.3-0.1-1.4-0.7-1.7-0.8c-0.8-0.2-1.6-0.4-2.4-0.5c-0.3,0-0.6,0.1-0.9,0.3l-0.2,1
			C242.7,60.3,243.4,60.6,243.4,60.6z"/>
		<path class="st4" d="M241.9,90.3c0,0,2.4-0.6,3.2-0.7c0.8-0.1,3.5-0.1,3.5-0.1l-2.1,0.9c-1.2,0.3-2.3,0.5-3.5,0.6
			C242.3,91.1,240.4,90.5,241.9,90.3z"/>
		<path class="st2" d="M125.5,236.2c1.8-1,5.2-7.5,5.6-8.5c0.3-1,3.1-6.5,3.1-6.5l2.8-4.2"/>
		<path class="st2" d="M134.5,240c1.8-2.8,3.8-4.8,4.2-6.1c0.4-1.4,1.7-5.1,1.7-5.1l3.1-7.2l1.7-3.4"/>
		<path class="st2" d="M149.5,235.8c0.7-3.6,1.7-7.1,3-10.5c1-2.8,5.5-8.2,5.5-8.2"/>
		<path class="st1" d="M154.7,148.8c0,0,4.5,2.9,18.5,3.3"/>
	</g>
</g>
</svg>
