<svg xmlns="http://www.w3.org/2000/svg" viewBox="0 0 341.61 303.17"><defs><style>*{vector-effect:non-scaling-stroke}.cls-1,.cls-2,.cls-4,.cls-5{fill:none;stroke:#000000;stroke-width:1.5px;}.cls-1,.cls-2{stroke-miterlimit:10;}.cls-2,.cls-5{stroke-width:0.5px;}.cls-3{fill:#000000;}.cls-4,.cls-5{stroke-linecap:round;stroke-linejoin:round;}</style></defs><g id="Layer_2" data-name="Layer 2"><g id="Layer_1-2" data-name="Layer 1"><path class="cls-1" d="M341,265.48c-1.05-6.66-3.51-11.22-6.66-12.62s-10.64-5.26-12.27-5.49-6.55.23-10.29.23-8.64,3.27-12.85,1.87-23.14,1.87-25.95,2.11-3.27-2.11-3.73-3.51,4.67-4.68,4.9-7.24-2.1-8-2.33-9.82-.24-3.74.93-7.95-1.63-32.72-1.87-35.76-3.51-18.46-3.74-20.8-1.17-25-1.63-28.28-7.25-18.93-12.86-22.91-16.83-3.91-18.76-4.09a67.39,67.39,0,0,1-11-2.45c-3-1-16.3-4.73-16.3-5.26s-1.58-16.13-1.58-16.13a83.18,83.18,0,0,1,2.63-8.06c.7-1.23,1.75-6.66,2.63-10.17s-.35-7.54-.53-10c-.19-2.65-3.85-1.23-3.85-1.23l-.18-2.1-.7-3.51-.18-5.08.71-2.45a7.23,7.23,0,0,0,0-3c.7-1.06,1.22-1.76.17-3.34.7-1.57-1-3.68-2.63-4.55.53-.88,1.05-2.63-.88-2.63.71-1.05.71-3.33-1.22-3.51,0-1.58,1.05-3.15-1.58-2.8.18-1.41.7-3-2.28-2.81,0-1.75-.52-2.28-2.63-2.63-.17-1.4-.35-1.57-2.28-1.22,0-1.06,1.58-1.93-.87-1.76.52-1.22,1.22-3.15-1.41-3.5,1.06-.7,1.06-3.16-1.22-2.81-.53-1.4-.88-1.93-3.16-2.45,0-2.11-.7-3-3-2.81-.35-1.22-1.22-3.68-3.15-2.8-.18-.53-.88-1.4-3.16-.35-.7-1.23-2.8-2.11-3.68-.35-1-1.23-2.63-1-4,0a2.32,2.32,0,0,0-3.68.7c-1.58-.7-2.46.17-1.93,1.58-1.23-.35-2.63.7-2.63,2.63-1.23-.53-2.81,1.4-1.93,3.33-1.58,0-1.58,1.57-1.05,3.5-.7-.17-3.68.18-2.45,1.93-1.23,0-3,.7-2.28,2.63-1.58-.7-3-.53-2.63,1.75-2.11,1.23-2.81,1.76-2.11,3.68-.7.53-1.75,1.41-.7,2.81-1.58,0-3.15,1-2.63,3.15a2.16,2.16,0,0,0-2.8,2.46c-1.4,0-2.28.7-1.4,2.1-1.76,1-.71,3.33-.71,3.33a6.92,6.92,0,0,0-1.05,4.74c-1.4,1.4,0,3.15,0,3.68s0,3.15-.52,3.33.35,2.63.35,2.63l-1.23,6.13-1.58,1.23s.35,3,.35,3.68-.87.88-1.4,1.58.7,2.28.7,2.28l1.23,2.8a48.08,48.08,0,0,1,0,5.26c-.18,1.75,1.58,6.31,1.58,10.52-.53,3.15-.59,15-.59,15l-2.1,1.11-1.4,1.4-2.81.93-.93.94a4.46,4.46,0,0,1-2.81,1l-2,2-2.4,1.11-5.14,1.87h-6.31a59.14,59.14,0,0,0-6.54,1.87,14.4,14.4,0,0,0-3.51,1.64c-.7.7-8.18,4-8.18,4s-2.81,2.57-3.51,3.28l-2.1,2.1-1.17,2.57-3,5.84a8.64,8.64,0,0,1,0,3.74c-.47,1.87-1.64,10.05-1.64,10.05v4c0,1.17-1.4,4.44-1.63,5.84s-.94,3-1.17,4.44-.23,5.61-.23,7.25v4.2a62.21,62.21,0,0,0,.23,6.31,27.31,27.31,0,0,1,.23,3.51,13.82,13.82,0,0,1-.23,2.34c-.23,1.17-.47-.94-.7,3s-.23,6.77-.23,7.94.46,3.27.23,4-.93,2.57-.93,2.57l-2.58,8.64v4.68c0,.7-.7,2.57-.7,3.51a24.81,24.81,0,0,1-.46,3c-.24,1.64-.47,3.28-.47,4s.47,3.5.47,3.5a2.87,2.87,0,0,1,.46,2.11c-.23,1.16-.46,3-.46,3l-1.41,4.9-.23,4a3.91,3.91,0,0,0,.7,2.1,5.92,5.92,0,0,0,2.57,1.87l.7.24-.93,1.4v4s.31.34.77.79a35.64,35.64,0,0,0-4.4-.09c-2.8.35-6.66.7-15.42-1s-11.22.35-15.43.35A234.49,234.49,0,0,0,10.71,255C2,256.72,2.3,266.18,1.25,270.39S-.16,283.71,3,289.67s3.86,9.82,9.82,11.57,13-1.05,17.88-.7,16.47,0,19.28,0,16.13-1.05,22.09,0,16.12,1.4,20.68.7,16.48-.7,20.69-.7,52.58-1.4,56.09-1.4,17.53,1.05,21.39,1.05h10.51a113.29,113.29,0,0,1,17.18,1.05c7.37,1.05,11.22,1.05,20.34,1.4s79.23-3.5,85.89-3.15,9.82-3.16,10.87-7.71S342,272.14,341,265.48ZM145.57,98.72l-.93-11,3,4.44Zm52.13-4.21c-.47,4.44-1.17,7.95-2.34,6.78s-1.87-7.71-1.87-7.71l4.21-5.38C200.73,87.73,198.16,90.07,197.7,94.51Zm3.27,4-.7-2.1,1.63-3.27,1.4,4.67Z"/><path class="cls-2" d="M148.5,92.77s-1.8,6.16-2.29,7.14a5.23,5.23,0,0,1,1.23,3.58"/><path class="cls-2" d="M147.78,149c0,2.86,21.7.72,22.89-.71s.72-20.51.72-20.51"/><path class="cls-2" d="M193.44,157.15c-1.73,1.72-13-4.07-17.53-5.81s-4.71-17.5-4.71-27"/><path class="cls-2" d="M149.35,182.14c3.88-2.65,13.27-7.14,22.18-7.14,11.71,0,16.46,6.89,18.24,8.86l.18.2"/><path class="cls-2" d="M136.58,112.62c.08,2.63.87,30.33,2.8,45.93s5.35,37.43,7.89,40-3.86,1.93-5.35-6.14"/><path class="cls-2" d="M205.64,119.29c0,5.61-2.17,59.9-9.85,70.61S163.68,203,155.33,199"/><path class="cls-2" d="M129,131.38c1.05,13.67,6.48,51,10.51,62.06a28.73,28.73,0,0,0,27,18.93c12.45,0,26.12-8.77,24.54-10.35s-20.56,8.24-31.05,4.21.2-2.63,10.37-2.63,18.77-3.56,26.35-11.86"/><path class="cls-2" d="M176,197.82c7-1.64,17.53-2.34,20.8-15.19"/><path class="cls-2" d="M96.26,213.24c3.5,1.41-3.51-13.32-4.21-27.69s-2.46-55.4.35-60.65"/><path class="cls-2" d="M97,127c-1.75,7.36-.7,51.89-.7,62.75s9.11,25.6,10.51,27.35-9.11,5.26-16.82-1.75-7-21-7-34-.35-29.8.71-37.16"/><path class="cls-2" d="M101.52,135.41c-.71,16.48-.35,54.7,2.8,64.86s3.51,9.47,4.91,11.22-1.4,4.21-4.91,0-3.86-7-4.21-16.48"/><path class="cls-2" d="M109.58,204.83c.7,7.36-1.4,1.4-2.81-7.36"/><path class="cls-2" d="M126.26,232.59c3,.17,1-1-7.91-4s-25.92,12.79-28.27,13c-1.75.12-1.64-1.61-1.06-4.15m-4-2a.14.14,0,0,1,0,.06c-4.55,9.59-5.22,12.45,3.19,11.44m24.49-21.33c9.42,1.51-5.17-9.76-15.48-1.68-.54.42-1,.76-1.47,1.06-6.6,2-15,6.71-18.44,20.09"/><path class="cls-2" d="M89.4,220.47c-4.35,2-9.42,9.93-11.78,11.61s-4.37,7.74-3.36,9.93"/><path class="cls-2" d="M115,141.26c-2.58,19.39-2.58,39.26,6.77,76.38,1.32,5.21,5.25,7.81,3,0m52.36,26.46c-1.87.17-1.82-2.11.64-5.26s-.35-3.33-3.68-3.33-9.47,5.61-12.45,4.9-16.3-1.22-18,1.93c0,0-3-2.28-5.79-1.75m59.9-15.66c-17.53,10.75-48.39,3.74-54.7,1.4s-20.64-7.32-3.74.94,51.42,4.2,60.77,1.87m-53.82-8.48c5.79,2,5.91,5.91,34.19,5.91S219,188,221.3,174.68m-21.27,32c-3.05,4.4,4.52,0,9.82-12S219,156.22,219,139.85m-93-20.52a344.07,344.07,0,0,0,2.81,37.35c5.85,48.31,18.37,56,38.56,58.43,25.24,3,39.27-18.23,42.54-40.2,1.69-11.33,2.57-34.82,2.57-38.8M121.27,123c0,7.48,1.4,24.07,3.5,44a263.63,263.63,0,0,0,7.48,41.51c1.74,6,6.56,4.92,4.21,2.57"/><path class="cls-2" d="M191.6,51.61c-2.83-.19-6-.57-7.55-.57s-3.59,1.89-5.66-.19c-.67-.66,2.07-3.21,5.09-3.58M178,74.07a28.5,28.5,0,0,0-5.66-.19,31.5,31.5,0,0,0-7,1.14c-1.32.37.38,2.26,4.72,2.26s4.91-.94,9.06,1.7-3.21,5.66-4.72,4-2.26-3.39-5.28-1.13-6.42,4.34-10.76,1.7c-4.16.57-13.22-1.51-14.73-6s-1.32-23.6-1.32-28.32,1.89-7.36,4.53-12.08,7.75-6.81,13.4-7.74c20.77-3.4,10,6.23,12.46,6.8s1.14,3.4-.56,3.21-3.4-1.89-2.65.19,7,1.51,6.8,3-3.77,2.07-4,5.47.37,12.8-1.33,12.8-2.45,3.42-6.22,3.77c-1.14.11,2.07,1.55,5.09,1.37s3,2.83,1.32,2.45-4,1.7-7,3M168,49.26c1.67-2.9,1-7.63-6.92-7.1m17.08,0c2.64,0,12.08.19,14.91,2.64s2.83-5.47-2.26-10.38-7.37-6.61-13-6.61M152.7,46c-3,1.58-3.94,1.49-5.43,3.6-1.32,1.86-1.14,3,1,3.77s9-2.28,11.31-2.28"/><path class="cls-3" d="M155.19,53.48a10.93,10.93,0,0,1,5.13-1.35c2.87,0,3.91.9,3.91.9l-9.18.41Zm33.95.14A10.59,10.59,0,0,0,184,52.27c-2.88,0-3.92.9-3.92.9l9.18.4ZM180.57,72a23.34,23.34,0,0,0-6.92-1.76c-3.33-.17-9.12,2.19-9.55,2.28A34.76,34.76,0,0,1,180.57,72Z"/><path class="cls-2" d="M182.27,57.11c3.71-.46,7.24.24,10.28,4.21s1.87,12.16-.7,12.39"/><path class="cls-2" d="M79.78,298.79c3.15.35,3.5-1.05-.7-2.81s-7.72-1.75-9.82-5.26-.7-10.16-3.15-14.37-7.37-6.66-7.72-10.87-.7-8.06,2.46-9.11,2.1-3.16-3.51-3.86-11.22,2.1-11.92,6,4.91,14,8.77,17.88-1.06,4.91-5.26-1.75-8.42-14-6.31-16.13,5.61-8.77-4.56-4.91a9.3,9.3,0,0,0-6.31,9.12c0,4.91,4.91,16.83,7.71,18.93s8.77,6.31,10.52,6m57.5,8.06c.7-4.2-6.67-12.62-8.77-19.28s-2.8-16.48.7-19.28-3.15-3.51-5.26-2.11-7,1.41-11.92,1.41-11.57,3.85-8.76,8.76-4.91-3.5-4.56-6.31,3.51-6.66-2.8-4.56c-4.06,1.36-8.42,7.37-1.41,17.18m36.11.7c1.76,4.56,10.17,22.44,13.33,25.25s5.26.35,3.5-3.51m182-43.12c-4.56-1.06-7.36,0-7.71,2.45-.15,1,1.05,3.16,1.05,3.16s.35,5.61-.35,7.36-5.26,14.72-5.26,14.72-8.77,7.72-10.87,8.77-13.67,6.31-16.48,7-7,3.86-7,3.86m57.5-33.66c.35-1.4,6-8.41,5.61-10.87s-3.16-4.21-3.16-4.21m-33.3,42.78c3.15-2.46,13-16.13,14.37-17.88s2.45-.35,2.1,1.05-1.75,8.41-2.8,9.11-2.1,4.21-4.91,7.37-9.82,6-5.61,5.61m-80.28-24.2c-5.26,3.51-40.32,9.47-49.44,9.47-7.78,0,12.27,2.45,14,2.45h20.33c1.05,0,12.27-3.15,14.37-4.9s15.43-16.83,17.18-19.64,3.16-.7,3.16,1.06-1.4,7.36-4.21,9.46a45.61,45.61,0,0,0-5.61,5.26s-6.66,5.26-9.46,6.66-16.48,9.12-20.69,9.12-16.83-1.06-21.39-2.46-11.56-2.1-14.37-2.45m112.54,1.4c-1.75.7-5.61,4.91-5.61,4.91s9.47-4.21,14-6.66,10.52-7,11.22-8.07S287,264.78,288,262m-28.75,3.5c.35-1.4,4.91,1.4,4.91,2.46s-3.16,6.31-3.16,6.31l-6,5.61s9.82-4.21,11.92-6.31,6-6.32,6.31-7.72,3.16,2.81,2.81,4.56-3.16,9.47-3.16,9.47m-36.11,19.28c3.51,0,8.42-3.16,10.17-3.86s1.05-4.91,0-6-2.1,3.16-3.15,3.51-6.67,1.4-6.67,1.4,4.21-3.86,4.91-5.26m-5.26-22.79s-6.66,12.62-7.71,14-9.82,17.88-11.22,19.63,2.81.35,6.31-.35m-79.93-2.81h41.37c1.4,0,16.12,1.76,19.28.71s8.06-3.16,9.82-6.32,10.16-10.16,12.27-13.32,8.76-19.63,8.76-19.63"/><path class="cls-2" d="M142.19,81.47c1.5,1.5.7,9,.7,11s0,8.25-.35,6.85-2.45,2.1-1.75-1.76a38.29,38.29,0,0,0,.17-9A3.37,3.37,0,0,0,139,91.47c0,1.93.18,6.84.18,6.84s-1.93,3.69-1.05-4,.52-9.65.52-10.35S139.21,78.49,142.19,81.47Z"/><path class="cls-2" d="M109.05,239c-2.26,2.26-8.24,3.51-8.94,6s-3.5,5.09.53,4.73"/><path class="cls-1" d="M167.26,250.66s6.65.1,8.93.1,7-.35,8.24-.35,4.38.87,5.08,2.63,1.37,3.28-.17,3.68a34,34,0,0,1-7.63.42c-2.25-.13-10,.87-12,.75s-6.88.87-7.75.87-8.38-.75-10.13-.75-7.5.75-9.25.63S120.46,256,116.83,255"/><path class="cls-4" d="M248.26,163.07c-.18,1.75.94,3.32,2.92,2.88,1.45-.33,5.8-9.85,5.8-9.85s-2.79,6.8-3.32,7.67a6.77,6.77,0,0,0-1,3c0,2.81,2.38,4.2,4.53,3,1.22-.7,3.49-5.76,4.19-6.63s2.09-5.23,2.26-6.1a6.64,6.64,0,0,0-.35-3.14,3.42,3.42,0,0,0-1.91-1.92c-.7-.34-3.58,1.19-3.58,1.19a20.6,20.6,0,0,0,1.31-3.63,11.06,11.06,0,0,0-.87-3.83,2.94,2.94,0,0,0-1.92-1l-2.62.35-2.79,3.84-1.22-.53s-1.22-3.31-1.58-3.44-.16-4.58-.16-5.1.18-4.19.18-5.06v-7.84c0-2.27-.88-6.8-2.45-8.2s-2.09-1.57-3.48-.52-.7,11.16-.7,11.68-.7,10.81-.7,10.81v3.66s-1.74-.35-1.92-.87-1.91-3.66-2.09-4.18a48.94,48.94,0,0,1-.7-5.23c0-.7-1.74-7.68-1.74-8.9s-1.22-5-4.18-5.75-3,2.79-2.79,4.36.69,7.84,1.22,10.11,1.22,8.2,1.74,9.76,1.74,7.15,1.92,8.2a37.71,37.71,0,0,1,0,7.67c-.35,1.57-1.4,5.93-1.4,6.63s0,4.88-.17,7,2.27,11.51,2.27,11.51a4.16,4.16,0,0,0-2.95,5.14c.37,1.48,1.84,3,1.84,4.07s-.37,8.12-.37,8.12l-.37,3s-2.21,4.8-1.47,5.91a52.54,52.54,0,0,1,3.32,10"/><path class="cls-4" d="M262.27,161.64c3.19,7.68.72,13.35-3.72,19.74-1.94,2.78-2.19,6.8-6.63,6.8"/><path class="cls-4" d="M233.26,175.28c.18-1.05.46-9.46.93-10.83a7.46,7.46,0,0,1,2.56-3.82c1.74-1.57,4.67-3.5,5.76-5.23s2.26-3.14,3.83-3.49,2.78-.61,3.2,0c2-.42,5.48-2,6.25,0,1.25,3.16-3.52,8.22-6.31,8.39-1,2.23-2.34,2.61-2.09,4.36.34,2.49-1.26,3.21-1.26,3.21"/><path class="cls-2" d="M125,262.33c-1.41-4.91-6.32-8.42-8.07-4.56-.6,1.32-3.5,8.41-2.1,10.52"/><path class="cls-2" d="M22.63,288.27c-4.55-6.31-9.11-10.87-8.41-17.18s1.75-14.72,0-11.92a26.58,26.58,0,0,0-3.51,12.27c0,4.21,2.81,8.42,4.56,11.22s7,10.87,3.16,11.57"/><path class="cls-2" d="M140.43,274.6c3.16,2.1,24.54,4.91,33,4.2s40-17.17,41-19.63-3.16-2.1-5.61-.35S194.42,269.34,188.46,270s-30.15,2.45-32.6,1.4"/><path class="cls-2" d="M156.91,267.94c5.26,0,19.28.7,23.84,0"/><path class="cls-2" d="M98.45,254.36c0,.06-.08.15-.13.27.07-.11.13-.2.16-.26Z"/><path class="cls-2" d="M246.08,270.51c.7-2.46,3.5-6,3.85-3.16s-3.85,9.12-3.85,9.12,6-5.61,7.36-9.82,2.45-6,.7-8.06-11.57-1.4-11.57-1.4-2.45-1.41-3.86-.36c-2.64,2,5.61,5.26,4.21,9.82a93.63,93.63,0,0,1-5.26,11.92"/><path class="cls-2" d="M246.13,167.85s-1.47,1.1-3.89-.37"/><path class="cls-2" d="M238.36,167.27s4.25,4.39,6.67,3.66"/><path class="cls-2" d="M249.35,151.74c-.08.73.29,1.76,1,1.83a14.57,14.57,0,0,0,3.22-.95"/><path class="cls-5" d="M249.49,163.68a1.56,1.56,0,0,1,1.62-1.47c1.24.07,1.39,1,1.09,2"/><path class="cls-1" d="M195.57,104.44c1.32,14,1.85,74.76-3.94,82.65s-22.9,8.95-31.06,7.9-11.85-5.79-13.69-16.06-6.32-61.06-4.48-76.86"/><path class="cls-4" d="M237.72,190s2.22,1.48,9.23,2.22,10.71-5.91,10.71-5.91"/><path class="cls-4" d="M260.24,183.76l4.07,3s1.47,3.69.73,6.28a18.46,18.46,0,0,0-.37,5.91,70.74,70.74,0,0,1,1.85,7.38"/><path class="cls-1" d="M127.9,239.36c-2.49.5-5.36.5-7.73,2.49a21.22,21.22,0,0,0-4.12,4.25c-1.5,1.87-4.87,6.49-2,11.73"/><path class="cls-1" d="M130.61,236.73c1.19-1.65-1.75-3.85-1.75-3.85a15.94,15.94,0,0,0-8.76-5.79,19.71,19.71,0,0,1-3.51-4.38c-.52-.7-3.5-1.05-3.5-1.05l-.81-1.76c-.36-18.65-1.49-71.4.1-82.38"/><path class="cls-1" d="M121.15,243.92c5.78-3.51,15.95-2.1,17.88,1.4,0,0,6.31-1.22,9.81,1.76,0,0,9.83-2.83,14.73-1.93,1.78.32,4.65,1.95,4.78,2.95s-2,3.86-4.24,4.61-10.86,1.63-12.24,2-5.86,1-6.74,1.25-8-.37-8.86-.62"/><path class="cls-1" d="M275.76,251.46c-1.4,0-19.28,2.46-19.28,2.46s-5.26-.35-6.66-.35-14,1.75-14,1.75a5.27,5.27,0,0,0-3.85-2.11c-2.81-.35-14.38,1.06-15.78,4.21"/><path class="cls-1" d="M198.63,258.47c-7.36,2.1-47.28,1.63-54.69,1-1.73-.13-21.73-3.13-25.48-4.38s-3.75.25-4.25,1,1.75,4.25-6.5,1.75-8.5-4.5-15.5-3.5-10.9-1.07-16.45-1.79"/><path class="cls-5" d="M254.21,167.51c.25-1.06,1.93-2.87,3-2.25a2.12,2.12,0,0,1,.87,3.06"/></g></g></svg>