<?xml version="1.0" encoding="utf-8"?>
<!-- Generator: Adobe Illustrator 25.0.0, SVG Export Plug-In . SVG Version: 6.00 Build 0)  -->
<svg version="1.1" id="Layer_1" xmlns="http://www.w3.org/2000/svg" xmlns:xlink="http://www.w3.org/1999/xlink" x="0px" y="0px"
	 viewBox="0 0 341.6 303.2" style="enable-background:new 0 0 341.6 303.2;" xml:space="preserve">
<style type="text/css">
	*{vector-effect:non-scaling-stroke}
	.st0{fill:none;stroke:#000000;stroke-width:1.5;stroke-miterlimit:10;}
	.st1{fill:none;stroke:#000000;stroke-width:0.5;stroke-miterlimit:10;}
	.st2{fill:none;stroke:#000000;stroke-width:1.5;stroke-linecap:round;stroke-linejoin:round;}
	.st3{fill:none;stroke:#000000;stroke-width:0.5;stroke-linecap:round;stroke-linejoin:round;}
</style>
<g id="Layer_2_1_">
	<g id="Layer_1-2">
		<path class="st0" d="M341,265.5c-1-6.7-3.5-11.2-6.7-12.6s-10.6-5.3-12.3-5.5s-6.5,0.2-10.3,0.2s-8.6,3.3-12.9,1.9
			s-23.1,1.9-26,2.1s-3.3-2.1-3.7-3.5s4.7-4.7,4.9-7.2s-2.1-8-2.3-9.8s-0.2-3.7,0.9-7.9s-1.6-32.7-1.9-35.8s-3.5-18.5-3.7-20.8
			s-1.2-25-1.6-28.3s-7.2-18.9-12.9-22.9s-16.8-3.9-18.8-4.1c-3.7-0.5-7.4-1.3-11-2.4c-3-1-16.3-4.7-16.3-5.3S205,87.4,205,87.4
			c0.7-2.7,1.6-5.4,2.6-8.1c0.7-1.2,1.8-6.7,2.6-10.2s-0.4-7.5-0.5-10c-0.2-2.7-3.9-1.2-3.9-1.2l-0.2-2.1l-0.7-3.5l-0.2-5.1l0.7-2.5
			c0.2-1,0.2-2,0-3c0.7-1.1,1.2-1.8,0.2-3.3c0.7-1.6-1-3.7-2.6-4.5c0.5-0.9,1.1-2.6-0.9-2.6c0.7-1,0.7-3.3-1.2-3.5
			c0-1.6,1.1-3.1-1.6-2.8c0.2-1.4,0.7-3-2.3-2.8c0-1.8-0.5-2.3-2.6-2.6c-0.2-1.4-0.4-1.6-2.3-1.2c0-1.1,1.6-1.9-0.9-1.8
			c0.5-1.2,1.2-3.1-1.4-3.5c1.1-0.7,1.1-3.2-1.2-2.8c-0.5-1.4-0.9-1.9-3.2-2.4c0-2.1-0.7-3-3-2.8c-0.4-1.2-1.2-3.7-3.1-2.8
			c-0.2-0.5-0.9-1.4-3.2-0.4c-0.7-1.2-2.8-2.1-3.7-0.4c-1-1.2-2.6-1-4,0c-0.9-0.9-2.4-0.8-3.3,0.1c-0.2,0.2-0.3,0.4-0.4,0.6
			c-1.6-0.7-2.5,0.2-1.9,1.6c-1.2-0.3-2.6,0.7-2.6,2.6c-1.2-0.5-2.8,1.4-1.9,3.3c-1.6,0-1.6,1.6-1.1,3.5c-0.7-0.2-3.7,0.2-2.4,1.9
			c-1.2,0-3,0.7-2.3,2.6c-1.6-0.7-3-0.5-2.6,1.8c-2.1,1.2-2.8,1.8-2.1,3.7c-0.7,0.5-1.8,1.4-0.7,2.8c-1.6,0-3.1,1-2.6,3.1
			c-1.1-0.4-2.4,0.2-2.7,1.4c-0.1,0.4-0.1,0.7-0.1,1.1c-1.4,0-2.3,0.7-1.4,2.1c-1.8,1-0.7,3.3-0.7,3.3c-0.9,1.4-1.3,3.1-1.1,4.7
			c-1.4,1.4,0,3.2,0,3.7s0,3.2-0.5,3.3s0.4,2.6,0.4,2.6l-1.2,6.1l-1.6,1.2c0,0,0.4,3,0.4,3.7s-0.9,0.9-1.4,1.6s0.7,2.3,0.7,2.3
			l1.2,2.8c0.1,1.8,0.1,3.5,0,5.3c-0.2,1.8,1.6,6.3,1.6,10.5c-0.5,3.2-0.6,15-0.6,15l-2.1,1.1l-1.4,1.4l-2.8,0.9l-0.9,0.9
			c-0.8,0.6-1.8,1-2.8,1l-2,2l-2.4,1.1l-5.1,1.9h-6.3c-2.2,0.5-4.4,1.1-6.5,1.9c-1.2,0.4-2.4,0.9-3.5,1.6c-0.7,0.7-8.2,4-8.2,4
			s-2.8,2.6-3.5,3.3l-2.1,2.1l-1.2,2.6l-3,5.8c0.3,1.2,0.3,2.5,0,3.7c-0.5,1.9-1.6,10.1-1.6,10.1v4c0,1.2-1.4,4.4-1.6,5.8
			s-0.9,3-1.2,4.4s-0.2,5.6-0.2,7.2v4.2c0,2.1,0,4.2,0.2,6.3c0.2,1.2,0.2,2.3,0.2,3.5c0,0.8-0.1,1.6-0.2,2.3c-0.2,1.2-0.5-0.9-0.7,3
			s-0.2,6.8-0.2,7.9s0.5,3.3,0.2,4s-0.9,2.6-0.9,2.6l-2.6,8.6v4.7c0,0.7-0.7,2.6-0.7,3.5c-0.1,1-0.2,2-0.5,3c-0.2,1.6-0.5,3.3-0.5,4
			s0.5,3.5,0.5,3.5c0.4,0.6,0.6,1.4,0.5,2.1c-0.2,1.2-0.5,3-0.5,3l-1.4,4.9l-0.2,4c0,0.8,0.3,1.5,0.7,2.1c0.7,0.8,1.6,1.5,2.6,1.9
			l0.7,0.2l-0.9,1.4v4c0,0,0.3,0.3,0.8,0.8c-1.5-0.1-2.9-0.2-4.4-0.1c-2.8,0.4-6.7,0.7-15.4-1s-11.2,0.4-15.4,0.4
			c-10,0.4-20.1,1.5-30,3.2c-8.7,1.7-8.4,11.2-9.5,15.4s-1.4,13.3,1.8,19.3s3.9,9.8,9.8,11.6s13-1,17.9-0.7s16.5,0,19.3,0
			s16.1-1,22.1,0s16.1,1.4,20.7,0.7s16.5-0.7,20.7-0.7s52.6-1.4,56.1-1.4s17.5,1,21.4,1h10.5c5.7-0.1,11.5,0.3,17.2,1
			c7.4,1,11.2,1,20.3,1.4s79.2-3.5,85.9-3.1s9.8-3.2,10.9-7.7S342,272.1,341,265.5z M145.6,98.7l-0.9-11l3,4.4L145.6,98.7z
			 M197.7,94.5c-0.5,4.4-1.2,7.9-2.3,6.8s-1.9-7.7-1.9-7.7l4.2-5.4C200.7,87.7,198.2,90.1,197.7,94.5L197.7,94.5z M201,98.5
			l-0.7-2.1l1.6-3.3l1.4,4.7L201,98.5z"/>
		<path class="st1" d="M148.5,92.8c0,0-1.8,6.2-2.3,7.1c0.8,1,1.3,2.3,1.2,3.6"/>
		<path class="st1" d="M147.8,149c0,2.9,21.7,0.7,22.9-0.7s0.7-20.5,0.7-20.5"/>
		<path class="st1" d="M193.4,157.1c-1.7,1.7-13-4.1-17.5-5.8s-4.7-17.5-4.7-27"/>
		<path class="st1" d="M149.4,182.1c3.9-2.6,13.3-7.1,22.2-7.1c11.7,0,16.5,6.9,18.2,8.9l0.2,0.2"/>
		<path class="st1" d="M136.6,112.6c0.1,2.6,0.9,30.3,2.8,45.9s5.4,37.4,7.9,40s-3.9,1.9-5.4-6.1"/>
		<path class="st1" d="M205.6,119.3c0,5.6-2.2,59.9-9.9,70.6s-32.1,13.1-40.5,9.1"/>
		<path class="st1" d="M129,131.4c1.1,13.7,6.5,51,10.5,62.1c4.1,11.4,14.9,18.9,27,18.9c12.4,0,26.1-8.8,24.5-10.4
			s-20.6,8.2-31.1,4.2s0.2-2.6,10.4-2.6s18.8-3.6,26.4-11.9"/>
		<path class="st1" d="M176,197.8c7-1.6,17.5-2.3,20.8-15.2"/>
		<path class="st1" d="M96.3,213.2c3.5,1.4-3.5-13.3-4.2-27.7s-2.5-55.4,0.3-60.7"/>
		<path class="st1" d="M97,127c-1.8,7.4-0.7,51.9-0.7,62.8s9.1,25.6,10.5,27.4s-9.1,5.3-16.8-1.8s-7-21-7-34s-0.3-29.8,0.7-37.2"/>
		<path class="st1" d="M109.6,204.8c0.7,7.4-1.4,1.4-2.8-7.4"/>
		<path class="st1" d="M85,235.4C85,235.5,85,235.5,85,235.4c-4.6,9.6-5.2,12.5,3.2,11.5 M112.7,225.6c9.4,1.5-5.2-9.8-15.5-1.7
			c-0.5,0.4-1,0.8-1.5,1.1c-6.6,2-15,6.7-18.4,20.1"/>
		<path class="st1" d="M89.4,220.5c-4.3,2-9.4,9.9-11.8,11.6s-4.4,7.7-3.4,9.9"/>
		<path class="st1" d="M115,141.3c-2.6,19.4-2.6,39.3,6.8,76.4c1.3,5.2,5.2,7.8,3,0 M197.8,224.9c-17.5,10.8-48.4,3.7-54.7,1.4
			s-20.6-7.3-3.7,0.9s51.4,4.2,60.8,1.9 M146.3,220.7c5.8,2,5.9,5.9,34.2,5.9s38.5-38.6,40.8-51.9 M200,206.7c-3.1,4.4,4.5,0,9.8-12
			s9.1-38.5,9.1-54.8 M126,119.3c0.3,12.5,1.2,25,2.8,37.3c5.9,48.3,18.4,56,38.6,58.4c25.2,3,39.3-18.2,42.5-40.2
			c1.7-11.3,2.6-34.8,2.6-38.8 M121.3,123c0,7.5,1.4,24.1,3.5,44c1.4,14,3.9,27.9,7.5,41.5c1.7,6,6.6,4.9,4.2,2.6"/>
		<path class="st1" d="M191.6,51.6c-2.8-0.2-6-0.6-7.6-0.6s-3.6,1.9-5.7-0.2c-0.7-0.7,2.1-3.2,5.1-3.6 M178,74.1
			c-1.9-0.3-3.8-0.3-5.7-0.2c-2.4,0.1-4.7,0.5-7,1.1c-1.3,0.4,0.4,2.3,4.7,2.3s4.9-0.9,9.1,1.7s-3.2,5.7-4.7,4s-2.3-3.4-5.3-1.1
			s-6.4,4.3-10.8,1.7c-4.2,0.6-13.2-1.5-14.7-6s-1.3-23.6-1.3-28.3s1.9-7.4,4.5-12.1s7.8-6.8,13.4-7.7c20.8-3.4,10,6.2,12.5,6.8
			s1.1,3.4-0.6,3.2s-3.4-1.9-2.6,0.2s7,1.5,6.8,3s-3.8,2.1-4,5.5s0.4,12.8-1.3,12.8s-2.4,3.4-6.2,3.8c-1.1,0.1,2.1,1.6,5.1,1.4
			s3,2.8,1.3,2.4s-4,1.7-7,3 M168,49.3c1.7-2.9,1-7.6-6.9-7.1 M178.2,42.2c2.6,0,12.1,0.2,14.9,2.6s2.8-5.5-2.3-10.4
			s-7.4-6.6-13-6.6 M152.7,46c-3,1.6-3.9,1.5-5.4,3.6c-1.3,1.9-1.1,3,1,3.8s9-2.3,11.3-2.3"/>
		<path d="M155.2,53.5c1.6-0.9,3.3-1.3,5.1-1.3c2.9,0,3.9,0.9,3.9,0.9l-9.2,0.4L155.2,53.5z M189.1,53.6c-1.6-0.9-3.3-1.3-5.1-1.3
			c-2.9,0-3.9,0.9-3.9,0.9l9.2,0.4L189.1,53.6z M180.6,72c-2.2-0.9-4.5-1.5-6.9-1.8c-3.3-0.2-9.1,2.2-9.6,2.3
			C169.5,71,175.1,70.9,180.6,72z"/>
		<path class="st1" d="M182.3,57.1c3.7-0.5,7.2,0.2,10.3,4.2s1.9,12.2-0.7,12.4"/>
		<path class="st1" d="M79.8,298.8c3.2,0.4,3.5-1-0.7-2.8s-7.7-1.8-9.8-5.3s-0.7-10.2-3.2-14.4s-7.4-6.7-7.7-10.9s-0.7-8.1,2.5-9.1
			c3.2-1,2.1-3.2-3.5-3.9s-11.2,2.1-11.9,6c-0.7,3.9,4.9,14,8.8,17.9s-1.1,4.9-5.3-1.8s-8.4-14-6.3-16.1s5.6-8.8-4.6-4.9
			c-3.9,1.3-6.4,5-6.3,9.1c0,4.9,4.9,16.8,7.7,18.9s8.8,6.3,10.5,6 M100.8,272.2c1.8,4.6,10.2,22.4,13.3,25.2s5.3,0.4,3.5-3.5
			 M299.6,250.8c-4.6-1.1-7.4,0-7.7,2.4c-0.1,1,1,3.2,1,3.2s0.4,5.6-0.4,7.4s-5.3,14.7-5.3,14.7s-8.8,7.7-10.9,8.8s-13.7,6.3-16.5,7
			s-7,3.9-7,3.9 M310.5,264.5c0.4-1.4,6-8.4,5.6-10.9s-3.2-4.2-3.2-4.2 M258.9,288.7c-1.8,0.7-5.6,4.9-5.6,4.9s9.5-4.2,14-6.7
			s10.5-7,11.2-8.1s8.4-14.1,9.4-16.9 M144.2,296.6h41.4c1.4,0,16.1,1.8,19.3,0.7s8.1-3.2,9.8-6.3s10.2-10.2,12.3-13.3
			s8.8-19.6,8.8-19.6"/>
		<path class="st1" d="M142.2,81.5c1.5,1.5,0.7,9,0.7,11s0,8.2-0.4,6.8s-2.4,2.1-1.8-1.8c0.4-3,0.5-6,0.2-9c-1.1,0.5-1.9,1.6-2,2.9
			c0,1.9,0.2,6.8,0.2,6.8s-1.9,3.7-1.1-4s0.5-9.7,0.5-10.3S139.2,78.5,142.2,81.5z"/>
		<path class="st1" d="M109.1,239c-2.3,2.3-8.2,3.5-8.9,6s-3.5,5.1,0.5,4.7"/>
		<path class="st0" d="M167.3,250.7c0,0,6.6,0.1,8.9,0.1s7-0.4,8.2-0.4s4.4,0.9,5.1,2.6s1.4,3.3-0.2,3.7c-2.5,0.4-5.1,0.6-7.6,0.4
			c-2.2-0.1-10,0.9-12,0.8s-6.9,0.9-7.8,0.9s-8.4-0.8-10.1-0.8s-7.5,0.8-9.2,0.6s-22.1-2.6-25.8-3.6"/>
		<path class="st2" d="M248.3,163.1c-0.2,1.8,0.9,3.3,2.9,2.9c1.4-0.3,5.8-9.9,5.8-9.9s-2.8,6.8-3.3,7.7c-0.6,0.9-0.9,1.9-1,3
			c0,2.8,2.4,4.2,4.5,3c1.2-0.7,3.5-5.8,4.2-6.6s2.1-5.2,2.3-6.1c0.1-1.1,0-2.1-0.4-3.1c-0.3-0.9-1-1.6-1.9-1.9
			c-0.7-0.3-3.6,1.2-3.6,1.2c0.5-1.2,1-2.4,1.3-3.6c-0.1-1.3-0.4-2.6-0.9-3.8c-0.5-0.6-1.2-0.9-1.9-1l-2.6,0.4l-2.8,3.8l-1.2-0.5
			c0,0-1.2-3.3-1.6-3.4s-0.2-4.6-0.2-5.1s0.2-4.2,0.2-5.1v-7.8c0-2.3-0.9-6.8-2.4-8.2s-2.1-1.6-3.5-0.5s-0.7,11.2-0.7,11.7
			s-0.7,10.8-0.7,10.8v3.7c0,0-1.7-0.4-1.9-0.9s-1.9-3.7-2.1-4.2c-0.3-1.7-0.6-3.5-0.7-5.2c0-0.7-1.7-7.7-1.7-8.9s-1.2-5-4.2-5.8
			s-3,2.8-2.8,4.4s0.7,7.8,1.2,10.1s1.2,8.2,1.7,9.8s1.7,7.1,1.9,8.2c0.3,2.6,0.3,5.1,0,7.7c-0.4,1.6-1.4,5.9-1.4,6.6s0,4.9-0.2,7
			s2.3,11.5,2.3,11.5c-2.2,0.6-3.6,2.9-3,5.1c0,0,0,0,0,0.1c0.4,1.5,1.8,3,1.8,4.1s-0.4,8.1-0.4,8.1l-0.4,3c0,0-2.2,4.8-1.5,5.9
			c1.4,3.2,2.6,6.6,3.3,10"/>
		<path class="st2" d="M262.3,161.6c3.2,7.7,0.7,13.4-3.7,19.7c-1.9,2.8-2.2,6.8-6.6,6.8"/>
		<path class="st2" d="M233.3,175.3c0.2-1.1,0.5-9.5,0.9-10.8c0.4-1.5,1.3-2.8,2.6-3.8c1.7-1.6,4.7-3.5,5.8-5.2s2.3-3.1,3.8-3.5
			s2.8-0.6,3.2,0c2-0.4,5.5-2,6.2,0c1.2,3.2-3.5,8.2-6.3,8.4c-1,2.2-2.3,2.6-2.1,4.4c0.3,2.5-1.3,3.2-1.3,3.2"/>
		<path class="st1" d="M125,262.3c-1.4-4.9-6.3-8.4-8.1-4.6c-0.6,1.3-3.5,8.4-2.1,10.5"/>
		<path class="st1" d="M22.6,288.3c-4.6-6.3-9.1-10.9-8.4-17.2s1.8-14.7,0-11.9c-2.1,3.7-3.4,8-3.5,12.3c0,4.2,2.8,8.4,4.6,11.2
			s7,10.9,3.2,11.6"/>
		<path class="st1" d="M140.4,274.6c3.2,2.1,24.5,4.9,33,4.2s40-17.2,41-19.6s-3.2-2.1-5.6-0.4s-14.4,10.5-20.4,11.2
			s-30.1,2.5-32.6,1.4"/>
		<path class="st1" d="M156.9,267.9c5.3,0,19.3,0.7,23.8,0"/>
		<path class="st1" d="M98.4,254.4c0,0.1-0.1,0.1-0.1,0.3C98.4,254.5,98.4,254.4,98.4,254.4L98.4,254.4z"/>
		<path class="st1" d="M246.1,167.9c0,0-1.5,1.1-3.9-0.4"/>
		<path class="st1" d="M238.4,167.3c0,0,4.2,4.4,6.7,3.7"/>
		<path class="st1" d="M249.4,151.7c-0.1,0.7,0.3,1.8,1,1.8c1.1-0.2,2.2-0.5,3.2-0.9"/>
		<path class="st3" d="M249.5,163.7c0-0.8,0.8-1.5,1.6-1.5c1.2,0.1,1.4,1,1.1,2"/>
		<path class="st0" d="M195.6,104.4c1.3,14,1.9,74.8-3.9,82.6s-22.9,8.9-31.1,7.9s-11.9-5.8-13.7-16.1s-6.3-61.1-4.5-76.9"/>
		<path class="st2" d="M237.7,190c0,0,2.2,1.5,9.2,2.2s10.7-5.9,10.7-5.9"/>
		<path class="st2" d="M260.2,183.8l4.1,3c0,0,1.5,3.7,0.7,6.3c-0.4,1.9-0.6,3.9-0.4,5.9c0.7,2.4,1.4,4.9,1.9,7.4"/>
		<path class="st0" d="M127.9,239.4c-2.5,0.5-5.4,0.5-7.7,2.5c-1.6,1.2-3,2.6-4.1,4.2c-1.5,1.9-4.9,6.5-2,11.7"/>
		<path class="st0" d="M130.6,236.7c1.2-1.6-1.8-3.9-1.8-3.9c-2.2-2.9-5.3-4.9-8.8-5.8c-1.4-1.3-2.6-2.8-3.5-4.4
			c-0.5-0.7-3.5-1.1-3.5-1.1l-0.8-1.8c-0.4-18.6-1.5-71.4,0.1-82.4"/>
		<path class="st0" d="M121.2,243.9c5.8-3.5,16-2.1,17.9,1.4c0,0,6.3-1.2,9.8,1.8c0,0,9.8-2.8,14.7-1.9c1.8,0.3,4.6,1.9,4.8,2.9
			s-2,3.9-4.2,4.6s-10.9,1.6-12.2,2s-5.9,1-6.7,1.2s-8-0.4-8.9-0.6"/>
		<path class="st0" d="M275.8,251.5c-1.4,0-19.3,2.5-19.3,2.5s-5.3-0.4-6.7-0.4s-14,1.8-14,1.8c-0.9-1.2-2.3-2-3.9-2.1
			c-2.8-0.4-14.4,1.1-15.8,4.2"/>
		<path class="st0" d="M198.6,258.5c-7.4,2.1-47.3,1.6-54.7,1c-1.7-0.1-21.7-3.1-25.5-4.4s-3.8,0.2-4.2,1s1.8,4.2-6.5,1.8
			s-8.5-4.5-15.5-3.5s-10.9-1.1-16.4-1.8"/>
		<path class="st3" d="M254.2,167.5c0.2-1.1,1.9-2.9,3-2.2c1.1,0.5,1.5,1.8,1,2.8c0,0.1-0.1,0.2-0.1,0.2"/>
	</g>
</g>
</svg>
