<?xml version="1.0" encoding="utf-8"?>
<!-- Generator: Adobe Illustrator 25.2.0, SVG Export Plug-In . SVG Version: 6.00 Build 0)  -->
<svg version="1.1" id="Layer_1" xmlns="http://www.w3.org/2000/svg" xmlns:xlink="http://www.w3.org/1999/xlink" x="0px" y="0px"
	 viewBox="0 0 600 600" style="enable-background:new 0 0 600 600;" xml:space="preserve">
<style type="text/css">
	*{vector-effect:non-scaling-stroke}
	.st0{fill:none;stroke:#000000;stroke-width:1.5;stroke-miterlimit:10;}
	.st1{fill:none;stroke:#000000;stroke-width:0.5;stroke-miterlimit:10;}
	.st2{fill:none;stroke:#000000;stroke-width:1.5;stroke-linecap:round;stroke-linejoin:round;}
	.st3{fill:none;stroke:#000000;stroke-width:0.5;stroke-linecap:round;stroke-linejoin:round;}
</style>
<g id="Layer_2_1_">
	<g id="Layer_1-2">
		<path class="st0" d="M593.4,496.9c-1.7-11.6-6-19.3-11.6-21.7c-5.5-2.4-18.3-9.1-21.2-9.5c-2.9-0.3-11.2,0.3-17.8,0.3
			c-6.6,0-14.8,5.7-22.3,3.3c-7.4-2.4-39.9,3.3-44.9,3.6c-5,0.3-5.7-3.6-6.4-6c-0.7-2.4,8.1-8.1,8.5-12.4c0.3-4.3-3.6-13.8-4-16.9
			c-0.3-3.1-0.3-6.4,1.6-13.6c1.9-7.2-2.8-56.4-3.3-61.8c-0.5-5.3-6-31.9-6.4-35.9c-0.3-4-2.1-43.1-2.8-48.8
			c-0.7-5.7-12.4-32.6-22.3-39.5c-9.8-6.9-29-6.7-32.4-7.1c-6.4-0.9-12.8-2.2-19-4.1c-5.2-1.7-28.1-8.1-28.1-9.1s-2.4-27.9-2.4-27.9
			c1.2-4.7,2.8-9.3,4.5-14c1.2-2.1,3.1-11.6,4.5-17.6c1.4-6-0.7-12.9-0.9-17.3c-0.3-4.7-6.7-2.1-6.7-2.1l-0.3-3.6l-1.2-6l-0.3-8.8
			l1.2-4.3c0.3-1.7,0.3-3.5,0-5.2c1.2-1.9,2.1-3.1,0.3-5.7c1.2-2.8-1.7-6.4-4.5-7.8c0.9-1.6,1.9-4.5-1.6-4.5c1.2-1.7,1.2-5.7-2.1-6
			c0-2.8,1.9-5.3-2.8-4.8c0.3-2.4,1.2-5.2-4-4.8c0-3.1-0.9-4-4.5-4.5c-0.3-2.4-0.7-2.8-4-2.1c0-1.9,2.8-3.3-1.6-3.1
			c0.9-2.1,2.1-5.3-2.4-6c1.9-1.2,1.9-5.5-2.1-4.8c-0.9-2.4-1.6-3.3-5.5-4.1c0-3.6-1.2-5.2-5.2-4.8c-0.7-2.1-2.1-6.4-5.3-4.8
			c-0.3-0.9-1.6-2.4-5.5-0.7c-1.2-2.1-4.8-3.6-6.4-0.7c-1.7-2.1-4.5-1.7-6.9,0c-1.6-1.6-4.1-1.4-5.7,0.2c-0.3,0.3-0.5,0.7-0.7,1
			c-2.8-1.2-4.3,0.3-3.3,2.8c-2.1-0.5-4.5,1.2-4.5,4.5c-2.1-0.9-4.8,2.4-3.3,5.7c-2.8,0-2.8,2.8-1.9,6c-1.2-0.3-6.4,0.3-4.1,3.3
			c-2.1,0-5.2,1.2-4,4.5c-2.8-1.2-5.2-0.9-4.5,3.1c-3.6,2.1-4.8,3.1-3.6,6.4c-1.2,0.9-3.1,2.4-1.2,4.8c-2.8,0-5.3,1.7-4.5,5.3
			c-1.9-0.7-4.1,0.3-4.7,2.4c-0.2,0.7-0.2,1.2-0.2,1.9c-2.4,0-4,1.2-2.4,3.6c-3.1,1.7-1.2,5.7-1.2,5.7c-1.6,2.4-2.2,5.3-1.9,8.1
			c-2.4,2.4,0,5.5,0,6.4s0,5.5-0.9,5.7c-0.9,0.2,0.7,4.5,0.7,4.5l-2.1,10.5l-2.8,2.1c0,0,0.7,5.2,0.7,6.4s-1.6,1.6-2.4,2.8
			c-0.9,1.2,1.2,4,1.2,4l2.1,4.8c0.2,3.1,0.2,6,0,9.1c-0.3,3.1,2.8,10.9,2.8,18.1c-0.9,5.5-1,25.9-1,25.9l-3.6,1.9l-2.4,2.4
			l-4.8,1.6l-1.6,1.6c-1.4,1-3.1,1.7-4.8,1.7l-3.5,3.5l-4.1,1.9l-8.8,3.3h-10.9c-3.8,0.9-7.6,1.9-11.2,3.3c-2.1,0.7-4.1,1.6-6,2.8
			c-1.2,1.2-14.1,6.9-14.1,6.9s-4.8,4.5-6,5.7l-3.6,3.6l-2.1,4.5l-5.2,10c0.5,2.1,0.5,4.3,0,6.4c-0.9,3.3-2.8,17.4-2.8,17.4v6.9
			c0,2.1-2.4,7.6-2.8,10c-0.3,2.4-1.6,5.2-2.1,7.6c-0.5,2.4-0.3,9.7-0.3,12.4v7.2c0,3.6,0,7.2,0.3,10.9c0.3,2.1,0.3,4,0.3,6
			c0,1.4-0.2,2.8-0.3,4c-0.3,2.1-0.9-1.6-1.2,5.2c-0.3,6.7-0.3,11.7-0.3,13.6s0.9,5.7,0.3,6.9c-0.5,1.2-1.6,4.5-1.6,4.5l-4.5,14.8
			v8.1c0,1.2-1.2,4.5-1.2,6c-0.2,1.7-0.3,3.5-0.9,5.2c-0.3,2.8-0.9,5.7-0.9,6.9c0,1.2,0.9,6,0.9,6c0.7,1,1,2.4,0.9,3.6
			c-0.3,2.1-0.9,5.2-0.9,5.2l-2.4,8.5l-0.3,6.9c0,1.4,0.5,2.6,1.2,3.6c1.2,1.4,2.8,2.6,4.5,3.3l1.2,0.3l-1.6,2.4v6.9
			c0,0,0.5,0.5,1.4,1.4c-2.6-0.2-5-0.3-7.6-0.2c-4.8,0.7-11.6,1.2-26.6-1.7c-15-2.9-19.3,0.7-26.6,0.7c-17.3,0.7-34.7,2.6-51.8,5.5
			c-15,2.9-14.5,19.3-16.4,26.6s-2.4,22.9,3.1,33.3s6.7,16.9,16.9,20c10.2,3.1,22.4-1.7,30.9-1.2c8.5,0.5,28.5,0,33.3,0
			c4.8,0,27.8-1.7,38.1,0c10.4,1.7,27.8,2.4,35.7,1.2c7.9-1.2,28.5-1.2,35.7-1.2s90.7-2.4,96.8-2.4c6,0,30.2,1.7,36.9,1.7h18.1
			c9.8-0.2,19.8,0.5,29.7,1.7c12.8,1.7,19.3,1.7,35,2.4c15.7,0.7,136.6-6,148.2-5.3c11.6,0.7,16.9-5.5,18.8-13.3
			C586.8,533.8,595.1,508.2,593.4,496.9z M256.3,209.1l-1.6-19l5.2,7.6L256.3,209.1z M346.2,201.8c-0.9,7.6-2.1,13.6-4,11.7
			c-1.9-1.9-3.3-13.3-3.3-13.3l7.2-9.3C351.3,190.1,347,194.3,346.2,201.8L346.2,201.8z M351.9,208.7l-1.2-3.6l2.8-5.7l2.4,8.1
			L351.9,208.7z"/>
		<path class="st1" d="M261.3,198.9c0,0-3.1,10.7-4,12.2c1.4,1.7,2.2,4,2.1,6.2"/>
		<path class="st1" d="M260.1,295.9c0,5,37.4,1.2,39.5-1.2s1.2-35.4,1.2-35.4"/>
		<path class="st1" d="M338.8,309.8c-2.9,2.9-22.4-7.1-30.2-10s-8.1-30.2-8.1-46.6"/>
		<path class="st1" d="M262.8,353c6.7-4.5,22.9-12.2,38.3-12.2c20.2,0,28.5,11.9,31.4,15.4l0.3,0.3"/>
		<path class="st1" d="M240.8,233.1c0.2,4.5,1.6,52.3,4.8,79.2c3.3,26.9,9.3,64.5,13.6,69c4.3,4.5-6.7,3.3-9.3-10.5"/>
		<path class="st1" d="M359.8,244.6c0,9.7-3.8,103.3-17.1,121.8c-13.3,18.5-55.4,22.6-69.9,15.7"/>
		<path class="st1" d="M227.7,265.5c1.9,23.6,11.2,88,18.1,107.1c7.1,19.7,25.7,32.6,46.6,32.6c21.4,0,45-15.2,42.3-17.9
			c-2.8-2.8-35.5,14.1-53.7,7.2c-18.1-6.9,0.3-4.5,17.9-4.5c17.6,0,32.4-6.2,45.5-20.5"/>
		<path class="st1" d="M308.7,380.1c12.1-2.8,30.2-4,35.9-26.2"/>
		<path class="st1" d="M171.2,406.6c6,2.4-6-22.9-7.2-47.8c-1.2-24.8-4.3-95.6,0.5-104.7"/>
		<path class="st1" d="M172.4,257.9c-3.1,12.8-1.2,89.5-1.2,108.3c0,18.8,15.7,44.2,18.1,47.3c2.4,3.1-15.7,9.1-29-3.1
			c-13.3-12.2-12.1-36.2-12.1-58.7c0-22.4-0.5-51.4,1.2-64.2"/>
		<path class="st1" d="M194.2,392.1c1.2,12.8-2.4,2.4-4.8-12.8"/>
		<path class="st1" d="M151.7,444.9C151.7,445.1,151.7,445.1,151.7,444.9c-7.9,16.6-9,21.6,5.5,19.8 M199.5,428
			c16.2,2.6-9-16.9-26.7-2.9c-0.9,0.7-1.7,1.4-2.6,1.9c-11.4,3.5-25.9,11.6-31.7,34.7"/>
		<path class="st1" d="M159.3,419.2c-7.4,3.5-16.2,17.1-20.4,20c-4.1,2.9-7.6,13.3-5.9,17.1"/>
		<path class="st1" d="M203.5,282.6c-4.5,33.5-4.5,67.8,11.7,131.8c2.2,9,9,13.5,5.2,0 M346.3,426.8c-30.2,18.6-83.5,6.4-94.4,2.4
			c-10.9-4-35.5-12.6-6.4,1.6c29.2,14.1,88.7,7.2,104.9,3.3 M257.5,419.6c10,3.5,10.2,10.2,59,10.2s66.4-66.6,70.4-89.5
			 M350.1,395.4c-5.3,7.6,7.8,0,16.9-20.7c9.1-20.7,15.7-66.4,15.7-94.5 M222.5,244.6c0.5,21.6,2.1,43.1,4.8,64.4
			c10.2,83.3,31.7,96.6,66.6,100.8c43.5,5.2,67.8-31.4,73.3-69.4c2.9-19.5,4.5-60,4.5-66.9 M214.4,251c0,12.9,2.4,41.6,6,75.9
			c2.4,24.2,6.7,48.1,12.9,71.6c2.9,10.4,11.4,8.5,7.2,4.5"/>
		<path class="st1" d="M335.6,127.8c-4.8-0.3-10.4-1-13.1-1c-2.8,0-6.2,3.3-9.8-0.3c-1.2-1.2,3.6-5.5,8.8-6.2 M312.2,166.6
			c-3.3-0.5-6.6-0.5-9.8-0.3c-4.1,0.2-8.1,0.9-12.1,1.9c-2.2,0.7,0.7,4,8.1,4c7.4,0,8.5-1.6,15.7,2.9s-5.5,9.8-8.1,6.9
			c-2.6-2.9-4-5.9-9.1-1.9c-5.2,4-11,7.4-18.6,2.9c-7.2,1-22.8-2.6-25.4-10.4c-2.6-7.8-2.2-40.7-2.2-48.8s3.3-12.8,7.8-20.9
			c4.5-8.1,13.5-11.7,23.1-13.3c35.9-5.9,17.3,10.7,21.6,11.7c4.3,1,1.9,5.9-1,5.5c-2.9-0.3-5.9-3.3-4.5,0.3
			c1.4,3.6,12.1,2.6,11.7,5.2c-0.3,2.6-6.6,3.6-6.9,9.5c-0.3,5.9,0.7,22.1-2.2,22.1s-4.1,5.9-10.7,6.6c-1.9,0.2,3.6,2.8,8.8,2.4
			c5.2-0.3,5.2,4.8,2.2,4.1c-2.9-0.7-6.9,2.9-12.1,5.2 M294.9,123.9c2.9-5,1.7-13.1-11.9-12.2 M312.5,111.6c4.5,0,20.9,0.3,25.7,4.5
			s4.8-9.5-4-17.9c-8.8-8.5-12.8-11.4-22.4-11.4 M268.5,118.2c-5.2,2.8-6.7,2.6-9.3,6.2c-2.2,3.3-1.9,5.2,1.7,6.6s15.5-4,19.5-4"/>
		<path d="M272.9,131.1c2.8-1.6,5.7-2.2,8.8-2.2c5,0,6.7,1.6,6.7,1.6l-15.9,0.7L272.9,131.1z M331.3,131.3c-2.8-1.6-5.7-2.2-8.8-2.2
			c-5,0-6.7,1.6-6.7,1.6l15.9,0.7H331.3z M316.7,163c-3.8-1.6-7.8-2.6-11.9-3.1c-5.7-0.3-15.7,3.8-16.6,4
			C297.5,161.3,307.2,161.1,316.7,163z"/>
		<path class="st1" d="M319.6,137.3c6.4-0.9,12.4,0.3,17.8,7.2c5.3,6.9,3.3,21-1.2,21.4"/>
		<path class="st1" d="M142.8,554.3c5.5,0.7,6-1.7-1.2-4.8c-7.2-3.1-13.3-3.1-16.9-9.1c-3.6-6-1.2-17.6-5.5-24.8
			c-4.3-7.2-12.8-11.6-13.3-18.8s-1.2-14,4.3-15.7s3.6-5.5-6-6.7c-9.7-1.2-19.3,3.6-20.5,10.4s8.5,24.2,15.2,30.9
			c6.7,6.7-1.9,8.5-9.1-3.1c-7.2-11.6-14.5-24.2-10.9-27.8c3.6-3.6,9.7-15.2-7.9-8.5c-6.7,2.2-11,8.6-10.9,15.7
			c0,8.5,8.5,29,13.3,32.6c4.8,3.6,15.2,10.9,18.1,10.4 M179,508.4c3.1,7.9,17.6,38.6,22.9,43.5c5.3,4.8,9.1,0.7,6-6 M522,471.5
			c-7.9-1.9-12.8,0-13.3,4.1c-0.2,1.7,1.7,5.5,1.7,5.5s0.7,9.7-0.7,12.8c-1.4,3.1-9.1,25.4-9.1,25.4s-15.2,13.3-18.8,15.2
			c-3.6,1.9-23.6,10.9-28.5,12.1c-4.8,1.2-12.1,6.7-12.1,6.7 M540.8,495.1c0.7-2.4,10.4-14.5,9.7-18.8s-5.5-7.2-5.5-7.2
			 M451.8,536.9c-3.1,1.2-9.7,8.5-9.7,8.5s16.4-7.2,24.2-11.6c7.8-4.3,18.1-12.1,19.3-14c1.2-1.9,14.5-24.3,16.2-29.2 M253.9,550.5
			h71.4c2.4,0,27.8,3.1,33.3,1.2c5.5-1.9,14-5.5,16.9-10.9s17.6-17.6,21.2-22.9s15.2-33.8,15.2-33.8"/>
		<path class="st1" d="M250.4,179.4c2.6,2.6,1.2,15.5,1.2,19s0,14.1-0.7,11.7c-0.7-2.4-4.1,3.6-3.1-3.1c0.7-5.2,0.9-10.4,0.3-15.5
			c-1.9,0.9-3.3,2.8-3.5,5c0,3.3,0.3,11.7,0.3,11.7s-3.3,6.4-1.9-6.9c1.4-13.3,0.9-16.7,0.9-17.8S245.2,174.2,250.4,179.4z"/>
		<path class="st1" d="M193.3,451.1c-4,4-14.1,6-15.4,10.4c-1.2,4.3-6,8.8,0.9,8.1"/>
		<path class="st0" d="M293.7,471.3c0,0,11.4,0.2,15.4,0.2c4,0,12.1-0.7,14.1-0.7s7.6,1.6,8.8,4.5s2.4,5.7-0.3,6.4
			c-4.3,0.7-8.8,1-13.1,0.7c-3.8-0.2-17.3,1.6-20.7,1.4c-3.5-0.2-11.9,1.6-13.5,1.6s-14.5-1.4-17.4-1.4s-12.9,1.4-15.9,1
			c-2.9-0.3-38.1-4.5-44.5-6.2"/>
		<path class="st2" d="M433.5,320.2c-0.3,3.1,1.6,5.7,5,5c2.4-0.5,10-17.1,10-17.1s-4.8,11.7-5.7,13.3c-1,1.6-1.6,3.3-1.7,5.2
			c0,4.8,4.1,7.2,7.8,5.2c2.1-1.2,6-10,7.2-11.4c1.2-1.4,3.6-9,4-10.5c0.2-1.9,0-3.6-0.7-5.3c-0.5-1.6-1.7-2.8-3.3-3.3
			c-1.2-0.5-6.2,2.1-6.2,2.1c0.9-2.1,1.7-4.1,2.2-6.2c-0.2-2.2-0.7-4.5-1.6-6.6c-0.9-1-2.1-1.6-3.3-1.7l-4.5,0.7L438,296l-2.1-0.9
			c0,0-2.1-5.7-2.8-5.9s-0.3-7.9-0.3-8.8s0.3-7.2,0.3-8.8v-13.5c0-4-1.6-11.7-4.1-14.1s-3.6-2.8-6-0.9s-1.2,19.3-1.2,20.2
			s-1.2,18.6-1.2,18.6v6.4c0,0-2.9-0.7-3.3-1.6c-0.3-0.9-3.3-6.4-3.6-7.2c-0.5-2.9-1-6-1.2-9c0-1.2-2.9-13.3-2.9-15.4
			s-2.1-8.6-7.2-10c-5.2-1.4-5.2,4.8-4.8,7.6s1.2,13.5,2.1,17.4c0.9,4,2.1,14.1,2.9,16.9c0.9,2.8,2.9,12.2,3.3,14.1
			c0.5,4.5,0.5,8.8,0,13.3c-0.7,2.8-2.4,10.2-2.4,11.4s0,8.5-0.3,12.1c-0.3,3.6,4,19.8,4,19.8c-3.8,1-6.2,5-5.2,8.8c0,0,0,0,0,0.2
			c0.7,2.6,3.1,5.2,3.1,7.1c0,1.9-0.7,14-0.7,14l-0.7,5.2c0,0-3.8,8.3-2.6,10.2c2.4,5.5,4.5,11.4,5.7,17.3"/>
		<path class="st2" d="M457.6,317.6c5.5,13.3,1.2,23.1-6.4,34c-3.3,4.8-3.8,11.7-11.4,11.7"/>
		<path class="st2" d="M407.6,341.2c0.3-1.9,0.9-16.4,1.6-18.6c0.7-2.6,2.2-4.8,4.5-6.6c2.9-2.8,8.1-6,10-9c1.9-2.9,4-5.3,6.6-6
			c2.6-0.7,4.8-1,5.5,0c3.5-0.7,9.5-3.5,10.7,0c2.1,5.5-6,14.1-10.9,14.5c-1.7,3.8-4,4.5-3.6,7.6c0.5,4.3-2.2,5.5-2.2,5.5"/>
		<path class="st1" d="M220.7,491.3c-2.4-8.5-10.9-14.5-14-7.9c-1,2.2-6,14.5-3.6,18.1"/>
		<path class="st1" d="M44.1,536.2c-7.9-10.9-15.7-18.8-14.5-29.7c1.2-10.9,3.1-25.4,0-20.5c-3.6,6.4-5.9,13.8-6,21.2
			c0,7.2,4.8,14.5,7.9,19.3c3.1,4.8,12.1,18.8,5.5,20"/>
		<path class="st1" d="M247.3,512.6c5.5,3.6,42.3,8.5,56.9,7.2c14.7-1.2,69-29.7,70.7-33.8s-5.5-3.6-9.7-0.7s-24.8,18.1-35.2,19.3
			s-51.9,4.3-56.2,2.4"/>
		<path class="st1" d="M275.8,501c9.1,0,33.3,1.2,41.1,0"/>
		<path class="st1" d="M174.9,477.7c0,0.2-0.2,0.2-0.2,0.5C174.9,477.9,174.9,477.7,174.9,477.7L174.9,477.7z"/>
		<path class="st1" d="M429.7,328.5c0,0-2.6,1.9-6.7-0.7"/>
		<path class="st1" d="M416.4,327.4c0,0,7.2,7.6,11.6,6.4"/>
		<path class="st1" d="M435.4,300.5c-0.2,1.2,0.5,3.1,1.7,3.1c1.9-0.3,3.8-0.9,5.5-1.6"/>
		<path class="st3" d="M435.5,321.2c0-1.4,1.4-2.6,2.8-2.6c2.1,0.2,2.4,1.7,1.9,3.5"/>
		<path class="st0" d="M342.6,218.9c2.2,24.2,3.3,129-6.7,142.5c-10,13.5-39.5,15.4-53.7,13.6s-20.5-10-23.6-27.8
			c-3.1-17.8-10.9-105.4-7.8-132.7"/>
		<path class="st2" d="M415.2,366.6c0,0,3.8,2.6,15.9,3.8c12.1,1.2,18.5-10.2,18.5-10.2"/>
		<path class="st2" d="M454,355.9l7.1,5.2c0,0,2.6,6.4,1.2,10.9c-0.7,3.3-1,6.7-0.7,10.2c1.2,4.1,2.4,8.5,3.3,12.8"/>
		<path class="st0" d="M225.8,451.8c-4.3,0.9-9.3,0.9-13.3,4.3c-2.8,2.1-5.2,4.5-7.1,7.2c-2.6,3.3-8.5,11.2-3.5,20.2"/>
		<path class="st0" d="M230.4,447.2c2.1-2.8-3.1-6.7-3.1-6.7c-3.8-5-9.1-8.5-15.2-10c-2.4-2.2-4.5-4.8-6-7.6c-0.9-1.2-6-1.9-6-1.9
			l-1.4-3.1c-0.7-32.1-2.6-123.2,0.2-142.2"/>
		<path class="st0" d="M214.2,459.6c10-6,27.6-3.6,30.9,2.4c0,0,10.9-2.1,16.9,3.1c0,0,16.9-4.8,25.4-3.3c3.1,0.5,7.9,3.3,8.3,5
			c0.3,1.7-3.5,6.7-7.2,7.9c-3.8,1.2-18.8,2.8-21,3.5c-2.2,0.7-10.2,1.7-11.6,2.1c-1.4,0.3-13.8-0.7-15.4-1"/>
		<path class="st0" d="M480.9,472.7c-2.4,0-33.3,4.3-33.3,4.3s-9.1-0.7-11.6-0.7c-2.4,0-24.2,3.1-24.2,3.1c-1.6-2.1-4-3.5-6.7-3.6
			c-4.8-0.7-24.8,1.9-27.3,7.2"/>
		<path class="st0" d="M347.7,484.8c-12.8,3.6-81.6,2.8-94.4,1.7c-2.9-0.2-37.4-5.3-44-7.6s-6.6,0.3-7.2,1.7s3.1,7.2-11.2,3.1
			c-14.3-4.1-14.7-7.8-26.7-6s-18.8-1.9-28.3-3.1"/>
		<path class="st3" d="M443.6,327.8c0.3-1.9,3.3-5,5.2-3.8c1.9,0.9,2.6,3.1,1.7,4.8c0,0.2-0.2,0.3-0.2,0.3"/>
	</g>
</g>
</svg>
