<?xml version="1.0" encoding="utf-8"?>
<!-- Generator: Adobe Illustrator 25.2.0, SVG Export Plug-In . SVG Version: 6.00 Build 0)  -->
<svg version="1.1" id="Layer_1" xmlns="http://www.w3.org/2000/svg" xmlns:xlink="http://www.w3.org/1999/xlink" x="0px" y="0px"
	 viewBox="0 0 600 600" style="enable-background:new 0 0 600 600;" xml:space="preserve">
<style type="text/css">
	*{vector-effect:non-scaling-stroke}
	.st0{fill:none;stroke:#000000;stroke-width:0.5;stroke-miterlimit:10;}
	.st1{fill:#FFFFFF;stroke:#000000;stroke-width:1.5;stroke-linecap:round;stroke-linejoin:round;}
	.st2{fill:#FFFFFF;stroke:#000000;stroke-width:1.5043;stroke-linecap:round;stroke-linejoin:round;stroke-miterlimit:4.0114;}
	.st3{fill:none;stroke:#000000;stroke-width:1.5;stroke-miterlimit:10;}
	.st4{fill:#FFFFFF;stroke:#000000;stroke-width:1.5;stroke-miterlimit:10;}
	.st5{fill:#FFFFFF;stroke:#000000;stroke-width:0.5;stroke-miterlimit:10;}
	.st6{fill:#FFFFFF;}
</style>
<g id="Layer_2_1_">
	<g id="Layer_1-2">
		<path class="st0" d="M154.5,86.7c53.5,0,96.8,43.4,96.7,96.9c0,0,0,0,0,0v207.1c0,53.5-43.3,96.8-96.8,96.8s-96.8-43.3-96.8-96.8
			V183.6c0-53.5,43.3-96.8,96.7-96.9C154.5,86.7,154.5,86.7,154.5,86.7"/>
		<circle class="st1" cx="154.5" cy="183.5" r="29.9"/>
		<circle class="st2" cx="154.8" cy="182.9" r="22.9"/>
		<path class="st3" d="M154.5,64.6c65.6,0.1,118.8,53.3,118.8,118.9v207.1c0,65.7-53.2,118.9-118.9,118.9
			c-65.7,0-118.9-53.2-118.9-118.9c0,0,0,0,0,0V183.6C35.6,117.9,88.9,64.7,154.5,64.6"/>
		<path class="st3" d="M154.5,59.8c68.3,0.1,123.5,55.5,123.6,123.7v207.1c0,68.3-55.4,123.6-123.6,123.6S30.8,459,30.8,390.7V183.6
			C30.9,115.3,86.2,59.9,154.5,59.8"/>
		<path class="st3" d="M154.5,39.3c79.6,0.1,144,64.7,144.1,144.2v207.1c0,79.6-64.6,144.2-144.2,144.1
			c-79.6,0-144.1-64.5-144.1-144.1V183.6C10.4,103.9,74.9,39.4,154.5,39.3"/>
		<path class="st3" d="M154.5,34.8C72.4,34.8,5.8,101.4,5.8,183.6v207.1c0,82.1,66.6,148.7,148.7,148.7
			c82.1,0,148.7-66.6,148.7-148.7c0,0,0,0,0,0V183.6C303.1,101.5,236.6,34.9,154.5,34.8z"/>
		<path class="st4" d="M35.8,193H39c0.4,0,0.8,0.4,0.8,0.8v63.4c0,0.4-0.4,0.8-0.8,0.8h-3.2c-0.4,0-0.8-0.4-0.8-0.8v-63.4
			C35,193.3,35.3,193,35.8,193z"/>
		<path class="st4" d="M34.7,197.4h5.3c0.7,0,1.4,0.6,1.4,1.4v53.5c0,0.7-0.6,1.4-1.4,1.4h-5.3c-0.7,0-1.4-0.6-1.4-1.4v-53.5
			C33.4,198,34,197.4,34.7,197.4z"/>
		<path class="st4" d="M39.8,380.4c0,0.4-0.4,0.8-0.8,0.8c0,0,0,0,0,0h-3.2c-0.4,0-0.8-0.4-0.8-0.8V317c0-0.4,0.4-0.8,0.8-0.8
			c0,0,0,0,0,0H39c0.4,0,0.8,0.4,0.8,0.8V380.4z"/>
		<path class="st0" d="M196.8,266.9h71c1.9,0,3.4,1.5,3.4,3.4v33.5c0,1.9-1.5,3.4-3.4,3.4h-71c-1.9,0-3.4-1.5-3.4-3.4v-33.5
			C193.4,268.5,194.9,266.9,196.8,266.9z"/>
		<path class="st5" d="M25.4,251.5H18c-2.2,0-4-1.8-4-4v-9.6c0-2.2,1.8-4,4-4h7.3c2.2,0,4,1.8,4,4v9.6
			C29.4,249.7,27.6,251.4,25.4,251.5z"/>
		<path class="st5" d="M29.4,361.1v9.6c0,2.2-1.7,4-4,4.1c0,0,0,0,0,0H18c-2.2,0-4-1.8-4-4v-9.6c0-2.2,1.8-4,4-4h7.3
			C27.6,357.2,29.3,359,29.4,361.1z"/>
		<path class="st5" d="M29.4,326.7v9.6c0,2.2-1.8,4-4,4H18c-2.2,0-4-1.8-4-4v-9.6c0-2.2,1.8-4,4-4h7.3
			C27.6,322.7,29.4,324.5,29.4,326.7z"/>
		<path class="st0" d="M294,250.5c0,3.5-2.8,6.3-6.3,6.3l0,0c-3.5,0-6.3-2.8-6.3-6.3V241c0-3.5,2.8-6.3,6.3-6.3l0,0
			c3.5,0,6.3,2.8,6.3,6.3V250.5z"/>
		<path class="st0" d="M294,333.2c0,3.5-2.8,6.3-6.3,6.3l0,0c-3.5,0-6.3-2.8-6.3-6.3v-9.6c0-3.5,2.8-6.3,6.3-6.3l0,0
			c3.5,0,6.3,2.8,6.3,6.3V333.2z"/>
		<path class="st1" d="M291.9,245.7c0-2.3-1.9-4.2-4.2-4.2c-2.3,0-4.2,1.9-4.2,4.2c0,0,0,0,0,0v82.5c0,2.3,1.9,4.2,4.2,4.2
			c2.3,0,4.2-1.9,4.2-4.2V245.7z"/>
		<polygon class="st0" points="286.3,228.4 284.8,225.9 286.3,223.4 289.1,223.4 290.5,225.9 289.1,228.4 		"/>
		<polygon class="st0" points="260,255.2 258.6,252.7 260,250.3 262.8,250.3 264.3,252.7 262.8,255.2 		"/>
		<polygon class="st0" points="260,228.7 258.6,226.3 260,223.8 262.8,223.8 264.3,226.3 262.8,228.7 		"/>
		<polygon class="st0" points="260,202.2 258.6,199.7 260,197.3 262.8,197.3 264.3,199.7 262.8,202.2 		"/>
		<polygon class="st0" points="259.4,176 257.9,173.5 259.4,171 262.2,171 263.6,173.5 262.2,176 		"/>
		<polygon class="st0" points="253.7,150.1 252.2,147.7 253.7,145.2 256.5,145.2 257.9,147.7 256.5,150.1 		"/>
		<polygon class="st0" points="242.6,126.6 241.2,124.1 242.6,121.7 245.5,121.7 246.9,124.1 245.5,126.6 		"/>
		<polygon class="st0" points="224.5,106.3 223.1,103.9 224.5,101.4 227.4,101.4 228.8,103.9 227.4,106.3 		"/>
		<polygon class="st0" points="203.7,91.7 202.3,89.2 203.7,86.8 206.6,86.8 208,89.2 206.6,91.7 		"/>
		<polygon class="st0" points="179,82 177.6,79.6 179,77.1 181.9,77.1 183.3,79.6 181.9,82 		"/>
		<polygon class="st0" points="153,79.2 151.6,76.7 153,74.3 155.8,74.3 157.3,76.7 155.8,79.2 		"/>
		<polygon class="st0" points="127.6,81.6 126.1,79.2 127.6,76.7 130.4,76.7 131.8,79.2 130.4,81.6 		"/>
		<polygon class="st0" points="104.3,90.7 102.9,88.3 104.3,85.8 107.1,85.8 108.6,88.3 107.1,90.7 		"/>
		<polygon class="st0" points="83.5,104.8 82.1,102.3 83.5,99.9 86.4,99.9 87.8,102.3 86.4,104.8 		"/>
		<polygon class="st0" points="66.1,123.8 64.7,121.4 66.1,118.9 69,118.9 70.4,121.4 69,123.8 		"/>
		<polygon class="st0" points="53.8,146 52.4,143.5 53.8,141.1 56.7,141.1 58.1,143.5 56.7,146 		"/>
		<polygon class="st0" points="47.2,170.5 45.8,168 47.2,165.6 50,165.6 51.4,168 50,170.5 		"/>
		<polygon class="st0" points="46.2,195.8 44.8,193.3 46.2,190.8 49.1,190.8 50.5,193.3 49.1,195.8 		"/>
		<polygon class="st0" points="46.2,260.6 44.7,258.2 46.2,255.7 49,255.7 50.4,258.2 49,260.6 		"/>
		<polygon class="st0" points="46,289.4 44.6,286.9 46,284.5 48.9,284.5 50.3,286.9 48.9,289.4 		"/>
		<polygon class="st0" points="45.8,318.6 44.4,316.1 45.8,313.7 48.7,313.7 50.1,316.1 48.7,318.6 		"/>
		<polygon class="st0" points="46,383.5 44.6,381 46,378.5 48.8,378.5 50.3,381 48.8,383.5 		"/>
		<polygon class="st0" points="47.3,411.4 45.9,408.9 47.3,406.5 50.2,406.5 51.6,408.9 50.2,411.4 		"/>
		<polygon class="st0" points="56,437.3 54.6,434.9 56,432.4 58.8,432.4 60.3,434.9 58.8,437.3 		"/>
		<polygon class="st0" points="70.4,460.9 69,458.4 70.4,456 73.3,456 74.7,458.4 73.3,460.9 		"/>
		<polygon class="st0" points="90.7,479.8 89.3,477.4 90.7,474.9 93.6,474.9 95,477.4 93.6,479.8 		"/>
		<polygon class="st0" points="114.6,493.1 113.2,490.6 114.6,488.2 117.5,488.2 118.9,490.6 117.5,493.1 		"/>
		<polygon class="st0" points="141.7,499.5 140.3,497.1 141.7,494.6 144.6,494.6 146,497.1 144.6,499.5 		"/>
		<polygon class="st0" points="169.4,498.9 168,496.4 169.4,494 172.2,494 173.7,496.4 172.2,498.9 		"/>
		<polygon class="st0" points="195.8,491.4 194.3,488.9 195.8,486.5 198.6,486.5 200,488.9 198.6,491.4 		"/>
		<polygon class="st0" points="219.4,476.7 218,474.3 219.4,471.8 222.2,471.8 223.6,474.3 222.2,476.7 		"/>
		<polygon class="st0" points="239.1,457.2 237.7,454.7 239.1,452.3 242,452.3 243.4,454.7 242,457.2 		"/>
		<polygon class="st0" points="252.2,432.9 250.8,430.5 252.2,428 255,428 256.4,430.5 255,432.9 		"/>
		<polygon class="st0" points="259,406 257.6,403.6 259,401.1 261.9,401.1 263.3,403.6 261.9,406 		"/>
		<polygon class="st0" points="259.9,378.4 258.5,375.9 259.9,373.5 262.7,373.5 264.2,375.9 262.7,378.4 		"/>
		<polygon class="st0" points="259.8,350.5 258.4,348.1 259.8,345.6 262.6,345.6 264.1,348.1 262.6,350.5 		"/>
		<polygon class="st0" points="259.8,322.6 258.4,320.2 259.8,317.7 262.6,317.7 264.1,320.2 262.6,322.6 		"/>
		<polygon class="st0" points="286.3,200.3 284.8,197.8 286.3,195.4 289.1,195.4 290.5,197.8 289.1,200.3 		"/>
		<polygon class="st0" points="285.6,172.4 284.2,170 285.6,167.5 288.4,167.5 289.8,170 288.4,172.4 		"/>
		<polygon class="st0" points="279.8,145 278.4,142.5 279.8,140.1 282.6,140.1 284.1,142.5 282.6,145 		"/>
		<polygon class="st0" points="268.4,119.8 267,117.3 268.4,114.9 271.3,114.9 272.7,117.3 271.3,119.8 		"/>
		<polygon class="st0" points="252.2,97 250.8,94.5 252.2,92.1 255,92.1 256.5,94.5 255,97 		"/>
		<polygon class="st0" points="231.4,78.2 230,75.7 231.4,73.3 234.2,73.3 235.7,75.7 234.2,78.2 		"/>
		<polygon class="st0" points="207.1,64.2 205.7,61.8 207.1,59.3 210,59.3 211.4,61.8 210,64.2 		"/>
		<polygon class="st0" points="180.8,55.6 179.4,53.1 180.8,50.7 183.7,50.7 185.1,53.1 183.7,55.6 		"/>
		<polygon class="st0" points="153.1,52.6 151.6,50.1 153.1,47.6 155.9,47.6 157.3,50.1 155.9,52.6 		"/>
		<polygon class="st0" points="126,55.6 124.6,53.1 126,50.7 128.8,50.7 130.2,53.1 128.8,55.6 		"/>
		<polygon class="st0" points="100.1,63.9 98.7,61.4 100.1,58.9 103,58.9 104.4,61.4 103,63.9 		"/>
		<polygon class="st0" points="76.3,77 74.9,74.5 76.3,72 79.2,72 80.6,74.5 79.2,77 		"/>
		<polygon class="st0" points="56.1,94.8 54.7,92.3 56.1,89.9 59,89.9 60.4,92.3 59,94.8 		"/>
		<polygon class="st0" points="39.3,116.3 37.9,113.9 39.3,111.4 42.1,111.4 43.5,113.9 42.1,116.3 		"/>
		<polygon class="st0" points="27.9,140.9 26.5,138.4 27.9,136 30.8,136 32.2,138.4 30.8,140.9 		"/>
		<polygon class="st0" points="21.2,166.9 19.8,164.5 21.2,162 24,162 25.4,164.5 24,166.9 		"/>
		<polygon class="st0" points="19.8,194.2 18.4,191.8 19.8,189.3 22.7,189.3 24.1,191.8 22.7,194.2 		"/>
		<polygon class="st0" points="19.8,261.2 18.4,258.8 19.8,256.3 22.7,256.3 24.1,258.8 22.7,261.2 		"/>
		<polygon class="st0" points="19.8,289.2 18.4,286.8 19.8,284.3 22.7,284.3 24.1,286.8 22.7,289.2 		"/>
		<polygon class="st0" points="19.8,317.3 18.4,314.9 19.8,312.4 22.7,312.4 24.1,314.9 22.7,317.3 		"/>
		<polygon class="st0" points="19.8,383.7 18.4,381.3 19.8,378.8 22.6,378.8 24,381.3 22.6,383.7 		"/>
		<polygon class="st0" points="21.4,411.5 20,409 21.4,406.6 24.2,406.6 25.7,409 24.2,411.5 		"/>
		<polygon class="st0" points="27.7,438.2 26.3,435.8 27.7,433.3 30.6,433.3 32,435.8 30.6,438.2 		"/>
		<polygon class="st0" points="39.8,463 38.4,460.5 39.8,458.1 42.7,458.1 44.1,460.5 42.7,463 		"/>
		<polygon class="st0" points="56.6,484.9 55.2,482.4 56.6,480 59.5,480 60.9,482.4 59.5,484.9 		"/>
		<polygon class="st0" points="77.5,502.8 76.1,500.4 77.5,497.9 80.4,497.9 81.8,500.4 80.4,502.8 		"/>
		<polygon class="st0" points="101.8,516 100.4,513.6 101.8,511.1 104.6,511.1 106,513.6 104.6,516 		"/>
		<polygon class="st0" points="128.3,524.3 126.9,521.8 128.3,519.4 131.2,519.4 132.6,521.8 131.2,524.3 		"/>
		<polygon class="st0" points="155.9,526.5 154.5,524 155.9,521.6 158.7,521.6 160.1,524 158.7,526.5 		"/>
		<polygon class="st0" points="183.2,522.9 181.7,520.5 183.2,518 186,518 187.4,520.5 186,522.9 		"/>
		<polygon class="st0" points="209.4,513.9 208,511.5 209.4,509 212.2,509 213.7,511.5 212.2,513.9 		"/>
		<polygon class="st0" points="233,499.4 231.6,497 233,494.5 235.9,494.5 237.3,497 235.9,499.4 		"/>
		<polygon class="st0" points="253.1,480.9 251.7,478.5 253.1,476 256,476 257.4,478.5 256,480.9 		"/>
		<polygon class="st0" points="269.2,458.5 267.7,456.1 269.2,453.6 272,453.6 273.4,456.1 272,458.5 		"/>
		<polygon class="st0" points="280.1,433 278.6,430.6 280.1,428.1 282.9,428.1 284.3,430.6 282.9,433 		"/>
		<polygon class="st0" points="285.6,405.9 284.2,403.4 285.6,401 288.5,401 289.9,403.4 288.5,405.9 		"/>
		<polygon class="st0" points="286.3,378.5 284.8,376.1 286.3,373.6 289.1,373.6 290.5,376.1 289.1,378.5 		"/>
		<polygon class="st0" points="286.1,350.6 284.7,348.2 286.1,345.7 288.9,345.7 290.3,348.2 288.9,350.6 		"/>
		<path class="st1" d="M211.5,242.2c-24.8,0-44.9,20.1-44.9,44.9c0,24.8,20.1,44.9,44.9,44.9s44.9-20.1,44.9-44.9l0,0
			C256.4,262.3,236.3,242.2,211.5,242.2z M240.6,270.5l-20.3,6.6c-0.6-0.5-1.2-1-1.9-1.4v-21.4c9.3,2,17.3,7.9,22.1,16.2H240.6z
			 M204.7,254.3v21.4c-0.7,0.4-1.3,0.9-1.9,1.4l-20.3-6.6c4.7-8.3,12.7-14.1,22.1-16.2L204.7,254.3z M178.1,287.1
			c0-1.2,0.1-2.4,0.2-3.6l20.3,6.6c0.2,0.8,0.4,1.5,0.7,2.3l-12.5,17.3c-5.6-6.1-8.8-14.2-8.8-22.5H178.1z M211.5,320.6
			c-4.7,0-9.4-1-13.7-3l12.5-17.3c0.4,0,0.8,0.1,1.2,0.1s0.8,0,1.2-0.1l12.5,17.3C220.9,319.6,216.2,320.6,211.5,320.6z
			 M236.3,309.6l-12.5-17.3c0.3-0.7,0.6-1.5,0.7-2.3l20.3-6.6c0.1,1.2,0.2,2.4,0.2,3.6C245,295.4,241.9,303.4,236.3,309.6
			L236.3,309.6z"/>
		<path class="st0" d="M222.6,287.1c0,6.1-5,11.1-11.1,11.1c-6.1,0-11.1-5-11.1-11.1c0-6.1,5-11.1,11.1-11.1c0,0,0.1,0,0.1,0
			C217.6,276,222.6,281,222.6,287.1z"/>
		<path class="st0" d="M247,287.1c0,19.6-15.9,35.5-35.5,35.5s-35.5-15.9-35.5-35.5c0-19.6,15.9-35.5,35.5-35.5S247,267.5,247,287.1
			L247,287.1z"/>
		<path class="st4" d="M34.7,320.6h5.3c0.7,0,1.4,0.6,1.4,1.4v53.5c0,0.7-0.6,1.4-1.4,1.4h-5.3c-0.7,0-1.4-0.6-1.4-1.4V322
			C33.4,321.2,34,320.6,34.7,320.6z"/>
		<path class="st6" d="M18,358.9h26c1.2,0,2.2,1,2.2,2.2v9.6c0,1.2-1,2.2-2.2,2.2H18c-1.2,0-2.2-1-2.2-2.2v-9.6
			C15.8,359.9,16.8,358.9,18,358.9z"/>
		<path d="M44.1,359.6c0.9,0,1.5,0.7,1.5,1.6v9.6c0,0.9-0.7,1.6-1.6,1.6H18c-0.9,0-1.5-0.7-1.5-1.6v-9.6c0-0.9,0.7-1.5,1.5-1.6H44.1
			 M44.1,358.3H18c-1.6,0-2.8,1.3-2.8,2.8v9.6c0,1.6,1.3,2.8,2.8,2.8l0,0h26c1.6,0,2.8-1.3,2.8-2.8v-9.6
			C46.9,359.6,45.7,358.3,44.1,358.3z"/>
		<path class="st6" d="M18,324.5h26c1.2,0,2.2,1,2.2,2.2v9.6c0,1.2-1,2.2-2.2,2.2H18c-1.2,0-2.2-1-2.2-2.2v-9.6
			C15.8,325.5,16.8,324.5,18,324.5z"/>
		<path d="M44.1,325.1c0.9,0,1.5,0.7,1.5,1.6v9.6c0,0.9-0.7,1.6-1.6,1.6H18c-0.9,0-1.5-0.7-1.5-1.6v-9.6c0-0.9,0.7-1.6,1.6-1.6H44.1
			 M44.1,323.9H18c-1.6,0-2.8,1.3-2.8,2.8v9.6c0,1.6,1.3,2.8,2.8,2.8h26c1.6,0,2.8-1.3,2.8-2.8v-9.6
			C46.9,325.1,45.6,323.9,44.1,323.9L44.1,323.9L44.1,323.9z"/>
		<path class="st5" d="M18,199.5h7.3c2.2,0,4,1.8,4,4v9.6c0,2.2-1.8,4-4,4H18c-2.2,0-4-1.8-4-4v-9.6C14.1,201.3,15.8,199.5,18,199.5
			z"/>
		<path class="st6" d="M18,201.3h26c1.2,0,2.2,1,2.2,2.2v9.6c0,1.2-1,2.2-2.2,2.2H18c-1.2,0-2.2-1-2.2-2.2v-9.6
			C15.8,202.3,16.8,201.3,18,201.3z"/>
		<path d="M44.1,201.9c0.9,0,1.5,0.7,1.5,1.6v9.6c0,0.9-0.7,1.6-1.6,1.6H18c-0.9,0-1.5-0.7-1.5-1.6v-9.6c0-0.9,0.7-1.6,1.6-1.6
			L44.1,201.9 M44.1,200.6H18c-1.6,0-2.8,1.3-2.8,2.8v9.6c0,1.6,1.3,2.8,2.8,2.8h26c1.6,0,2.8-1.3,2.8-2.8v-9.6
			C46.9,201.9,45.6,200.6,44.1,200.6L44.1,200.6z"/>
		<path class="st6" d="M18,235.7h26c1.2,0,2.2,1,2.2,2.2v9.6c0,1.2-1,2.2-2.2,2.2H18c-1.2,0-2.2-1-2.2-2.2v-9.6
			C15.8,236.7,16.8,235.7,18,235.7z"/>
		<path d="M44.1,236.3c0.9,0,1.5,0.7,1.5,1.6v9.6c0,0.9-0.7,1.6-1.6,1.6H18c-0.9,0-1.5-0.7-1.5-1.6v-9.6c0-0.9,0.7-1.6,1.6-1.6H44.1
			 M44.1,235.1H18c-1.6,0-2.8,1.3-2.8,2.8v9.6c0,1.6,1.3,2.8,2.8,2.8h26c1.6,0,2.8-1.3,2.8-2.8v-9.6
			C46.9,236.3,45.6,235.1,44.1,235.1L44.1,235.1z"/>
		<path class="st4" d="M30.7,216.5h71c1.9,0,3.4,1.5,3.4,3.4v11.2c0,1.9-1.5,3.4-3.4,3.4h-71c-1.9,0-3.4-1.5-3.4-3.4v-11.2
			C27.3,218,28.8,216.5,30.7,216.5z"/>
		<path class="st4" d="M30.7,339.7h71c1.9,0,3.4,1.5,3.4,3.4v11.2c0,1.9-1.5,3.4-3.4,3.4h-71c-1.9,0-3.4-1.5-3.4-3.4v-11.2
			C27.3,341.2,28.8,339.7,30.7,339.7z"/>
		<line class="st0" x1="69" y1="215.9" x2="69" y2="233.9"/>
		<line class="st0" x1="69" y1="339.7" x2="69" y2="357.7"/>
		<path class="st3" d="M217.3,287.1c0,3.2-2.6,5.8-5.8,5.8s-5.8-2.6-5.8-5.8c0-3.2,2.6-5.8,5.8-5.8S217.3,283.9,217.3,287.1
			L217.3,287.1z"/>
		<path class="st0" d="M154.5,150.5c18.2,0,32.9,14.7,32.9,32.9s-14.7,32.9-32.9,32.9s-32.9-14.7-32.9-32.9S136.4,150.5,154.5,150.5
			z"/>
		<path class="st4" d="M593.8,157.3c1.1-3.1-0.4-4.1-5.9-13.3c-5.5-9.2-12.9-15.3-15.1-18.4c-2.2-3.1-5.9-5.3-11.1-8.6
			c-5.2-3.3-6.4-8.9-7.5-10.5c-1.1-1.6-0.6-5.3-0.9-7.9c-0.4-2.6-1.5-17.5-1.1-20.1c0.4-2.5,1.1-4.4,0.9-7.4
			c-0.2-3-3.5-17.7-4.1-19.9c-1.1-2.9-2.4-5.8-4.1-8.5c-1.1-2-3.3-2.4-6.3-2.4s-0.2,2.5-0.4,5.7c-0.2,3.2,1.8,5.7,2.5,7.7
			c0.7,2,0.5,7.7,0,10.7c-0.5,3-0.4,3.7,0.4,7c0.7,3.3,1.5,5,0.9,7.2s-1.1,3.1-1.1,5.3s0.6,5.5-0.7,7.4c-1.3,1.8-2.4,5.9-3,8.9
			c-0.6,3,0.6,5.5,0.7,8.1c0.2,2.6,2.4,5.3,5.3,9c1.9,2.4,4,4.6,6.3,6.6c1.6,1.7,3.5,7.2,5.2,8.7c1.7,1.5,4.6,3.3,5.7,4.8
			c1.1,1.5,0.4,6.3,2.2,7.6c1.8,1.3,2.2-1.1,1.8,3.9s-2,0.7-6.6,3.1c-4.6,2.4,0.7,5.9-2.4,5.2s-3.5-0.2-7.6,0.7
			c-4.1,0.9-4.1,3.1-6.4,2.9s-6.3,1.5-8.5,2.8c-2.2,1.3-3.5,2.4-6.4,1.8c-3-0.5-5.9,1.3-8.6,1.7s-4.4,0-7.7-1.5
			c-3.3-1.5-3.3,0.6-6.6,0.6s-4.2-0.6-8.7-2.8s-5.7-1.8-10.1-3.1c-4.4-1.3-7.7-2-11.2-4.6c-3.5-2.6-10.9-5.4-15.2-7.1
			c-4.3-1.7-7.8-3.5-10-6.1c-2.2-2.6-16.5-7.4-19.5-10c-3.1-2.6-13.9-7.8-17.4-10.4c-3.4-2.6-9.5-1.8-11.6-1.8s-5.2-1.3-8.7-3
			c-3.5-1.8-5.2-0.4-8.7-0.4c-3.5,0-6.1,5.6-7.8,7.4c-1.7,1.7-5.6,6.9-7.8,9.5s-4.8,2.6-8.2,4.3c-3.5,1.7-3.5,10.8-5.6,15.2
			c-1.7,3.3-3.6,6.5-5.6,9.5c-2,3.1-2.8,6.8-2.2,10.4c0.9,4.8-0.9,10.4-1.7,15.6s-3.9,8.7-3.9,13.4s0.9,14.3,0.9,23.4v17.8
			c0,6.5-0.9,13.9-2.6,18.2c-1.7,4.3-4.8,11.3-8.7,15.6c-3.9,4.3-5.2,6.9-10.8,12.6c-5.6,5.6-9.5,7-16.9,11.3
			c-7.4,4.3-9.1,1.3-13,1.7c-5,0.4-10.1,0.3-15.1-0.3v61.1c7.2,0,17-0.2,30.2-0.7c24.5-0.9,45.7-13.8,61.9-28.7
			c0.5-0.3,1.1-0.6,1.6-1c5.6-3.5,9.7-7,9.2-7.8l-0.2-0.8c2.4-1.1,4.7-2.4,6.9-3.9c5.6-3.5,9.7-7,9.1-7.8l-1.5-2.1
			c5.4-3.4,9.2-6.8,8.7-7.6l-1.8-1.5c0.9-0.8,1.7-1.8,2.7-2.8c4.5-4.8,7.5-9.3,6.8-9.9l-2-1.8c0.6-0.6,1.2-1.2,1.8-1.8
			c4.5-4.8,6.9-9.9,5.4-11.2c-0.1-0.1-0.2-0.2-0.3-0.2l-6-3.8l0.5-0.5c4.5-4.8,6.2-10.5,3.9-12.6c-0.4-0.3-0.8-0.5-1.3-0.6v-0.1
			l-8.5-4.2c3.5-4.5,4.8-9.2,2.7-11.1c-0.2-0.2-0.4-0.3-0.6-0.4l0,0l-6-4.3l0.2-0.2c4.5-4.8,6.2-10.5,3.9-12.6
			c-0.4-0.3-0.8-0.6-1.3-0.7l-3.4-1.5c0.4-0.3,0.8-0.6,1.2-1c4.1-3.8,6-8.4,4.3-10.3c-0.2-0.2-0.3-0.3-0.5-0.4l0,0l-1.4-1.3
			c0.5-0.3,1-0.7,1.5-1.1c4.4-3.4,6.7-7.9,5.1-9.9c-0.1-0.2-0.3-0.3-0.5-0.5l-2.5-2.2c0.3-0.2,0.5-0.4,0.8-0.6
			c4.4-3.4,6.7-7.9,5.1-9.9c-0.2-0.3-0.5-0.5-0.8-0.7l-0.7-0.5c4.2-2.8,6.5-6.6,5.2-8.6l-0.8-2c2-0.4,4-0.3,6-1.3
			c3.7-1.8,5.9,2.8,8.7,6.1c2.5,3,6.7,3.9,10.1,2.2c3.5-1.5,7.2,1.5,11.2,7.2c4.1,5.7,5.2,3.7,10.3,1.7c5.2-2,6.6,0.7,10.9,4.8
			c4.2,4.1,8.1,2.5,12.3,2c4.2-0.5,8.3,0.6,13.1,3.1c4.8,2.6,14.4,0.6,17.7,0.2c3.3-0.4,11.4-2.5,14.4-2.5c3,0,9.9-2.4,12.9-3.3
			c3-0.9,20.4-6.3,23.4-7.7c3.2-1.7,6.5-3.2,9.9-4.4c2.2-0.6,9.4-8.9,12-9.6c2.6-0.7,5.5-3.9,8.3-5.7
			C595.7,163,592.7,160.4,593.8,157.3z"/>
		<path class="st0" d="M593.8,157.3c1.1-3.1-0.4-4.1-5.9-13.3c-5.5-9.2-12.9-15.3-15.1-18.4c-2.2-3.1-5.9-5.3-11.1-8.6
			c-5.2-3.3-6.4-8.9-7.5-10.5c-1.1-1.6-0.6-5.3-0.9-7.9c-0.4-2.6-1.5-17.5-1.1-20.1c0.4-2.5,1.1-4.4,0.9-7.4
			c-0.2-3-3.5-17.7-4.1-19.9c-1.1-2.9-2.4-5.8-4.1-8.5c-1.1-2-3.3-2.4-6.3-2.4s-0.2,2.5-0.4,5.7c-0.2,3.2,1.8,5.7,2.5,7.7
			c0.7,2,0.5,7.7,0,10.7c-0.5,3-0.4,3.7,0.4,7c0.7,3.3,1.5,5,0.9,7.2s-1.1,3.1-1.1,5.3s0.6,5.5-0.7,7.4c-1.3,1.8-2.4,5.9-3,8.9
			c-0.6,3,0.6,5.5,0.7,8.1c0.2,2.6,2.4,5.3,5.3,9c1.9,2.4,4,4.6,6.3,6.6c1.6,1.7,3.5,7.2,5.2,8.7c1.7,1.5,4.6,3.3,5.7,4.8
			c1.1,1.5,0.4,6.3,2.2,7.6c1.8,1.3,2.2-1.1,1.8,3.9s-2,0.7-6.6,3.1c-4.6,2.4,0.7,5.9-2.4,5.2s-3.5-0.2-7.6,0.7
			c-4.1,0.9-4.1,3.1-6.4,2.9s-6.3,1.5-8.5,2.8c-2.2,1.3-3.5,2.4-6.4,1.8c-3-0.5-5.9,1.3-8.6,1.7s-4.4,0-7.7-1.5
			c-3.3-1.5-3.3,0.6-6.6,0.6s-4.2-0.6-8.7-2.8s-5.7-1.8-10.1-3.1c-4.4-1.3-7.7-2-11.2-4.6c-3.5-2.6-10.9-5.4-15.2-7.1
			c-4.3-1.7-7.8-3.5-10-6.1c-2.2-2.6-16.5-7.4-19.5-10c-3.1-2.6-13.9-7.8-17.4-10.4c-3.4-2.6-9.5-1.8-11.6-1.8
			c-0.6,0-1.2-0.1-1.8-0.2c1.3,0.6,2.5,1.4,3.6,2.3c2.3,2.1,2.5,3.2,6.7,4.6c4.2,1.4,7.4,2.8,8.6,3.9c1.2,1.2,3.5,6.2,5.8,7.9
			c2.3,1.6,12.7,3.7,15.3,6c2.5,2.3,10.1,15.3,15.5,15.7c5.4,0.5,12,1.8,15,4.9s7.6,7.6,12.5,7.6s9-1.8,13.7,0.7s9.3-0.2,13.9,1.4
			c4.7,1.6,5.1,4.2,8.8,4.4c3.7,0.2,7.6-0.9,12-0.7c3.1,0.1,6.1,0.5,9,1.4c3.7,0.9,11.4-5.3,14.8-7.2c3.4-1.8,5.6-2.3,11.6-0.5
			c6,1.8,7.9,0.9,11.8-1.6c3.9-2.5,6-3.9,10-3.9c1.4,0,2.9-0.1,4.3-0.5c0.7-0.6,1.5-1.2,2.2-1.7C595.8,163,592.7,160.4,593.8,157.3z
			"/>
		<path class="st0" d="M440.7,150.3c3.7,5.9,8.2,11.9,14.3,12.4c6.1,0.5,8.9,0.6,11,2.5c2.1,2,7.8,10.3,17.2,9.8
			c9.4-0.5,10.2,1.1,13,2.4c2.8,1.3,5.6-1.9,9.8-1.1c4.2,0.8,7.8,6.1,13.4,5.8c5.6-0.3,7.8-2,11.3-1.3c3.4,0.7,7.3,3,10.1,1.7
			c2.8-1.3,11.3-6.9,16.2-7.4c4-0.4,8.1-0.2,12.1,0.5"/>
		<path class="st5" d="M408.7,258.8c1.8,1.7,0.4,6.2-3.1,10.1s-7.9,5.7-9.8,4c-1.8-1.7-0.4-6.2,3.1-10.1
			C402.5,258.9,406.8,257.1,408.7,258.8z"/>
		<path class="st5" d="M401.6,242.8c1.8,1.7,0.4,6.2-3.1,10.1c-3.6,3.9-7.9,5.7-9.8,4c-1.8-1.7-0.4-6.2,3.1-10.1
			C395.4,242.9,399.8,241.1,401.6,242.8z"/>
		<path class="st5" d="M399.2,225.1c1.8,1.7,0.4,6.2-3.1,10.1c-3.6,3.9-7.9,5.7-9.8,4c-1.8-1.7-0.4-6.2,3.1-10.1
			S397.4,223.5,399.2,225.1z"/>
		<path class="st5" d="M400,211.2c1.4,1.5-0.1,5.2-3.4,8.3c-3.3,3-7.1,4.2-8.5,2.7c-1.4-1.5,0.1-5.2,3.4-8.3S398.6,209.7,400,211.2z
			"/>
		<path class="st5" d="M404.6,198.5c1.3,1.6-0.5,5.2-4.1,7.9c-3.5,2.7-7.4,3.6-8.7,2c-1.3-1.6,0.6-5.2,4.1-7.9
			C399.5,197.7,403.4,196.8,404.6,198.5z"/>
		<path class="st5" d="M407.5,185.3c1.3,1.6-0.5,5.2-4.1,7.9c-3.5,2.7-7.4,3.6-8.7,2c-1.3-1.6,0.6-5.2,4.1-7.9
			C402.3,184.5,406.2,183.6,407.5,185.3z"/>
		<path class="st5" d="M410.7,175.5c1,1.7-1.1,4.8-4.7,7c-3.6,2.2-7.4,2.6-8.4,0.9s1.1-4.8,4.7-7S409.7,173.8,410.7,175.5z"/>
		<path class="st5" d="M410.6,275.9c1.2,1.1-0.8,5.1-4.3,9s-7.4,6.2-8.6,5.1c-1.2-1.1,0.8-5.1,4.4-9
			C405.6,277,409.4,274.8,410.6,275.9z"/>
		<path class="st5" d="M405.4,290.7c0.6,0.5-1.9,4.1-5.4,8s-6.9,6.6-7.5,6.1c-0.6-0.5,1.9-4.1,5.4-8S404.8,290.2,405.4,290.7z"/>
		<path class="st5" d="M397.4,304.5c0.4,0.6-2.9,3.4-7.3,6.3c-4.4,2.8-8.4,4.6-8.8,4s2.9-3.4,7.3-6.3
			C393,305.6,397,303.8,397.4,304.5z"/>
		<path class="st5" d="M390.1,314.2c0.4,0.6-2.9,3.4-7.3,6.3c-4.5,2.8-8.4,4.6-8.8,4c-0.4-0.6,2.9-3.5,7.3-6.3
			C385.7,315.3,389.7,313.5,390.1,314.2z"/>
		<path class="st5" d="M374.3,326.7c0.4,0.6-2.9,3.4-7.3,6.3c-4.4,2.8-8.4,4.6-8.8,4s2.9-3.5,7.3-6.3
			C369.9,327.9,373.9,326.1,374.3,326.7z"/>
		<path class="st5" d="M364.9,327.9c0.3,0.7-3.1,2.8-7.6,4.7c-4.5,1.9-8.4,2.8-8.7,2.2s3.1-2.8,7.6-4.7
			C360.7,328.2,364.6,327.2,364.9,327.9z"/>
		<path class="st5" d="M374.2,316.3c0.5,0.9-2.5,3.6-6.8,6c-4.3,2.4-8.2,3.5-8.7,2.5c-0.5-1,2.5-3.6,6.8-6
			C369.8,316.5,373.7,315.4,374.2,316.3z"/>
		<path class="st5" d="M381.6,301.9c1,1.4-1.4,4.8-5.4,7.6c-4,2.8-8,4-9,2.6c-1-1.4,1.4-4.8,5.4-7.6
			C376.6,301.7,380.6,300.5,381.6,301.9z"/>
		<path class="st5" d="M388.8,285.1c1.1,1.3-1.4,5.1-5.4,8.4s-8.2,4.9-9.3,3.5c-1.1-1.3,1.4-5.1,5.4-8.4S387.8,283.7,388.8,285.1z"
			/>
		<path class="st5" d="M388,265.3c1.7,2.1-0.3,6.4-4.3,9.7s-8.7,4.3-10.4,2.2c-1.7-2.1,0.3-6.4,4.3-9.7
			C381.7,264.2,386.4,263.2,388,265.3z"/>
		<path class="st5" d="M380.1,247c2,2,0.7,6.5-2.9,10c-3.6,3.6-8.1,4.9-10,2.9c-2-2-0.7-6.5,2.9-10
			C373.6,246.3,378.1,245.1,380.1,247z"/>
		<path class="st5" d="M374.4,231.5c1.8,2.2,0.3,6.3-3.4,9.4c-3.6,3.1-8.1,3.8-9.9,1.6c-1.8-2.2-0.3-6.3,3.4-9.4
			C368.2,230,372.6,229.3,374.4,231.5z"/>
		<path class="st5" d="M378.5,217c1.3,2.1-1.3,5.7-5.5,8.2s-8.6,2.8-9.8,0.8c-1.2-2.1,1.3-5.7,5.5-8.2
			C372.9,215.3,377.3,215,378.5,217z"/>
		<path class="st5" d="M380.3,202c0.9,1.5-1.9,4.7-6.1,7.2c-4.2,2.5-8.4,3.3-9.2,1.8c-0.9-1.5,1.9-4.7,6.1-7.2
			C375.3,201.4,379.4,200.6,380.3,202z"/>
		<path class="st5" d="M385.3,192.9c0.5,1.1-2.4,3.3-6.3,5.1c-4,1.7-7.6,2.2-8,1.2s2.4-3.3,6.3-5.1
			C381.2,192.4,384.8,191.9,385.3,192.9z"/>
		<path class="st5" d="M389.1,181.8c0.3,0.8-2.6,2.8-6.6,4.5c-4,1.7-7.4,2.5-7.8,1.7c-0.3-0.8,2.6-2.8,6.6-4.5
			S388.8,181,389.1,181.8z"/>
		<path class="st5" d="M394.1,171.8c0.4,0.8-2.2,2.8-5.7,4.5s-6.7,2.5-7.1,1.7c-0.4-0.8,2.2-2.8,5.7-4.5
			C390.5,171.8,393.7,171.1,394.1,171.8z"/>
		<path class="st5" d="M353.6,337.1c0.2,0.6-3.2,2.5-7.7,4.4c-4.5,1.9-8.4,3-8.6,2.4c-0.2-0.6,3.2-2.5,7.7-4.4
			C349.5,337.6,353.3,336.5,353.6,337.1z"/>
		<path class="st5" d="M339.7,348.3c0.1,0.4-3.7,1.6-8.4,2.8c-4.7,1.2-8.7,1.8-8.8,1.4c-0.1-0.4,3.7-1.6,8.4-2.8
			S339.7,348,339.7,348.3z"/>
		<path class="st5" d="M564.9,140.9c0,1.8-0.6,3.3-1.3,3.3c-0.7,0-1.3-1.5-1.3-3.3s0.5-3.3,1.3-3.3
			C564.3,137.6,564.9,139.1,564.9,140.9z"/>
		<path class="st5" d="M568.3,129.3c0.6,0.7,0.3,2.1-0.8,3.1c-1.1,1-2.5,1.3-3.1,0.5s-0.3-2.1,0.8-3S567.6,128.6,568.3,129.3z"/>
		<path class="st5" d="M564.1,121.4c1,0.8,1.1,2.2,0.3,3.1c-0.8,1-2.2,1.1-3.1,0.3c-1-0.8-1.1-2.2-0.3-3.1c0.1-0.1,0.2-0.2,0.2-0.3
			C562,120.7,563.3,120.7,564.1,121.4z"/>
		<path class="st5" d="M556.2,122.7c1,0.8,1.1,2.2,0.3,3.1c-0.8,1-2.2,1.1-3.1,0.3c-1-0.8-1.1-2.2-0.3-3.1c0.1-0.1,0.2-0.2,0.2-0.2
			C554.1,121.9,555.4,121.9,556.2,122.7z"/>
		<path class="st5" d="M561.1,130c1,0.8,1.1,2.2,0.3,3.1c-0.8,1-2.2,1.1-3.1,0.3c-1-0.8-1.1-2.2-0.3-3.1c0.1-0.1,0.2-0.2,0.2-0.3
			C559,129.3,560.3,129.2,561.1,130z"/>
		<path class="st5" d="M557.9,113.2c1.2,1,1.4,2.8,0.4,4c-1,1.2-2.8,1.4-4,0.4c-1.2-1-1.4-2.8-0.4-4c0.1-0.1,0.2-0.2,0.3-0.3
			C555.2,112.2,556.9,112.2,557.9,113.2z"/>
		<path class="st5" d="M553.6,107.6c0.8,0.7,1,1.9,0.3,2.8s-1.9,1-2.8,0.3c-0.8-0.7-1-1.9-0.3-2.8c0.1-0.1,0.1-0.1,0.2-0.2
			C551.7,106.9,552.9,106.9,553.6,107.6z"/>
		<path class="st5" d="M550.6,82.1c0.1,0.9-0.3,1.7-0.8,1.8c-0.5,0.1-1-0.7-1.1-1.6c-0.1-0.9,0.3-1.7,0.8-1.8S550.6,81.2,550.6,82.1
			z"/>
		<path class="st5" d="M550.7,90c0.2,0.8-0.2,1.7-1,1.9c-0.9,0.4-1.9,0-2.3-0.9c-0.4-0.9,0-1.9,0.9-2.3c0.9-0.4,1.9,0,2.3,0.9
			C550.6,89.8,550.6,89.9,550.7,90z"/>
		<path class="st5" d="M552.7,95.9c0.2,0.9,0,1.7-0.4,1.8s-0.9-0.6-1.1-1.5c-0.2-0.9,0-1.7,0.4-1.8C552,94.3,552.5,94.9,552.7,95.9z
			"/>
		<path class="st5" d="M551.8,74.9c0.1,0.9-0.3,1.7-0.8,1.8c-0.5,0-1-0.7-1.1-1.6c-0.1-0.9,0.3-1.7,0.8-1.8
			C551.3,73.3,551.8,74,551.8,74.9z"/>
		<path class="st5" d="M550.9,65c0.3,0.9,0.1,1.7-0.4,1.9s-1.2-0.4-1.4-1.3c-0.3-0.9-0.1-1.7,0.4-1.9S550.7,64.1,550.9,65z"/>
		<path class="st5" d="M549.9,58.3c0.4,0.9,0.3,1.7-0.2,2s-1.2-0.3-1.6-1.2s-0.3-1.7,0.2-2S549.6,57.5,549.9,58.3z"/>
		<path class="st5" d="M548.2,52.4c0.4,0.8,0.3,1.7-0.2,1.9c-0.5,0.2-1.2-0.3-1.6-1.2c-0.4-0.9-0.3-1.7,0.2-2
			C547.1,51.1,547.8,51.6,548.2,52.4z"/>
		<path class="st0" d="M346.7,544.1c-4.7,0.1-7.4,0.3-11,1.7c-5,2.3-10.3,3.9-15.7,4.7c-8,1.3-18.8,3-12,4.5
			c6.8,1.5,18-0.4,24.1,0.5c6,0.9,14.2,4.1,23.3,3.5s13.6-1.8,17.7-1.4c4.1,0.4,9.1-1.3,1-3.3s-2.7-3.9-1-4.5
			c1.7-0.6-0.3-4.3-11.9-4.7C349.5,544.7,349.2,544.1,346.7,544.1z"/>
		<path class="st0" d="M324.3,559.4c-2.4,0.3-1.6,2.2,3.6,2.5s7.1-1,3.7-2C329.3,559.2,326.8,559,324.3,559.4z"/>
		<path class="st0" d="M318.8,563.6c-1.5,0.2-1,1.4,2.3,1.6s4.5-0.7,2.3-1.3C321.9,563.5,320.3,563.4,318.8,563.6z"/>
		<path class="st0" d="M319.6,561.6c-0.8,0.1-0.6,0.8,1.3,0.9c1.8,0.1,2.5-0.4,1.3-0.7C321.3,561.5,320.4,561.5,319.6,561.6z"/>
		<path class="st0" d="M293.4,556.7c-3.4-0.2-9.9,0-11.6,0.6s-2.9,1.6,3.8,2.4c4.7,0.7,9.4,0.7,14.1,0c2.2-0.6,3.3-1.2-0.6-2.4
			C297.2,556.9,295.3,556.7,293.4,556.7z"/>
		<path class="st0" d="M412,548.9c-2.7-0.2-7.9,0-9.3,0.7c-1.4,0.7-2.3,1.7,3.1,2.6c5.4,0.9,9.6,0.6,11.3,0s2.6-1.3-0.5-2.6
			C415.1,549.2,413.5,548.9,412,548.9z"/>
	</g>
</g>
</svg>
