<svg xmlns="http://www.w3.org/2000/svg" viewBox="0 0 465.76 419.55"><defs><style>*{vector-effect:non-scaling-stroke}.cls-1,.cls-3{fill:none;}.cls-1,.cls-2,.cls-3,.cls-4,.cls-5{stroke:#000000;stroke-width:1.5px;}.cls-1,.cls-3,.cls-4,.cls-5{stroke-miterlimit:10;}.cls-1,.cls-5{stroke-width:0.5px;}.cls-2,.cls-4,.cls-5,.cls-6{fill:#fff;}.cls-2{stroke-linecap:round;stroke-linejoin:round;}.cls-7{fill:#000000;}</style></defs><g id="Layer_2" data-name="Layer 2"><g id="Layer_1-2" data-name="Layer 1"><path class="cls-1" d="M118,41.51A76.44,76.44,0,0,1,194.39,118V281.59a76.44,76.44,0,0,1-152.88,0V118A76.44,76.44,0,0,1,118,41.51"/><circle class="cls-2" cx="117.95" cy="117.95" r="23.59" transform="translate(-48.86 117.95) rotate(-45)"/><circle class="cls-2" cx="117.95" cy="117.95" r="18.07" transform="matrix(0.16, -0.99, 0.99, 0.16, -17.46, 215.36)"/><path class="cls-3" d="M118,24.07A94,94,0,0,1,211.83,118V281.59a93.88,93.88,0,1,1-187.76,0V118A94,94,0,0,1,118,24.07"/><path class="cls-3" d="M118,20.3A97.77,97.77,0,0,1,215.6,118V281.59a97.65,97.65,0,0,1-195.3,0V118A97.77,97.77,0,0,1,118,20.3"/><path class="cls-3" d="M118,4.1A114,114,0,0,1,231.8,118V281.59a113.85,113.85,0,0,1-227.7,0V118A114,114,0,0,1,118,4.1"/><path class="cls-3" d="M118,.5A117.59,117.59,0,0,0,.5,118V281.59a117.45,117.45,0,1,0,234.9,0V118A117.59,117.59,0,0,0,118,.5Z"/><rect class="cls-4" x="23.58" y="125.42" width="3.8" height="51.37" rx="0.64"/><rect class="cls-4" x="22.31" y="128.91" width="6.35" height="44.39" rx="1.07"/><path class="cls-4" d="M27.38,273.48a.64.64,0,0,1-.64.64H24.23a.65.65,0,0,1-.65-.64V223.39a.64.64,0,0,1,.65-.64h2.51a.64.64,0,0,1,.64.64Z"/><rect class="cls-1" x="148.67" y="183.85" width="61.44" height="31.84" rx="2.7"/><path class="cls-5" d="M16,171.62H10.21a3.16,3.16,0,0,1-3.15-3.15v-7.55a3.16,3.16,0,0,1,3.15-3.15H16a3.16,3.16,0,0,1,3.15,3.15v7.55A3.16,3.16,0,0,1,16,171.62Z"/><path class="cls-5" d="M19.15,258.25v7.55A3.16,3.16,0,0,1,16,269H10.21a3.16,3.16,0,0,1-3.15-3.15v-7.55a3.16,3.16,0,0,1,3.15-3.15H16A3.16,3.16,0,0,1,19.15,258.25Z"/><path class="cls-5" d="M19.15,231.07v7.55A3.16,3.16,0,0,1,16,241.77H10.21a3.16,3.16,0,0,1-3.15-3.15v-7.55a3.16,3.16,0,0,1,3.15-3.15H16A3.16,3.16,0,0,1,19.15,231.07Z"/><path class="cls-1" d="M228.13,170.88a5,5,0,0,1-5,5h0a5,5,0,0,1-5-5v-7.54a5,5,0,0,1,5-5h0a5,5,0,0,1,5,5Z"/><path class="cls-1" d="M228.13,236.2a5,5,0,0,1-5,5h0a5,5,0,0,1-5-5v-7.55a5,5,0,0,1,5-5h0a5,5,0,0,1,5,5Z"/><path class="cls-2" d="M226.5,167.11a3.35,3.35,0,1,0-6.7,0v65.16a3.35,3.35,0,0,0,6.7,0Z"/><polygon class="cls-1" points="222.03 153.38 220.91 151.44 222.03 149.5 224.27 149.5 225.39 151.44 224.27 153.38 222.03 153.38"/><polygon class="cls-1" points="201.29 174.58 200.18 172.64 201.29 170.7 203.53 170.7 204.66 172.64 203.53 174.58 201.29 174.58"/><polygon class="cls-1" points="201.29 153.66 200.18 151.72 201.29 149.78 203.53 149.78 204.66 151.72 203.53 153.66 201.29 153.66"/><polygon class="cls-1" points="201.29 132.71 200.18 130.77 201.29 128.84 203.53 128.84 204.66 130.77 203.53 132.71 201.29 132.71"/><polygon class="cls-1" points="200.78 112 199.66 110.06 200.78 108.12 203.02 108.12 204.14 110.06 203.02 112 200.78 112"/><polygon class="cls-1" points="196.28 91.6 195.16 89.66 196.28 87.72 198.52 87.72 199.64 89.66 198.52 91.6 196.28 91.6"/><polygon class="cls-1" points="187.57 73 186.46 71.06 187.57 69.12 189.81 69.12 190.94 71.06 189.81 73 187.57 73"/><polygon class="cls-1" points="173.29 57.02 172.18 55.08 173.29 53.14 175.54 53.14 176.66 55.08 175.54 57.02 173.29 57.02"/><polygon class="cls-1" points="156.84 45.46 155.72 43.52 156.84 41.58 159.08 41.58 160.2 43.52 159.08 45.46 156.84 45.46"/><polygon class="cls-1" points="137.34 37.81 136.22 35.87 137.34 33.93 139.58 33.93 140.7 35.87 139.58 37.81 137.34 37.81"/><polygon class="cls-1" points="116.79 35.56 115.67 33.62 116.79 31.68 119.03 31.68 120.15 33.62 119.03 35.56 116.79 35.56"/><polygon class="cls-1" points="96.69 37.51 95.57 35.57 96.69 33.63 98.93 33.63 100.05 35.57 98.93 37.51 96.69 37.51"/><polygon class="cls-1" points="78.33 44.68 77.21 42.74 78.33 40.8 80.57 40.8 81.69 42.74 80.57 44.68 78.33 44.68"/><polygon class="cls-1" points="61.94 55.78 60.82 53.84 61.94 51.9 64.18 51.9 65.3 53.84 64.18 55.78 61.94 55.78"/><polygon class="cls-1" points="48.18 70.83 47.06 68.89 48.18 66.95 50.42 66.95 51.54 68.89 50.42 70.83 48.18 70.83"/><polygon class="cls-1" points="38.47 88.34 37.35 86.4 38.47 84.46 40.71 84.46 41.83 86.4 40.71 88.34 38.47 88.34"/><polygon class="cls-1" points="33.22 107.69 32.1 105.75 33.22 103.81 35.46 103.81 36.58 105.75 35.46 107.69 33.22 107.69"/><polygon class="cls-1" points="32.47 127.64 31.35 125.7 32.47 123.76 34.71 123.76 35.83 125.7 34.71 127.64 32.47 127.64"/><polygon class="cls-1" points="32.41 178.88 31.29 176.94 32.41 175 34.65 175 35.77 176.94 34.65 178.88 32.41 178.88"/><polygon class="cls-1" points="32.31 201.57 31.19 199.64 32.31 197.7 34.55 197.7 35.67 199.64 34.55 201.57 32.31 201.57"/><polygon class="cls-1" points="32.15 224.63 31.03 222.69 32.15 220.75 34.39 220.75 35.51 222.69 34.39 224.63 32.15 224.63"/><polygon class="cls-1" points="32.29 275.87 31.17 273.93 32.29 271.99 34.53 271.99 35.65 273.93 34.53 275.87 32.29 275.87"/><polygon class="cls-1" points="33.34 297.92 32.22 295.98 33.34 294.04 35.58 294.04 36.7 295.98 35.58 297.92 33.34 297.92"/><polygon class="cls-1" points="40.19 318.42 39.07 316.48 40.19 314.54 42.43 314.54 43.55 316.48 42.43 318.42 40.19 318.42"/><polygon class="cls-1" points="51.59 337.02 50.47 335.08 51.59 333.14 53.83 333.14 54.95 335.08 53.83 337.02 51.59 337.02"/><polygon class="cls-1" points="67.6 351.96 66.48 350.02 67.6 348.08 69.84 348.08 70.96 350.02 69.84 351.96 67.6 351.96"/><polygon class="cls-1" points="86.5 362.46 85.38 360.52 86.5 358.58 88.74 358.58 89.86 360.52 88.74 362.46 86.5 362.46"/><polygon class="cls-1" points="107.89 367.54 106.77 365.6 107.89 363.66 110.13 363.66 111.25 365.6 110.13 367.54 107.89 367.54"/><polygon class="cls-1" points="129.75 367.04 128.63 365.1 129.75 363.15 131.99 363.15 133.11 365.1 131.99 367.04 129.75 367.04"/><polygon class="cls-1" points="150.56 361.11 149.44 359.17 150.56 357.23 152.8 357.23 153.92 359.17 152.8 361.11 150.56 361.11"/><polygon class="cls-1" points="169.22 349.54 168.1 347.6 169.22 345.67 171.46 345.67 172.58 347.6 171.46 349.54 169.22 349.54"/><polygon class="cls-1" points="184.82 334.09 183.7 332.15 184.82 330.21 187.06 330.21 188.18 332.15 187.06 334.09 184.82 334.09"/><polygon class="cls-1" points="195.11 314.95 193.99 313.01 195.11 311.07 197.35 311.07 198.47 313.01 197.35 314.95 195.11 314.95"/><polygon class="cls-1" points="200.53 293.69 199.41 291.75 200.53 289.81 202.77 289.81 203.89 291.75 202.77 293.69 200.53 293.69"/><polygon class="cls-1" points="201.22 271.86 200.1 269.92 201.22 267.98 203.46 267.98 204.58 269.92 203.46 271.86 201.22 271.86"/><polygon class="cls-1" points="201.14 249.87 200.02 247.93 201.14 245.99 203.38 245.99 204.5 247.93 203.38 249.87 201.14 249.87"/><polygon class="cls-1" points="201.14 227.81 200.02 225.88 201.14 223.94 203.38 223.94 204.5 225.88 203.38 227.81 201.14 227.81"/><polygon class="cls-1" points="222.02 131.22 220.9 129.28 222.02 127.34 224.26 127.34 225.38 129.28 224.26 131.22 222.02 131.22"/><polygon class="cls-1" points="221.5 109.2 220.38 107.26 221.5 105.32 223.74 105.32 224.86 107.26 223.74 109.2 221.5 109.2"/><polygon class="cls-1" points="216.93 87.55 215.81 85.61 216.93 83.67 219.17 83.67 220.29 85.61 219.17 87.55 216.93 87.55"/><polygon class="cls-1" points="207.95 67.64 206.83 65.7 207.95 63.76 210.19 63.76 211.31 65.7 210.19 67.64 207.95 67.64"/><polygon class="cls-1" points="195.13 49.64 194.01 47.7 195.13 45.76 197.37 45.76 198.49 47.7 197.37 49.64 195.13 49.64"/><polygon class="cls-1" points="178.7 34.79 177.58 32.85 178.7 30.91 180.94 30.91 182.06 32.85 180.94 34.79 178.7 34.79"/><polygon class="cls-1" points="159.53 23.75 158.41 21.81 159.53 19.87 161.77 19.87 162.89 21.81 161.77 23.75 159.53 23.75"/><polygon class="cls-1" points="138.76 16.94 137.65 15 138.76 13.06 141 13.06 142.13 15 141 16.94 138.76 16.94"/><polygon class="cls-1" points="116.83 14.55 115.71 12.61 116.83 10.67 119.07 10.67 120.19 12.61 119.07 14.55 116.83 14.55"/><polygon class="cls-1" points="95.45 16.94 94.33 15 95.45 13.06 97.7 13.06 98.81 15 97.7 16.94 95.45 16.94"/><polygon class="cls-1" points="75.03 23.47 73.91 21.53 75.03 19.59 77.27 19.59 78.39 21.53 77.27 23.47 75.03 23.47"/><polygon class="cls-1" points="56.24 33.82 55.12 31.88 56.24 29.94 58.48 29.94 59.6 31.88 58.48 33.82 56.24 33.82"/><polygon class="cls-1" points="40.3 47.88 39.18 45.94 40.3 44 42.54 44 43.66 45.94 42.54 47.88 40.3 47.88"/><polygon class="cls-1" points="26.98 64.91 25.86 62.97 26.98 61.03 29.22 61.03 30.34 62.97 29.22 64.91 26.98 64.91"/><polygon class="cls-1" points="18.02 84.31 16.9 82.37 18.02 80.43 20.26 80.43 21.38 82.37 20.26 84.31 18.02 84.31"/><polygon class="cls-1" points="12.69 104.88 11.57 102.94 12.69 101 14.93 101 16.05 102.94 14.93 104.88 12.69 104.88"/><polygon class="cls-1" points="11.63 126.43 10.51 124.49 11.63 122.55 13.87 122.55 14.99 124.49 13.87 126.43 11.63 126.43"/><polygon class="cls-1" points="11.63 179.34 10.51 177.4 11.63 175.46 13.87 175.46 14.99 177.4 13.87 179.34 11.63 179.34"/><polygon class="cls-1" points="11.63 201.47 10.51 199.53 11.63 197.59 13.87 197.59 14.99 199.53 13.87 201.47 11.63 201.47"/><polygon class="cls-1" points="11.63 223.63 10.51 221.69 11.63 219.75 13.87 219.75 14.99 221.69 13.87 223.63 11.63 223.63"/><polygon class="cls-1" points="11.59 276.07 10.47 274.13 11.59 272.19 13.83 272.19 14.95 274.13 13.83 276.07 11.59 276.07"/><polygon class="cls-1" points="12.86 297.99 11.74 296.05 12.86 294.11 15.1 294.11 16.22 296.05 15.1 297.99 12.86 297.99"/><polygon class="cls-1" points="17.86 319.11 16.74 317.17 17.86 315.23 20.1 315.23 21.22 317.17 20.1 319.11 17.86 319.11"/><polygon class="cls-1" points="27.42 338.68 26.3 336.74 27.42 334.8 29.66 334.8 30.78 336.74 29.66 338.68 27.42 338.68"/><polygon class="cls-1" points="40.68 355.96 39.56 354.02 40.68 352.08 42.92 352.08 44.04 354.02 42.92 355.96 40.68 355.96"/><polygon class="cls-1" points="57.18 370.13 56.06 368.19 57.18 366.25 59.42 366.25 60.54 368.19 59.42 370.13 57.18 370.13"/><polygon class="cls-1" points="76.34 380.56 75.22 378.62 76.34 376.69 78.58 376.69 79.7 378.62 78.58 380.56 76.34 380.56"/><polygon class="cls-1" points="97.3 387.08 96.18 385.14 97.3 383.2 99.54 383.2 100.66 385.14 99.54 387.08 97.3 387.08"/><polygon class="cls-1" points="119.06 388.84 117.94 386.9 119.06 384.96 121.3 384.96 122.42 386.9 121.3 388.84 119.06 388.84"/><polygon class="cls-1" points="140.6 386.03 139.49 384.09 140.6 382.15 142.85 382.15 143.97 384.09 142.85 386.03 140.6 386.03"/><polygon class="cls-1" points="161.33 378.91 160.21 376.97 161.33 375.03 163.57 375.03 164.69 376.97 163.57 378.91 161.33 378.91"/><polygon class="cls-1" points="179.98 367.44 178.86 365.5 179.98 363.56 182.22 363.56 183.34 365.5 182.22 367.44 179.98 367.44"/><polygon class="cls-1" points="195.86 352.86 194.74 350.92 195.86 348.99 198.1 348.99 199.22 350.92 198.1 352.86 195.86 352.86"/><polygon class="cls-1" points="208.52 335.16 207.4 333.22 208.52 331.28 210.76 331.28 211.88 333.22 210.76 335.16 208.52 335.16"/><polygon class="cls-1" points="217.13 315.01 216.01 313.07 217.13 311.13 219.37 311.13 220.49 313.07 219.37 315.01 217.13 315.01"/><polygon class="cls-1" points="221.54 293.58 220.42 291.64 221.54 289.7 223.78 289.7 224.9 291.64 223.78 293.58 221.54 293.58"/><polygon class="cls-1" points="222.03 271.99 220.91 270.05 222.03 268.11 224.27 268.11 225.39 270.05 224.27 271.99 222.03 271.99"/><polygon class="cls-1" points="221.88 249.93 220.76 247.99 221.88 246.04 224.12 246.04 225.24 247.99 224.12 249.93 221.88 249.93"/><path class="cls-2" d="M163,164.32a35.45,35.45,0,1,0,35.45,35.45A35.45,35.45,0,0,0,163,164.32Zm23,22.31-16,5.21a10.32,10.32,0,0,0-1.52-1.1V173.87A26.49,26.49,0,0,1,185.9,186.63Zm-28.35-12.76v16.87a10.32,10.32,0,0,0-1.52,1.1l-16-5.21A26.49,26.49,0,0,1,157.55,173.87Zm-21.05,25.9a24.72,24.72,0,0,1,.16-2.87l16,5.21a10.78,10.78,0,0,0,.57,1.8l-9.9,13.63A26.35,26.35,0,0,1,136.5,199.77ZM163,226.22a26.36,26.36,0,0,1-10.85-2.33L162,210.25c.31,0,.62.05.94.05s.63,0,.94-.05l9.91,13.64A26.36,26.36,0,0,1,163,226.22Zm19.59-8.68-9.91-13.63a10,10,0,0,0,.58-1.8l16-5.21a27.15,27.15,0,0,1,.16,2.87A26.35,26.35,0,0,1,182.54,217.54Z"/><path class="cls-1" d="M171.72,199.77A8.78,8.78,0,1,1,163,191,8.77,8.77,0,0,1,171.72,199.77Z"/><path class="cls-1" d="M191,199.77a28,28,0,1,1-28-28A28,28,0,0,1,191,199.77Z"/><rect class="cls-4" x="22.31" y="226.23" width="6.35" height="44.39" rx="1.07"/><rect class="cls-6" x="8.46" y="256.5" width="24.07" height="11.05" rx="1.75"/><path class="cls-7" d="M30.78,257A1.25,1.25,0,0,1,32,258.25v7.55a1.25,1.25,0,0,1-1.25,1.25H10.21A1.26,1.26,0,0,1,9,265.8v-7.55A1.26,1.26,0,0,1,10.21,257H30.78m0-1H10.21A2.25,2.25,0,0,0,8,258.25v7.55a2.25,2.25,0,0,0,2.25,2.25H30.78A2.25,2.25,0,0,0,33,265.8v-7.55A2.25,2.25,0,0,0,30.78,256Z"/><rect class="cls-6" x="8.46" y="229.31" width="24.07" height="11.05" rx="1.75"/><path class="cls-7" d="M30.78,229.81A1.26,1.26,0,0,1,32,231.06v7.56a1.25,1.25,0,0,1-1.25,1.25H10.21A1.26,1.26,0,0,1,9,238.62v-7.56a1.26,1.26,0,0,1,1.25-1.25H30.78m0-1H10.21A2.25,2.25,0,0,0,8,231.06v7.56a2.25,2.25,0,0,0,2.25,2.25H30.78A2.25,2.25,0,0,0,33,238.62v-7.56a2.25,2.25,0,0,0-2.25-2.25Z"/><rect class="cls-5" x="7.06" y="130.59" width="12.08" height="13.85" rx="3.15"/><rect class="cls-6" x="8.46" y="131.99" width="24.07" height="11.05" rx="1.75"/><path class="cls-7" d="M30.78,132.49A1.25,1.25,0,0,1,32,133.74v7.55a1.25,1.25,0,0,1-1.25,1.25H10.21A1.26,1.26,0,0,1,9,141.29v-7.55a1.26,1.26,0,0,1,1.25-1.25H30.78m0-1H10.21A2.25,2.25,0,0,0,8,133.74v7.55a2.25,2.25,0,0,0,2.25,2.25H30.78A2.25,2.25,0,0,0,33,141.29v-7.55a2.25,2.25,0,0,0-2.25-2.25Z"/><rect class="cls-6" x="8.46" y="159.17" width="24.07" height="11.05" rx="1.75"/><path class="cls-7" d="M30.78,159.67A1.25,1.25,0,0,1,32,160.92v7.55a1.25,1.25,0,0,1-1.25,1.25H10.21A1.26,1.26,0,0,1,9,168.47v-7.55a1.26,1.26,0,0,1,1.25-1.25H30.78m0-1H10.21A2.25,2.25,0,0,0,8,160.92v7.55a2.25,2.25,0,0,0,2.25,2.25H30.78A2.25,2.25,0,0,0,33,168.47v-7.55a2.25,2.25,0,0,0-2.25-2.25Z"/><rect class="cls-4" x="17.48" y="143.99" width="61.44" height="14.23" rx="2.7"/><rect class="cls-4" x="17.48" y="241.32" width="61.44" height="14.23" rx="2.7"/><line class="cls-5" x1="50.47" y1="143.54" x2="50.47" y2="157.77"/><line class="cls-5" x1="50.47" y1="241.32" x2="50.47" y2="255.55"/><path class="cls-3" d="M167.56,199.77a4.61,4.61,0,1,1-4.61-4.61A4.61,4.61,0,0,1,167.56,199.77Z"/><path class="cls-1" d="M118,91.91a26,26,0,1,1-26,26A26,26,0,0,1,118,91.91Z"/><path class="cls-4" d="M464.91,97.23c.87-2.47-.29-3.2-4.65-10.47s-10.18-12.07-11.92-14.54-4.65-4.22-8.73-6.83-5.08-7-5.95-8.29-.44-4.22-.73-6.25S431.76,37,432.05,35s.88-3.49.73-5.82-2.76-13.95-3.2-15.7a39.39,39.39,0,0,0-3.2-6.69c-.87-1.6-2.61-1.89-4.94-1.89s-.14,2-.29,4.51,1.45,4.51,2,6.11.43,6.1,0,8.43-.3,2.91.29,5.53,1.16,3.92.72,5.67-.87,2.47-.87,4.21.44,4.36-.58,5.82-1.89,4.65-2.33,7,.44,4.36.59,6.4,1.89,4.21,4.21,7.12a45.52,45.52,0,0,0,4.95,5.23c1.3,1.31,2.76,5.67,4.07,6.84s3.63,2.61,4.5,3.78.29,4.94,1.75,6,1.74-.87,1.45,3.05-1.6.58-5.23,2.47.58,4.66-1.89,4.08-2.77-.15-6,.58-3.2,2.47-5.09,2.32-4.95,1.17-6.69,2.18-2.76,1.89-5.09,1.46-4.65,1-6.83,1.31-3.49,0-6.11-1.17-2.62.44-5.23.44-3.35-.44-6.84-2.18-4.51-1.46-8-2.47-6.11-1.6-8.87-3.64-8.6-4.27-12-5.64-6.17-2.74-7.88-4.8-13-5.82-15.42-7.88-11-6.17-13.71-8.22S313.54,68,311.83,68s-4.11-1-6.85-2.4-4.11-.35-6.86-.35-4.79,4.46-6.16,5.83-4.46,5.48-6.17,7.54-3.77,2.06-6.51,3.43-2.74,8.56-4.46,12a86.42,86.42,0,0,1-4.45,7.54,11.38,11.38,0,0,0-1.72,8.22c.69,3.77-.68,8.23-1.37,12.34s-3.08,6.85-3.08,10.62.68,11.31.68,18.51v14.05c0,5.14-.68,11-2.05,14.39s-3.77,8.91-6.86,12.34-4.11,5.48-8.56,9.93-7.54,5.49-13.37,8.91-7.19,1-10.28,1.37a58.69,58.69,0,0,1-11.9-.26v48.25c5.69,0,13.42-.16,23.86-.56,19.34-.74,36.09-10.88,48.91-22.69.42-.25.84-.5,1.26-.78,4.4-2.78,7.63-5.55,7.23-6.18l-.18-.66a51.54,51.54,0,0,0,5.47-3.06c4.39-2.79,7.63-5.56,7.22-6.19l-1.17-1.66c4.23-2.72,7.3-5.37,6.91-6l-1.45-1.21c.68-.67,1.38-1.4,2.1-2.18,3.52-3.83,5.92-7.34,5.37-7.85l-1.59-1.46q.7-.67,1.41-1.44c3.52-3.83,5.44-7.79,4.29-8.84a1.06,1.06,0,0,0-.26-.17l-4.73-3,.37-.39c3.52-3.83,4.91-8.28,3.1-9.94a2.29,2.29,0,0,0-1-.51l0-.07-6.75-3.31c2.78-3.54,3.76-7.3,2.13-8.8a2.32,2.32,0,0,0-.46-.31V163l-4.75-3.41.19-.19c3.52-3.83,4.9-8.29,3.1-9.94a2.2,2.2,0,0,0-1-.53l-2.72-1.22c.3-.25.61-.5.91-.78,3.25-3,4.77-6.63,3.38-8.14a1.91,1.91,0,0,0-.42-.33l0,0-1.08-1c.39-.26.78-.53,1.17-.84,3.49-2.7,5.3-6.21,4-7.83a2.16,2.16,0,0,0-.38-.36l-2-1.76c.22-.15.43-.31.64-.47,3.49-2.71,5.3-6.22,4-7.84a1.91,1.91,0,0,0-.64-.52l-.54-.43c3.29-2.25,5.12-5.2,4.13-6.82l-.62-1.6c1.55-.33,3.16-.25,4.7-1,2.91-1.46,4.65,2.18,6.84,4.8a6.57,6.57,0,0,0,8,1.74c2.76-1.16,5.67,1.16,8.87,5.67s4.07,2.91,8.14,1.31,5.24.58,8.58,3.78,6.4,2,9.74,1.6,6.54.44,10.33,2.47,11.34.44,13.95.15,9-2,11.34-2,7.85-1.89,10.18-2.62,16.14-4.94,18.47-6.1a55.13,55.13,0,0,1,7.85-3.49c1.74-.44,7.41-7,9.45-7.56s4.36-3.06,6.54-4.51S464,99.7,464.91,97.23Z"/><path class="cls-1" d="M464.91,97.23c.87-2.47-.29-3.2-4.65-10.47s-10.18-12.07-11.92-14.54-4.65-4.22-8.73-6.83-5.08-7-5.95-8.29-.44-4.22-.73-6.25S431.76,37,432.05,35s.88-3.49.73-5.82-2.76-13.95-3.2-15.7a39.39,39.39,0,0,0-3.2-6.69c-.87-1.6-2.61-1.89-4.94-1.89s-.14,2-.29,4.51,1.45,4.51,2,6.11.43,6.1,0,8.43-.3,2.91.29,5.53,1.16,3.92.72,5.67-.87,2.47-.87,4.21.44,4.36-.58,5.82-1.89,4.65-2.33,7,.44,4.36.59,6.4,1.89,4.21,4.21,7.12a45.52,45.52,0,0,0,4.95,5.23c1.3,1.31,2.76,5.67,4.07,6.84s3.63,2.61,4.5,3.78.29,4.94,1.75,6,1.74-.87,1.45,3.05-1.6.58-5.23,2.47.58,4.66-1.89,4.08-2.77-.15-6,.58-3.2,2.47-5.09,2.32-4.95,1.17-6.69,2.18-2.76,1.89-5.09,1.46-4.65,1-6.83,1.31-3.49,0-6.11-1.17-2.62.44-5.23.44-3.35-.44-6.84-2.18-4.51-1.46-8-2.47-6.11-1.6-8.87-3.64-8.6-4.27-12-5.64-6.17-2.74-7.88-4.8-13-5.82-15.42-7.88-11-6.17-13.71-8.22S313.54,68,311.83,68a6.48,6.48,0,0,1-1.43-.19,9.71,9.71,0,0,1,2.81,1.84c1.83,1.64,2,2.56,5.3,3.65s5.85,2.2,6.76,3.11,2.75,4.93,4.57,6.21,10.05,2.93,12.06,4.75,8,12.06,12.25,12.43,9.5,1.46,11.87,3.84,6,6,9.87,6,7.13-1.46,10.78.55,7.31-.19,11,1.09,4,3.29,6.94,3.47,6-.73,9.5-.54a27.72,27.72,0,0,1,7.13,1.09c2.92.73,9-4.2,11.69-5.66s4.39-1.83,9.14-.37,6.21.73,9.32-1.28,4.75-3.1,7.86-3.1a11.24,11.24,0,0,0,3.36-.43c.59-.47,1.18-.93,1.75-1.31C466.51,101.74,464,99.7,464.91,97.23Z"/><path class="cls-1" d="M344,91.73c2.95,4.65,6.5,9.38,11.32,9.8s7.05.46,8.72,2,6.18,8.16,13.61,7.74,8.06.84,10.25,1.89,4.4-1.47,7.75-.84,6.17,4.81,10.57,4.6,6.17-1.57,8.89-1,5.76,2.4,8,1.36,8.89-5.45,12.77-5.86a36.42,36.42,0,0,1,9.52.41"/><path class="cls-5" d="M318.71,177.44c1.44,1.33.33,4.89-2.48,7.95s-6.27,4.47-7.71,3.15-.34-4.89,2.48-7.95S317.26,176.11,318.71,177.44Z"/><path class="cls-5" d="M313.14,164.75c1.45,1.33.34,4.89-2.47,7.95s-6.27,4.48-7.72,3.15-.33-4.89,2.48-7.95S311.7,163.42,313.14,164.75Z"/><path class="cls-5" d="M311.23,150.84c1.45,1.33.34,4.89-2.48,8s-6.26,4.47-7.71,3.14-.33-4.88,2.48-7.95S309.79,149.52,311.23,150.84Z"/><path class="cls-5" d="M311.86,139.87c1.11,1.21-.1,4.13-2.7,6.52s-5.61,3.34-6.73,2.13.1-4.13,2.7-6.52S310.75,138.66,311.86,139.87Z"/><path class="cls-5" d="M315.5,129.79c1,1.29-.43,4.1-3.22,6.27s-5.87,2.87-6.88,1.57.44-4.11,3.23-6.27S314.5,128.49,315.5,129.79Z"/><path class="cls-5" d="M317.76,119.36c1,1.29-.43,4.1-3.22,6.27s-5.87,2.87-6.88,1.57.44-4.11,3.23-6.27S316.76,118.06,317.76,119.36Z"/><path class="cls-5" d="M320.32,111.61c.81,1.33-.85,3.82-3.71,5.56s-5.83,2.07-6.64.74.86-3.82,3.71-5.56S319.51,110.28,320.32,111.61Z"/><path class="cls-5" d="M320.22,190.89c.92.85-.61,4-3.43,7.08s-5.84,4.87-6.76,4,.62-4,3.44-7.07S319.31,190.05,320.22,190.89Z"/><path class="cls-5" d="M316.11,202.64c.45.4-1.48,3.22-4.29,6.28s-5.45,5.22-5.9,4.82,1.49-3.22,4.3-6.29S315.67,202.23,316.11,202.64Z"/><path class="cls-5" d="M309.78,213.5c.32.5-2.27,2.72-5.78,4.95s-6.62,3.63-6.95,3.12,2.27-2.72,5.79-4.95S309.46,213,309.78,213.5Z"/><path class="cls-5" d="M304,221.15c.32.5-2.26,2.72-5.78,4.95s-6.62,3.62-6.94,3.12,2.27-2.73,5.78-4.95S303.72,220.64,304,221.15Z"/><path class="cls-5" d="M291.53,231.06c.32.5-2.27,2.72-5.78,4.95s-6.63,3.62-6.95,3.12,2.27-2.73,5.78-4.95S291.21,230.55,291.53,231.06Z"/><path class="cls-5" d="M284.15,232c.23.55-2.47,2.21-6,3.7s-6.64,2.25-6.87,1.7,2.47-2.21,6-3.7S283.92,231.48,284.15,232Z"/><path class="cls-5" d="M291.5,222.85c.41.74-2,2.85-5.39,4.71s-6.46,2.77-6.86,2,2-2.85,5.39-4.71S291.09,222.11,291.5,222.85Z"/><path class="cls-5" d="M297.31,211.47c.78,1.1-1.14,3.8-4.29,6s-6.34,3.15-7.12,2.05,1.14-3.8,4.29-6S296.53,210.37,297.31,211.47Z"/><path class="cls-5" d="M303,198.16c.85,1-1.07,4-4.28,6.6s-6.51,3.85-7.36,2.8,1.07-4,4.29-6.61S302.19,197.11,303,198.16Z"/><path class="cls-5" d="M302.41,182.55c1.33,1.64-.2,5.08-3.41,7.68s-6.9,3.36-8.23,1.72.2-5.08,3.41-7.68S301.08,180.91,302.41,182.55Z"/><path class="cls-5" d="M296.11,168.13c1.56,1.55.55,5.11-2.26,7.93s-6.37,3.84-7.93,2.28-.55-5.11,2.26-7.93S294.55,166.57,296.11,168.13Z"/><path class="cls-5" d="M291.6,155.84c1.41,1.7.21,5-2.67,7.41s-6.37,3-7.78,1.26-.21-5,2.67-7.41S290.19,154.15,291.6,155.84Z"/><path class="cls-5" d="M294.9,144.42c1,1.62-1,4.52-4.32,6.48s-6.82,2.24-7.77.62,1-4.52,4.32-6.48S293.94,142.8,294.9,144.42Z"/><path class="cls-5" d="M296.29,132.6c.69,1.16-1.47,3.69-4.8,5.65s-6.6,2.61-7.28,1.45,1.47-3.7,4.8-5.66S295.61,131.44,296.29,132.6Z"/><path class="cls-5" d="M300.25,125.41c.36.85-1.88,2.62-5,4s-6,1.76-6.33.92,1.88-2.62,5-4S299.88,124.57,300.25,125.41Z"/><path class="cls-5" d="M303.25,116.59c.27.61-2.06,2.21-5.19,3.56s-5.88,1.94-6.15,1.33,2.06-2.22,5.19-3.57S303,116,303.25,116.59Z"/><path class="cls-5" d="M307.16,108.73c.29.61-1.73,2.21-4.53,3.58s-5.3,2-5.6,1.38,1.73-2.21,4.53-3.58S306.86,108.13,307.16,108.73Z"/><path class="cls-5" d="M275.19,239.27c.19.45-2.54,2-6.11,3.5s-6.6,2.33-6.79,1.88,2.55-2,6.11-3.5S275,238.82,275.19,239.27Z"/><path class="cls-5" d="M264.27,248.13c.08.31-2.9,1.3-6.65,2.23s-6.85,1.42-6.92,1.12,2.9-1.3,6.65-2.22S264.2,247.83,264.27,248.13Z"/><path class="cls-5" d="M442.06,84.32c0,1.43-.44,2.58-1,2.58s-1-1.15-1-2.58.43-2.59,1-2.59S442.06,82.89,442.06,84.32Z"/><path class="cls-5" d="M444.75,75.19c.5.56.2,1.63-.66,2.41s-2,1-2.46.41-.21-1.63.66-2.4S444.25,74.64,444.75,75.19Z"/><path class="cls-5" d="M441.46,68.94a1.76,1.76,0,1,1-2.28.06A1.62,1.62,0,0,1,441.46,68.94Z"/><path class="cls-5" d="M435.2,69.92a1.76,1.76,0,1,1-2.29.06A1.63,1.63,0,0,1,435.2,69.92Z"/><path class="cls-5" d="M439.1,75.71a1.76,1.76,0,1,1-2.28.06A1.63,1.63,0,0,1,439.1,75.71Z"/><path class="cls-5" d="M436.57,62.44a2.23,2.23,0,1,1-2.92.07A2.07,2.07,0,0,1,436.57,62.44Z"/><path class="cls-5" d="M433.18,58a1.57,1.57,0,1,1-2.05.05A1.45,1.45,0,0,1,433.18,58Z"/><path class="cls-5" d="M430.82,37.87c.06.74-.24,1.36-.67,1.4s-.82-.54-.88-1.27.24-1.36.67-1.4S430.76,37.14,430.82,37.87Z"/><path class="cls-5" d="M430.83,44.1a1.23,1.23,0,0,1-.8,1.52,1.36,1.36,0,1,1,.8-1.52Z"/><path class="cls-5" d="M432.41,48.75c.14.72,0,1.36-.31,1.42s-.68-.47-.83-1.19,0-1.36.31-1.42S432.26,48,432.41,48.75Z"/><path class="cls-5" d="M431.76,32.22c.06.73-.24,1.36-.67,1.39s-.82-.54-.88-1.27.24-1.36.67-1.39S431.7,31.48,431.76,32.22Z"/><path class="cls-5" d="M431.06,24.37c.22.7.06,1.38-.35,1.51s-.92-.34-1.14-1.05-.07-1.38.34-1.5S430.83,23.66,431.06,24.37Z"/><path class="cls-5" d="M430.26,19.11c.29.68.21,1.37-.18,1.54s-.95-.24-1.25-.92-.21-1.37.18-1.54S430,18.43,430.26,19.11Z"/><path class="cls-5" d="M428.88,14.46c.29.67.21,1.36-.19,1.53s-.95-.24-1.24-.92-.22-1.37.18-1.54S428.58,13.78,428.88,14.46Z"/><path class="cls-1" d="M269.74,402.75c-3.75.07-5.86.21-8.71,1.33a46.24,46.24,0,0,1-12.38,3.7c-6.35,1-14.82,2.36-9.44,3.56s14.25-.31,19,.37,11.24,3.22,18.4,2.77,10.75-1.43,14-1.12,7.16-1,.81-2.64-2.16-3.06-.81-3.52-.21-3.37-9.43-3.68S271.7,402.72,269.74,402.75Z"/><path class="cls-1" d="M252.07,414.83c-1.86.21-1.3,1.74,2.85,2s5.62-.82,2.94-1.57A13,13,0,0,0,252.07,414.83Z"/><path class="cls-1" d="M247.69,418.15c-1.17.14-.82,1.1,1.8,1.25s3.53-.52,1.84-1A8.34,8.34,0,0,0,247.69,418.15Z"/><path class="cls-1" d="M248.32,416.55c-.66.07-.46.61,1,.7s2-.29,1-.56A4.69,4.69,0,0,0,248.32,416.55Z"/><path class="cls-1" d="M227.65,412.67c-2.72-.13-7.82,0-9.2.51s-2.28,1.27,3,1.92a35.74,35.74,0,0,0,11.15,0c1.71-.45,2.6-.92-.49-1.89A19.3,19.3,0,0,0,227.65,412.67Z"/><path class="cls-1" d="M321.33,406.52c-2.17-.14-6.25,0-7.36.56s-1.82,1.38,2.41,2.09,7.56.45,8.93,0,2.07-1-.39-2.05A11.57,11.57,0,0,0,321.33,406.52Z"/></g></g></svg>