<?xml version="1.0" encoding="utf-8"?>
<!-- Generator: Adobe Illustrator 25.0.0, SVG Export Plug-In . SVG Version: 6.00 Build 0)  -->
<svg version="1.1" id="Layer_1" xmlns="http://www.w3.org/2000/svg" xmlns:xlink="http://www.w3.org/1999/xlink" x="0px" y="0px"
	 viewBox="0 0 281.8 379.1" style="enable-background:new 0 0 281.8 379.1;" xml:space="preserve">
<style type="text/css">
	*{vector-effect:non-scaling-stroke}
	.st0{fill:#231F20;}
	.st1{fill:#FFFFFF;stroke:#231F20;stroke-width:0.25;stroke-linecap:round;stroke-linejoin:round;}
	.st2{fill:#FFFFFF;stroke:#231F20;stroke-linecap:round;stroke-linejoin:round;}
	.st3{fill:#FFFFFF;}
	.st4{fill:none;stroke:#231F20;stroke-width:0.25;stroke-miterlimit:10;}
	.st5{fill:none;stroke:#231F20;stroke-miterlimit:10;}
	.st6{fill:none;stroke:#231F20;stroke-width:0.25;stroke-linecap:round;stroke-linejoin:round;}
</style>
<g id="Layer_2_1_">
	<g id="Layer_1-2">
		<path class="st0" d="M208.9,378.6c-0.6,0-1.2-0.2-1.6-0.6c-0.9-0.8-11.4-13.6-12.6-15.1l-3.4-5.2c-12.9,4.4-26.5,6.6-40.2,6.6
			c-14.5,0-28.2-3.2-39.6-6.4c-16.1-4.5-33.4-13-49.8-24.8L46,355.3c-1.2,1.5-11.7,14.3-12.6,15.1c-0.4,0.4-1,0.6-1.6,0.6
			c-0.8-0.1-1.6-0.3-2.3-0.8c-0.9-0.5-1.7-1.3-2-2.3c-0.1-0.4-0.1-0.8,0.2-1.2l9.4-16.9l15.8-23.4c-8.2-6.5-15.9-13.6-23-21.2
			C11,284.9,0.5,256.5,0.5,225.5c0-39.8,18.8-76.6,50.3-98.4c4-2.6,8.2-4.9,12.6-7.1l-0.4-0.7c-18.9,10.4-37.2,17.1-46.7,17.1
			c-3.2,0-5.4-0.8-6.5-2.3c-8.6-12.1-4.8-29.4,9.5-43c4.6-4.4,12.5-10.2,20.9-15.3l-0.6-1.1c-0.1-0.2-0.1-0.4,0-0.5
			c0.5-0.7,1.6-2.6,0.8-3.8l-0.1-0.2c-3.2-0.5-5.4-3.5-4.9-6.7c0.5-3.2,3.5-5.4,6.7-4.9c2.8,0.5,4.9,2.9,4.9,5.8
			c0,0.7-0.1,1.4-0.4,2.1c0.9,0.9,2.1,1.4,3.4,1.3c0.5,0,1,0,1.5-0.1c0,0,0.1,0,0.2,0c0.1,0,0.3,0,0.3,0.1l0,0
			c0.3-0.3,0.7-0.6,1-0.9c2-1.9,8.6-9,10-18.8c1.5-10.6,4.5-22.1,16.1-33.8C91.4,2.1,116.2,0.5,136.5,0.5c11.3,0,49.1,1.2,62.6,16.4
			c8,9,12.4,19.2,12.4,28.8c0,5.7,4.5,21.2,10.4,26.8l0.2-0.2l0.1-0.1l0,0c0.1-0.1,0.2-0.1,0.4-0.2c0,0,0.1,0,0.1,0
			c0.3,0.1,0.6,0.1,0.9,0.1c1.5,0,2.9-0.6,3.8-1.8c-0.3-0.7-0.4-1.4-0.4-2.1c0-3.2,2.6-5.9,5.9-5.9c3.2,0,5.9,2.6,5.9,5.9
			c0,2.9-2.1,5.4-4.9,5.8l-0.1,0.2c-0.8,1.2-0.1,4,0.2,4.9c0.1,0.1,0.1,0.3,0,0.4l-0.4,0.8c0.9,0.5,1.5,0.9,1.7,1
			c0.3,0.2,0.5,0.4,0.6,0.7c0.1,0.3,0,0.7-0.2,1c5.3,4.1,10.3,8.5,15.1,13.2c14.6,13.8,17.8,30.1,8.9,44.6c-0.7,1.2-2,1.8-3.4,1.7
			c-1.5-0.1-3-0.4-4.5-1c19.3,24.7,29.7,55.2,29.7,86.5c0,55.1-31.4,104.4-80,125.6l2.3,3.6l9.4,16.9c0.2,0.3,0.3,0.7,0.1,1.1
			c-0.3,1-1.1,1.8-2,2.3C210.6,378.2,209.8,378.4,208.9,378.6L208.9,378.6z M75,114.3c14.4-6.8,30.7-13.9,36.6-15.9
			c10-3.3,20.4-5.4,30.9-6.1l1.6-8.6l-5.4-0.8c-0.3,0-0.7-0.3-1-1l-1.9-0.3c-1.2-0.2-1.4-2.6-1.1-4.7s1.2-4.2,2.3-4.2h0.1L139,73
			c0.3-0.3,0.6-0.6,1.1-0.6h0.1l14.9,2.3c0.2,0,0.5,0.2,0.6,0.4l0.3-0.4c7.1-8.6,17.6-13.6,28.7-13.7c4.6,0,9.1,0.9,13.3,2.6
			c3.9,1.6,7.3,3,10.3,4.3c-0.7-0.9-1.3-1.9-1.8-3c-3-7-3.7-12.9-3.7-19.6c0-6.4-3.7-16.6-12-23.8c-7.6-6.7-17.1-8.7-35.3-10.8
			c-6.3-0.7-12.6-1-18.9-1c-11.4,0-22.9,0.9-34.2,2.6c-15.1,2.4-24,13.9-27.1,22.9c-1.1,3.3-2.2,7.4-3.2,11.4
			c-1.5,6-3.1,12.2-5.1,16.2c1.6-0.5,3.1-0.9,4.6-1.3c5.2-1.3,10.6-2.1,16-2.2c12.6,0,21.5,5.1,28.1,15.9c0.6,1,0.8,2.3,0.4,3.5
			c-2.1,8.5-24,23.1-42.1,34L75,114.3z M151.1,92c6.7,0,13.3,0.5,19.9,1.6c-4.4-3.2-8.5-6.8-12.4-10.6l0,0c-0.4,0.8-0.9,1.7-1.6,1.7
			h-0.1l-2-0.3c-0.3,0.4-0.7,0.7-1.2,0.8h-0.1l-5.5-0.9l-1.4,7.8C148.1,92.1,149.6,92,151.1,92z"/>
		<path class="st0" d="M136.5,1c20.2,0,50.8,3.3,62.2,16.2c8,9,12.2,19.2,12.2,28.5c0,5.8,4.5,21.6,10.8,27.3l0.2,0.2l0.5-0.7
			c0.4,0.1,0.7,0.1,1.1,0.1c1.6,0,3.2-0.7,4.2-2l0.2-0.2c-1.2-2.7,0-5.9,2.7-7.1s5.9,0,7.1,2.7s0,5.9-2.7,7.1
			c-0.5,0.2-1,0.4-1.6,0.4l-0.3,0.4c-1.1,1.7,0.2,5.4,0.2,5.4l-0.7,1.2c1.1,0.7,1.9,1.2,2.1,1.2c0.5,0.3,0.3,0.9,0,1.4
			c5.4,4.2,10.5,8.6,15.4,13.4c17.2,16.3,15.8,32.7,8.8,44c-0.6,1-1.8,1.6-3,1.5c-2.1-0.2-4.1-0.7-6-1.5
			c20,24.8,30.8,55.7,30.7,87.6c0,56.6-33.1,105.1-80.2,125.4l2.6,4.1l9.4,16.9c0.5,0.7-0.3,2-1.7,2.8c-0.6,0.4-1.3,0.6-2,0.7
			c-0.5,0-0.9-0.2-1.2-0.5c-0.9-0.8-12.6-15-12.6-15l-3.6-5.5c-13,4.5-26.6,6.7-40.4,6.7c-13.8,0-26.8-2.9-39.4-6.4
			c-17.1-4.8-34.4-13.8-50.1-25l-16,22.6c0,0-11.6,14.2-12.5,15c-0.3,0.3-0.8,0.5-1.2,0.5c-0.7-0.1-1.4-0.3-2-0.7
			c-1.4-0.8-2.2-2.1-1.7-2.8l9.4-16.9l16.1-23.8c-8.3-6.5-16.1-13.7-23.3-21.4C11.5,284.7,1,256.2,1,225.5c0-41,19.9-77.1,50.1-98
			c5.3-3.4,10.9-6.4,16.6-9.1L64,120l-0.8-1.3c-18.8,10.3-37.4,17.2-47,17.2c-3,0-5.1-0.7-6.1-2.1c-8.7-12.3-4.3-29.2,9.4-42.3
			c4.2-4,12-9.9,21.2-15.5L40,74.5c0,0,1.9-2.6,0.8-4.3c-0.1-0.1-0.2-0.2-0.3-0.4c-2.9-0.4-5-3-4.7-6c0.4-2.9,3-5,6-4.7
			c2.9,0.4,5,3,4.7,6c-0.1,0.5-0.2,1-0.4,1.5l0.2,0.2c1,1,2.3,1.6,3.7,1.5c0.5,0,1.1-0.1,1.6-0.2c0.1,0.1,0.1,0.3,0.2,0.4
			c0.5-0.4,1-0.8,1.5-1.3c3.4-3.3,8.9-10.1,10.1-19.1s3.8-21.2,16-33.5S116.2,1,136.5,1 M66.1,63.8c1.9-0.7,3.9-1.2,5.7-1.7
			c5.2-1.3,10.5-2,15.9-2.1c11.5,0,20.7,4.3,27.7,15.7c4.2,6.8-17.8,22.6-42,37l1.4,2.3c14.7-7,31.2-14.1,36.9-16
			c10.1-3.4,20.5-5.4,31.1-6.1l1.8-9.5l-5.9-0.9c-0.3,0-0.6-0.4-0.7-1l-2.2-0.3c-0.7-0.1-1-2-0.7-4.1s1.1-3.8,1.8-3.8h0l2.2,0.3
			c0.3-0.4,0.6-0.6,0.9-0.6h0.1l14.8,2.3c0.3,0,0.5,0.3,0.6,0.7h0.1c0.2-0.4,0.4-0.7,0.7-1c7-8.5,17.4-13.4,28.4-13.5
			c4.5,0,8.9,0.9,13.1,2.6c4.6,1.8,8.6,3.5,12.2,5.2c-1.3-1.3-2.3-2.9-3-4.6c-2.9-6.6-3.6-12.2-3.6-19.4s-4.3-17.2-12.2-24.1
			s-17.8-8.9-35.6-10.9c-6.3-0.7-12.7-1-19-1c-11.5,0-22.9,0.9-34.3,2.6C89.8,14.1,79.3,23,75,35.1C72,43.8,69.7,57.6,66.1,63.8
			L66.1,63.8 M63.5,64.7l0.4-0.2L63.5,64.7 M61.2,65.6l0.4-0.2L61.2,65.6 M56.5,67.6h-0.1H56.5 M54.2,68.7l-0.3,0.1L54.2,68.7
			 M157,84.2L157,84.2l-2.4-0.3c-0.3,0.5-0.7,0.8-1,0.8h-0.1l-6-0.9l-1.6,8.9c1.7-0.1,3.5-0.1,5.2-0.1c7.3,0,14.7,0.6,21.9,1.9
			c-7-5.4-12-9.6-13.9-11.8l-0.6-0.7C158.1,83.3,157.5,84.2,157,84.2 M51.6,68.2L51.6,68.2 M222.5,72.6L222.5,72.6 M136.5,0
			c-9,0-20.8,0.3-31.7,2.3C93,4.5,84.4,8.4,78.8,14C67,25.8,64,37.4,62.5,48.1c-1.3,9.7-7.9,16.7-9.8,18.5l-0.7,0.6
			c-0.2,0-0.4,0-0.6,0c-0.5,0.1-0.9,0.1-1.4,0.1c-1,0.1-2-0.2-2.8-0.9c0.2-0.6,0.3-1.3,0.3-2c0-3.5-2.8-6.4-6.3-6.4
			c-3.5,0-6.4,2.8-6.4,6.3c0,3.1,2.2,5.8,5.2,6.3l0,0c0.6,0.8-0.3,2.5-0.8,3.2c-0.3,0.3-0.3,0.7-0.1,1.1l0.4,0.7
			c-8.2,5.1-16,10.8-20.5,15.1c-14.5,13.8-18.3,31.3-9.6,43.6c1.2,1.6,3.5,2.5,6.9,2.5c7.9,0,21.6-4.5,36.8-11.9
			c-1,0.6-1.8,1.1-2.5,1.6C18.9,148.6,0,185.5,0,225.5c0,31.2,10.5,59.6,29.6,80.1c7,7.5,14.6,14.5,22.6,21l-15.5,23l0,0.1
			l-9.4,16.9c-0.3,0.4-0.4,1-0.2,1.5c0.4,1.1,1.2,2.1,2.3,2.7c0.8,0.5,1.6,0.8,2.5,0.8c0.7,0,1.4-0.3,1.9-0.8
			c0.9-0.8,10.7-12.7,12.7-15.1v0l15.4-21.8c16.4,11.6,33.5,20.1,49.6,24.6c11.4,3.2,25.1,6.4,39.7,6.4c13.6,0,27.1-2.2,40-6.5
			l3.2,4.8l0.1,0.1c1.9,2.4,11.8,14.3,12.7,15.1c0.5,0.5,1.2,0.8,1.9,0.8c0.9-0.1,1.8-0.3,2.5-0.8c1.1-0.6,1.9-1.5,2.3-2.7
			c0.1-0.5,0.1-1.1-0.2-1.5l-9.4-16.8v0l-2-3.1c23.4-10.4,43.2-27.5,57.1-49c32.3-50.1,29.8-115-6.2-162.4c1,0.3,2,0.5,3.1,0.5
			c1.5,0.1,3-0.7,3.8-2c9.1-14.7,5.8-31.2-9-45.3c-4.7-4.5-9.6-8.8-14.8-12.9c0.1-0.3,0.1-0.7,0.1-1c-0.1-0.4-0.4-0.8-0.8-1
			l-1.2-0.7l0.2-0.3c0.1-0.3,0.2-0.5,0.1-0.8c-0.5-1.3-0.9-3.6-0.3-4.5l0,0c3.5-0.7,5.7-4,5-7.5c-0.7-3.5-4-5.7-7.5-5
			c-3,0.6-5.1,3.2-5.1,6.3c0,0.7,0.1,1.4,0.3,2c-0.8,0.9-2,1.4-3.2,1.4c-0.3,0-0.6,0-0.8-0.1c-0.1,0-0.2,0-0.3,0
			c-0.2,0-0.4,0.1-0.6,0.2c-5.7-5.9-9.9-20.6-9.9-26.1c0-9.7-4.4-20.1-12.5-29.2C185.8,1.2,147.8,0,136.5,0z M68.1,62.1
			c1.8-4,3.2-9.7,4.6-15.3c1-4,2.1-8.1,3.2-11.4c3-8.9,11.9-20.2,26.7-22.6c11.3-1.7,22.7-2.6,34.1-2.6c6.3,0,12.6,0.3,18.9,1
			c18.2,2,27.5,4,35.1,10.6c8.1,7.1,11.8,17.1,11.8,23.3c0,6.7,0.6,12.7,3.7,19.8c0.3,0.6,0.6,1.1,0.9,1.7c-2.6-1.1-5.5-2.3-8.8-3.7
			c-4.3-1.7-8.9-2.6-13.5-2.6c-11.3,0.1-21.9,5.2-29.1,13.9l-0.1,0.1c-0.1-0.1-0.3-0.1-0.4-0.2L140.3,72h-0.2
			c-0.5,0-0.9,0.2-1.3,0.6l-1.7-0.2H137c-2,0-2.7,3.8-2.8,4.6c-0.4,2.3-0.2,5,1.5,5.3l1.6,0.2c0.2,0.5,0.7,0.9,1.3,1l4.9,0.8
			l-1.4,7.7c-10.4,0.8-20.7,2.8-30.6,6.1c-5.8,2-21.9,8.9-36.2,15.7l-0.4-0.6C100.9,97.4,115,85.9,116.7,79c0.4-1.3,0.2-2.7-0.5-3.8
			c-6.7-11-15.8-16.2-28.5-16.2c-5.4,0.1-10.9,0.8-16.1,2.1C70.5,61.4,69.3,61.7,68.1,62.1L68.1,62.1z M157,85.2
			c0.8-0.1,1.5-0.6,1.8-1.3c3.3,3.2,6.8,6.2,10.5,9c-6-0.9-12-1.3-18.1-1.3c-1.3,0-2.6,0-4,0.1l1.2-6.7l5,0.8h0.2
			c0.6,0,1.1-0.3,1.4-0.8l1.7,0.2L157,85.2z"/>
		<path class="st1" d="M51.6,68.2c-2.4,0.4-4.4-0.1-5.4-1.3l-0.2-0.2c1.2-2.7,0-5.9-2.7-7.1s-5.9,0-7.1,2.7s0,5.9,2.7,7.1
			c0.5,0.2,1,0.4,1.6,0.4c0.1,0.1,0.2,0.2,0.3,0.4c1.1,1.7-0.8,4.3-0.8,4.3l1.1,1.9l11.5-6.5C52.5,69.9,51.5,68.2,51.6,68.2z"/>
		<path class="st1" d="M151.1,92.5c-13.4,0-26.7,2.1-39.4,6.4c-9.8,3.2-50.6,21.6-60.6,28.5c-30.2,20.9-50.1,57-50.1,98
			c0,30.7,10.5,59.2,29.4,79.4c21.7,23.4,51.8,44.3,81.4,52.5c12.6,3.5,25.7,6.4,39.4,6.4c71.6,0,129.7-60.7,129.7-135.6
			S222.8,92.5,151.1,92.5z"/>
		<ellipse class="st2" cx="118.2" cy="225.5" rx="96.7" ry="102.4"/>
		<path class="st0" d="M129.1,154.4c-1.1-6.1-4.3-12.2-10.6-12.2c-7.9,0-9.9,10.7-9.9,24.6c0,6.9,0.2,22.5,9.8,22.5
			c6.8,0,10-6,10.7-12.6h2.8v14.6h-2.6c-0.2-0.7-0.9-1.2-1.6-1.3c-1.5,0-5.4,1.7-9.6,1.7c-14.5,0-21.8-10.9-21.8-26.4
			c0-15.1,7.3-25.7,21.5-25.7c5.4,0,9.1,2.2,10.1,2c0.9-0.1,1.6-0.7,1.6-1.6h1.8v14.2L129.1,154.4z"/>
		<path class="st0" d="M127.5,261.6c-11.4,0-17,11.3-17.7,22.8c2.2-2,5.2-3.1,8.2-3c8.3,0,14.5,4.5,14.5,14.5
			c0,10.7-7.6,16.2-16.9,16.2c-12.7,0-17.3-9.5-17.3-21.9c0-19.5,11.8-30.9,29.2-30.9V261.6z M121.7,296.3c0-3.9-0.4-12.5-5.8-12.5
			c-5.9,0-5.9,8-5.9,12.2c0,3.9,0.1,13.5,5.8,13.5S121.7,300.1,121.7,296.3L121.7,296.3z"/>
		<path class="st0" d="M44.2,248.2c11.4,0,17-11.3,17.7-22.8c-2.2,2-5.2,3.1-8.2,3c-8.3,0-14.5-4.6-14.5-14.5
			c0-10.7,7.6-16.2,16.9-16.2c12.7,0,17.3,9.4,17.3,21.9c0,19.5-11.8,30.9-29.2,30.9V248.2z M50,213.5c0,3.9,0.4,12.5,5.8,12.5
			c5.9,0,5.9-8,5.9-12.2c0-3.9-0.1-13.5-5.8-13.5S50,209.7,50,213.5z"/>
		<path class="st0" d="M173,221.2c1,0.1,2.1,0.2,3.1,0.2c5.9,0,7.1-5.6,7.1-12.2c0-2.9-0.3-8.9-4.5-8.9c-1.8,0-3.7,0.3-3.7,2.7
			c0,1.3,0.9,2,0.9,3.3c0,3.6-2,5.5-5.2,5.5c-2.9,0-5.3-2.4-5.3-5.3c0-0.1,0-0.2,0-0.3c0-7.1,8.6-8.5,13.4-8.5
			c6.8,0,15.7,2.4,15.7,11.8c0,8-7.4,11.3-13.4,12.5v0.1c6.4,0.2,14.2,3.9,14.2,12.2c0,10.4-8.4,14.6-17.3,14.6
			c-5.4,0-13.5-1-13.5-8.4c0-3.1,2.5-5.5,5.5-5.5c0,0,0.1,0,0.1,0c2.6,0.1,4.6,2.1,4.8,4.7c0,1.6-0.7,2.7-0.7,4.1s1.6,2.7,3.5,2.7
			c5.7,0,6.1-7.7,6.1-12c0-5.6-1.1-10.8-7.1-10.8c-1.3,0-2.6,0.1-3.9,0.2V221.2z"/>
		<path class="st0" d="M167.7,265.8l-4.8-6.6L124.1,228c0.3-1,0.5-2,0.5-3c0.1-4.7-3.6-8.6-8.2-8.7c-1.8,0-3.5,0.6-4.9,1.8
			c-2.5,1.6-4,4.5-4,7.5c-0.1,4.7,3.6,8.6,8.2,8.7c1.8,0,3.5-0.6,4.9-1.7l39,30.5l7.4,3.3L167.7,265.8z"/>
		<path class="st0" d="M167,266.3l-4.8-6.6l-38.7-31.2c0.3-1,0.5-2,0.5-3c-0.3-4.6-4.2-8-8.7-7.8c-4.6,0.3-8,4.2-7.8,8.7
			c0.2,4.4,3.9,7.8,8.2,7.8c1.8,0,3.5-0.6,4.9-1.7l39,30.5L167,266.3z"/>
		<path class="st0" d="M169.2,154.3l-0.8-0.4l-6.6,4.8l-46.9,58.7c-1-0.5-2.1-0.7-3.2-0.7c-4.7,0.1-8.4,4-8.2,8.7c0,3.4,1.9,6.5,5,8
			c1.2,0.7,2.6,1.1,4,1.1c4.7-0.1,8.4-4,8.2-8.7c0-1.7-0.5-3.3-1.3-4.8l46.5-59.4L169.2,154.3z"/>
		<path class="st0" d="M168.4,153.9l-6.6,4.8l-46.9,58.7c-1-0.5-2.1-0.7-3.2-0.7c-4.8-0.2-8.9,3.5-9.2,8.3c-0.2,4.8,3.5,8.9,8.3,9.2
			c4.8,0.2,8.9-3.5,9.2-8.3c0-0.1,0-0.3,0-0.4c0-1.7-0.5-3.3-1.3-4.8l46.5-59.4L168.4,153.9z"/>
		<ellipse class="st3" cx="111.7" cy="225.5" rx="2.6" ry="2.7"/>
		<path class="st1" d="M52.7,327.9l-15.1,22.3L28.1,367c-0.5,0.7,0.3,2,1.7,2.8s2.4,1,3.3,0.2s12.5-15,12.5-15l14.9-21L52.7,327.9z"
			/>
		<path class="st3" d="M204.6,128.7c-1.6,0-5.2-2.1-8.1-4.1c-1.8-1.2-3.5-2.6-5-4.1c-1.5-1.5-2-2.4-1.6-3.1c0.2-0.3,0.5-0.4,0.9-0.4
			c0.9,0.1,1.8,0.4,2.6,0.8l4.7-6.5l0.4,0.3l3.6,2.3c2.1,1.3,4.1,2.6,6.1,3.8l0.4,0.3l-4.7,7.1c2,2,1.9,2.7,1.6,3.1
			C205.2,128.6,204.9,128.7,204.6,128.7L204.6,128.7z"/>
		<path class="st0" d="M198.2,112.1l3.6,2.3c2.1,1.3,4.1,2.6,6.1,3.8l-4.7,7.1c1.4,1.3,2.1,2.4,1.8,2.8c-0.1,0.1-0.3,0.2-0.4,0.2
			c-1.2,0-4.4-1.6-7.8-4c-4.1-2.8-6.9-5.7-6.4-6.4c0.1-0.1,0.3-0.2,0.4-0.2c1,0.1,1.9,0.5,2.8,0.9L198.2,112.1 M197.9,110.8
			l-0.6,0.8l-4.2,5.8c-0.8-0.4-1.6-0.6-2.4-0.7c-0.5,0-1,0.2-1.3,0.6c-0.8,1.1,0.4,2.5,1.6,3.7c1.6,1.5,3.3,2.9,5.1,4.1
			c2.8,1.9,6.6,4.2,8.4,4.2c0.5,0,1-0.2,1.3-0.6c0.6-0.8,0.1-1.9-1.4-3.4l4.2-6.4l0.6-0.9l-0.9-0.5c-2.3-1.4-4.2-2.6-6.1-3.8
			l-3.6-2.3L197.9,110.8L197.9,110.8z"/>
		<circle class="st4" cx="205.2" cy="108.2" r="2"/>
		<path class="st3" d="M208.9,378.6c-0.6,0-1.2-0.2-1.6-0.6c-0.9-0.8-11.4-13.6-12.6-15.1c0,0-12.3-18.5-15.1-22.7
			c-1.2,0.5-2.5,0.9-3.8,0.9c-0.7,0.1-1.4-0.2-1.9-0.8c-0.6-0.9-0.1-2.2,1.2-3.8c1.5-1.7,3.3-3.2,5.3-4.5c3.2-2.1,6.4-3.4,8.4-3.4
			c0.7-0.1,1.4,0.2,1.9,0.8c0.6,1,0,2.6-2,4.6c2.7,4.2,14.8,23.3,14.8,23.3l9.4,16.9c0.2,0.3,0.3,0.7,0.1,1.1c-0.3,1-1.1,1.8-2,2.3
			C210.5,378.2,209.7,378.5,208.9,378.6L208.9,378.6z"/>
		<path class="st0" d="M188.9,329.2c0.5-0.1,1.1,0.1,1.4,0.6c0.5,0.8-0.4,2.5-2.2,4.3c2.2,3.4,15,23.7,15,23.7l9.4,16.9
			c0.5,0.7-0.3,2-1.7,2.8c-0.6,0.4-1.3,0.6-2,0.7c-0.5,0-0.9-0.2-1.2-0.5c-0.9-0.8-12.6-15-12.6-15s-13-19.7-15.3-23
			c-1.3,0.6-2.6,1-4,1c-0.5,0.1-1.1-0.1-1.4-0.5c-0.9-1.4,2-4.8,6.4-7.6C184,330.4,187.1,329.2,188.9,329.2 M188.9,328.2
			c-2.1,0-5.4,1.3-8.7,3.4c-2,1.3-3.8,2.8-5.4,4.6c-1.9,2.3-1.8,3.7-1.3,4.4c0.5,0.7,1.4,1.1,2.3,1c1.2-0.1,2.5-0.3,3.6-0.8
			c3.1,4.7,14.7,22.1,14.8,22.3l0.1,0.1c1.9,2.4,11.8,14.3,12.7,15.1c0.5,0.5,1.2,0.8,1.9,0.8c0.9-0.1,1.8-0.3,2.5-0.8
			c1.1-0.6,1.9-1.5,2.3-2.7c0.1-0.5,0.1-1.1-0.2-1.5l-9.4-16.8v0c-0.1-0.2-11.6-18.2-14.6-23c1.9-2.1,2.5-3.8,1.7-5
			C190.7,328.5,189.9,328.1,188.9,328.2L188.9,328.2z"/>
		<path class="st1" d="M137.9,77.4c-0.4,2.6,0,4.8,0.8,5l14.9,2.3c0.9,0.1,1.9-1.9,2.3-4.5s0-4.8-0.8-5l-14.9-2.3
			C139.3,72.8,138.3,74.8,137.9,77.4z"/>
		<path class="st1" d="M144.8,98.6l2.7-14.8l6,0.9c0.4,0.1,0.7-0.3,1.1-0.8l2.3,0.3c0.7,0.1,1.6-1.6,1.9-3.8s0-4-0.7-4.1l-2.5-0.3
			c-0.2-0.4-0.4-0.7-0.6-0.7l-14.9-2.3c-0.3,0-0.6,0.2-0.9,0.6l-2.3-0.3c-0.7-0.1-1.6,1.6-1.9,3.7s0,4,0.7,4.1l2.2,0.3
			c0.2,0.6,0.4,0.9,0.7,1l5.9,0.9l-2.8,15.3"/>
		<path class="st3" d="M256.1,142.6c-2.3,0-5.4-1.2-10.1-3.2c-5.8-2.5-21.7-10-44.5-24.5c-22.5-14.4-38.9-27.5-42.8-31.9
			s-4.5-6-2.6-8.4c7.1-8.6,17.6-13.6,28.7-13.7c4.6,0,9.1,0.9,13.3,2.6c26.2,10.6,35.1,16.1,52.5,32.7c14.6,13.8,17.8,30.1,8.9,44.6
			C258.8,142,257.5,142.7,256.1,142.6z"/>
		<path class="st0" d="M184.8,61.4c4.5,0,8.9,0.9,13.1,2.6c26.3,10.7,35.2,16.3,52.4,32.6s15.8,32.7,8.8,44c-0.6,1-1.8,1.6-3,1.5
			c-2.3,0-5.6-1.3-9.9-3.2c-6.9-3-22.5-10.5-44.4-24.5S163.1,87.2,159,82.7s-4.2-5.7-2.5-7.7C163.4,66.5,173.8,61.5,184.8,61.4
			 M184.8,60.4L184.8,60.4c-11.3,0.1-21.9,5.2-29.1,13.9c-2.2,2.8-1.3,4.7,2.6,9s20.3,17.5,42.9,31.9c22.8,14.5,38.8,22,44.6,24.5
			c4.8,2.1,8,3.3,10.3,3.3c1.5,0.1,3-0.7,3.8-2c9.1-14.7,5.8-31.2-9-45.3c-17.5-16.6-26.4-22.2-52.7-32.8
			C194,61.2,189.4,60.4,184.8,60.4L184.8,60.4z"/>
		<path class="st3" d="M232.8,85.3c-0.7,0-1.4-0.3-1.9-0.6l-0.8-0.5c-3.5-2-7-4.1-10.2-6.4c-0.5-0.4-1.2-0.9-2-1.4
			c-3.5-2.4-8.8-6-11.2-11.5c-3-7-3.7-12.9-3.7-19.6c0-6.4-3.7-16.6-12-23.8c-7.6-6.7-17.1-8.7-35.4-10.8c-6.3-0.7-12.6-1-18.9-1
			c-11.4,0-22.9,0.9-34.2,2.6c-15.1,2.4-24,13.9-27.1,22.9c-1.1,3.3-2.2,7.4-3.2,11.4c-1.7,6.6-3.4,13.5-5.6,17.3
			c-0.1,0.1-0.2,0.2-0.3,0.2c-6.7,2.3-13.2,5.3-19.4,8.8l-6.7,4c-0.1,0-0.2,0-0.2,0c-0.3,0-0.5-0.2-0.5-0.5c0-0.2,0.1-0.3,0.2-0.4
			C39.8,76,49.7,70.2,53,67c2-1.9,8.6-9,10-18.8c1.5-10.6,4.5-22.1,16.1-33.8C91.4,2.1,116.2,0.5,136.5,0.5
			c11.3,0,49.1,1.2,62.6,16.4c8,9,12.4,19.2,12.4,28.8c0,5.7,4.6,21.4,10.6,26.9c3.2,2.9,12,8.1,13.1,8.7c0.3,0.2,0.5,0.5,0.6,0.8
			c0,0.7-0.3,1.4-0.8,1.8c-0.1,0.1-0.2,0.2-0.2,0.3C234.2,84.9,233.6,85.3,232.8,85.3L232.8,85.3z"/>
		<path class="st0" d="M136.5,1c20.2,0,50.8,3.3,62.2,16.2c8,9,12.2,19.2,12.2,28.5c0,5.8,4.5,21.6,10.8,27.3
			c3.3,3.1,12.4,8.4,13.1,8.8s0.1,1.3-0.4,1.8c-0.4,0.4-0.7,1.2-1.7,1.2c-0.6,0-1.2-0.2-1.7-0.6c-3.8-2.1-7.5-4.4-11-6.9
			c-3-2.3-10.2-6.2-13-12.8s-3.6-12.2-3.6-19.4s-4.3-17.2-12.2-24.1s-17.8-8.9-35.6-10.9c-6.3-0.7-12.7-1-19-1
			c-11.5,0-22.9,0.9-34.3,2.6C89.8,14.1,79.3,23,75,35.1c-3,8.7-5.3,22.4-8.8,28.6c-6.7,2.4-13.2,5.3-19.5,8.8L40,76.5
			c0,0,10-5.9,13.3-9.2s8.9-10.1,10.1-19.1s3.8-21.2,16-33.5S116.2,1,136.5,1 M136.5,0c-9,0-20.8,0.3-31.7,2.3
			C93,4.5,84.4,8.4,78.8,14C67,25.8,64,37.4,62.5,48.1c-1.3,9.7-7.9,16.7-9.8,18.5c-3.2,3.1-13.1,9-13.2,9c-0.5,0.3-0.7,0.9-0.4,1.4
			c0.2,0.3,0.5,0.5,0.9,0.5c0.2,0,0.4-0.1,0.5-0.1l6.7-3.9c6.1-3.5,12.6-6.4,19.2-8.8c0.2-0.1,0.4-0.2,0.6-0.4
			c2.3-4,4-10.8,5.7-17.4c1-4,2.1-8.1,3.2-11.4c3-8.9,11.9-20.2,26.7-22.6c11.3-1.7,22.7-2.6,34.1-2.6c6.3,0,12.6,0.3,18.9,1
			c18.2,2,27.5,4,35.1,10.6c8.1,7.1,11.8,17.1,11.8,23.3c0,6.7,0.6,12.7,3.7,19.8c2.5,5.7,7.8,9.3,11.3,11.8c0.8,0.6,1.5,1,2,1.4
			c3.3,2.3,6.8,4.5,10.3,6.5l0.8,0.5c0.7,0.4,1.4,0.7,2.2,0.7c0.9,0,1.7-0.5,2.2-1.3l0.2-0.2c0.6-0.6,1-1.4,1-2.2
			c-0.1-0.5-0.4-0.9-0.8-1.2c-0.9-0.5-9.8-5.8-12.9-8.7c-5.9-5.4-10.4-20.9-10.4-26.6c0-9.7-4.4-20.1-12.5-29.2
			C185.8,1.2,147.8,0,136.5,0z"/>
		<path class="st3" d="M232.4,81.8c-0.1,0-0.2,0-0.3-0.1l-11.3-6.9c-0.2-0.1-0.3-0.5-0.2-0.7c0,0,0,0,0,0c0.5-0.6,1.3-1.7,1.4-1.8
			l0.1-0.1l0,0c0.1-0.1,0.2-0.1,0.4-0.2c0,0,0.1,0,0.1,0c0.3,0.1,0.6,0.1,0.9,0.1c1.5,0,2.9-0.6,3.8-1.8c-0.3-0.7-0.4-1.4-0.4-2.1
			c0-3.2,2.6-5.9,5.9-5.9c3.2,0,5.9,2.6,5.9,5.9c0,2.9-2.1,5.4-4.9,5.8l-0.1,0.2c-0.8,1.2-0.1,4,0.2,4.9c0.1,0.1,0.1,0.3,0,0.4
			l-1.1,1.9c-0.1,0.1-0.2,0.2-0.3,0.2L232.4,81.8z"/>
		<path class="st0" d="M232.9,62.9c3,0,5.4,2.4,5.4,5.4c0,2.7-2,5-4.7,5.3l-0.3,0.4c-1.1,1.7,0.2,5.4,0.2,5.4l-1.1,1.9l-11.3-6.9
			c0,0,1.4-1.8,1.4-1.8c0.4,0.1,0.7,0.1,1.1,0.1c1.6,0,3.2-0.7,4.2-2l0.2-0.2c-1.2-2.7,0-5.9,2.7-7.1
			C231.3,63,232.1,62.9,232.9,62.9 M222.5,72.5L222.5,72.5 M232.9,61.9c-3.5,0-6.4,2.9-6.4,6.4c0,0,0,0,0,0c0,0.7,0.1,1.4,0.3,2
			c-0.8,0.9-2,1.4-3.2,1.4c-0.3,0-0.6,0-0.8-0.1c-0.1,0-0.2,0-0.3,0c-0.3,0-0.5,0.1-0.7,0.3c-0.1,0.1-0.1,0.1-0.1,0.2l-1.4,1.7
			c-0.2,0.2-0.2,0.5-0.2,0.8c0,0.3,0.2,0.5,0.5,0.7l11.3,6.9c0.2,0.1,0.3,0.1,0.5,0.2c0.1,0,0.2,0,0.2,0c0.3-0.1,0.5-0.2,0.6-0.5
			l1.1-1.9c0.1-0.3,0.2-0.5,0.1-0.8c-0.5-1.3-0.9-3.6-0.3-4.5l0,0c3.5-0.7,5.7-4,5-7.5C238.5,64.1,235.9,62,232.9,61.9L232.9,61.9z"
			/>
		<path class="st1" d="M10.2,133.8c-8.7-12.3-4.3-29.2,9.4-42.3c8.6-8.2,33.1-24.9,52.2-29.4s33.7-2.7,43.6,13.6
			c4.5,7.3-21.3,25-47.5,40.3S14.7,140.2,10.2,133.8z"/>
		<path class="st1" d="M51.9,99.2L64,120l11-4.8L61.9,93.8c-1.1,0.6-2.3,1.2-3.4,1.8C56.2,96.8,54,98,51.9,99.2z"/>
		<line class="st5" x1="75" y1="115.2" x2="61.9" y2="93.8"/>
		<line class="st5" x1="51.9" y1="99.2" x2="64" y2="120"/>
		<path class="st2" d="M113.8,77.8c-7.1-2.8-30.2,4.4-55.4,17.9c-27.1,14.4-46.9,30.7-45.8,37.5"/>
		<path class="st6" d="M111.7,334.8c-57,0-103.2-48.9-103.2-109.2s46.2-109.2,103.2-109.2"/>
	</g>
</g>
</svg>
