<svg xmlns="http://www.w3.org/2000/svg" viewBox="0 0 281.82 379.06"><defs><style>*{vector-effect:non-scaling-stroke}.cls-1{fill:#231f20;}.cls-2,.cls-3,.cls-4,.cls-6{fill:#fff;}.cls-2,.cls-3,.cls-5,.cls-6,.cls-7{stroke:#231f20;}.cls-2,.cls-3,.cls-7{stroke-linecap:round;stroke-linejoin:round;}.cls-2,.cls-5,.cls-7{stroke-width:0.25px;}.cls-5,.cls-7{fill:none;}.cls-5,.cls-6{stroke-miterlimit:10;}</style></defs><g id="Layer_2" data-name="Layer 2"><g id="Layer_1-2" data-name="Layer 1"><path class="cls-1" d="M208.93,378.56a2.3,2.3,0,0,1-1.58-.63c-.9-.8-11.41-13.62-12.61-15.08l-3.43-5.16a124.85,124.85,0,0,1-40.17,6.62c-14.54,0-28.16-3.24-39.56-6.41-16.14-4.48-33.36-13-49.85-24.81L46,355.27c-1.22,1.48-11.74,14.31-12.63,15.1a2.32,2.32,0,0,1-1.58.63,4.64,4.64,0,0,1-2.26-.77,4.12,4.12,0,0,1-2-2.33,1.43,1.43,0,0,1,.16-1.16l9.41-16.86,15.84-23.41a210.78,210.78,0,0,1-23-21.2C11,284.86.5,256.53.5,225.5c0-39.8,18.81-76.6,50.31-98.45A122.75,122.75,0,0,1,63.37,120l-.38-.67C44.08,129.71,25.77,136.4,16.25,136.4c-3.23,0-5.41-.77-6.48-2.28C1.18,122,5,104.74,19.29,91.14c4.57-4.36,12.54-10.2,20.87-15.3l-.61-1.09a.49.49,0,0,1,0-.53c.48-.66,1.56-2.62.78-3.75l-.13-.19a5.87,5.87,0,1,1,6.81-5.78,5.78,5.78,0,0,1-.4,2.12A4.23,4.23,0,0,0,50,67.9a8.25,8.25,0,0,0,1.46-.13.39.39,0,0,1,.15,0,.5.5,0,0,1,.35.14h0c.35-.29.67-.59,1-.88,2-1.92,8.6-9,10-18.84,1.48-10.64,4.46-22.1,16.14-33.78C91.42,2.08,116.22.5,136.46.5c11.26,0,49.08,1.18,62.62,16.42,8,9,12.38,19.22,12.38,28.83,0,5.69,4.5,21.15,10.45,26.78l.16-.22.07-.08h0a.51.51,0,0,1,.35-.15.4.4,0,0,1,.15,0,6,6,0,0,0,.94.08,4.81,4.81,0,0,0,3.79-1.77,5.7,5.7,0,0,1-.4-2.12,5.88,5.88,0,1,1,6.81,5.78l-.13.2c-.82,1.2-.11,4,.24,4.94a.5.5,0,0,1,0,.41l-.43.77c.9.54,1.53.91,1.69,1a1.14,1.14,0,0,1,.56.72,1.61,1.61,0,0,1-.17,1,179,179,0,0,1,15.12,13.15c14.57,13.84,17.81,30.11,8.88,44.63a3.64,3.64,0,0,1-3.38,1.71,14.3,14.3,0,0,1-4.47-1,140.1,140.1,0,0,1,29.67,86.5c0,55.13-31.37,104.38-80,125.64l2.3,3.62,9.43,16.91a1.42,1.42,0,0,1,.15,1.13,4.12,4.12,0,0,1-2,2.33,4.68,4.68,0,0,1-2.26.77ZM75,114.31c14.37-6.82,30.71-13.92,36.58-15.87a124.78,124.78,0,0,1,30.88-6.09l1.6-8.64-5.38-.82c-.32,0-.74-.27-1-1l-1.87-.28c-1.22-.18-1.43-2.57-1.1-4.7s1.16-4.18,2.31-4.18h.14L139,73a1.45,1.45,0,0,1,1.07-.59h.15l14.85,2.28a1.07,1.07,0,0,1,.63.36l.34-.45a37.67,37.67,0,0,1,28.73-13.7,35.33,35.33,0,0,1,13.28,2.6c3.89,1.58,7.29,3,10.3,4.32a15.49,15.49,0,0,1-1.76-3c-3-7-3.66-12.89-3.66-19.57,0-6.41-3.74-16.58-12-23.75-7.64-6.67-17.08-8.71-35.35-10.75a171.71,171.71,0,0,0-18.92-1,224.54,224.54,0,0,0-34.19,2.59c-15.07,2.44-24,13.87-27.11,22.92-1.12,3.29-2.18,7.41-3.2,11.4-1.53,6-3.12,12.21-5.08,16.21,1.59-.5,3.12-.93,4.56-1.27a69.77,69.77,0,0,1,16-2.15c12.55,0,21.48,5.07,28.08,15.94a4.41,4.41,0,0,1,.41,3.46c-2.11,8.48-24,23.12-42.13,34ZM151.14,92a125.75,125.75,0,0,1,19.93,1.6A114.16,114.16,0,0,1,158.67,83l0,0c-.35.83-.9,1.7-1.65,1.7h-.14l-2-.28a1.62,1.62,0,0,1-1.23.79h-.15L148,84.32l-1.44,7.79C148.09,92.05,149.64,92,151.14,92Z"/><path class="cls-1" d="M136.46,1c20.25,0,50.78,3.35,62.25,16.25,8,9,12.25,19.22,12.25,28.5,0,5.75,4.53,21.59,10.77,27.29l.25.22.51-.67a6,6,0,0,0,1.09.1,5.33,5.33,0,0,0,4.18-2l.18-.23a5.39,5.39,0,1,1,5.55,3.12l-.26.38c-1.14,1.67.19,5.39.19,5.39l-.67,1.19c1.13.68,1.93,1.15,2.12,1.25.53.3.33.9,0,1.41a178.57,178.57,0,0,1,15.43,13.39c17.18,16.31,15.77,32.69,8.8,44a3.17,3.17,0,0,1-2.95,1.47,18.2,18.2,0,0,1-6-1.54,138.83,138.83,0,0,1,30.68,87.59c0,56.59-33.13,105.07-80.21,125.42l2.61,4.11,9.43,16.88c.46.71-.33,2-1.71,2.79a4.33,4.33,0,0,1-2,.7,1.81,1.81,0,0,1-1.25-.51c-.89-.79-12.55-15-12.55-15l-3.61-5.45a124.43,124.43,0,0,1-40.38,6.72c-13.75,0-26.8-2.88-39.43-6.39-17.13-4.76-34.38-13.76-50.1-25L45.63,355S34,369.21,33.08,370a1.85,1.85,0,0,1-1.25.5,4.29,4.29,0,0,1-2-.7c-1.38-.79-2.18-2.08-1.71-2.79l9.43-16.88,16.07-23.77a209.44,209.44,0,0,1-23.26-21.43C11.46,284.66,1,256.16,1,225.5c0-41,19.93-77.12,50.1-98a156.47,156.47,0,0,1,16.56-9.06L64,120l-.79-1.35C44.4,129,25.85,135.9,16.25,135.9c-3,0-5.07-.66-6.07-2.06C1.44,121.53,5.87,104.6,19.63,91.5c4.17-4,12-9.9,21.2-15.49L40,74.51s1.94-2.64.8-4.32c-.1-.14-.18-.25-.26-.38a5.36,5.36,0,1,1,5.55-3.12l.17.24A4.71,4.71,0,0,0,50,68.4a9.19,9.19,0,0,0,1.61-.15,3.31,3.31,0,0,0,.21.43c.49-.4,1-.83,1.49-1.3,3.38-3.26,8.88-10.13,10.13-19.13s3.75-21.25,16-33.5S116.21,1,136.46,1M66.11,63.76c1.94-.65,3.86-1.21,5.72-1.65A69.88,69.88,0,0,1,87.74,60c11.49,0,20.74,4.31,27.65,15.7,4.15,6.82-17.85,22.61-42,37L74.78,115c14.66-7,31.18-14.12,36.93-16a123.86,123.86,0,0,1,31.14-6.09l1.76-9.52-5.89-.91c-.32,0-.57-.4-.73-1l-2.18-.32c-.71-.11-1-2-.67-4.14s1.12-3.75,1.81-3.75H137l2.22.32c.28-.4.58-.63.86-.63h.07L155,75.22c.27,0,.48.31.65.72h.11a6.57,6.57,0,0,1,.68-1A37,37,0,0,1,184.8,61.43,34.65,34.65,0,0,1,197.89,64c4.56,1.85,8.59,3.54,12.24,5.17a16.07,16.07,0,0,1-3-4.55c-2.87-6.62-3.62-12.24-3.62-19.37S199.21,28,191.33,21.13s-17.75-8.88-35.62-10.88a172.33,172.33,0,0,0-19-1,224.87,224.87,0,0,0-34.27,2.6A35.56,35.56,0,0,0,75,35.13c-3,8.7-5.27,22.43-8.82,28.63h0m-2.64.95.43-.17-.43.17m-2.32.89.39-.15-.39.15m-4.71,2-.12,0,.12,0m-2.35,1.1-.28.14.28-.14M157,84.18h-.07l-2.28-.33c-.32.52-.67.83-1,.83h-.08l-6-.92-1.64,8.88c1.72-.07,3.46-.11,5.2-.11A124.81,124.81,0,0,1,173,94.45c-7-5.37-12-9.6-13.93-11.78l-.59-.66c-.4,1.3-1,2.17-1.46,2.17M51.63,68.25h0m170.86,4.33h0M136.46,0c-9,0-20.8.26-31.69,2.3C93,4.51,84.44,8.35,78.75,14,67,25.83,64,37.38,62.47,48.11c-1.35,9.73-7.87,16.65-9.83,18.54l-.7.64a1.18,1.18,0,0,0-.57,0A8,8,0,0,1,50,67.4a4,4,0,0,1-2.8-.89,6.32,6.32,0,0,0,.33-2A6.38,6.38,0,1,0,40,70.73v0c.56.82-.28,2.49-.78,3.17A1,1,0,0,0,39.12,75l.37.66c-8.21,5.07-16,10.81-20.55,15.12C4.47,104.56.62,122.1,9.36,134.41c1.17,1.65,3.49,2.49,6.89,2.49,7.87,0,21.64-4.51,36.8-11.87-1,.57-1.81,1.11-2.52,1.61C18.89,148.58,0,185.54,0,225.5c0,31.16,10.52,59.61,29.62,80.12a211.17,211.17,0,0,0,22.64,20.95l-15.55,23-.05.07L27.25,366.5A2,2,0,0,0,27,368a4.67,4.67,0,0,0,2.28,2.66,5.15,5.15,0,0,0,2.51.83,2.82,2.82,0,0,0,1.91-.76c.91-.8,10.71-12.74,12.66-15.13l0-.05,15.41-21.77c16.41,11.64,33.54,20.13,49.59,24.59,11.44,3.18,25.1,6.43,39.7,6.43a125.29,125.29,0,0,0,40-6.53l3.19,4.81.06.08c1.95,2.39,11.75,14.33,12.66,15.13a2.81,2.81,0,0,0,1.91.76,5.15,5.15,0,0,0,2.51-.83,4.67,4.67,0,0,0,2.28-2.66,2,2,0,0,0-.21-1.51L204.1,357.2l0-.05-2-3.13a132.12,132.12,0,0,0,57.13-49A141.69,141.69,0,0,0,253,142.61a11.62,11.62,0,0,0,3.09.5,4.15,4.15,0,0,0,3.8-2c9.07-14.74,5.8-31.23-9-45.26A180.67,180.67,0,0,0,236.1,83a1.82,1.82,0,0,0,.05-1,1.57,1.57,0,0,0-.8-1l-1.25-.74.19-.35a1,1,0,0,0,.07-.82c-.48-1.35-.89-3.63-.3-4.49v0a6.37,6.37,0,1,0-7.6-6.24,6.29,6.29,0,0,0,.33,2,4.39,4.39,0,0,1-3.22,1.37,5.93,5.93,0,0,1-.83-.07,1.09,1.09,0,0,0-.26,0,1,1,0,0,0-.61.22C216.21,66,212,51.25,212,45.75c0-9.74-4.44-20.09-12.51-29.16C185.78,1.2,147.78,0,136.46,0ZM68.08,62.09c1.76-4,3.22-9.73,4.64-15.28,1-4,2.07-8.08,3.18-11.36,3-8.92,11.87-20.18,26.72-22.59a223.6,223.6,0,0,1,34.11-2.58,173.52,173.52,0,0,1,18.87,1c18.16,2,27.53,4,35.07,10.64C198.77,29,202.46,39,202.46,45.25c0,6.74.63,12.68,3.7,19.77a18.13,18.13,0,0,0,.87,1.7c-2.62-1.13-5.52-2.33-8.76-3.65a35.71,35.71,0,0,0-13.47-2.64,38.18,38.18,0,0,0-29.12,13.89l-.05.06a1.49,1.49,0,0,0-.45-.15L140.32,72l-.22,0a1.81,1.81,0,0,0-1.26.56l-1.68-.24-.21,0c-2,0-2.68,3.83-2.8,4.6-.35,2.27-.17,5,1.51,5.28l1.61.23a1.75,1.75,0,0,0,1.3,1l4.87.75L142,91.88A125.13,125.13,0,0,0,111.39,98c-5.83,2-21.94,8.93-36.23,15.71l-.37-.61C100.89,97.38,115,85.92,116.71,79a4.87,4.87,0,0,0-.46-3.84C109.54,64.12,100.49,59,87.74,59A70.63,70.63,0,0,0,71.6,61.14c-1.13.27-2.31.59-3.52,1ZM157,85.18a2.19,2.19,0,0,0,1.78-1.33,116,116,0,0,0,10.48,9,126.5,126.5,0,0,0-18.11-1.31c-1.31,0-2.65,0-4,.07l1.24-6.7,5,.77.23,0a1.92,1.92,0,0,0,1.44-.76l1.69.25Z"/><path class="cls-2" d="M51.63,68.25c-2.38.44-4.41-.09-5.38-1.32l-.17-.24a5.39,5.39,0,1,0-5.55,3.12c.08.13.16.24.26.38,1.14,1.68-.8,4.32-.8,4.32l1.06,1.9,11.47-6.49S51.54,68.16,51.63,68.25Z"/><path class="cls-2" d="M151.14,92.52a124.26,124.26,0,0,0-39.43,6.39c-9.76,3.25-50.62,21.62-60.61,28.55-30.17,20.92-50.1,57-50.1,98,0,30.66,10.46,59.16,29.35,79.43,21.74,23.35,51.75,44.27,81.36,52.49,12.63,3.51,25.68,6.39,39.43,6.39,71.62,0,129.68-60.73,129.68-135.65S222.76,92.52,151.14,92.52Z"/><ellipse class="cls-3" cx="118.21" cy="225.5" rx="96.75" ry="102.37"/><path class="cls-1" d="M129.12,154.37c-1.14-6.09-4.29-12.18-10.55-12.18-7.89,0-9.91,10.71-9.91,24.64,0,6.86.25,22.54,9.79,22.54,6.76,0,10-6,10.73-12.6H132V191.4h-2.65a1.91,1.91,0,0,0-1.58-1.26c-1.51,0-5.43,1.68-9.6,1.68-14.52,0-21.79-10.85-21.79-26.39,0-15.05,7.33-25.69,21.48-25.69,5.36,0,9.09,2.17,10.1,2a1.77,1.77,0,0,0,1.64-1.61h1.83v14.21Z"/><path class="cls-1" d="M127.52,261.61c-11.43,0-17,11.34-17.68,22.75a11.61,11.61,0,0,1,8.21-3c8.33,0,14.52,4.55,14.52,14.49,0,10.71-7.64,16.18-16.92,16.18-12.7,0-17.31-9.46-17.31-21.92,0-19.53,11.75-30.94,29.18-30.94Zm-5.81,34.65c0-3.85-.38-12.46-5.75-12.46-5.87,0-5.87,8-5.87,12.25,0,3.85.06,13.52,5.81,13.52S121.71,300.11,121.71,296.26Z"/><path class="cls-1" d="M44.17,248.19c11.43,0,17-11.34,17.69-22.75a11.65,11.65,0,0,1-8.21,3c-8.34,0-14.53-4.55-14.53-14.49,0-10.71,7.64-16.17,16.92-16.17,12.7,0,17.31,9.45,17.31,21.91,0,19.53-11.75,30.94-29.18,30.94ZM50,213.54c0,3.85.38,12.46,5.75,12.46,5.87,0,5.87-8,5.87-12.25,0-3.85-.06-13.51-5.81-13.51S50,209.69,50,213.54Z"/><path class="cls-1" d="M173,221.17a21.68,21.68,0,0,0,3.1.21c5.93,0,7.13-5.6,7.13-12.25,0-2.94-.31-8.89-4.54-8.89-1.77,0-3.67.28-3.67,2.73,0,1.26.95,2,.95,3.29,0,3.57-2,5.53-5.18,5.53a5.29,5.29,0,0,1-5.3-5.53c0-7.07,8.65-8.47,13.45-8.47,6.82,0,15.66,2.45,15.66,11.76,0,8-7.45,11.34-13.45,12.53v.14c6.38.21,14.21,3.92,14.21,12.18,0,10.36-8.4,14.63-17.31,14.63-5.43,0-13.51-1-13.51-8.4a5.54,5.54,0,0,1,5.68-5.53,5,5,0,0,1,4.8,4.69c0,1.61-.69,2.66-.69,4.13s1.58,2.66,3.54,2.66c5.68,0,6.12-7.7,6.12-12,0-5.6-1.14-10.78-7.07-10.78A36.77,36.77,0,0,0,173,224Z"/><path class="cls-1" d="M167.69,265.79l-4.81-6.58L124.14,228a9.12,9.12,0,0,0,.52-3,8.51,8.51,0,0,0-8.25-8.73,7.93,7.93,0,0,0-4.94,1.75,8.83,8.83,0,0,0-4,7.48,8.5,8.5,0,0,0,8.25,8.73,7.93,7.93,0,0,0,4.91-1.73l39,30.46,7.38,3.33Z"/><path class="cls-1" d="M167,266.29l-4.81-6.58-38.74-31.19a9.12,9.12,0,0,0,.52-3,8.26,8.26,0,1,0-8.25,8.73,7.93,7.93,0,0,0,4.91-1.73l39,30.46Z"/><path class="cls-1" d="M169.18,154.34l-.76-.4-6.58,4.81-46.91,58.71a7.92,7.92,0,0,0-3.22-.69,8.5,8.5,0,0,0-8.25,8.73,8.74,8.74,0,0,0,5,8,7.84,7.84,0,0,0,4,1.11,8.51,8.51,0,0,0,8.25-8.73,9,9,0,0,0-1.35-4.77l46.48-59.41Z"/><path class="cls-1" d="M168.42,153.94l-6.58,4.81-46.91,58.71a7.92,7.92,0,0,0-3.22-.69A8.74,8.74,0,1,0,120,225.5a9,9,0,0,0-1.35-4.77l46.48-59.41Z"/><ellipse class="cls-4" cx="111.71" cy="225.5" rx="2.58" ry="2.73"/><path class="cls-2" d="M52.66,327.87,37.54,350.13,28.11,367c-.47.71.33,2,1.71,2.79s2.37,1,3.26.2,12.55-15,12.55-15L60.56,334Z"/><path class="cls-4" d="M204.55,128.71c-1.56,0-5.19-2.05-8.09-4.08a37.66,37.66,0,0,1-5-4.06c-1.51-1.51-2-2.45-1.57-3.06a1,1,0,0,1,.86-.38,6.94,6.94,0,0,1,2.6.81l4.69-6.48.39.26L202,114c2.09,1.33,4.1,2.58,6.07,3.8l.44.27-4.73,7.13c2,2,1.9,2.69,1.61,3.11a1,1,0,0,1-.86.38Z"/><path class="cls-1" d="M198.17,112.14l3.59,2.31c2.08,1.33,4.1,2.58,6.07,3.79l-4.67,7.05c1.38,1.32,2.11,2.36,1.84,2.75a.53.53,0,0,1-.45.17c-1.21,0-4.38-1.59-7.8-4-4.06-2.83-6.94-5.71-6.44-6.43a.54.54,0,0,1,.45-.16,7.79,7.79,0,0,1,2.77.94l4.64-6.43m-.25-1.36-.56.77-4.16,5.77a6.43,6.43,0,0,0-2.44-.69,1.46,1.46,0,0,0-1.27.59c-.75,1.08.4,2.48,1.62,3.7a39.41,39.41,0,0,0,5.06,4.12c2.76,1.92,6.6,4.17,8.38,4.17a1.45,1.45,0,0,0,1.27-.6c.57-.81.15-1.86-1.38-3.45l4.22-6.36.57-.87-.88-.54c-2.27-1.4-4.19-2.6-6.06-3.79l-3.57-2.3-.8-.52Z"/><circle class="cls-5" cx="205.21" cy="108.25" r="2"/><path class="cls-4" d="M208.93,378.56a2.3,2.3,0,0,1-1.58-.63c-.9-.8-11.41-13.62-12.61-15.08,0,0-12.3-18.54-15.05-22.67a10.89,10.89,0,0,1-3.82.93,2.06,2.06,0,0,1-1.86-.78c-.56-.86-.13-2.19,1.25-3.83a24.45,24.45,0,0,1,5.29-4.47c3.19-2.06,6.4-3.35,8.39-3.35a2.07,2.07,0,0,1,1.86.78c.65,1,0,2.64-2,4.62,2.7,4.24,14.8,23.34,14.8,23.34l9.43,16.91a1.42,1.42,0,0,1,.15,1.13,4.12,4.12,0,0,1-2,2.33,4.68,4.68,0,0,1-2.26.77Z"/><path class="cls-1" d="M188.94,329.18a1.61,1.61,0,0,1,1.44.56c.54.84-.35,2.47-2.17,4.27,2.19,3.43,15,23.68,15,23.68l9.43,16.88c.46.71-.33,2-1.71,2.79a4.33,4.33,0,0,1-2,.7,1.81,1.81,0,0,1-1.25-.51c-.89-.79-12.55-15-12.55-15s-13-19.67-15.26-23a11.07,11.07,0,0,1-4,1.05,1.61,1.61,0,0,1-1.44-.55c-.87-1.35,2-4.76,6.39-7.61,3.18-2.06,6.3-3.27,8.12-3.27m0-1c-2.08,0-5.4,1.32-8.66,3.43a24.94,24.94,0,0,0-5.4,4.56c-1.94,2.31-1.77,3.69-1.29,4.43a2.51,2.51,0,0,0,2.28,1,10.75,10.75,0,0,0,3.62-.82c3.11,4.67,14.68,22.11,14.81,22.3l.06.08c1.95,2.39,11.75,14.33,12.66,15.13a2.81,2.81,0,0,0,1.91.76,5.15,5.15,0,0,0,2.51-.83,4.67,4.67,0,0,0,2.28-2.66,2,2,0,0,0-.21-1.51L204.1,357.2l0-.05c-.12-.19-11.55-18.23-14.59-23,1.9-2.06,2.51-3.77,1.74-4.95a2.51,2.51,0,0,0-2.28-1Z"/><path class="cls-2" d="M137.92,77.43c-.4,2.61,0,4.83.8,5l14.85,2.28c.85.13,1.86-1.88,2.26-4.49s0-4.83-.81-5l-14.85-2.28C139.33,72.81,138.32,74.82,137.92,77.43Z"/><path class="cls-2" d="M144.84,98.58l2.74-14.83,6,.92c.35.06.72-.26,1.07-.82l2.28.33c.71.11,1.55-1.57,1.88-3.75s0-4-.67-4.14l-2.46-.35c-.17-.41-.38-.68-.65-.72l-14.85-2.28c-.3,0-.62.19-.93.62L137,73.24c-.71-.11-1.55,1.57-1.88,3.74s0,4,.67,4.14l2.18.32c.16.55.41.9.73,1l5.89.91-2.83,15.28"/><path class="cls-4" d="M256.12,142.61c-2.29,0-5.44-1.19-10.13-3.23-5.8-2.54-21.74-10-44.5-24.51C178.94,100.5,162.6,87.36,158.67,83s-4.51-6-2.6-8.38a37.67,37.67,0,0,1,28.73-13.7,35.33,35.33,0,0,1,13.28,2.6c26.24,10.64,35.07,16.15,52.54,32.74,14.57,13.84,17.81,30.11,8.88,44.63A3.65,3.65,0,0,1,256.12,142.61Z"/><path class="cls-1" d="M184.8,61.43A34.65,34.65,0,0,1,197.89,64c26.28,10.65,35.21,16.31,52.38,32.63s15.77,32.69,8.8,44a3.16,3.16,0,0,1-2.95,1.47c-2.29,0-5.59-1.3-9.93-3.19-6.87-3-22.54-10.52-44.43-24.47S163.12,87.18,159,82.67,154.84,77,156.46,75A37,37,0,0,1,184.8,61.43m0-1h0a38.16,38.16,0,0,0-29.12,13.89c-2.23,2.78-1.31,4.69,2.62,9s20.33,17.54,42.92,31.94c22.79,14.52,38.76,22,44.57,24.54,4.75,2.08,8,3.28,10.33,3.28a4.15,4.15,0,0,0,3.8-2c9.07-14.74,5.8-31.23-9-45.26-17.52-16.64-26.38-22.16-52.69-32.83a35.71,35.71,0,0,0-13.47-2.64Z"/><path class="cls-4" d="M232.81,85.35a4,4,0,0,1-1.94-.64l-.81-.47a111.82,111.82,0,0,1-10.25-6.44c-.54-.42-1.23-.89-2-1.44-3.49-2.4-8.76-6-11.16-11.54-3-7-3.66-12.89-3.66-19.57,0-6.41-3.74-16.58-12-23.75-7.64-6.67-17.08-8.71-35.35-10.75a171.71,171.71,0,0,0-18.92-1,224.54,224.54,0,0,0-34.19,2.59c-15.07,2.44-24,13.87-27.11,22.92-1.12,3.29-2.18,7.41-3.2,11.4C70.55,53.29,68.8,60.11,66.57,64a.49.49,0,0,1-.28.23A117.23,117.23,0,0,0,46.94,73L40.24,77A.55.55,0,0,1,40,77a.5.5,0,0,1-.25-.93C39.83,76,49.69,70.19,53,67c2-1.91,8.6-9,10-18.83,1.48-10.64,4.46-22.1,16.14-33.78C91.42,2.08,116.22.5,136.46.5c11.26,0,49.08,1.18,62.62,16.42,8,9,12.38,19.22,12.38,28.83,0,5.74,4.58,21.41,10.6,26.93,3.21,2.93,12,8.12,13.05,8.72a1.07,1.07,0,0,1,.57.8,2.5,2.5,0,0,1-.84,1.82,3.28,3.28,0,0,0-.22.26,2.18,2.18,0,0,1-1.81,1.07Z"/><path class="cls-1" d="M136.46,1c20.25,0,50.78,3.35,62.25,16.25,8,9,12.25,19.22,12.25,28.5,0,5.75,4.53,21.59,10.77,27.29,3.33,3.06,12.45,8.41,13.14,8.79s.15,1.3-.38,1.84c-.38.37-.71,1.18-1.68,1.18a3.49,3.49,0,0,1-1.69-.57,124.62,124.62,0,0,1-11-6.87c-3-2.3-10.16-6.16-13-12.79s-3.62-12.24-3.62-19.37S199.21,28,191.33,21.12s-17.75-8.87-35.62-10.87a172.33,172.33,0,0,0-19-1,224.87,224.87,0,0,0-34.27,2.6A35.55,35.55,0,0,0,75,35.12c-3,8.71-5.27,22.44-8.82,28.64a118.73,118.73,0,0,0-19.45,8.83L40,76.53s10-5.91,13.34-9.15,8.88-10.13,10.13-19.13,3.75-21.25,16-33.5S116.21,1,136.46,1m0-1c-9,0-20.8.26-31.69,2.3C93,4.51,84.44,8.35,78.75,14,67,25.83,64,37.38,62.47,48.11c-1.35,9.73-7.87,16.65-9.83,18.54-3.25,3.14-13.06,9-13.16,9A1,1,0,0,0,40,77.53a1.06,1.06,0,0,0,.51-.14l6.7-3.93A116.17,116.17,0,0,1,66.45,64.7a.91.91,0,0,0,.55-.45c2.27-4,4-10.81,5.72-17.44,1-4,2.07-8.08,3.18-11.36,3-8.92,11.87-20.18,26.72-22.59a223.6,223.6,0,0,1,34.11-2.58,173.52,173.52,0,0,1,18.87,1c18.16,2,27.53,4,35.07,10.64C198.77,29,202.46,39,202.46,45.25c0,6.74.63,12.68,3.7,19.77,2.46,5.65,7.8,9.32,11.34,11.75.79.55,1.47,1,2,1.43a112.08,112.08,0,0,0,10.3,6.47l.81.47a4.43,4.43,0,0,0,2.19.71A2.7,2.7,0,0,0,235,84.59l.17-.22a2.89,2.89,0,0,0,1-2.24,1.57,1.57,0,0,0-.83-1.17c-.91-.51-9.8-5.77-12.95-8.65C216.47,66.88,212,51.42,212,45.75c0-9.74-4.44-20.09-12.51-29.16C185.78,1.2,147.78,0,136.46,0Z"/><path class="cls-4" d="M232.36,81.79a.5.5,0,0,1-.26-.08l-11.29-6.87a.5.5,0,0,1-.13-.73c.5-.64,1.31-1.68,1.39-1.8l.07-.08h0a.51.51,0,0,1,.35-.15.4.4,0,0,1,.15,0,6,6,0,0,0,.94.08,4.81,4.81,0,0,0,3.79-1.77,5.7,5.7,0,0,1-.4-2.12,5.88,5.88,0,1,1,6.81,5.78l-.13.2c-.82,1.2-.11,4,.24,4.94a.5.5,0,0,1,0,.41l-1.06,1.9a.45.45,0,0,1-.31.24Z"/><path class="cls-1" d="M232.85,62.92a5.37,5.37,0,0,1,.64,10.7l-.26.38c-1.14,1.67.19,5.39.19,5.39l-1.06,1.9-11.29-6.87s1.37-1.75,1.42-1.83a6,6,0,0,0,1.09.1,5.33,5.33,0,0,0,4.18-2l.18-.23a5.38,5.38,0,0,1,4.91-7.58m-10.36,9.66h0m10.36-10.66a6.38,6.38,0,0,0-6.38,6.38,6.29,6.29,0,0,0,.33,2,4.39,4.39,0,0,1-3.22,1.37,5.93,5.93,0,0,1-.83-.07,1.09,1.09,0,0,0-.26,0,1,1,0,0,0-.7.3.65.65,0,0,0-.15.18l-1.35,1.74a1,1,0,0,0-.2.79,1,1,0,0,0,.46.68l11.29,6.87a1,1,0,0,0,.52.15.73.73,0,0,0,.25,0,1,1,0,0,0,.62-.48l1.06-1.9a1,1,0,0,0,.07-.82c-.48-1.35-.89-3.63-.3-4.49v0a6.37,6.37,0,0,0-1.22-12.62Z"/><path class="cls-2" d="M10.18,133.84C1.44,121.53,5.87,104.6,19.63,91.5c8.63-8.22,33.09-24.86,52.2-29.39s33.7-2.67,43.56,13.57c4.46,7.33-21.32,25-47.47,40.28S14.7,140.21,10.18,133.84Z"/><path class="cls-2" d="M51.9,99.24,64,120l11-4.75L61.89,93.84c-1.14.58-2.28,1.18-3.43,1.79C56.22,96.82,54,98,51.9,99.24Z"/><line class="cls-6" x1="74.96" y1="115.25" x2="61.89" y2="93.84"/><line class="cls-6" x1="51.9" y1="99.24" x2="63.96" y2="120"/><path class="cls-7" d="M113.83,77.77c-7.12-2.8-30.15,4.45-55.37,17.86-27.08,14.4-46.87,30.7-45.83,37.46"/><path class="cls-7" d="M111.71,334.75c-57,0-103.25-48.91-103.25-109.25S54.68,116.25,111.71,116.25"/></g></g></svg>