<?xml version="1.0" encoding="utf-8"?>
<!-- Generator: Adobe Illustrator 25.2.0, SVG Export Plug-In . SVG Version: 6.00 Build 0)  -->
<svg version="1.1" id="Layer_1" xmlns="http://www.w3.org/2000/svg" xmlns:xlink="http://www.w3.org/1999/xlink" x="0px" y="0px"
	 viewBox="0 0 600 600" style="enable-background:new 0 0 600 600;" xml:space="preserve">
<style type="text/css">
	*{vector-effect:non-scaling-stroke}
	.st0{fill:#231F20;}
	.st1{fill:#FFFFFF;stroke:#231F20;stroke-width:0.25;stroke-linecap:round;stroke-linejoin:round;}
	.st2{fill:#FFFFFF;stroke:#231F20;stroke-linecap:round;stroke-linejoin:round;}
	.st3{fill:#FFFFFF;}
	.st4{fill:none;stroke:#231F20;stroke-width:0.25;stroke-miterlimit:10;}
	.st5{fill:none;stroke:#231F20;stroke-miterlimit:10;}
	.st6{fill:none;stroke:#231F20;stroke-width:0.25;stroke-linecap:round;stroke-linejoin:round;}
</style>
<g id="Layer_2_1_">
	<g id="Layer_1-2">
		<path class="st0" d="M405.5,593.6c-0.9,0-1.9-0.3-2.5-0.9c-1.4-1.2-17.7-21.1-19.6-23.5l-5.3-8.1c-20,6.8-41.2,10.3-62.4,10.3
			c-22.5,0-43.8-5-61.5-9.9c-25-7-51.9-20.2-77.4-38.5l-24.4,34.5c-1.9,2.3-18.2,22.2-19.6,23.5c-0.6,0.6-1.6,0.9-2.5,0.9
			c-1.2-0.2-2.5-0.5-3.6-1.2c-1.4-0.8-2.6-2-3.1-3.6c-0.2-0.6-0.2-1.2,0.3-1.9l14.6-26.3l24.5-36.3c-12.7-10.1-24.7-21.1-35.7-32.9
			C98.1,448,81.8,403.9,81.8,355.8c0-61.8,29.2-119,78.1-152.8c6.2-4,12.7-7.6,19.6-11l-0.6-1.1c-29.4,16.2-57.8,26.6-72.5,26.6
			c-5,0-8.4-1.2-10.1-3.6C82.8,195,88.7,168.1,111,147c7.1-6.8,19.4-15.8,32.5-23.8l-0.9-1.7c-0.2-0.3-0.2-0.6,0-0.8
			c0.8-1.1,2.5-4,1.2-5.9l-0.2-0.3c-5-0.8-8.4-5.4-7.6-10.4c0.8-5,5.4-8.4,10.4-7.6c4.3,0.8,7.6,4.5,7.6,9c0,1.1-0.2,2.2-0.6,3.3
			c1.4,1.4,3.3,2.2,5.3,2c0.8,0,1.6,0,2.3-0.2c0,0,0.2,0,0.3,0c0.2,0,0.5,0,0.5,0.2l0,0c0.5-0.5,1.1-0.9,1.6-1.4
			c3.1-3,13.4-14,15.5-29.2c2.3-16.5,7-34.3,25-52.5C222.9,8.8,261.5,6.3,293,6.3c17.6,0,76.3,1.9,97.2,25.5
			c12.4,14,19.3,29.8,19.3,44.7c0,8.9,7,32.9,16.2,41.6l0.3-0.3l0.2-0.2l0,0c0.2-0.2,0.3-0.2,0.6-0.3h0.2c0.5,0.2,0.9,0.2,1.4,0.2
			c2.3,0,4.5-0.9,5.9-2.8c-0.5-1.1-0.6-2.2-0.6-3.3c0-5,4-9.2,9.2-9.2c5,0,9.2,4,9.2,9.2c0,4.5-3.3,8.4-7.6,9l-0.2,0.3
			c-1.2,1.9-0.2,6.2,0.3,7.6c0.2,0.2,0.2,0.5,0,0.6l-0.6,1.2c1.4,0.8,2.3,1.4,2.6,1.6c0.5,0.3,0.8,0.6,0.9,1.1
			c0.2,0.5,0,1.1-0.3,1.6c8.2,6.4,16,13.2,23.5,20.5c22.7,21.4,27.6,46.8,13.8,69.3c-1.1,1.9-3.1,2.8-5.3,2.6
			c-2.3-0.2-4.7-0.6-7-1.6c30,38.4,46.1,85.7,46.1,134.4c0,85.6-48.8,162.2-124.3,195.1l3.6,5.6l14.6,26.3c0.3,0.5,0.5,1.1,0.2,1.7
			c-0.5,1.6-1.7,2.8-3.1,3.6C408.1,592.9,406.9,593.3,405.5,593.6L405.5,593.6z M197.5,183c22.4-10.6,47.7-21.6,56.8-24.7
			c15.5-5.1,31.7-8.4,48-9.5l2.5-13.4l-8.4-1.2c-0.5,0-1.1-0.5-1.6-1.6l-3-0.5c-1.9-0.3-2.2-4-1.7-7.3c0.5-3.3,1.9-6.5,3.6-6.5h0.2
			l3,0.5c0.5-0.5,0.9-0.9,1.7-0.9h0.2l23.1,3.6c0.3,0,0.8,0.3,0.9,0.6l0.5-0.6c11-13.4,27.3-21.1,44.6-21.3c7.1,0,14.1,1.4,20.7,4
			c6.1,2.5,11.3,4.7,16,6.7c-1.1-1.4-2-3-2.8-4.7c-4.7-10.9-5.7-20-5.7-30.4c0-9.9-5.7-25.8-18.6-37c-11.8-10.4-26.6-13.5-54.8-16.8
			c-9.8-1.1-19.6-1.6-29.4-1.6c-17.7,0-35.6,1.4-53.1,4c-23.5,3.7-37.3,21.6-42.1,35.6c-1.7,5.1-3.4,11.5-5,17.7
			c-2.3,9.3-4.8,18.9-7.9,25.2c2.5-0.8,4.8-1.4,7.1-2c8.1-2,16.5-3.3,24.9-3.4c19.6,0,33.4,7.9,43.6,24.7c0.9,1.6,1.2,3.6,0.6,5.4
			c-3.3,13.2-37.3,35.9-65.4,52.8L197.5,183z M315.7,148.4c10.4,0,20.7,0.8,30.9,2.5c-6.8-5-13.2-10.6-19.3-16.5l0,0
			c-0.6,1.2-1.4,2.6-2.5,2.6h-0.2l-3.1-0.5c-0.5,0.6-1.1,1.1-1.9,1.2h-0.2l-8.5-1.4l-2.2,12.1C311,148.6,313.3,148.4,315.7,148.4z"
			/>
		<path class="st0" d="M293,7.1c31.4,0,78.9,5.1,96.6,25.2c12.4,14,18.9,29.8,18.9,44.3c0,9,7,33.6,16.8,42.4l0.3,0.3l0.8-1.1
			c0.6,0.2,1.1,0.2,1.7,0.2c2.5,0,5-1.1,6.5-3.1l0.3-0.3c-1.9-4.2,0-9.2,4.2-11c4.2-1.9,9.2,0,11,4.2c1.9,4.2,0,9.2-4.2,11
			c-0.8,0.3-1.6,0.6-2.5,0.6l-0.5,0.6c-1.7,2.6,0.3,8.4,0.3,8.4l-1.1,1.9c1.7,1.1,3,1.9,3.3,1.9c0.8,0.5,0.5,1.4,0,2.2
			c8.4,6.5,16.3,13.4,23.9,20.8c26.7,25.3,24.5,50.8,13.7,68.3c-0.9,1.6-2.8,2.5-4.7,2.3c-3.3-0.3-6.4-1.1-9.3-2.3
			c31.1,38.5,47.8,86.5,47.7,136.1c0,87.9-51.4,163.2-124.6,194.8l4,6.4l14.6,26.3c0.8,1.1-0.5,3.1-2.6,4.3c-0.9,0.6-2,0.9-3.1,1.1
			c-0.8,0-1.4-0.3-1.9-0.8c-1.4-1.2-19.6-23.3-19.6-23.3l-5.6-8.5c-20.2,7-41.3,10.4-62.8,10.4c-21.4,0-41.6-4.5-61.2-9.9
			c-26.6-7.5-53.4-21.4-77.8-38.8l-24.9,35.1c0,0-18,22.1-19.4,23.3c-0.5,0.5-1.2,0.8-1.9,0.8c-1.1-0.2-2.2-0.5-3.1-1.1
			c-2.2-1.2-3.4-3.3-2.6-4.3l14.6-26.3l25-37c-12.9-10.1-25-21.3-36.2-33.2c-29-31.2-45.4-75.5-45.4-123.2
			c0-63.7,30.9-119.8,77.8-152.2c8.2-5.3,16.9-9.9,25.8-14.1l-5.7,2.5l-1.2-2c-29.2,16-58.1,26.7-73,26.7c-4.7,0-7.9-1.1-9.5-3.3
			c-13.5-19.1-6.7-45.4,14.6-65.7c6.5-6.2,18.6-15.4,32.9-24.1l-1.1-2.3c0,0,3-4,1.2-6.7c-0.2-0.2-0.3-0.3-0.5-0.6
			c-4.5-0.6-7.8-4.7-7.3-9.3c0.6-4.5,4.7-7.8,9.3-7.3c4.5,0.6,7.8,4.7,7.3,9.3c-0.2,0.8-0.3,1.6-0.6,2.3l0.3,0.3
			c1.6,1.6,3.6,2.5,5.7,2.3c0.8,0,1.7-0.2,2.5-0.3c0.2,0.2,0.2,0.5,0.3,0.6c0.8-0.6,1.6-1.2,2.3-2c5.3-5.1,13.8-15.7,15.7-29.7
			c1.9-14,5.9-32.9,24.9-52S261.5,7.1,293,7.1 M183.6,104.6c3-1.1,6.1-1.9,8.9-2.6c8.1-2,16.3-3.1,24.7-3.3c17.9,0,32.2,6.7,43,24.4
			c6.5,10.6-27.6,35.1-65.2,57.5l2.2,3.6c22.8-10.9,48.5-21.9,57.3-24.9c15.7-5.3,31.8-8.4,48.3-9.5l2.8-14.8l-9.2-1.4
			c-0.5,0-0.9-0.6-1.1-1.6l-3.4-0.5c-1.1-0.2-1.6-3.1-1.1-6.4c0.5-3.3,1.7-5.9,2.8-5.9l0,0l3.4,0.5c0.5-0.6,0.9-0.9,1.4-0.9h0.2
			l23,3.6c0.5,0,0.8,0.5,0.9,1.1h0.2c0.3-0.6,0.6-1.1,1.1-1.6c10.9-13.2,27-20.8,44.1-21c7,0,13.8,1.4,20.3,4
			c7.1,2.8,13.4,5.4,18.9,8.1c-2-2-3.6-4.5-4.7-7.1c-4.5-10.3-5.6-18.9-5.6-30.1s-6.7-26.7-18.9-37.4
			c-12.3-10.7-27.6-13.8-55.3-16.9c-9.8-1.1-19.7-1.6-29.5-1.6c-17.9,0-35.6,1.4-53.3,4c-19.4,3.4-35.7,17.2-42.4,36
			C192.8,73.5,189.2,95,183.6,104.6L183.6,104.6 M179.6,106l0.6-0.3L179.6,106 M176,107.4l0.6-0.3L176,107.4 M168.7,110.5h-0.2
			H168.7 M165.2,112.2l-0.5,0.2L165.2,112.2 M324.8,136.3L324.8,136.3l-3.7-0.5c-0.5,0.8-1.1,1.2-1.6,1.2h-0.2l-9.3-1.4l-2.5,13.8
			c2.6-0.2,5.4-0.2,8.1-0.2c11.3,0,22.8,0.9,34,3c-10.9-8.4-18.6-14.9-21.6-18.3l-0.9-1.1C326.5,134.9,325.6,136.3,324.8,136.3
			 M161.1,111.4L161.1,111.4 M426.6,118.3L426.6,118.3 M293,5.5c-14,0-32.3,0.5-49.2,3.6c-18.3,3.4-31.7,9.5-40.4,18.2
			c-18.3,18.3-23,36.3-25.3,53c-2,15.1-12.3,25.9-15.2,28.7l-1.1,0.9c-0.3,0-0.6,0-0.9,0c-0.8,0.2-1.4,0.2-2.2,0.2
			c-1.6,0.2-3.1-0.3-4.3-1.4c0.3-0.9,0.5-2,0.5-3.1c0-5.4-4.3-9.9-9.8-9.9c-5.4,0-9.9,4.3-9.9,9.8c0,4.8,3.4,9,8.1,9.8l0,0
			c0.9,1.2-0.5,3.9-1.2,5c-0.5,0.5-0.5,1.1-0.2,1.7l0.6,1.1c-12.7,7.9-24.9,16.8-31.8,23.5C88,167.8,82.1,195,95.6,214.1
			c1.9,2.5,5.4,3.9,10.7,3.9c12.3,0,33.6-7,57.2-18.5c-1.6,0.9-2.8,1.7-3.9,2.5C110.3,236.3,81,293.6,81,355.8
			c0,48.5,16.3,92.6,46,124.4c10.9,11.6,22.7,22.5,35.1,32.6L138,548.5v0.2l-14.6,26.3c-0.5,0.6-0.6,1.6-0.3,2.3
			c0.6,1.7,1.9,3.3,3.6,4.2c1.2,0.8,2.5,1.2,3.9,1.2c1.1,0,2.2-0.5,3-1.2c1.4-1.2,16.6-19.7,19.7-23.5l0,0l23.9-33.9
			c25.5,18,52,31.2,77,38.2c17.7,5,39,9.9,61.7,9.9c21.1,0,42.1-3.4,62.1-10.1l5,7.5l0.2,0.2c3,3.7,18.3,22.2,19.7,23.5
			c0.8,0.8,1.9,1.2,3,1.2c1.4-0.2,2.8-0.5,3.9-1.2c1.7-0.9,3-2.3,3.6-4.2c0.2-0.8,0.2-1.7-0.3-2.3l-14.6-26.1l0,0l-3.1-4.8
			c36.3-16.2,67.1-42.7,88.7-76.1c50.2-77.8,46.3-178.6-9.6-252.3c1.6,0.5,3.1,0.8,4.8,0.8c2.3,0.2,4.7-1.1,5.9-3.1
			c14.1-22.8,9-48.5-14-70.4c-7.3-7-14.9-13.7-23-20c0.2-0.5,0.2-1.1,0.2-1.6c-0.2-0.6-0.6-1.2-1.2-1.6l-1.9-1.1l0.3-0.5
			c0.2-0.5,0.3-0.8,0.2-1.2c-0.8-2-1.4-5.6-0.5-7l0,0c5.4-1.1,8.9-6.2,7.8-11.6s-6.2-8.9-11.6-7.8c-4.7,0.9-7.9,5-7.9,9.8
			c0,1.1,0.2,2.2,0.5,3.1c-1.2,1.4-3.1,2.2-5,2.2c-0.5,0-0.9,0-1.2-0.2c-0.2,0-0.3,0-0.5,0c-0.3,0-0.6,0.2-0.9,0.3
			c-8.9-9.2-15.4-32-15.4-40.5c0-15.1-6.8-31.2-19.4-45.4C369.6,7.4,310.5,5.5,293,5.5z M186.8,102c2.8-6.2,5-15.1,7.1-23.8
			c1.6-6.2,3.3-12.6,5-17.7c4.7-13.8,18.5-31.4,41.5-35.1c17.6-2.6,35.3-4,53-4c9.8,0,19.6,0.5,29.4,1.6
			c28.3,3.1,42.7,6.2,54.5,16.5c12.6,11,18.3,26.6,18.3,36.2c0,10.4,0.9,19.7,5.7,30.8c0.5,0.9,0.9,1.7,1.4,2.6
			c-4-1.7-8.5-3.6-13.7-5.7c-6.7-2.6-13.8-4-21-4c-17.6,0.2-34,8.1-45.2,21.6l-0.2,0.2c-0.2-0.2-0.5-0.2-0.6-0.3l-23.1-3.3h-0.3
			c-0.8,0-1.4,0.3-2,0.9l-2.6-0.3h-0.2c-3.1,0-4.2,5.9-4.3,7.1c-0.6,3.6-0.3,7.8,2.3,8.2l2.5,0.3c0.3,0.8,1.1,1.4,2,1.6l7.6,1.2
			l-2.2,12c-16.2,1.2-32.2,4.3-47.5,9.5c-9,3.1-34,13.8-56.2,24.4l-0.6-0.9c40.4-24.5,62.3-42.4,64.9-53.1c0.6-2,0.3-4.2-0.8-5.9
			c-10.4-17.1-24.5-25.2-44.3-25.2c-8.4,0.2-16.9,1.2-25,3.3C190.5,100.9,188.6,101.3,186.8,102L186.8,102z M324.8,137.8
			c1.2-0.2,2.3-0.9,2.8-2c5.1,5,10.6,9.6,16.3,14c-9.3-1.4-18.6-2-28.1-2c-2,0-4,0-6.2,0.2l1.9-10.4l7.8,1.2h0.3
			c0.9,0,1.7-0.5,2.2-1.2l2.6,0.3H324.8z"/>
		<path class="st1" d="M161.1,111.4c-3.7,0.6-6.8-0.2-8.4-2l-0.3-0.3c1.9-4.2,0-9.2-4.2-11c-4.2-1.9-9.2,0-11,4.2
			c-1.9,4.2,0,9.2,4.2,11c0.8,0.3,1.6,0.6,2.5,0.6c0.2,0.2,0.3,0.3,0.5,0.6c1.7,2.6-1.2,6.7-1.2,6.7l1.7,3l17.9-10.1
			C162.5,114.1,161,111.4,161.1,111.4z"/>
		<path class="st1" d="M315.7,149.2c-20.8,0-41.5,3.3-61.2,9.9c-15.2,5-78.6,33.6-94.1,44.3c-46.9,32.5-77.8,88.5-77.8,152.2
			c0,47.7,16.3,92,45.7,123.3c33.7,36.3,80.5,68.8,126.4,81.5c19.6,5.4,39.9,9.9,61.2,9.9c111.2,0,201.5-94.3,201.5-210.6
			S427,149.2,315.7,149.2z"/>
		<ellipse class="st2" cx="264.6" cy="355.8" rx="150.2" ry="159.1"/>
		<path class="st0" d="M281.5,245.3c-1.7-9.5-6.7-18.9-16.5-18.9c-12.3,0-15.4,16.6-15.4,38.2c0,10.7,0.3,34.9,15.2,34.9
			c10.6,0,15.5-9.3,16.6-19.6h4.3v22.7h-4c-0.3-1.1-1.4-1.9-2.5-2c-2.3,0-8.4,2.6-14.9,2.6c-22.5,0-33.9-16.9-33.9-41
			c0-23.5,11.3-39.9,33.4-39.9c8.4,0,14.1,3.4,15.7,3.1c1.4-0.2,2.5-1.1,2.5-2.5h2.8V245L281.5,245.3z"/>
		<path class="st0" d="M279,411.8c-17.7,0-26.4,17.6-27.5,35.4c3.4-3.1,8.1-4.8,12.7-4.7c12.9,0,22.5,7,22.5,22.5
			c0,16.6-11.8,25.2-26.3,25.2c-19.7,0-26.9-14.8-26.9-34c0-30.3,18.3-48,45.4-48V411.8z M270,465.7c0-6.1-0.6-19.4-9-19.4
			c-9.2,0-9.2,12.4-9.2,18.9c0,6.1,0.2,21,9,21C269.7,486.2,270,471.6,270,465.7L270,465.7z"/>
		<path class="st0" d="M149.6,391c17.7,0,26.4-17.6,27.5-35.4c-3.4,3.1-8.1,4.8-12.7,4.7c-12.9,0-22.5-7.1-22.5-22.5
			c0-16.6,11.8-25.2,26.3-25.2c19.7,0,26.9,14.6,26.9,34c0,30.3-18.3,48-45.4,48C149.6,394.6,149.6,391,149.6,391z M158.6,337.1
			c0,6.1,0.6,19.4,9,19.4c9.2,0,9.2-12.4,9.2-18.9c0-6.1-0.2-21-9-21C159,316.6,158.6,331.2,158.6,337.1z"/>
		<path class="st0" d="M349.7,349.1c1.6,0.2,3.3,0.3,4.8,0.3c9.2,0,11-8.7,11-18.9c0-4.5-0.5-13.8-7-13.8c-2.8,0-5.7,0.5-5.7,4.2
			c0,2,1.4,3.1,1.4,5.1c0,5.6-3.1,8.5-8.1,8.5c-4.5,0-8.2-3.7-8.2-8.2c0-0.2,0-0.3,0-0.5c0-11,13.4-13.2,20.8-13.2
			c10.6,0,24.4,3.7,24.4,18.3c0,12.4-11.5,17.6-20.8,19.4v0.2c9.9,0.3,22.1,6.1,22.1,18.9c0,16.2-13,22.7-26.9,22.7
			c-8.4,0-21-1.6-21-13c0-4.8,3.9-8.5,8.5-8.5h0.2c4,0.2,7.1,3.3,7.5,7.3c0,2.5-1.1,4.2-1.1,6.4s2.5,4.2,5.4,4.2
			c8.9,0,9.5-12,9.5-18.6c0-8.7-1.7-16.8-11-16.8c-2,0-4,0.2-6.1,0.3v-4.2H349.7z"/>
		<path class="st0" d="M341.5,418.4l-7.5-10.3l-60.3-48.5c0.5-1.6,0.8-3.1,0.8-4.7c0.2-7.3-5.6-13.4-12.7-13.5
			c-2.8,0-5.4,0.9-7.6,2.8c-3.9,2.5-6.2,7-6.2,11.6c-0.2,7.3,5.6,13.4,12.7,13.5c2.8,0,5.4-0.9,7.6-2.6l60.6,47.4l11.5,5.1
			L341.5,418.4z"/>
		<path class="st0" d="M340.4,419.1l-7.5-10.3l-60.1-48.5c0.5-1.6,0.8-3.1,0.8-4.7c-0.5-7.1-6.5-12.4-13.5-12.1
			c-7.1,0.5-12.4,6.5-12.1,13.5c0.3,6.8,6.1,12.1,12.7,12.1c2.8,0,5.4-0.9,7.6-2.6l60.6,47.4L340.4,419.1z"/>
		<path class="st0" d="M343.8,245.2l-1.2-0.6l-10.3,7.5l-72.8,91.2c-1.6-0.8-3.3-1.1-5-1.1c-7.3,0.2-13,6.2-12.7,13.5
			c0,5.3,3,10.1,7.8,12.4c1.9,1.1,4,1.7,6.2,1.7c7.3-0.2,13-6.2,12.7-13.5c0-2.6-0.8-5.1-2-7.5l72.2-92.3L343.8,245.2z"/>
		<path class="st0" d="M342.5,244.5l-10.3,7.5l-72.8,91.2c-1.6-0.8-3.3-1.1-5-1.1c-7.5-0.3-13.8,5.4-14.3,12.9
			c-0.3,7.5,5.4,13.8,12.9,14.3c7.5,0.3,13.8-5.4,14.3-12.9c0-0.2,0-0.5,0-0.6c0-2.6-0.8-5.1-2-7.5l72.2-92.3L342.5,244.5z"/>
		<ellipse class="st3" cx="254.5" cy="355.8" rx="4" ry="4.2"/>
		<path class="st1" d="M162.8,514.8l-23.5,34.6l-14.8,26.1c-0.8,1.1,0.5,3.1,2.6,4.3c2.2,1.2,3.7,1.6,5.1,0.3s19.4-23.3,19.4-23.3
			l23.1-32.6L162.8,514.8z"/>
		<path class="st3" d="M398.8,205.4c-2.5,0-8.1-3.3-12.6-6.4c-2.8-1.9-5.4-4-7.8-6.4c-2.3-2.3-3.1-3.7-2.5-4.8
			c0.3-0.5,0.8-0.6,1.4-0.6c1.4,0.2,2.8,0.6,4,1.2l7.3-10.1l0.6,0.5l5.6,3.6c3.3,2,6.4,4,9.5,5.9l0.6,0.5l-7.3,11
			c3.1,3.1,3,4.2,2.5,4.8S399.2,205.4,398.8,205.4L398.8,205.4z"/>
		<path class="st0" d="M388.8,179.6l5.6,3.6c3.3,2,6.4,4,9.5,5.9l-7.3,11c2.2,2,3.3,3.7,2.8,4.3c-0.2,0.2-0.5,0.3-0.6,0.3
			c-1.9,0-6.8-2.5-12.1-6.2c-6.4-4.3-10.7-8.9-9.9-9.9c0.2-0.2,0.5-0.3,0.6-0.3c1.6,0.2,3,0.8,4.3,1.4L388.8,179.6 M388.4,177.6
			l-0.9,1.2l-6.5,9c-1.2-0.6-2.5-0.9-3.7-1.1c-0.8,0-1.6,0.3-2,0.9c-1.2,1.7,0.6,3.9,2.5,5.7c2.5,2.3,5.1,4.5,7.9,6.4
			c4.3,3,10.3,6.5,13,6.5c0.8,0,1.6-0.3,2-0.9c0.9-1.2,0.2-3-2.2-5.3l6.5-9.9l0.9-1.4l-1.4-0.8c-3.6-2.2-6.5-4-9.5-5.9l-5.6-3.6
			L388.4,177.6L388.4,177.6z"/>
		<circle class="st4" cx="399.7" cy="173.6" r="3.1"/>
		<path class="st3" d="M405.5,593.6c-0.9,0-1.9-0.3-2.5-0.9c-1.4-1.2-17.7-21.1-19.6-23.5c0,0-19.1-28.7-23.5-35.3
			c-1.9,0.8-3.9,1.4-5.9,1.4c-1.1,0.2-2.2-0.3-3-1.2c-0.9-1.4-0.2-3.4,1.9-5.9c2.3-2.6,5.1-5,8.2-7c5-3.3,9.9-5.3,13-5.3
			c1.1-0.2,2.2,0.3,3,1.2c0.9,1.6,0,4-3.1,7.1c4.2,6.5,23,36.2,23,36.2l14.6,26.3c0.3,0.5,0.5,1.1,0.2,1.7c-0.5,1.6-1.7,2.8-3.1,3.6
			C407.9,592.9,406.7,593.4,405.5,593.6L405.5,593.6z"/>
		<path class="st0" d="M374.4,516.8c0.8-0.2,1.7,0.2,2.2,0.9c0.8,1.2-0.6,3.9-3.4,6.7c3.4,5.3,23.3,36.8,23.3,36.8l14.6,26.3
			c0.8,1.1-0.5,3.1-2.6,4.3c-0.9,0.6-2,0.9-3.1,1.1c-0.8,0-1.4-0.3-1.9-0.8c-1.4-1.2-19.6-23.3-19.6-23.3s-20.2-30.6-23.8-35.7
			c-2,0.9-4,1.6-6.2,1.6c-0.8,0.2-1.7-0.2-2.2-0.8c-1.4-2.2,3.1-7.5,9.9-11.8C366.8,518.7,371.6,516.8,374.4,516.8 M374.4,515.3
			c-3.3,0-8.4,2-13.5,5.3c-3.1,2-5.9,4.3-8.4,7.1c-3,3.6-2.8,5.7-2,6.8c0.8,1.1,2.2,1.7,3.6,1.6c1.9-0.2,3.9-0.5,5.6-1.2
			c4.8,7.3,22.8,34.3,23,34.6l0.2,0.2c3,3.7,18.3,22.2,19.7,23.5c0.8,0.8,1.9,1.2,3,1.2c1.4-0.2,2.8-0.5,3.9-1.2
			c1.7-0.9,3-2.3,3.6-4.2c0.2-0.8,0.2-1.7-0.3-2.3L398,560.5l0,0c-0.2-0.3-18-28.3-22.7-35.7c3-3.3,3.9-5.9,2.6-7.8
			C377.2,515.7,375.9,515.1,374.4,515.3L374.4,515.3z"/>
		<path class="st1" d="M295.2,125.7c-0.6,4,0,7.5,1.2,7.8l23.1,3.6c1.4,0.2,3-3,3.6-7c0.6-4,0-7.5-1.2-7.8l-23.1-3.6
			C297.3,118.6,295.8,121.7,295.2,125.7z"/>
		<path class="st1" d="M305.9,158.7l4.2-23l9.3,1.4c0.6,0.2,1.1-0.5,1.7-1.2l3.6,0.5c1.1,0.2,2.5-2.5,3-5.9c0.5-3.4,0-6.2-1.1-6.4
			l-3.9-0.5c-0.3-0.6-0.6-1.1-0.9-1.1l-23.1-3.6c-0.5,0-0.9,0.3-1.4,0.9l-3.6-0.5c-1.1-0.2-2.5,2.5-3,5.7c-0.5,3.3,0,6.2,1.1,6.4
			l3.4,0.5c0.3,0.9,0.6,1.4,1.1,1.6l9.2,1.4l-4.3,23.8"/>
		<path class="st3" d="M478.8,227c-3.6,0-8.4-1.9-15.7-5c-9-3.9-33.7-15.5-69.1-38.1c-34.9-22.4-60.4-42.7-66.5-49.5
			c-6.1-6.8-7-9.3-4-13c11-13.4,27.3-21.1,44.6-21.3c7.1,0,14.1,1.4,20.7,4c40.7,16.5,54.5,25,81.5,50.8
			c22.7,21.4,27.6,46.8,13.8,69.3C483,226.1,480.9,227.2,478.8,227z"/>
		<path class="st0" d="M368,100.9c7,0,13.8,1.4,20.3,4c40.9,16.6,54.7,25.3,81.4,50.6c26.7,25.3,24.5,50.8,13.7,68.3
			c-0.9,1.6-2.8,2.5-4.7,2.3c-3.6,0-8.7-2-15.4-5c-10.7-4.7-34.9-16.3-69-38.1s-60.1-42.2-66.5-49.2c-6.4-7-6.5-8.9-3.9-12
			C334.8,108.8,350.9,101,368,100.9 M368,99.3L368,99.3c-17.6,0.2-34,8.1-45.2,21.6c-3.4,4.3-2,7.3,4,14
			c6.1,6.7,31.5,27.2,66.6,49.5c35.4,22.5,60.3,34.2,69.3,38.1c7.5,3.3,12.4,5.1,16,5.1c2.3,0.2,4.7-1.1,5.9-3.1
			c14.1-22.8,9-48.5-14-70.4c-27.2-25.8-41-34.5-81.9-50.9C382.3,100.6,375.2,99.3,368,99.3L368,99.3z"/>
		<path class="st3" d="M442.6,138c-1.1,0-2.2-0.5-3-0.9l-1.2-0.8c-5.4-3.1-10.9-6.4-15.8-9.9c-0.8-0.6-1.9-1.4-3.1-2.2
			c-5.4-3.7-13.7-9.3-17.4-17.9c-4.7-10.9-5.7-20-5.7-30.4c0-9.9-5.7-25.8-18.6-37c-11.8-10.4-26.6-13.5-55-16.8
			c-9.8-1.1-19.6-1.6-29.4-1.6c-17.7,0-35.6,1.4-53.1,4c-23.5,3.7-37.3,21.6-42.1,35.6c-1.7,5.1-3.4,11.5-5,17.7
			c-2.6,10.3-5.3,21-8.7,26.9c-0.2,0.2-0.3,0.3-0.5,0.3c-10.4,3.6-20.5,8.2-30.1,13.7l-10.4,6.2c-0.2,0-0.3,0-0.3,0
			c-0.5,0-0.8-0.3-0.8-0.8c0-0.3,0.2-0.5,0.3-0.6c0.2,0,15.5-9,20.7-14c3.1-3,13.4-14,15.5-29.2c2.3-16.5,7-34.3,25-52.5
			C222.9,8.8,261.5,6.3,293,6.3c17.6,0,76.3,1.9,97.2,25.5c12.4,14,19.3,29.8,19.3,44.7c0,8.9,7.1,33.2,16.5,41.8
			c5,4.5,18.6,12.6,20.3,13.5c0.5,0.3,0.8,0.8,0.9,1.2c0,1.1-0.5,2.2-1.2,2.8c-0.2,0.2-0.3,0.3-0.3,0.5
			C444.8,137.4,443.8,138,442.6,138L442.6,138z"/>
		<path class="st0" d="M293,7.1c31.4,0,78.9,5.1,96.6,25.2c12.4,14,18.9,29.8,18.9,44.3c0,9,7,33.6,16.8,42.4
			c5.1,4.8,19.3,13,20.3,13.7c1.1,0.6,0.2,2-0.6,2.8c-0.6,0.6-1.1,1.9-2.6,1.9c-0.9,0-1.9-0.3-2.6-0.9c-5.9-3.3-11.6-6.8-17.1-10.7
			c-4.7-3.6-15.8-9.6-20.2-19.9c-4.3-10.3-5.6-18.9-5.6-30.1s-6.7-26.7-18.9-37.4s-27.6-13.8-55.3-16.9c-9.8-1.1-19.7-1.6-29.5-1.6
			c-17.9,0-35.6,1.4-53.3,4c-19.4,3.7-35.7,17.6-42.4,36.3c-4.7,13.5-8.2,34.8-13.7,44.4c-10.4,3.7-20.5,8.2-30.3,13.7l-10.4,6.2
			c0,0,15.5-9.2,20.7-14.3c5.1-5.1,13.8-15.7,15.7-29.7c1.9-14,5.9-32.9,24.9-52S261.5,7.1,293,7.1 M293,5.5
			c-14,0-32.3,0.5-49.2,3.6c-18.3,3.4-31.7,9.5-40.4,18.2c-18.3,18.3-23,36.3-25.3,53c-2,15.1-12.3,25.9-15.2,28.7
			c-5,4.8-20.3,14-20.5,14c-0.8,0.5-1.1,1.4-0.6,2.2c0.3,0.5,0.8,0.8,1.4,0.8c0.3,0,0.6-0.2,0.8-0.2l10.4-6.1
			c9.5-5.4,19.6-9.9,29.8-13.7c0.3-0.2,0.6-0.3,0.9-0.6c3.6-6.2,6.2-16.8,8.9-27c1.6-6.2,3.3-12.6,5-17.7
			c4.7-13.8,18.5-31.4,41.5-35.1c17.6-2.6,35.3-4,53-4c9.8,0,19.6,0.5,29.4,1.6c28.3,3.1,42.7,6.2,54.5,16.5
			c12.6,11,18.3,26.6,18.3,36.2c0,10.4,0.9,19.7,5.7,30.8c3.9,8.9,12.1,14.4,17.6,18.3c1.2,0.9,2.3,1.6,3.1,2.2
			c5.1,3.6,10.6,7,16,10.1l1.2,0.8c1.1,0.6,2.2,1.1,3.4,1.1c1.4,0,2.6-0.8,3.4-2l0.3-0.3c0.9-0.9,1.6-2.2,1.6-3.4
			c-0.2-0.8-0.6-1.4-1.2-1.9c-1.4-0.8-15.2-9-20-13.5c-9.2-8.4-16.2-32.5-16.2-41.3c0-15.1-6.8-31.2-19.4-45.4
			C369.6,7.4,310.5,5.5,293,5.5z"/>
		<path class="st3" d="M442,132.6c-0.2,0-0.3,0-0.5-0.2l-17.6-10.7c-0.3-0.2-0.5-0.8-0.3-1.1l0,0c0.8-0.9,2-2.6,2.2-2.8l0.2-0.2l0,0
			c0.2-0.2,0.3-0.2,0.6-0.3h0.2c0.5,0.2,0.9,0.2,1.4,0.2c2.3,0,4.5-0.9,5.9-2.8c-0.5-1.1-0.6-2.2-0.6-3.3c0-5,4-9.2,9.2-9.2
			c5,0,9.2,4,9.2,9.2c0,4.5-3.3,8.4-7.6,9l-0.2,0.3c-1.2,1.9-0.2,6.2,0.3,7.6c0.2,0.2,0.2,0.5,0,0.6l-1.7,3
			c-0.2,0.2-0.3,0.3-0.5,0.3L442,132.6z"/>
		<path class="st0" d="M442.7,103.2c4.7,0,8.4,3.7,8.4,8.4c0,4.2-3.1,7.8-7.3,8.2l-0.5,0.6c-1.7,2.6,0.3,8.4,0.3,8.4l-1.7,3
			l-17.6-10.7l2.2-2.8c0.6,0.2,1.1,0.2,1.7,0.2c2.5,0,5-1.1,6.5-3.1l0.3-0.3c-1.9-4.2,0-9.2,4.2-11
			C440.2,103.4,441.5,103.2,442.7,103.2 M426.6,118.1L426.6,118.1 M442.7,101.6c-5.4,0-9.9,4.5-9.9,9.9l0,0c0,1.1,0.2,2.2,0.5,3.1
			c-1.2,1.4-3.1,2.2-5,2.2c-0.5,0-0.9,0-1.2-0.2c-0.2,0-0.3,0-0.5,0c-0.5,0-0.8,0.2-1.1,0.5c-0.2,0.2-0.2,0.2-0.2,0.3l-2.2,2.6
			c-0.3,0.3-0.3,0.8-0.3,1.2c0,0.5,0.3,0.8,0.8,1.1l17.6,10.7c0.3,0.2,0.5,0.2,0.8,0.3c0.2,0,0.3,0,0.3,0c0.5-0.2,0.8-0.3,0.9-0.8
			l1.7-3c0.2-0.5,0.3-0.8,0.2-1.2c-0.8-2-1.4-5.6-0.5-7l0,0c5.4-1.1,8.9-6.2,7.8-11.6C451.4,105.1,447.4,101.8,442.7,101.6
			L442.7,101.6z"/>
		<path class="st1" d="M96.8,213.3c-13.5-19.1-6.7-45.4,14.6-65.7c13.4-12.7,51.4-38.7,81.1-45.7s52.3-4.2,67.7,21.1
			c7,11.3-33.1,38.8-73.8,62.6S103.8,223.3,96.8,213.3z"/>
		<path class="st1" d="M161.6,159.6l18.8,32.3l17.1-7.5l-20.3-33.2c-1.7,0.9-3.6,1.9-5.3,2.8C168.3,155.9,164.9,157.7,161.6,159.6z"
			/>
		<line class="st5" x1="197.5" y1="184.4" x2="177.1" y2="151.2"/>
		<line class="st5" x1="161.6" y1="159.6" x2="180.4" y2="191.9"/>
		<path class="st2" d="M257.7,126.3c-11-4.3-46.9,6.8-86.1,27.8c-42.1,22.4-72.8,47.7-71.1,58.2"/>
		<path class="st6" d="M254.5,525.5c-88.5,0-160.3-76-160.3-169.6s71.8-169.6,160.3-169.6"/>
	</g>
</g>
</svg>
