<?xml version="1.0" encoding="utf-8"?>
<!-- Generator: Adobe Illustrator 25.2.0, SVG Export Plug-In . SVG Version: 6.00 Build 0)  -->
<svg version="1.1" id="Layer_1" xmlns="http://www.w3.org/2000/svg" xmlns:xlink="http://www.w3.org/1999/xlink" x="0px" y="0px"
	 viewBox="0 0 600 600" style="enable-background:new 0 0 600 600;" xml:space="preserve">
<style type="text/css">
	*{vector-effect:non-scaling-stroke}
	.st0{fill:#231F20;}
	.st1{fill:#FFFFFF;stroke:#231F20;stroke-width:0.5;stroke-linecap:round;stroke-linejoin:round;stroke-miterlimit:10;}
	.st2{fill:#FFFFFF;stroke:#231F20;stroke-width:1.5;stroke-linecap:round;stroke-linejoin:round;stroke-miterlimit:10;}
	.st3{fill:#FFFFFF;}
	.st4{fill:none;stroke:#231F20;stroke-width:0.5;stroke-miterlimit:10;}
	.st5{fill:#FFFFFF;stroke:#231F20;stroke-width:1.5;stroke-miterlimit:10;}
	.st6{fill:none;stroke:#231F20;stroke-width:0.5;stroke-linecap:round;stroke-linejoin:round;stroke-miterlimit:10;}
</style>
<g>
	<g>
		<g>
			<path class="st0" d="M405.1,592c-0.9,0-1.7-0.3-2.4-1c-1.4-1.2-17.6-21-19.5-23.3l-5.3-8c-20,6.8-40.9,10.2-62.1,10.2
				c-22.5,0-43.5-5-61.1-9.9c-24.9-6.9-51.5-20.2-77-38.3L153.4,556c-1.9,2.3-18.1,22.1-19.5,23.3c-0.7,0.7-1.5,1-2.4,1
				c-1,0-2-0.4-3.5-1.2c-1.6-0.9-2.8-2.3-3.1-3.6c-0.2-0.7-0.1-1.3,0.3-1.8l14.5-26l24.5-36.2c-12.7-10.1-24.7-21.1-35.5-32.7
				c-29.4-31.5-45.5-75.3-45.5-123.2c0-61.5,29.1-118.3,77.7-152.1c3.7-2.5,10.3-6.3,19.4-10.9l-0.6-1.1
				c-29.2,16-57.5,26.4-72.2,26.4c-5,0-8.3-1.2-10-3.5c-13.3-18.7-7.4-45.4,14.7-66.4c7.1-6.7,19.4-15.8,32.3-23.6l-0.9-1.7
				c-0.1-0.3-0.1-0.6,0.1-0.8c0.7-1,2.4-4.1,1.2-5.8l-0.2-0.3c-4.4-0.7-7.6-4.5-7.6-8.9c0-5,4.1-9.1,9.1-9.1c5,0,9.1,4.1,9.1,9.1
				c0,1.1-0.2,2.2-0.6,3.3l0,0c1,1.3,2.9,2,5.2,2c0.7,0,1.5-0.1,2.3-0.2c0.1,0,0.1,0,0.2,0c0.2,0,0.4,0.1,0.5,0.2c0,0,0,0,0,0
				c0.6-0.5,1.1-0.9,1.5-1.4c3.1-3,13.3-13.8,15.4-29.1c2.3-16.4,6.9-34.1,24.9-52.2c19-19,57.3-21.5,88.6-21.5
				c17.4,0,75.8,1.8,96.7,25.4C402.2,47.2,409,63,409,77.9c0,8.8,7,32.7,16.2,41.4c0.1-0.1,0.2-0.3,0.2-0.3c0-0.1,0.1-0.1,0.1-0.2
				c0.1-0.1,0.3-0.2,0.5-0.2c0.1,0,0.1,0,0.2,0c0.5,0.1,1,0.1,1.5,0.1c2.3,0,4.5-1,5.9-2.7l0,0c-0.4-1.1-0.6-2.2-0.6-3.3
				c0-5,4.1-9.1,9.1-9.1c5,0,9.1,4.1,9.1,9.1c0,4.4-3.3,8.2-7.6,8.9l-0.2,0.3c-1.3,1.9-0.2,6.2,0.4,7.7c0.1,0.2,0.1,0.4-0.1,0.6
				l-0.7,1.2c1.4,0.9,2.4,1.4,2.6,1.5c0.4,0.2,0.7,0.6,0.8,1.1c0.1,0.5,0,1.1-0.3,1.6c6.9,5.2,13.9,11.3,23.4,20.3
				c22.5,21.4,27.5,46.5,13.7,68.9c-1.1,1.8-2.8,2.6-5.2,2.6c-1.8,0-4-0.5-7-1.5c29.6,37.6,45.9,84.9,45.9,133.7
				c0,42.4-12,83.3-34.8,118.3c-22.1,33.9-52.7,60.1-88.7,75.8l3.6,5.6l14.6,26.1c0.3,0.4,0.4,1.1,0.2,1.7c-0.3,1.3-1.5,2.7-3.1,3.6
				C407.1,591.6,406.1,592,405.1,592z M198.1,183.8c22.2-10.5,47.5-21.5,56.5-24.5c15.3-5.1,31.4-8.3,47.7-9.4l2.5-13.4l-8.3-1.3
				c-0.5-0.1-1.1-0.4-1.6-1.5l-2.9-0.4c-1.9-0.3-2.2-4-1.7-7.2c0.5-3.2,1.8-6.4,3.5-6.4c0.1,0,0.1,0,0.2,0l3,0.4
				c0.5-0.6,1.1-0.9,1.6-0.9c0.1,0,0.2,0,0.2,0l22.9,3.5c0.4,0.1,0.7,0.2,1,0.6c0.2-0.2,0.3-0.5,0.5-0.7
				c10.5-13,27.5-21.2,44.4-21.2c7,0,13.9,1.4,20.5,4c6,2.5,11.3,4.7,16,6.7c-1.1-1.5-2.1-3.1-2.8-4.7c-4.7-10.8-5.7-19.9-5.7-30.2
				c0-9.9-5.8-25.6-18.5-36.7C365.6,30.1,351,27,322.8,23.8c-8.8-1-18.7-1.5-29.2-1.5c-17.9,0-37.2,1.5-52.8,4
				c-23.3,3.8-37.1,21.4-41.9,35.4c-1.7,5.1-3.4,11.5-4.9,17.6c-2.4,9.3-4.8,18.9-7.9,25.1c2.5-0.8,4.8-1.4,7.1-2
				c9.4-2.2,17.5-3.3,24.8-3.3c19.4,0,33.2,7.8,43.4,24.6c0.9,1.5,1.1,3.3,0.6,5.3c-3.2,13.1-37,35.7-65.1,52.5L198.1,183.8z
				 M315.8,149.4c10.3,0,20.7,0.8,30.9,2.5c-9.1-7.1-16.2-13.1-19.2-16.4c0,0,0-0.1-0.1-0.1c-0.5,1.3-1.4,2.7-2.5,2.7
				c-0.1,0-0.1,0-0.2,0l-3.1-0.4c-0.6,0.8-1.2,1.2-1.9,1.2c-0.1,0-0.2,0-0.2,0l-8.5-1.3l-2.2,12.1
				C311.1,149.4,313.5,149.4,315.8,149.4z"/>
		</g>
		<path class="st0" d="M293.1,8.8c31.3,0,78.5,5.2,96.2,25.1c12.4,13.9,18.9,29.7,18.9,44c0,8.9,7,33.4,16.6,42.2
			c0.1,0.1,0.3,0.2,0.4,0.3c0.4-0.5,0.8-1,0.8-1c0.6,0.1,1.1,0.2,1.7,0.2c2.9,0,5.2-1.4,6.5-3c0.1-0.1,0.2-0.2,0.3-0.4
			c-0.5-1-0.7-2.2-0.7-3.4c0-4.6,3.7-8.3,8.3-8.3c4.6,0,8.3,3.7,8.3,8.3c0,4.3-3.2,7.7-7.3,8.2c-0.1,0.2-0.3,0.4-0.4,0.6
			c-1.8,2.6,0.3,8.3,0.3,8.3l-1,1.8c1.7,1,3,1.8,3.3,1.9c0.8,0.5,0.5,1.4,0,2.2c7.5,5.7,15,12.2,23.8,20.7
			c26.5,25.2,24.4,50.5,13.6,68c-1,1.6-2.5,2.3-4.6,2.3c-2.4,0-5.4-0.9-9.2-2.4c29.6,36.5,47.4,83.7,47.4,135.3
			c0,87.4-51.2,162.3-123.9,193.7c2.4,3.8,4,6.4,4,6.4l14.6,26.1c0.7,1.1-0.5,3.1-2.6,4.3c-1.2,0.7-2.2,1.1-3.1,1.1
			c-0.7,0-1.3-0.2-1.9-0.8c-1.4-1.2-19.4-23.2-19.4-23.2s-2.3-3.5-5.6-8.4c-19.6,6.7-40.6,10.4-62.4,10.4c-21.2,0-41.4-4.4-60.9-9.9
			c-26.5-7.3-53.1-21.3-77.4-38.7l-24.7,34.9c0,0-18,22-19.4,23.2c-0.6,0.5-1.2,0.8-1.9,0.8c-0.9,0-1.9-0.4-3.1-1.1
			c-2.1-1.2-3.4-3.2-2.6-4.3l14.6-26.1l24.8-36.7c-13-10.3-25.1-21.5-35.9-33.1C100,447,83.9,402.9,83.9,355.6
			c0-63.4,30.8-119.1,77.4-151.5c4.8-3.4,14.3-8.4,25.6-14l-5.7,2.5l-1.2-2.1c-29,16-57.7,26.6-72.5,26.6c-4.6,0-7.8-1-9.4-3.2
			c-13.5-19-6.7-45.2,14.6-65.4c6.4-6.1,18.6-15.3,32.7-23.9l-1.3-2.3c0,0,3-4.1,1.2-6.7c-0.1-0.2-0.3-0.4-0.4-0.6
			c-4.1-0.5-7.3-4-7.3-8.2c0-4.6,3.7-8.3,8.3-8.3c4.6,0,8.3,3.7,8.3,8.3c0,1.2-0.3,2.4-0.7,3.4c0.1,0.1,0.2,0.2,0.3,0.4
			c1.1,1.5,3.2,2.3,5.8,2.3c0.8,0,1.6-0.1,2.5-0.2c0,0,0.1,0.3,0.3,0.7c0.8-0.6,1.5-1.3,2.3-2c5.2-5,13.7-15.6,15.6-29.5
			c1.9-13.9,5.8-32.8,24.7-51.8C224,11.1,261.8,8.8,293.1,8.8 M184.5,105.7c3-1,6-1.9,8.8-2.5c8.8-2.1,17-3.3,24.6-3.3
			c17.8,0,32,6.7,42.7,24.2c6.4,10.5-27.6,34.9-64.9,57.2l2.1,3.5C220.5,174,246,163,254.9,160c15.3-5.1,31.4-8.3,48.1-9.4l2.7-14.7
			l-9.1-1.4c-0.5-0.1-0.9-0.6-1.1-1.5l-3.4-0.5c-1.1-0.2-1.6-3-1-6.4c0.5-3.3,1.7-5.8,2.8-5.8c0,0,0.1,0,0.1,0l3.4,0.5
			c0.4-0.6,0.9-1,1.3-1c0,0,0.1,0,0.1,0l22.9,3.5c0.4,0.1,0.7,0.5,1,1.1l0.2,0c0.3-0.5,0.6-1,1-1.6c9.9-12.3,26.2-20.9,43.8-20.9
			c6.7,0,13.5,1.2,20.2,4c7,2.9,13.3,5.5,18.9,8c-1.9-2-3.6-4.4-4.7-7c-4.4-10.2-5.6-18.9-5.6-29.9c0-11-6.6-26.6-18.7-37.3
			c-12.2-10.6-27.4-13.7-55-16.8c-9.4-1-19.4-1.5-29.3-1.5c-19.4,0-38.8,1.7-52.9,4c-21.4,3.5-36.9,19.5-42.5,35.9
			C193.5,74.9,190,96.1,184.5,105.7C184.5,105.7,184.5,105.7,184.5,105.7 M180.4,107.2c0.2-0.1,0.5-0.2,0.7-0.3
			C180.8,107,180.6,107.1,180.4,107.2 M176.8,108.6c0.2-0.1,0.4-0.2,0.6-0.2C177.2,108.4,177,108.5,176.8,108.6 M169.5,111.7
			c-0.1,0-0.1,0.1-0.2,0.1C169.4,111.8,169.5,111.7,169.5,111.7 M165.9,113.4c-0.1,0.1-0.3,0.1-0.4,0.2
			C165.6,113.6,165.7,113.5,165.9,113.4 M324.8,137.3c0,0-0.1,0-0.1,0l-3.5-0.5c-0.5,0.8-1,1.3-1.5,1.3c0,0-0.1,0-0.1,0l-9.3-1.4
			l-2.5,13.7c2.7-0.1,5.3-0.2,8-0.2c11.5,0,22.8,1,33.7,3c-10.9-8.3-18.5-14.8-21.5-18.2c-0.3-0.4-0.6-0.7-0.9-1
			C326.5,135.9,325.6,137.3,324.8,137.3 M162.1,112.6C162.1,112.6,162.1,112.6,162.1,112.6C162.1,112.6,162.1,112.6,162.1,112.6
			C162.1,112.6,162.1,112.6,162.1,112.6 M426,119.3C426,119.3,426,119.3,426,119.3C426,119.3,426,119.3,426,119.3
			C426,119.3,426,119.3,426,119.3 M293.1,7.3c-14,0-32.1,0.4-48.9,3.5c-18.2,3.4-31.4,9.3-40.2,18.1c-18.2,18.2-22.8,36-25.1,52.6
			c-2.1,15-12.2,25.7-15.2,28.7c-0.4,0.3-0.7,0.7-1.1,1c-0.2-0.1-0.3-0.1-0.5-0.1c-0.1,0-0.3,0-0.4,0.1c-0.7,0.1-1.4,0.2-2.1,0.2
			c-1.9,0-3.5-0.5-4.4-1.4c0.3-1,0.5-2.1,0.5-3.1c0-5.4-4.4-9.8-9.8-9.8c-5.4,0-9.8,4.4-9.8,9.8c0,4.7,3.4,8.7,7.9,9.6l0,0
			c0.9,1.4-0.6,4.1-1.2,4.9c-0.3,0.5-0.4,1.1-0.1,1.6l0.6,1.1c-12.7,7.8-24.8,16.7-31.8,23.4c-10.8,10.3-18,22-20.8,33.9
			c-2.9,12.3-0.8,23.9,6,33.4c1.8,2.5,5.4,3.8,10.6,3.8c12.3,0,34-7.2,57.8-18.8c-1.8,1.1-3.5,2.1-4.8,3c-48.9,33.9-78,91-78,152.7
			c0,23.8,4,46.6,11.8,67.9c7.9,21.3,19.3,40.1,33.9,55.8c10.7,11.5,22.5,22.4,35,32.4l-24.1,35.6c0,0,0,0.1-0.1,0.1l-14.5,26
			c-0.4,0.7-0.5,1.5-0.3,2.3c0.4,1.5,1.7,3,3.5,4.1c1.5,0.9,2.7,1.3,3.8,1.3c1.1,0,2.1-0.4,2.9-1.2c1.4-1.2,16.5-19.7,19.5-23.4
			c0,0,0-0.1,0.1-0.1l23.8-33.7c25.4,18,51.8,31.1,76.6,38c17.7,4.9,38.8,9.9,61.3,9.9c21.1,0,41.8-3.4,61.8-10.1l4.9,7.5
			c0,0,0.1,0.1,0.1,0.1c3,3.7,18.2,22.1,19.5,23.4c0.9,0.8,1.8,1.2,2.9,1.2c1.1,0,2.3-0.4,3.8-1.3c1.8-1,3.1-2.6,3.5-4.1
			c0.2-0.8,0.1-1.6-0.3-2.3l-14.5-26c0,0,0,0,0-0.1l-3.1-4.9c35.8-15.8,66.3-42,88.3-75.7c22.8-35.1,34.9-76.1,34.9-118.7
			c0-25.4-4.3-50.2-12.7-73.8c-7.6-21.2-18.3-40.8-31.8-58.4c1.9,0.5,3.5,0.8,4.9,0.8c2.7,0,4.6-1,5.8-3c14-22.7,8.9-48.2-13.8-69.9
			c-9.3-8.8-16.2-14.9-23-20c0.2-0.5,0.2-1,0.1-1.5c-0.2-0.7-0.6-1.2-1.2-1.6c-0.2-0.1-0.9-0.5-2-1.2l0.3-0.6
			c0.2-0.4,0.2-0.8,0.1-1.2c-0.7-2.1-1.4-5.6-0.5-7l0,0c4.6-0.9,7.9-4.9,7.9-9.6c0-5.4-4.4-9.8-9.8-9.8c-5.4,0-9.8,4.4-9.8,9.8
			c0,1.1,0.2,2.1,0.5,3.1c-1,1.1-2.8,2.1-5,2.1c-0.4,0-0.9,0-1.3-0.1c-0.1,0-0.3-0.1-0.4-0.1c-0.3,0-0.7,0.1-1,0.3
			c-8.8-9-15.4-31.8-15.4-40.3c0-15-6.9-31-19.3-45C369.3,9.1,310.6,7.3,293.1,7.3L293.1,7.3z M187.4,103.2c2.7-6.2,5-15.1,7.2-23.7
			c1.6-6.1,3.2-12.5,4.9-17.6c2.8-8.2,8.1-16.1,14.9-22.2C222,33,231.1,28.6,240.8,27c15.6-2.5,34.8-4,52.7-4
			c10.5,0,20.3,0.5,29.2,1.5c28.1,3.1,42.6,6.3,54.2,16.4c12.5,10.9,18.2,26.4,18.2,36.1c0,10.4,1,19.6,5.7,30.5
			c0.4,0.9,0.9,1.8,1.4,2.7c-4.1-1.8-8.6-3.6-13.7-5.7c-6.7-2.7-13.7-4.1-20.8-4.1c-17.1,0-34.3,8.2-44.9,21.4c0,0-0.1,0.1-0.1,0.1
			c-0.3-0.1-0.5-0.2-0.7-0.2l-22.9-3.5c-0.1,0-0.2,0-0.3,0c-0.7,0-1.3,0.3-1.9,0.9l-2.6-0.4c-0.1,0-0.2,0-0.3,0
			c-3,0-4.1,5.9-4.3,7.1c-0.5,3.5-0.3,7.7,2.3,8.1l2.5,0.4c0.6,1.1,1.4,1.5,2,1.6l7.6,1.2l-2.2,12c-16.2,1.2-32.1,4.3-47.3,9.4
			c-9,3-33.9,13.8-56,24.3l-0.6-1c40.3-24.2,62.1-41.9,64.8-52.6c0.6-2.2,0.3-4.2-0.7-5.9c-10.3-17-24.3-25-44-25
			c-7.3,0-15.4,1.1-24.9,3.3C191.2,102.1,189.3,102.6,187.4,103.2L187.4,103.2z M324.8,138.8c1.2,0,2.1-0.9,2.7-2.1
			c3,3.2,8.9,8.2,16.4,14c-9.3-1.4-18.8-2-28.1-2c-2,0-4.1,0-6.2,0.1l1.9-10.4l7.8,1.2c0.1,0,0.2,0,0.3,0c0.8,0,1.5-0.4,2.2-1.2
			l2.6,0.4C324.6,138.8,324.7,138.8,324.8,138.8L324.8,138.8z"/>
	</g>
	<path class="st1" d="M162.1,112.6c-3.7,0.7-6.8-0.1-8.3-2c-0.1-0.1-0.2-0.2-0.3-0.4c0.5-1,0.7-2.2,0.7-3.4c0-4.6-3.7-8.3-8.3-8.3
		c-4.6,0-8.3,3.7-8.3,8.3c0,4.3,3.2,7.7,7.3,8.2c0.1,0.2,0.3,0.4,0.4,0.6c1.8,2.6-1.2,6.7-1.2,6.7l1.6,2.9l17.7-10
		C163.5,115.2,162,112.5,162.1,112.6z"/>
	<path class="st1" d="M315.8,150.1c-21.2,0-41.7,3.5-60.9,9.9c-15.1,5-78.2,33.4-93.6,44.1c-46.6,32.3-77.4,88.1-77.4,151.5
		c0,47.4,16.2,91.4,45.3,122.7c33.6,36.1,79.9,68.4,125.7,81.1c19.5,5.4,39.7,9.9,60.9,9.9c110.6,0,200.3-93.8,200.3-209.5
		S426.4,150.1,315.8,150.1z"/>
	<ellipse class="st2" cx="264.9" cy="355.6" rx="149.5" ry="158.1"/>
	<g>
		<path class="st0" d="M281.8,245.7c-1.8-9.4-6.6-18.8-16.3-18.8c-12.2,0-15.3,16.5-15.3,38.1c0,10.6,0.4,34.8,15.1,34.8
			c10.4,0,15.5-9.2,16.6-19.5h4.3v22.6h-4.1c-0.4-1-1.4-1.9-2.4-1.9c-2.3,0-8.4,2.6-14.8,2.6c-22.4,0-33.7-16.8-33.7-40.8
			c0-23.3,11.3-39.7,33.2-39.7c8.3,0,14,3.4,15.6,3.1c1.2-0.1,2.5-1.1,2.5-2.5h2.8v22H281.8z"/>
	</g>
	<g>
		<path class="st0" d="M279.3,411.4c-17.7,0-26.3,17.5-27.3,35.1c3.4-3.4,8.2-4.7,12.7-4.7c12.9,0,22.4,7,22.4,22.4
			c0,16.5-11.8,25-26.1,25c-19.6,0-26.7-14.6-26.7-33.8c0-30.2,18.1-47.8,45.1-47.8V411.4z M270.3,464.9c0-5.9-0.6-19.2-8.9-19.2
			c-9.1,0-9.1,12.3-9.1,18.9c0,5.9,0.1,20.9,9,20.9C270.1,485.4,270.3,470.8,270.3,464.9z"/>
	</g>
	<g>
		<path class="st0" d="M150.6,390.6c17.7,0,26.3-17.5,27.3-35.1c-3.4,3.4-8.2,4.7-12.7,4.7c-12.9,0-22.4-7-22.4-22.4
			c0-16.5,11.8-25,26.1-25c19.6,0,26.7,14.6,26.7,33.8c0,30.2-18.1,47.8-45.1,47.8V390.6z M159.5,337.1c0,5.9,0.6,19.2,8.9,19.2
			c9.1,0,9.1-12.3,9.1-18.9c0-5.9-0.1-20.9-9-20.9C159.7,316.5,159.5,331.1,159.5,337.1z"/>
	</g>
	<g>
		<path class="st0" d="M349.6,348.9c1.5,0.2,3.1,0.3,4.8,0.3c9.2,0,11-8.7,11-18.9c0-4.5-0.5-13.7-7-13.7c-2.7,0-5.7,0.4-5.7,4.2
			c0,1.9,1.5,3,1.5,5.1c0,5.5-3,8.5-8,8.5c-4.5,0-8.2-3.5-8.2-8.5c0-10.9,13.4-13.1,20.8-13.1c10.5,0,24.2,3.8,24.2,18.2
			c0,12.4-11.5,17.5-20.8,19.4v0.2c9.9,0.3,22,6.1,22,18.8c0,16-13,22.6-26.7,22.6c-8.4,0-20.9-1.5-20.9-13c0-4.9,3.9-8.5,8.8-8.5
			c3.5,0,7.4,3.2,7.4,7.2c0,2.5-1.1,4.1-1.1,6.4c0,2.4,2.4,4.1,5.5,4.1c8.8,0,9.5-11.9,9.5-18.5c0-8.7-1.8-16.7-10.9-16.7
			c-2,0-4,0.1-6,0.3V348.9z"/>
	</g>
	<path class="st0" d="M341.4,417.8l-7.4-10.2l-59.8-48.2c0.5-1.5,0.8-3,0.8-4.7c0-7.4-5.7-13.5-12.7-13.5c-2.9,0-5.5,1-7.6,2.7
		c-3.7,2.4-6.2,6.6-6.2,11.6c0,7.4,5.7,13.5,12.7,13.5c2.8,0,5.5-1,7.6-2.7l60.2,47l11.4,5.1L341.4,417.8z"/>
	<path class="st0" d="M340.3,418.6l-7.4-10.2L273,360.2c0.5-1.5,0.8-3,0.8-4.7c0-7.4-5.7-13.5-12.7-13.5c-7,0-12.7,6-12.7,13.5
		s5.7,13.5,12.7,13.5c2.8,0,5.5-1,7.6-2.7l60.2,47L340.3,418.6z"/>
	<path class="st0" d="M343.7,245.6l-1.2-0.6l-10.2,7.4l-72.5,90.7c-1.5-0.7-3.2-1.1-5-1.1c-7,0-12.7,6-12.7,13.5
		c0,5.6,3.2,10.3,7.7,12.4c1.8,1.1,3.9,1.7,6.2,1.7c7,0,12.7-6,12.7-13.5c0-2.7-0.8-5.2-2.1-7.4l71.8-91.8L343.7,245.6z"/>
	<path class="st0" d="M342.5,245l-10.2,7.4l-72.5,90.7c-1.5-0.7-3.2-1.1-5-1.1c-7,0-12.7,6-12.7,13.5s5.7,13.5,12.7,13.5
		c7,0,12.7-6,12.7-13.5c0-2.7-0.8-5.2-2.1-7.4l71.8-91.8L342.5,245z"/>
	<ellipse class="st3" cx="254.9" cy="355.6" rx="4" ry="4.2"/>
	<path class="st1" d="M163.7,513.7l-23.4,34.4l-14.6,26.1c-0.7,1.1,0.5,3.1,2.6,4.3c2.1,1.2,3.7,1.5,5,0.3
		c1.4-1.2,19.4-23.2,19.4-23.2l23.1-32.3L163.7,513.7z"/>
	<g>
		<path class="st3" d="M398.3,206c-2.4,0-8-3.2-12.5-6.3c-3.1-2.1-5.8-4.4-7.7-6.3c-2.3-2.3-3.1-3.8-2.4-4.7
			c0.2-0.3,0.6-0.6,1.3-0.6c0.9,0,2.2,0.4,4,1.3l7.2-10l0.6,0.4c1.8,1.2,3.7,2.4,5.5,3.6c2.9,1.8,5.9,3.7,9.4,5.9l0.7,0.4l-7.3,11
			c3,3,2.9,4.1,2.5,4.8C399.4,205.7,399.1,206,398.3,206L398.3,206z"/>
		<path class="st0" d="M388.5,180.4c1.8,1.2,3.7,2.4,5.5,3.6c3.2,2.1,6.3,4,9.4,5.9l-7.2,10.9c2.1,2,3.3,3.6,2.8,4.2
			c-0.1,0.2-0.4,0.3-0.7,0.3c-1.9,0-6.8-2.5-12.1-6.2c-6.3-4.4-10.7-8.8-9.9-9.9c0.1-0.2,0.4-0.3,0.7-0.3c0.9,0,2.4,0.5,4.3,1.5
			L388.5,180.4 M388.1,178.4l-0.8,1.2l-6.5,8.9c-1.6-0.7-2.9-1.1-3.8-1.1c-1.1,0-1.6,0.5-1.9,0.9c-1.1,1.6,0.6,3.8,2.5,5.7
			c1.9,1.9,4.7,4.2,7.8,6.4c4.2,3,10.2,6.4,12.9,6.4c1.1,0,1.6-0.5,1.9-0.9c0.9-1.2,0.2-2.9-2.1-5.3l6.5-9.9l0.9-1.3l-1.3-0.8
			c-3.5-2.2-6.5-4-9.4-5.9c-1.9-1.2-3.7-2.4-5.5-3.6L388.1,178.4L388.1,178.4z"/>
	</g>
	<circle class="st4" cx="399.3" cy="174.4" r="3.1"/>
	<g>
		<path class="st3" d="M405.1,592c-0.9,0-1.7-0.3-2.4-1c-1.4-1.2-17.6-21-19.5-23.3c-0.2-0.4-19.1-28.7-23.3-35
			c-2.3,0.9-4.4,1.4-5.9,1.4c-1.4,0-2.3-0.4-2.9-1.2c-0.9-1.3-0.2-3.4,1.9-5.9c1.9-2.3,4.8-4.7,8.2-6.9c4.9-3.2,9.9-5.2,12.9-5.2
			c1.4,0,2.3,0.4,2.9,1.2c1,1.5-0.1,4.1-3,7.1c4.1,6.5,22.7,35.8,22.9,36.1l14.6,26.1c0.3,0.4,0.4,1.1,0.2,1.7
			c-0.3,1.3-1.5,2.7-3.1,3.6C407.1,591.6,406.1,592,405.1,592L405.1,592z"/>
		<path class="st0" d="M374.2,515.7c1.1,0,1.9,0.3,2.2,0.9c0.8,1.3-0.5,3.8-3.4,6.6c3.4,5.3,23.2,36.6,23.2,36.6l14.6,26.1
			c0.7,1.1-0.5,3.1-2.6,4.3c-1.2,0.7-2.2,1.1-3.1,1.1c-0.7,0-1.3-0.2-1.9-0.8c-1.4-1.2-19.4-23.2-19.4-23.2s-20.2-30.4-23.6-35.5
			c-2.5,1-4.6,1.6-6.2,1.6c-1.1,0-1.9-0.3-2.2-0.9c-1.4-2.1,3.1-7.4,9.9-11.8C366.6,517.6,371.4,515.7,374.2,515.7 M374.2,514.2
			c-3.2,0-8.3,2-13.4,5.3c-3.4,2.2-6.4,4.7-8.3,7c-3,3.5-2.7,5.7-2,6.8c0.5,0.7,1.4,1.5,3.5,1.5c1.8,0,3.9-0.6,5.6-1.3
			c4.8,7.2,22.7,34.2,22.9,34.5c0,0,0.1,0.1,0.1,0.1c3,3.7,18.2,22.1,19.5,23.4c0.9,0.8,1.8,1.2,2.9,1.2c1.1,0,2.3-0.4,3.8-1.3
			c1.8-1,3.1-2.6,3.5-4.1c0.2-0.8,0.1-1.6-0.3-2.3l-14.5-26c0,0,0,0,0-0.1c-0.2-0.3-17.9-28.2-22.6-35.6c2.9-3.2,3.9-5.8,2.7-7.6
			C377.2,515.1,376.3,514.2,374.2,514.2L374.2,514.2z"/>
	</g>
	<path class="st1" d="M295.4,126.8c-0.6,4-0.1,7.5,1.2,7.7l22.9,3.5c1.3,0.2,2.9-2.9,3.5-6.9c0.6-4,0.1-7.5-1.2-7.7l-22.9-3.5
		C297.6,119.7,296,122.8,295.4,126.8z"/>
	<path class="st2" d="M306.1,159.5l4.2-22.9l9.3,1.4c0.5,0.1,1.1-0.4,1.6-1.3l3.5,0.5c1.1,0.2,2.4-2.4,2.9-5.8
		c0.5-3.4,0.1-6.2-1-6.4l-3.8-0.6c-0.2-0.6-0.6-1-1-1.1l-22.9-3.5c-0.5-0.1-1,0.3-1.4,1l-3.4-0.5c-1.1-0.2-2.4,2.4-2.9,5.8
		c-0.5,3.4-0.1,6.2,1,6.4l3.4,0.5c0.3,0.9,0.6,1.4,1.1,1.5l9.1,1.4l-4.4,23.6"/>
	<g>
		<path class="st3" d="M478,227.5c-3.5,0-8.4-1.8-15.6-5c-9-3.9-33.6-15.5-68.7-37.9c-34.8-22.2-60.1-42.5-66.1-49.2
			c-6.2-6.8-6.9-9.3-4-12.9c10.5-13,27.5-21.2,44.4-21.2c7,0,13.9,1.4,20.5,4c40.5,16.4,54.2,24.9,81.1,50.6
			c22.5,21.4,27.5,46.5,13.7,68.9C482.1,226.6,480.4,227.5,478,227.5z"/>
		<path class="st0" d="M367.8,102.1c6.7,0,13.5,1.2,20.2,4c40.6,16.5,54.4,25.2,80.9,50.4c26.5,25.2,24.4,50.5,13.6,68
			c-1,1.6-2.5,2.3-4.6,2.3c-3.5,0-8.6-2-15.3-4.9c-10.6-4.6-34.8-16.2-68.6-37.8c-33.8-21.6-59.7-42.1-66-49.1s-6.5-8.8-4-11.9
			C333.9,110.7,350.2,102.1,367.8,102.1 M367.8,100.6C367.8,100.6,367.8,100.6,367.8,100.6c-17.1,0-34.3,8.2-44.9,21.4
			c-3.4,4.3-2,7.2,4,13.9c6.1,6.8,31.4,27.1,66.3,49.3c35.2,22.4,59.9,34,68.9,37.9c7.3,3.2,12.3,5.1,15.9,5.1c2.7,0,4.6-1,5.8-3
			c14-22.7,8.9-48.2-13.8-69.9c-27.1-25.7-40.7-34.2-81.4-50.7C381.9,102,374.9,100.6,367.8,100.6L367.8,100.6z"/>
	</g>
	<g>
		<path class="st3" d="M442,139c-0.9,0-1.8-0.3-3-1l-1.3-0.7c-4.1-2.4-11.7-6.7-15.8-9.9c-0.8-0.6-1.9-1.4-3.1-2.2
			c-5.4-3.7-13.5-9.3-17.2-17.8c-4.7-10.8-5.7-19.9-5.7-30.2c0-9.9-5.8-25.6-18.5-36.7C365.6,30.1,351,27,322.8,23.8
			c-8.8-1-18.7-1.5-29.2-1.5c-17.9,0-37.2,1.5-52.8,4c-23.3,3.8-37.1,21.4-41.9,35.4c-1.7,5.1-3.4,11.5-4.9,17.6
			c-2.6,10.2-5.3,20.7-8.7,26.7c-0.1,0.2-0.2,0.3-0.4,0.3c-9.1,3-19.2,7.6-29.9,13.6l-10.3,6.1c-0.1,0.1-0.2,0.1-0.4,0.1
			c-0.3,0-0.5-0.1-0.6-0.4c-0.2-0.4-0.1-0.8,0.3-1c0.2-0.1,15.4-9.1,20.5-14c3.1-3,13.3-13.8,15.4-29.1c2.3-16.4,6.9-34.1,24.9-52.2
			c19-19,57.3-21.5,88.6-21.5c17.4,0,75.8,1.8,96.7,25.4C402.2,47.2,409,63,409,77.9c0,8.9,7.1,33.1,16.4,41.6
			c4.9,4.5,18.5,12.6,20.2,13.5c0.5,0.3,0.8,0.7,0.9,1.2c0.2,1.2-0.9,2.4-1.3,2.8c-0.1,0.1-0.2,0.3-0.3,0.4
			C444.2,138.1,443.5,139,442,139L442,139z"/>
		<path class="st0" d="M293.1,8.8c31.3,0,78.5,5.2,96.2,25.1c12.4,13.9,18.9,29.7,18.9,44c0,8.9,7,33.4,16.6,42.2
			c5.2,4.7,19.2,13,20.3,13.6c1.1,0.6,0.2,2-0.6,2.8c-0.6,0.6-1.1,1.8-2.6,1.8c-0.7,0-1.5-0.2-2.6-0.9c-3.7-2.1-12.4-7.1-17-10.6
			c-4.6-3.5-15.7-9.5-20.1-19.7c-4.4-10.2-5.6-18.9-5.6-29.9s-6.6-26.6-18.7-37.3c-12.2-10.6-27.4-13.7-55-16.8
			c-9.4-1-19.4-1.5-29.3-1.5c-19.4,0-38.8,1.7-52.9,4c-21.4,3.5-36.9,19.5-42.5,35.9c-4.6,13.4-8.1,34.7-13.6,44.2
			c-9.9,3.3-20.2,8.2-30,13.7l-10.4,6.1c0,0,15.4-9.1,20.6-14.1c5.2-5,13.7-15.6,15.6-29.5c1.9-13.9,5.8-32.8,24.7-51.8
			C224,11.1,261.8,8.8,293.1,8.8 M293.1,7.3c-14,0-32.1,0.4-48.9,3.5c-18.2,3.4-31.4,9.3-40.2,18.1c-18.2,18.2-22.8,36-25.1,52.6
			c-2.1,15-12.2,25.7-15.2,28.7c-5,4.8-20.2,13.8-20.3,13.9c-0.7,0.4-0.9,1.3-0.5,2.1c0.3,0.5,0.8,0.7,1.3,0.7
			c0.3,0,0.5-0.1,0.8-0.2l10.4-6.1c10.7-5.9,20.7-10.5,29.8-13.5c0.3-0.1,0.6-0.4,0.8-0.7c3.5-6.1,6.2-16.7,8.8-26.9
			c1.6-6.1,3.2-12.5,4.9-17.6c2.8-8.2,8.1-16.1,14.9-22.2C222,33,231.1,28.6,240.8,27c15.6-2.5,34.8-4,52.7-4
			c10.5,0,20.3,0.5,29.2,1.5c28.1,3.1,42.6,6.3,54.2,16.4c12.5,10.9,18.2,26.4,18.2,36.1c0,10.4,1,19.6,5.7,30.5
			c3.8,8.7,12,14.4,17.5,18.1c1.2,0.8,2.3,1.6,3.1,2.2c4.2,3.2,11.8,7.6,15.9,10l1.3,0.7c1.3,0.7,2.4,1.1,3.4,1.1
			c1.9,0,2.9-1.3,3.4-1.9c0.1-0.1,0.2-0.3,0.3-0.3c0.5-0.5,1.7-1.9,1.5-3.4c-0.1-0.8-0.6-1.4-1.2-1.8c-1.4-0.8-15.2-8.9-20-13.4
			c-9.2-8.4-16.1-32.3-16.1-41.1c0-15-6.9-31-19.3-45C369.3,9.1,310.6,7.3,293.1,7.3L293.1,7.3z"/>
	</g>
	<g>
		<path class="st3" d="M441.3,133.5c-0.1,0-0.3,0-0.4-0.1l-17.4-10.6c-0.2-0.1-0.3-0.3-0.3-0.5s0-0.4,0.1-0.6
			c0.7-0.9,1.9-2.4,2.1-2.7c0-0.1,0.1-0.1,0.1-0.2c0.1-0.1,0.3-0.2,0.5-0.2c0.1,0,0.1,0,0.2,0c0.5,0.1,1,0.1,1.5,0.1
			c2.3,0,4.5-1,5.9-2.7l0,0c-0.4-1.1-0.6-2.2-0.6-3.3c0-5,4.1-9.1,9.1-9.1c5,0,9.1,4.1,9.1,9.1c0,4.4-3.3,8.2-7.6,8.9l-0.2,0.3
			c-1.3,1.9-0.2,6.2,0.4,7.7c0.1,0.2,0.1,0.4-0.1,0.6l-1.6,2.9c-0.1,0.2-0.3,0.3-0.5,0.4C441.4,133.5,441.3,133.5,441.3,133.5z"/>
		<path class="st0" d="M442,104.4c4.6,0,8.3,3.7,8.3,8.3c0,4.3-3.2,7.7-7.3,8.2c-0.1,0.2-0.3,0.4-0.4,0.6c-1.8,2.6,0.3,8.3,0.3,8.3
			l-1.6,2.9l-17.4-10.6c0,0,2.1-2.7,2.2-2.8c0.6,0.1,1.1,0.2,1.7,0.2c2.9,0,5.2-1.4,6.5-3c0.1-0.1,0.2-0.2,0.3-0.4
			c-0.5-1-0.7-2.2-0.7-3.4C433.7,108.1,437.4,104.4,442,104.4 M426,119.3C426,119.3,426,119.3,426,119.3
			C426,119.3,426,119.3,426,119.3C426,119.3,426,119.3,426,119.3 M442,102.9c-5.4,0-9.8,4.4-9.8,9.8c0,1.1,0.2,2.1,0.5,3.1
			c-1,1.1-2.8,2.1-5,2.1c-0.4,0-0.9,0-1.3-0.1c-0.1,0-0.3-0.1-0.4-0.1c-0.4,0-0.8,0.2-1.1,0.4c-0.1,0.1-0.2,0.2-0.2,0.3
			c-0.2,0.3-1.2,1.6-2.1,2.7c-0.3,0.3-0.4,0.8-0.3,1.2c0.1,0.4,0.3,0.8,0.7,1l17.4,10.6c0.2,0.1,0.5,0.2,0.8,0.2c0.1,0,0.3,0,0.4,0
			c0.4-0.1,0.7-0.4,0.9-0.7l1.6-2.9c0.2-0.4,0.2-0.8,0.1-1.2c-0.7-2.1-1.4-5.6-0.5-7l0,0c4.6-0.9,7.9-4.9,7.9-9.6
			C451.8,107.3,447.4,102.9,442,102.9L442,102.9z"/>
	</g>
	<path class="st1" d="M98,214c-13.5-19-6.7-45.2,14.6-65.4c13.3-12.7,51.1-38.4,80.6-45.4c29.5-7,52.1-4.1,67.3,21
		c6.9,11.3-32.9,38.7-73.3,62.2C146.9,209.8,105,223.8,98,214z"/>
	<path class="st1" d="M162.5,160.5l18.6,32.1l17-7.3l-20.2-33.1c-1.8,0.9-3.5,1.8-5.3,2.8C169.2,156.8,165.8,158.6,162.5,160.5z"/>
	<line class="st5" x1="198.1" y1="185.3" x2="177.9" y2="152.2"/>
	<line class="st5" x1="162.5" y1="160.5" x2="181.1" y2="192.6"/>
	<path class="st6" d="M258.2,127.4c-11-4.3-46.6,6.9-85.5,27.6c-41.8,22.3-72.4,47.4-70.8,57.9"/>
	<path class="st6" d="M254.9,524.3c-88.1,0-159.5-75.6-159.5-168.8s71.4-168.8,159.5-168.8"/>
</g>
</svg>
