<?xml version="1.0" encoding="utf-8"?>
<!-- Generator: Adobe Illustrator 25.2.0, SVG Export Plug-In . SVG Version: 6.00 Build 0)  -->
<svg version="1.1" id="Layer_1" xmlns="http://www.w3.org/2000/svg" xmlns:xlink="http://www.w3.org/1999/xlink" x="0px" y="0px"
	 viewBox="0 0 600 600" style="enable-background:new 0 0 600 600;" xml:space="preserve">
<style type="text/css">
	*{vector-effect:non-scaling-stroke}
	.st0{fill:none;stroke:#000000;stroke-width:0.5;stroke-miterlimit:10;}
	.st1{fill:none;stroke:#000000;stroke-width:0.5;stroke-miterlimit:10;stroke-dasharray:2.0056,2.0056;}
	.st2{fill:#FFFFFF;stroke:#231F20;stroke-width:1.5;stroke-miterlimit:10;}
	.st3{fill:none;stroke:#231F20;stroke-width:0.5;stroke-miterlimit:10;}
</style>
<g>
	<g>
		<g>
			<polyline class="st0" points="231.3,181 230.8,180.2 230.3,181 			"/>
			<line class="st1" x1="229.3" y1="182.8" x2="185.6" y2="258.3"/>
			<polyline class="st0" points="185.1,259.2 184.6,260.1 185.6,260.1 			"/>
			<line class="st1" x1="187.6" y1="260.1" x2="274.9" y2="260.1"/>
			<polyline class="st0" points="275.9,260.1 276.9,260.1 276.4,259.2 			"/>
			<line class="st1" x1="275.4" y1="257.5" x2="231.8" y2="181.9"/>
		</g>
	</g>
	<g>
		<g>
			<polyline class="st0" points="277.4,260.9 276.9,260.1 276.4,260.9 			"/>
			<line class="st1" x1="275.4" y1="262.7" x2="231.8" y2="338.2"/>
			<polyline class="st0" points="231.3,339.1 230.8,339.9 231.8,339.9 			"/>
			<line class="st1" x1="233.8" y1="339.9" x2="321" y2="339.9"/>
			<polyline class="st0" points="322,339.9 323,339.9 322.5,339.1 			"/>
			<line class="st1" x1="321.5" y1="337.3" x2="277.9" y2="261.8"/>
		</g>
	</g>
	<g>
		<g>
			<polyline class="st0" points="231.3,339.1 230.8,339.9 230.3,339.1 			"/>
			<line class="st1" x1="229.3" y1="337.3" x2="185.6" y2="261.8"/>
			<polyline class="st0" points="185.1,260.9 184.6,260.1 185.6,260.1 			"/>
			<line class="st1" x1="187.6" y1="260.1" x2="274.9" y2="260.1"/>
			<polyline class="st0" points="275.9,260.1 276.9,260.1 276.4,260.9 			"/>
			<line class="st1" x1="275.4" y1="262.7" x2="231.8" y2="338.2"/>
		</g>
	</g>
	<g>
		<g>
			<polyline class="st0" points="462.1,101.1 461.6,100.3 461.1,101.1 			"/>
			<line class="st1" x1="460.1" y1="102.9" x2="416.4" y2="178.4"/>
			<polyline class="st0" points="415.9,179.3 415.4,180.2 416.4,180.2 			"/>
			<line class="st1" x1="418.4" y1="180.2" x2="505.7" y2="180.2"/>
			<polyline class="st0" points="506.7,180.2 507.7,180.2 507.2,179.3 			"/>
			<line class="st1" x1="506.2" y1="177.6" x2="462.6" y2="102"/>
		</g>
	</g>
	<g>
		<g>
			<polyline class="st0" points="462.1,259.2 461.6,260.1 461.1,259.2 			"/>
			<line class="st1" x1="460.1" y1="257.5" x2="416.4" y2="181.9"/>
			<polyline class="st0" points="415.9,181 415.4,180.2 416.4,180.2 			"/>
			<line class="st1" x1="418.4" y1="180.2" x2="505.7" y2="180.2"/>
			<polyline class="st0" points="506.7,180.2 507.7,180.2 507.2,181 			"/>
			<line class="st1" x1="506.2" y1="182.8" x2="462.6" y2="258.3"/>
		</g>
	</g>
	<g>
		<g>
			<polyline class="st0" points="138.9,340.8 138.4,339.9 137.9,340.8 			"/>
			<line class="st1" x1="136.9" y1="342.5" x2="93.3" y2="418.1"/>
			<polyline class="st0" points="92.8,419 92.3,419.8 93.3,419.8 			"/>
			<line class="st1" x1="95.3" y1="419.8" x2="182.6" y2="419.8"/>
			<polyline class="st0" points="183.6,419.8 184.6,419.8 184.1,419 			"/>
			<line class="st1" x1="183.1" y1="417.2" x2="139.4" y2="341.7"/>
		</g>
	</g>
	<g>
		<g>
			<polyline class="st0" points="138.9,498.9 138.4,499.7 137.9,498.9 			"/>
			<line class="st1" x1="136.9" y1="497.1" x2="93.3" y2="421.6"/>
			<polyline class="st0" points="92.8,420.7 92.3,419.8 93.3,419.8 			"/>
			<line class="st1" x1="95.3" y1="419.8" x2="182.6" y2="419.8"/>
			<polyline class="st0" points="183.6,419.8 184.6,419.8 184.1,420.7 			"/>
			<line class="st1" x1="183.1" y1="422.4" x2="139.4" y2="498"/>
		</g>
	</g>
	<g>
		<g>
			<polyline class="st0" points="369.7,260.9 369.2,260.1 368.7,260.9 			"/>
			<line class="st1" x1="367.7" y1="262.7" x2="324.1" y2="338.2"/>
			<polyline class="st0" points="323.6,339.1 323.1,339.9 324.1,339.9 			"/>
			<line class="st1" x1="326.1" y1="339.9" x2="413.4" y2="339.9"/>
			<polyline class="st0" points="414.4,339.9 415.4,339.9 414.9,339.1 			"/>
			<line class="st1" x1="413.9" y1="337.3" x2="370.2" y2="261.8"/>
		</g>
	</g>
	<g>
		<g>
			<polyline class="st0" points="323.6,339.1 323.1,339.9 322.6,339.1 			"/>
			<line class="st1" x1="321.6" y1="337.3" x2="278" y2="261.8"/>
			<polyline class="st0" points="277.5,260.9 277,260.1 278,260.1 			"/>
			<line class="st1" x1="280" y1="260.1" x2="367.2" y2="260.1"/>
			<polyline class="st0" points="368.2,260.1 369.2,260.1 368.7,260.9 			"/>
			<line class="st1" x1="367.7" y1="262.7" x2="324.1" y2="338.2"/>
		</g>
	</g>
	<g>
		<g>
			<polyline class="st0" points="554.4,101.1 553.9,100.3 553.4,101.1 			"/>
			<line class="st1" x1="552.4" y1="102.9" x2="508.8" y2="178.4"/>
			<polyline class="st0" points="508.3,179.3 507.8,180.2 508.8,180.2 			"/>
			<line class="st1" x1="510.8" y1="180.2" x2="598" y2="180.2"/>
			<polyline class="st0" points="599,180.2 600,180.2 599.5,179.3 			"/>
			<line class="st1" x1="598.5" y1="177.6" x2="554.9" y2="102"/>
		</g>
	</g>
	<g>
		<g>
			<polyline class="st0" points="508.2,179.3 507.7,180.2 507.2,179.3 			"/>
			<line class="st1" x1="506.2" y1="177.6" x2="462.6" y2="102"/>
			<polyline class="st0" points="462.1,101.1 461.6,100.3 462.6,100.3 			"/>
			<line class="st1" x1="464.6" y1="100.3" x2="551.8" y2="100.3"/>
			<polyline class="st0" points="552.8,100.3 553.8,100.3 553.3,101.1 			"/>
			<line class="st1" x1="552.3" y1="102.9" x2="508.7" y2="178.4"/>
		</g>
	</g>
	<g>
		<g>
			<polyline class="st0" points="415.9,179.3 415.4,180.2 414.9,179.3 			"/>
			<line class="st1" x1="413.9" y1="177.6" x2="370.3" y2="102"/>
			<polyline class="st0" points="369.8,101.1 369.3,100.3 370.3,100.3 			"/>
			<line class="st1" x1="372.3" y1="100.3" x2="459.5" y2="100.3"/>
			<polyline class="st0" points="460.5,100.3 461.5,100.3 461,101.1 			"/>
			<line class="st1" x1="460" y1="102.9" x2="416.4" y2="178.4"/>
		</g>
	</g>
	<g>
		<g>
			<polyline class="st0" points="462.1,260.9 461.6,260.1 461.1,260.9 			"/>
			<line class="st1" x1="460.1" y1="262.7" x2="416.4" y2="338.2"/>
			<polyline class="st0" points="415.9,339.1 415.4,339.9 416.4,339.9 			"/>
			<line class="st1" x1="418.4" y1="339.9" x2="505.7" y2="339.9"/>
			<polyline class="st0" points="506.7,339.9 507.7,339.9 507.2,339.1 			"/>
			<line class="st1" x1="506.2" y1="337.3" x2="462.6" y2="261.8"/>
		</g>
	</g>
	<g>
		<g>
			<polyline class="st0" points="508.2,181 507.7,180.2 507.2,181 			"/>
			<line class="st1" x1="506.2" y1="182.8" x2="462.6" y2="258.3"/>
			<polyline class="st0" points="462.1,259.2 461.6,260.1 462.6,260.1 			"/>
			<line class="st1" x1="464.6" y1="260.1" x2="551.8" y2="260.1"/>
			<polyline class="st0" points="552.8,260.1 553.8,260.1 553.3,259.2 			"/>
			<line class="st1" x1="552.3" y1="257.5" x2="508.7" y2="181.9"/>
		</g>
	</g>
	<g>
		<g>
			<polyline class="st0" points="415.9,339.1 415.4,339.9 414.9,339.1 			"/>
			<line class="st1" x1="413.9" y1="337.3" x2="370.3" y2="261.8"/>
			<polyline class="st0" points="369.8,260.9 369.3,260.1 370.3,260.1 			"/>
			<line class="st1" x1="372.3" y1="260.1" x2="459.5" y2="260.1"/>
			<polyline class="st0" points="460.5,260.1 461.5,260.1 461,260.9 			"/>
			<line class="st1" x1="460" y1="262.7" x2="416.4" y2="338.2"/>
		</g>
	</g>
	<g>
		<g>
			<polyline class="st0" points="185.1,260.9 184.6,260.1 184.1,260.9 			"/>
			<line class="st1" x1="183.1" y1="262.7" x2="139.5" y2="338.2"/>
			<polyline class="st0" points="139,339.1 138.5,339.9 139.5,339.9 			"/>
			<line class="st1" x1="141.5" y1="339.9" x2="228.7" y2="339.9"/>
			<polyline class="st0" points="229.7,339.9 230.7,339.9 230.2,339.1 			"/>
			<line class="st1" x1="229.2" y1="337.3" x2="185.6" y2="261.8"/>
		</g>
	</g>
	<g>
		<g>
			<polyline class="st0" points="92.8,260.9 92.3,260.1 91.8,260.9 			"/>
			<line class="st1" x1="90.8" y1="262.7" x2="47.2" y2="338.2"/>
			<polyline class="st0" points="46.7,339.1 46.2,339.9 47.2,339.9 			"/>
			<line class="st1" x1="49.2" y1="339.9" x2="136.4" y2="339.9"/>
			<polyline class="st0" points="137.4,339.9 138.4,339.9 137.9,339.1 			"/>
			<line class="st1" x1="136.9" y1="337.3" x2="93.3" y2="261.8"/>
		</g>
	</g>
	<g>
		<g>
			<polyline class="st0" points="138.9,339.1 138.4,339.9 137.9,339.1 			"/>
			<line class="st1" x1="136.9" y1="337.3" x2="93.3" y2="261.8"/>
			<polyline class="st0" points="92.8,260.9 92.3,260.1 93.3,260.1 			"/>
			<line class="st1" x1="95.3" y1="260.1" x2="182.6" y2="260.1"/>
			<polyline class="st0" points="183.6,260.1 184.6,260.1 184.1,260.9 			"/>
			<line class="st1" x1="183.1" y1="262.7" x2="139.4" y2="338.2"/>
		</g>
	</g>
	<g>
		<g>
			<polyline class="st0" points="92.8,420.7 92.3,419.8 91.8,420.7 			"/>
			<line class="st1" x1="90.8" y1="422.4" x2="47.2" y2="498"/>
			<polyline class="st0" points="46.7,498.9 46.2,499.7 47.2,499.7 			"/>
			<line class="st1" x1="49.2" y1="499.7" x2="136.4" y2="499.7"/>
			<polyline class="st0" points="137.4,499.7 138.4,499.7 137.9,498.9 			"/>
			<line class="st1" x1="136.9" y1="497.1" x2="93.3" y2="421.6"/>
		</g>
	</g>
	<g>
		<g>
			<polyline class="st0" points="46.6,498.9 46.1,499.7 45.6,498.9 			"/>
			<line class="st1" x1="44.6" y1="497.1" x2="1" y2="421.6"/>
			<polyline class="st0" points="0.5,420.7 0,419.8 1,419.8 			"/>
			<line class="st1" x1="3" y1="419.8" x2="90.2" y2="419.8"/>
			<polyline class="st0" points="91.2,419.8 92.2,419.8 91.7,420.7 			"/>
			<line class="st1" x1="90.7" y1="422.4" x2="47.1" y2="498"/>
		</g>
	</g>
	<g>
		<g>
			<polyline class="st0" points="92.8,419 92.3,419.8 91.8,419 			"/>
			<line class="st1" x1="90.8" y1="417.2" x2="47.2" y2="341.7"/>
			<polyline class="st0" points="46.7,340.8 46.2,339.9 47.2,339.9 			"/>
			<line class="st1" x1="49.2" y1="339.9" x2="136.4" y2="339.9"/>
			<polyline class="st0" points="137.4,339.9 138.4,339.9 137.9,340.8 			"/>
			<line class="st1" x1="136.9" y1="342.5" x2="93.3" y2="418.1"/>
		</g>
	</g>
	<g>
		<g>
			<polyline class="st0" points="508.2,339.1 507.7,339.9 507.2,339.1 			"/>
			<line class="st1" x1="506.2" y1="337.3" x2="462.6" y2="261.8"/>
			<polyline class="st0" points="462.1,260.9 461.6,260.1 462.6,260.1 			"/>
			<line class="st1" x1="464.6" y1="260.1" x2="551.8" y2="260.1"/>
			<polyline class="st0" points="552.8,260.1 553.8,260.1 553.3,260.9 			"/>
			<line class="st1" x1="552.3" y1="262.7" x2="508.7" y2="338.2"/>
		</g>
	</g>
</g>
<polygon class="st2" points="223.2,173.1 364.7,170.8 448.4,288.1 376.7,427.6 231.7,430.1 152.4,312.1 "/>
<polygon class="st3" points="364.7,170.8 207.9,256.6 231.7,430.1 385.2,346.8 "/>
<line class="st3" x1="152.4" y1="312.1" x2="207.9" y2="256.6"/>
<polyline class="st3" points="448.4,288.1 385.2,346.8 207.9,256.6 223.2,173.1 "/>
<line class="st3" x1="376.7" y1="427.6" x2="385.2" y2="346.8"/>
</svg>
