<?xml version="1.0" encoding="utf-8"?>
<!-- Generator: Adobe Illustrator 25.2.0, SVG Export Plug-In . SVG Version: 6.00 Build 0)  -->
<svg version="1.1" id="Layer_1" xmlns="http://www.w3.org/2000/svg" xmlns:xlink="http://www.w3.org/1999/xlink" x="0px" y="0px"
	 viewBox="0 0 600 600" style="enable-background:new 0 0 600 600;" xml:space="preserve">
<style type="text/css">
	*{vector-effect:non-scaling-stroke}
	.st0{fill:none;stroke:#000000;stroke-width:0.5;stroke-miterlimit:10;}
	.st1{fill:none;stroke:#000000;stroke-width:1.5;stroke-miterlimit:10;}
	.st2{fill:none;stroke:#000000;stroke-width:0.5;stroke-miterlimit:10;stroke-dasharray:2;}
</style>
<g transform="translate(420,420)">
	<g>
		<circle class="st0" cx="-120" cy="-120" r="54.5"/>
		<circle class="st0" cx="-120" cy="-120" r="108.9"/>
		<circle class="st0" cx="-120" cy="-120" r="163.4"/>
		<circle class="st0" cx="-120" cy="-120" r="217.8"/>
		<circle class="st0" cx="-120" cy="-120" r="272.3"/>
	</g>
	<g>
		<path class="st1" d="M-120-316l91.1,22.5l-28.4,130.3l131.9,19.7L63.3-50.5L29.8,49.1L-98.5-32.8l-56.7,55.5l-85.8-6.2
			l-118.3-45.8L-293-141l-1.8-99.6l125.4,26.6L-120-316z"/>
	</g>
	<g>
		<path class="st2" d="M-120-375.9l91.1,82.4l108.3,35.9l24.9,110.4l-41,96.7L29.8,49.1l-95.8,50.3l-115.3,29.1l-99.4-67.1
			l-78.6-90.6L-293-141l-26.4-116.6l100.7-50.4L-120-375.9z"/>
	</g>
	<g>
		<g>
			<line class="st0" x1="-120" y1="-120" x2="-120" y2="-392.3"/>
			<circle class="st0" cx="-120" cy="-316" r="0.9"/>
		</g>
		<g>
			<line class="st0" x1="-120" y1="-120" x2="6.5" y2="-361.1"/>
			<circle class="st0" cx="-28.9" cy="-293.6" r="0.9"/>
		</g>
		<g>
			<line class="st0" x1="-120" y1="-120" x2="104.1" y2="-274.7"/>
			<circle class="st0" cx="-57.3" cy="-163.3" r="0.9"/>
		</g>
		<g>
			<line class="st0" x1="-120" y1="-120" x2="150.3" y2="-152.8"/>
			<circle class="st0" cx="74.6" cy="-143.6" r="0.9"/>
		</g>
		<g>
			<line class="st0" x1="-120" y1="-120" x2="134.6" y2="-23.5"/>
			<circle class="st0" cx="63.3" cy="-50.5" r="0.9"/>
		</g>
		<g>
			<line class="st0" x1="-120" y1="-120" x2="60.5" y2="83.8"/>
			<circle class="st0" cx="29.8" cy="49.1" r="0.9"/>
		</g>
		<g>
			<line class="st0" x1="-120" y1="-120" x2="-54.8" y2="144.3"/>
			<circle class="st0" cx="-98.5" cy="-32.8" r="0.9"/>
		</g>
		<g>
			<line class="st0" x1="-120" y1="-120" x2="-185.2" y2="144.3"/>
			<circle class="st0" cx="-155.2" cy="22.7" r="0.9"/>
		</g>
		<g>
			<line class="st0" x1="-120" y1="-120" x2="-300.5" y2="83.8"/>
			<circle class="st0" cx="-241" cy="16.5" r="0.9"/>
		</g>
		<g>
			<line class="st0" x1="-120" y1="-120" x2="-374.6" y2="-23.5"/>
			<circle class="st0" cx="-359.3" cy="-29.2" r="0.9"/>
		</g>
		<g>
			<circle class="st0" cx="-293" cy="-141" r="0.9"/>
		</g>
		<g>
			<line class="st0" x1="-120" y1="-120" x2="-344.1" y2="-274.7"/>
			<circle class="st0" cx="-294.8" cy="-240.6" r="0.9"/>
		</g>
		<g>
			<circle class="st0" cx="-169.3" cy="-214" r="0.9"/>
		</g>
	</g>
</g>
</svg>
