<?xml version="1.0" encoding="utf-8"?>
<!-- Generator: Adobe Illustrator 25.2.0, SVG Export Plug-In . SVG Version: 6.00 Build 0)  -->
<svg version="1.1" id="Layer_1" xmlns="http://www.w3.org/2000/svg" xmlns:xlink="http://www.w3.org/1999/xlink" x="0px" y="0px"
	 viewBox="0 0 600 600" style="enable-background:new 0 0 600 600;" xml:space="preserve">
<style type="text/css">
	*{vector-effect:non-scaling-stroke}
	.st0{fill:#FFFFFF;stroke:#000000;stroke-linecap:round;stroke-linejoin:round;}
	.st1{fill:none;stroke:#000000;stroke-width:0.25;stroke-linecap:round;stroke-linejoin:round;}
</style>
<g id="Layer_2_1_">
	<g id="Layer_1-2">
		<path class="st0" d="M562,202.8c25.7,9.5,36.5,21.3,34.5,43s-32.2,31.7-32.2,31.7c-1,5,16.1,11.6,9.5,35.7
			c-6.6,24.2-29.7,26.2-32.7,33.2c-3,7,16.1,22.1,8.6,45.3c-5.5,16.8-35.2,30.2-35.8,37.3s19.6,27.2,4,56.4
			c-15.6,29.2-69,32.2-79.1,29.7c-10.1-2.5-26.2-6-36.2-1c-10.1,5-26.2,6-38.3,4c-12.1-2-266.6-54.9-280.6-57.6
			c-13.9-2.6-20.6-8.1-25.5-15.9s-15.6-11.6-24.6-13.5S6.1,417.3,4.4,408.8c-4.1-20.4,3.4-35.1,16.5-49.5
			c13.1-14.4,35.4-18.2,38.3-19.5c3-1.3,3.1-3.2,2.1-5.8c-2.7-8.8-2.3-18.3,1.1-26.9c3-7.9,8.6-14.6,15.9-18.9h30.9v-29.9
			c1-16.6,7.5-26.7,18-32.5h27v-33.9c3.6-11,11.6-21.4,20.5-25.7l67.3-5.8L562,202.8z"/>
		<path class="st0" d="M214.8,81.2l-8,74.6l2.7,0.3c0,0,3.8,0.3,3.4,3c-0.5,3.4-4.8,2.3-4.8,2.3l-1.8-0.3l-0.2,2.9l50.8,8l0.3-3.4
			l-2.9-0.6c-1.1-1.8-0.6-4.1,1.1-5.4l2.9,0.5l1.9-3.2l7.7-73.9l-2.4-1L219.2,81L214.8,81.2z"/>
		<polyline class="st1" points="216.6,80.9 210,153.6 255.4,160.5 		"/>
		<path class="st1" d="M255.8,162.8l-45.7-6.6c1,0.2,3.3,0.8,2.9,3c-0.2,1.6-1.7,2.7-3.3,2.5l47.7,7.1l-2.9-0.6
			C253.5,166.4,254,164,255.8,162.8z"/>
		<polygon class="st0" points="254.7,149.1 255.5,141.3 257.9,141.5 260.9,113.9 258.7,113.6 259.4,105.8 261.7,106.1 263,94 
			218.4,89.9 217.3,100.1 220.3,100.5 219.5,108.3 216.5,108 213.7,135.6 216.4,135.9 215.5,143.8 213,143.5 212.5,148.3 
			256.5,154.7 257,149.4 		"/>
		<path class="st1" d="M252.4,84c-0.8,3.5-2.8,6.5-5.8,8.6l-12.7-1.3c-2.3-2.5-3.6-5.8-3.7-9.3L252.4,84z"/>
		<path class="st0" d="M271,86.6l-8.6,77.5l2.8,0.4c0,0,4,0.3,3.5,3.2c-0.5,3.5-4.9,2.4-4.9,2.4l-1.8-0.3l-0.3,3.1l52.5,8.3l0.4-3.5
			l-3-0.6c-1.1-1.9-0.6-4.3,1.2-5.6l3,0.5l2-3.3l7.8-76.4l-2.4-1l-47.6-4.8L271,86.6z"/>
		<polyline class="st1" points="272.9,86.3 265.6,161.8 312.5,169 		"/>
		<path class="st1" d="M312.8,171.4l-47.2-7c1,0.2,3.5,0.8,3.2,3.2c-0.2,1.6-1.8,2.8-3.4,2.6l49.3,7.4l-3-0.6
			C310.6,175.2,311.1,172.7,312.8,171.4z"/>
		<polygon class="st0" points="311.8,157.1 312.6,149 315.1,149.3 318.1,120.7 315.9,120.4 316.7,112.3 319,112.6 320.4,100.2 
			274.7,95.6 273.5,106.2 276.6,106.5 275.7,114.7 272.6,114.3 269.6,143 272.3,143.3 271.4,151.5 268.8,151.2 268.3,156.2 
			313.6,163 314.2,157.4 		"/>
		<path class="st1" d="M309.6,89.8c-0.8,3.6-2.9,6.7-5.9,8.8l-13-1.4c-2.4-2.6-3.7-6-3.7-9.5L309.6,89.8z"/>
		<path class="st0" d="M328.5,93.5l-9.3,78.9l2.9,0.4c0,0,4.1,0.3,3.6,3.3c-0.6,3.6-5.1,2.5-5.1,2.5l-1.9-0.3l-0.2,3.2l54.1,8.5
			l0.4-3.6l-3-0.6c-1.1-1.9-0.6-4.4,1.2-5.7l3.1,0.5l2.1-3.3l8-77.5l-2.5-1.1l-48.7-5.1L328.5,93.5z"/>
		<polyline class="st1" points="330.4,93.2 322.5,170 370.8,177.5 		"/>
		<path class="st1" d="M371.2,179.9l-47.9-7c1.2,0.3,2.8,1.1,2.5,3c-0.3,1.7-1.8,2.9-3.5,2.6l50.8,7.6l-3.1-0.6
			C368.9,183.6,369.4,181.2,371.2,179.9z"/>
		<polygon class="st0" points="370.1,165.3 371,157 373.5,157.3 376.7,128.3 374.4,128 375.3,119.8 377.6,120.1 379,107.6 
			332.2,102.6 331,113.3 334.2,113.7 333.2,122 330.1,121.5 326.8,150.8 329.6,151.1 328.6,159.5 325.9,159.1 325.3,164.3 
			372,171.3 372.6,165.6 		"/>
		<path class="st1" d="M361.9,105.9c3.1-2,5.3-5.2,6.1-8.8l-23.2-2.5c0,3.6,1.4,7,3.8,9.7L361.9,105.9z"/>
		<path class="st0" d="M387.8,100.3l-10,80.2l3,0.4c0,0,4.3,0.4,3.8,3.3c-0.6,3.7-5.3,2.5-5.3,2.5l-2-0.3l-0.3,3.2l55.8,8.7l0.4-3.6
			l-3.2-0.6c-1.1-2-0.6-4.5,1.3-5.8l3.2,0.5l2.1-3.4l8.3-78.5l-2.5-1l-49.8-5.5L387.8,100.3z"/>
		<polyline class="st1" points="389.8,100 381.3,178.2 431,185.8 		"/>
		<path class="st1" d="M431.4,188.2l-50-7.3c1.1,0.2,3.6,0.9,3.2,3.2c-0.3,1.7-1.9,2.9-3.6,2.7l52.4,7.8l-3.2-0.6
			C429,192.1,429.6,189.6,431.4,188.2z"/>
		<polygon class="st0" points="430.3,173.4 431.2,165 433.8,165.3 437.1,135.8 434.8,135.5 435.7,127.2 438.1,127.5 439.5,114.9 
			391.6,109.6 390.3,120.4 393.6,120.8 392.5,129.2 389.3,128.8 385.8,158.5 388.7,158.9 387.6,167.4 384.8,167 384.2,172.3 
			432.2,179.5 432.9,173.7 		"/>
		<path class="st1" d="M428.3,104.1c-0.9,3.7-3.1,6.8-6.2,8.9l-13.7-1.6c-2.4-2.7-3.8-6.2-3.8-9.9L428.3,104.1z"/>
		<path class="st0" d="M448.8,107.7l-10.7,81.6l3.2,0.4c0,0,4.4,0.4,3.9,3.4c-0.7,3.8-5.5,2.6-5.5,2.6l-2-0.3l-0.3,3.3l57.4,8.9
			l0.4-3.7l-3.3-0.6c-1.2-2-0.6-4.6,1.3-6l3.3,0.5l2.1-3.5l8.5-79.6l-2.6-1.2l-50.9-6L448.8,107.7z"/>
		<polyline class="st1" points="450.8,107.5 441.7,187 492.9,194.9 		"/>
		<path class="st1" d="M493.3,197.3l-51.4-7.5c1.2,0.2,3.7,1,3.3,3.3c-0.3,1.8-2,3-3.8,2.8l53.9,8l-3.3-0.6
			C490.8,201.2,491.4,198.7,493.3,197.3z"/>
		<polygon class="st0" points="492.2,182.2 493.1,173.6 495.8,174 499.2,144 496.8,143.7 497.7,135.4 500.2,135.7 501.7,122.9 
			452.7,117.2 451.3,128.2 454.6,128.6 453.5,137.1 450.2,136.6 446.5,166.9 449.4,167.3 448.3,176 445.4,175.6 444.8,181 
			494.1,188.4 494.8,182.5 		"/>
		<path class="st1" d="M483.9,120.9c3.2-2,5.5-5.2,6.4-8.9l-24.2-2.8c0,3.7,1.4,7.3,3.9,10L483.9,120.9z"/>
		<path class="st0" d="M511.1,115.1l-11.3,83l3.2,0.4c0,0,4.5,0.4,4,3.5c-0.7,3.9-5.6,2.7-5.6,2.7l-2.1-0.3l-0.4,3.3l59.1,9.1
			l0.4-3.8l-3.3-0.7c-1.2-2.1-0.6-4.7,1.4-6.1l3.3,0.5l2.2-3.5l8.8-80.7l-2.6-1.1l-52-6.4L511.1,115.1z"/>
		<polyline class="st1" points="513.2,114.9 503.4,195.7 556,203.7 		"/>
		<path class="st1" d="M556.5,206.2l-52.8-7.7c1.2,0.2,3.8,1,3.4,3.4c-0.4,1.8-2.1,3.1-3.9,2.8l55.4,8.1l-3.3-0.7
			C554,210.3,554.5,207.6,556.5,206.2z"/>
		<polygon class="st0" points="555.3,190.8 556.3,182.1 559.1,182.4 562.6,152.1 560.2,151.8 561.1,143.3 563.6,143.6 565.1,130.7 
			515,124.7 513.5,135.8 517,136.2 515.8,144.8 512.4,144.4 508.4,175.2 511.5,175.6 510.3,184.4 507.3,184 506.6,189.6 
			557.3,197.1 558,191.1 		"/>
		<path class="st1" d="M553.5,119.7c-0.9,3.7-3.3,6.9-6.6,8.9l-14.3-1.9c-2.5-2.8-4-6.4-4-10.1L553.5,119.7z"/>
		<path class="st0" d="M178.2,133.2l-8.2,76.9l2.8,0.4c0,0,4,0.4,3.5,3.2c-0.5,3.5-4.8,2.3-4.8,2.3l-1.8-0.3l-0.3,3l52.5,9l0.3-3.5
			l-3-0.6c-1.1-1.9-0.6-4.3,1.2-5.5l3,0.5l2-3.2l7.7-76.3l-2.5-1.1l-48-5L178.2,133.2z"/>
		<polyline class="st1" points="180.1,132.9 173.2,207.9 220.1,215.7 		"/>
		<path class="st1" d="M220.4,218.1l-47.1-7.5c1.1,0.2,3.4,0.9,3,3.1c-0.2,1.6-1.8,2.7-3.4,2.5l49.3,8.1l-3-0.6
			C218.2,221.8,218.7,219.4,220.4,218.1z"/>
		<polygon class="st0" points="219.4,203.9 220.2,195.8 222.7,196.2 225.7,167.7 223.5,167.4 224.3,159.3 226.6,159.6 228,147.2 
			181.9,142.2 180.8,152.8 183.9,153.2 183.1,161.2 180,160.8 177.1,189.4 179.8,189.7 178.9,197.8 176.3,197.4 175.8,202.5 
			221.2,209.7 221.8,204.2 		"/>
		<path class="st1" d="M217,136.7c-0.8,3.6-2.9,6.7-6,8.8l-13.1-1.6c-2.4-2.6-3.7-6-3.8-9.5L217,136.7z"/>
		<path class="st0" d="M236.2,139.6l-8.9,79.8l2.9,0.4c0,0,4.1,0.4,3.7,3.3c-0.6,3.6-5.1,2.4-5.1,2.4l-1.9-0.4l-0.2,3.2l54.1,9.4
			l0.4-3.6l-3.2-0.7c-1.1-1.9-0.6-4.4,1.2-5.8l3.2,0.6l2-3.3l8-78.8l-2.5-1.1l-49.1-5.6L236.2,139.6z"/>
		<polyline class="st1" points="238.1,139.4 230.6,217.2 279,225.4 		"/>
		<path class="st1" d="M279.4,227.8l-48.6-8c1.1,0.2,3.5,1,3.2,3.2c-0.3,1.7-1.8,2.8-3.5,2.6l50.9,8.5l-3.2-0.7
			C277.2,231.5,277.7,229.2,279.4,227.8z"/>
		<polygon class="st0" points="278.3,213.1 279.1,204.7 281.7,205.1 284.9,175.6 282.6,175.2 283.4,166.9 285.8,167.2 287.2,154.5 
			240,149 238.8,159.9 242,160.3 241.1,168.7 237.9,168.2 234.8,197.8 237.6,198.2 236.6,206.6 233.9,206.3 233.4,211.5 
			280.2,219.2 280.8,213.4 		"/>
		<path class="st1" d="M269.9,152.6c3.1-2.1,5.3-5.3,6.1-9l-23.4-2.7c0,3.7,1.4,7.2,3.8,10L269.9,152.6z"/>
		<path class="st0" d="M295.6,147.6l-9.5,81.3l3,0.4c0,0,4.3,0.4,3.8,3.4c-0.6,3.7-5.2,2.5-5.2,2.5l-2-0.4l-0.2,3.3l55.9,9.5
			l0.4-3.7l-3.2-0.7c-1.2-2-0.6-4.5,1.3-5.9l3.2,0.6l2.1-3.4l8.3-79.9l-2.6-1.1l-50.3-6.1L295.6,147.6z"/>
		<polyline class="st1" points="297.5,147.4 289.4,226.6 339.2,235 		"/>
		<path class="st1" d="M339.7,237.5l-50.1-8.1c1.1,0.2,3.6,1,3.2,3.3c-0.3,1.7-1.9,2.9-3.6,2.7c0,0,0,0,0,0l52.5,8.7l-3.2-0.7
			C337.3,241.4,337.8,238.8,339.7,237.5z"/>
		<polygon class="st0" points="338.5,222.4 339.4,213.9 342,214.3 345.4,184.3 343,184 343.9,175.6 346.3,175.9 347.7,163 
			299.4,157.2 298.1,168.2 301.4,168.6 300.4,177.1 297.2,176.6 293.8,206.8 296.7,207.2 295.7,215.8 292.8,215.4 292.3,220.7 
			340.5,228.6 341.1,222.8 		"/>
		<path class="st1" d="M330.1,160.9c3.2-2.1,5.4-5.3,6.3-9l-23.9-2.9c0,3.7,1.4,7.3,3.9,10.1L330.1,160.9z"/>
		<path class="st0" d="M356.8,155.6l-10.3,82.7l3.2,0.4c0,0,4.4,0.4,3.9,3.5c-0.7,3.8-5.4,2.5-5.4,2.5l-2-0.4l-0.3,3.4l57.6,9.8
			l0.4-3.8l-3.3-0.7c-1.2-2-0.6-4.6,1.3-6l3.3,0.6l2.1-3.5l8.5-81l-2.6-1.1l-51.4-6.5L356.8,155.6z"/>
		<polyline class="st1" points="358.8,155.4 350.1,236 401.4,244.6 		"/>
		<path class="st1" d="M401.8,247.1l-51.6-8.3c1.2,0.2,3.7,1,3.3,3.4c-0.3,1.8-2,3-3.8,2.7l54.1,8.9l-3.3-0.7
			C399.4,251.1,399.9,248.5,401.8,247.1z"/>
		<polygon class="st0" points="400.7,231.7 401.6,223.1 404.3,223.4 407.7,193.1 405.3,192.7 406.2,184.2 408.7,184.5 410.1,171.5 
			360.7,165.2 359.3,176.4 362.7,176.9 361.7,185.5 358.3,185 354.7,215.7 357.7,216.1 356.6,224.9 353.7,224.4 353.1,229.9 
			402.6,238.1 403.3,232.1 		"/>
		<path class="st1" d="M398.7,160.2c-0.9,3.7-3.1,7-6.4,9.1l-14.3-1.9c-2.5-2.8-3.9-6.5-4-10.2L398.7,160.2z"/>
		<path class="st0" d="M419.8,164.3l-11,84.1l3.2,0.4c0,0,4.6,0.4,4,3.6c-0.7,3.9-5.6,2.6-5.6,2.6l-2.1-0.4L408,258l59.3,10.1
			l0.4-3.8l-3.4-0.7c-1.2-2.1-0.6-4.7,1.4-6.1l3.4,0.6l2.2-3.5l8.8-82l-2.7-1.2l-52.5-7L419.8,164.3z"/>
		<polyline class="st1" points="421.8,164.1 412.4,246.1 465.2,254.9 		"/>
		<path class="st1" d="M465.7,257.4l-53.1-8.5c1.2,0.2,3.8,1.1,3.4,3.5c-0.3,1.8-2.1,3.1-3.9,2.8l55.6,9.1l-3.4-0.7
			C463.1,261.5,463.7,258.8,465.7,257.4z"/>
		<polygon class="st0" points="464.5,241.8 465.5,233 468.2,233.4 471.8,202.5 469.3,202.2 470.2,193.5 472.8,193.9 474.3,180.8 
			423.7,174.1 422.3,185.4 425.8,185.9 424.6,194.6 421.2,194.1 417.3,225.3 420.4,225.8 419.2,234.7 416.2,234.3 415.6,239.9 
			466.5,248.2 467.2,242.2 		"/>
		<path class="st1" d="M455.9,178.4c3.3-2,5.7-5.3,6.6-9.1l-25-3.4c0,3.8,1.4,7.5,4,10.4L455.9,178.4z"/>
		<path class="st0" d="M484.1,172.8l-11.7,85.5l3.3,0.5c0,0,4.7,0.4,4.1,3.7c-0.7,4-5.8,2.6-5.8,2.6l-2.1-0.4l-0.3,3.5l61,10.3
			l0.4-3.9l-3.5-0.7c-1.2-2.1-0.6-4.8,1.4-6.2l3.4,0.6l2.3-3.6l9.1-83.1l-2.7-1.2l-53.6-7.4L484.1,172.8z"/>
		<polyline class="st1" points="486.2,172.7 476.2,256 530.4,265.1 		"/>
		<path class="st1" d="M530.9,267.6l-54.6-8.8c1.2,0.3,4,1.1,3.5,3.6c-0.4,1.9-2.2,3.1-4.1,2.8l57.2,9.3l-3.5-0.7
			C528.3,271.7,528.9,269,530.9,267.6z"/>
		<polygon class="st0" points="529.7,251.7 530.7,242.7 533.6,243.1 537.2,211.8 534.7,211.4 535.7,202.7 538.3,203.1 539.8,189.8 
			488.1,182.8 486.6,194.2 490.1,194.8 488.9,203.6 485.4,203.1 481.3,234.8 484.5,235.3 483.2,244.4 480.1,243.9 479.5,249.6 
			531.8,258.2 532.5,252.1 		"/>
		<path class="st1" d="M527.8,178.2c-0.9,3.8-3.4,7.1-6.8,9.1l-14.8-2.2c-2.6-2.9-4.1-6.6-4.1-10.5L527.8,178.2z"/>
		<path class="st0" d="M131.1,189.7l-8.7,81.6l3,0.4c0,0,4.2,0.4,3.8,3.4c-0.6,3.7-5.2,2.4-5.2,2.4l-1.9-0.4l-0.2,3.2l55.7,10.3
			l0.4-3.7l-3.2-0.7c-1.2-2-0.6-4.5,1.2-5.9l3.2,0.6l2.1-3.4l8.2-80.8l-2.6-1.1l-50.9-6.1L131.1,189.7z"/>
		<polyline class="st1" points="133.1,189.5 125.8,269.1 175.6,278.1 		"/>
		<path class="st1" d="M176,280.5l-50-8.7c1.1,0.2,3.6,1,3.2,3.3c-0.3,1.7-1.9,2.8-3.6,2.6l50.5,9l1.9,0.3l-3.2-0.7
			C173.6,284.4,174.1,281.8,176,280.5z"/>
		<polygon class="st0" points="174.8,265.4 175.7,256.9 178.4,257.3 181.6,227 179.2,226.7 180.1,218.1 182.5,218.5 183.9,205.3 
			135,199.4 133.9,210.5 137.2,211 136.2,219.6 133,219.1 129.9,249.4 132.8,249.8 131.9,258.3 129.1,257.9 128.6,263.2 
			176.8,271.7 177.4,265.8 		"/>
		<path class="st1" d="M172.4,194c-0.8,3.8-3.1,7.1-6.4,9.2l-14-1.8c-2.5-2.8-4-6.5-4-10.3L172.4,194z"/>
		<path class="st0" d="M192.7,197.4l-9.4,84.7l3.2,0.5c0,0,4.4,0.5,3.9,3.6c-0.6,3.8-5.4,2.5-5.4,2.5l-2-0.4l-0.2,3.4l57.5,10.8
			l0.4-3.8l-3.3-0.8c-1.2-2.1-0.6-4.7,1.3-6.1l3.3,0.6l2.1-3.5l8.5-83.6l-2.7-1.2l-52.2-6.7L192.7,197.4z"/>
		<polyline class="st1" points="194.8,197.3 186.8,279.8 238.2,289.2 		"/>
		<path class="st1" d="M238.6,291.7l-51.6-9.1c1.1,0.3,3.7,1.1,3.3,3.5c-0.2,1.7-1.8,3-3.6,2.7c-0.1,0-0.1,0-0.2,0l54.1,9.7
			l-3.3-0.8C236.2,295.8,236.7,293.2,238.6,291.7z"/>
		<polygon class="st0" points="237.4,276.1 238.3,267.2 241,267.6 244.4,236.3 242,235.9 242.9,227.1 245.4,227.5 246.8,213.9 
			196.7,207.4 195.5,218.9 198.9,219.5 197.9,228.3 194.5,227.8 191.2,259.2 194.2,259.6 193.2,268.6 190.3,268.1 189.8,273.7 
			239.4,282.5 240.1,276.5 		"/>
		<path class="st1" d="M228.5,211.6c3.3-2.2,5.7-5.6,6.5-9.4l-24.9-3.2c0.1,3.9,1.5,7.7,4.1,10.6L228.5,211.6z"/>
		<path class="st0" d="M255.8,206.8l-10.2,86.2l3.2,0.5c0,0,4.5,0.5,4,3.7c-0.6,3.9-5.6,2.6-5.6,2.6l-2.1-0.4l-0.3,3.5l59.4,11.1
			l0.4-3.9l-3.4-0.8c-1.2-2.1-0.6-4.8,1.3-6.2l3.4,0.7l2.2-3.6l8.8-84.7l-2.7-1.3l-53.4-7.2L255.8,206.8z"/>
		<polyline class="st1" points="257.9,206.7 249.2,290.6 302.2,300.3 		"/>
		<path class="st1" d="M302.6,302.9l-53.2-9.4c1.2,0.3,3.8,1.1,3.4,3.6c-0.3,1.8-2,3.1-3.9,2.8c0,0,0,0,0,0l55.7,10l-3.4-0.8
			C300.1,306.9,300.7,304.3,302.6,302.9z"/>
		<polygon class="st0" points="301.4,286.9 302.4,277.8 305.2,278.2 308.7,246.5 306.1,246.1 307.1,237.2 309.7,237.6 311.2,223.9 
			259.9,216.9 258.5,228.6 262,229.2 260.9,238.2 257.5,237.6 253.9,269.6 257,270 255.9,279.2 252.9,278.7 252.3,284.4 
			303.5,293.5 304.2,287.3 		"/>
		<path class="st1" d="M299.1,211.9c-0.9,3.9-3.3,7.4-6.7,9.5l-14.6-2.1c-2.6-3-4.1-6.8-4.1-10.8L299.1,211.9z"/>
		<path class="st0" d="M320.8,216.1l-10.9,87.7l3.3,0.5c0,0,4.7,0.5,4.1,3.8c-0.7,4-5.8,2.6-5.8,2.6l-2.1-0.4l-0.3,3.6l61.1,11.3
			l0.4-4l-3.5-0.8c-1.3-2.2-0.7-4.9,1.4-6.4l3.5,0.7l2.3-3.7l9.1-85.9l-2.8-1.3l-54.6-7.7L320.8,216.1z"/>
		<polyline class="st1" points="323,216 313.7,301.5 368.2,311.4 		"/>
		<path class="st1" d="M368.6,314l-54.8-9.5c1.2,0.3,3.9,1.1,3.5,3.7c-0.3,1.9-2.1,3.2-4,2.8l57.4,10.2l-3.5-0.8
			C365.9,318.2,366.5,315.4,368.6,314z"/>
		<polygon class="st0" points="367.4,297.7 368.4,288.5 371.3,288.9 374.9,256.7 372.3,256.3 373.3,247.2 375.9,247.6 377.5,233.8 
			325,226.4 323.5,238.3 327.1,238.8 326,248 322.4,247.4 318.6,279.9 321.7,280.4 320.6,289.7 317.5,289.2 316.9,295 369.5,304.4 
			370.2,298.1 		"/>
		<path class="st1" d="M365.2,221.7c-0.9,4-3.4,7.4-6.9,9.5l-15-2.3c-2.7-3-4.2-6.9-4.2-10.9L365.2,221.7z"/>
		<path class="st0" d="M387.7,226.3l-11.7,89.2l3.4,0.5c0,0,4.8,0.5,4.2,3.9c-0.7,4.1-6,2.7-6,2.7l-2.2-0.4l-0.3,3.6l63,11.6
			l0.4-4.1l-3.6-0.8c-1.3-2.2-0.7-5,1.4-6.5l3.6,0.7l2.3-3.7l9.4-87l-2.8-1.2l-55.8-8.2L387.7,226.3z"/>
		<polyline class="st1" points="389.9,226.2 379.9,313.1 436,323.3 		"/>
		<path class="st1" d="M436.5,325.9l-56.4-9.8c1.3,0.3,4.1,1.2,3.6,3.8c-0.4,1.9-2.2,3.2-4.2,2.9l59,10.5l-3.6-0.8
			C433.7,330.2,434.4,327.4,436.5,325.9z"/>
		<polygon class="st0" points="435.3,309.3 436.3,299.9 439.2,300.4 443,267.7 440.4,267.3 441.4,258.1 444,258.5 445.6,244.6 
			391.9,236.8 390.4,248.7 394.1,249.4 392.9,258.6 389.2,258 385.1,291.1 388.4,291.6 387.1,301.1 384,300.6 383.3,306.5 
			437.4,316.2 438.1,309.7 		"/>
		<path class="st1" d="M426.1,241.8c3.5-2.1,6-5.6,7-9.5l-26.5-3.9c0,4.1,1.5,8.1,4.3,11.1L426.1,241.8z"/>
		<path class="st0" d="M456.1,236.3L443.6,327l3.5,0.5c0,0,5,0.5,4.3,4c-0.8,4.2-6.2,2.7-6.2,2.7l-2.3-0.4l-0.3,3.7l64.8,11.8
			l0.4-4.2l-3.7-0.8c-1.3-2.3-0.7-5.1,1.5-6.6l3.6,0.7l2.4-3.8l9.7-88.2l-2.9-1.3l-57-8.7L456.1,236.3z"/>
		<polyline class="st1" points="458.3,236.3 447.6,324.6 505.3,335.1 		"/>
		<path class="st1" d="M505.7,337.7l-58-10.1c1.3,0.3,4.2,1.2,3.7,3.9c-0.4,2-2.3,3.3-4.3,3l60.8,10.7l-3.7-0.8
			C503,342.1,503.6,339.2,505.7,337.7z"/>
		<polygon class="st0" points="504.5,320.8 505.6,311.2 508.6,311.7 512.5,278.5 509.8,278.1 510.8,268.8 513.6,269.3 515.2,255.2 
			460.3,246.9 458.7,259.1 462.5,259.7 461.2,269.1 457.5,268.5 453.1,302.1 456.4,302.6 455.1,312.3 451.8,311.8 451.1,317.8 
			506.7,327.7 507.5,321.2 		"/>
		<path class="st1" d="M502.5,242.7c-1,4-3.6,7.5-7.2,9.5l-15.7-2.5c-2.8-3.1-4.3-7.1-4.3-11.2L502.5,242.7z"/>
		<path class="st0" d="M81.9,255.3l-9.1,85.7l3.2,0.5c0,0,4.4,0.5,3.9,3.7c-0.6,3.8-5.4,2.4-5.4,2.4l-2.1-0.4l-0.2,3.4l58.6,11.6
			l0.4-3.8l-3.4-0.8c-1.2-2.1-0.7-4.7,1.3-6.1l3.4,0.7l2.2-3.5l8.6-84.9l-2.8-1.2L87,255.3H81.9z"/>
		<polyline class="st1" points="84,255.2 76.3,338.7 128.7,348.8 		"/>
		<path class="st1" d="M129.1,351.3l-52.6-9.8c1.2,0.3,3.8,1.1,3.4,3.6c-0.2,1.7-1.9,3-3.6,2.7c-0.1,0-0.1,0-0.2,0l55.1,10.5
			l-3.4-0.8C126.6,355.4,127.2,352.7,129.1,351.3z"/>
		<polygon class="st0" points="127.9,335.5 128.8,326.5 131.6,326.9 135,295.2 132.5,294.8 133.4,285.8 136,286.2 137.5,272.4 
			86.1,265.5 84.8,277.2 88.3,277.8 87.3,286.8 83.9,286.2 80.7,318 83.7,318.4 82.7,327.4 79.8,327 79.3,332.6 130,342.1 
			130.6,335.9 		"/>
		<path class="st1" d="M125.3,260.3c-0.9,3.9-3.3,7.4-6.7,9.5l-14.7-2.1c-2.6-3-4.1-6.9-4.2-10.9L125.3,260.3z"/>
		<path class="st0" d="M146.7,264.2l-9.9,88.9l3.3,0.5c0,0,4.6,0.6,4.1,3.8c-0.6,4-5.6,2.5-5.6,2.5l-2.1-0.4l-0.3,3.5l60.5,12.1
			l0.4-4l-3.5-0.8c-1.2-2.2-0.7-4.9,1.4-6.4l3.5,0.7l2.2-3.7l9-87.8l-2.8-1.3l-54.7-7.8L146.7,264.2z"/>
		<polyline class="st1" points="148.8,264.1 140.5,350.8 194.5,361.4 		"/>
		<path class="st1" d="M195,364l-54.3-10.2c1.2,0.3,3.9,1.2,3.5,3.7c-0.2,1.8-1.9,3.1-3.8,2.9c-0.1,0-0.1,0-0.2,0l56.8,10.9
			l-3.5-0.8C192.3,368.2,192.9,365.4,195,364z"/>
		<polygon class="st0" points="193.7,347.5 194.6,338.1 197.5,338.6 201.1,305.8 198.4,305.3 199.4,296.1 202.1,296.5 203.6,282.3 
			150.9,274.8 149.6,286.9 153.2,287.5 152.1,296.8 148.6,296.2 145.1,329.2 148.2,329.7 147.2,339 144.1,338.5 143.6,344.3 
			195.8,354.3 196.5,347.9 		"/>
		<path class="st1" d="M184.3,279.6c3.5-2.2,6-5.8,6.8-9.8l-26.1-3.7c0.1,4.1,1.6,8.1,4.3,11.2L184.3,279.6z"/>
		<path class="st0" d="M213,274.9l-10.7,90.5l3.4,0.6c0,0,4.8,0.6,4.2,3.9c-0.7,4.1-5.9,2.6-5.9,2.6l-2.2-0.5l-0.3,3.6L264,388
			l0.4-4.1l-3.6-0.9c-1.3-2.2-0.7-5,1.4-6.5l3.6,0.7l2.4-3.8l9.2-88.9l-2.9-1.3l-56.1-8.3L213,274.9z"/>
		<polyline class="st1" points="215.2,274.8 206.1,363 261.8,373.9 		"/>
		<path class="st1" d="M262.2,376.5L206.3,366c1.3,0.3,4,1.2,3.6,3.8c-0.3,1.9-2.1,3.2-4,2.9c0,0,0,0-0.1,0l58.6,11.2l-3.6-0.9
			C259.5,380.8,260.1,378,262.2,376.5z"/>
		<polygon class="st0" points="261,359.7 261.9,350.2 264.9,350.7 268.6,317.3 265.9,316.9 266.9,307.5 269.6,308 271.2,293.6 
			217.3,285.6 215.8,297.9 219.5,298.5 218.4,307.9 214.8,307.3 211,340.9 214.2,341.4 213.1,351 209.9,350.5 209.3,356.4 
			263.1,366.7 263.8,360.2 		"/>
		<path class="st1" d="M258.5,280.9c-0.9,4.1-3.5,7.7-7,9.9l-15.4-2.4c-2.8-3.2-4.3-7.2-4.4-11.4L258.5,280.9z"/>
		<path class="st0" d="M281.4,285.5l-11.5,92l3.5,0.6c0,0,4.9,0.6,4.3,4c-0.7,4.2-6.1,2.7-6.1,2.7l-2.3-0.5l-0.3,3.7l64.3,12.7
			l0.4-4.2l-3.7-0.9c-1.3-2.3-0.7-5.2,1.5-6.7l3.6,0.7l2.4-3.8l9.5-90.2l-2.9-1.4l-57.4-8.8L281.4,285.5z"/>
		<polyline class="st1" points="283.6,285.5 273.8,375.2 331.1,386.4 		"/>
		<path class="st1" d="M331.6,389.1L274,378.3c1.3,0.3,4.2,1.2,3.7,3.9c-0.4,2-2.2,3.3-4.2,2.9c0,0,0,0,0,0l60.3,11.5l-3.7-0.9
			C328.8,393.5,329.5,390.6,331.6,389.1z"/>
		<polygon class="st0" points="330.3,371.9 331.4,362.3 334.4,362.7 338.2,328.9 335.5,328.4 336.5,319 339.3,319.4 340.9,304.9 
			285.7,296.5 284.2,308.9 288,309.5 286.8,319.1 283,318.5 279,352.6 282.3,353.2 281.1,362.9 277.9,362.4 277.2,368.5 332.5,379 
			333.3,372.4 		"/>
		<path class="st1" d="M320.8,301.9c3.6-2.2,6.2-5.8,7.2-9.9l-27.4-4.2c0.1,4.3,1.6,8.4,4.4,11.6L320.8,301.9z"/>
		<path class="st0" d="M351.7,297.1l-12.3,93.6l3.6,0.6c0,0,5.1,0.6,4.5,4.1c-0.8,4.3-6.4,2.7-6.4,2.7l-2.3-0.5l-0.3,3.8l66.2,13
			l0.4-4.3l-3.8-0.9c-1.3-2.3-0.6-5.3,1.6-6.8l3.7,0.7l2.5-3.9l9.8-91.4l-3-1.4l-58.6-9.3L351.7,297.1z"/>
		<polyline class="st1" points="354,297.1 343.5,388.4 402.4,399.9 		"/>
		<path class="st1" d="M402.9,402.5l-58.4-10.9c1.4,0.5,3.4,1.5,3,3.8c-0.4,2-2.4,3.4-4.4,3l62.1,11.8l-3.8-0.9
			C400.1,407,400.7,404.1,402.9,402.5z"/>
		<polygon class="st0" points="401.7,385 402.7,375.2 405.8,375.7 409.8,341.4 407,340.9 408,331.3 410.9,331.8 412.6,317.2 
			356.1,308.2 354.5,320.8 358.4,321.5 357.1,331.2 353.3,330.5 349,365.3 352.4,365.8 351.1,375.8 347.7,375.2 347,381.4 
			403.9,392.3 404.7,385.5 		"/>
		<path class="st1" d="M399.4,304c-1,4.2-3.7,7.8-7.4,10l-16.1-2.7c-2.9-3.2-4.5-7.4-4.5-11.7L399.4,304z"/>
		<path class="st0" d="M423.5,308.6l-13.1,95.2l3.7,0.6c0,0,5.2,0.6,4.6,4.2c-0.8,4.4-6.5,2.8-6.5,2.8l-2.4-0.5l-0.3,3.9l68.1,13.3
			l0.5-4.4l-3.9-0.9c-1.4-2.4-0.7-5.4,1.6-6.9l3.8,0.8l2.5-4l10.2-92.6l-3-1.4l-59.9-9.8L423.5,308.6z"/>
		<polyline class="st1" points="425.9,308.6 414.6,401.3 475.3,413.1 		"/>
		<path class="st1" d="M475.8,415.8l-60.1-11.1l0,0c1.5,0.5,3.5,1.6,3,3.9c-0.5,2.7-2.8,3.2-4.6,3.1l63.9,12l-3.9-0.9
			C472.8,420.4,473.5,417.4,475.8,415.8z"/>
		<polygon class="st0" points="474.5,398 475.6,388 478.7,388.5 482.8,353.7 480,353.2 481.1,343.5 484,344 485.7,329.2 428,319.8 
			426.3,332.5 430.3,333.3 428.9,343.1 425,342.4 420.4,377.7 423.9,378.3 422.5,388.5 419.1,387.9 418.3,394.2 476.8,405.4 
			477.6,398.5 		"/>
		<path class="st1" d="M464.8,325.9c3.8-2.2,6.5-5.8,7.6-10l-28.6-4.7c0,4.4,1.7,8.6,4.6,11.9L464.8,325.9z"/>
		<path class="st0" d="M67.7,378.3c3.1-6.7,16.4-11.5,28.2-9c13.4,2.8,13.9,10.7,10.5,14.9c-4.8,6-19.5,4.8-24.5,10.9
			c-3.9,4.8-14.6,2.9-9.5-2.6c7.6-8.4,17.9-5.7,20.8-9.9c1.9-2.8-0.3-7-5.7-8c-4-0.8-8.6,1.6-11.1,4.8
			C73.2,383.6,64.8,384.2,67.7,378.3z M62.9,406c-5,5.5,5.7,7.3,9.5,2.6C77.5,403.1,66.8,401.3,62.9,406L62.9,406z M142.1,392.1
			c2.4-3.6,6.7-5.5,10.9-5c5.6,1.1,8.2,5.3,6.4,8.3c-2.6,4.3-13.4,1.5-20.7,10.2c-4.8,5.7,6.4,7.5,10,2.7
			c4.8-6.4,19.8-5.2,24.2-11.3c3.2-4.4,2.1-12.5-11.8-15.5c-12.2-2.6-25.5,2.4-28.1,9.3C130.7,396.9,139.2,396.3,142.1,392.1z
			 M130.3,419.6c-4.8,5.7,6.4,7.5,10,2.7C145,416.5,133.9,414.7,130.3,419.6L130.3,419.6z M208.6,404.7c2.3-3.7,6.5-5.7,10.8-5.2
			c5.8,1.1,8.7,5.5,7.1,8.6c-2.4,4.5-13.5,1.6-20.4,10.6c-4.4,5.9,7,7.8,10.4,2.8c4.4-6.6,19.8-5.3,24-11.7c2.9-4.5,1.3-13-13-16
			c-12.6-2.7-25.7,2.5-28,9.6C197.4,409.6,206,409,208.6,404.7L208.6,404.7z M198.5,433.1c-4.4,5.9,7,7.8,10.4,2.7
			C213.2,429.9,201.8,428,198.5,433.1L198.5,433.1z M277.8,417.6c2.1-3.8,6.4-6,10.7-5.3c6,1.2,9.2,5.7,7.7,8.9
			c-2.1,4.6-13.7,1.6-20.1,10.9c-4.1,6.1,7.6,8,10.7,2.8c4.1-6.8,19.8-5.5,23.7-12.1c2.7-4.7,0.5-13.4-14.3-16.5
			c-13-2.8-26.1,2.6-28,9.9C266.7,422.7,275.4,422,277.8,417.6L277.8,417.6z M269.2,446.9c-4.2,6.1,7.6,8,10.7,2.8
			C284.1,443.7,272.4,441.7,269.2,446.9L269.2,446.9z M348,432.1c1.9-4,6.2-6.2,10.6-5.5c6.2,1.2,9.7,5.9,8.4,9.2
			c-1.9,4.8-13.8,1.6-19.8,11.3c-3.9,6.2,8.2,8.3,11.1,2.9c3.7-7,19.9-5.7,23.4-12.5c2.5-4.8-0.2-13.8-15.5-17.1
			c-13.4-2.8-26.4,2.7-27.9,10.3C337,437.4,345.8,436.7,348,432.1L348,432.1z M341,462.3c-3.9,6.2,8.2,8.3,11.1,2.9
			C356,459,343.9,457,341,462.3L341,462.3z M422.3,445.4c1.7-4.1,6.1-6.4,10.5-5.6c6.4,1.2,10.2,6.1,9.1,9.5
			c-1.6,4.9-14,1.7-19.5,11.6c-3.6,6.4,8.8,8.6,11.5,3c3.4-7.2,19.9-5.9,23.1-12.9c2.2-5-1-14.2-16.8-17.5
			c-13.8-2.9-26.7,2.8-27.8,10.6C411.4,451,420.3,450.2,422.3,445.4L422.3,445.4z M416.9,476.6c-3.6,6.4,8.8,8.5,11.5,3
			C431.9,473.2,419.5,471.1,416.9,476.6L416.9,476.6z"/>
		<path class="st0" d="M388.2,494.4L388.2,494.4c-2.1,1.5-4.7,2.1-7.2,1.8l-136-27.9c-2.3-0.5-2.7-2-1-3.4l0,0
			c2.1-1.5,4.7-2.2,7.2-1.8"/>
		<path class="st0" d="M216.8,461.3L216.8,461.3c-2.1,1.5-4.7,2.1-7.2,1.8l-136-27.9c-2.3-0.5-2.7-2-1-3.4l0,0
			c2.1-1.5,4.7-2.2,7.2-1.8"/>
		<path class="st0" d="M111.7,434.5c0,5-5.7,9.1-12.8,9.1c-7.1,0-12.8-4.1-12.8-9.1c0-5,5.8-9.1,12.8-9.1S111.7,429.5,111.7,434.5z"
			/>
		<path class="st0" d="M277.3,474.9l-7.6-76.2c-0.5-2.4,1.2-4.8,3.6-5.3c0.7-0.1,1.4-0.1,2.1,0.1l67,13.1c3.6,0.9,6.3,3.9,6.6,7.7
			l3.8,76.1L277.3,474.9z"/>
		<path class="st0" d="M278.2,181.9l-1.1,1.5l1.6-0.3C278.6,182.7,278.4,182.3,278.2,181.9z"/>
		<path d="M286.4,438.4c0.9,3,3.5,5.2,6.6,5.7c0,0,2.3,9.8,8.8,14.4s12,4.8,19.9,4.4c7.9-0.4,6.5-11.5,6.5-11.5
			c7.7,1.8,4.2-9,2.6-9.9c-0.8-0.6-1.9-0.7-2.8-0.3l-0.7-2.7c-1.4-4.5,2.8-8.4,2.8-8.4s-1.7-6.8-20.5-12.1s-24.8,2.8-24.8,2.8l1,1.6
			c3.1,2.9,4.8,11.6,4.8,11.6C286.5,431.3,284.9,433.3,286.4,438.4z"/>
		<path d="M309.6,418c-18.8-5.2-24.8,2.8-24.8,2.8l1,1.6c2.5,2.3,4.1,8.4,4.6,10.7c0.5-1.9,3.2-10.7,8.6-10c3.4,0.3,6.5,1.7,8.9,4.1
			c0,0,4.3-2.5,8.1-0.5c5.7,2.9,10,8,11.8,14.2l0,0l-0.6-2.2c-1.4-4.5,2.8-8.4,2.8-8.4S328.4,423.3,309.6,418z"/>
		<path d="M310.9,443c0,0-1.7,4.8-9,1.8c-4.1-1.4-6.7-5.4-6.4-9.7c0,0,5,9.5,13.9,6.7c1.2,0.9,2.8,1.2,4.3,0.7c4,2.5,9.8,3.6,12-1
			c2.2,6-0.8,7.5-5.6,6.7c-2.9-0.5-5.4-2.2-7.1-4.6C312.9,443.6,311.1,443.5,310.9,443z"/>
		<path d="M309.3,433.4c0.6,2-1,3.5-3.6,3.4c-2.5-0.1-4.8-1.6-5.9-3.9c-0.6-2,1-3.5,3.6-3.4C306,429.6,308.3,431.1,309.3,433.4z"/>
		<path d="M321,435.6c0.7,2.2-0.8,3.9-3.2,3.7c-2.6-0.2-4.8-1.8-5.7-4.2c-0.7-2.2,0.8-3.9,3.3-3.7
			C317.9,431.6,320.1,433.2,321,435.6z"/>
		<path d="M230.3,131.5c1.5,1.1,8.2,2.3,13.5,1.2c5.3-1.1,5.8-7.5,5.8-7.5c2.3-1.3,1.6-4.9,1.6-4.9c1.2-0.9,2.1-2.2,2.3-3.7
			c0.3-1.3-0.4-2.6-1.6-3.1c-0.3-0.5-0.7-0.9-1.2-1.2c2-1.2,2.7-3.8,1.5-5.8c-0.2-0.3-0.4-0.6-0.6-0.8c-1.3-1.4-4.1-1.6-3.6-3.1
			s2.3-0.8,2.7,0c0.4,0.8,2.1,1.4,1.4-1.3c-0.4-1.6-1.9-2.6-3.5-2.4c0.1-0.8,0-1.6-0.4-2.4c-1.2-2.7-4-1.2-4-1.2s2.7,0.7,2,1.9
			c-0.6,1.1-2.9,0-7.3,0.2s-6.8,3.8-9.1,5.3c-2.3,1.5-3,3.2-3.2,7.7c0,0-0.3-1.5-2-0.3c-3.1,2.2-0.2,4.3-0.4,7.1s0.7,3.8,2.6,3.3
			C226.4,125.4,227.4,129.3,230.3,131.5z"/>
		<path d="M237.4,120.5c0,0-1.8-0.9-2-1.7c-0.7-0.2-1.4-0.6-1.8-1.2c-2.4-0.2-4.6,1.7-4.7,4.2c0,0.3,0,0.6,0,1
			c0.7,2.6,1.6,2.2,1.6,1.4c0.1-0.6,0.2-1.2,0.3-1.8c0.4,0.3,1,0.3,1.3-0.1c0.9,0.3,1-0.4,1.4-0.6c0.6,0.5,1.1,0.1,1.6-0.1
			c0.9,0.8,1.2,0.2,1.4-0.3C237,121.4,237.4,120.5,237.4,120.5z"/>
		<path d="M238.3,120.4c1.3,0.1,2.9-0.3,3.2-1.2c1.2,0.2,1.4-0.3,1.4-0.3s2.2,1.7,1.7,3.5s-0.6,3-0.9,2.6c-0.3-0.3-0.3-1.8-0.2-2
			c-0.6,0.3-1.1,0.4-1.6-0.7c-1.4,0.6-1.3-0.5-1.6-0.9c-0.6,0.4-1.3,0.3-1.7-0.3C238.3,121,238.3,120.7,238.3,120.4z"/>
		<path d="M248.5,118.2c0,0,3.6-1,2.9-4.2c-0.2-0.7-0.3-1.2-0.4-1.5l-0.2-0.1c2-1.2,2.7-3.8,1.5-5.8c-0.2-0.3-0.4-0.6-0.6-0.8
			c-1.3-1.4-4.1-1.6-3.6-3.1s2.3-0.8,2.7,0c0.4,0.8,2.1,1.4,1.4-1.3c-0.4-1.6-1.9-2.6-3.5-2.4c0.1-0.8,0-1.6-0.4-2.4
			c-1.2-2.7-4-1.2-4-1.2s2.7,0.7,2,1.9c-0.6,1.1-2.9,0-7.3,0.2s-6.8,3.8-9.1,5.3c-2.3,1.5-2.9,3-3,6.9c0.2,0.6,0.3,1.2,0.4,1.9
			c0,0.4-0.8,3.1-0.7,3.3c0.3,0.5,0.6,0.9,1.1,1.3c0.3,0.2,0.8-0.1,0.5-0.8c-0.3-1.4-0.4-2.8-0.3-4.2c0.1-0.6,0.5-3.2,0.5-3.6
			s0.4-1.4,1-1.6c0.4-0.1,0.8-0.1,1.1-0.1c0-0.5,0-1.1,0.1-1.6c0.2-0.7,0.7-1.2,1.4-1.4c0.9-0.3,3.7-1.7,4.4-2
			c0.7-0.3,1.2-1,0.9,0.5s-1.2,1.6-0.7,2s1.4,0.5,1.4,1.3c0,0.8,0.5,1.8,1,1.1c0.5-0.7,0.9-1.2,1.6-1s0.6-1,0.6-1l-1.4-0.6
			c0,0-1.3-2.1-0.2-2.1c1.1,0,3-0.3,3.2,0.7c0.2,0.7,0.7,1.3,1.3,1.6c0,0,2-0.9,2,0.2c0,1.1,1.3,0.7,2.1,1.9
			c0.8,1.3,1.8,1.9,1.3,3.3c-0.5,1.4-3.2,3.5-1.7,4.5s3.2,1.4,2.5,2.8C249.7,116.8,249.1,117.6,248.5,118.2z"/>
		<path d="M237.3,111.6c0,1.8-1.5,3.3-3.3,3.3c-1.8,0-3.3-1.5-3.3-3.3c0-1.8,1.5-3.3,3.3-3.3c0,0,0.1,0,0.1,0
			C235.8,108.3,237.3,109.8,237.3,111.6C237.3,111.5,237.3,111.6,237.3,111.6z"/>
		<path d="M246.4,112.5c0,1.8-1.4,3.2-3.2,3.2c-1.8,0-3.2-1.4-3.2-3.2s1.4-3.2,3.2-3.2C244.9,109.3,246.4,110.7,246.4,112.5z"/>
		<path d="M281.6,111.1c-3.4,4.3-2.9,11.3-2.9,11.3l1.7-0.4l-0.5,6c0,0-1.1,0.7,3.3,1.9c-0.6,6,0.9,12.7,10,14.1
			c9.1,1.4,11.6-3.7,12.6-6.5c0.6-2.4,0.9-4.8,0.7-7.2c2.6-0.7,4.3-3.2,4-5.9c1.8-2.6,2.4-8-1.4-9.4c2.4-0.9,4.8-5.2,4.8-5.2
			l-5.3,0.7c0,0,3.9-3.3,1.3-5.7c-1.2,2.2-5.1,3.9-11.7,2.3c-6.7-1.6-9.8-0.7-11.4,1.3C284.7,108.4,282.7,109.4,281.6,111.1z"/>
		<path d="M313.9,109.9l-5.3,0.7c0,0,3.9-3.3,1.3-5.7c-1.2,2.2-5.1,3.9-11.7,2.3c-6.7-1.6-9.8-0.7-11.4,1.3c-2-0.2-4,0.8-5.2,2.5
			c-3.4,4.3-2.9,11.3-2.9,11.3l1.7-0.4l-0.5,5.6l1.5,1.4c-0.2-0.7-0.3-1.5-0.3-2.2c-0.2-1.8-0.8-5.4,0-6.6c0.8-1.2,3.3-1.1,3,0.4
			c-0.2,1.5-1,4.5-1,4.5l2.1,1c0,0-0.1-4.8,0.8-6.5c0.9-1.8,2.8-4.4,2.8-7c2.1,3.6,5.8,4.1,8.7,4.2c2.6-0.1,5.2-0.3,7.7-0.8
			c2.2,3,1.8,7,1.6,9c-0.2,2-0.3,5.5-0.3,5.5c2.6-0.7,4.3-3.2,4-5.9c1.8-2.6,2.4-8-1.4-9.4C311.5,114.2,313.9,109.9,313.9,109.9z"/>
		<path d="M292.6,121.4c-2.5,0.1-5,0.3-7.5,0.7l-0.4,1.2l1.1,0.3c0.3,2.9,2.4,5.3,5.3,5.9c0.3,0,0.6,0,0.9,0
			c1.9-0.1,3.7-1.3,4.5-3.1h0.2c0.3,0,0.5,0.1,0.7,0.2c-0.2,1.7,0.8,3.6,4.8,4h0.4c3.8,0,5.8-4.6,5.8-4.6l1.6-1.2l-0.2-1.1
			c-0.5,0-0.9,0.2-1.3,0.4c-2-1.3-4.3-2-6.7-2c-0.6,0-1.3,0.1-1.9,0.2c-1.2,0.3-2.1,3-2.1,3l-0.9,0.1c0.2-1.4-0.4-2.9-1.4-3.8
			C294.5,121.4,293.6,121.2,292.6,121.4L292.6,121.4z"/>
		<path d="M292.6,122.9L292.6,122.9c0.6,0,1.3,0,1.9,0.2l0,0c0.6,0.6,0.9,1.4,0.8,2.2l0,0l-0.3,0.9c-0.6,1.1-1.7,1.8-3,2
			c-0.2,0-0.4,0-0.5,0c-2.3-0.4-4-2.3-4.2-4.6v-0.2C289,123.1,290.8,123,292.6,122.9"/>
		<path d="M301.8,123.9c1.9,0,3.7,0.5,5.4,1.4l-0.1,0.3c0,0-1.6,3.7-4.4,3.7h-0.3c-1.1,0-2.3-0.4-3.1-1.1c-0.3-0.3-0.4-0.7-0.3-1.1
			v-0.4l0.2-0.5c0.2-0.8,0.6-1.4,1.2-2C300.8,123.9,301.2,123.9,301.8,123.9"/>
		<path d="M335,119.5l3.6,0.6l-4.1,1.5c0.6,0.9,1.3,1.6,2.2,2.1c-1.3,0.9-0.4,2.4,0.4,3.2c0.9,0.8,0.1,2.3,0,4.1
			c-0.1,1.8,1.9,0.8,1.9,0.8s3,9.9,8,15.6s11.6,4.3,12.7,1.6c2.2-4,4.7-7.8,7.6-11.3c1.2-1.8,1.8-4,1.7-6.1l0.5-1.9l-0.4-3.3
			c0.3-4.8-1.9-9.4-5.8-12.1c-7.1-4.9-16.7-3.7-22.3,2.9C336.1,116.9,335,119.5,335,119.5z"/>
		<path d="M335,119.5l3.6,0.6l-4.1,1.5c0.6,0.9,1.3,1.6,2.2,2.1c2.1-0.9,2.8,2.2,2.8,2.2s2.9-1.3,2.9-3.5c-0.2-1.8-0.7-3.5-1.4-5.2
			C336.1,116.9,335,119.5,335,119.5z"/>
		<path d="M351.3,121.1c-3,0.2-6,0.6-8.9,1.4c0,0.4-0.1,0.8-0.3,1.2l3.8-0.3c-0.2,1.5,0,3.1,0.5,4.6c0.8,1.3,5.2,2.2,7.2,2.2h0.6
			c1.6-0.3,2.8-3.5,2.8-3.5l0.9,0.4c0,1,0.1,2,0.4,2.9c0.3,1.1,4.4,2.5,6.4,2.5c0.3,0,0.5,0,0.8-0.1c1.3-0.6,3.5-3.6,2.9-4.9
			c-1.5-2.4-6.5-3.8-8-3.8h-0.2c-1.1,0.1-1.6,1.8-1.6,1.8c-0.5-0.1-1.1-0.2-1.6-0.4c0.1-2.2-0.8-3.2-4.1-4c-0.6-0.1-1.2-0.2-1.8-0.2
			L351.3,121.1z"/>
		<path d="M351.3,122.7c0.5,0,1,0,1.5,0.1c3,0.7,3,1.3,2.9,2.4l-0.2,1.1c-0.3,1-0.9,1.8-1.6,2.5h-0.4c-2.1,0-4.1-0.5-5.9-1.5
			c-0.4-1.2-0.5-2.4-0.3-3.6l0.1-0.6C348.7,122.8,350,122.7,351.3,122.7"/>
		<path d="M360.5,125.4c1.2,0,5.1,1.2,6.4,2.9c-0.4,1.2-1.1,2.2-2.1,2.9h-0.2c-1.8-0.1-3.4-0.7-4.9-1.6c-0.2-0.7-0.2-1.5-0.3-2.2
			C359.4,127.4,360.4,125.6,360.5,125.4"/>
		<path d="M396.6,140.1c-1,3.7-1.3,6.1,2.9,7.2c-0.6,8.5,2.3,10.2,9.5,12.5c7.2,2.2,11.5,0.9,12.1-3.4c0.5-2.8,1.6-5.5,3.2-7.9
			c0,0,1.7,0.3,1.8-1.8c0.2-2,1.8-4.1,2.2-5.5c0.4-1.4-1.5-1.2-1.5-1.2l-0.4-2.2c2.4-1.6-0.4-3.8-0.4-3.8l0.7-2.3
			c0.4-0.1,3.4-10.3-13.7-12c-20.3-2.1-17.8,15.2-17.8,15.2C393.9,136.2,393.5,137.9,396.6,140.1z"/>
		<path d="M426.1,134.1l0.7-2.3c0.4-0.1,3.4-10.3-13.7-12c-18.2-1.9-18,12-17.8,14.8l4.5-3c0,0,0,3,4.8,3.5
			c4.8,0.5,11.1-3.9,14.5-2.9c3,1.1,5.6,3.1,7.3,5.7C428.9,136.4,426.1,134.1,426.1,134.1z"/>
		<path d="M424,135.1c0.1,1.9,0,3.8-0.2,5.7c-0.1,2.1-0.1,3.6-0.1,3.6l0.3,1.8c0.4,0,0.7,0,0.7-0.1c0.1-0.4,2.2-6,2.2-6l-0.4-2.2
			C425.8,136.9,424.9,135.9,424,135.1z"/>
		<path d="M399.9,131.6l-4.5,3c0,0.2,0,0.3,0,0.5c-1.6,1.1-1.9,2.9,1.2,5.1c-1,3.7-1.3,6.1,2.9,7.2l0.7-1.3l-1.6-1
			c-1.6-1,0.1-1.5-1-3.9s-2.1-4.6,0.6-4.3c2.7,0.4,2.2,6,2.2,6l1.1,1.2l0.2-6l0.5-3.6C400.9,134.1,400,132.9,399.9,131.6z"/>
		<path d="M410.9,138.4c0,1.9-1.5,3.5-3.5,3.6c-1.9,0-3.5-1.5-3.6-3.5c0-1.9,1.5-3.5,3.5-3.6c0,0,0,0,0.1,0
			C409.3,135,410.9,136.5,410.9,138.4C410.9,138.4,410.9,138.4,410.9,138.4z"/>
		<path d="M421.3,139.6c0,1.9-1.5,3.5-3.5,3.5c-1.9,0-3.5-1.5-3.5-3.5c0-1.9,1.5-3.4,3.4-3.5C419.7,136.1,421.2,137.6,421.3,139.6
			C421.3,139.6,421.3,139.6,421.3,139.6z"/>
		<path d="M453.2,141.3c-1.6,4.4-0.6,13.8,4.2,13.2c0.2,4.6,5.6,13,15.2,14.1c9.6,1.1,10.5-5.8,13.1-8.3c0,0,8.4-1.5,6.8-13.3
			c-1.6-11.8-12.8-14.2-19.1-14.3C460.4,128.7,455.3,135.4,453.2,141.3z"/>
		<path d="M487.3,156.6c0.1-2.3-0.5-4.7-1.7-6.7c-1.2-1.7-12-8.2-12-11.3c-2.3,2.9-8,1.8-11.1,1.8s-7.1,6.7-6.2,10.1
			c-1.2-3.2-2.4-3.5-2.8-2.4s0.2,5.6,3.9,6.5c0.2,4.6,5.6,13,15.2,14.1c9.6,1.1,10.5-5.8,13.1-8.3
			C486.7,159.5,487.3,158.1,487.3,156.6z"/>
		<path d="M483.8,148.3c-1.6-1.2-4-3-6.1-4.7c-2.1,1-3,3.5-2,5.7c0.7,1.5,2.2,2.4,3.9,2.4C481.6,151.7,483.4,150.3,483.8,148.3z"/>
		<path d="M472.2,146.4c0,2.2-1.7,4-3.9,4c-2.2,0-4-1.7-4-3.9s1.7-4,3.9-4c0,0,0.1,0,0.1,0C470.4,142.5,472.2,144.3,472.2,146.4z"/>
		<path d="M470.5,153.1c-2.3,0-4.9,4.4-6.5,2.9c-1.6-1.4-1.1-2.4,0.6-3.3c-1.7-0.6-5,2.3-2.9,5.2c1.8,2.3,5.1,2.9,7.7,1.3
			c2.1-1.1,2.9-1.2,3.9-1c1,0.2,3.5,3.3,6.6,3.4c3,0.1,6.5-4.6,3.1-6.9c0.5,3.5-1.6,3.8-3.9,1.8c-2.3-1.9-3.8-3.2-3.8-3.2
			s-0.4,1.2-2.4,1.2S470.5,153.1,470.5,153.1z"/>
		<path d="M520.9,164.3c0,0,0.4-0.5-2,0.3c-1.2-1.8-1.4-4-0.5-6c0,0-0.5,0.6-2.5,0.2c0.4-2,1.3-3.8,2.5-5.5l-2.4,0.2
			c1.4-1.8,3.4-3.1,5.7-3.7c-2.4,0.3-4.6,0.7-4.6,0.7c1.4-1.2,3-2.1,4.8-2.6c-1.7-0.1-3.5,0.3-5,1.1c1.1-1.9,3-3.1,5.1-3.4l-1.1-1.6
			c0,0,0.7-0.8,2.7,0.8c-0.2-2.1,0.3-4.2,1.3-6c0.9,0.8,1.3,1.9,1.3,3.1c1.2-1.5,2.8-2.7,4.7-3.3c0,0-0.8,0-1.6,2.6
			c2.8-3.5,8.5-4.2,8.5-4.2c-0.8,0.5-1.3,1.2-1.7,2.1c4-1.9,13.1,0.5,13.1,0.5s-0.7-1.1-4.9,1.5c7.6-0.3,9.5,4.5,9.5,4.5l-5.1-0.9
			c3.9,1.1,7,4,8.4,7.7c-1.9-1-3.9-1.8-6-2.5c2.8,2.1,1.3,6.2,1.3,6.2l-1.1-0.4c0.4,1.1,0.7,2.3,0.9,3.4c1.4,0.4-1.1,3.2-1.8,5.1
			s-2.5,3-3.3,2.3c-0.9,1.6-4.6,6.9-4.9,7.7c-0.4,0.9-0.8,5.6-9.3,3.3s-8.8-6.1-10.7-10.9L520.9,164.3z"/>
		<path d="M552.4,159l-0.7,1.2l-0.8-0.2l-0.6,2.4l-0.8-1.5l-2.8,0.9c0,0,1.8-7.7,0-10.8c-0.9,3-1.4,3.4-1.4,3.4
			c0.6-1.9-0.1-3.9-1.6-5.1c0,0,0,2.7-1.1,3.5c0,0-0.2-3.2-1.9-4.2c-0.3,1.7-1.2,3.2-2.5,4.2c0.8-2.7-0.4-3.2-0.4-3.2
			c-0.5,1.8-3,2.7-3,2.7l0.6-2.9c-1.1,0.5-2.2,1.1-3.2,1.7c-0.3,0.3-0.2-1.6-0.2-1.6l-5.1,0.9l0.5-1.6l-2.5,1.2l-2,5l-0.6-1.4
			l0.1,4.3l-1.7-2.4h-2.2c-0.4,1.6-0.1,3.3,0.7,4.8c0.6,1.3,1.5,2.6,2.5,3.6l-0.4,0.8l1.2,1.9c1.9,4.8,2.2,8.6,10.7,10.9
			c8.5,2.3,9-2.5,9.3-3.3c0.4-0.9,4-6.1,4.9-7.7c0.9,0.7,2.6-0.4,3.3-2.3S553.8,159.4,552.4,159z"/>
		<path d="M534.3,157.8c-0.5,1.9-2.4,3-4.2,2.5c-1.9-0.5-3-2.4-2.5-4.2c0.5-1.8,2.2-2.9,4-2.5C533.5,154,534.7,155.9,534.3,157.8
			C534.3,157.8,534.3,157.8,534.3,157.8z"/>
		<path d="M545.5,158.7c-0.5,1.9-2.4,3-4.2,2.5c-1.9-0.5-3-2.4-2.5-4.2c0.5-1.8,2.2-2.9,4-2.5C544.7,154.9,545.9,156.8,545.5,158.7
			C545.5,158.7,545.5,158.7,545.5,158.7z"/>
		<path d="M492.2,208.2c-2.6,1.1-3.9,4.1-2.8,6.7c0.2,0.4,0.4,0.9,0.7,1.2c-3.2,1.8-3.2,6.5,0.6,9c-1.4-0.2-4.2,1.5-1.1,3.5
			c0.5,2.5,2.8,4.1,5.3,3.6c1.2-0.2,2.3-1,3-2c0,3,1.1,5.9,3,8.1c3.4,4.2,9.4,4.8,13.3,4.1c3.9-0.7,5.5-5.5,6.8-9.1
			c1.3,0,4.2,0.4,5.3-0.8c1.1-1.2-1-3.6-1-3.6s0.8,0,0.7-3.2c3.7-1.9,3.2-4.9,2.1-8.1c4.6,0.6,6.4-5.1,2.9-8c0-4.5-3.4-10-9.1-9.7
			c-1.3-2.1-4.5-4-10.5-1.6c-3.8-1.7-8.3-0.7-11,2.4C494.3,200.6,490.7,204.7,492.2,208.2z"/>
		<path d="M531.1,209.6c0-4.5-3.4-10-9.1-9.7c-1.3-2.1-4.5-4-10.5-1.6c-3.8-1.7-8.3-0.7-11,2.3c-6.3,0-9.9,4.1-8.3,7.6
			c-2.6,1.1-3.9,4.1-2.8,6.7c0.2,0.4,0.4,0.9,0.7,1.2c-3.2,1.8-3.2,6.5,0.6,9c-1.4-0.2-4.2,1.5-1.1,3.5c0.5,2.5,2.8,4.1,5.3,3.6
			c1.2-0.2,2.3-1,3-2c-0.2-1.6-0.7-4.9-0.7-4.9c-0.6,0.3-1.3,0.3-1.9,0c-1.2-0.6,0-2.5-0.6-4.6c-0.6-2.1,0.2-2.8,1.4-2.7
			s2.5,0.5,2.2-1.7c4.3,0.7,7.2-0.7,6.5-4.1c2.5,1.7,4.8,1.3,7.1-2.6c1.2,3.2,5.6,1.9,8.9,2.4c3.3,0.5,2.7,2.9,3.7,4.6
			c1,1.6,3.8,0.9,3.8,0.9C532.9,218.1,534.6,212.5,531.1,209.6z"/>
		<path d="M497.6,212.3c-0.2,0-0.4,0.1-0.5,0.3c-0.3,1.8-0.8,9.1,4.2,12.3c1.7,1.1,3.6,1.7,5.6,1.7c2.9,0,5.5-1.9,6.4-4.8
			c0.6,0,1.1,0.1,1.6,0.4c0,0,0.8,4,3.9,4.5c1.3,0.3,2.7,0.5,4,0.5c2.1,0,4-1,5.2-2.6c3.1-3.6,3.3-7.6,2.8-7.6
			c-1.3,0.5-2.7,0.7-4.1,0.8c-0.6,0-1.3-0.1-1.9-0.3c-1.4-0.7-2.9-1.1-4.4-1.3c-0.8,0-1.6,0.2-2.4,0.6c-1.5,0.6-2.6,1.9-3.1,3.5
			l-1.2-0.2c-0.4-1.6-1.2-3-2.4-4.1c-1.8-1.4-7.8-0.4-9.8-1.4C499.8,213.9,498.5,212.3,497.6,212.3L497.6,212.3z"/>
		<path d="M500.4,216.1c0.6,0.5,1.3,0.9,2,1.3c1.4,0.5,2.9,0.7,4.4,0.6c1.3-0.1,2.6,0.1,3.8,0.5c0.8,0.7,1.3,1.6,1.6,2.6l0,0
			l-0.3,0.9c-0.5,1.9-2.2,3.2-4.2,3.2c-1.5-0.1-2.9-0.5-4.1-1.4C501,222.1,500.4,218.5,500.4,216.1"/>
		<path d="M520.2,218.8c0.8,0.1,1.7,0.3,2.4,0.7l0.9,0.4c0.7,0.2,1.4,0.4,2.1,0.4c0.7,0,1.4-0.1,2.1-0.3c-0.4,1.4-1.1,2.8-2.1,3.9
			c-0.8,1.1-2.1,1.8-3.5,1.8c-0.8,0-1.6-0.1-2.3-0.3l-0.9-0.2c-1.7-0.3-2.2-2.8-2.2-2.8v-0.4l0.2-0.8c0.3-0.9,1-1.7,1.9-2
			C519.3,218.9,519.8,218.8,520.2,218.8"/>
		<path d="M434.7,193.7c-3-1.7-7,0.6-7.4,5.1c-3.3,2.6,0.9,4.8,2,6.1c1.1,1.3,0.8,5.1,0.6,8.1c-0.2,3.1,1.2,15.6,14.7,17.3
			c13.5,1.7,18.4-13.3,17.1-16.7c1.4-0.8,2.2-2.3,2.2-3.9c2.5-1,3.7-3.9,2.7-6.5c-0.1-0.3-0.2-0.5-0.4-0.7c0.5-2.1-1.5-6.2-7.7-6.1
			c-2.9-3.9-5.7-6.2-10.4-7C445.1,188.8,439.1,188.1,434.7,193.7z"/>
		<path d="M427.3,198.8L427.3,198.8c2.7-0.7,3.4-0.2,3.4-0.2l4.1-4.6v-0.4l-0.1,0.1C431.7,192,427.7,194.2,427.3,198.8z"/>
		<path d="M465.7,203.8c0.4,0.4,0.8,0.7,1.3,1c-0.1-0.8-0.3-1.6-0.7-2.3c0.4-2.1-1.4-6.1-7.5-6.1l0.7,1.8l2.8,5.8
			c0.7-1,2.1-1.2,3.1-0.5C465.5,203.6,465.6,203.7,465.7,203.8z"/>
		<path d="M433.7,195.6H433c-1.6,0.6-2.6,2-2.7,3.7c-0.1,1.9,0.4,3.7,1.5,5.3c0.8,1,6,1.6,8.1,1.6c0.3,0,0.5,0,0.8,0
			c1-0.2,3-3.5,3-3.5c0.7-0.4,1.5-0.6,2.3-0.6c0.4,0,0.7,0,1.1,0.1c2.1,0.4,3.1,1,3.5,3.3c0.4,2.3,2.8,2.3,4.3,2.7
			c1.3,0.4,2.7,0.6,4.1,0.6c1.2,0.1,2.4-0.3,3.2-1.3c1.1-2.6,0.7-5.6-1.1-7.7c-1.5-1.4-9.8-2.1-11-2.1h-0.1c-0.5,0-1.2,1.1-1.7,2.8
			c-0.5-0.3-1.1-0.4-1.7-0.4c-0.6,0-1.2,0.1-1.8,0.2c0-1.1-0.4-2.2-1.2-3C442.4,196.3,435.9,195.7,433.7,195.6L433.7,195.6z"/>
		<path d="M433.7,197.2c3,0,6,0.5,8.9,1.3c0.4,0.5,0.7,1.1,0.7,1.7l0,0c0,0-2.6,3.9-3,4.3H440c-2.3,0-4.7-0.3-6.9-1
			c-0.7-1.2-1.1-2.7-1.1-4.1c0.1-0.9,0.6-1.7,1.3-2.2L433.7,197.2"/>
		<path d="M451.5,199.4c2.2,0.1,7.7,0.8,8.7,1.6c1.2,1.7,1.5,3.8,0.8,5.7c-0.2,0.3-0.9,0.5-1.9,0.5c-1.3,0-2.5-0.2-3.7-0.6
			c-0.3,0-3-0.7-3.2-1.4c-0.2-1-1.2-2.5-1.6-3.7C450.4,200.6,450.8,199.8,451.5,199.4z"/>
		<path d="M373.4,183.8c-2.6,0-6.6,0.7-6.9,3.8c-4,1.3-3.9,4.8-2.5,7.1c-3.3,1.9-4.4,6.6-0.2,8.6c-1.3,3.4-0.1,4.6-3.9,5.4
			c1.5,3.2,3.9,1.4,3.9,1.4l1.4,2.3l1.9-2.2c0,0,0.7,6.4,10.7,12.2c1-0.4,2.1-0.5,3.2-0.3c1.2,0.4,2.2,1.2,3,2.3c0,0,7.1-4,9.1-10
			c0,0,3.5,0.5,4.8-1.4c0.7-1.4,0.9-3.1,0.6-4.6c0,0,3.6,0.4,3.5-2.7c0-1.8-0.6-3.5-1.6-4.9c1.7-1.6,2-4.3,0.7-6.2
			c2.3-3.4,1.5-7.3-2.8-7.1c-1.3-3.2-3.4-1.3-3.9,0.1c-1.1-4-5.4-6.9-8.3-4.8c-1.8-2.9-4.4-2.4-5.4-0.7
			C378.9,180.2,373.6,180,373.4,183.8z"/>
		<path d="M391.8,198c0.4-1.6-0.9-2.1-2-3.2c-1.8,0.5-3.4,0-3.3-2.2c-1.2,0.7-2.1,0.4-3.9-0.5c0.4,1.2,0.1,2.6-0.7,3.6
			c-1.3,1.5-2.9,0.5-3.6-0.8c1.2,0.1-0.1-1.3-0.5-2c-1.4,0.1-3.4,1.2-2.4,3.3c-0.5,0.7-3.2-0.7-2.4-4c-1.6,1.4-2.5,0.7-2.5,0.7
			c0.3,1.3-0.3,2.6-1.3,3.5c-1.1,0.9-2.5,1.2-3.9,0.7c-0.1,1.6,0.1,3.3,0.7,4.8c0,0-2.3-0.9-2.3,1.6c0.1,1.7,0.9,3.2,2.1,4.3l1.3,2
			l-0.2,0.8c0.8,3,2.5,5.6,4.8,7.6c-0.3-1.4-0.6-2.9-0.7-4.3c-0.1-2.5,0.7-6.5,5.7-5.7c-3.3,0.8-3.7,4.5-0.5,5.4
			c1.7,0.6,3.5,0.3,4.9-0.8c0,0,3,2.7,4.6,2.1c1.6-0.5,2.8-2.9,0.4-5.4c0,0,5,0.3,5.3,3.9c1.8-1.9,3.2-4,4.2-6.4
			c1.7-3.7,0.3-9.1-2.6-12.2C392.1,194.2,393.9,196.1,391.8,198z"/>
		<path d="M381.6,200.3c0,2-1.5,3.6-3.5,3.6s-3.6-1.5-3.6-3.5c0-2,1.5-3.6,3.5-3.6C379.9,196.7,381.6,198.3,381.6,200.3
			C381.6,200.2,381.6,200.3,381.6,200.3z"/>
		<path d="M391.2,200.7c0.1,2-1.4,3.8-3.4,3.9s-3.8-1.4-3.9-3.4c-0.1-2,1.4-3.8,3.4-3.9c0.1,0,0.2,0,0.2,0
			C389.5,197.2,391.1,198.8,391.2,200.7z"/>
		<path d="M306.2,179.2c-4.6,3-3.2,6.8-3.2,6.8l2,1.1l-1.6,2.1c-1.6,2.1,0.9,4-0.2,6.2c-1.1,2.2-0.1,5.6,2.4,5.1
			c1.6,6.7,7.1,11.8,13.9,12.9c4,0.4,2.9-2.1,7.6-4.1c4.7-1.9,5.7-6.1,7.7-7.4c2-1.3,3.7-8,1.6-12.9c2.9-0.6,4-4.8,0-8.2
			c-1.1-4.8-8.5-9.3-14-9.6C309.8,170.6,306.2,179.2,306.2,179.2z"/>
		<path d="M336.6,180.8c-1.1-4.8-8.5-9.3-14-9.6c-12.7-0.6-16.4,8.1-16.4,8.1c-4.6,3-3.2,6.8-3.2,6.8l2,1.1l2.2-2.8
			c2.6-0.7,5.1-1.7,7.6-2.9c5.2-0.8,12.1-0.7,14.6,1.6c2.3,2.2,4.7,4.2,7.2,6.1C339.4,188.5,340.5,184.3,336.6,180.8z"/>
		<path d="M329.4,183c-2.5-2.3-9.4-2.4-14.6-1.6c-2.4,1.2-4.9,2.2-7.6,2.9l-2.2,2.8c0,0.8,0.1,1.6,0.4,2.4c0.2,0.6,0.8,0.9,1.4,0.7
			c0.4-0.1,0.7-0.5,0.7-0.9c1.2-0.5,1.6-0.5,1.8-2.1c1.1-0.4,1.9-1.2,2.4-2.3c0.9,1,2.4,1.4,3.7,0.8c1.2,2.3,2.4,0.8,3.3,0.1
			c0.6,0.6,1.5,0.5,2.1,0c0.1-0.1,0.2-0.3,0.3-0.5c0.4,1,1.6,1.5,2.6,1.1c0.1,0,0.1,0,0.2-0.1c-0.3,1.7,0.8,2.4,2,2.1
			c0.6,0.8,1.7,1.2,2.7,0.9c1.4,1.6,2-0.4,3-0.5c1.7,2.1,2.8,2.4,3.9,1.6c1.1,1.1,0.9-1.3,0.9-1.3C334,187.2,331.6,185.1,329.4,183z
			"/>
		<ellipse cx="314.8" cy="189.7" rx="4" ry="4"/>
		<path d="M329.8,192.4c-0.2,1.9-1.9,3.3-3.8,3.1s-3.3-1.9-3.1-3.8c0.2-1.8,1.7-3.1,3.5-3.1C328.3,188.7,329.9,190.4,329.8,192.4z"
			/>
		<path d="M250.3,162.9c-5.1,3.6-7.5,9.9-6.2,16.1c-4.6,5.6-2.9,6-2.9,6l2.5,2.2v1.6l2-0.3c0,0,0.7,15.9,13.4,14.3
			s14.9-9.1,15.3-12.3c3.1-0.1,3.9-1,3.9-3.2c-2,0.9-2.6,1.4-2.8-0.8c-0.2-2.2,2.9-1.2,3.4-3.6c0.3-1.4,0.1-2.9-0.7-4.2l-1.1,1.5
			c0,0,4.2-6,1.8-10.8c-2.4-4.4-7.6-6.5-12.4-5.1C265.4,159.4,255.9,159,250.3,162.9z"/>
		<path d="M241.1,185l2.5,2.2v1.3l0.3,0.3l1.7-0.2l0,0l0.3-0.8c-0.6,0.4-1.4,0.2-1.8-0.4c-0.1-0.2-0.2-0.4-0.2-0.7
			c-0.2-1.1-0.3-2.3-0.1-3.5c-0.2-1.4-0.2-2.8,0.1-4.2C239.5,184.6,241.1,185,241.1,185z"/>
		<path d="M278.3,187.4c-2,0.9-2.6,1.4-2.8-0.8c-0.2-2.2,2.9-1.2,3.4-3.6c0.3-1.4,0.1-2.9-0.7-4.2l-1.1,1.5c0,0,4.2-6,1.8-10.8
			c-2.4-4.4-7.6-6.5-12.4-5.1c-1.1-4.9-10.5-5.3-16.2-1.5c-5.1,3.6-7.5,9.8-6.2,15.9c0.1-0.4,0.2-0.7,0.4-1c1.2-2.2,3.1,0.4,2.8,3
			l0.3,2.3l1-1c0,0-1.2-2.7-0.8-3.3c0.4-0.6,1.5,0.8,1.5,0.8h1c0,0-1.3-1.9-0.9-2.7c0.4-0.8,2.8-3.2,3.6-2s-1.2,2.1-1.2,2.1l3.2-1.2
			l2.5,0.5c0-0.9-0.5-1.7-1.4-2c0.7-0.6,1.4-1.3,1.9-2.1h1c0,0,1.1,2.2,0.2,3.1c-0.9,0.9-1.6,1.7-1.6,1.7c1,0,1.9-0.2,2.7-0.7
			c0.7-1,1.1-2.1,1.2-3.3h1.5c0,0,0,1.2,0.7,1.6c0.7,0.4,0.3,1.8,0.3,1.8s2.8-0.2,2.6-1.6s0.1-1.6,0.1-1.6s2.8,0,3.6,1.2
			c0.8,1.2-0.5,3.2-0.5,3.2l1.9-0.3c0,0-1.5,6.6-0.1,7.8c0.8-2.5,1.6-4.5,3.1-3.9c1.5,0.6,0.6,2.5-0.1,3.3c-0.7,0.8,0.3,4,0.1,6
			C277.5,190.4,278.3,189.5,278.3,187.4z"/>
		<path d="M278.9,169.4c-2.4-4.4-7.6-6.5-12.4-5.1c-1.1-4.9-10.5-5.3-16.2-1.5c-4.8,3.4-7.3,9.2-6.4,15l1.5-2.3c0,0,6.1-3.2,6.4-3.3
			c1.6-0.6,3.3-1.1,5.1-1.4c2.1-0.3,7.1,1.3,10.2,1.8c3.2,0.2,5.9,2.3,7,5.3c1.5-0.1,3.1,2.3,3.1,2.3S281.4,174.2,278.9,169.4z"/>
		<path d="M258,181c-0.1,1.8-1.7,3.1-3.4,2.9c-1.8-0.1-3.1-1.7-2.9-3.4c0.1-1.6,1.5-2.9,3.2-2.9C256.7,177.6,258.1,179.2,258,181z"
			/>
		<path d="M269.2,182.5c-0.1,1.8-1.7,3.1-3.4,2.9c-1.8-0.1-3.1-1.7-2.9-3.4c0.1-1.7,1.5-2.9,3.2-2.9
			C267.8,179.1,269.2,180.6,269.2,182.5z"/>
		<path d="M204.7,151.3c6.2,0,13.5,12.6,12.7,18.2c3.6,2,2.1,4.4,1.4,5.6c-0.7,1.2,0,4.1-1.6,3.6c0.4,1.9-3.1,5.2-4.5,6.7
			c-1.3,1.5-2.6,3-3.7,4.6c0.1,2.4-1.8,4.4-4.2,4.5c-0.2,0-0.4,0-0.5,0c-4.8-0.3-6.5-1.9-7.8-6c-3.9-0.9-8.2-5.1-8.1-13.5
			c-3.9-3.3-3.2-9.2-1.4-9.6c1.2-0.2,2.4,0.2,3.2,1.1C190.1,160,195,151.3,204.7,151.3z"/>
		<path d="M205.9,182.2c0.3,1.8-0.8,4.3-1.4,4.2s-0.3-0.4-1.6-1.1c-1.3-0.7-2.5,0.7-3,0.6c-0.7-0.6-1.1-1.4-1.3-2.3
			c0.2-0.8,0.4-1.6,0.6-2.4c-1,0.4-1.9,1-2.7,1.9c-0.8,1.1-0.5,4.5-0.4,5.4l0,0c1.3,4.1,3,5.7,7.8,6c2.4,0.2,4.5-1.5,4.8-3.9
			c0-0.2,0-0.4,0-0.5C209,187.5,208.2,183,205.9,182.2z"/>
		<ellipse cx="199.5" cy="169.8" rx="3.6" ry="3.7"/>
		<ellipse cx="209" cy="171" rx="3.6" ry="3.9"/>
		<path d="M160,215.6c-4.2-0.1-13,4.4-14.4,10.1c-3.9-3.3-6.4-0.4-6.4,3.2c-1.2,3.5-1.4,5.1,0.1,7c0,0-1.1,5.3,1.8,6.8
			c2.9,1.6,3-0.3,3-0.3s-1.1,12.1,6.9,13.1c8.1,1,12.7,3.4,15.9,0.1s3.9-9.5,3.9-9.5s1.6,3.2,3.4,2.3c1.8-0.9,1-5.2,2-5.9
			s2.9-4.8,1.2-7c0.5-3.2-1.7-6.1-4.9-6.6c-0.1,0-0.3,0-0.4,0C172.2,228.8,168.8,215.9,160,215.6z"/>
		<path d="M171.7,236c2.8-1.1,4.8-1.6,5.8-0.6c0.5-3.2-1.7-6.1-4.9-6.6c-0.1,0-0.3,0-0.4,0C172.3,231.2,172.1,233.6,171.7,236z"/>
		<path d="M139.3,229c-0.5,1.3-0.8,2.6-1,4c0.4-1.1,1.1-2,2.2-1.7c1,0.3,1.8,0.9,2.4,1.8c0,0,1.2-3.8,3-4.2l-0.1-0.9
			c0,0-1.1,0-0.3-2.1C141.7,222.4,139.3,225.4,139.3,229z"/>
		<ellipse cx="165.7" cy="234.6" rx="3.6" ry="3.8"/>
		<path d="M157.8,233.3c0,1.9-1.6,3.4-3.5,3.4c-1.9,0-3.4-1.6-3.4-3.5c0-1.9,1.6-3.4,3.5-3.4C156.2,229.8,157.8,231.4,157.8,233.3z"
			/>
		<path d="M204.1,230.4c-2.2,3.1-3.5,6.7-3.8,10.5c-0.7,9.5,1.1,12,4.3,13c0,0,2.2,13.6,11.9,13.8c9.6,0.2,14.8-9.5,14.8-9.5
			c1,0.3,2.1-0.1,2.8-0.9c1.8,1.2,3-1.5,3-3.3c0-1.9-0.1-3.2-0.1-3.2l0.7,0.7c0,0,2.6-9.8-0.7-14.9c-1-1.6-2.3-3-3.8-4.2
			c0.3-4-4.2-8-9.8-7.6s-9.1,1.2-12.1-1.2c-1,0.9-0.7,1.4-0.7,1.4s-5.1-0.2-6.5-3.5c-1.3,1.9,1.4,4.8,1.4,4.8l-2.9-1.8
			C201.7,226.5,202.4,228.9,204.1,230.4z"/>
		<path d="M233.5,248.1c-4-0.4-2.2,4.8-2.2,4.8l-2.7,1.6c0,0,2.8-7.8,0.4-10.5c-1.6-2.1-2.7-4.6-3.1-7.3c-5,2.8-14.1,2-17.9-1.5
			c-3.1,4.2-4.5,9.5-3.7,14.7c-0.8,0.5-1.9-0.9-1.9-0.9s0.9-6.5-0.5-6.6c-1-0.1-1.6,3.6-1.4,6.7c0.2,2.3,1.8,4.2,4.1,4.8
			c0,0,2.2,13.6,11.9,13.8c9.6,0.2,14.8-9.5,14.8-9.5c1,0.3,2.1-0.1,2.8-0.9C235.8,255.1,237.5,248.5,233.5,248.1z"/>
		<path d="M214.9,247c-0.3,2-2.2,3.4-4.2,3.1c-2-0.3-3.4-2.2-3.1-4.2c0.3-1.8,1.8-3.1,3.7-3.1C213.5,243,215.1,244.9,214.9,247z"/>
		<path d="M227.3,248.8c-0.3,1.9-2,3.2-3.9,2.9c-1.9-0.3-3.2-2-2.9-3.9c0.2-1.7,1.7-2.9,3.4-2.9C225.9,245,227.4,246.8,227.3,248.8z
			"/>
		<path d="M268.2,262.9c1.5,5.3,5,12.1,9.5,14.3c4.5,2.2,8,1.5,9.3-0.3c1.4-2,2.7-4.2,3.9-6.4l0.4,1.6c0.8-1.4,1.1-3,0.7-4.5
			c1-1.1,1.9-2.3,2.7-3.5l2.3,1.8c-0.5-1.4-0.2-2.9,0.7-4.1c1.1-1.4,1.8-3.1,2-4.9l1.6,1.1l0.1-7c0,0,1.8,0.6,1.6,3.7
			c0.3-2.5-0.2-5-1.5-7.2v-1.6l2.3,3c0,0-1.8-10.2-7.7-11.6s-5.9,2.1-5.9,2.1s-1.4-5.7-5.7-5.4s-9.7,4.4-9.7,4.4s-9,0-10.7,6.4
			s0.4,12.5,1.8,15.9s-0.9,3.8-0.9,3.8L268.2,262.9z"/>
		<path d="M297.2,259.5c1.2-1.5-0.5-3.2-1.3-3.5c1.2-3.8-2.4-14.2-9.1-15.1c-6.8-0.9-10.7,7-11.3,9.8c-1.6-3.5,0.5-7.8,0.5-7.8
			c-4.8,2.5-4.4,8.8-4.4,8.8c-0.7-1.3-1.2-2.7-1.4-4.1c-0.2,1.9-0.6,3.8-1.2,5.6l-1.2-4.2c0,0-2.7,6.2,0.3,10.1
			c-3.4-0.4-2.6-8.6-2.6-8.6c-0.6,0.3-1.2,0.7-1.8,1.1c0.2,2.5,0.7,5,1.6,7.4c0.5,0.6,1.1,1,1.7,1.2c2.1,0.7,1.3,2.3,1.3,2.9
			c1.5,5.3,5,12.1,9.5,14.3c4.5,2.2,8,1.5,9.3-0.3c1.4-2,2.7-4.2,3.9-6.4l0.4,1.6c0.8-1.4,1.1-3,0.7-4.5c1-1.1,1.9-2.3,2.7-3.5
			C295.3,262.5,296.1,260.9,297.2,259.5z"/>
		<path d="M284.8,262.6c-1.6,0.8-1.8,0.7-3-0.2c-2-1.1-4.4-1.1-6.4,0c-1.9,1.2-2.2,5.7-2,7.3c1.2-1,3.7-5.1,5.9-4.3
			c2.2,0.7,3.5,0,3.6-0.8c0.2,1.4,2.3,2,3.8,2.2c1.9,0.5,3.5,2,4,3.9l0.4,1.6c0.8-1.4,1.1-3,0.7-4.5
			C292.1,266.1,289,261.4,284.8,262.6z"/>
		<path d="M281.9,253.1c0,2.4-2,4.3-4.3,4.2s-4.3-2-4.2-4.3c0-2.3,1.9-4.2,4.3-4.2C280,248.8,281.9,250.7,281.9,253.1
			C281.9,253.1,281.9,253.1,281.9,253.1z"/>
		<path d="M293.5,255.4c-0.2,2.2-2.2,3.7-4.4,3.5c-2.2-0.2-3.7-2.2-3.5-4.4c0.2-2,1.9-3.5,3.9-3.5
			C291.9,251.2,293.6,253.1,293.5,255.4z"/>
		<path d="M366.3,279.2c1-0.8,1.3-2.3,0.7-3.5c0,0,2.2-1,0.2-4.1c1.6-2.3,2.4-3.2,0.4-5.1c1-2.8,1.1-3.2-1-4.8
			c0.5-2.5,0.8-3.2-1.7-4.1c-0.1-2.6-0.2-3-2.6-3.5c-0.1-2.8-1.2-3.3-2.8-3.2c-0.9-2.3-2.3-2-3.6-1.9c-0.7-2.4-2.1-2.8-3.7-2
			c-0.5-2.2-3.2-1.9-4.5-0.7c-1.2-1.2-2.6-2.3-4.3-0.6c-0.9-1-2.4-1.1-3.3-0.2c-0.4,0.3-0.6,0.7-0.7,1.2c-2.2-1.2-2.9,0-3.2,1.3
			c-2.1-0.7-3,0.9-2.9,2.4c-2.2-0.2-2.8,1-2.8,2.9c-1.9,0-2.1,2.7-2,4.9c-2.5,0.7-1.6,3.2-1.4,4.9c-2.6,0.5-1.1,2.9-0.4,4.6
			c-2.5,1.2-1.9,2.3-0.7,4.1c-2.1,0.9-0.8,3.6-0.1,4.2c-2.4,1-1.3,3.6-0.4,4.8c-1.2,1.4-0.9,2.6,1.4,3c0.2,2.1,4.2,3.2,4.9,1.3
			c2.8,1.1,4.1-0.1,4.3-2.1c2.6-0.5,3.5-0.3,2.5-2.8c2.6-1.1,1.7-0.5,1.7-0.5c1.9,1.7,4.4,2.6,6.9,2.5c4.5,0,5.8-0.9,5.8-0.9
			c-0.8,1.1-0.7,2.7,0.1,3.8c-0.3,2.7,1.2,4.8,4.4,4.1c1.9,1.9,2.8,2,4.5,1c2.7-0.2,4.1-1.8,2.9-3.7c2.6-1.8,3.2-2.8,1.3-4.5
			C367.2,281.1,368.2,280.1,366.3,279.2z"/>
		<path d="M340.2,279.5c1.9,1.7,4.4,2.6,6.9,2.5c4.5,0,5.8-0.9,5.8-0.9s4.8-4.4,5.3-5.7c1.3,0.4,2.6-0.3,3-1.6
			c0.2-0.5,0.1-1.1-0.1-1.6c1.9-1.6,1.7-7.4-0.7-7.7c-1.1-2.9-6-9.8-12.2-10.3c-6.2-0.5-11.8,2.1-13.5,6.2c-2.3-0.7-4.4,2.1-4.1,4.2
			c0.1,1.1,0.5,2.2,1.2,3.2c0,0-2.5,1.7-0.9,3.1c0.7,0.7,1.9,0.7,2.7,0c0,0,0.1-0.1,0.1-0.1C335.1,274.1,337.4,277,340.2,279.5
			C340.6,279.3,340.2,279.5,340.2,279.5z"/>
		<path d="M342.5,258.5c-2.1-0.1-3.9,1.4-4.2,3.5l-3.6-1l-0.6,0.8l4,1.3c-0.1,2.4,1.6,4.4,4,4.6c0.3,0,0.6,0,0.9,0
			c1.6,0,3.1-0.8,3.9-2.2l1.2,0.1c0.7,1.6,1.9,3.7,4.3,3.8h0.3c2,0.1,3.8-1,4.6-2.8c0.9-0.3,1.8-0.6,2.6-1.1l-0.5-0.7h-2.1
			c0,0-0.4-4.6-4.3-5c-0.2,0-0.3,0-0.5,0c-3.5,0-4.2,4.6-4.2,4.6l-1.2-0.4c0,0,0.2-5.4-4-5.7L342.5,258.5z"/>
		<path d="M342.5,260.1h0.4c2.6,0.2,2.6,3.7,2.6,4v0.2l-0.1,1c-0.6,0.6-1.5,1-2.4,1c-0.2,0-0.4,0-0.5,0c-2.2-0.5-2.6-1.8-2.7-2.5
			l0.2-1.6C340.1,260.9,341.3,259.9,342.5,260.1"/>
		<path d="M352.5,261.5h0.3c2.6,0.3,2.9,3.5,2.9,3.6l0.1,1c-0.6,1.2-1.8,2-3.2,1.8h-0.3c-1.1,0-2-0.9-2.7-2.4l0.1-0.8
			C349.8,264.7,350.4,261.5,352.5,261.5"/>
		<path d="M403.4,257.5l-3.7-0.3l0.4,1.5l-3.4,1.7l2.7,1.5c0,0-5.7,0.2-4.9,4c0.8,3.8,5.1,10.5,1.7,12h3l4.2,11.4
			c0,0-2.1,6.5,2.5,10.8l2.1-1.5l1.5,1.9l0.4-2.5l3.4,3.6l0.4-3l3.8,2.8l-1.8-4.6l4.9,2.1l-1.5-2.5l3.6,0.8c0,0-3.6-2.1-2.3-5.3
			c0,0,12-2.9,10.5-15.4c0,0,1.9-2.3,1.5-3.2s-3,1.1-3,1.1l3.6-4.2l-1.9-0.4l1.9-2.8l-2.3,0.8c0,0,3.4-9.3-8.4-14.3
			s-14.6,0.4-14.6,0.4l-1.1-1.9l-1.5,3.8l-2.7,0.2L403.4,257.5z"/>
		<path d="M431.3,269.6l1.9-2.8l-2.3,0.8c0,0,3.4-9.3-8.4-14.3c-11.8-5-14.6,0.4-14.6,0.4l-1.1-1.9l-1.5,3.8l-2.7,0.2l0.7,1.6
			l-3.7-0.3l0.4,1.5l-3.4,1.7l2.7,1.5c0,0-5.7,0.2-4.9,4c0.8,3.8,5.1,10.5,1.7,12h3v0.2l-0.5-8.7c2,0.4,4.1-0.2,5.6-1.6
			c1.2-1.2,1.5-3,0.8-4.5c0,0,5.7,4.9,9.7,8.1c3.4,2.8,13,1.4,16.8,0.4l1.5-1.8L431.3,269.6z"/>
		<path d="M420.5,292l-0.2-5.4l-2.5-0.6c0,0-0.5,2.9-2.4,2.4c-2-0.5-1.8-1.8-1.8-1.8l-2.8-0.7c0,0-0.6,2.5-2.5,1.3
			c-1.9-1.3-1.4-2.6-1.4-2.6l-2.8,0.1c0,1.5-0.3,3-0.7,4.4c0,0-2.1,6.5,2.5,10.8l2.1-1.5l1.5,1.9l0.4-2.5l3.4,3.6l0.4-3l3.8,2.8
			l-1.7-4.6l4.9,2.1l-1.5-2.5l3.6,0.8C422.9,297.1,419.4,295.1,420.5,292z"/>
		<path d="M425.9,275.7c0.2,2.3-1.4,4.3-3.7,4.5c-2.3,0.2-4.3-1.4-4.5-3.7c-0.2-2.3,1.4-4.3,3.7-4.5c0.1,0,0.3,0,0.4,0
			C424,272,425.8,273.6,425.9,275.7z"/>
		<path d="M413,272.6c0.1,2.2-1.5,4.1-3.7,4.2c-2.2,0.1-4.1-1.5-4.2-3.7c-0.1-2.2,1.5-4.1,3.7-4.2c0.1,0,0.2,0,0.3,0
			C411.1,268.8,412.9,270.5,413,272.6z"/>
		<path d="M462.5,287.1c-4.9,0.4-5.9-7.8,2.7-12.9c8.6-5.1,20.2-8.4,24.7-6.7c0,0,12.9-1.7,15.6,2.1c2.8,3.8-1.5,11.8-7.8,10.5
			l-1.1,0.8c0,0,6.1,4,8.4,8.9l-4.2-1.5c0,0,0.2,9.7-3.6,12.4h-0.8l-3.9,4.5l-0.2-2.5c0,0-6.1,4.6-11,4.6s-10.8-4.4-13.7-10.5
			l0.2,2.3l-1.7-0.4l-0.7,2.7C465.5,301.4,460.6,294.1,462.5,287.1z"/>
		<path d="M489.4,277.8c2.6,0.8,5,1.9,7.4,3.2l1-0.8c6.4,1.3,10.5-6.7,7.8-10.5c-2.7-3.8-15.6-2.1-15.6-2.1
			c-4.4-1.7-16,1.7-24.7,6.7c-8.7,5.1-7.6,13.3-2.7,12.9l15.9-10.4C482.1,276.9,485.8,277.2,489.4,277.8z"/>
		<path d="M497.2,298.5c0.2-2.2-1-2.5-1-2.5c1.4-1.4,2.4-3.3,2.7-5.3c0.3-3-1.6-2-1.6-2c0.1-0.9-0.6-1.6-1.5-1.7c-0.1,0-0.2,0-0.3,0
			c-2,0.1-5.1,0-6-1.2c-0.9-1.2-10.7-0.3-14.6-5.4c-0.8,5.6-12,7.3-12,7.3l1.3,4.8c0,0-1.3,1.7,0.1,2.8c0.6,0.6,1.5,0.9,2.4,0.6
			l0.9,0.5l0.4,1.2c3.1,5.7,8.7,9.8,13.3,9.8c4.6,0,11-4.6,11-4.6l1.9-2.8C494.1,300,497,300.7,497.2,298.5z"/>
		<path d="M485.7,285c-0.8,0.9-1.2,2-1.2,3.2c-0.2,2.3,1.5,4.3,3.7,4.5c2.3,0.2,4.3-1.5,4.5-3.7c0-0.2,0-0.5,0-0.7
			c0-0.4-0.1-0.8-0.2-1.2c-1.1,0-2.1-0.4-2.9-1.1C489.2,285.4,487.8,285.2,485.7,285z"/>
		<path d="M482.9,286.5c0-0.7-0.1-1.4-0.4-2.1c-2.2-0.4-4.2-1.2-6-2.5c-1.6,1-2.5,2.7-2.5,4.6c-0.3,2.4,1.4,4.7,3.8,5
			c2.4,0.3,4.7-1.4,5-3.8C482.9,287.3,482.9,286.9,482.9,286.5L482.9,286.5z"/>
		<path d="M444.2,339.8c7-2.7,23.5-5.5,32.7,3.4c-2.7-0.8-5.4-1.3-8.2-1.5c0,0,7.4,3.4,8.4,8.4c0,0-4.5-3.1-6.7-3.3
			c0,0,5.9,4.8,5.9,9.4c-1.2-1.9-3.2-3.2-5.4-3.7l-0.4,7.7c0,0,2.2,1,1.8,1.8c-0.4,0.8-2.2,2-3.3,3.3c-0.4,0.4-0.6,0.8-0.7,1.3
			c-0.3,1.6-0.3,5.6-1.6,5.9c-1,0.1-2-0.1-2.9-0.6c0,0,2,6.6-0.4,7.8l-3.1-1.8c0,0,0.7,6.6-5.9,6.4c-6.6-0.3-11.6-2.3-15.6-9.7
			c-1.1-2.2-2-4.5-2.7-6.9c-2.6,1.7-4.8-0.1-3.4-4.4c0,0-4.3-3.5-0.1-9.7c0,0-1.1-0.7-2.5,0.9c-0.6-2.4,0.4-5,2.6-6.3l-2.2,0.4
			c0-3.2,2.5-5.8,5.6-5.9l-2.8-1c0,0,2.8-2.5,5.4-1c0.6-2.2,2.1-4,4-5.1L444.2,339.8z"/>
		<path d="M465.2,354.3c0.5-0.7,1.1-1.3,1.9-1.7c-1.3-2.4-4.2-4-12.2-0.8c-2.8-2.9-9.1-3.7-15-2.9c1.7,0,2,2,3.2,3.6
			c-0.9,1.1-2,2.1-3.2,2.9c-2,1.3-0.4,6.2-0.4,6.2l-1.8,2.4c0,0-0.8,0.1-1.2-3.1s-1.3-5-3.6-4.6s0,7.3,0,7.3
			c-1.3,4.3,0.9,6.1,3.4,4.4c0.7,2.4,1.6,4.7,2.7,6.9c4,7.4,9,9.4,15.6,9.7c6.6,0.3,5.9-6.4,5.9-6.4l0.2,0.1l-0.2-0.7l-1.2,0.9
			l-0.1-1.1l-1.2,0.9l-0.1-1.1l-1.1,0.8l-0.4-1.6l-1.2,1.5c-0.3-0.4-0.5-0.9-0.5-1.3c-0.1-0.8-1.4,0.5-1.4,0.5l-0.1-1.5l-2,1.7
			l0.2-1.2l-1.5,0.1l-1.3-0.7l-1.1,0.1v-0.9l-2.2,0.9l-1.9-1.3c0,0,0.7,1.5-1.7,2.3c-2-4.6,2-7.6,5.3-7.4c0.4,0.8,1.3,1.2,2.1,0.8
			c0.1-0.1,0.3-0.2,0.4-0.3c0,0,1.2,0.8,3.2,2c2,1.2,4.6-0.7,4.6-0.7s0.1,0.5,2.4,0.1c1.4-1.7,4.2,0.8,4.2,0.8s3-7.1,4.4-10.4
			C469.5,358.5,465.2,354.3,465.2,354.3z"/>
		<path d="M450.6,359.4c0,2.5-2,4.4-4.4,4.4c-2.5,0-4.4-2-4.4-4.4c0-2.5,2-4.4,4.4-4.4C448.6,355,450.6,356.9,450.6,359.4
			L450.6,359.4z"/>
		<path d="M463.9,361.7c0.2,2.6-1.8,4.9-4.4,5.1c-2.6,0.2-4.9-1.8-5.1-4.4c-0.2-2.6,1.8-4.9,4.4-5.1c0.1,0,0.2,0,0.3,0
			C461.7,357.1,463.8,359.1,463.9,361.7C463.9,361.6,463.9,361.6,463.9,361.7z"/>
		<path d="M358.7,349.1c-0.1,5.4,4.4,5.8,4.4,5.8s-0.7,10.4,3.9,15c4.7,4.5,9.5,4.5,16.9,3.7c7.4-0.9,9.2-12.6,9.2-12.6
			c6.5,1.6,6.4-9.8,5.3-10.8c-0.7-0.6-1.7-0.6-2.5-0.1l0.1-2.8c0-4.8,5-9.2,5-9.2s0.4-7.2-15.3-11.9c-15.7-4.6-23.4,4.2-23.4,4.2
			l0.5,1.6c2,2.9,1.1,12.1,1.1,12.1C360.8,341.5,358.9,343.7,358.7,349.1z"/>
		<path d="M385.8,326c-15.7-4.7-23.4,4.2-23.4,4.2l0.5,1.6c1.6,2.4,1.3,8.8,1.2,11.1c1-2.1,5.9-11.6,10.7-11.1c5.3,0.5,6.9,4,6.9,4
			s4.6-2.9,7.6-0.9c2.9,2,7,6.2,6.8,14.6l0,0l0.1-2.4c0-4.8,5-9.2,5-9.2S401.5,330.7,385.8,326z"/>
		<path d="M379.8,352.7c-1.8,3-5.7,4.1-8.8,2.4c-5.8-2.8-3-10.1-3-10.1s1.8,9.9,10.7,6.5c0,0,0.9,1.5,3.7,0.5
			c2.9,2.7,7.4,2.6,10.2-0.2c0.4-0.4,0.8-1,1.1-1.5c0.3,6.4-2.9,8.1-7,7.4c-2.4-0.4-4.4-2.2-5.2-4.5
			C381.5,353.2,379.9,353.2,379.8,352.7z"/>
		<path d="M381.2,342.5c0.2,2.3-1.5,4.4-3.8,4.7c-2.3,0.2-4.4-1.5-4.7-3.8c-0.2-2.3,1.5-4.4,3.8-4.7c0.1,0,0.3,0,0.4,0
			C379.1,338.5,381,340.3,381.2,342.5z"/>
		<ellipse cx="387.1" cy="344.3" rx="4" ry="4.2"/>
		<path d="M296.8,349.8c2.3,4,6,6.9,10.4,8.2c6.9,1.8,13.2-3.5,13.2-3.5l6.6,5.1c5.9-5.4,3.9-23.4,3.9-23.4c1.8-1.8,0.5-7.1,0.5-7.1
			c-3.5,6.7-4.1-8-14.6-11.7c-10.5-3.7-19.1,5.8-19.1,5.8c-17.9,3-10.5,30.5-10.5,30.5L296.8,349.8z"/>
		<path d="M308.2,329.5c-3.2-5.3-5.6-4.6-5.6-4.6c-1.2,7.9-9.8,4.9-10.1,11.7c-2.9-1.9-4,5.2-0.9,6.9c1.7,0.9,2,0.3,2,0.3
			s1.4,3.1,3.2,6c2.3,4,6,6.9,10.4,8.2c6.9,1.8,13.2-3.5,13.2-3.5c2.7-3,6.5-10.1,6-16.5C322.4,339,311.4,334.8,308.2,329.5z"/>
		<path d="M308.1,337.9c0.1,2.5-1.9,4.6-4.4,4.7c-2.5,0.1-4.6-1.9-4.7-4.4c-0.1-2.5,1.9-4.6,4.4-4.7c0.1,0,0.1,0,0.2,0
			C306,333.4,308,335.4,308.1,337.9C308.1,337.9,308.1,337.9,308.1,337.9z"/>
		<path d="M322.1,341.3c0,2.3-1.8,4.3-4.2,4.3c-2.3,0-4.3-1.8-4.3-4.2c0-2.3,1.8-4.3,4.2-4.3c0,0,0,0,0,0
			C320.2,337.1,322.1,339,322.1,341.3C322.1,341.3,322.1,341.3,322.1,341.3z"/>
		<path d="M224.9,313c0,0-2.5-1.8-2.8,0.3s-1.2,7.4,0,8.1l1.1,0.7c0,0-0.8,19.2-3.2,20.4l1.3,0.7l-2,2.6c1.8,0.7,3.8,0.7,5.6,0
			l-0.3,2.3c1.7-0.1,3.4-0.5,4.9-1.3l-1.6,2.5c0,0,3.9,0,4.6-1.6l0.2,4.5l4.3-2.5l0.7,4.9l3.2-3l3.8,2.5l-0.5-4.1c0,0,3.9,2.8,6.3,3
			l-2.3-3.5c0,0,5.8,3.8,8.2,3.6l-2-3.5c1.2,1.2,2.8,1.8,4.4,1.8l-1.6-2.5c1,0.5,2.1,0.7,3.2,0.7c0,0-3.9-1.5-2.3-18.8l0.5-3.5
			c0,0,1.3,0.2,1.1-1.6c-0.1-1.5,0.4-3,1.5-4.1c0.5-0.6,0.3-1.6-0.3-2c-0.3-0.2-0.6-0.3-1-0.3c0,0-2-16.6-16.8-17.8
			C228.3,300.4,226.4,309.8,224.9,313z"/>
		<path d="M257,328c-0.6,2.1-1.4,4.8-2.5,4c-0.8,2.9-2.6,3.4-3,2.1c-0.8,2.9-3.2,2.8-3.7,1.7c-1,1.6-2.2,1.1-2.8,0.3
			c-1.6,2.1-4.8,1.7-5.2,0.1l-2.8-0.6c0,0-0.4,1.4-2.3,1.1c-3.5-0.6-2.2-3.3-3.3-3.2c-1.1,0.1-1.4-0.4-1-1.6
			c-0.6,0.4-1.5,0.6-1.4-1.3c-1.1,0.9-1.7,0.8-2.3-1c-1.2,0.9-1.9,0.2-1.6-1.2c-1.6-0.2-0.4-5.5,0.1-7.3c0.4-1.8,1.1-7,1.1-7
			l-0.9-2.5c-0.2,0.5-0.4,1-0.6,1.4c0.9,3.1,0.3,6.4-1.6,9.1c0,0-0.8,19.2-3.2,20.4l1.3,0.7l-2,2.6c1.8,0.7,3.8,0.7,5.6,0l-0.3,2.3
			c1.7-0.1,3.4-0.5,4.9-1.3l-1.6,2.5c0,0,3.9,0,4.6-1.6l0.2,4.5l4.3-2.5l0.7,4.9l3.2-3l3.8,2.5l-0.5-4.1c0,0,3.9,2.8,6.3,3l-2.3-3.5
			c0,0,5.8,3.8,8.2,3.6l-2-3.5c1.2,1.2,2.8,1.8,4.4,1.8l-1.6-2.5c1,0.5,2.1,0.7,3.2,0.7c0,0-3.9-1.5-2.3-18.8l0.5-3.3
			c-1.2-2.9-0.4-6.1,1.8-8.2c-0.2,0-0.3,0-0.5,0C255.7,321.7,257.6,325.9,257,328z"/>
		<path d="M240.1,320.3c-0.1,2.5-2.2,4.6-4.7,4.5c-2.5-0.1-4.6-2.2-4.5-4.7c0.1-2.5,2.1-4.5,4.6-4.5
			C238.1,315.7,240.2,317.8,240.1,320.3C240.1,320.3,240.1,320.3,240.1,320.3z"/>
		<path d="M251.3,321.7c-0.2,2.3-2.2,4-4.5,3.8c-2.3-0.2-4-2.2-3.8-4.5c0.2-2.2,2-3.9,4.2-3.9C249.5,317.3,251.4,319.3,251.3,321.7z
			"/>
		<path d="M165.5,289.7c0,0-6.2-0.2-5.1,3.2c1.1,3.3-2.1,7-3.2,4.6c0,0-1.3,1.1,0.3,2.7c0,0-2.2,1-2.1,2.7c0.5,1.7,1.4,3.2,2.5,4.4
			c0,0-3.5,2.4-4.3,0.3c0,0,0.9,2.8,3,3.5c2.1,0.6,1.3,5.9-0.6,4.9c-1.9-1-1.3,1.4,1.4,1.8c-0.4,1.2-1,2.3-1.9,3.2
			c-1.3,1.1,0.2,3,1.6,2.8c1.4-0.2,1,3,1.6,3.3c0.6,0.3,0.3-4,1.7-3c1.4,1,3.3,3.2,1.1,4c-1,0.5-2.2,0.6-3.3,0.4l4,1.4l3.8,1.9
			c0,0-1.6-2.1,0.2-2.1c1.8,0,1.3,4.8-2.4,4.6c1.5,1,3.4,0.6,4.4-0.8c0.1-0.1,0.1-0.2,0.2-0.3l1.9,2.9c0,0,0.8-4.1,2.7-3.8
			c0,0,1.1,3.2-0.8,3.5c1.4,0.5,3-0.2,3.5-1.7c0.1-0.2,0.1-0.4,0.1-0.6c0,0,1.3,1.9,2.8,1.3c0,0-2.4-3.5,0-3.3c0,0,2.8,0.2,1.8,3.5
			c1.3-0.3,2.3-1.5,2.2-2.9c0,0,2.9,1.1,3.6-1.4c0,0-2.8-3-0.5-3.5c2.4-0.5,1.1,1.4,1.1,1.4s3.2-0.5,2.7-3.3c1.5,0,2.8-1.2,2.8-2.8
			c0,0,0-0.1,0-0.1c0,0-2.7,0.6-1.7-1.3c1-1.9,4.3-4.8,2.1-10.2c0,0,2.5-2.7,0.3-4.9c0,0,3.2,0.2,2.2-2.2c0,0-2.1,1.7-2.4-0.3
			c-0.1-1.6,0.4-3.1,1.3-4.4c0.2-2.6-1.5-4.9-4-5.6c0-2.4-2.1-4.4-4.5-4.3c-0.1,0-0.3,0-0.4,0c0,0-3-2.1-5.4-0.8c0,0-3.8-3-6.5-1.3
			C173.6,287.2,165.6,281.5,165.5,289.7z"/>
		<path d="M169.2,296.2c0.6,1,1.5,1.7,2.6,2c-0.1-1.8-1.4-3.8,0.4-4.1c2.3-0.4,4.7,0.6,6.1,2.5c2.4-1.7,6.6,0.1,5.6,1.7
			c0.6,0.9,1.6,1.4,2.6,1.6c0,0-0.1,2.6,0.7,3c0.8,0.4,2,5.8,1.5,8.2c-0.5,2.4-2.8,1.3-2.8,0.4c-0.1,3.6,1.6,5,3.7,3.6
			c-1.3,4.2-7.6,8.8-7.6,8.8l-0.8-1.3c0,0-2.9,5.2-5.6,4.1c-1.2-0.4-1.8-1.6-1.4-2.8c0.1-0.2,0.2-0.5,0.4-0.7c0,0-2,2.3-3.6,1.3
			c-0.9-0.5-1.5-1.5-1.6-2.5c0,0-1.8,4.5-4.1,2.3c-1.4-1.5-2.5-3.3-3.1-5.3c-2.2-0.3-3.8-2.4-3.5-4.6c0-0.3,0.1-0.7,0.3-1
			c1.3-4.9,1.6-3.9,1.6-3.9s-2.9-2.3-0.8-3.5s6.1-4.4,3.9-7.7C167.2,298.9,168.1,298.3,169.2,296.2z"/>
		<path d="M175.3,306.6c0.1,2.5-1.8,4.6-4.3,4.7c-2.5,0.1-4.6-1.8-4.7-4.3c-0.1-2.5,1.8-4.6,4.3-4.7c0.1,0,0.2,0,0.2,0
			C173.2,302.3,175.2,304.2,175.3,306.6z"/>
		<ellipse cx="181.4" cy="308.3" rx="4" ry="4.1"/>
		<path d="M90,289.7c-0.5,2.7,3.5,4.4,3.5,4.4c-3.3,4.6-4.1,10.6-2.1,15.9c1.8,4.3,7.8,4,10.9,2.2c0,0-0.2,3.6,7.6,4.9
			c7.8,1.3,10.6-3.5,10.6-3.5c6.4,6,9.2-0.3,9.2-0.3c-4.3,0.2-4.8-7-3.5-7.3s0.9-4.6,0.9-4.6s5.1,0,5.2-4.1c0.1-4.1-6-7.5-6-7.5
			s1.6-14.3-14-14.9s-14.3,9.5-14.3,9.5C92,285.5,90.4,287.1,90,289.7z"/>
		<path d="M126.3,306.1l-2.3-0.2c-0.8,2.7-1.9,5.4-3.4,7.8c6.4,6,9.2-0.3,9.2-0.3C125.5,313.5,125,306.4,126.3,306.1z"/>
		<path d="M132.5,297.4c0.2-4.1-6-7.5-6-7.5s1.6-14.3-14-14.9c-15.6-0.6-14.3,9.5-14.3,9.5c-6.2,1-7.8,2.5-8.2,5.2
			c-0.5,2.7,3.5,4.4,3.5,4.4c5.1-6.7,12.3-4.9,20-3.5c4.2,0.5,8.1,2.3,11.3,5.2l0.1,4.5l2.3,1.1
			C127.2,301.5,132.3,301.4,132.5,297.4z"/>
		<path d="M103,310c-2.4,1.4-4.1,0.1-5.8-0.8c-1.7-0.9-1.7-6.1-1.7-6.1l-1.6,0.4l0.3-4.2l3.8-8.7c-1.7,0.8-3.2,2.1-4.4,3.6
			c-3.3,4.6-4.1,10.6-2.1,15.9c1.8,4.3,7.8,4,10.9,2.2C103.4,311.3,103.7,310.8,103,310z"/>
		<path d="M109.1,297.1c0.1,2.3-1.7,4.3-4,4.5c-2.3,0.1-4.3-1.7-4.5-4c-0.1-2.3,1.7-4.3,4-4.5c0.1,0,0.1,0,0.2,0
			C107.1,293,109,294.8,109.1,297.1z"/>
		<path d="M120.7,299.7c-0.1,1.9-1.7,3.5-3.6,3.4c-1.9-0.1-3.5-1.7-3.4-3.6c0.1-1.9,1.6-3.4,3.5-3.4
			C119.1,296.1,120.7,297.7,120.7,299.7C120.7,299.7,120.7,299.7,120.7,299.7z"/>
	</g>
</g>
</svg>
