<svg xmlns="http://www.w3.org/2000/svg" viewBox="0 0 373.99 276.25"><defs><style>*{vector-effect:non-scaling-stroke}.cls-1{fill:#fff;}.cls-1,.cls-2{stroke:#000000;stroke-linecap:round;stroke-linejoin:round;}.cls-2{fill:none;stroke-width:0.25px;}.cls-3{fill:#000000;}</style></defs><g id="Layer_2" data-name="Layer 2"><g id="Layer_1-2" data-name="Layer 1"><path class="cls-1" d="M351.67,77c16.13,6,22.94,13.38,21.67,27s-20.25,19.94-20.25,19.94c-.63,3.16,10.13,7.28,6,22.46s-18.66,16.46-20.56,20.89,10.12,13.92,5.38,28.47c-3.45,10.58-22.15,19-22.47,23.42s12.34,17.09,2.53,35.44-43.35,20.25-49.68,18.67-16.45-3.8-22.78-.64-16.45,3.8-24.05,2.53S59.9,240.65,51.14,239s-12.92-5.12-16-10-9.83-7.28-15.49-8.49S2.27,211.84,1.2,206.46c-2.56-12.79,2.15-22.08,10.36-31.1s22.22-11.45,24.1-12.25,1.94-2,1.35-3.67a25.85,25.85,0,0,1,.69-16.91,23.75,23.75,0,0,1,10-11.87H67.11V111.85c.6-10.42,4.7-16.8,11.34-20.41H95.39V70.13c2.27-6.9,7.29-13.42,12.87-16.15l42.28-3.67Z"/><path class="cls-1" d="M133.46.61l-5,46.9,1.72.2s2.41.19,2.15,1.91c-.32,2.11-3,1.45-3,1.45l-1.11-.18-.11,1.85,31.93,5,.2-2.11-1.84-.36a2.55,2.55,0,0,1,.72-3.37l1.84.29,1.2-2L167,3.74l-1.5-.61L136.23.5Z"/><polyline class="cls-2" points="134.59 0.41 130.41 46.11 158.96 50.43"/><path class="cls-2" d="M159.2,51.89l-28.69-4.13c.64.11,2.06.52,1.85,1.86a1.84,1.84,0,0,1-2.06,1.55l30,4.45-1.84-.36A2.55,2.55,0,0,1,159.2,51.89Z"/><polygon class="cls-1" points="158.51 43.27 159 38.35 160.53 38.52 162.4 21.15 161.01 20.98 161.51 16.07 162.93 16.23 163.74 8.67 135.71 6.08 135.03 12.5 136.93 12.71 136.4 17.64 134.54 17.42 132.79 34.81 134.43 34.99 133.9 39.92 132.29 39.73 132.02 42.79 159.64 46.81 160 43.44 158.51 43.27"/><path class="cls-2" d="M157.09,2.38a8.8,8.8,0,0,1-3.63,5.38l-8-.82a8.74,8.74,0,0,1-2.3-5.82Z"/><path class="cls-1" d="M168.78,4l-5.4,48.68,1.78.22s2.5.2,2.22,2c-.34,2.21-3.07,1.52-3.07,1.52l-1.15-.2L163,58.14l33,5.23.22-2.19-1.9-.38a2.68,2.68,0,0,1,.75-3.51l1.89.3,1.23-2.05,4.88-48-1.53-.64-29.91-3Z"/><polyline class="cls-2" points="169.94 3.81 165.37 51.24 194.82 55.79"/><path class="cls-2" d="M195.07,57.29l-29.68-4.37c.61.1,2.22.51,2,2a1.92,1.92,0,0,1-2.14,1.62l31,4.68-1.9-.38A2.68,2.68,0,0,1,195.07,57.29Z"/><polygon class="cls-1" points="194.38 48.31 194.9 43.21 196.46 43.4 198.4 25.41 196.98 25.23 197.5 20.16 198.95 20.34 199.79 12.56 171.07 9.66 170.34 16.29 172.29 16.52 171.72 21.62 169.8 21.38 167.9 39.44 169.6 39.63 169.02 44.77 167.36 44.57 167.06 47.75 195.53 51.99 195.91 48.5 194.38 48.31"/><path class="cls-2" d="M193,6a9,9,0,0,1-3.73,5.52l-8.19-.91a9.14,9.14,0,0,1-2.33-6Z"/><path class="cls-1" d="M204.91,8.3l-5.83,49.56,1.85.22s2.59.21,2.29,2.05c-.37,2.26-3.19,1.55-3.19,1.55l-1.2-.2-.14,2,34,5.34.22-2.24L231,66.19a2.74,2.74,0,0,1,.77-3.59l1.94.31L235,60.82l5-48.7-1.56-.66-30.6-3.23Z"/><polyline class="cls-2" points="206.11 8.14 201.15 56.41 231.5 61.09"/><path class="cls-2" d="M231.75,62.6l-30.12-4.38c.75.21,1.78.71,1.59,1.91A2,2,0,0,1,201,61.79l31.93,4.78L231,66.19A2.74,2.74,0,0,1,231.75,62.6Z"/><polygon class="cls-1" points="231.06 53.45 231.6 48.25 233.2 48.44 235.22 30.19 233.77 30 234.3 24.87 235.78 25.05 236.65 17.19 207.24 14.06 206.46 20.78 208.47 21.03 207.86 26.21 205.89 25.95 203.84 44.33 205.58 44.54 204.96 49.78 203.25 49.57 202.92 52.83 232.24 57.2 232.63 53.64 231.06 53.45"/><path class="cls-2" d="M225.92,16.09a9,9,0,0,0,3.82-5.54L215.16,9a9.26,9.26,0,0,0,2.37,6.11Z"/><path class="cls-1" d="M242.19,12.57,235.92,63l1.91.23s2.68.22,2.36,2.1c-.39,2.31-3.31,1.59-3.31,1.59l-1.23-.21-.16,2,35.05,5.46.24-2.29-2-.39a2.79,2.79,0,0,1,.8-3.67l2,.33,1.3-2.14,5.21-49.36L276.49,16,245.2,12.52Z"/><polyline class="cls-2" points="243.41 12.42 238.07 61.54 269.32 66.34"/><path class="cls-2" d="M269.58,67.86l-31.41-4.58c.71.13,2.27.59,2,2A2.07,2.07,0,0,1,237.88,67l32.9,4.9-2-.39A2.79,2.79,0,0,1,269.58,67.86Z"/><polygon class="cls-1" points="268.88 58.53 269.45 53.25 271.09 53.44 273.18 34.92 271.7 34.72 272.25 29.53 273.76 29.72 274.66 21.78 244.55 18.42 243.73 25.23 245.79 25.49 245.14 30.75 243.11 30.48 240.91 49.18 242.71 49.4 242.05 54.75 240.28 54.53 239.92 57.85 270.08 62.36 270.49 58.73 268.88 58.53"/><path class="cls-2" d="M267.62,15a9.12,9.12,0,0,1-3.92,5.58l-8.59-1a9.33,9.33,0,0,1-2.41-6.2Z"/><path class="cls-1" d="M280.53,17.28l-6.7,51.3,2,.25s2.76.22,2.43,2.14c-.42,2.37-3.43,1.63-3.43,1.63l-1.27-.21-.17,2.09,36.08,5.57.25-2.33-2.05-.4a2.85,2.85,0,0,1,.82-3.75l2.05.33,1.33-2.17,5.37-50L315.6,21l-32-3.75Z"/><polyline class="cls-2" points="281.78 17.15 276.05 67.11 308.2 72.03"/><path class="cls-2" d="M308.46,73.57l-32.31-4.69c.73.13,2.34.6,2.08,2.09a2.16,2.16,0,0,1-2.41,1.74l33.87,5-2.05-.4A2.85,2.85,0,0,1,308.46,73.57Z"/><polygon class="cls-1" points="307.77 64.06 308.36 58.68 310.04 58.89 312.2 40.09 310.69 39.89 311.26 34.63 312.8 34.84 313.73 26.82 282.93 23.23 282.05 30.12 284.17 30.4 283.48 35.73 281.39 35.44 279.04 54.48 280.9 54.7 280.19 60.16 278.37 59.93 277.99 63.33 308.99 67.96 309.42 64.27 307.77 64.06"/><path class="cls-2" d="M302.54,25.55a9.13,9.13,0,0,0,4-5.6L291.3,18.16a9.4,9.4,0,0,0,2.45,6.28Z"/><path class="cls-1" d="M319.68,21.88l-7.13,52.18,2,.25s2.85.22,2.5,2.19c-.44,2.42-3.54,1.67-3.54,1.67L312.22,78,312,80.09l37.13,5.69.25-2.38-2.1-.41a2.88,2.88,0,0,1,.86-3.82l2.09.33,1.37-2.21,5.53-50.69-1.64-.71-32.66-4Z"/><polyline class="cls-2" points="320.97 21.77 314.85 72.57 347.9 77.61"/><path class="cls-2" d="M348.17,79.17,315,74.36c.75.14,2.4.61,2.13,2.14a2.24,2.24,0,0,1-2.48,1.78l34.81,5.12-2.1-.41A2.88,2.88,0,0,1,348.17,79.17Z"/><polygon class="cls-1" points="347.47 69.48 348.08 64 349.8 64.21 352.03 45.15 350.49 44.94 351.08 39.62 352.66 39.84 353.61 31.73 322.12 27.91 321.19 34.89 323.36 35.19 322.63 40.59 320.49 40.29 317.99 59.66 319.9 59.89 319.15 65.46 317.27 65.22 316.86 68.69 348.71 73.45 349.16 69.69 347.47 69.48"/><path class="cls-2" d="M346.31,24.76a9.15,9.15,0,0,1-4.12,5.62l-9-1.17a9.45,9.45,0,0,1-2.49-6.37Z"/><path class="cls-1" d="M110.46,33.28l-5.13,48.33,1.78.24s2.49.24,2.22,2c-.33,2.17-3,1.46-3,1.46l-1.15-.21L105,87l33,5.65.21-2.17-1.9-.4a2.63,2.63,0,0,1,.74-3.47l1.9.33,1.24-2L145,37l-1.55-.66-30.16-3.17Z"/><polyline class="cls-2" points="111.63 33.11 107.31 80.22 136.78 85.13"/><path class="cls-2" d="M137,86.62,107.42,81.9c.66.13,2.12.58,1.91,1.95a1.87,1.87,0,0,1-2.12,1.57l31,5.07-1.9-.4A2.63,2.63,0,0,1,137,86.62Z"/><polygon class="cls-1" points="136.32 77.71 136.83 72.64 138.41 72.84 140.33 54.93 138.9 54.74 139.41 49.68 140.88 49.86 141.72 42.08 112.78 38.96 112.09 45.57 114.04 45.82 113.5 50.9 111.57 50.65 109.77 68.57 111.46 68.79 110.91 73.87 109.25 73.65 108.97 76.8 137.49 81.38 137.86 77.91 136.32 77.71"/><path class="cls-2" d="M134.86,35.48A8.93,8.93,0,0,1,131.1,41l-8.25-1a9.28,9.28,0,0,1-2.37-6Z"/><path class="cls-1" d="M146.92,37.32l-5.58,50.17,1.84.25s2.59.25,2.3,2.1c-.36,2.27-3.18,1.52-3.18,1.52l-1.18-.23-.13,2,34,5.91.22-2.26-2-.42a2.77,2.77,0,0,1,.76-3.62l2,.35,1.27-2.1,5-49.51-1.58-.68-30.87-3.54Z"/><polyline class="cls-2" points="148.12 37.18 143.4 86.07 173.8 91.23"/><path class="cls-2" d="M174.05,92.75l-30.54-5c.69.14,2.19.6,2,2a2,2,0,0,1-2.21,1.63l32,5.32-2-.42A2.77,2.77,0,0,1,174.05,92.75Z"/><polygon class="cls-1" points="173.34 83.48 173.88 78.22 175.49 78.44 177.49 59.9 176.03 59.7 176.56 54.47 178.06 54.67 178.93 46.65 149.28 43.21 148.53 50.04 150.54 50.31 149.96 55.57 147.98 55.29 146.01 73.9 147.77 74.13 147.17 79.42 145.46 79.19 145.15 82.47 174.53 87.3 174.92 83.7 173.34 83.48"/><path class="cls-2" d="M168.08,45.44a9.11,9.11,0,0,0,3.85-5.64l-14.71-1.69a9.6,9.6,0,0,0,2.41,6.26Z"/><path class="cls-1" d="M184.22,42.34l-6,51.07,1.9.26s2.68.26,2.37,2.15c-.38,2.32-3.29,1.55-3.29,1.55l-1.24-.23-.14,2.06,35.1,6,.24-2.31-2-.43a2.81,2.81,0,0,1,.79-3.69l2,.35,1.3-2.14,5.21-50.19-1.61-.71-31.58-3.81Z"/><polyline class="cls-2" points="185.45 42.22 180.34 91.97 211.66 97.27"/><path class="cls-2" d="M211.92,98.82l-31.48-5.09c.71.14,2.27.62,2,2.09a2,2,0,0,1-2.3,1.67l33,5.45-2-.43A2.81,2.81,0,0,1,211.92,98.82Z"/><polygon class="cls-1" points="211.21 89.36 211.77 84 213.42 84.23 215.5 65.41 214.01 65.2 214.56 59.91 216.09 60.12 216.98 52.02 186.62 48.33 185.82 55.25 187.89 55.54 187.26 60.87 185.22 60.58 183.11 79.52 184.91 79.76 184.27 85.17 182.5 84.92 182.16 88.27 212.42 93.25 212.83 89.58 211.21 89.36"/><path class="cls-2" d="M205.9,50.71a9.15,9.15,0,0,0,3.95-5.66l-15-1.82a9.68,9.68,0,0,0,2.44,6.34Z"/><path class="cls-1" d="M222.7,47.33l-6.47,52,2,.28s2.76.26,2.44,2.2c-.41,2.38-3.42,1.59-3.42,1.59l-1.27-.24-.16,2.11L252,111.41l.25-2.36-2.07-.43a2.87,2.87,0,0,1,.83-3.77l2.06.36,1.34-2.18,5.37-50.88-1.64-.72-32.29-4.1Z"/><polyline class="cls-2" points="223.97 47.23 218.45 97.85 250.7 103.29"/><path class="cls-2" d="M251,104.85l-32.42-5.23c.73.15,2.34.64,2.09,2.15a2.11,2.11,0,0,1-2.39,1.71l34,5.57-2.07-.43A2.87,2.87,0,0,1,251,104.85Z"/><polygon class="cls-1" points="250.25 95.2 250.84 89.75 252.53 89.98 254.69 70.89 253.16 70.67 253.73 65.32 255.29 65.54 256.21 57.35 225.14 53.41 224.28 60.42 226.41 60.73 225.74 66.14 223.65 65.83 221.38 85.11 223.24 85.36 222.55 90.88 220.72 90.62 220.36 94.05 251.49 99.17 251.91 95.43 250.25 95.2"/><path class="cls-2" d="M249,50.27a9.18,9.18,0,0,1-4,5.69L236,54.75a9.75,9.75,0,0,1-2.49-6.44Z"/><path class="cls-1" d="M262.27,52.8l-6.91,52.86,2,.28s2.86.27,2.51,2.25c-.43,2.44-3.54,1.63-3.54,1.63l-1.31-.24-.18,2.15,37.25,6.33.25-2.41-2.11-.45a2.91,2.91,0,0,1,.85-3.85l2.11.38,1.38-2.23,5.54-51.56-1.67-.74-33-4.38Z"/><polyline class="cls-2" points="263.57 52.71 257.65 104.2 290.84 109.78"/><path class="cls-2" d="M291.11,111.35,257.76,106c.76.15,2.41.66,2.14,2.19a2.18,2.18,0,0,1-2.47,1.76l34.94,5.7-2.11-.45A2.91,2.91,0,0,1,291.11,111.35Z"/><polygon class="cls-1" points="290.39 101.52 291 95.98 292.73 96.22 294.96 76.85 293.4 76.61 293.99 71.2 295.59 71.43 296.54 63.17 264.75 58.98 263.84 66.08 266.03 66.4 265.32 71.89 263.17 71.56 260.74 91.17 262.66 91.44 261.93 97.06 260.04 96.8 259.65 100.3 291.66 105.57 292.1 101.76 290.39 101.52"/><path class="cls-2" d="M285,61.69A9.25,9.25,0,0,0,289.14,56L273.4,53.88a9.74,9.74,0,0,0,2.53,6.52Z"/><path class="cls-1" d="M302.69,58.16l-7.36,53.75,2.1.3s2.94.28,2.57,2.3c-.45,2.49-3.66,1.66-3.66,1.66l-1.35-.24-.19,2.2,38.32,6.46.26-2.45-2.17-.46a3,3,0,0,1,.88-3.92l2.16.37,1.42-2.27,5.71-52.24-1.7-.75L306,58.21Z"/><polyline class="cls-2" points="304.02 58.09 297.7 110.44 331.82 116.16"/><path class="cls-2" d="M332.09,117.76l-34.29-5.5c.78.16,2.49.68,2.2,2.25a2.25,2.25,0,0,1-2.56,1.79l35.94,5.84-2.17-.46A3,3,0,0,1,332.09,117.76Z"/><polygon class="cls-1" points="331.37 107.74 332 102.1 333.78 102.34 336.08 82.7 334.49 82.45 335.1 76.97 336.73 77.22 337.71 68.87 305.21 64.43 304.25 71.62 306.49 71.96 305.74 77.53 303.52 77.19 300.94 97.14 302.92 97.41 302.14 103.14 300.2 102.87 299.78 106.44 332.66 111.86 333.12 107.98 331.37 107.74"/><path class="cls-2" d="M330.18,61.55a9.29,9.29,0,0,1-4.25,5.75l-9.27-1.36a9.84,9.84,0,0,1-2.57-6.61Z"/><path class="cls-1" d="M80.86,68.8l-5.45,51.27,1.89.28s2.64.28,2.36,2.16c-.35,2.3-3.24,1.5-3.24,1.5l-1.22-.24-.12,2,35,6.48.22-2.3-2-.45a2.78,2.78,0,0,1,.78-3.68l2,.38,1.31-2.12,5.16-50.81-1.64-.72-32-3.82Z"/><polyline class="cls-2" points="82.1 68.68 77.52 118.66 108.82 124.31"/><path class="cls-2" d="M109.08,125.85l-31.45-5.44c.7.14,2.25.64,2,2.1a2,2,0,0,1-2.26,1.63l31.72,5.64,1.2.2-2-.45A2.78,2.78,0,0,1,109.08,125.85Z"/><polygon class="cls-1" points="108.33 116.37 108.87 111 110.55 111.24 112.59 92.24 111.07 92.01 111.62 86.64 113.17 86.86 114.06 78.6 83.33 74.87 82.59 81.88 84.67 82.17 84.08 87.56 82.05 87.26 80.12 106.28 81.92 106.53 81.34 111.92 79.58 111.67 79.28 115 109.57 120.29 109.97 116.62 108.33 116.37"/><path class="cls-2" d="M106.78,71.49a9.33,9.33,0,0,1-4,5.79L94,76.12a9.91,9.91,0,0,1-2.52-6.45Z"/><path class="cls-1" d="M119.59,73.63l-5.92,53.21,2,.3s2.75.3,2.44,2.26c-.38,2.4-3.37,1.56-3.37,1.56l-1.26-.25-.14,2.13,36.15,6.77.24-2.39-2.08-.48a2.93,2.93,0,0,1,.82-3.83l2.08.4,1.34-2.21,5.35-52.52-1.68-.76-32.79-4.2Z"/><polyline class="cls-2" points="120.86 73.54 115.86 125.41 148.15 131.34"/><path class="cls-2" d="M148.42,132.91,116,127.2c.72.16,2.33.67,2.09,2.2a2,2,0,0,1-2.35,1.7l34,6.12-2.08-.48A2.93,2.93,0,0,1,148.42,132.91Z"/><polygon class="cls-1" points="147.66 123.05 148.23 117.47 149.94 117.72 152.07 98.06 150.52 97.82 151.08 92.28 152.67 92.52 153.59 84.01 122.1 79.92 121.3 87.16 123.44 87.48 122.82 93.06 120.72 92.73 118.63 112.47 120.49 112.74 119.86 118.36 118.04 118.08 117.71 121.56 148.93 127.13 149.34 123.31 147.66 123.05"/><path class="cls-2" d="M142.07,82.56a9.6,9.6,0,0,0,4.1-5.93l-15.64-2a10.36,10.36,0,0,0,2.56,6.68Z"/><path class="cls-1" d="M159.21,79.51l-6.39,54.16,2,.31s2.84.31,2.51,2.31c-.4,2.47-3.49,1.61-3.49,1.61l-1.31-.26-.16,2.17,37.3,6.95.24-2.45-2.13-.49a3,3,0,0,1,.84-3.91l2.14.41,1.38-2.26,5.53-53.24L196,84l-33.55-4.51Z"/><polyline class="cls-2" points="160.52 79.44 155.09 132.22 188.37 138.31"/><path class="cls-2" d="M188.64,139.91,155.2,134c.75.16,2.41.69,2.15,2.25a2.12,2.12,0,0,1-2.44,1.75l35,6.27-2.13-.49A3,3,0,0,1,188.64,139.91Z"/><polygon class="cls-1" points="187.89 129.85 188.48 124.17 190.24 124.43 192.44 104.48 190.86 104.23 191.44 98.61 193.07 98.86 194.02 90.27 161.77 85.9 160.91 93.24 163.12 93.58 162.44 99.24 160.28 98.9 158.03 118.99 159.95 119.27 159.27 125 157.39 124.72 157.03 128.27 189.18 134.01 189.61 130.11 187.89 129.85"/><path class="cls-2" d="M186.45,82.76a9.56,9.56,0,0,1-4.2,6l-9.2-1.34a10.37,10.37,0,0,1-2.6-6.77Z"/><path class="cls-1" d="M200.09,85.38l-6.87,55.1,2.09.32s2.94.32,2.59,2.37c-.43,2.53-3.63,1.64-3.63,1.64l-1.35-.27-.17,2.24,38.43,7.1.26-2.5-2.19-.49a3,3,0,0,1,.87-4l2.19.42,1.42-2.3,5.71-54-1.74-.79-34.3-4.83Z"/><polyline class="cls-2" points="201.43 85.32 195.58 139.02 229.84 145.28"/><path class="cls-2" d="M230.12,146.89l-34.43-6c.77.16,2.48.71,2.21,2.3a2.2,2.2,0,0,1-2.54,1.79l36.08,6.42-2.19-.49A3,3,0,0,1,230.12,146.89Z"/><polygon class="cls-1" points="229.36 136.63 229.98 130.86 231.78 131.12 234.07 110.88 232.45 110.61 233.05 104.94 234.71 105.19 235.69 96.51 202.68 91.87 201.78 99.3 204.03 99.66 203.32 105.4 201.1 105.04 198.69 125.49 200.66 125.78 199.94 131.63 197.99 131.33 197.61 134.97 230.68 140.87 231.13 136.91 229.36 136.63"/><path class="cls-2" d="M228,88.88a9.61,9.61,0,0,1-4.31,6l-9.41-1.42a10.47,10.47,0,0,1-2.64-6.87Z"/><path class="cls-1" d="M242.13,91.77l-7.34,56.05,2.16.33s3,.33,2.66,2.43c-.46,2.58-3.76,1.67-3.76,1.67l-1.4-.27-.18,2.28,39.57,7.27.26-2.55-2.24-.51a3.09,3.09,0,0,1,.9-4.08l2.25.43,1.46-2.35,5.89-54.69L280.59,97l-35.06-5.13Z"/><polyline class="cls-2" points="243.51 91.73 237.22 146.34 272.48 152.76"/><path class="cls-2" d="M272.76,154.39l-35.43-6.18c.8.17,2.56.74,2.28,2.37A2.29,2.29,0,0,1,237,152.4L274.1,159l-2.24-.51A3.09,3.09,0,0,1,272.76,154.39Z"/><polygon class="cls-1" points="272 143.94 272.64 138.06 274.49 138.34 276.86 117.8 275.2 117.52 275.83 111.78 277.52 112.05 278.53 103.28 244.77 98.36 243.8 105.89 246.12 106.27 245.37 112.09 243.08 111.71 240.5 132.51 242.54 132.82 241.76 138.78 239.76 138.47 239.34 142.19 273.34 148.26 273.81 144.22 272 143.94"/><path class="cls-2" d="M266.27,101.54a9.63,9.63,0,0,0,4.4-6L254,93.07a10.61,10.61,0,0,0,2.68,7Z"/><path class="cls-1" d="M285.07,98.06l-7.82,57,2.23.34s3.12.34,2.73,2.49c-.48,2.64-3.88,1.71-3.88,1.71l-1.45-.28-.2,2.34,40.71,7.43.28-2.61-2.3-.51a3.13,3.13,0,0,1,.93-4.16l2.29.43,1.51-2.39,6.07-55.41-1.81-.83-35.81-5.45Z"/><polyline class="cls-2" points="286.48 98.04 279.76 153.56 316.01 160.14"/><path class="cls-2" d="M316.3,161.8l-36.42-6.34c.83.18,2.63.75,2.33,2.42a2.37,2.37,0,0,1-2.73,1.87l38.19,6.72-2.3-.51A3.13,3.13,0,0,1,316.3,161.8Z"/><polygon class="cls-1" points="315.54 151.15 316.2 145.16 318.09 145.45 320.54 124.61 318.85 124.33 319.5 118.52 321.23 118.8 322.27 109.95 287.74 104.75 286.72 112.38 289.1 112.77 288.3 118.68 285.95 118.28 283.21 139.43 285.31 139.75 284.48 145.83 282.42 145.51 281.98 149.31 316.9 155.54 317.39 151.43 315.54 151.15"/><path class="cls-2" d="M314.26,102.06a9.6,9.6,0,0,1-4.51,6l-9.85-1.57a10.7,10.7,0,0,1-2.73-7.06Z"/><path class="cls-1" d="M49.94,110l-5.72,53.83,2,.32s2.78.33,2.48,2.3c-.37,2.41-3.4,1.53-3.4,1.53L44,167.72l-.13,2.14,36.81,7.28.24-2.41-2.13-.51a2.9,2.9,0,0,1,.83-3.85l2.12.42,1.38-2.22,5.43-53.34-1.73-.78L53.14,110Z"/><polyline class="cls-2" points="51.25 109.94 46.43 162.42 79.34 168.77"/><path class="cls-2" d="M79.62,170.37l-33.07-6.15c.74.17,2.37.71,2.13,2.24a2,2,0,0,1-2.37,1.68l34.61,6.59-2.13-.51A2.9,2.9,0,0,1,79.62,170.37Z"/><polygon class="cls-1" points="78.82 160.39 79.39 154.75 81.15 155.02 83.31 135.07 81.71 134.82 82.28 129.18 83.92 129.43 84.85 120.76 52.54 116.42 51.76 123.78 53.95 124.12 53.33 129.78 51.19 129.44 49.17 149.4 51.06 149.69 50.45 155.35 48.6 155.06 48.28 158.56 80.13 164.53 80.54 160.67 78.82 160.39"/><path class="cls-2" d="M77.19,113.18a9.57,9.57,0,0,1-4.19,6l-9.22-1.32a10.62,10.62,0,0,1-2.64-6.82Z"/><path class="cls-1" d="M90.66,115.6l-6.23,55.86,2.06.34s2.88.36,2.56,2.41c-.4,2.52-3.54,1.6-3.54,1.6l-1.33-.28L84,177.76l38,7.61.25-2.52-2.18-.52a3.06,3.06,0,0,1,.85-4l2.19.45,1.41-2.31,5.63-55.15-1.77-.81L94,115.63Z"/><polyline class="cls-2" points="92 115.56 86.73 170.02 120.68 176.68"/><path class="cls-2" d="M121,178.31l-34.11-6.44c.77.18,2.45.74,2.2,2.34A2.11,2.11,0,0,1,86.58,176l35.71,6.88-2.18-.52A3.06,3.06,0,0,1,121,178.31Z"/><polygon class="cls-1" points="120.17 167.93 120.77 162.07 122.57 162.36 124.81 141.72 123.17 141.45 123.77 135.63 125.44 135.9 126.41 126.97 93.3 122.25 92.46 129.85 94.71 130.22 94.05 136.07 91.84 135.7 89.65 156.43 91.6 156.74 90.94 162.63 89.03 162.31 88.68 165.97 121.5 172.23 121.93 168.22 120.17 167.93"/><path class="cls-2" d="M114.29,125.29a9.82,9.82,0,0,0,4.3-6.18l-16.43-2.32a11.08,11.08,0,0,0,2.69,7.06Z"/><path class="cls-1" d="M132.31,122.31l-6.72,56.85,2.13.35s3,.37,2.64,2.47c-.43,2.59-3.68,1.64-3.68,1.64l-1.37-.29-.17,2.29,39.21,7.79.26-2.57-2.25-.54a3.12,3.12,0,0,1,.89-4.1l2.24.46L167,184.3l5.81-55.9-1.8-.84-35.26-5.19Z"/><polyline class="cls-2" points="133.69 122.29 127.98 177.71 162.96 184.55"/><path class="cls-2" d="M163.25,186.2l-35.16-6.62c.79.18,2.54.76,2.27,2.4a2.19,2.19,0,0,1-2.56,1.8l36.81,7.06-2.25-.54A3.12,3.12,0,0,1,163.25,186.2Z"/><polygon class="cls-1" points="162.46 175.62 163.08 169.65 164.93 169.95 167.25 149 165.58 148.71 166.19 142.82 167.9 143.11 168.9 134.08 135 129.06 134.1 136.77 136.41 137.15 135.71 143.09 133.44 142.7 131.07 163.8 133.09 164.12 132.37 170.14 130.4 169.81 130.02 173.54 163.81 180 164.26 175.91 162.46 175.62"/><path class="cls-2" d="M160.94,126.09a9.9,9.9,0,0,1-4.41,6.21l-9.67-1.53a11.1,11.1,0,0,1-2.74-7.16Z"/><path class="cls-1" d="M175.29,129l-7.23,57.84,2.2.36s3.09.38,2.72,2.53c-.45,2.65-3.81,1.68-3.81,1.68l-1.42-.3-.18,2.34,40.4,8,.27-2.62-2.31-.55a3.18,3.18,0,0,1,.93-4.19l2.29.46,1.5-2.39,6-56.67-1.83-.85-36.06-5.53Z"/><polyline class="cls-2" points="176.7 129.02 170.54 185.39 206.56 192.42"/><path class="cls-2" d="M206.86,194.09l-36.2-6.79c.82.18,2.61.78,2.32,2.45a2.29,2.29,0,0,1-2.66,1.85l37.92,7.23-2.31-.55A3.18,3.18,0,0,1,206.86,194.09Z"/><polygon class="cls-1" points="206.06 183.29 206.71 177.23 208.6 177.53 211.01 156.28 209.3 155.98 209.94 150.02 211.68 150.31 212.71 141.2 178.01 135.88 177.06 143.69 179.43 144.09 178.69 150.12 176.34 149.71 173.81 171.17 175.89 171.51 175.12 177.65 173.08 177.31 172.67 181.12 207.44 187.76 207.91 183.6 206.06 183.29"/><path class="cls-2" d="M200.08,139.31a9.93,9.93,0,0,0,4.52-6.24l-17.2-2.63a11.23,11.23,0,0,0,2.78,7.26Z"/><path class="cls-1" d="M219.48,136.29l-7.72,58.83,2.27.38s3.18.39,2.8,2.59c-.48,2.71-4,1.71-4,1.71l-1.47-.31-.2,2.4,41.6,8.17.28-2.68-2.36-.56a3.24,3.24,0,0,1,1-4.28L254,203l1.54-2.45,6.19-57.42-1.87-.87-36.85-5.87Z"/><polyline class="cls-2" points="220.93 136.31 214.32 193.64 251.38 200.86"/><path class="cls-2" d="M251.68,202.54,215,195.72c.9.29,2.12.95,1.88,2.37a2.37,2.37,0,0,1-2.77,1.88l39,7.41-2.36-.56A3.24,3.24,0,0,1,251.68,202.54Z"/><polygon class="cls-1" points="250.88 191.54 251.56 185.37 253.5 185.68 255.99 164.12 254.25 163.81 254.9 157.78 256.68 158.09 257.75 148.88 222.25 143.26 221.23 151.17 223.68 151.59 222.88 157.7 220.47 157.27 217.77 179.11 219.91 179.46 219.09 185.72 216.99 185.37 216.55 189.26 252.29 196.1 252.78 191.86 250.88 191.54"/><path class="cls-2" d="M249.48,140.62a9.91,9.91,0,0,1-4.63,6.27l-10.12-1.7a11.26,11.26,0,0,1-2.83-7.37Z"/><path class="cls-1" d="M264.61,143.48l-8.22,59.81,2.35.39s3.28.4,2.87,2.65c-.5,2.77-4.08,1.75-4.08,1.75l-1.52-.32-.21,2.46,42.79,8.35.29-2.74-2.42-.57a3.29,3.29,0,0,1,1-4.36l2.41.49,1.58-2.5,6.38-58.17-1.89-.9-37.66-6.19Z"/><polyline class="cls-2" points="266.1 143.51 259.04 201.79 297.14 209.19"/><path class="cls-2" d="M297.45,210.9l-37.75-7h0c.93.3,2.18,1,1.91,2.42-.31,1.7-1.78,2-2.87,1.93l40.14,7.57-2.42-.57A3.29,3.29,0,0,1,297.45,210.9Z"/><polygon class="cls-1" points="296.65 199.69 297.35 193.41 299.33 193.74 301.9 171.87 300.13 171.54 300.81 165.44 302.63 165.77 303.72 156.47 267.43 150.55 266.35 158.55 268.86 159 268.02 165.2 265.55 164.75 262.66 186.95 264.87 187.31 264 193.7 261.84 193.34 261.36 197.31 298.08 204.33 298.59 200.02 296.65 199.69"/><path class="cls-2" d="M290.56,154.37a10,10,0,0,0,4.75-6.3l-18-2.95a11.38,11.38,0,0,0,2.87,7.46Z"/><path class="cls-1" d="M41,187.29c1.95-4.18,10.3-7.22,17.72-5.65,8.44,1.78,8.74,6.73,6.61,9.38-3,3.76-12.24,3-15.41,6.88-2.44,3-9.19,1.83-6-1.61C48.67,191,55.19,192.7,57,190.08c1.21-1.79-.18-4.39-3.59-5-2.49-.48-5.43,1-7,3C44.44,190.63,39.2,191,41,187.29Zm-3,17.45c-3.13,3.44,3.61,4.57,6,1.61C47.19,202.92,40.44,201.79,38,204.74ZM87.76,196a7.26,7.26,0,0,1,6.88-3.12c3.53.67,5.13,3.36,4,5.22-1.62,2.71-8.39.93-13,6.43-3,3.56,4,4.73,6.27,1.67,3-4,12.43-3.24,15.24-7.12,2-2.75,1.34-7.87-7.4-9.72-7.67-1.62-16,1.52-17.67,5.85C80.62,199,85.93,198.62,87.76,196Zm-7.41,17.28c-3,3.56,4,4.73,6.28,1.67C89.59,211.34,82.63,210.17,80.35,213.23Zm49.23-9.37a6.9,6.9,0,0,1,6.81-3.24c3.64.7,5.45,3.48,4.44,5.4-1.48,2.81-8.5,1-12.79,6.65-2.78,3.68,4.39,4.89,6.51,1.73,2.76-4.12,12.45-3.35,15.06-7.37,1.84-2.84.84-8.14-8.19-10.05-7.92-1.67-16.18,1.57-17.62,6.05C122.5,207,127.89,206.61,129.58,203.86Zm-6.4,17.86c-2.79,3.69,4.39,4.89,6.51,1.72C132.47,219.76,125.3,218.56,123.18,221.72Zm49.89-9.78a6.57,6.57,0,0,1,6.73-3.34c3.76.73,5.78,3.6,4.87,5.59-1.33,2.89-8.6,1-12.62,6.86-2.6,3.81,4.78,5,6.75,1.79,2.55-4.26,12.47-3.46,14.88-7.61,1.7-2.94.34-8.41-9-10.38-8.19-1.74-16.4,1.62-17.59,6.25C166.06,215.23,171.53,214.8,173.07,211.94Zm-5.4,18.46c-2.61,3.81,4.78,5,6.74,1.78C177,228.38,169.63,227.13,167.67,230.4Zm49.5-9.32a6.26,6.26,0,0,1,6.66-3.45c3.88.75,6.1,3.71,5.3,5.76-1.18,3-8.7,1-12.44,7.09-2.43,3.92,5.17,5.21,7,1.84,2.35-4.39,12.5-3.57,14.7-7.85,1.56-3-.15-8.68-9.75-10.72-8.45-1.78-16.6,1.68-17.54,6.45C210.23,224.47,215.77,224,217.17,221.08Zm-4.39,19c-2.43,3.92,5.17,5.21,7,1.83C222.17,238,214.58,236.75,212.78,240.13Zm51.06-10.68a6,6,0,0,1,6.59-3.55c4,.77,6.42,3.82,5.71,5.94-1,3.08-8.79,1.06-12.26,7.3-2.25,4.05,5.56,5.38,7.21,1.9,2.13-4.52,12.52-3.68,14.52-8.09,1.41-3.13-.65-8.95-10.54-11-8.7-1.84-16.81,1.73-17.49,6.65C257,233,262.58,232.48,263.84,229.45Zm-3.39,19.64c-2.25,4,5.56,5.37,7.2,1.89C269.89,246.94,262.09,245.61,260.45,249.09Z"/><path class="cls-1" d="M242.41,260.29h0a6.1,6.1,0,0,1-4.54,1.1l-85.46-17.51c-1.43-.29-1.71-1.26-.63-2.16h0a6,6,0,0,1,4.53-1.1"/><path class="cls-1" d="M134.73,239.49h0a6.09,6.09,0,0,1-4.53,1.1L44.73,223.08c-1.43-.29-1.71-1.26-.63-2.16h0a6.06,6.06,0,0,1,4.54-1.1"/><path class="cls-1" d="M68.63,222.61c0,3.14-3.61,5.7-8.07,5.7s-8.07-2.56-8.07-5.7,3.62-5.7,8.07-5.7S68.63,219.46,68.63,222.61Z"/><path class="cls-1" d="M172.76,248,168,200.11a2.83,2.83,0,0,1,3.56-3.24l42.1,8.24a5.45,5.45,0,0,1,4.16,4.81l2.41,47.85Z"/><path class="cls-1" d="M173.31,63.91l-.7.93,1-.21A3.26,3.26,0,0,0,173.31,63.91Z"/><path class="cls-3" d="M178.44,225.1a5.1,5.1,0,0,0,4.15,3.57s1.43,6.19,5.53,9.05,7.52,3,12.5,2.75,4.06-7.22,4.06-7.22c4.83,1.16,2.62-5.63,1.66-6.25a1.68,1.68,0,0,0-1.73-.16l-.44-1.67c-.89-2.85,1.79-5.31,1.79-5.31s-1.09-4.3-12.91-7.59S177.49,214,177.49,214l.63,1c1.92,1.82,3,7.27,3,7.27C178.48,220.64,177.52,221.89,178.44,225.1Z"/><path class="cls-3" d="M193.05,212.27C181.23,209,177.49,214,177.49,214l.63,1c1.55,1.47,2.58,5.31,2.91,6.73.32-1.19,2-6.72,5.38-6.29A9,9,0,0,1,192,218s2.7-1.58,5.11-.3a14.56,14.56,0,0,1,7.44,8.92l0,0-.37-1.41c-.89-2.85,1.79-5.31,1.79-5.31S204.87,215.56,193.05,212.27Z"/><path class="cls-3" d="M193.82,228s-1.07,3-5.67,1.13a5.94,5.94,0,0,1-4-6.11s3.15,6,8.71,4.23a2.87,2.87,0,0,0,2.7.44c2.5,1.6,6.17,2.24,7.55-.65,1.37,3.8-.53,4.72-3.53,4.19a7,7,0,0,1-4.45-2.86S194,228.28,193.82,228Z"/><path class="cls-3" d="M192.84,221.92c.39,1.26-.61,2.23-2.25,2.15a4.2,4.2,0,0,1-3.68-2.43c-.39-1.27.61-2.23,2.25-2.15A4.15,4.15,0,0,1,192.84,221.92Z"/><path class="cls-3" d="M200.21,223.32c.43,1.37-.48,2.43-2,2.35a4.18,4.18,0,0,1-3.61-2.62c-.43-1.37.49-2.43,2.05-2.35A4.15,4.15,0,0,1,200.21,223.32Z"/><path class="cls-3" d="M143.19,32.23c.95.72,5.14,1.45,8.49.73s3.63-4.7,3.63-4.7c1.45-.84,1-3.07,1-3.07a3.53,3.53,0,0,0,1.45-2.35,1.77,1.77,0,0,0-1-1.95,2,2,0,0,0-.73-.73A2.66,2.66,0,0,0,156.6,16c-.79-.89-2.57-1-2.24-1.95s1.45-.51,1.68,0,1.34.9.89-.84a2,2,0,0,0-2.23-1.5,3,3,0,0,0-.23-1.51c-.73-1.71-2.51-.73-2.51-.73s1.68.45,1.28,1.17-1.84,0-4.58.12-4.3,2.4-5.75,3.35-1.9,2-2,4.86c0,0-.17-.95-1.28-.17-1.95,1.37-.12,2.69-.23,4.47s.45,2.41,1.62,2.07C140.73,28.37,141.34,30.83,143.19,32.23Z"/><path class="cls-3" d="M147.63,25.29s-1.12-.55-1.28-1.09a2.39,2.39,0,0,1-1.16-.77,2.79,2.79,0,0,0-2.93,3.21c.42,1.66,1,1.39,1,.89a8.76,8.76,0,0,1,.2-1.16.61.61,0,0,0,.84-.08c.55.19.62-.27.89-.39.39.31.66.08,1-.07.54.5.77.15.85-.16C147.4,25.83,147.63,25.29,147.63,25.29Z"/><path class="cls-3" d="M148.21,25.25c.81.07,1.85-.16,2-.78.74.12.85-.19.85-.19s1.39,1.08,1.08,2.2-.38,1.86-.57,1.66-.16-1.12-.12-1.23c-.39.19-.69.27-1-.43-.85.39-.81-.31-1-.54A.78.78,0,0,1,148.21,25.25Z"/><path class="cls-3" d="M154.61,23.85s2.28-.6,1.8-2.65c-.11-.46-.18-.75-.24-.95l-.13-.09A2.66,2.66,0,0,0,156.6,16c-.79-.89-2.57-1-2.24-1.95s1.45-.51,1.68,0,1.34.9.89-.84a2,2,0,0,0-2.23-1.5,3,3,0,0,0-.23-1.51c-.73-1.71-2.51-.73-2.51-.73s1.68.45,1.28,1.17-1.84,0-4.58.12-4.3,2.4-5.75,3.35S141.08,16,141,18.46a11,11,0,0,1,.22,1.18c0,.24-.48,1.92-.42,2.1a2.87,2.87,0,0,0,.66.79c.18.12.48-.07.3-.49a10,10,0,0,1-.18-2.64c.06-.36.3-2,.3-2.29s.24-.9.6-1a5,5,0,0,1,.72-.06,7.13,7.13,0,0,1,.06-1,1.48,1.48,0,0,1,.85-.9c.54-.18,2.34-1.08,2.76-1.26s.73-.6.55.3-.73,1-.43,1.26.91.3.91.79.3,1.14.6.72.54-.78,1-.6.36-.61.36-.61L149,14.4s-.84-1.32-.12-1.32,1.87-.18,2,.42a1.68,1.68,0,0,0,.84,1s1.26-.54,1.26.12.84.42,1.33,1.21,1.14,1.2.84,2.1-2,2.17-1.09,2.83,2,.9,1.57,1.74A5.76,5.76,0,0,1,154.61,23.85Z"/><path class="cls-3" d="M147.57,19.7a2.05,2.05,0,1,1-2-2.05A2,2,0,0,1,147.57,19.7Z"/><path class="cls-3" d="M153.28,20.24a2,2,0,1,1-2-2A2,2,0,0,1,153.28,20.24Z"/><path class="cls-3" d="M175.42,19.36c-2.13,2.68-1.84,7.1-1.84,7.1l1.06-.22L174.3,30s-.67.45,2.07,1.17c-.39,3.8.56,8,6.31,8.89S190,37.75,190.62,36a14.58,14.58,0,0,0,.45-4.53,3.46,3.46,0,0,0,2.51-3.69c1.12-1.62,1.51-5-.89-5.92,1.51-.56,3-3.24,3-3.24l-3.36.45s2.46-2.07.84-3.58c-.78,1.4-3.19,2.46-7.38,1.45s-6.14-.44-7.15.84A3.53,3.53,0,0,0,175.42,19.36Z"/><path class="cls-3" d="M195.71,18.64l-3.36.45s2.46-2.07.84-3.58c-.78,1.4-3.19,2.46-7.38,1.45s-6.14-.44-7.15.84a3.53,3.53,0,0,0-3.24,1.56c-2.13,2.68-1.84,7.1-1.84,7.1l1.06-.22-.31,3.54.93.88a5.47,5.47,0,0,1-.16-1.38c-.1-1.15-.53-3.4,0-4.16s2.06-.72,1.91.24-.62,2.82-.62,2.82l1.34.62s-.09-3,.48-4.11,1.73-2.78,1.77-4.41c1.34,2.25,3.64,2.59,5.46,2.63a29.91,29.91,0,0,0,4.84-.52c1.39,1.86,1.1,4.4,1,5.65s-.16,3.45-.16,3.45a3.46,3.46,0,0,0,2.51-3.69c1.12-1.62,1.51-5-.89-5.92C194.2,21.32,195.71,18.64,195.71,18.64Z"/><path class="cls-3" d="M182.36,25.85a35.74,35.74,0,0,0-4.73.46l-.28.77.72.19A4.21,4.21,0,0,0,181.42,31a2.47,2.47,0,0,0,.54,0,3.26,3.26,0,0,0,2.81-1.92h.15a.92.92,0,0,1,.47.11c-.14,1.05.53,2.29,3,2.49h.23c2.4,0,3.65-2.88,3.65-2.88l1-.76-.15-.67a1.4,1.4,0,0,0-.81.28,7.46,7.46,0,0,0-4.18-1.24,4.52,4.52,0,0,0-1.19.14c-.74.21-1.33,1.87-1.33,1.87l-.58.05a2.74,2.74,0,0,0-.91-2.4,3.76,3.76,0,0,0-1.74-.27Z"/><path class="cls-3" d="M182.36,26.81h0a3.5,3.5,0,0,1,1.21.12h0a1.69,1.69,0,0,1,.49,1.37h0l-.19.56A2.42,2.42,0,0,1,182,30.1a1.87,1.87,0,0,1-.34,0A3.2,3.2,0,0,1,179,27.21v-.13a29.14,29.14,0,0,1,3.34-.27"/><path class="cls-3" d="M188.11,27.42a7.32,7.32,0,0,1,3.37.87l-.07.18s-1,2.3-2.77,2.3h-.16a2.84,2.84,0,0,1-1.95-.72.82.82,0,0,1-.18-.68l0-.28.11-.29a3.58,3.58,0,0,1,.73-1.28,3.36,3.36,0,0,1,.89-.1"/><path class="cls-3" d="M209,24.68l2.29.39-2.57.95a4.08,4.08,0,0,0,1.39,1.34c-.83.56-.28,1.51.28,2s.06,1.46,0,2.57,1.18.51,1.18.51,1.9,6.2,5,9.83,7.32,2.69,8,1a45.31,45.31,0,0,1,4.75-7.1,6.5,6.5,0,0,0,1.06-3.85l.33-1.18-.22-2.07a8.57,8.57,0,0,0-3.63-7.6,10.46,10.46,0,0,0-14,1.85C209.67,23,209,24.68,209,24.68Z"/><path class="cls-3" d="M209,24.68l2.29.39-2.57.95a4.08,4.08,0,0,0,1.39,1.34c1.32-.59,1.74,1.4,1.74,1.4s1.84-.8,1.84-2.17a10.41,10.41,0,0,0-.9-3.26C209.66,23,209,24.68,209,24.68Z"/><path class="cls-3" d="M219.23,25.68a26.54,26.54,0,0,0-5.59.91,1.56,1.56,0,0,1-.21.75l2.38-.18a5.83,5.83,0,0,0,.32,2.88c.5.79,3.26,1.39,4.52,1.39l.37,0c1-.16,1.77-2.17,1.77-2.17l.56.24a7.73,7.73,0,0,0,.24,1.85c.21.68,2.76,1.6,4,1.6a1.09,1.09,0,0,0,.49-.08c.8-.4,2.17-2.25,1.85-3.05-.93-1.53-4.06-2.41-5-2.41h-.11c-.72.08-1,1.12-1,1.12a5,5,0,0,1-1-.24c.08-1.36-.48-2-2.57-2.49a5.61,5.61,0,0,0-1.15-.11Z"/><path class="cls-3" d="M219.23,26.65a4,4,0,0,1,.93.08c1.89.43,1.87.83,1.83,1.49l-.1.66a4.06,4.06,0,0,1-1,1.58h-.22a8.33,8.33,0,0,1-3.71-.94,5,5,0,0,1-.18-2.26l.05-.38a15,15,0,0,1,2.42-.24"/><path class="cls-3" d="M225,28.36c.75,0,3.18.76,4,1.8A4.07,4.07,0,0,1,227.69,32h-.1a7.08,7.08,0,0,1-3.11-1,7.62,7.62,0,0,1-.17-1.39s.65-1.11.72-1.19"/><path class="cls-3" d="M247.72,37.64c-.63,2.32-.81,3.83,1.8,4.53-.4,5.34,1.45,6.44,6,7.83s7.2.59,7.61-2.14a12.79,12.79,0,0,1,2-4.94s1.05.18,1.16-1.1,1.16-2.55,1.39-3.43-.92-.75-.92-.75l-.24-1.39c1.51-1-.23-2.38-.23-2.38l.47-1.45c.23-.06,2.14-6.45-8.6-7.55C245.41,23.56,247,34.45,247,34.45,246,35.14,245.75,36.25,247.72,37.64Z"/><path class="cls-3" d="M266.24,33.87l.47-1.45c.23-.06,2.14-6.45-8.6-7.55-11.46-1.18-11.31,7.56-11.17,9.28l2.84-1.89s0,1.91,3,2.21,7-2.44,9.1-1.83a9.23,9.23,0,0,1,4.6,3.61C268,35.26,266.24,33.87,266.24,33.87Z"/><path class="cls-3" d="M264.92,34.47a24.59,24.59,0,0,1-.15,3.6c-.07,1.3-.07,2.29-.07,2.29l.17,1.14c.23,0,.42,0,.44-.07.07-.23,1.4-3.79,1.4-3.79l-.24-1.39A8.53,8.53,0,0,0,264.92,34.47Z"/><path class="cls-3" d="M249.78,32.26l-2.84,1.89a2.63,2.63,0,0,0,0,.3c-1,.69-1.22,1.8.75,3.19-.63,2.32-.81,3.83,1.8,4.53l.42-.81-1-.61c-1-.62.08-.92-.61-2.45s-1.3-2.91.38-2.68,1.38,3.75,1.38,3.75l.69.76.15-3.74.32-2.29A2.22,2.22,0,0,1,249.78,32.26Z"/><path class="cls-3" d="M256.71,36.56a2.21,2.21,0,1,1-2.21-2.17A2.19,2.19,0,0,1,256.71,36.56Z"/><path class="cls-3" d="M263.21,37.31A2.17,2.17,0,1,1,261,35.14,2.17,2.17,0,0,1,263.21,37.31Z"/><path class="cls-3" d="M283.25,38.38c-1,2.79-.35,8.7,2.61,8.3.12,2.9,3.54,8.18,9.58,8.88s6.62-3.66,8.25-5.22c0,0,5.28-.93,4.29-8.36s-8.07-8.94-12-9C287.78,30.42,284.59,34.66,283.25,38.38Z"/><path class="cls-3" d="M304.69,48a7.19,7.19,0,0,0-1.07-4.2c-.77-1.08-7.57-5.13-7.57-7.12-1.45,1.84-5,1.15-7,1.15s-4.44,4.21-3.9,6.35c-.77-2-1.53-2.22-1.76-1.53s.12,3.49,2.43,4.08c.12,2.9,3.54,8.18,9.58,8.88s6.62-3.66,8.25-5.22A2.94,2.94,0,0,0,304.69,48Z"/><path class="cls-3" d="M302.53,42.78c-1-.78-2.53-1.86-3.84-2.94a2.67,2.67,0,0,0,1.18,5.08A2.71,2.71,0,0,0,302.53,42.78Z"/><path class="cls-3" d="M295.21,41.6a2.49,2.49,0,1,1-2.49-2.44A2.47,2.47,0,0,1,295.21,41.6Z"/><path class="cls-3" d="M294.14,45.81c-1.46,0-3.06,2.75-4.06,1.84s-.69-1.53.38-2.07c-1.07-.38-3.13,1.45-1.83,3.29a3.67,3.67,0,0,0,4.82.84c1.3-.69,1.83-.76,2.44-.61s2.22,2.06,4.13,2.14,4.06-2.91,1.92-4.36c.3,2.22-1,2.37-2.45,1.15S297.12,46,297.12,46s-.23.77-1.53.77S294.14,45.81,294.14,45.81Z"/><path class="cls-3" d="M325.83,52.79s.22-.34-1.27.16a4,4,0,0,1-.33-3.75s-.33.38-1.55.11a8.82,8.82,0,0,1,1.6-3.43l-1.49.11a6.51,6.51,0,0,1,3.59-2.31c-1.49.16-2.92.44-2.92.44a7.35,7.35,0,0,1,3-1.66,5.38,5.38,0,0,0-3.15.72,4.5,4.5,0,0,1,3.2-2.16l-.71-1s.43-.5,1.71.49a6.6,6.6,0,0,1,.82-3.75,2.57,2.57,0,0,1,.83,1.93,7,7,0,0,1,2.93-2.1s-.5,0-1,1.66c1.76-2.21,5.35-2.65,5.35-2.65a2.88,2.88,0,0,0-1.05,1.32c2.54-1.21,8.23.34,8.23.34s-.44-.72-3.09.93c4.75-.16,6,2.82,6,2.82l-3.21-.55a8,8,0,0,1,5.3,4.86,31.29,31.29,0,0,0-3.75-1.6c1.77,1.32.83,3.92.83,3.92l-.66-.28a9.39,9.39,0,0,1,.55,2.15c.88.28-.66,2-1.11,3.21s-1.54,1.87-2.1,1.43c-.55,1-2.87,4.31-3.09,4.86s-.49,3.53-5.85,2.1-5.52-3.81-6.74-6.85Z"/><path class="cls-3" d="M345.6,49.47l-.46.73-.51-.15-.36,1.53-.51-.94-1.75.58s1.1-4.87,0-6.77c-.58,1.9-.87,2.11-.87,2.11a3,3,0,0,0-1-3.2s0,1.68-.72,2.19c0,0-.15-2-1.17-2.62a4,4,0,0,1-1.6,2.62c.51-1.68-.22-2-.22-2-.29,1.16-1.89,1.67-1.89,1.67l.37-1.81a19.47,19.47,0,0,0-2,1.09c-.21.21-.14-1-.14-1l-3.2.58.29-1-1.6.73L327,46.93l-.36-.88.07,2.7-1.09-1.53h-1.38a4.07,4.07,0,0,0,.43,3,7.78,7.78,0,0,0,1.6,2.26L326,53l.73,1.19c1.22,3,1.38,5.41,6.74,6.85s5.63-1.55,5.85-2.1,2.54-3.86,3.09-4.86c.56.44,1.66-.22,2.1-1.43S346.48,49.75,345.6,49.47Z"/><path class="cls-3" d="M334.23,48.75a2.18,2.18,0,1,1-1.7-2.7A2.25,2.25,0,0,1,334.23,48.75Z"/><path class="cls-3" d="M341.29,49.33a2.19,2.19,0,1,1-1.71-2.7A2.25,2.25,0,0,1,341.29,49.33Z"/><path class="cls-3" d="M307.81,80.41a3.23,3.23,0,0,0-1.28,5c-2,1.16-2,4.06.35,5.63-.87-.12-2.61.93-.7,2.21a2.86,2.86,0,0,0,5.23,1,7.64,7.64,0,0,0,1.91,5.11c2.15,2.61,5.93,3,8.36,2.55s3.43-3.48,4.3-5.74c.81,0,2.61.23,3.31-.53s-.64-2.26-.64-2.26.52,0,.46-2c2.33-1.22,2-3.08,1.34-5.11,2.9.35,4-3.19,1.8-5,0-2.85-2.15-6.27-5.69-6.1-.81-1.33-2.84-2.49-6.62-1A6.06,6.06,0,0,0,313,75.65C309.09,75.65,306.82,78.2,307.81,80.41Z"/><path class="cls-3" d="M332.25,81.28c0-2.85-2.15-6.27-5.69-6.1-.81-1.33-2.84-2.49-6.62-1A6.06,6.06,0,0,0,313,75.65c-3.94,0-6.21,2.55-5.22,4.76a3.23,3.23,0,0,0-1.28,5c-2,1.16-2,4.06.35,5.63-.87-.12-2.61.93-.7,2.21a2.86,2.86,0,0,0,5.23,1c-.13-1-.47-3.09-.47-3.09a1.28,1.28,0,0,1-1.19,0c-.74-.35,0-1.54-.4-2.87s.15-1.78.85-1.68,1.58.29,1.38-1.09c2.72.44,4.5-.45,4.11-2.58,1.58,1.09,3,.84,4.45-1.63.74,2,3.52,1.19,5.59,1.53s1.69,1.84,2.33,2.87,2.39.58,2.39.58C333.35,86.62,334.46,83.08,332.25,81.28Z"/><path class="cls-3" d="M311.18,83a.38.38,0,0,0-.31.16c-.19,1.12-.5,5.75,2.63,7.75A6.62,6.62,0,0,0,317,92a4.17,4.17,0,0,0,4-3,2.23,2.23,0,0,1,1,.25s.5,2.5,2.43,2.81a17.06,17.06,0,0,0,2.53.34,4.05,4.05,0,0,0,3.29-1.65C332.18,88.51,332.31,86,332,86a10.15,10.15,0,0,1-2.57.52,3.48,3.48,0,0,1-1.18-.2,8.27,8.27,0,0,0-2.77-.8,3.31,3.31,0,0,0-1.48.36,3.35,3.35,0,0,0-1.94,2.19l-.75-.13a5.08,5.08,0,0,0-1.5-2.56c-1.13-.88-4.88-.25-6.19-.88-1.08-.51-1.9-1.53-2.44-1.53Z"/><path class="cls-3" d="M312.94,85.38a6.55,6.55,0,0,0,1.23.81,7.54,7.54,0,0,0,2.79.37,6.91,6.91,0,0,1,2.39.29,3.4,3.4,0,0,1,1,1.63h0l-.21.56a2.73,2.73,0,0,1-2.64,2,4.82,4.82,0,0,1-2.55-.86c-1.65-1.05-2-3.31-2-4.8"/><path class="cls-3" d="M325.37,87.05a4.22,4.22,0,0,1,1.52.41l.57.22a3.86,3.86,0,0,0,1.32.23,5.79,5.79,0,0,0,1.35-.18,6.41,6.41,0,0,1-1.31,2.47,2.61,2.61,0,0,1-2.17,1.12,8.92,8.92,0,0,1-1.47-.18l-.57-.1c-1.06-.17-1.4-1.74-1.4-1.75l0-.26.11-.48a2,2,0,0,1,1.19-1.28,2.13,2.13,0,0,1,.91-.22"/><path class="cls-3" d="M271.64,71.29c-1.88-1.09-4.41.35-4.64,3.19-2.09,1.63.58,3,1.28,3.84s.52,3.19.4,5.11.76,9.81,9.23,10.85,11.55-8.36,10.74-10.51a2.75,2.75,0,0,0,1.4-2.43,3.11,3.11,0,0,0,1.45-4.53c.29-1.34-.93-3.89-4.82-3.83-1.8-2.44-3.58-3.87-6.56-4.42C278.2,68.22,274.43,67.75,271.64,71.29Z"/><path class="cls-3" d="M267,74.48v0c1.7-.44,2.13-.11,2.13-.11l2.59-2.88,0-.27-.05.05C269.76,70.2,267.23,71.64,267,74.48Z"/><path class="cls-3" d="M291.16,77.64a5.36,5.36,0,0,0,.81.61,3.48,3.48,0,0,0-.47-1.44c.28-1.33-.91-3.84-4.72-3.83l.47,1.12L289,77.76A1.39,1.39,0,0,1,291.16,77.64Z"/><path class="cls-3" d="M271,72.47l-.41,0a2.58,2.58,0,0,0-1.69,2.3,5.64,5.64,0,0,0,.92,3.34c.52.65,3.78,1,5.11,1a2.7,2.7,0,0,0,.49,0c.6-.12,1.89-2.17,1.89-2.17a3,3,0,0,1,1.46-.35,3.25,3.25,0,0,1,.67.07c1.29.24,1.94.6,2.22,2.05s1.73,1.45,2.7,1.69a11.28,11.28,0,0,0,2.59.39,2.3,2.3,0,0,0,2-.79,4.69,4.69,0,0,0-.69-4.87c-.92-.85-6.17-1.29-6.89-1.29h-.07c-.32,0-.77.72-1.05,1.77a2,2,0,0,0-1.09-.22,7.65,7.65,0,0,0-1.16.1,2.46,2.46,0,0,0-.77-1.89c-.75-.65-4.82-1.07-6.27-1.07Z"/><path class="cls-3" d="M271,73.47a19.9,19.9,0,0,1,5.62.83,1.48,1.48,0,0,1,.42,1.06h0s-1.63,2.48-1.9,2.72H275a14.36,14.36,0,0,1-4.36-.62,4.74,4.74,0,0,1-.67-2.6,1.76,1.76,0,0,1,.83-1.38H271"/><path class="cls-3" d="M282.2,74.85c1.39.06,4.82.48,5.45,1a3.84,3.84,0,0,1,.51,3.6c-.13.21-.57.33-1.19.33a10.3,10.3,0,0,1-2.35-.36c-.18,0-1.87-.46-2-.91-.12-.61-.78-1.6-1-2.34A1.23,1.23,0,0,1,282.2,74.85Z"/><path class="cls-3" d="M233.11,65.08c-1.64,0-4.14.46-4.31,2.38-2.5.81-2.45,3-1.57,4.48-2.1,1.22-2.74,4.13-.12,5.41-.81,2.15-.06,2.91-2.44,3.37.93,2,2.44.88,2.44.88l.87,1.45,1.17-1.4s.47,4,6.75,7.68a3.82,3.82,0,0,1,2-.17,3.72,3.72,0,0,1,1.86,1.45s4.48-2.5,5.7-6.28c0,0,2.22.29,3-.87a4.32,4.32,0,0,0,.35-2.91s2.27.23,2.21-1.69A5.3,5.3,0,0,0,250,75.78a3,3,0,0,0,.41-3.9c1.46-2.15.93-4.59-1.74-4.48-.82-2-2.16-.81-2.45.06-.7-2.5-3.37-4.31-5.23-3-1.11-1.81-2.74-1.52-3.38-.41C236.6,62.81,233.28,62.69,233.11,65.08Z"/><path class="cls-3" d="M244.7,74c.25-1-.58-1.33-1.25-2-1.16.34-2.16,0-2.08-1.41-.75.41-1.33.25-2.42-.34a2.51,2.51,0,0,1-.41,2.25c-.83.92-1.84.34-2.25-.5.75.09-.09-.83-.34-1.25-.91.09-2.16.75-1.5,2.09-.33.41-2-.42-1.5-2.5-1,.91-1.58.41-1.58.41a2.2,2.2,0,0,1-.83,2.17,2.34,2.34,0,0,1-2.42.42,6.74,6.74,0,0,0,.42,3s-1.42-.59-1.43,1a3.8,3.8,0,0,0,1.34,2.71l.84,1.25-.11.5a9.71,9.71,0,0,0,3,4.79,17.27,17.27,0,0,1-.42-2.71c-.08-1.58.41-4.08,3.58-3.58-2.08.5-2.33,2.83-.33,3.41a3.11,3.11,0,0,0,3.08-.5S240,84.89,241,84.56s1.75-1.84.25-3.42c0,0,3.17.17,3.34,2.42a13.59,13.59,0,0,0,2.66-4c1.09-2.34.17-5.75-1.66-7.67C244.87,71.64,246,72.81,244.7,74Z"/><path class="cls-3" d="M238.29,75.43A2.25,2.25,0,1,1,236,73.22,2.23,2.23,0,0,1,238.29,75.43Z"/><path class="cls-3" d="M244.29,75.72A2.3,2.3,0,1,1,242,73.56,2.23,2.23,0,0,1,244.29,75.72Z"/><path class="cls-3" d="M190.87,62.21c-2.91,1.87-2,4.25-2,4.25l1.28.7-1,1.34c-1,1.34.59,2.5-.11,3.89s-.06,3.55,1.51,3.2a10.79,10.79,0,0,0,8.73,8.09c2.5.23,1.8-1.34,4.77-2.56s3.6-3.84,4.83-4.65,2.32-5,1-8.09c1.81-.35,2.5-3,0-5.18-.7-3-5.35-5.87-8.78-6.05C193.14,56.8,190.87,62.21,190.87,62.21Z"/><path class="cls-3" d="M210,63.2c-.7-3-5.35-5.87-8.78-6.05-8-.35-10.3,5.06-10.3,5.06-2.91,1.87-2,4.25-2,4.25l1.28.7,1.37-1.77a26,26,0,0,0,4.75-1.83c3.25-.5,7.58-.42,9.16,1a51.1,51.1,0,0,0,4.5,3.82C211.76,68,212.45,65.36,210,63.2Z"/><path class="cls-3" d="M205.45,64.56c-1.58-1.42-5.91-1.5-9.16-1a26,26,0,0,1-4.75,1.83l-1.37,1.77a3.35,3.35,0,0,0,.28,1.48.69.69,0,0,0,1.34-.17c.75-.33,1-.33,1.16-1.33a2.64,2.64,0,0,0,1.5-1.42,2.06,2.06,0,0,0,2.34.5c.75,1.42,1.5.5,2.08.09a.92.92,0,0,0,1.5-.34,1.27,1.27,0,0,0,1.75.67c-.17,1.08.5,1.5,1.25,1.33a1.64,1.64,0,0,0,1.67.59c.91,1,1.25-.25,1.91-.34,1.09,1.34,1.75,1.5,2.42,1,.67.67.58-.84.58-.84A51.1,51.1,0,0,1,205.45,64.56Z"/><ellipse class="cls-3" cx="196.29" cy="68.76" rx="2.5" ry="2.54"/><path class="cls-3" d="M205.7,70.47a2.18,2.18,0,1,1-2.16-2.41A2.3,2.3,0,0,1,205.7,70.47Z"/><path class="cls-3" d="M155.74,51.91A9.8,9.8,0,0,0,151.84,62c-2.91,3.55-1.8,3.78-1.8,3.78l1.57,1.4,0,1,1.23-.17s.46,10,8.43,9,9.37-5.7,9.6-7.74c1.92-.06,2.45-.64,2.45-2-1.23.58-1.64.88-1.75-.52s1.8-.76,2.15-2.27a3.42,3.42,0,0,0-.46-2.62l-.7.93s2.67-3.78,1.1-6.8a6.75,6.75,0,0,0-7.79-3.2C165.22,49.75,159.29,49.52,155.74,51.91Z"/><path class="cls-3" d="M150,65.81l1.57,1.4,0,.83.17.19,1.07-.15v0l.2-.52a.84.84,0,0,1-1.29-.68,6.7,6.7,0,0,1-.08-2.18,6.84,6.84,0,0,1,.06-2.61C149,65.58,150,65.81,150,65.81Z"/><path class="cls-3" d="M173.37,67.32c-1.23.58-1.64.88-1.75-.52s1.8-.76,2.15-2.27a3.42,3.42,0,0,0-.46-2.62l-.7.93s2.67-3.78,1.1-6.8a6.75,6.75,0,0,0-7.79-3.2c-.7-3.09-6.63-3.32-10.18-.93a9.76,9.76,0,0,0-3.91,10,3.14,3.14,0,0,1,.25-.64c.77-1.41,1.94.25,1.78,1.9l.2,1.46.61-.61s-.77-1.7-.49-2.1.93.53.93.53l.6,0s-.84-1.17-.56-1.7,1.74-2,2.26-1.25-.77,1.29-.77,1.29l2-.77,1.58.33a1.27,1.27,0,0,0-.89-1.26,6,6,0,0,0,1.21-1.29h.61s.68,1.38.12,1.94-1,1.05-1,1.05a3,3,0,0,0,1.7-.44,4.47,4.47,0,0,0,.76-2.1h.93s0,.76.41,1,.16,1.13.16,1.13,1.77-.12,1.61-1,.08-1,.08-1,1.74,0,2.26.76-.32,2-.32,2l1.17-.2s-.93,4.16-.08,4.89c.49-1.54,1-2.83,1.94-2.46s.36,1.57-.08,2.09.2,2.51.06,3.78C172.84,69.24,173.37,68.66,173.37,67.32Z"/><path class="cls-3" d="M173.71,56a6.75,6.75,0,0,0-7.79-3.2c-.7-3.09-6.63-3.32-10.18-.93a9.7,9.7,0,0,0-4,9.42l.93-1.44s3.82-2,4-2.06a18.81,18.81,0,0,1,3.19-.88c1.31-.19,4.44.81,6.44,1.13a5,5,0,0,1,4.37,3.31c.94-.06,1.93,1.45,1.93,1.45S175.28,59.06,173.71,56Z"/><path class="cls-3" d="M160.62,63.3a2,2,0,1,1-2-2.16A2.09,2.09,0,0,1,160.62,63.3Z"/><path class="cls-3" d="M167.62,64.23a2,2,0,1,1-2-2.15A2.1,2.1,0,0,1,167.62,64.23Z"/><path class="cls-3" d="M127.12,44.68c3.9,0,8.49,7.91,8,11.46,2.27,1.28,1.34,2.74.87,3.49s0,2.56-1,2.27c.23,1.22-1.92,3.26-2.85,4.19A29.83,29.83,0,0,0,129.79,69a2.73,2.73,0,0,1-3,2.79c-3-.17-4.07-1.22-4.89-3.78-2.44-.58-5.18-3.2-5.12-8.49-2.44-2.1-2-5.76-.87-6.05a2.33,2.33,0,0,1,2,.69C117.93,50.09,121,44.62,127.12,44.68Z"/><path class="cls-3" d="M127.88,64.07c.17,1.14-.53,2.73-.89,2.65s-.17-.24-1-.69-1.59.45-1.88.37a2.85,2.85,0,0,1-.81-1.47,10.77,10.77,0,0,1,.4-1.51,4.08,4.08,0,0,0-1.67,1.18c-.52.7-.3,2.81-.22,3.39l0,0c.82,2.56,1.87,3.61,4.89,3.78a2.73,2.73,0,0,0,3-2.79C129.83,67.4,129.31,64.56,127.88,64.07Z"/><ellipse class="cls-3" cx="123.85" cy="56.26" rx="2.24" ry="2.34"/><ellipse class="cls-3" cx="129.8" cy="57.06" rx="2.24" ry="2.45"/><path class="cls-3" d="M99,85.09c-2.67-.09-8.2,2.79-9.07,6.34-2.45-2.1-4-.24-4,2-.76,2.21-.87,3.2.06,4.37,0,0-.7,3.31,1.1,4.3S89,101.9,89,101.9s-.7,7.62,4.36,8.26,8,2.15,10,.06,2.45-6,2.45-6,1,2,2.15,1.45.64-3.26,1.28-3.72,1.8-3,.76-4.43a3.65,3.65,0,0,0-3.32-4.18S104.55,85.26,99,85.09Z"/><path class="cls-3" d="M106.37,97.89c1.75-.67,3-1,3.65-.36a3.65,3.65,0,0,0-3.32-4.18A21.69,21.69,0,0,1,106.37,97.89Z"/><path class="cls-3" d="M86,93.46a9.06,9.06,0,0,0-.6,2.52c.26-.67.71-1.28,1.4-1.09A3.1,3.1,0,0,1,88.29,96s.75-2.41,1.91-2.66l-.08-.59s-.68,0-.17-1.29C87.5,89.33,86,91.19,86,93.46Z"/><ellipse class="cls-3" cx="102.62" cy="97.01" rx="2.25" ry="2.38"/><path class="cls-3" d="M97.62,96.18A2.17,2.17,0,1,1,95.45,94,2.19,2.19,0,0,1,97.62,96.18Z"/><path class="cls-3" d="M126.71,94.34a12.61,12.61,0,0,0-2.38,6.57c-.41,6,.69,7.56,2.73,8.14,0,0,1.4,8.55,7.45,8.67s9.3-6,9.3-6a1.62,1.62,0,0,0,1.75-.58c1.16.75,1.86-.93,1.86-2.1s-.06-2-.06-2l.41.46s1.61-6.15-.47-9.36a9.4,9.4,0,0,0-2.38-2.62c.17-2.5-2.62-5-6.17-4.77s-5.7.76-7.62-.76c-.64.58-.46.87-.46.87s-3.21-.11-4.08-2.21c-.81,1.17.88,3,.88,3l-1.81-1.11A3.58,3.58,0,0,0,126.71,94.34Z"/><path class="cls-3" d="M145.2,105.47c-2.5-.25-1.41,3-1.41,3l-1.67,1s1.75-4.91.25-6.58a10.17,10.17,0,0,1-1.92-4.58c-3.16,1.75-8.83,1.25-11.25-.92a12.4,12.4,0,0,0-2.33,9.25c-.5.33-1.17-.58-1.17-.58s.59-4.09-.33-4.17c-.65-.06-1,2.24-.87,4.18a3.42,3.42,0,0,0,2.56,3s1.4,8.55,7.45,8.67,9.3-6,9.3-6a1.62,1.62,0,0,0,1.75-.58C146.62,109.89,147.7,105.72,145.2,105.47Z"/><path class="cls-3" d="M133.54,104.81a2.32,2.32,0,1,1-2.29-2.67A2.5,2.5,0,0,1,133.54,104.81Z"/><path class="cls-3" d="M141.29,105.93a2.15,2.15,0,1,1-2.13-2.46A2.31,2.31,0,0,1,141.29,105.93Z"/><path class="cls-3" d="M167,114.81c.93,3.32,3.14,7.62,5.94,9s5,.93,5.87-.17a43.25,43.25,0,0,0,2.45-4l.23,1a4,4,0,0,0,.46-2.85,15.53,15.53,0,0,0,1.69-2.21l1.45,1.1a2.72,2.72,0,0,1,.47-2.56,6.91,6.91,0,0,0,1.28-3.08l1,.7.06-4.42s1.16.4,1,2.32a7.09,7.09,0,0,0-.93-4.53v-1l1.46,1.86s-1.11-6.4-4.83-7.27-3.72,1.34-3.72,1.34-.88-3.61-3.61-3.38-6.11,2.74-6.11,2.74-5.64,0-6.75,4,.24,7.85,1.11,10-.58,2.38-.58,2.38Z"/><path class="cls-3" d="M185.21,112.64c.75-.92-.34-2-.84-2.17.75-2.41-1.5-8.91-5.75-9.5s-6.75,4.42-7.08,6.17c-1-2.17.33-4.92.33-4.92-3,1.59-2.75,5.5-2.75,5.5a7.07,7.07,0,0,1-.91-2.58,15.25,15.25,0,0,1-.75,3.5l-.75-2.67s-1.67,3.92.16,6.34c-2.16-.25-1.66-5.42-1.66-5.42a9.07,9.07,0,0,0-1.12.66,17.11,17.11,0,0,0,1,4.64,2.68,2.68,0,0,0,1.09.78c1.33.42.79,1.43.81,1.84.93,3.32,3.14,7.62,5.94,9s5,.93,5.87-.17a43.25,43.25,0,0,0,2.45-4l.23,1a4,4,0,0,0,.46-2.85,15.53,15.53,0,0,0,1.69-2.21A14.69,14.69,0,0,1,185.21,112.64Z"/><path class="cls-3" d="M177.47,114.58c-1,.5-1.1.45-1.87-.1a4.2,4.2,0,0,0-4,0c-1.18.77-1.36,3.59-1.23,4.6.73-.6,2.32-3.19,3.69-2.73s2.18,0,2.27-.51c.1.87,1.42,1.23,2.37,1.37a3.59,3.59,0,0,1,2.54,2.44l.23,1a4,4,0,0,0,.46-2.85C182.06,116.81,180.06,113.85,177.47,114.58Z"/><path class="cls-3" d="M175.62,108.61a2.69,2.69,0,1,1-2.69-2.72A2.7,2.7,0,0,1,175.62,108.61Z"/><path class="cls-3" d="M182.93,110.08a2.48,2.48,0,1,1-2.47-2.75A2.62,2.62,0,0,1,182.93,110.08Z"/><path class="cls-3" d="M228.69,125a1.76,1.76,0,0,0,.45-2.2s1.41-.61.13-2.56c1-1.42,1.49-2,.27-3.18.61-1.75.68-2-.61-3,.34-1.56.48-2-1.07-2.57-.07-1.62-.14-1.89-1.63-2.23-.06-1.75-.74-2.09-1.75-2-.54-1.42-1.42-1.28-2.29-1.22-.41-1.48-1.35-1.75-2.3-1.28-.34-1.41-2-1.21-2.84-.47-.74-.74-1.61-1.42-2.69-.4a1.49,1.49,0,0,0-2.57.6c-1.41-.74-1.82,0-2,.81-1.35-.47-1.89.54-1.83,1.49-1.41-.14-1.75.6-1.75,1.82-1.22,0-1.35,1.69-1.28,3.1-1.55.41-1,2-.88,3.11-1.62.34-.67,1.82-.27,2.9-1.55.74-1.21,1.42-.47,2.57-1.29.54-.48,2.29-.07,2.63-1.48.6-.81,2.29-.27,3-.74.87-.54,1.62.88,1.89.13,1.35,2.63,2,3.1.81,1.76.67,2.57-.07,2.7-1.29,1.62-.33,2.23-.2,1.55-1.75,1.62-.68,1.08-.34,1.08-.34a6.21,6.21,0,0,0,4.32,1.55c2.84,0,3.65-.54,3.65-.54a2,2,0,0,0,.07,2.37c-.21,1.68.74,3,2.76,2.56,1.22,1.22,1.76,1.28,2.84.61,1.69-.14,2.56-1.15,1.82-2.3,1.62-1.14,2-1.75.81-2.83C229.2,126.23,229.87,125.57,228.69,125Z"/><path class="cls-3" d="M212.26,125.22a6.21,6.21,0,0,0,4.32,1.55c2.84,0,3.65-.54,3.65-.54s3-2.76,3.31-3.59a1.5,1.5,0,0,0,1.83-2c1.17-1,1.08-4.67-.42-4.83-.66-1.84-3.75-6.17-7.66-6.5s-7.42,1.33-8.5,3.91c-1.42-.41-2.75,1.34-2.59,2.67a4,4,0,0,0,.75,2s-1.58,1.08-.58,1.92a1.19,1.19,0,0,0,1.75-.09,16.23,16.23,0,0,0,4.08,5.45C212.48,125.08,212.26,125.22,212.26,125.22Z"/><path class="cls-3" d="M213.72,112a2.57,2.57,0,0,0-2.65,2.22l-2.26-.61-.36.49,2.5.83a2.79,2.79,0,0,0,2.5,2.92,3.29,3.29,0,0,0,.54,0,2.73,2.73,0,0,0,2.46-1.39l.75.09c.41,1,1.21,2.33,2.69,2.39h.2a2.94,2.94,0,0,0,2.89-1.77,13.66,13.66,0,0,0,1.66-.66l-.31-.44-1.32,0s-.22-2.9-2.7-3.17a1.67,1.67,0,0,0-.31,0c-2.21,0-2.67,2.86-2.67,2.86l-.77-.23s.14-3.38-2.54-3.58Z"/><path class="cls-3" d="M213.72,113H214c1.64.12,1.62,2.3,1.61,2.54v.11l-.08.6a2.21,2.21,0,0,1-1.49.64,1.84,1.84,0,0,1-.33,0c-1.36-.29-1.65-1.11-1.7-1.57l.11-1a1.51,1.51,0,0,1,1.65-1.33"/><path class="cls-3" d="M220,113.92h.2c1.61.18,1.81,2.17,1.81,2.25l.05.61a2,2,0,0,1-2,1.16h-.16c-.67,0-1.24-.54-1.69-1.53l.08-.48s.35-2,1.68-2"/><path class="cls-3" d="M252,111.41l-2.33-.2.27.92-2.12,1.07,1.72.92s-3.58.14-3.05,2.52,3.18,6.63,1.06,7.56h1.86l2.65,7.15s-1.33,4.11,1.59,6.76l1.33-.93.92,1.2.27-1.59,2.12,2.25.26-1.86,2.39,1.73L259.84,136l3.05,1.33-.93-1.59,2.25.53s-2.25-1.33-1.46-3.32c0,0,7.56-1.85,6.63-9.67,0,0,1.2-1.46.93-2s-1.86.66-1.86.66l2.26-2.65-1.2-.26,1.2-1.73-1.46.53s2.12-5.83-5.3-9-9.15.27-9.15.27l-.66-1.2-.93,2.39-1.72.13Z"/><path class="cls-3" d="M269.51,119l1.2-1.73-1.46.53s2.12-5.83-5.3-9-9.15.27-9.15.27l-.66-1.2-.93,2.39-1.72.13.47,1-2.33-.2.27.92-2.12,1.07,1.72.92s-3.58.14-3.05,2.52,3.18,6.63,1.06,7.56h1.86l0,.12-.29-5.46a3.91,3.91,0,0,0,3.51-1,2.47,2.47,0,0,0,.51-2.85s3.58,3.07,6.07,5.11c2.16,1.79,8.17.85,10.54.24l.95-1.12Z"/><path class="cls-3" d="M262.72,133.06l-.14-3.39-1.54-.36s-.29,1.82-1.53,1.53-1.1-1.1-1.1-1.1l-1.75-.43s-.37,1.6-1.54.8-.87-1.61-.87-1.61l-1.76.08a8.77,8.77,0,0,1-.47,2.77s-1.33,4.11,1.59,6.76l1.33-.93.92,1.2.27-1.59,2.12,2.25.26-1.86,2.39,1.73L259.84,136l3.05,1.33-.93-1.59,2.25.53S262.05,135,262.72,133.06Z"/><path class="cls-3" d="M266.14,122.86a2.58,2.58,0,1,1-2.57-2.32A2.46,2.46,0,0,1,266.14,122.86Z"/><path class="cls-3" d="M258,120.91a2.51,2.51,0,1,1-2.5-2.35A2.43,2.43,0,0,1,258,120.91Z"/><path class="cls-3" d="M289.13,130c-3.05.26-3.71-4.91,1.72-8.09s12.72-5.3,15.51-4.24c0,0,8.08-1.06,9.81,1.33s-.93,7.42-4.91,6.62l-.66.53s3.84,2.52,5.3,5.57l-2.65-.93s.13,6.1-2.25,7.82h-.53L308,141.42l-.13-1.58s-3.85,2.91-6.9,2.91-6.76-2.78-8.61-6.63l.13,1.46-1.06-.26L291,139S287.94,134.4,289.13,130Z"/><path class="cls-3" d="M306,124.18a25.62,25.62,0,0,1,4.65,2l.65-.52c4,.8,6.63-4.24,4.91-6.62s-9.81-1.33-9.81-1.33c-2.79-1.06-10.07,1.06-15.51,4.24s-4.77,8.35-1.72,8.09l10-6.56A49.62,49.62,0,0,1,306,124.18Z"/><path class="cls-3" d="M310.93,137.14c.13-1.38-.62-1.56-.62-1.56a6.08,6.08,0,0,0,1.69-3.32c.18-1.87-1-1.25-1-1.25a1,1,0,0,0-1.13-1.06c-1.25.06-3.19,0-3.75-.75s-6.75-.19-9.19-3.37c-.5,3.5-7.56,4.56-7.56,4.56l.81,3s-.81,1.06.07,1.75a1.45,1.45,0,0,0,1.5.37l.56.32.25.77c1.92,3.59,5.44,6.15,8.36,6.15s6.9-2.91,6.9-2.91l1.18-1.76S310.81,138.51,310.93,137.14Z"/><path class="cls-3" d="M303.69,128.66a3,3,0,0,0-.77,2,2.58,2.58,0,1,0,5.14,0,3.23,3.23,0,0,0-.1-.76,2.77,2.77,0,0,1-1.84-.7C305.92,128.93,305,128.83,303.69,128.66Z"/><path class="cls-3" d="M301.93,129.64a3.56,3.56,0,0,0-.25-1.32,9.62,9.62,0,0,1-3.78-1.55,3.29,3.29,0,0,0-1.54,2.87,2.81,2.81,0,1,0,5.57,0Z"/><path class="cls-3" d="M277.63,163.09c4.4-1.69,14.79-3.46,20.57,2.16a26.27,26.27,0,0,0-5.16-.92s4.62,2.15,5.31,5.31c0,0-2.85-1.93-4.24-2.08,0,0,3.7,3,3.7,5.93a5.37,5.37,0,0,0-3.39-2.31l-.23,4.85s1.39.62,1.16,1.15-1.39,1.26-2.08,2.09a1.91,1.91,0,0,0-.46.84c-.16,1-.16,3.54-1,3.7a3.38,3.38,0,0,1-1.84-.39s1.23,4.16-.24,4.93l-1.92-1.16s.46,4.16-3.7,4-7.26-1.45-9.78-6.08a24.76,24.76,0,0,1-1.69-4.32c-1.62,1.08-3-.07-2.16-2.77,0,0-2.69-2.23-.07-6.08,0,0-.69-.46-1.54.54a3.52,3.52,0,0,1,1.61-3.93l-1.38.23a3.66,3.66,0,0,1,3.54-3.7l-1.77-.61s1.77-1.54,3.39-.62a5.25,5.25,0,0,1,2.54-3.23Z"/><path class="cls-3" d="M290.79,172.22a4.64,4.64,0,0,1,1.17-1.08c-.84-1.5-2.67-2.5-7.67-.5-1.75-1.83-5.75-2.33-9.42-1.83,1.09,0,1.25,1.25,2,2.25a8.86,8.86,0,0,1-2,1.83c-1.25.83-.25,3.92-.25,3.92l-1.16,1.5s-.5.08-.75-1.92-.84-3.17-2.25-2.92,0,4.56,0,4.56c-.84,2.7.54,3.85,2.16,2.77a24.76,24.76,0,0,0,1.69,4.32c2.52,4.63,5.63,5.92,9.78,6.08s3.7-4,3.7-4l.14.08-.15-.46-.75.58-.08-.67-.75.59-.09-.67-.66.5-.25-1-.75.92a2.21,2.21,0,0,1-.34-.84c-.08-.5-.91.34-.91.34l-.09-.92-1.25,1.08L282,186l-.92.09-.83-.42-.67.08v-.58l-1.41.58-1.17-.83s.42.92-1.08,1.42c-1.25-2.92,1.25-4.75,3.33-4.67a1,1,0,0,0,1.58.33s.75.5,2,1.25,2.92-.41,2.92-.41.08.33,1.5.08c.91-1.08,2.67.53,2.67.53s1.91-4.45,2.75-6.53S290.79,172.22,290.79,172.22Z"/><path class="cls-3" d="M281.62,175.43a2.79,2.79,0,1,1-2.79-2.79A2.79,2.79,0,0,1,281.62,175.43Z"/><path class="cls-3" d="M290,176.85a3,3,0,1,1-3-2.79A2.88,2.88,0,0,1,290,176.85Z"/><path class="cls-3" d="M223.89,168.94c-.08,3.39,2.77,3.62,2.77,3.62s-.46,6.55,2.47,9.4,6,2.85,10.62,2.31,5.78-7.93,5.78-7.93c4.08,1,4-6.16,3.31-6.78a1.33,1.33,0,0,0-1.54-.08l.08-1.77c0-3,3.15-5.77,3.15-5.77s.23-4.55-9.62-7.47-14.71,2.62-14.71,2.62l.31,1c1.23,1.84.69,7.62.69,7.62C225.2,164.17,224,165.55,223.89,168.94Z"/><path class="cls-3" d="M240.91,154.47c-9.86-2.93-14.71,2.62-14.71,2.62l.31,1c1,1.49.83,5.54.73,7,.63-1.29,3.73-7.3,6.72-7,3.33.33,4.33,2.5,4.33,2.5s2.92-1.83,4.75-.58,4.42,3.91,4.25,9.16h0l.07-1.5c0-3,3.15-5.77,3.15-5.77S250.76,157.39,240.91,154.47Z"/><path class="cls-3" d="M237.12,171.22a4.08,4.08,0,0,1-5.5,1.5c-3.66-1.75-1.91-6.33-1.91-6.33s1.16,6.25,6.75,4.08c0,0,.58.92,2.33.34a4.52,4.52,0,0,0,7.08-1.09c.17,4-1.83,5.09-4.41,4.67a4.14,4.14,0,0,1-3.25-2.83S237.21,171.56,237.12,171.22Z"/><path class="cls-3" d="M238,164.81a2.68,2.68,0,1,1-2.67-2.42A2.55,2.55,0,0,1,238,164.81Z"/><ellipse class="cls-3" cx="241.75" cy="165.93" rx="2.54" ry="2.63"/><path class="cls-3" d="M185,169.41a11.4,11.4,0,0,0,6.52,5.17c4.34,1.14,8.27-2.17,8.27-2.17l4.14,3.21c3.72-3.41,2.48-14.69,2.48-14.69,1.14-1.13.31-4.45.31-4.45-2.17,4.24-2.58-5-9.2-7.34s-12,3.62-12,3.62c-11.27,1.86-6.62,19.14-6.62,19.14Z"/><path class="cls-3" d="M192.18,156.64c-2-3.31-3.5-2.88-3.5-2.88-.75,4.94-6.18,3.07-6.37,7.38-1.81-1.19-2.51,3.28-.56,4.31,1.06.56,1.25.19,1.25.19s.89,1.92,2,3.77a11.4,11.4,0,0,0,6.52,5.17c4.34,1.14,8.27-2.17,8.27-2.17,1.67-1.9,4.11-6.33,3.8-10.4C201.06,162.64,194.18,160,192.18,156.64Z"/><path class="cls-3" d="M192.06,161.89a2.85,2.85,0,1,1-2.85-2.75A2.8,2.8,0,0,1,192.06,161.89Z"/><path class="cls-3" d="M200.87,164.08a2.66,2.66,0,1,1-2.66-2.63A2.64,2.64,0,0,1,200.87,164.08Z"/><path class="cls-3" d="M139.78,146.25s-1.56-1.14-1.76.2-.73,4.66,0,5.07l.72.42s-.52,12.09-2,12.82l.82.41-1.24,1.66a4.63,4.63,0,0,0,3.52,0l-.21,1.45a7.88,7.88,0,0,0,3.11-.83l-1,1.55s2.48,0,2.9-1l.1,2.8,2.69-1.55.41,3.1,2-1.86,2.38,1.55-.31-2.59s2.48,1.76,3.93,1.87l-1.45-2.18s3.62,2.38,5.17,2.28l-1.24-2.17a3.79,3.79,0,0,0,2.79,1.13l-1-1.55a4.17,4.17,0,0,0,2,.42s-2.48-.93-1.45-11.79l.32-2.18s.82.11.72-1a3.52,3.52,0,0,1,.93-2.59.91.91,0,0,0-.83-1.44s-1.24-10.45-10.55-11.17S140.71,144.28,139.78,146.25Z"/><path class="cls-3" d="M160,155.72c-.4,1.35-.9,3-1.57,2.52-.5,1.85-1.62,2.13-1.9,1.34-.51,1.8-2,1.79-2.3,1.07-.61,1-1.4.72-1.79.16-1,1.29-3,1.07-3.24.06l-1.74-.39s-.22.89-1.45.67c-2.23-.4-1.4-2.07-2.07-2s-.9-.23-.62-1c-.39.23-.95.4-.9-.83-.67.56-1.06.5-1.45-.62-.73.56-1.18.11-1-.78-1-.12-.23-3.47.05-4.59s.68-4.37.68-4.37l-.58-1.6c-.13.33-.24.62-.35.86a6.64,6.64,0,0,1-1,5.69s-.52,12.09-2,12.82l.82.41-1.24,1.66a4.63,4.63,0,0,0,3.52,0l-.21,1.45a7.88,7.88,0,0,0,3.11-.83l-1,1.55s2.48,0,2.9-1l.1,2.8,2.69-1.55.41,3.1,2-1.86,2.38,1.55-.31-2.59s2.48,1.76,3.93,1.87l-1.45-2.18s3.62,2.38,5.17,2.28l-1.24-2.17a3.79,3.79,0,0,0,2.79,1.13l-1-1.55a4.17,4.17,0,0,0,2,.42s-2.48-.93-1.45-11.79l.3-2.06a4.67,4.67,0,0,1,1.16-5.17.85.85,0,0,0-.32,0C159.14,151.74,160.35,154.38,160,155.72Z"/><path class="cls-3" d="M149.37,150.89a2.89,2.89,0,1,1-2.89-2.95A2.92,2.92,0,0,1,149.37,150.89Z"/><path class="cls-3" d="M156.37,151.73a2.63,2.63,0,1,1-2.62-2.84A2.74,2.74,0,0,1,156.37,151.73Z"/><path class="cls-3" d="M102.45,131.65s-3.88-.1-3.19,2-1.29,4.38-2,2.89c0,0-.8.7.2,1.69,0,0-1.4.6-1.3,1.7a7.17,7.17,0,0,0,1.6,2.79s-2.2,1.5-2.69.2c0,0,.59,1.79,1.89,2.19s.8,3.69-.4,3.09-.8.9.9,1.1a5.05,5.05,0,0,1-1.2,2c-.79.69.1,1.89,1,1.79s.6,1.89,1,2.09.19-2.49,1.09-1.89,2.1,2,.7,2.49A3.08,3.08,0,0,1,98,156l2.49.9,2.39,1.19s-1-1.29.1-1.29.8,3-1.49,2.89a2,2,0,0,0,2.89-.7l1.2,1.8s.49-2.6,1.69-2.4c0,0,.7,2-.5,2.2a1.73,1.73,0,0,0,2.3-1.4s.79,1.2,1.79.8c0,0-1.5-2.2,0-2.1,0,0,1.79.1,1.1,2.2a1.73,1.73,0,0,0,1.39-1.8s1.8.7,2.29-.89c0,0-1.79-1.9-.29-2.2s.69.9.69.9,2-.3,1.7-2.09a1.76,1.76,0,0,0,1.79-1.8s-1.69.4-1.09-.8,2.69-3,1.29-6.38c0,0,1.6-1.69.2-3.09,0,0,2,.1,1.4-1.39,0,0-1.3,1.09-1.5-.2a4.74,4.74,0,0,1,.8-2.79,3.38,3.38,0,0,0-2.49-3.49,2.77,2.77,0,0,0-3.09-2.7s-1.9-1.29-3.39-.49c0,0-2.4-1.9-4.09-.8C107.54,130.06,102.55,126.47,102.45,131.65Z"/><path class="cls-3" d="M104.79,135.72a2.88,2.88,0,0,0,1.66,1.25c-.08-1.16-.91-2.41.25-2.58a4,4,0,0,1,3.84,1.58c1.5-1.08,4.16.09,3.5,1.09a2.57,2.57,0,0,0,1.66,1s-.08,1.66.42,1.91,1.25,3.67.92,5.17-1.75.83-1.75.25c-.09,2.25,1,3.16,2.33,2.25-.83,2.67-4.75,5.5-4.75,5.5l-.5-.83s-1.83,3.24-3.5,2.58a1.39,1.39,0,0,1-.67-2.17s-1.25,1.42-2.25.84a2,2,0,0,1-1-1.59s-1.16,2.83-2.58,1.42a8.23,8.23,0,0,1-1.92-3.33,2.55,2.55,0,0,1-2-3.5c.84-3.09,1-2.42,1-2.42s-1.83-1.42-.5-2.17,3.84-2.75,2.42-4.83C103.54,137.39,104.12,137.06,104.79,135.72Z"/><path class="cls-3" d="M108.62,142.26a2.84,2.84,0,1,1-2.83-2.7A2.77,2.77,0,0,1,108.62,142.26Z"/><ellipse class="cls-3" cx="112.45" cy="143.31" rx="2.5" ry="2.58"/><path class="cls-3" d="M55,131.65c-.3,1.7,2.19,2.79,2.19,2.79a10.62,10.62,0,0,0-1.3,10c1.1,2.7,4.89,2.5,6.88,1.4,0,0-.1,2.29,4.79,3.09s6.68-2.19,6.68-2.19c4,3.79,5.78-.2,5.78-.2-2.69.1-3-4.39-2.19-4.59s.59-2.89.59-2.89,3.2,0,3.29-2.59-3.78-4.69-3.78-4.69,1-9-8.78-9.37-9,6-9,6C56.29,129,55.29,130,55,131.65Z"/><path class="cls-3" d="M77.83,141.92l-1.46-.11a20.52,20.52,0,0,1-2.13,4.9c4,3.79,5.78-.2,5.78-.2C77.33,146.61,77,142.12,77.83,141.92Z"/><path class="cls-3" d="M81.71,136.44c.11-2.59-3.78-4.69-3.78-4.69s1-9-8.78-9.37-9,6-9,6c-3.89.6-4.89,1.6-5.18,3.29s2.19,2.79,2.19,2.79c3.23-4.19,7.76-3.05,12.6-2.22a13.15,13.15,0,0,1,7.08,3.25l.08,2.84,1.47.72S81.62,139,81.71,136.44Z"/><path class="cls-3" d="M63.2,144.39c-1.5.91-2.58.08-3.66-.5s-1.09-3.83-1.09-3.83l-1,.25.17-2.67L60,132.17a7.52,7.52,0,0,0-2.76,2.27,10.62,10.62,0,0,0-1.3,10c1.1,2.7,4.89,2.5,6.88,1.4C63.42,145.23,63.62,144.89,63.2,144.39Z"/><path class="cls-3" d="M67,136.26a2.67,2.67,0,1,1-2.67-2.54A2.61,2.61,0,0,1,67,136.26Z"/><path class="cls-3" d="M74.29,137.93a2.21,2.21,0,1,1-2.21-2.29A2.25,2.25,0,0,1,74.29,137.93Z"/></g></g></svg>