<svg xmlns="http://www.w3.org/2000/svg" viewBox="0 0 357.21 335.27"><defs><style>*{vector-effect:non-scaling-stroke}.cls-1{isolation:isolate;}.cls-10,.cls-2,.cls-3{fill:#fff;}.cls-2,.cls-3,.cls-4,.cls-5,.cls-6,.cls-8{stroke:#000000;stroke-miterlimit:10;stroke-width:1.5px;}.cls-3,.cls-4,.cls-5{stroke-width:0.5px;}.cls-4,.cls-5,.cls-8{fill:none;}.cls-5,.cls-7{mix-blend-mode:multiply;}.cls-6,.cls-9{fill:#000000;}</style></defs><g class="cls-1"><g id="Layer_2" data-name="Layer 2"><g id="Layer_1-2" data-name="Layer 1"><path class="cls-2" d="M11.18,184.59C.7,173.12-5.28,160.65,8.68,139.21S66.54,68.88,91,50.43s57.59-35.16,80.79-42.89c16.46-5.49,41.9,7,45.39,11.47s9.05,20.76,11,22.94c7.48,8.48,32.92,20.45,45.39,23.94,16.45,1.5,30.92,0,37.4,1.5s13,5,17,7.48,20.94,10.47,24.94,18.45,6.48,18-.5,24.94c1.49,10-.5,14.46-.5,14.46s4,7,2.49,10-7.48,6.48-7.48,6.48-2,14-4.49,16.46-10,6.48-16,8c-14,35.41-36.87,105.3-68.33,138.65-24.93,26.43-54.62,35.36-73.31-5.49-13.47-29.42-4-64.34-14.46-95.26-14.47-11-30.93-18-35.91-24.93s-12.47-20-12.47-20-12-5.49-18.45-5.49C94.47,173.62,49.58,203.54,11.18,184.59Z"/><path class="cls-3" d="M121.57,47.82c4.58,11.61,22.79,15.3,40.66,8.25s28.66-22.19,24.07-33.8S163.52,7,145.64,14,117,36.21,121.57,47.82Z"/><path class="cls-2" d="M174.76,70.88c-1.83-4.64-14.37-13.07-17.17-14.15-8.39-3.24-20.58-2.77-32.76,2-16.36,6.46-27.4,18.65-27.38,29.17,0,1.75.13,21.59,2.21,26.87"/><path class="cls-4" d="M99.66,114.81c5.48,13.88,26.73,15.3,47.48,3.17s33.1-33.21,27.62-47.1"/><path class="cls-4" d="M326.38,173.62c6-1.5,13.47-5.49,16-8s4.49-16.46,4.49-16.46,6-3.49,7.48-6.48-2.49-10-2.49-10,2-4.49.5-14.46c7-7,4.49-17,.5-24.94s-20.95-16-24.94-18.45-10.47-6-17-7.48-20.95,0-37.4-1.5C261.05,62.4,235.61,50.43,228.13,42c-1.92-2.18-7.48-18.45-11-22.94s-28.93-17-45.39-11.47C148.57,15.27,115.41,32,91,50.43s-68.33,67.33-82.3,88.78c-7.93,12.17-9.42,21.45-7.31,29.3,1.07-5.37,3.51-9.81,5.82-11.35,4.49-3,67.33-35.91,91.77-30.42s73.81,39.4,78.3,53.36c3.87,12.05.69,102.41,17,142.37,18.34,21.92,42.73,12.08,63.75-10.2C289.51,278.92,312.42,209,326.38,173.62Z"/><path class="cls-5" d="M352.32,118.26s-9.84,12.81-29.18,55.36c-18.61,40.92-33.51,89.84-64.59,126-29.94,34.88-46.17,30.82-62,25.28"/><path class="cls-6" d="M103.45,161.15c6.48,0,18.45,5.49,18.45,5.49s7.48,13,12.47,20,21.44,14,35.91,24.93c10.47,30.92,1,65.84,14.46,95.26a73.35,73.35,0,0,0,7.73,13.36c-16.36-33.62-13.53-109.56-19.56-129.66-6.3-21-60.42-54.54-81-55.8-13.15-.8-49.5,15.94-60.83,21.4s-21,11.74-21.4,18a21.59,21.59,0,0,0,2.54,11C50.41,203,94.55,173.5,103.45,161.15Z"/><g class="cls-7"><path class="cls-4" d="M337,80c-3.16-1.85-6.06-3.38-7.91-4.43h0c10.75,10.75,21.19,18.22,23.19,42.66a14.93,14.93,0,0,0,2.94-4.14C352.89,96.13,345.43,88.21,337,80Z"/></g><path class="cls-8" d="M128,34.46c2.86,7.24,15.07,9.21,27.28,4.39S175.08,24.26,172.22,17s-15.07-9.21-27.28-4.39S125.16,27.21,128,34.46Z"/><path class="cls-9" d="M155.3,38.85c9.63-3.8,16.38-10.7,17.39-17-3.15-6.9-14.6-8.9-25.94-4.43s-18.18,13.55-16,20.7C135.71,42.21,145.5,42.72,155.3,38.85Z"/><path class="cls-4" d="M160.23,147.75c6.17,15.63,30,20.88,53.18,11.73s37-29.25,30.82-44.89"/><path class="cls-2" d="M244.23,114.59c-6.17-15.63-30-20.88-53.17-11.72s-37,29.25-30.83,44.88"/><path class="cls-4" d="M229.16,84.7c.87,3.89,5.67,6.12,10.71,5s8.42-5.22,7.54-9.11-5.67-6.13-10.71-5S228.28,80.8,229.16,84.7Z"/><path class="cls-8" d="M253.05,98.48c1.21,5.37,8.2,8.37,15.6,6.7s12.43-7.38,11.22-12.75-8.19-8.36-15.6-6.69S251.84,93.11,253.05,98.48Z"/><path class="cls-8" d="M251.6,129.35c2,5.12,9.38,7,16.45,4.23s11.15-9.19,9.14-14.31-9.38-7-16.45-4.24S249.58,124.23,251.6,129.35Z"/><path class="cls-8" d="M293.26,91.05c.43,5.49,6.91,9.46,14.48,8.87s13.36-5.51,12.94-11-6.91-9.46-14.48-8.87S292.84,85.56,293.26,91.05Z"/><path class="cls-8" d="M293,118.83c-.34,6.07,5.73,11.36,13.57,11.81s14.48-4.11,14.83-10.18-5.72-11.36-13.56-11.81S293.3,112.76,293,118.83Z"/><path class="cls-10" d="M194,78.72c2.73,6.92,14.14,8.89,25.49,4.41s18.34-13.72,15.61-20.63-14.14-8.89-25.49-4.41S191.22,71.81,194,78.72Z"/><path class="cls-4" d="M193.22,78c2.73,6.91,14.15,8.88,25.49,4.4s18.34-13.71,15.61-20.63-14.13-8.88-25.48-4.4S190.49,71.09,193.22,78Z"/><path class="cls-4" d="M196.56,76.92c2.25,5.71,11.78,7.29,21.29,3.54S233.24,69,231,63.33s-11.78-7.28-21.29-3.53S194.31,71.22,196.56,76.92Z"/><path class="cls-6" d="M195,106.84c-12.49,4.94-20.12,15.47-17.52,23.91a11.78,11.78,0,0,1-1.83-2c4.81,6.62,17.19,8.24,29.45,3.41,10.74-4.25,18.17-12.18,19.16-19.55C220.55,104.46,207.63,101.85,195,106.84Z"/><path class="cls-8" d="M195,106.84c12.64-5,25.57-2.38,29.26,5.79a11.33,11.33,0,0,0-.64-5.69c-3.38-8.56-17.15-11.15-30.76-5.78S171,117.83,174.32,126.4a11.18,11.18,0,0,0,3.15,4.35C174.87,122.31,182.5,111.78,195,106.84Z"/><path class="cls-4" d="M180.86,57.58c.8,3.56,5.2,5.61,9.82,4.57s7.7-4.78,6.9-8.34-5.2-5.61-9.81-4.57S180.06,54,180.86,57.58Z"/><path class="cls-9" d="M170.79,114.09c3.5,8.86,16.68,12,29.44,6.92S220.5,104.71,217,95.85s-16.68-11.95-29.44-6.91S167.3,105.24,170.79,114.09Z"/><path class="cls-9" d="M125.09,24c3,7.5,14.63,9.91,26.08,5.39s18.32-14.25,15.36-21.75-14.63-9.9-26.07-5.38S122.13,16.53,125.09,24Z"/><path class="cls-4" d="M200.67,10c6.18,2.86,8.08,5.31,8.51,7,.5,2,0,15,2,18s46.39,29.92,57.36,31.42c5.83.79,18.29.6,29,.25"/><path class="cls-2" d="M351.82,132.72S337.9,143,326.38,173.62"/><path class="cls-8" d="M100.82,89.93c3.87,9.81,20.35,12.5,36.81,6s26.65-19.71,22.78-29.52-20.35-12.5-36.8-6S97,80.12,100.82,89.93Z"/><path class="cls-2" d="M159.66,69.94c-.58-1.48-3-5.56-3.37-6.38-3.26-8.27-17.62-10.35-32.07-4.65S100.7,76,104,84.22c.59,1.47,3,5.55,3.37,6.38C110.59,98.87,125,101,139.4,95.24S162.92,78.21,159.66,69.94Z"/><path class="cls-4" d="M120.6,60.51c4.27,2.22,11.28,2.13,18.32-.64a32.11,32.11,0,0,0,6.78-3.66"/><path class="cls-4" d="M112.45,91.05A31,31,0,0,1,121,86c8.1-3.2,16.15-2.81,20,.53"/><path class="cls-4" d="M106.89,83.63c4.9-3.94,7.36-8.83,5.82-12.73a7.08,7.08,0,0,0-2.6-3.18"/><path class="cls-4" d="M153.71,59.88c-4.82,3.93-7.22,8.77-5.7,12.64a7.67,7.67,0,0,0,4.05,4"/></g></g></g></svg>