<?xml version="1.0" encoding="utf-8"?>
<!-- Generator: Adobe Illustrator 25.2.0, SVG Export Plug-In . SVG Version: 6.00 Build 0)  -->
<svg version="1.1" id="Layer_1" xmlns="http://www.w3.org/2000/svg" xmlns:xlink="http://www.w3.org/1999/xlink" x="0px" y="0px"
	 viewBox="0 0 600 600" style="enable-background:new 0 0 600 600;" xml:space="preserve">
<style type="text/css">
	*{vector-effect:non-scaling-stroke}
	.st0{fill:#FFFFFF;stroke:#000000;stroke-width:1.5;stroke-miterlimit:10;}
	.st1{fill:#FFFFFF;stroke:#000000;stroke-width:0.5;stroke-miterlimit:10;}
	.st2{fill:none;stroke:#000000;stroke-width:0.5;stroke-miterlimit:10;}
	.st3{stroke:#000000;stroke-width:1.5;stroke-miterlimit:10;}
	.st4{fill:none;stroke:#000000;stroke-width:1.5;stroke-miterlimit:10;}
	.st5{fill:#FFFFFF;}
</style>
<g>
	<g id="Layer_2_1_">
		<g id="Layer_1-2">
			<path class="st0" d="M20.9,328.7C3.4,309.5-6.5,288.8,16.7,253s96.4-117.2,137.2-148s96-58.6,134.6-71.5
				c27.4-9.1,69.8,11.7,75.6,19.1s15.1,34.6,18.3,38.2c12.5,14.1,54.9,34.1,75.6,39.9c27.4,2.5,51.5,0,62.3,2.5s21.7,8.3,28.3,12.5
				s34.9,17.4,41.6,30.7c6.7,13.3,10.8,30-0.8,41.6c2.5,16.7-0.8,24.1-0.8,24.1s6.7,11.7,4.1,16.7c-2.5,5-12.5,10.8-12.5,10.8
				s-3.3,23.3-7.5,27.4S556,307.8,546,310.3c-23.3,59-61.4,175.5-113.9,231.1c-41.5,44-91,58.9-122.2-9.1
				c-22.4-49-6.7-107.2-24.1-158.8c-24.1-18.3-51.5-30-59.8-41.5s-20.8-33.3-20.8-33.3s-20-9.1-30.7-9.1
				C159.7,310.4,84.9,360.2,20.9,328.7z"/>
			<path class="st1" d="M204.9,100.7c7.6,19.3,38,25.5,67.8,13.7c29.8-11.7,47.8-37,40.1-56.3c-7.6-19.3-38-25.4-67.8-13.8
				S197.2,81.4,204.9,100.7z"/>
			<path class="st1" d="M293.5,139.2c-3-7.7-23.9-21.8-28.6-23.6c-14-5.4-34.3-4.6-54.6,3.3c-27.3,10.8-45.7,31.1-45.6,48.6
				c0,2.9,0.2,36,3.7,44.8"/>
			<path class="st2" d="M168.4,212.4c9.1,23.1,44.5,25.5,79.1,5.3s55.2-55.3,46-78.5"/>
			<path class="st2" d="M546.2,310.4c10-2.5,22.4-9.1,26.7-13.3c4.2-4.2,7.5-27.4,7.5-27.4s10-5.8,12.5-10.8s-4.1-16.7-4.1-16.7
				s3.3-7.5,0.8-24.1c11.7-11.7,7.5-28.3,0.8-41.6c-6.6-13.2-34.9-26.7-41.6-30.7c-6.6-4.1-17.4-10-28.3-12.5
				c-10.9-2.5-34.9,0-62.3-2.5c-20.8-5.7-63.2-25.7-75.6-39.7c-3.2-3.6-12.5-30.7-18.3-38.2c-5.9-7.5-48.2-28.3-75.6-19.1
				c-38.6,12.8-93.9,40.7-134.6,71.4S40,217.3,16.8,253C3.5,273.3,1.1,288.8,4.6,301.9c1.8-8.9,5.8-16.3,9.7-18.9
				c7.5-5,112.2-59.8,152.9-50.7s123,65.7,130.5,88.9c6.4,20.1,1.1,170.7,28.3,237.3c30.6,36.5,71.2,20.1,106.2-17
				C484.7,485.9,522.9,369.3,546.2,310.4z"/>
			<path class="st2" d="M589.4,218.1c0,0-16.4,21.3-48.6,92.3c-31,68.2-55.8,149.7-107.6,210c-49.9,58.1-76.9,51.4-103.3,42.1"/>
			<path class="st3" d="M174.7,289.6c10.8,0,30.7,9.1,30.7,9.1s12.5,21.7,20.8,33.3c8.3,11.7,35.7,23.3,59.8,41.5
				c17.4,51.5,1.7,109.7,24.1,158.8c3.5,7.9,7.8,15.3,12.9,22.3c-27.3-56-22.5-182.6-32.6-216.1c-10.5-35-100.7-90.9-135-93
				c-21.9-1.3-82.5,26.6-101.4,35.7s-35,19.6-35.7,30c-0.2,6.4,1.2,12.7,4.2,18.3C86.3,359.3,159.8,310.2,174.7,289.6z"/>
			<g>
				<path class="st4" d="M563.9,154.4c-5.3-3.1-10.1-5.6-13.2-7.4l0,0c17.9,17.9,35.3,30.4,38.6,71.1c2-2,3.7-4.3,4.9-6.9
					C590.4,181.2,577.9,168,563.9,154.4z"/>
			</g>
			<path class="st4" d="M215.6,78.5c4.8,12.1,25.1,15.3,45.5,7.3s33-24.3,28.2-36.4S264.2,34,243.8,42S210.8,66.4,215.6,78.5z"/>
			<path d="M261.1,85.8c16-6.3,27.3-17.8,29-28.3c-5.2-11.5-24.3-14.8-43.2-7.4s-30.3,22.6-26.7,34.5
				C228.4,91.4,244.7,92.2,261.1,85.8z"/>
			<path class="st2" d="M269.3,267.3c10.3,26,50,34.8,88.6,19.5c38.6-15.2,61.7-48.7,51.4-74.8"/>
			<path class="st2" d="M409.3,212c-10.3-26-50-34.8-88.6-19.5s-61.7,48.7-51.4,74.8"/>
			<path class="st2" d="M384.2,162.2c1.4,6.5,9.4,10.2,17.8,8.3s14-8.7,12.6-15.2s-9.4-10.2-17.8-8.3S382.7,155.7,384.2,162.2z"/>
			<path class="st2" d="M424,185.1c2,8.9,13.7,13.9,26,11.2c12.3-2.8,20.7-12.3,18.7-21.2s-13.6-13.9-26-11.1
				C430.3,166.7,422,176.2,424,185.1z"/>
			<path class="st2" d="M421.6,236.6c3.3,8.5,15.6,11.7,27.4,7s18.6-15.3,15.2-23.8s-15.6-11.7-27.4-7.1
				C425,217.3,418.2,228.1,421.6,236.6z"/>
			<path class="st2" d="M491,172.8c0.7,9.1,11.5,15.8,24.1,14.8s22.3-9.2,21.6-18.3s-11.5-15.8-24.1-14.8
				C499.9,155.4,490.3,163.6,491,172.8z"/>
			<path class="st2" d="M490.6,219.1c-0.6,10.1,9.5,18.9,22.6,19.7c13.1,0.7,24.1-6.8,24.7-17s-9.5-18.9-22.6-19.7
				C502.2,201.3,491.1,208.9,490.6,219.1z"/>
			<path class="st5" d="M325.6,152.2c4.5,11.5,23.6,14.8,42.5,7.3s30.6-22.9,26-34.4s-23.6-14.8-42.5-7.3
				C332.7,125.3,320.9,140.7,325.6,152.2z"/>
			<path class="st2" d="M324.3,151c4.5,11.5,23.6,14.8,42.5,7.3s30.6-22.8,26-34.4s-23.5-14.8-42.5-7.3
				C331.4,124.1,319.7,139.5,324.3,151z"/>
			<path class="st4" d="M329.8,149.2c3.7,9.5,19.6,12.1,35.5,5.9s25.6-19.1,21.9-28.5s-19.6-12.1-35.5-5.9S326.1,139.7,329.8,149.2z
				"/>
			<path class="st3" d="M327.2,199.1c-20.8,8.2-33.5,25.8-29.2,39.8c-1.1-1-2.2-2.1-3-3.3c8,11,28.6,13.7,49.1,5.7
				c17.9-7.1,30.3-20.3,31.9-32.6C369.8,195.1,348.3,190.8,327.2,199.1z"/>
			<path class="st4" d="M327.2,199.1c21.1-8.3,42.6-4,48.8,9.6c0.5-3.2,0.1-6.5-1.1-9.5c-5.6-14.3-28.6-18.6-51.3-9.6
				c-22.7,8.9-36.4,27.8-30.9,42.1c1.1,2.8,2.9,5.3,5.2,7.2C293.7,224.9,306.4,207.3,327.2,199.1z"/>
			<path class="st2" d="M303.7,117c1.3,5.9,8.7,9.3,16.4,7.6s12.8-8,11.5-13.9s-8.7-9.3-16.3-7.6C307.5,104.8,302.3,111,303.7,117z"
				/>
			<path d="M286.9,211.2c5.8,14.8,27.8,20,49.1,11.5c21.3-8.5,33.8-27.2,27.9-41.9c-5.8-14.8-27.8-19.9-49.1-11.5
				C293.6,177.6,281.1,196.4,286.9,211.2z"/>
			<path d="M210.7,61c5,12.5,24.4,16.5,43.5,9s30.5-23.7,25.6-36.2s-24.4-16.5-43.4-9S205.8,48.6,210.7,61z"/>
			<path class="st2" d="M336.7,37.7c10.3,4.8,13.5,8.8,14.2,11.7c0.8,3.3,0,25,3.3,30s77.3,49.9,95.6,52.4c9.7,1.3,30.5,1,48.3,0.4"
				/>
			<path class="st0" d="M588.6,242.2c0,0-23.2,17.1-42.4,68.2"/>
			<path class="st4" d="M170.3,170.9c6.4,16.3,33.9,20.8,61.3,10s44.4-32.8,38-49.2c-6.4-16.3-33.9-20.8-61.3-10
				S163.9,154.6,170.3,170.9z"/>
			<path class="st0" d="M268.3,137.6c-1-2.5-5-9.3-5.6-10.6c-5.4-13.8-29.4-17.2-53.4-7.7s-39.2,28.5-33.7,42.2
				c1,2.4,5,9.2,5.6,10.6c5.4,13.8,29.4,17.3,53.4,7.7S273.8,151.4,268.3,137.6z"/>
			<path class="st2" d="M203.2,121.9c7.1,3.7,18.8,3.5,30.5-1.1c4-1.6,7.8-3.6,11.3-6.1"/>
			<path class="st2" d="M189.7,172.8c4.3-3.6,9.1-6.4,14.2-8.4c13.5-5.3,26.9-4.7,33.3,0.9"/>
			<path class="st2" d="M180.4,160.4c8.2-6.6,12.3-14.7,9.7-21.2c-0.9-2.2-2.4-4-4.3-5.3"/>
			<path class="st2" d="M258.4,120.8c-8,6.5-12,14.6-9.5,21.1c1.3,3,3.7,5.4,6.7,6.7"/>
		</g>
	</g>
</g>
</svg>
