<?xml version="1.0" encoding="utf-8"?>
<!-- Generator: Adobe Illustrator 25.2.0, SVG Export Plug-In . SVG Version: 6.00 Build 0)  -->
<svg version="1.1" id="Layer_1" xmlns="http://www.w3.org/2000/svg" xmlns:xlink="http://www.w3.org/1999/xlink" x="0px" y="0px"
	 viewBox="0 0 600 450" style="enable-background:new 0 0 600 450;" xml:space="preserve">
<style type="text/css">
	*{vector-effect:non-scaling-stroke}
	.st0{fill:none;stroke:#231F20;stroke-width:0.5;stroke-miterlimit:10;}
	.st1{fill:#231F20;}
	.st2{fill:none;stroke:#231F20;stroke-width:1.5;stroke-miterlimit:10;}
	.st3{font-family:'DINMittelschriftStd';}
	.st4{font-size:8.7687px;}
	.st5{font-size:8.7688px;}
	.st6{clip-path:url(#SVGID_2_);}
</style>
<g>
	<g>
		<g>
			<line class="st0" x1="8.2" y1="293.6" x2="590.8" y2="293.6"/>
			<path class="st0" d="M420.8,157.3c-62.7,0-113.5,50.7-113.5,113.5s50.8,113.5,113.5,113.5s113.6-50.7,113.6-113.5
				C534.3,208.1,483.5,157.3,420.8,157.3z"/>
			<path class="st0" d="M420.8,202.7c-37.6,0-68.1,30.4-68.1,68.1s30.5,68.1,68.1,68.1s68.1-30.4,68.1-68.1
				C488.9,233.2,458.4,202.7,420.8,202.7z"/>
			<line class="st0" x1="8.2" y1="157.3" x2="590.8" y2="157.3"/>
			<line class="st0" x1="8.2" y1="111.9" x2="590.8" y2="111.9"/>
			<line class="st0" x1="8.2" y1="66.5" x2="590.8" y2="66.5"/>
			<line class="st0" x1="8.2" y1="202.8" x2="590.8" y2="202.8"/>
			<line class="st0" x1="8.2" y1="384.4" x2="590.8" y2="384.4"/>
			<line class="st0" x1="171" y1="475.3" x2="171" y2="-124.6"/>
			<line class="st0" x1="125.6" y1="475.3" x2="125.6" y2="-124.6"/>
			<line class="st0" x1="307.3" y1="475.3" x2="307.3" y2="-124.6"/>
			<line class="st0" x1="352.7" y1="475.3" x2="352.7" y2="-124.6"/>
			<line class="st0" x1="488.9" y1="475.3" x2="488.9" y2="-124.6"/>
			<line class="st0" x1="534.4" y1="475.3" x2="534.4" y2="-124.6"/>
			<path class="st0" d="M579.8,160.5"/>
			<g>
				<g>
					<line class="st0" x1="128.6" y1="23.1" x2="168.1" y2="23.1"/>
					<g>
						<polygon class="st1" points="130,24.9 129.2,23.1 130,21.2 125.6,23.1 						"/>
					</g>
					<g>
						<polygon class="st1" points="166.7,24.9 167.4,23.1 166.7,21.2 171,23.1 						"/>
					</g>
				</g>
			</g>
			<g>
				<g>
					<line class="st0" x1="310.3" y1="23.1" x2="349.7" y2="23.1"/>
					<g>
						<polygon class="st1" points="311.7,24.9 310.9,23.1 311.7,21.2 307.3,23.1 						"/>
					</g>
					<g>
						<polygon class="st1" points="348.3,24.9 349.1,23.1 348.3,21.2 352.7,23.1 						"/>
					</g>
				</g>
			</g>
			<g>
				<g>
					<line class="st0" x1="491.9" y1="23.1" x2="531.4" y2="23.1"/>
					<g>
						<polygon class="st1" points="493.3,24.9 492.5,23.1 493.3,21.2 488.9,23.1 						"/>
					</g>
					<g>
						<polygon class="st1" points="530,24.9 530.8,23.1 530,21.2 534.4,23.1 						"/>
					</g>
				</g>
			</g>
			<g>
				<g>
					<line class="st0" x1="579.8" y1="69.5" x2="579.8" y2="108.9"/>
					<g>
						<polygon class="st1" points="577.9,70.9 579.8,70.1 581.6,70.9 579.8,66.5 						"/>
					</g>
					<g>
						<polygon class="st1" points="577.9,107.5 579.8,108.3 581.6,107.5 579.8,111.9 						"/>
					</g>
				</g>
			</g>
			<g>
				<g>
					<line class="st0" x1="579.8" y1="296.6" x2="579.8" y2="381.4"/>
					<g>
						<polygon class="st1" points="577.9,298 579.8,297.2 581.6,298 579.8,293.6 						"/>
					</g>
					<g>
						<polygon class="st1" points="577.9,380 579.8,380.8 581.6,380 579.8,384.4 						"/>
					</g>
				</g>
			</g>
			<g>
				<g>
					<line class="st0" x1="304.3" y1="429.8" x2="174" y2="429.8"/>
					<g>
						<polygon class="st1" points="302.9,428 303.7,429.8 302.9,431.7 307.3,429.8 						"/>
					</g>
					<g>
						<polygon class="st1" points="175.4,428 174.6,429.8 175.4,431.7 171,429.8 						"/>
					</g>
				</g>
			</g>
			<g>
				<g>
					<line class="st0" x1="486" y1="429.8" x2="355.7" y2="429.8"/>
					<g>
						<polygon class="st1" points="484.6,428 485.3,429.8 484.6,431.7 488.9,429.8 						"/>
					</g>
					<g>
						<polygon class="st1" points="357.1,428 356.3,429.8 357.1,431.7 352.7,429.8 						"/>
					</g>
				</g>
			</g>
			<g>
				<g>
					<line class="st0" x1="82.8" y1="290.6" x2="82.8" y2="69.5"/>
					<g>
						<polygon class="st1" points="84.7,289.2 82.8,290 80.9,289.2 82.8,293.6 						"/>
					</g>
					<g>
						<polygon class="st1" points="84.7,70.9 82.8,70.1 80.9,70.9 82.8,66.5 						"/>
					</g>
				</g>
			</g>
			<g>
				<g>
					<line class="st0" x1="40" y1="381.4" x2="40" y2="69.5"/>
					<g>
						<polygon class="st1" points="41.8,380 40,380.8 38.1,380 40,384.4 						"/>
					</g>
					<g>
						<polygon class="st1" points="41.8,70.9 40,70.1 38.1,70.9 40,66.5 						"/>
					</g>
				</g>
			</g>
			<g>
				<g>
					<line class="st0" x1="374.7" y1="316.9" x2="466.9" y2="224.8"/>
					<g>
						<polygon class="st1" points="377,317.2 375.2,316.5 374.4,314.6 372.6,319 						"/>
					</g>
					<g>
						<polygon class="st1" points="467.2,227.1 466.4,225.2 464.6,224.5 469,222.7 						"/>
					</g>
				</g>
			</g>
			<line class="st0" x1="417.7" y1="267.7" x2="424" y2="274"/>
			<line class="st0" x1="418.9" y1="-6" x2="425.1" y2="0.3"/>
			<path class="st0" d="M239.1,157.3c-62.7,0-113.5,50.7-113.5,113.5s50.8,113.5,113.5,113.5s113.6-50.7,113.6-113.5
				C352.7,208.1,301.9,157.3,239.1,157.3z"/>
			<line class="st0" x1="534.3" y1="208.2" x2="201.4" y2="-124.7"/>
			<line class="st0" x1="534.3" y1="271.8" x2="137.9" y2="-124.5"/>
			<line class="st0" x1="328.9" y1="51.7" x2="328.9" y2="66.5"/>
			<line class="st0" x1="328.9" y1="81.3" x2="328.9" y2="66.5"/>
			<path class="st0" d="M239.1,202.7c-37.6,0-68.1,30.4-68.1,68.1s30.5,68.1,68.1,68.1s68.1-30.4,68.1-68.1
				C307.3,233.2,276.8,202.7,239.1,202.7z"/>
			<g>
				<g>
					<line class="st0" x1="193.1" y1="316.9" x2="285.2" y2="224.8"/>
					<g>
						<polygon class="st1" points="195.4,317.2 193.5,316.5 192.8,314.6 191,319 						"/>
					</g>
					<g>
						<polygon class="st1" points="285.5,227.1 284.8,225.2 282.9,224.5 287.3,222.7 						"/>
					</g>
				</g>
			</g>
			<line class="st0" x1="236" y1="267.7" x2="242.3" y2="274"/>
		</g>
		<g>
			<g>
				<path class="st2" d="M534.3,270.9c0-62.8-50.8-113.5-113.6-113.5c-37.2,0-70.1,17.8-90.8,45.4c-20.7-27.6-53.7-45.4-90.8-45.4
					c-25.6,0-49.1,8.4-68.1,22.7V66.5h-45.4v227.1H171v-22.4v-0.3c0-37.7,30.5-68.1,68.1-68.1s68,30.3,68.1,67.9c0,0.1,0,0.1,0,0.2
					l0,0l0,0v22.7h45.4v-23.1c0.2-37.5,30.6-67.7,68.1-67.7c37.6,0,68.1,30.4,68.1,68.1l0,0v113.6h45.4L534.3,270.9L534.3,270.9z"/>
			</g>
		</g>
		<g>
			<text transform="matrix(1 0 0 1 143.5684 14.7782)" class="st1 st3 st4">1/9</text>
			<text transform="matrix(1 0 0 1 323.2871 14.7782)" class="st1 st3 st4">1/9</text>
			<text transform="matrix(1 0 0 1 503.0068 14.7782)" class="st1 st3 st4">1/9</text>
			<text transform="matrix(-1.346898e-10 1 -1 -1.346898e-10 71.4883 174.3739)" class="st1 st3 st4">5/9</text>
			<text transform="matrix(-1.346898e-10 1 -1 -1.346898e-10 568.6992 333.3085)" class="st1 st3 st4">2/9</text>
			<text transform="matrix(-1.346898e-10 1 -1 -1.346898e-10 568.6992 83.5478)" class="st1 st3 st4">1/9</text>
			<text transform="matrix(-1.346898e-10 1 -1 -1.346898e-10 28.5937 219.2099)" class="st1 st3 st4">7/9</text>
			<text transform="matrix(1 0 0 1 233.499 442.8739)" class="st1 st3 st4">1/3</text>
			<text transform="matrix(1 0 0 1 415.1387 442.8739)" class="st1 st3 st4">1/3</text>
			<text transform="matrix(0.7071 -0.7071 0.7071 0.7071 228.4807 271.8766)" class="st1 st3 st5">Ø1/3</text>
		</g>
	</g>
	<g>
		<line class="st0" x1="427.5" y1="-8.4" x2="298.4" y2="120.9"/>
	</g>
	<path class="st0" d="M307.3-1.6c0,62.8,50.8,113.5,113.5,113.5S534.4,61.2,534.4-1.6"/>
	<path class="st0" d="M307.3-1.6c0-62.8,50.8-113.5,113.5-113.5S534.4-64.4,534.4-1.6"/>
	<path class="st0" d="M352.7-1.6c0,37.7,30.5,68.1,68.1,68.1s68.1-30.4,68.1-68.1"/>
	<path class="st0" d="M362.7-37.3c12-19.5,33.5-32.5,58.1-32.5c37.6,0,68.1,30.4,68.1,68.1"/>
	<path class="st0" d="M352.7-1.6c0-13.1,3.7-25.3,10-35.6"/>
	<path class="st2" d="M534.3,111.9V66.5H420.8c-18.8,0-35.8-7.6-48.2-19.9l-32.1,32.1c20.5,20.5,48.9,33.2,80.3,33.2l0,0
		L534.3,111.9L534.3,111.9z"/>
	<g>
		<g>
			<defs>
				<path id="SVGID_1_" d="M534.4,270.9v113.6H489V270.9l0,0c0-37.7-30.5-68.1-68.1-68.1c-37.5,0-67.9,30.2-68.1,67.7v23.1h-45.4
					v-22.7l0,0l0,0c0-0.1,0-0.1,0-0.2c-0.1-37.6-30.6-67.9-68.1-67.9c-37.6,0-68.1,30.4-68.1,68.1v0.3v22.4h-45.4V66.5H171V180
					c19-14.2,42.5-22.7,68.1-22.7c37.1,0,70.1,17.8,90.8,45.4c20.7-27.6,53.7-45.4,90.8-45.4C483.5,157.3,534.3,208.1,534.4,270.9
					L534.4,270.9z M534.3,111.9V66.5H420.8c-18.8,0-35.8-7.6-48.2-19.9l-32.1,32.1c20.5,20.5,48.9,33.2,80.3,33.2l0,0L534.3,111.9
					L534.3,111.9z"/>
			</defs>
			<clipPath id="SVGID_2_">
				<use xlink:href="#SVGID_1_"  style="overflow:visible;"/>
			</clipPath>
			<g class="st6">
				<path class="st0" d="M-206.5,389.9L148.1,35 M151.1,34.9l-354.6,354.9 M154,34.9l-354.6,354.9 M157,34.9l-354.6,354.9
					 M159.9,34.9l-354.6,354.9 M162.9,34.9l-354.6,354.9 M165.8,34.9l-354.6,354.9 M168.8,34.9l-354.6,354.9 M171.7,34.9
					l-354.6,354.9 M174.7,34.9l-354.6,354.9 M177.6,34.9l-354.6,355 M180.6,34.9l-354.6,355 M183.5,34.9l-354.6,354.9 M186.5,34.9
					l-354.6,354.9 M189.4,34.9l-354.6,354.9 M192.4,34.9l-354.6,354.9 M195.3,34.9l-354.6,354.9 M198.3,34.9l-354.6,354.9
					 M201.2,34.9l-354.6,354.9 M204.2,34.9l-354.6,354.9 M207.1,34.9l-354.6,354.9 M210.1,34.9l-354.6,354.9 M213,34.9l-354.6,354.9
					 M216,34.9l-354.6,354.9 M218.9,34.9l-354.6,354.9 M221.9,34.9l-354.6,354.9 M224.8,34.9l-354.6,354.9 M227.8,34.9l-354.6,354.9
					 M230.7,34.9l-354.6,354.9 M233.7,34.9l-354.6,354.9 M236.6,34.9l-354.6,355 M239.6,34.9l-354.6,355 M242.5,34.9l-354.6,354.9
					 M245.5,34.9l-354.6,354.9 M248.4,34.9l-354.6,354.9 M251.4,34.9l-354.6,354.9 M254.3,34.9l-354.6,354.9 M257.3,34.9l-354.6,355
					 M260.2,34.9l-354.6,355 M263.2,34.9l-354.6,355 M266.1,34.9l-354.6,355 M269.1,34.9l-354.6,355 M272,34.9l-354.6,355 M275,34.9
					l-354.6,355 M277.9,34.9l-354.6,355 M280.9,34.9l-354.6,355 M283.8,34.9l-354.6,355 M286.8,34.9l-354.6,355 M289.7,34.9
					l-354.6,355 M292.7,34.9l-354.6,355 M295.6,34.9L-59,389.9 M298.6,34.9L-56,389.9 M301.5,34.9l-354.6,355 M304.5,34.9
					l-354.6,355 M307.4,34.9l-354.6,355 M310.4,34.9l-354.6,355 M313.3,34.9l-354.6,355 M316.3,34.9l-354.6,355 M319.2,34.9
					l-354.6,355 M322.2,34.9l-354.6,355 M325.1,34.9l-354.6,355 M328.1,34.9l-354.6,355 M331,34.9l-354.6,355 M334,34.9l-354.6,355
					 M336.9,34.9l-354.6,355 M339.9,34.9l-354.6,355 M342.8,34.9l-354.6,355 M345.8,34.9l-354.6,355 M348.7,34.9l-354.6,355
					 M351.7,34.9l-354.6,355 M354.6,34.9L0,389.9 M357.6,34.9L3,389.9 M360.5,34.9L5.9,389.9 M363.5,34.9L8.9,389.9 M366.4,34.9
					l-354.6,355 M369.4,34.9l-354.6,355 M372.3,34.9l-354.6,355 M375.3,34.9l-354.6,355 M378.2,34.9l-354.6,355 M381.2,34.9
					l-354.6,355 M384.1,34.9l-354.6,355 M387.1,34.9l-354.6,355 M390,34.9l-354.6,355 M393,34.9l-354.6,355 M395.9,34.9l-354.6,355
					 M398.9,34.9l-354.6,355 M401.8,34.9l-354.6,355 M404.8,34.9l-354.6,355 M407.7,34.9l-354.6,355 M410.7,34.9l-354.6,355
					 M413.6,34.9L59,389.9 M416.6,34.9L62,389.9 M419.5,34.9l-354.6,355 M422.5,34.9l-354.6,355 M425.4,34.9l-354.6,355 M428.4,34.9
					l-354.6,355 M431.3,34.9l-354.6,355 M434.3,34.9l-354.6,355 M437.2,34.9l-354.6,355 M440.2,34.9l-354.6,355 M443.1,34.9
					l-354.6,355 M446.1,34.9l-354.6,355 M449,34.9l-354.6,355 M452,34.9l-354.6,355 M454.9,34.9l-354.6,355 M457.9,34.9l-354.6,355
					 M460.8,34.9l-354.6,355 M463.8,34.9l-354.6,355 M466.7,34.9l-354.6,355 M469.7,34.9l-354.6,355 M472.6,34.9L118,389.9
					 M475.6,34.9L121,389.9 M478.5,34.9l-354.6,355 M481.5,34.9l-354.6,355 M484.4,34.9l-354.6,355 M487.4,34.9l-354.6,355
					 M490.3,34.9l-354.6,355 M493.3,34.9l-354.6,355 M496.2,34.9l-354.6,355 M499.2,34.9l-354.6,355 M502.1,34.9l-354.6,355
					 M505.1,34.9l-354.6,355 M508,34.9l-354.6,355 M511,34.9l-354.6,355 M513.9,34.9l-354.6,355 M516.9,34.9l-354.6,355 M519.8,34.9
					l-354.6,355 M522.8,34.9l-354.6,355 M525.7,34.9l-354.6,355 M528.7,34.9l-354.6,355 M531.6,34.9L177,389.9 M534.6,34.9
					L180,389.9 M537.5,34.9l-354.6,355 M540.5,34.9l-354.6,355 M543.4,34.9l-354.6,355 M546.4,34.9l-354.6,355 M549.3,34.9
					l-354.6,355 M552.3,34.9l-354.6,355 M555.2,34.9l-354.6,355 M558.2,34.9l-354.6,355 M561.1,34.9l-354.6,355 M564.1,34.9
					l-354.6,355 M567,34.9l-354.6,355 M570,34.9l-354.6,355 M572.9,34.9l-354.6,355 M575.9,34.9l-354.6,355 M578.8,34.9l-354.6,355
					 M581.8,34.9l-354.6,355 M584.7,34.9l-354.6,355 M587.7,34.9l-354.6,355 M590.6,34.9L236,389.9 M593.6,34.9L239,389.9
					 M596.5,34.9l-354.6,355 M599.5,34.9l-354.6,355 M602.4,34.9l-354.6,355 M605.4,34.9l-354.6,355 M608.3,34.9l-354.6,355
					 M611.3,34.9l-354.6,355 M614.2,34.9l-354.6,355 M617.2,34.9l-354.6,355 M620.1,34.9l-354.6,355 M623.1,34.9l-354.6,355
					 M626,34.9l-354.6,355 M629,34.9l-354.6,355 M631.9,34.9l-354.6,355 M634.9,34.9l-354.6,355 M637.8,34.9l-354.6,355 M640.8,34.9
					l-354.6,355 M643.7,34.9l-354.6,355 M646.7,34.9l-354.6,355 M649.6,34.9L295,389.9 M652.6,34.9L298,389.9 M655.5,34.9
					l-354.6,355 M658.5,34.9l-354.6,355 M661.4,34.9l-354.6,355 M664.4,34.9l-354.6,355 M667.3,34.9l-354.6,355 M670.3,34.9
					l-354.6,355 M673.2,34.9l-354.6,355 M676.2,34.9l-354.6,355 M679.1,34.9l-354.6,355 M682.1,34.9l-354.6,355 M685,34.9
					l-354.6,355 M688,34.9l-354.6,355 M690.9,34.9l-354.6,355 M693.9,34.9l-354.6,355 M696.8,34.9l-354.6,355 M699.8,34.9
					l-354.6,355 M702.7,34.9l-354.6,355 M705.7,34.9l-354.6,355 M708.6,34.9L354,389.9 M711.6,34.9L357,389.9 M714.5,34.9
					l-354.6,355 M717.5,34.9l-354.6,355 M720.4,34.9l-354.6,355 M723.4,34.9l-354.6,355 M726.3,34.9l-354.6,355 M729.3,34.9
					l-354.6,355 M732.2,34.9l-354.6,355 M735.2,34.9l-354.6,355 M738.1,34.9l-354.6,355 M741.1,34.9l-354.6,355 M744,34.9
					l-354.6,355 M747,34.9l-354.6,355 M749.9,34.9l-354.6,355 M752.9,34.9l-354.6,355 M755.8,34.9l-354.6,355 M758.8,34.9
					l-354.6,355 M761.7,34.9l-354.6,355 M764.7,34.9l-354.6,355 M767.6,34.9L413,389.9 M770.6,34.9L416,389.9 M773.5,34.9
					l-354.6,355 M776.5,34.9l-354.6,355 M779.4,34.9l-354.6,355 M782.4,34.9l-354.6,355 M785.3,34.9l-354.6,355 M788.3,34.9
					l-354.6,355 M791.2,34.9l-354.6,355 M794.2,34.9l-354.6,355 M797.1,34.9l-354.6,355 M800.1,34.9l-354.6,355 M803,34.9
					l-354.6,355 M806,34.9l-354.6,355 M808.9,34.9l-354.6,355 M811.9,34.9l-354.6,355 M814.8,34.9l-354.6,355 M817.8,34.9
					l-354.6,355 M820.7,34.9l-354.6,355 M823.7,34.9l-354.6,355 M826.6,34.9L472,389.9 M829.6,34.9L475,389.9 M832.5,34.9
					l-354.6,355 M835.5,34.9l-354.6,355 M838.4,34.9l-354.6,355 M841.4,34.9l-354.6,355 M844.3,34.9l-354.6,355 M847.3,34.9
					l-354.6,355 M850.2,34.9l-354.6,355 M853.2,34.9l-354.6,355 M856.1,34.9l-354.6,355 M859.1,34.9l-354.6,355 M862,34.9
					l-354.6,355 M865,34.9l-354.6,355 M867.9,34.9l-354.6,355 M870.9,34.9l-354.6,355 M873.8,34.9l-354.6,355 M876.8,34.9
					l-354.6,355 M879.7,34.9l-354.6,355 M882.7,34.9l-354.6,355 M885.6,34.9L531,389.9 M888.6,34.9L534,389.9 M891.5,34.9
					l-354.6,355 M894.5,34.9l-354.6,355 M897.4,34.9l-354.6,355 M900.4,34.9l-354.6,355"/>
			</g>
		</g>
	</g>
</g>
</svg>
