<?xml version="1.0" encoding="utf-8"?>
<!-- Generator: Adobe Illustrator 25.0.0, SVG Export Plug-In . SVG Version: 6.00 Build 0)  -->
<svg version="1.1" id="Layer_1" xmlns="http://www.w3.org/2000/svg" xmlns:xlink="http://www.w3.org/1999/xlink" x="0px" y="0px"
	 viewBox="0 0 251.3 54.2" style="enable-background:new 0 0 251.3 54.2;" xml:space="preserve">
<path d="M41.4,38.2h-3.2v-8l0,0c0-2.6-2.1-4.8-4.8-4.8c-2.6,0-4.8,2.1-4.8,4.7v1.6h-3.2v-1.6l0,0l0,0l0,0c0-2.6-2.1-4.8-4.8-4.8
	c-2.6,0-4.8,2.1-4.8,4.8l0,0v1.6h-3.2V16h3.2v8c1.3-1,3-1.6,4.8-1.6c2.6,0,4.9,1.2,6.4,3.2c1.5-1.9,3.8-3.2,6.4-3.2c4.4,0,8,3.6,8,8
	l0,0C41.4,30.4,41.4,38.2,41.4,38.2z M41.4,19.1h-8l0,0c-2.2,0-4.1-0.9-5.6-2.3l2.3-2.3c0.9,0.8,2,1.3,3.3,1.3h8V19.1z M27.1,3.2
	C40.3,3.2,51,13.9,51,27.1S40.3,51,27.1,51S3.2,40.3,3.2,27.1C3.2,13.9,13.9,3.2,27.1,3.2 M27.1,0C12.2,0,0,12.1,0,27.1
	C0,42,12.1,54.2,27.1,54.2c14.9,0,27.1-12.1,27.1-27.1C54.2,12.2,42,0,27.1,0L27.1,0z M81.1,21.2l0.1,2c1.2-1.5,3-2.3,5.3-2.3
	s4.2,0.9,5.1,2.9c1.2-1.7,3.1-2.9,5.7-2.9c3.8,0,6,2,6,6.5v11.8h-3.1V27.4c0-3-1.5-3.9-3.8-3.9c-2.5,0-3.9,1.7-4.2,3.8v11.9h-3.1
	V27.4c0-2.8-1.5-3.9-3.8-3.9c-2.2,0-3.5,1-4.1,2.6v13.1h-3.1v-18C78.1,21.2,81.1,21.2,81.1,21.2z M119.1,39.2
	c-0.2-0.4-0.3-1.2-0.4-1.9c-1.2,1.2-2.9,2.2-5.1,2.2c-3.7,0-6.1-2.3-6.1-5.3c0-3.9,3.1-5.9,8.1-5.9h3.1v-1.4c0-2.1-1.3-3.5-3.8-3.5
	c-2.3,0-3.9,1.3-3.9,2.8h-3.1c0-2.6,2.8-5.3,7.1-5.3c3.9,0,6.7,2,6.7,6v8.4c0,1.2,0.2,2.7,0.6,3.7v0.3L119.1,39.2L119.1,39.2z
	 M118.6,34.2v-3.7H116c-3.5,0-5.5,1.1-5.5,3.3c0,1.7,1.2,3.1,3.4,3.1C116.2,36.8,118,35.5,118.6,34.2z M129.4,21.2l0.1,2.3
	c1.3-1.6,3.1-2.6,5.4-2.6c3.5,0,5.7,1.8,5.7,6.5v11.8h-3.1V27.4c0-2.8-1.3-3.9-3.6-3.9c-2,0-3.5,1.2-4.4,2.9v12.8h-3.1v-18
	C126.4,21.2,129.4,21.2,129.4,21.2z M156.4,39.2c-0.2-0.4-0.3-1.2-0.4-1.9c-1.2,1.2-2.9,2.2-5.1,2.2c-3.7,0-6.1-2.3-6.1-5.3
	c0-3.9,3.1-5.9,8.1-5.9h3.1v-1.4c0-2.1-1.3-3.5-3.8-3.5c-2.3,0-3.9,1.3-3.9,2.8h-3.1c0-2.6,2.8-5.3,7.1-5.3c3.9,0,6.7,2,6.7,6v8.4
	c0,1.2,0.2,2.7,0.6,3.7v0.3L156.4,39.2L156.4,39.2z M155.9,34.2v-3.7h-2.6c-3.5,0-5.5,1.1-5.5,3.3c0,1.7,1.2,3.1,3.4,3.1
	C153.5,36.8,155.2,35.5,155.9,34.2z M170.1,31.3c-4-0.8-6.5-2.2-6.5-5.2c0-2.8,2.6-5.3,6.6-5.3c4.3,0,6.9,2.5,6.9,5.6H174
	c0-1.5-1.3-3.1-3.8-3.1c-2.6,0-3.6,1.3-3.6,2.6c0,1.4,0.7,2,4.2,2.8c4.4,1,6.4,2.5,6.4,5.4c0,3.1-2.7,5.3-6.9,5.3
	c-4.8,0-7.4-2.9-7.4-5.9h3.1c0.1,2.5,2.4,3.4,4.3,3.4c2.5,0,3.9-1.1,3.9-2.6C174.2,33.1,173.6,32.1,170.1,31.3z M183.3,35.7
	c1.3,0,1.9,0.8,1.9,1.9c0,1-0.7,1.8-1.9,1.8s-1.9-0.8-1.9-1.8C181.4,36.5,182,35.7,183.3,35.7z M194.4,16.9v4.3h3.4v2.4h-3.4v11.1
	c0,1.9,1,2.2,2,2.2c0.5,0,1.1-0.1,1.5-0.2v2.5c-0.5,0.1-1.2,0.3-2.4,0.3c-2.3,0-4.2-1.2-4.2-4.8V23.6H188v-2.4h3.3v-4.3H194.4z
	 M200.6,30.8v-0.7c0-5.9,3.8-9.2,7.9-9.2c5.1,0,7.4,3.8,7.4,8.8v1.4h-12.2c0.1,3.3,2.1,5.9,5.3,5.9c2.2,0,3.6-1,4.7-2.4l1.9,1.5
	c-1.1,1.8-3.2,3.5-6.8,3.5C203.8,39.5,200.6,35.9,200.6,30.8z M203.8,28.6h9v-0.2c-0.1-2.4-1.2-4.9-4.3-4.9
	C206,23.4,204.2,25.2,203.8,28.6z M230.8,33.5h2.9c-0.2,3.2-3.3,6-7.1,6c-5.4,0-8-4.1-8-9v-0.7c0-4.8,2.6-9,8-9c4.2,0,7,2.8,7.2,6.5
	h-2.9c-0.2-2.2-1.8-4-4.3-4c-3.8,0-4.9,3.3-4.9,6.4v0.7c0,3.2,1.1,6.5,4.9,6.5C228.8,37,230.6,35.5,230.8,33.5z M240.2,23.4
	c1.3-1.6,3.1-2.5,5.3-2.5c3.5,0,5.7,1.8,5.7,6.5v11.8h-3.1V27.4c0-2.8-1.3-3.9-3.6-3.9c-2,0-3.5,1.2-4.4,2.9v12.8H237V13.7h3.1v9.7
	H240.2z"/>
</svg>
