<svg xmlns="http://www.w3.org/2000/svg" viewBox="0 0 379.25 315.87"><defs><style>*{vector-effect:non-scaling-stroke}.cls-1{isolation:isolate;}.cls-2{fill:#fff;}.cls-2,.cls-3{stroke:#000000;stroke-miterlimit:10;stroke-width:1.5px;}.cls-3{fill:none;stroke-width:0.5px;}.cls-4{fill:#fff;}.cls-5{mix-blend-mode:multiply;}.cls-6{fill:#000000;}</style></defs><g class="cls-1"><g id="Layer_2" data-name="Layer 2"><g id="Layer_1-2" data-name="Layer 1"><path class="cls-2" d="M128.29,54.93l-8.84,1.21-5.62,5.62-4.43,2L105,65l-3.61,2L91.32,71l-6,3.62-2.81,1.21a4.52,4.52,0,0,0-2.81,1.6c-1.61,1.61-6.83,3.62-6.83,3.62l-2.42,3.22-7.23,3.61a12.1,12.1,0,0,1-2.41,3.62c-1.61,1.61-4,1.61-6,2.81s-8.84,5.63-8.84,5.63l-4.82,2.41s-8,4-10.05,5.22-4.42,1.61-5.22,2.82-7.24,8-7.24,8l-2.41,2.82-3.61,4.82-4,4-.4,8-2,6.84-.41,4.82.81,4.42v12.86a16.23,16.23,0,0,0-.81,4v4.42s.41,4.42.41,5.62-.41,4.83-.41,4.83v3.61l-.4,3.22-1.2,2.41L3.31,198l-2,18.09a49.72,49.72,0,0,0-.8,5.22,31.18,31.18,0,0,0,.8,6,32.35,32.35,0,0,1,.81,4,22.48,22.48,0,0,1,0,5.22c0,1.21-.81,3.62-.4,4.82s1.2,1.61,4.42,4S9.34,248.22,11,249s5.22,1.21,6.83,1.61,1.61.4,6.83.4,6.43-1.21,8.84-1.21,3.62-.4,5.63.41,5.22,1.2,8.84,1.6,7.23,1.21,9.64,1.21,13.67-1.21,15.68-1.61,5.62-1.61,5.62-1.61l29.34.81a23.73,23.73,0,0,0,5.63,1.2c3.61.4,24.51,0,26.12-.4s8,0,10.85,0h15.67l6.43.4a16.4,16.4,0,0,0,5.63.81h9.64c3.62,0,9.65-.41,12.86-.41h18.89a62.88,62.88,0,0,0,8-.4,102.05,102.05,0,0,1,10.85-.4h28.53c5.22,0,8-.4,9.64-.4s13.67.4,17.28.8,17.69-1.6,17.69-1.6,3.21-2.82,3.61-4.43,1.61-5.62,1.61-5.62,1.2-4.42,1.61-6,2-16.48,1.2-19.29a58.32,58.32,0,0,1-1.61-11.65,77.8,77.8,0,0,0-.4-9.65,75.24,75.24,0,0,1-1.2-12c0-5.23.8-11.26.8-13.67S316,155.39,316,154.19s.81-11.66.81-11.66V104l-1.21-19.69V67.39L314,61s-1.2-3.62-1.6-5.63a73.88,73.88,0,0,1-.41-8.44,33.74,33.74,0,0,1-.4-4.82c0-2.41-.4-3.62-.4-8s1.21-7.23-.8-9.64-3.62-4.82-4.83-6.43a26.72,26.72,0,0,0-4.82-4.82c-1.2-.81-4-1.61-6-2.82s-2.81-.8-5.62-2.41-4-2.41-6-3.61S276.18.68,274.57.68a22.11,22.11,0,0,0-5.22,0c-2.82.4-5.63.4-7.64,1.2s-4.42,1.61-8,3.22-10.85,2.41-12.45,3.21-4.42,1.61-9.65,3.62-7.63,2.41-10.85,3.62-19.29,4-20.49,4-2.42.4-5.23.4-6.43,1.2-8.84,2a45.25,45.25,0,0,0-7.63,2.81,72.92,72.92,0,0,0-6.43,3.62c-2,1.2-6.84,4.42-6.84,4.42l-12.45,4.42s-4.83,3.62-7.64,5.22-4.82,2-7.23,4-4,3.22-4.82,4.42S128.29,54.93,128.29,54.93Z"/><path class="cls-3" d="M317.42,209.79c-.16-.36-.57-.34-.74-.61s-.05-.54,0-.76a17.13,17.13,0,0,0-.06-3.51s-.2-.55-.22-.61a4.52,4.52,0,0,0-.21-.62c-.24-.52-.66-.71-1-1.24a6.18,6.18,0,0,0-.67-.94,4.84,4.84,0,0,1-.56-1.87,14.18,14.18,0,0,1-.06-3.57c0-1.66-1.14-2.79-1.86-4.18-.25-.48-.46-1.08-.69-1.59a6.9,6.9,0,0,1-.18-.83c-.13-.4-.29-.31-.51-.6a3.67,3.67,0,0,1-.25-.75c-.14-.38-.47-.76-.58-1.13a7.94,7.94,0,0,1-.05-2.18,11.24,11.24,0,0,0,0-1.64,1.89,1.89,0,0,0-.57-1.14c-.27-.23-.44-.17-.57-.5-.38-1,1-1.29,1.62-1.67a13,13,0,0,0,2.52-1.92,13.35,13.35,0,0,1,1.37-1.43,6.37,6.37,0,0,0,1.32-1.6c.6-.87.33-2.23.33-3.29,0-.47.15-1.08-.19-1.45s-1.18-.21-1.41-.52c-.59-.76.86-1.75,1.12-2.35a8.77,8.77,0,0,0,.21-3.09,6.85,6.85,0,0,0-.26-1.65c-.12-.46-.33-.43-.58-.76a1,1,0,0,1-.26-.89q0-.83,0-1.65c0-.6.33-1.08.29-1.65s-.3-.79-.29-1.37a13.7,13.7,0,0,1,0-1.92,7.5,7.5,0,0,0,.29-1.65v-3.3c0-.44.2-1.49,0-1.86-.14-.22-.54-.34-.73-.6a2.31,2.31,0,0,1-.34-.83c-.08-.51.12-1-.25-1.38s-.79-.27-1.38-.27a13.11,13.11,0,0,0-2.26.06c-1.35.24-3,.42-4,1.38-.34.32-.56.72-.88,1a2.42,2.42,0,0,1-.84.48,3.22,3.22,0,0,0-1.16.6,5.8,5.8,0,0,0-1.52,1.39c-.11.17-.31.31-.42.47s-.13.43-.24.62a8.65,8.65,0,0,1-.79.81,6.6,6.6,0,0,0-.61,1.14c-.5.82-1.29,1.09-2.08,1.62-1.23.84-1.74,2.26-2.78,3.29-.65.64-1.24,1.31-1.88,1.94s-1.2,1-1.71,1.63a19.51,19.51,0,0,1-1.7,1.94,12.52,12.52,0,0,1-1.85,1.16c-.35.21-.8.33-1.13.54s-.51.55-.81.78a10.69,10.69,0,0,0-1.58,1.43c-.7.81-1.77,1.12-2.54,1.84a5.52,5.52,0,0,1-1.36,1.11c-.72.35-1.51.5-2.22.83-1.08.48-2.19,1-3.29,1.57-.49.24-1,.37-1.44.55s-1,.66-1.58,1-1.14.48-1.65.8-1.05.9-1.64,1.26-1.09.69-1.65,1.1-1.2,1-1.84,1.44c-.92.65-1.95,1.19-2.84,1.84a6.21,6.21,0,0,0-1.31,1.94,6.74,6.74,0,0,1-1.5,2,7.49,7.49,0,0,1-1.85,1.29c-.58.28-1.11.62-1.65.95a8.83,8.83,0,0,1-1.92,1.26c-.62.17-1.3.4-1.93.54a4.81,4.81,0,0,0-.76.12c-.31.13-.41.53-.84.47a1.25,1.25,0,0,1,.48-1.42c.31-.23.8-.26,1.14-.48s.39-.34.59-.48a23.56,23.56,0,0,0,2.69-2c.92-.81,1.43-2.08,2.47-2.76s1.78-1.35,2.75-2a17.07,17.07,0,0,1,1.65-1.12c.63-.31,1.33-.6,1.94-1a30.93,30.93,0,0,0,2.94-2,12.52,12.52,0,0,1,2.55-1.65c.54-.25,1.11-.54,1.64-.83a4.15,4.15,0,0,1,.83-.26c.3-.11.35-.3.59-.49a16.53,16.53,0,0,1,1.59-.89,9,9,0,0,0,1.65-1.37c.77-.78,1.16-1.7,2-2.4s2-1.29,2.95-2c1.22-1,2.16-2.38,3.31-3.31.32-.25.37-.51.61-.78a5.14,5.14,0,0,1,.77-.51c.56-.43,1.09-.9,1.66-1.33a29.54,29.54,0,0,0,3.28-2.53c1.06-1.08,2-2.23,3-3.29,1.24-1.29,2.29-2.86,3.56-4.07.41-.4,1-.73,1.39-1.16s1.1-1.06,1.65-1.58a25.25,25.25,0,0,1,3.37-2.6.88.88,0,0,0,.55-.5,2.31,2.31,0,0,1,.73-.33c1.15-.44,2.38-.91,3.48-1.45a2.36,2.36,0,0,0,1.21-1.51V140c.11,1,1-.64,1.09-.82.51-.81,1-1.64,1.44-2.47a7.84,7.84,0,0,0,1-2.47,14.22,14.22,0,0,0,0-2.26,14.15,14.15,0,0,1,0-3.25c.11-.44.47-.65.59-1.09a4.51,4.51,0,0,0,0-1.16c-.11-1.06-.87-1.78-1.32-2.68a5.27,5.27,0,0,1-.62-2.48,8.16,8.16,0,0,1,.05-2.47c.14-.36.53-.72.71-1.1a4.86,4.86,0,0,1,.62-1,5.4,5.4,0,0,0,.76-2.52,7.88,7.88,0,0,0,.07-1.88c0-.67-.17-.49-.5-1a7.87,7.87,0,0,1-1.23-2.13c-.12-.43-.16-1.88-.53-2.16-.74-.55-2,.83-2.64,1.14a4.17,4.17,0,0,1-.88.41c-.29.07-.64,0-.86.22a11.23,11.23,0,0,0,1.41-1.26,12.33,12.33,0,0,0,1.66-1.65c.37-.56.72-1.13,1.07-1.71.46-.74,1.08-1.22,1.12-2.13.11-2.21-.44-4.77.27-6.86a10.73,10.73,0,0,0,.28-3.58,8.39,8.39,0,0,0,0-1.66c-.11-.42-.34-.31-.53-.6s0-.75,0-1v-3.3c0-1.14.33-2.66-.61-3.51s-2.21.17-3.18.56-1.46,1.24-2.32,1.52c-.26.08-.49,0-.76.12s-.53.35-.83.44a5.52,5.52,0,0,1-1.64.34,4.24,4.24,0,0,1-2.22-1.39c-.64-.63-.52-1.09-.53-1.92,0-1.37,1.4-1.6,2.54-1.92.63-.18,1.24-.29,1.85-.49a5.08,5.08,0,0,0,2.22-1.46,11.83,11.83,0,0,1,2.44-1.69,12.89,12.89,0,0,1,1.67-.82,4.16,4.16,0,0,0,1.45-1c.45-.66.18-2,.19-2.77,0-.54.1-.91-.27-1.32s-.38-.33-.55-.88a15.81,15.81,0,0,1-1.1-4.95,8.08,8.08,0,0,0,0-1.1c-.06-.56-.26-.45-.5-.87s.14-1,0-1.34-.69-.26-1.12-.26c-.91,0-2.17.37-2.2-.82,0-.54.27-.89.3-1.38,0-.77-.52-.54-1.12-.54l-.28.27c.64-.48.28-2.55.28-3.3a6,6,0,0,1,.21-1.64c.26-1-.06-1-.76-1.43a16.38,16.38,0,0,1-3-3,10.26,10.26,0,0,1-1.18-1.29,3.28,3.28,0,0,1-.2-1.72,13.46,13.46,0,0,1,.07-3.3,1.85,1.85,0,0,0-.33-2,23.7,23.7,0,0,0-2.21-2.39,2.37,2.37,0,0,1-.83-1.37c-.11-.84,0-1.14.75-1.45,1.29-.52,3.83-1,5,.06.44.43,1.22,1.84,2,1.62,1-.3.62-3.34.35-4.07a7.58,7.58,0,0,0-1-1.87,4,4,0,0,1-.76-1.43,24.78,24.78,0,0,1,0-4.13V21.91c0-1.21.27-2.1.27-3.3a4.41,4.41,0,0,1,.28-2.12,24.5,24.5,0,0,0-3.59-3.35c-1.2-.81-4-1.61-6-2.82s-2.81-.8-5.62-2.41-4-2.41-6-3.61S276.18.68,274.57.68a22.11,22.11,0,0,0-5.22,0c-2.82.4-5.63.4-7.64,1.2s-4.42,1.61-8,3.22-10.85,2.41-12.45,3.21-4.42,1.61-9.65,3.62-7.63,2.41-10.85,3.62-19.29,4-20.49,4-2.42.4-5.23.4-6.43,1.2-8.84,2a45.25,45.25,0,0,0-7.63,2.81,72.92,72.92,0,0,0-6.43,3.62c-2,1.2-6.84,4.42-6.84,4.42l-12.45,4.42s-4.83,3.62-7.64,5.22-4.82,2-7.23,4-4,3.22-4.82,4.42-4.83,4-4.83,4l-8.84,1.21-5.62,5.62-4.43,2L105,65l-3.61,2L91.32,71l-6,3.62-2.81,1.21a4.52,4.52,0,0,0-2.81,1.6c-1.61,1.61-6.83,3.62-6.83,3.62l-2.42,3.22-7.23,3.61a12.1,12.1,0,0,1-2.41,3.62c-1.61,1.61-4,1.61-6,2.81s-8.84,5.63-8.84,5.63l-4.82,2.41s-8,4-10.05,5.22-4.42,1.61-5.22,2.82-7.24,8-7.24,8l-2.41,2.82-3.61,4.82-4,4-.11,2.13,1.72,1.08,4.75-1.95,2.08-.86-3.22,3.22-1.63.41a19,19,0,0,0-1.14,2c-.14.43-.86,1.28-.86,1.71s2,1,2.57,1.14A11.89,11.89,0,0,0,16,139c1.14-.14,2.43-.14,3.14,1s1.14,3.29.57,4.43a22.63,22.63,0,0,1-3.28,3.86c-.72.71-1.29.85-1.72,2s-1.85,1.71-1.85,3.14a7.91,7.91,0,0,0,1.71,4.14,3.41,3.41,0,0,1,.71,2c.15.71-3.42.71-3.42.71l-.86.86s-.57.71,0,1.14a4.52,4.52,0,0,1,1.57,1.43c.72,1,.72,1.43.29,2.14s-2,1.29-2,1.72a10.25,10.25,0,0,0,.71,2s0-.72.57,1.14A19.7,19.7,0,0,0,13.7,175a7.64,7.64,0,0,1,1.15,2.43C15,178.1,13,179.52,13,180s-.71.86,0,2.14-1.57,5-2,6-.43.72-1,1.86-4.4,7.3-4.4,7.3a31.22,31.22,0,0,0,1.28,3.66c.37.55,1.47,1.1,1.83,1.65s-1.28,5.5-1.28,6.05,1.28,2,1.28,2,.55.18.19.92-.92,2-.92,2-.73.73-.36,1.28.18.55.36,1.65.55,1.28.37,2-2.38,1.09-1.65,2,.92.18,1.46,1.46a38.13,38.13,0,0,0,2.2,3.85A9.46,9.46,0,0,1,12,227.29c.37.54.73.36.73,1.28S14.38,231,14.38,231s-2.38.73-2.75.18-.91-2-1.09-1.28-.37,1.46.36,1.83,1.83.37,1.83.92-.36.36-.91.73a6.87,6.87,0,0,1-2.38.36s-.74-1.28-1.1.19c-.15.61-.31,1.84.16,2.38a3.89,3.89,0,0,0,.77.45,9.68,9.68,0,0,0,1.45.7,11.18,11.18,0,0,0,2.34.54,3.6,3.6,0,0,0,.4.14,3.49,3.49,0,0,0,.56,0c.36,0,.73,0,1.09,0a6.85,6.85,0,0,1,1.09.33,6.89,6.89,0,0,0,1.7.05c1.73,0,3.5.1,5.23,0a4.89,4.89,0,0,0,1-.33c.47-.11.63.16,1.06.29a10.41,10.41,0,0,0,2.56,0,2.4,2.4,0,0,1,1.1.12c.33.17.58.46.9.61s.41.08.57.22.16.31.34.36.53-.3.76-.37.44-.14.58-.17a3.6,3.6,0,0,1,1.38.15c.59.08.83-.19,1.33-.34s.82.09,1.16-.4c.13-.19.06-.3.29-.38s.69.2.94.34c.48.26.63.33.9-.18.15-.28.28-.95.54-1.07s1.07.23,1.45,0c.13-.08.27-.58.35-.73.18-.32.25-.46.62-.55a16.35,16.35,0,0,1,2.32,0c.81-.06.81-.5,1.18-1.11s.64-.44,1.23-.32,1.39.41,1.8-.22c.15-.23.15-.45.4-.61s.63-.16.92-.35a1.1,1.1,0,0,0,.56-.69,3.18,3.18,0,0,0,0-1.11c-.08-.24-.37-.32-.52-.53a3.1,3.1,0,0,1-.36-1.06,5.19,5.19,0,0,0-.77-2,8.25,8.25,0,0,0-2-2.07c-.48-.32-1.49-.73-1.71-1.27-.07-.18-.14-.54-.19-.74s0-.24,0-.36-.16-.48-.2-.74a18.12,18.12,0,0,1,0-2.33,2.72,2.72,0,0,0,.4,1.78,10.37,10.37,0,0,0,2,1.87,8.39,8.39,0,0,1,1.46,1.84,3.22,3.22,0,0,1,.73,1.42c0,.42-.08.74.17,1.1a8.36,8.36,0,0,0,1,.91,9.17,9.17,0,0,0,1.06.88,7.45,7.45,0,0,1,1.1,1.14,4.66,4.66,0,0,1,.68,1.11c.09.14.2.18.24.34s0,.34,0,.52c.29.76,1.33.91,2,1.1a4.85,4.85,0,0,1,2.17,1c.64.57,1.18.5,2.05.5a6.64,6.64,0,0,0,2.56-.13,2.79,2.79,0,0,1,1.14-.22,13,13,0,0,0,1.65-.34,5.36,5.36,0,0,0,.7-.06c.19-.08.38-.35.54-.48a7.09,7.09,0,0,0,1.3-1.14,2.31,2.31,0,0,0,.35-.92,1.44,1.44,0,0,1,.73-1.14c.21-.14.33-.39.51-.52s.15-.06.4-.16c.68-.28.73-.91,1.11-1.5s.78-.6,1-1.28c.13-.5.35-.94.52-1.41s.06-.73.57-.77c.27,0,.59.09.85,0s.36-.44.61-.66a14,14,0,0,1,1.22-.78c.39-.29.74-.49,1.15-.74s.93-.68,1.4-1a7.77,7.77,0,0,0,1-.84c.29-.27.53-.76.86-1s.76,0,1.15-.19a8.53,8.53,0,0,0,.68-.67c.21-.18.4-.35.59-.54a2,2,0,0,1,1.19-.69,22.44,22.44,0,0,0,2.12-.79c1.21-.42,2.5.11,3.67-.54.58-.32,1.07-.82,1.69-1.11a3,3,0,0,1,1.4-.17,4.18,4.18,0,0,0,.79,0c.38-.07.29-.15.55-.34a3.73,3.73,0,0,1,.35-.16,2.13,2.13,0,0,0,.51-.57c.34-.4.46-.7,1-.77a3.18,3.18,0,0,0,2-1.15,6.91,6.91,0,0,1,2.36-1.46,15.28,15.28,0,0,0,2.33-1,7.9,7.9,0,0,0,.94-.81c.27-.23.44-.54.71-.77.46-.39.85-.84,1.26-1.26.65-.66,1.91-1.13,2.07-2.14.08-.51-.13-.79.38-1.1a5.77,5.77,0,0,0,.85-.45l.82-.74a15.21,15.21,0,0,0,2.24-2.15,5.09,5.09,0,0,0,.79-1.33,10.43,10.43,0,0,0,.21-1.56c.08-.56.26-.57.74-.59a2,2,0,0,0,.55-.15,3.77,3.77,0,0,1,1,0,2.74,2.74,0,0,0,2.39-1.29,4.84,4.84,0,0,1,1.06-1.06c.41-.28.85-.18,1.28-.36a2,2,0,0,1,.92-.23c.49,0,.54-.07.86-.41a11.5,11.5,0,0,0,1-.87,3,3,0,0,1,.75-.88,5.67,5.67,0,0,1,1.25-.27c.43-.09.85-.24,1.28-.32s.64.1.56.56a1.31,1.31,0,0,1-1.11,1.06c-.6.12-.94,0-1.47.4s-1.13.68-1.65,1.1c-.27.21-.51.45-.76.68a1,1,0,0,0-.33.42c-.11.21-.26.34-.37.54a3.88,3.88,0,0,1-1.59,1.89,7.38,7.38,0,0,1-1.38.36,2.22,2.22,0,0,0-1.24.64,15.26,15.26,0,0,0-1.5,1.51c-.15.19-.33.25-.48.41s-.11.26-.2.37-.4.23-.57.37-.27.31-.54.45a4.35,4.35,0,0,0-1.7,1.51c-.43.64-1.35,1-1.56,1.69-.1.37,0,.55-.26.87a6.86,6.86,0,0,1-1,.92c-.26.25-.34.62-.58.88s-.48.39-.68.63-.41.61-.68.87a11.55,11.55,0,0,1-1.2.88c-.45.31-.86.63-1.29,1s-.9.51-1.29.86a11.6,11.6,0,0,0-.72,1,3.5,3.5,0,0,1-.92.58c-.36.19-.55.46-.91.64a8.44,8.44,0,0,1-1.42.47,6.68,6.68,0,0,0-1.56.53,3.21,3.21,0,0,0-.72.66c-.27.25-.64.39-.93.62a14.9,14.9,0,0,0-1.47,1.39,6.33,6.33,0,0,1-.83.64,6.82,6.82,0,0,1-2,1.1c-.67.25-1.36.37-2,.64s-1.36.52-2,.73a4.56,4.56,0,0,0-2.57,2.1l-.36.55a4.55,4.55,0,0,0-.21.51c-.1.22-.35.35-.49.55s0,.29-.39.5a15.89,15.89,0,0,1-2.2,1.33,7,7,0,0,0-1.43.54c-.22.14-.38.36-.59.52a4.44,4.44,0,0,0-.54.6,5.89,5.89,0,0,1-1.65,1.31,8.47,8.47,0,0,1-1.61.28c-.64.14-.6.34-.59,1,0,.32-.11.82.06,1.09.31.5,1,.71,1.27,1.29a2.59,2.59,0,0,1,.13,1.27,4.34,4.34,0,0,0,0,1.44c.15.34.74.52,1.06.63a18,18,0,0,0,2.16.55c.58.12,1.19.14,1.51.69s.28.94.72,1.24a7.09,7.09,0,0,0,1.46.59c.59.23,1.23.38,1.84.55s1.2.29,1.8.51c.45.16.87.39,1.32.55s.82.27,1.22.44a5.83,5.83,0,0,1,1.48.73,4.44,4.44,0,0,0,.76.74,7.22,7.22,0,0,0,1.88.65c.94.23,2,.24,2.91.45a14.89,14.89,0,0,1,1.46.52,8.7,8.7,0,0,0,1.24.22c.67.11,1.36.26,2,.33a6.72,6.72,0,0,0,2.52-.34c.79-.21,1.58-.29,2.37-.44s1.61-.5,2.43-.66a10.58,10.58,0,0,1,2,0,8.5,8.5,0,0,0,1.6-.14,2.63,2.63,0,0,0,1.13-.26,5.47,5.47,0,0,0,1.48-1.62A4.2,4.2,0,0,1,115,241.2a4.68,4.68,0,0,1,1.88-.93c.48,0,1,0,1.47,0s.34-.26.39-.74c.12-1.07,2-.73,2.76-.73a9.16,9.16,0,0,1,2.16,0c.56.15,1.11.13,1.68.28a6.29,6.29,0,0,1,1.84.59c.32.22.61.5,1,.7l1.25.74c.5.28.9.15,1.45.26a8.3,8.3,0,0,0,1.65.14,5,5,0,0,0,1.45,0c0-.36.4-1.14.17-1.43s-1.44-.56-1.82-.7c-.56-.2-1.15-.39-1.68-.63s-1.17-.54-1.25-1.2a8.73,8.73,0,0,0-.17-1.51,4.21,4.21,0,0,0-.39-1.46c-.2-.26-.44-.27-.71-.41a10.41,10.41,0,0,1-1-.69c-.5-.32-1.68-.66-1.86-1.29a2.73,2.73,0,0,0-.43-1.08c-.18-.25-.91-.59-.92-.92,0-.65,2.16-1,2.62-1.07a3.39,3.39,0,0,1,2.19.47c.87.43,1,.14,1.46-.69a7.22,7.22,0,0,1,1.06-1.32c.12-.15.08-.32.24-.51a7.32,7.32,0,0,1,1.26-.77c.6-.42,1.39-1.15,2.22-.89a.74.74,0,0,1,.49.55c.05.16-.17.08-.29,0s-.1,0,0,0c-.06.14-.28.7-.33.68l.11.39a1.25,1.25,0,0,1,1.47-.18c.49.17,1,.25,1.46.41.82.26,1.75.16,2.52.48,1.37-1.29-.78-2.08-1.75-2.4a7.37,7.37,0,0,1-1.5-.51.87.87,0,0,1,0-1.61,5.59,5.59,0,0,1,.72-.26,5.87,5.87,0,0,0,1.11-.65c.86-.59,1.62-1.37,2.43-2a2.18,2.18,0,0,1,1-.39,9.15,9.15,0,0,1,1.71-.37,4.15,4.15,0,0,0,1.61-.6c.46-.27.5-.49,1.07-.51.95,0,1.78.38,2.72.37a3.21,3.21,0,0,1,1.5.21c.6.27,1.48,1.13,2.16,1.05.46-.05.93-.5,1.32-.71a11.69,11.69,0,0,1,1.48-.69,18.43,18.43,0,0,0,2.18-1,7.57,7.57,0,0,1,2.24-.69c1-.16,2.22-.47,3.12.13a7.68,7.68,0,0,1,.69.59,7.8,7.8,0,0,0,1.1.78c.85.52,1.57.87,1.67,1.95,1.34.41,3.06-.18,4.24.53a5.71,5.71,0,0,0,3.05,1.14,7.46,7.46,0,0,1,1.62.24c.43.08,1,.12,1.35.5a2.15,2.15,0,0,1,0,1.84c-.13.26-.19.23-.23.54a1.11,1.11,0,0,0,.18.77,5.93,5.93,0,0,0,.37.89c.24.34.69.14,1.1,0s.83-.36,1.11-.21.28.51.39.71a1.09,1.09,0,0,0,1.43.52,2.44,2.44,0,0,0,1.48-1.76c.06-.61,0-1.27,0-1.88s-.19-1.24.32-1.6a5.28,5.28,0,0,1,1.88-.74c.46-.09.82-.25,1.28-.36.27-.07.48-.1.73-.18a2.81,2.81,0,0,1,.87-.23c-.29,0,.31-.47,0-.47l-.09-.31c.05-.18.5.27.34.25-.27.52.13.53.5.53s.71.17,1.1.19,1,0,1.48,0a2,2,0,0,0,1.27-.17,2.56,2.56,0,0,0,.93-1.11c.07-.34-.1-.75,0-1.1a3.68,3.68,0,0,1,.61-1.06,1.56,1.56,0,0,1,.87-.54,10.32,10.32,0,0,0,2.75-1.14c.47-.31.3-.42.36-.92s.28-.64.74-.78a16.85,16.85,0,0,0,2.37-1.09c1.5-.73,3.25-.81,4.73-1.61.39-.21.68-.5,1.09-.68a2.08,2.08,0,0,0,1.15-1,1.84,1.84,0,0,0,.18-1.1,3.37,3.37,0,0,1,0-.55c.05-.4.05-.27.37-.49a6.19,6.19,0,0,1,.91-.65,6.77,6.77,0,0,0,1.1-.73c.21-.15.36-.35.58-.5a5.87,5.87,0,0,0,1-.69,12.57,12.57,0,0,1,1.13-1.29c.3-.24.57-.2.91-.36.5-.22.92-.55,1.39-.79a6.53,6.53,0,0,1,.94-.35,1.53,1.53,0,0,0,.73-.41c.24-.22.83-.57,1-.87s0-.34.06-.51.23-.33.28-.42a3.09,3.09,0,0,1,.45-.68c.15-.13.36-.15.52-.27s.22-.26.35-.37c.54-.47,1-.22,1.65-.31a1.49,1.49,0,0,0,.88-.42c.25-.22.55-.36.79-.56s.43-.47.72-.68.6-.49.9-.73.53-.24.76-.41.3-.37.48-.56c.34-.34.49-.39.65-.86a2.14,2.14,0,0,1,.86-1.06,12.46,12.46,0,0,1,2.77-1.28,2.25,2.25,0,0,0,1.68-1.51,2.57,2.57,0,0,1,.46-.92,3.46,3.46,0,0,1,1.37-.68,3.12,3.12,0,0,0,1.28-.59c.29-.22.57-.48.87-.7a8.63,8.63,0,0,1,.93-.44,6.4,6.4,0,0,0,1.69-1.75c.17-.25.24-.63.44-.83a5.6,5.6,0,0,1,.79-.5,3.19,3.19,0,0,1,.95-.59,5.47,5.47,0,0,0,2-1.25c.35-.28.56-.6.95-.86s.88-.6,1.3-.92l.71-.58a2.65,2.65,0,0,0,.56-.6c.21-.34.1-.53.17-.88a3.22,3.22,0,0,1,1.47-1.88c.95-.52,2-.57,2.94-1.18.56-.38.78-1.19,1.32-1.65.28-.24.57-.36.87-.6s.66-.28,1.09-.49a11.42,11.42,0,0,0,1.29-.79c.36-.23.75-.34,1.08-.58s.63-.67,1.12-.93l1.42-.73c.46-.23.84-.45,1.32-.64a8,8,0,0,0,1.25-.45,5.85,5.85,0,0,1,.75-.56c.4-.19.87-.31,1.26-.48.4.83-1.15,1-1.61,1.21a18.6,18.6,0,0,0-2.06,1.11,14.41,14.41,0,0,0-1.55,1.18c-.59.45-1.27.64-1.89,1.06a9.71,9.71,0,0,0-1.68,1.82,9.55,9.55,0,0,1-1.8,1.61c-.3.2-.59.45-.9.64s-.58.46-.92.69-.74.47-1.11.74a3.19,3.19,0,0,0-.55.35c-.23.23-.27.49-.54.7-.77.58-1.46,1.26-2.21,1.88a4.69,4.69,0,0,1-.91.68,10.87,10.87,0,0,0-1.29.72c-.25.18-.46.44-.71.64a3.2,3.2,0,0,0-.52.52c0,.07-.35.35-.38.4-.36.78,0,1.61-.63,2.3a7.78,7.78,0,0,1-2.29,1.32c-.36.19-.79.37-1.14.59a6.38,6.38,0,0,0-.53.51c-.34.3-.77.46-1.13.74a3.9,3.9,0,0,0-.51.4c-.1.15,0,.31-.05.47a5.19,5.19,0,0,1-.75.73c-.63.54-1.4.91-2,1.46-.25.22-.46.55-.72.74a8.27,8.27,0,0,0-.83.59c-.62.55-1.27,1.08-1.88,1.65A7.26,7.26,0,0,1,229,196.3c-.36.19-.74.34-1.1.57s-.43.46-.69.67a7.54,7.54,0,0,0-1,.67c-.22.22-.5.44-.7.68a5.46,5.46,0,0,0-.4.75c-.25.42-.5.81-.74,1.23-.44.81-1.08,2-2,2.21a12.72,12.72,0,0,0-2.36.43,5,5,0,0,0-1.42,1.07,17,17,0,0,0-2.34,2.38c-.32.49-1,1.66-.64,2.2.21.34.56.41.43.91s-.85.65-1.3.78c-1.29.37-2.58.94-3.84,1.42a5.08,5.08,0,0,0-2.76,1.65c-.25.35-.13.71-.3,1.09a9.44,9.44,0,0,1-.66,1.06,4.53,4.53,0,0,0-.5,2.38c0,.6.39.87.91,1.14a12.51,12.51,0,0,1,1.48,1,4.76,4.76,0,0,1,1.65,3.07c.08,1,0,2,0,2.92,0,.65.31,1.25.38,1.89,0,.27.1,1.07-.12,1.26.3-.24.72-.2,1-.39.16-.09.17-.22.34-.32s.52-.23.76-.37a21.71,21.71,0,0,0,2.18-1.89,5.07,5.07,0,0,1,2-.86c.36-.09.73-.14,1.1-.23a5.56,5.56,0,0,0,1.61-.54,8.7,8.7,0,0,1,1.32-.69c.53-.21,1-.49,1.52-.74a18.37,18.37,0,0,0,2.28-1.51c.26-.17.5-.38.77-.59a3.43,3.43,0,0,1,1.1-.5,11,11,0,0,1,1.6-.41,5.28,5.28,0,0,0,2.07-.65,11,11,0,0,0,2.14-1.54c.33-.35.63-.72,1-1.06a8,8,0,0,1,1.28-1,17,17,0,0,1,2-1.09,7.43,7.43,0,0,1,1.67-.55c.54-.13,1.09-.42,1.64-.52a17.34,17.34,0,0,1,2.19-.17,4.92,4.92,0,0,0,2.39-.87,2.47,2.47,0,0,0,.87-.83,5.51,5.51,0,0,1,.6-.68c.21-.2.33-.52.58-.69s.38-.15.51-.22a7.32,7.32,0,0,0,.93-.55c.53-.42,1.11-.72,1.69-1.11.28-.19.56-.37.87-.54s.8-.64,1.24-.93l.15-.1c-.09.08-.19.17-.3.25a5.47,5.47,0,0,0-1.41,1.87,3.59,3.59,0,0,1-.82.91,8.84,8.84,0,0,1-.88.74,5.49,5.49,0,0,1-.78.51c-.37.18-.68.44-1.05.64s-.74.35-1.1.55a10.5,10.5,0,0,0-.92.69c-.31.21-.65.25-1,.5s-.61.39-.87.59a3,3,0,0,1-1.83.92c-.81,0-1.56.32-2.38.36a4.53,4.53,0,0,0-2,.92,12.22,12.22,0,0,0-1.41,1.47,15.2,15.2,0,0,1-1.37,1.41,11.58,11.58,0,0,1-1.06.65c-.19.1-.36.21-.55.32s-.5.17-.74.31-.35.3-.54.42a6.61,6.61,0,0,1-1,.42c-.63.25-1.27.55-1.91.81a9.49,9.49,0,0,1-2.33.59,2.11,2.11,0,0,0-.6.15c-.28,0-.62,0-.88,0a2.36,2.36,0,0,0-1.09.75c-.4.39-.68,1-1.14,1.28a16.64,16.64,0,0,1-1.84.78,23.58,23.58,0,0,1-2.56.73,1.85,1.85,0,0,0-.73.36c-.12.11-.19.29-.32.38s-.29.08-.38.16-.05.19-.07.29a3.61,3.61,0,0,1-.51.36c-.38.26-.71.52-1.11.74s-.94.5-1.46.72a6.69,6.69,0,0,1-2.38.79c-.3,0-.62-.06-.91,0a11.12,11.12,0,0,0-1.09.42c-.76.2-1.5.28-2.25.5a7.17,7.17,0,0,1-1.83.37,11.67,11.67,0,0,0-1.45.14c-.23,0-.51,0-.72,0a10.34,10.34,0,0,0-1.63.74c-.37.17-.76.08-1.11.22-.2.08-.35.29-.54.39a3.62,3.62,0,0,1-.56.17c.05.36,1.83.08,2.17.13a8.32,8.32,0,0,0,1.49.19c.82,0,2.18.12,2.39,1.1a1.25,1.25,0,0,0,.54,1c.38.29.62.74,1,1s1.23.16,1.71.25a5.68,5.68,0,0,1,1.54.37,5.09,5.09,0,0,1,1.83,1.41,4.36,4.36,0,0,1,.7,1.29c.05.16,0,.37.07.52s.37.29.51.43.35.51.69.72.5.22.76.34c.61.28,1.24.53,1.85.74s.94.1,1.42.22,1.13.35,1.68.51c.73.22,1.51.29,2.22.55a6.32,6.32,0,0,0,.92.33c.18,0,.38,0,.55,0s.18.16.34.2a2.62,2.62,0,0,0,.56,0,2.33,2.33,0,0,0,1.5-.35c.62-.42,1.06-1,1.83-1.26a9,9,0,0,1,2.57-.4h5.95a16.9,16.9,0,0,1,3.18.14,6.78,6.78,0,0,1,1.25.2c.62.21,1.2.53,1.81.76.85.31,1.61.77,2.42,1.15a4.88,4.88,0,0,0,1.82.32,15.89,15.89,0,0,1,4,.5,7.47,7.47,0,0,0,1.48.23,5.39,5.39,0,0,1,1.09.18,3.85,3.85,0,0,0,2.42-.78c.64-.35,1.33-.55,2-.87s1.1-.6,1.63-.91a17,17,0,0,0,2.72-2.57c.1-.09.14-.23.25-.32a6.44,6.44,0,0,1,.65-.3,6.49,6.49,0,0,0,1-1,19,19,0,0,1,1.61-1.36,5.92,5.92,0,0,1,.8-.69,2.16,2.16,0,0,1,.51-.06,15.46,15.46,0,0,0,3.34-.92,10.74,10.74,0,0,1,2.47-1.07,2.69,2.69,0,0,0,1.73-.57c.48-.4.86-1,1.42-1.3a4.35,4.35,0,0,1,1.87-.13h3.14c0,.69,2,.64,2.49.64a20.55,20.55,0,0,1,2.22,0,13.11,13.11,0,0,0,1.91.28h3.3a9.89,9.89,0,0,1,3.57.21c1.24.52,2.4.41,2.47-1.31,0-.55,0-1.1,0-1.64,0-.79-.15-1.17.52-1.64a49.71,49.71,0,0,1,5.6-3c.7-.35,1.87-.28,2.42-.79.25-.24.3-.41.56-.63a9.77,9.77,0,0,1,1.9-1.05c.73-.33,1.35-.76,2.11-1,.95-.32,1.83-.72,2.76-1.1a6.84,6.84,0,0,0,2.76-1.79,2.48,2.48,0,0,0,.6-2.12c0-1.32.3-2.52.27-3.84,0-1.57,1.67-2,1.65-3.58A4.8,4.8,0,0,0,317.42,209.79Zm-32.3-141.3c.24-.33.53-.64.69-.67l-.52.63a4.2,4.2,0,0,1,.53-.09c.92-.1.74-1.2,1.62-1.58a7.63,7.63,0,0,1,2.7,0,3.48,3.48,0,0,1,1.9.46c.48.37.25,1.38.25,2s0,1.44,0,2.16c0,1.39.95,2.32.2,3.72s-1.2,2.29-2.89,2a2,2,0,0,1-1.37-1.08c-.24-.78.25-1-.46-1.63a11.2,11.2,0,0,0-2-1.43c-.7-.38-1.25-.72-1.35-1.54a5.45,5.45,0,0,1,.26-2.17s0,0,0-.06l-.29.34C284.31,68.87,284.69,68.61,285.12,68.49ZM273.44,48.38a13.49,13.49,0,0,1,.7-1.43c.36-.87.55-1.62,1.69-1.22.32.11.48.39.79.49a10.4,10.4,0,0,1,1.09.34c.79.36,1.79,0,2.45.72a1.24,1.24,0,0,1,.26,1.1c-.08.52,0,.46-.54.73a4.31,4.31,0,0,1-2.44.61,2.3,2.3,0,0,1-1.69-.46c-.62-.52-.39-1.32-1.46-1.15h.18l.54,1.08C274.28,49.2,273.19,49.41,273.44,48.38ZM225.87,82.14a2.82,2.82,0,0,0,.27-1.57c0-.79.12-.91.8-1.34a7.77,7.77,0,0,1,1.9-.81c1.57-.52,2.8-1.72,4.25-2.51a4.55,4.55,0,0,0,1-.46c.17-.17.09-.38.22-.55.34-.41.93-.73,1.31-1.14s.86-1.09,1.35-1.62a3.13,3.13,0,0,0,.82-1.07c.13-.5-.1-.87.18-1.38a8.93,8.93,0,0,1,.67-1.08c.36-.41.92-.65,1.31-1s.55-1,1.12-1.36A8.39,8.39,0,0,0,244,63.48a7.55,7.55,0,0,1,.81-1,9.06,9.06,0,0,1,1.08-1.16,6.35,6.35,0,0,0,1.36-1.07,3.82,3.82,0,0,1,1.14-1,8.08,8.08,0,0,0,1.34-1.14,7.71,7.71,0,0,1,1.57-1c.3-.18.5-.43.78-.61a10.37,10.37,0,0,1,1.38-.53c.63-.3,1.24-.6,1.88-.88.92-.41,1.81-.91,2.75-1.29,1.15-.46,2.38-.78,3.49-1.34a10.49,10.49,0,0,0,1.14-.73l.17-.15c.49-.4,1-.85,1.48-1.24a1.21,1.21,0,0,1-.66.22l.27-.54c.3,0,.51.24.81.29s.48-.06.74,0a.81.81,0,0,1-.66.2,4.2,4.2,0,0,0-1.23.54c-.31.2-.61.42-.92.63l-.47.45c-.39.34-.83.35-1.19.6-.58.42-1.14.83-1.79,1.22s-1.35.73-2.05,1.08a16.85,16.85,0,0,0-3.43,2c-.27.24-.57.34-.82.54s-.35.53-.59.75c-.57.55-1.36,1.06-2,1.55a20.59,20.59,0,0,1-2.1,1.62c-.68.42-1.42.36-1.9,1.08a2.86,2.86,0,0,0-.47.94c0,.28,0,.71-.11,1a5.35,5.35,0,0,1-1.86,1.34,5.69,5.69,0,0,0-1.68,1.4,4.2,4.2,0,0,1-.74,1,4.3,4.3,0,0,0-.61.52,16.75,16.75,0,0,1-1.06,1.41c-.29.34-.53.79-.82,1.11s-.56.3-.5.69c.3-.27.77-.18,1.06-.49s.14-.47.37-.68a1.44,1.44,0,0,1,1-.35,4.9,4.9,0,0,0,1.08-.2c.46-.11.53-.06.87-.31s.61-.85,1.08-1.12,1.6-.82,1.85-.27c.15.33-.08.66-.22.9l-.29.25a.75.75,0,0,0,0,.49,5.61,5.61,0,0,1-1,1.63,2,2,0,0,1-2,.8c-.64-.08-1.14-.87-1.69-.29s-.6,1.61-1.27,2.19a3.93,3.93,0,0,1-1.89.86c-.48.11-1.8.49-1.92,1s.7.76,1,1.16c.84,1,.35,3.44-1.29,3.17-.55-.09-.46,0-.54-.54a7.79,7.79,0,0,1,0-1.08,8.82,8.82,0,0,0-.06-2.41,5,5,0,0,0-1.63,1.59c-.34.52-.39.87-1,1.16a10,10,0,0,1-1.58.69c-.47.12-1-.07-1.42,0-.18,0-1,.39-1,.55s.37.57.2,1a1.22,1.22,0,0,0-.43.31,6,6,0,0,0-.26.58,3.67,3.67,0,0,1-2.23.8,6.58,6.58,0,0,0-2.43.6,21,21,0,0,1-2.37.74,11.12,11.12,0,0,1-3.16.27A22.41,22.41,0,0,0,220.2,84c.56-.19,1.05-.56,1.6-.75a14.54,14.54,0,0,1,2.17-.4C224.67,82.75,225.5,82.75,225.87,82.14Zm-10.23-10a4.18,4.18,0,0,1,1-.81,2.88,2.88,0,0,1,1.31.06c.3.22.27.73.39,1,.37,1,1.23.61,2,.79a4.55,4.55,0,0,1,1.65.81,1.71,1.71,0,0,1,0,1c-.43,0-.69.44-1,.66a8.57,8.57,0,0,1-1.63.74c-.57.23-2.8.7-3.21,0s.12-1.7.44-2.2c.18-.28,1.21-1.71.06-1.33l-1.08.54C215.61,73.13,215.46,72.44,215.64,72.12Zm-7.56-17.24a6.79,6.79,0,0,0,2.66.26,8.4,8.4,0,0,1,1.41-.29c.31,0,1.28-.17,1.53,0s0,1.08,0,1.31a1.22,1.22,0,0,1-.53,1.09,4.17,4.17,0,0,1-.46.29l1,0-1.62.34a4.53,4.53,0,0,1-2.16.47l2.16-.47c.24-.1.45-.21.64-.31a7.65,7.65,0,0,1-1.18,0,3.12,3.12,0,0,1-1.29-.61C209.62,56.55,207.64,55.91,208.08,54.88Zm-6.81,7.52c.17-.39.74-.4,1.1-.58s.69-.48,1.08-.69a4.45,4.45,0,0,1,3.25-.07c.66.14.68.4,1,.88s.71.47.65,1c-.09.82-1,.52-1.59.54-.91,0-.56.42-.39,1.09a2.44,2.44,0,0,1-.13,1.62,2.69,2.69,0,0,1-.4.77.79.79,0,0,1-.48,0c-.71.27-2.39.62-3.13.22s-.47-1.69-.41-2.53a1.41,1.41,0,0,1-.46-.65A3.81,3.81,0,0,1,201.27,62.4ZM170,80.21c.6.26.08,1.39.23,1.93.23.77,1.22.44,1.72,1,.35.37.26,1.43.15,1.92-.46.19-.88,0-1.37.3a3.84,3.84,0,0,1-1.37.57,4,4,0,0,1-1,0c-.35-.18-.19-.18-.25-.55a6.5,6.5,0,0,1,.22-2.24c.14-.83-.16-1.51.6-2.09l-1.62.27C167.7,80.91,169.41,80,170,80.21ZM165.63,107a2.82,2.82,0,0,1,1.92-.26,5.11,5.11,0,0,1,1.64.61c.37.34.24.82.24,1.29a1.91,1.91,0,0,1-.25,1.35,2.93,2.93,0,0,1-1.86,1.1c-.64.08-.81,0-.87-.55a2.2,2.2,0,0,1,.55-1.63h-2.43A2.5,2.5,0,0,1,165.63,107Zm-5.38-.52-.81.54c0-.22-.14-.86,0-1s.81,0,1,0a4,4,0,0,1,1.68.21c.59.25,1.24.45,1.3,1.14a1.36,1.36,0,0,1-.34,1c-.22.17-.52,0-.77.09-1.14.62-.24,2.74-.58,3.74-.52,1.56-2.31.87-3.41.76,0-.93-1.21-1-1.41-1.85a2.94,2.94,0,0,1,.28-2.1c.35-.37.64-.25,1.09-.38s.71-.36,1.07-.49C160.41,107.71,160.24,107.39,160.25,106.43Zm-8.11-34.56.54-.81c0-.67-.12-1.14.59-1.36s1.9.26,2.67.49,1.53.13,1.35,1.14a1.83,1.83,0,0,1-1.08,1.35,5.26,5.26,0,0,1-2.44,1.08,6,6,0,0,1-1.64,0C151,73.37,151.94,72.5,152.14,71.87ZM43.81,182a2.71,2.71,0,0,1-1.51.89c-.22,0-1.21.1-1.37-.06-.39-.39,0-1.74.23-2.12l-1.35-.81c.49.16.77-.48,1.28-.56a2.42,2.42,0,0,1,1.48.35C43.45,180.12,44.78,180.92,43.81,182Zm-5.35-29.37,0-.23c1-.29,2,.2,2.93.23.44,0,.89-.18,1.09.25a1.24,1.24,0,0,1-.27,1.11,2.8,2.8,0,0,1-2.51.47c-1-.2-1.7-1-2.64-1.29Zm-1.9,37.47a3.71,3.71,0,0,1,.8-.63c-.17-1.26,2.32-1,2.92-.6a1.48,1.48,0,0,1,.55,1.83c-.24.89-1.37.66-1.55,1.28.82.34,1.58.75,1.62,1.69,0,.62,0,1.27,0,1.89,0,.87-.75,1-1.58.83s-.59-.74-.59-1.43a5,5,0,0,0-.21-1.88c-.2-.55-.12-.52-.64-.82s-1-.41-1.41-.69C35.77,191.12,36,190.62,36.56,190.08ZM26,203.53l.1-.11a.48.48,0,0,1,.33-.17c-.14.08-.28.18-.43.28a8,8,0,0,1-.79.87,3.71,3.71,0,0,0-.55.5A3.88,3.88,0,0,1,26,203.53Zm4.38,19c-1.46.31-1.48-1.13-2.17-1.91-.32-.37-1-.58-1.11-1.07s0-.85-.31-1.36a5.3,5.3,0,0,0-1.28-1.35c-.47-.37-1.27-.62-1.09-1.35H23.34c-.54,0-1.45.19-1.91-.19a1.4,1.4,0,0,1-.21-1.45c.43-.7,2.19-.22,2.67.21s.69,1.6,1.33,2.24c1.12,1.13,2.61,1.65,3.8,2.7.56.49,1.61,1.16,1.84,1.89S31.09,222.43,30.38,222.57ZM35.22,215a8.71,8.71,0,0,1-2.7,0c-.58,0-.82.12-.82-.53,0-.39,0-.71.55-.54l-2.16-1.62a26.07,26.07,0,0,1,4.32.47c.82.15,1.34-.07,1.35.88C35.77,214.15,35.81,214.7,35.22,215ZM264,109.74c-.44.27-.73.69-1.13,1-.14.09-.45.15-.61.24a6,6,0,0,0-.76.56,5.55,5.55,0,0,0-.78.94,14.66,14.66,0,0,1-1.58,1.08,13.1,13.1,0,0,1-2.22,1.9c-.53.29-1.08.54-1.62.8a8.17,8.17,0,0,0-1.63,1.3,21.3,21.3,0,0,0-2.22,2.13c-.39.43-.75.91-1.09,1.36s-.17.34-.51.61a7.35,7.35,0,0,1-1,.55c-.46.24-1,.43-1.4.66s-1,.27-1.56.53a4.35,4.35,0,0,0-2.16,2.25,2.31,2.31,0,0,1-1.06,1.28c-.35.19-.77.19-1.11.39s-.62.5-1,.7c-1.3.66-2.56,1.3-3.87,2-1,.53-1.39,1.52-2.41,2-1.38.66-2.73,1.53-4,2.29s-2.51,1.49-3.79,2.17-2.76,1.32-4.12,2-2.8.87-4,1.69-2.35,2.19-3.78,3c-1.83,1-3.64,2-5.48,3-1.18.63-2.58.88-3.69,1.6a25.68,25.68,0,0,0-2.7,1.95,15.1,15.1,0,0,1-1.35,1.3c-.28.18-.54.3-.82.46s-.37.39-.6.56a3.63,3.63,0,0,1-1.56.59,5.81,5.81,0,0,0-1.28.62,12.91,12.91,0,0,1-2.77,1,4.75,4.75,0,0,0-2.36,1.14,23.58,23.58,0,0,1-2.22,2.15,12.41,12.41,0,0,0-1.57,1,2.38,2.38,0,0,1-1.13.83,15.78,15.78,0,0,1-2.18.54,5.84,5.84,0,0,0-1.46.19,13.41,13.41,0,0,0-1.77.81c-.6.31-1.25.62-1.83.94-1.43.79-2.88,1.5-4.4,2.17a23.69,23.69,0,0,0-3.5,1.82c-.87.58-1.54,1.33-2.35,2a3.74,3.74,0,0,1-1.42.68c-.58.14-1,.32-1.58.51a2,2,0,0,1,.29-1.75c.29-.35,1.08-.6,1.25-.92.55-1-2.59-1.12-3.14-1-1.71.5-1.44,2.4-2.48,3.47-.29.3-.74.36-1.09.57s-.67.49-1,.71a5.86,5.86,0,0,1-1.74.59,6.46,6.46,0,0,0-1.47.53,6.12,6.12,0,0,0-1.13.61c-.2.3,0,1.19,0,1.56a5.22,5.22,0,0,1-.06,1.63c-.08.24-.35.39-.43.59s0,.53-.09.82c-.26.87-1.36,1.08-2.12,1.22a6.72,6.72,0,0,1-2.1.07c-.39-.07-1.3-.22-1.43-.53s.23-1.21,0-1.66-1.16-.28-1.63-.26c-.7.05-1.48.16-2.17.27-1,.16-1.67,1.32-2.14,2a5.47,5.47,0,0,1-1.62,1.36,20.21,20.21,0,0,0-1.89,1.28c-.82.62-1.78,1.06-2.64,1.62a11.62,11.62,0,0,1-2.24,1.29c-1.48.54-3,1-4.52,1.48-.64.22-1.35.3-2,.52a3.43,3.43,0,0,0-1.41,1.31,5.71,5.71,0,0,1-1.55,1.14,8.93,8.93,0,0,1-1.36.82,30.72,30.72,0,0,1-3,1,19.38,19.38,0,0,0-3.39.87,11.13,11.13,0,0,1-1.41.75,7.75,7.75,0,0,1-1.56.33c-1,.2-2,1-3,1.23a12.81,12.81,0,0,1-1.61.34,5.59,5.59,0,0,1-2.16,0c0-.65,1.9-1.24,2.42-1.58s.4-.43.52-1.08a1.7,1.7,0,0,1,.9-1c.66-.42,1.39-.38,2-.94s.28-1.32.34-2a5,5,0,0,1-1.43.91,8.72,8.72,0,0,0-1.51,1,5.42,5.42,0,0,1-1.4,1.09,9.41,9.41,0,0,1-1.9.46c-1.38.26-1.41,1.58-1.67,2.7a2.18,2.18,0,0,1-.4.89c-.17.16-.42.11-.56.24-.41.38-.58,1-1.07,1.38-.93.69-2,1.29-3,1.88a22,22,0,0,0-3,1.76,3,3,0,0,0-.43.12c0,.14-.08.28-.11.43s-.31.24-.47.38c-.67.57-1.38,1.05-2.11,1.57-.46.34-1,.48-1.42.79s-.6.54-1,.77c-.83.45-2,1.22-3,1.09,0-.68.83-1.1,1.22-1.63.17-.23.11-.45.32-.7a2.9,2.9,0,0,1,.53-.39,10.86,10.86,0,0,1,1.37-.75c1-.42,1.94-.87,2.9-1.28a5.79,5.79,0,0,0,1.69-.93,14.82,14.82,0,0,1,1.9-1.51c1.61-1,2.7-2.55,4.09-3.84.48-.44.91-.46,1.23-1.07a7,7,0,0,0,.4-1.3,3.24,3.24,0,0,1,1.36-1.61,8.4,8.4,0,0,1,1.27-1,6.46,6.46,0,0,0,1.37-.8,6.33,6.33,0,0,1,2.15-1.62,22.93,22.93,0,0,0,2.76-1.5,10.34,10.34,0,0,0,2.59-1.21,5.83,5.83,0,0,1,2-1.22,12.14,12.14,0,0,0,1.29-.32,6.25,6.25,0,0,0,1.29-.82,7.82,7.82,0,0,0,1.68-1.62,2.81,2.81,0,0,1,1.62-1.07c.44-.18.62-.27.55-.82s0-.26-.27-.55a3.35,3.35,0,0,0-1-.6c-1-.43-2-.05-3,.07a7.7,7.7,0,0,0-3,1c-.61.37-1,1-1.56,1.38a4.45,4.45,0,0,1-1.63.59,15.68,15.68,0,0,1-3.23.54h-3.24a4.64,4.64,0,0,0-1.89.27,6.47,6.47,0,0,1-1.9.27,5,5,0,0,0-1.61.61,3.66,3.66,0,0,1-1.68.2c-.85,0-1,0-1.62.48a3,3,0,0,0-.43.12c0,.07,0,.14-.05.2s-.4.43-.48.54a2.48,2.48,0,0,1-1.2,1,4.92,4.92,0,0,1-1.82.62c-.4,0-1.82-.25-2.13,0-.12.11-.07.62-.1.77a4.21,4.21,0,0,1-.27.75c-.65,1.2-2.28,1.1-3.39,1.68a60.49,60.49,0,0,0-5.81,2.9c-.41.27-.79.68-1.2,1a10.71,10.71,0,0,1-1.36.66,16.73,16.73,0,0,1-1.68.88,12.68,12.68,0,0,1-2.18.48,16.38,16.38,0,0,0-1.94.33,13.17,13.17,0,0,1-1.82.56,2,2,0,0,0-1.35.51,12.88,12.88,0,0,0-1.15,1.3,11.87,11.87,0,0,1-5.87,3.58c-1.44.35-2.9.33-4.34.8a12.3,12.3,0,0,1-3,1.09,8.85,8.85,0,0,0-1.87.2,10.14,10.14,0,0,1-1.91.06,10.35,10.35,0,0,0-1.62.33c-.54.13-.84.53-1.34.7-.72.25-1.24-.11-1.9-.23-.51-.09-1,.06-1.56,0-.15,0-.39-.18-.59-.22a5.17,5.17,0,0,0-.88,0H44.66a6.22,6.22,0,0,0-1.88,0c-.6.23-.74.93-1,1.39-.1.18-.24.26-.35.46s.06.37-.18.62a.67.67,0,0,1-1.18-.34c-.26-1.2.46-2.44-1.33-2.43-1.25,0-2.08.9-3.24,1.09a8,8,0,0,0-1.9.24,2.77,2.77,0,0,0-.87,1.08c-.28.51-.22.83-.73,1.16a3.28,3.28,0,0,1-1.59.51c-.15,1.39-1.3,3.47-3,3.21-.64-.1-.53-.16-.53-.82a1,1,0,0,1,.25-.87,8.48,8.48,0,0,1,2-1.48c.43-.3,2-1.13,1.79-1.64,0,.1-.6-.35-.57-.32a1.25,1.25,0,0,0-.4-.36,1.26,1.26,0,0,0-.88-.18,4.51,4.51,0,0,0-2.24.19l-.28.18a.83.83,0,0,0,.09-.37c.06-.35-.06-.74,0-1.09.08-.56,0-.46.54-.54a7.93,7.93,0,0,1,1.09,0,5.42,5.42,0,0,1,1.94.47c.38.12,2,.68,2.34.29.22-.22,0-.78,0-1a3,3,0,0,1,.48-.8,3.28,3.28,0,0,1,2-.82,11.93,11.93,0,0,1,1.89,0l-.65.25h.11a7.44,7.44,0,0,0,1.89.28,5.61,5.61,0,0,1,.82,0c.27,0,.39.17.58.21a4.48,4.48,0,0,0,1,.06,3.09,3.09,0,0,1,.87.22,6.73,6.73,0,0,0,1.62.05h3.51a8.19,8.19,0,0,0,1.64,0c.24-.06.26-.24.51-.3s.57.09.84,0c.51-.12,1-.47,1.6-.57a9.74,9.74,0,0,1,1.62,0c1.14,0,2.3,0,3.44,0a8.79,8.79,0,0,0,2-.49,9.74,9.74,0,0,0,1.57-.39,12.57,12.57,0,0,0,1.28-.82c.35-.18.6-.49.93-.68a5.91,5.91,0,0,1,.81-.27,6.33,6.33,0,0,1,.76,0c.7,0,1.37-.23,2.1-.27a6.27,6.27,0,0,0,2.95-1.15c.74-.52,1.51-1.06,2.17-1.62a5.48,5.48,0,0,1,1.94-1.3,23.11,23.11,0,0,1,3.53-.52c1-.12,1.55-.9,2.35-1.43s1.66-1.17,2.52-1.76a11.42,11.42,0,0,1,2.42-1.07c.88-.35,1.64-.65,2.49-1.08a11.44,11.44,0,0,1,2.31-.94.38.38,0,0,1,.31-.22l.57,0a2.1,2.1,0,0,0,.53-.29,2.64,2.64,0,0,0,.87-1A5.56,5.56,0,0,1,93,182.52c.82-.38,1.71-.84,2.5-1.28.38-.21.68-.63,1.13-.76a3.61,3.61,0,0,0,1.23-.39,8.19,8.19,0,0,1,2.28-1.5c1-.3,2.08-.41,3.12-.66a9.16,9.16,0,0,1,1.68-.49,10.58,10.58,0,0,0,1.34-.27,27.11,27.11,0,0,1,3.25,0h1.93c.52,0,1.08.06,1.6,0s.68-.24,1.07-.3c.63-.1.79,0,1.33-.33a8.68,8.68,0,0,1,1.37-.67,7,7,0,0,0,.73-.41c.18-.1.46-.11.62-.19.38-.2.66-.42,1.06-.61a10.86,10.86,0,0,1,1.42-.69c.51-.13,1,0,1.56-.12a5.16,5.16,0,0,0,2.43-1.35c.71-.73.88-1.87,2.13-1.51,0,.21-.38.58-.51.76a4.6,4.6,0,0,1-.61.74c-.32.32-1.19.94-1.25,1.35a8.49,8.49,0,0,1,1.39,1.08,5.53,5.53,0,0,0,.53.55c.19.14.38.06.56.25a1,1,0,0,1,.2.91c-.1.3-.35.32-.49.57-.3.53.12,1.3,0,1.85a2.93,2.93,0,0,1-1.09,1.15c-.37.21-.73.19-1.09.44a3.4,3.4,0,0,0-.75.85c-.53.7-.38,2.61-1.85,2.4.29.29.56,1,1,1.12s.71-.26,1.09-.3c.91-.12,2,.26,2.91-.05a7.86,7.86,0,0,0,2.23-1.79c.45-.41.91-1,1.4-1.33s.83-.41,1.22-.68.63-.47.94-.67c.74-.46,1.58-.79,2.31-1.21a10.94,10.94,0,0,0,2.16-1.63,2.7,2.7,0,0,1,.87-.75,3.37,3.37,0,0,1,1-.25c-.34-.49-.79-.16-1.26-.27-.25-.05-.27-.24-.51-.29s-.54.06-.83,0-.39-.35-.6-.44-.47,0-.69-.1-.22-.34-.38-.44-.48-.05-.7-.11-.31-.18-.59-.22a7.48,7.48,0,0,0-.82,0h-1.62c-1,0-2.34.28-3.21-.32,0-1.39,1.76-1,2.67-1a17.91,17.91,0,0,1,4.4.2c.67.18,1.37.21,2,.4.42.13.66.43,1.14.49.65.07,1.24.19,1.9.25s1.23.39,1.89.49a9.8,9.8,0,0,0,3.44-.27c.7-.13.87-.5,1.35-1a4.7,4.7,0,0,1,1.43-1.08,5.57,5.57,0,0,1,3.22-.2,4,4,0,0,1,1.7.68c.36.31.55.85,1,1.07.3-.93-.27-1.66.52-2.42a16.55,16.55,0,0,0,1.41-1.81,17.25,17.25,0,0,1,1.69-2.1c.31-.29.64-.65,1-.89s.73-.49,1.14-.74a7.1,7.1,0,0,1,3-.88,2.08,2.08,0,0,0,1.06-.25c.48-.24.82-.65,1.31-.9a4.27,4.27,0,0,1,2.49-.47,5.71,5.71,0,0,1,1.08.28,4.56,4.56,0,0,0,1,.32c0,.25.07.48.1.73.32-.15.71-.32,1-.51a5.9,5.9,0,0,1,.79-.55c.33-.12,1,0,1.32-.31a5.15,5.15,0,0,0,.24-.57,2.09,2.09,0,0,0,.28-.24,17.62,17.62,0,0,1,4.12-3.19,7.91,7.91,0,0,1,1.41-.74,6.83,6.83,0,0,0,1.58-.53c.33-.26.08-.3.3-.62s.52-.52.77-.82a4.85,4.85,0,0,1,.85-1,5.07,5.07,0,0,1,1-.34s.56-.2.59-.2c.25-.05.53,0,.76-.05s.27-.24.52-.3a7.42,7.42,0,0,1,1.63,0,5.51,5.51,0,0,0,1.63-.26,30.1,30.1,0,0,0,3.24-1.36,14.76,14.76,0,0,1,2.48-1c.63-.13,1.24,0,1.84-.26a7,7,0,0,0,1-.68,18.23,18.23,0,0,1,2.5-1.89c.34-.17.79-.29,1.1-.47s.26-.34.49-.48.78-.2,1.13-.39a6.48,6.48,0,0,1,.79-.49,25.37,25.37,0,0,0,2.72-1.34c.28-.16.51-.38.8-.55l.53-.33a9.42,9.42,0,0,1,1.35-.67c.93-.39,1.57-1.18,2.43-1.63a1.88,1.88,0,0,0,.48-.12,1.3,1.3,0,0,1,.32-.42c.27-.2.6-.39.88-.6a14.56,14.56,0,0,1,1.77-1.16c1-.53,2-1.24,3-1.82.59-.33,1.29-.5,1.91-.8.44-.22.87-.52,1.33-.75a7,7,0,0,0,1.28-.67,6,6,0,0,0,.95-.94c1.56-1.85,4.34-2.33,5.86-4.13a17.41,17.41,0,0,1,1.85-1.42,3.59,3.59,0,0,1,1.14-.66c.61-.27,1.16-.6,1.8-.82a20.08,20.08,0,0,0,2-.6,17.1,17.1,0,0,0,1.62-.88,9.65,9.65,0,0,1,.81-.56c.19-.09.59-.11.75-.25.33-.26.37-.64.66-.94s.62-.66.94-1a11,11,0,0,1,1.44-1.22c.45-.29.88-.54,1.35-.81.93-.52,2-.9,3-1.48a11.1,11.1,0,0,1,1.89-1c.28-.11.36,0,.62-.19s.11-.37.25-.56a9.31,9.31,0,0,1,2.36-1.74c.92-.58,2-.8,2.91-1.35.39-.23.87-.42,1.22-.67s.5-.6.8-.83l.41-.1c.11-.17.21-.34.32-.5a4.49,4.49,0,0,1,.77-.61c.41-.3.82-.62,1.21-.94s.63-.7,1-.95,1.11-.63,1.63-1a7.1,7.1,0,0,1,1.62-.6,2.47,2.47,0,0,0,.6-.19,8,8,0,0,0,.75-.55c.54-.37,1.08-.71,1.62-1.08.16-.11.41-.23.65-.37s.37-.56.67-.69c0,.28-.33.5-.67.69a.73.73,0,0,1-.08.09c-.32.28-.78.51-1.13.77S264.45,109.46,264,109.74Zm3.72,77.71c-.57,0-1.05-.27-1.63-.28-.27,0-.79.13-1,0s-.17-1-.37-1.25-.47-.27-.5-.87a6.77,6.77,0,0,1,0-1.35c.06-.37.38-.62.24-1a1.06,1.06,0,0,0-.77.71l-1.35.27.22,0a3.24,3.24,0,0,1,1.94-2.34c.49-.19,2-.21,2.39.28.21.29,0,.93.09,1.29a2.45,2.45,0,0,0,.77,1c.57.6,1.63,1.33,1.62,2.22C269.34,187.14,268.65,187.52,267.72,187.45Zm30-6.49v1.89c0,1.08,0,2.16,0,3.24,0,.73-.15.92-.81,1.3-.49.28-.79.34-1.14.86a9.69,9.69,0,0,0-.82,1.29,4.1,4.1,0,0,0-.19,1.42c-.12,1-.94,1.53-1.58,2.26a5.87,5.87,0,0,0,0,1c0,.66-.17.79-.47,1.35-.19.36-.44.75-.67,1.16-.07.24-.17.46-.27.73-.19.46-.3,1-.47,1.36,0,.05,0,.09-.05.13,0,.49.07,1,.05,1.48,0,.64-.38.94-.75,1.43-.09.12-.17.24-.25.37l0,.09a3.27,3.27,0,0,1-.39,1.3,20.66,20.66,0,0,1-1.76,1.74,10.75,10.75,0,0,0-1.35,2.38c-.28.49-.53,1.23-.84,1.74.08.14.2.2.25.39a4.63,4.63,0,0,1,0,.83l-1.35,1.62a5.79,5.79,0,0,1,.06-1.56c.13-.45.48-.6.76-.87a1.5,1.5,0,0,0,.3-.41.33.33,0,0,1-.05-.12,6.84,6.84,0,0,1,0-1.63c.06-1.24,1.89-2.39,2.71-3.23a7.74,7.74,0,0,0,.52-.83c.23-.29.54-.51.77-.82s.28-.42.41-.62.34-.76.39-1,0-.49.06-.75.16-.38.21-.59a7.17,7.17,0,0,1,.29-.89,2.73,2.73,0,0,1,0-.41,5.94,5.94,0,0,1,.76-1.81,2.9,2.9,0,0,0,.07-.34,5.84,5.84,0,0,1,.79-2.71,4.46,4.46,0,0,1,.33-.43,2.27,2.27,0,0,1,.22-.65,5.54,5.54,0,0,0,.55-1.35,4.34,4.34,0,0,1,.61-1.33,16.27,16.27,0,0,0,.53-1.58c.2-.47.48-.89.67-1.39.37-1,1.08-2.41.38-3.47-.36-.53-1.34-.81-1.61-1.39a2.31,2.31,0,0,1,.14-1.7,2,2,0,0,1,1.43-1,4,4,0,0,1,1.58,0C297.87,179.6,297.69,180.66,297.69,181Z"/><path class="cls-3" d="M200.81,43.05a2.31,2.31,0,0,1,1.11.07c.37.21.43.75.79,1,1.45.86,3-.65,4-1.31a9,9,0,0,1,2.13-.8c.33-.09.37-.32.7-.4a6.67,6.67,0,0,1,1.48,0,10.59,10.59,0,0,0,1.83-.37,20.22,20.22,0,0,0,2.2-.08c.68-.16,1.17-.52,1.82-.66.36-.07.72,0,1.1-.06s.81-.45,1.21-.59a7.68,7.68,0,0,0,1.72-.7A8.94,8.94,0,0,0,222,38.3c.45-.36,1-.51,1.43-.84s.66-.74,1.14-1a12.11,12.11,0,0,1,2.2-.82,50.84,50.84,0,0,1,5.14-1.39,7.72,7.72,0,0,1,2.2,0c.75.14,1.08.67,1.82.76a5.12,5.12,0,0,0,3.76-1c.37-.25.46.05.67-.42a4.35,4.35,0,0,0,0-1.14c-.22-.73-.79-.71-1.43-.77-.73-2.93,2.88-1.69,4.36-2.13.47-.13.5-.37.71-.74.44-.76.52-.76,1.47-.74.47,0,1.45-.21,1.86.05.68.44,0,1.14,1.05,1.1.53,0,1.21-.87,1.5-1.24s.15-1.35.69-1.69a1.59,1.59,0,0,1,.78,0c.32-.09.37-.31.69-.39h.78c.49.22.12.35.42.67a3.52,3.52,0,0,0,2.87.47c.75-.19.57-.63,1.37,0a1.87,1.87,0,0,1,.87,1.41,2.65,2.65,0,0,0,1.05.06,7,7,0,0,0,.8-.29,2.59,2.59,0,0,1,2.12.65,16.86,16.86,0,0,0,1.92,1c.17.08.59.34.72.38.33.09,1.1-.1,1.33.13s0,1.69.05,2.15c.1.86.29,1,1.1,1.1s1.74-.16,2.57,0c1,.16,2,.53,2.93.76a5.42,5.42,0,0,1,3.58,2.2,4.77,4.77,0,0,0,1.09,1.46,11.67,11.67,0,0,0,1.65,1,25.31,25.31,0,0,0,3.19,1.18c.93.31,1.44.43,1.49,1.47s-.29,1.75.39,2.31a8.42,8.42,0,0,0,3,.62,20,20,0,0,1,2.86.45c.66.16,1.59.42,2.2.64s.83.89,1.17,1.38.63,1.16,1,1.65a7.93,7.93,0,0,0,1.18,1.28c1.24,1,2.65,1.66,4,2.58s2.55,1.15,3.64,2.2A5.37,5.37,0,0,0,305.74,56c0-.54-.09-1.07-.09-1.38a6,6,0,0,1,.21-1.64c.26-1-.06-1-.76-1.43a16.38,16.38,0,0,1-3-3,10.26,10.26,0,0,1-1.18-1.29,3.28,3.28,0,0,1-.2-1.72,13.46,13.46,0,0,1,.07-3.3,1.85,1.85,0,0,0-.33-2,23.7,23.7,0,0,0-2.21-2.39,2.37,2.37,0,0,1-.83-1.37c-.11-.84,0-1.14.75-1.45,1.29-.52,3.83-1,5,.06.44.43,1.22,1.84,2,1.62,1-.3.62-3.34.35-4.07a7.58,7.58,0,0,0-1-1.87,4,4,0,0,1-.76-1.43,24.78,24.78,0,0,1,0-4.13V21.91c0-1.21.27-2.1.27-3.3a4.41,4.41,0,0,1,.28-2.12,24.5,24.5,0,0,0-3.59-3.35c-1.2-.81-4-1.61-6-2.82s-2.81-.8-5.62-2.41-4-2.41-6-3.61S276.18.68,274.57.68a22.11,22.11,0,0,0-5.22,0c-2.82.4-5.63.4-7.64,1.2s-4.42,1.61-8,3.22-10.85,2.41-12.45,3.21-4.42,1.61-9.65,3.62-7.63,2.41-10.85,3.62-19.29,4-20.49,4-2.42.4-5.23.4-6.43,1.2-8.84,2a45.25,45.25,0,0,0-7.63,2.81,72.92,72.92,0,0,0-6.43,3.62c-2,1.2-6.84,4.42-6.84,4.42l-12.45,4.42s-4.83,3.62-7.64,5.22-4.82,2-7.23,4-4,3.22-4.82,4.42-4.83,4-4.83,4l-8.84,1.21-5.62,5.62-4.43,2L105,65l-3.61,2L91.32,71l-6,3.62-2.81,1.21a4.52,4.52,0,0,0-2.81,1.6c-1.61,1.61-6.83,3.62-6.83,3.62l-2.42,3.22-7.23,3.61a12.1,12.1,0,0,1-2.41,3.62c-1.61,1.61-4,1.61-6,2.81s-8.84,5.63-8.84,5.63l-4.82,2.41s-8,4-10.05,5.22-4.42,1.61-5.22,2.82-7.24,8-7.24,8l-2.41,2.82-3.61,4.82-4,4-.11,2.13,1.72,1.08,4.75-1.95,2.08-.86-3.22,3.22-1.63.41a19,19,0,0,0-1.14,2c-.14.43-.86,1.28-.86,1.71a.24.24,0,0,0,0,.08l.2,0c1,.17,2.34.12,3-.75A11.73,11.73,0,0,0,14.39,135c.17-.43-.07-.73.43-1,.35-.21,1.07-.08,1.47-.15,1.79-.33,4.25-.55,4.33-2.85,0-.31-.16-.76.05-1s.73-.32.94-.52c.65-.62.11-1.84.8-2.13,1-.4,2.68.15,3.72,0s1.38-.75,2.26-1.39l.56-.14a2.25,2.25,0,0,0,.35-.69c.54-.58.53-.25,1.28-.06a3.14,3.14,0,0,0,1.77,0c.63-.38.22-1.17.41-1.75.41-.19.92.3,1.39.35a1.82,1.82,0,0,0,.77-.05c.63-.38.06-1.07.32-1.48.47-.73.69,0,1.21,0,.8,0,.95-.49,1.07-1.33.82-.09.91,0,1.31-.78a4.54,4.54,0,0,0,.51-1.79c1.57-.17,2.37-1.46,4-1.53a3.87,3.87,0,0,0,2.58-1,7.23,7.23,0,0,1,.69-.55c.58-.32.91-.13,1.49-.24.82-.15,1.51-1.05,2.29-1.41s1.65-.68,2.47-1.09c.36-.18.73-.39,1.1-.56a5.84,5.84,0,0,1,1.47-.23c.89-.2,1.09-1,1.13-1.8a11.64,11.64,0,0,0,2.24-.7,10.37,10.37,0,0,1,2.4-.54l.81-.29c.41-.13.51.08.84-.26s.07-.49.25-.85a5,5,0,0,1,.47-.62c.3-.42.61-1.22,1.08-1.49s1.43,0,2-.16c.16-.05.53-.29.73-.37s.57-.16.81-.26c.89-.35,1.09-1.11,1.82-1.59s1.58,0,2.24-.5.51-1.37,1.16-1.87A5.55,5.55,0,0,1,77,99.46a14.7,14.7,0,0,0,2.2,0c.76-.13,1.27-.82,1.91-1s1.42.06,2.12-.15c.39-.12.7-.48,1.1-.59s.72-.06,1.1-.15c1.46-.34,2.67-1.53,4-2.12a5.47,5.47,0,0,1,2.48-.36c.79,0,2,.28,2.59-.34.25-.27.28-.76.53-1.06s.45-.32.64-.52.35-.53.71-.67.72,0,1.14-.25c.62-.37.64-.9,1.44-.76s1.26.67,2.2.66,1.43.18,1.94-.64a4.17,4.17,0,0,0,.64-1.92c0-.25.1-.8-.07-1s-.76-.22-1-.52c-.65-.85.38-1.38,1-1.4a12.74,12.74,0,0,0,1.82-.36c.64-.09,1.55.25,2.13-.07a4.52,4.52,0,0,0,2-3.16c.67,0,1-.44,1.77-.43s1.71,0,2.56,0,1.71,0,2.57,0a5,5,0,0,0,2.2-.63,8.29,8.29,0,0,1,2.55-.83,5.54,5.54,0,0,0,3.41-1.38A11.67,11.67,0,0,1,129.38,77a5.47,5.47,0,0,1,2.47-.64,4.83,4.83,0,0,0,3.41-1c1.25-1,2.38-2.3,4-2.28,1,0,2,0,2.94,0,1.12,0,1.27-1,2.21-1.57,1.26-.73,2.85-1.53,4.3-.67a2.93,2.93,0,0,1,1.46-1.52,5.32,5.32,0,0,1,2.21-.27c.93,0,1.1-.41,1.81-.84a12.9,12.9,0,0,1,2.3-.72c.83-.29,1-.85,1.82-1a9,9,0,0,0,2.29-.82A6.88,6.88,0,0,1,162,65c.34-.07.74.11,1.09,0a8.77,8.77,0,0,0,2.11-.84c1.29-.62,2.5-1.51,3.84-2.1,1.62-.71,2.87-1.75,4.67-1.85,1.43-.08,3,.24,4.39-.07a11.77,11.77,0,0,0,1.39-.35c.56-.24.73-.7,1.18-1.05.78-.62,1.34-.78,1.48-1.81.1-.83-.23-1.15-.4-1.82a4,4,0,0,1,0-1.14c.21-.49.24-.28.75-.35a10.3,10.3,0,0,0,1.1,0c.49-.13.67-.41,1.08-.67a11.34,11.34,0,0,1,3-1.1,12,12,0,0,0,2.59-1.28,10.23,10.23,0,0,1,1.07-.75,8.29,8.29,0,0,1,1.39-.34c1.64-.51,3-1.74,4.48-2.58.72-.42,1-.52,1.1-1.36s-.29-1.45.33-2A5,5,0,0,1,200.81,43.05Z"/><path class="cls-2" d="M182.59,288.39a28.76,28.76,0,0,1,3.95-4.45c1.61-1.2,3.6-.83,5.56-.81,2.74,0,5.42.66,8.18.78s81.67,5.2,85,5c4.91-.27,10.63-1.4,12.14,4.73.3,1.21.57,4.19-1.14,4.69a13.82,13.82,0,0,1-4.54.14c-2.07-.09-93.74-9.29-98.27-9.14A82.66,82.66,0,0,1,182.59,288.39Z"/><path class="cls-3" d="M293.58,289.15l-.11,0-.56-.11c-.2-.13-.45-.07-.66-.12l-.13-.07h0a24.32,24.32,0,0,0-5.19,0h0l-.32.05a9.36,9.36,0,0,1-1.31.06l-.79.05c-.24,0-.44.16-.67.18a3.32,3.32,0,0,0-.56,0,5.34,5.34,0,0,0-.53.16,7.3,7.3,0,0,1-1.09.15c-.38.07-.72.11-1.1.15a8.14,8.14,0,0,1-1.71,0c-1.57-.18-3,0-4.61-.1l-.12,0c-1-.05-2.07-.17-3.1-.32a4.53,4.53,0,0,1-.91-.1c-.48-.11-1-.2-1.47-.28-2.41-.41-4.8-.39-7.2-.71-.32-.05-.46.07-.75.1s-.22-.09-.38-.09h-.21c-.27.07-.54.18-.8.26l-1.28.39a1.76,1.76,0,0,1-.3.1c-.09,0-.16,0-.24,0s-.44.09-.66.13a4.71,4.71,0,0,1-.65,0c-.41,0-.83,0-1.26,0a13.78,13.78,0,0,0-1.44,0c-.43,0-.85,0-1.28,0-.84,0-1.68,0-2.51.09s-1.75.19-2.63.24a21.49,21.49,0,0,1-3.29.28,18.53,18.53,0,0,1-2.13-.33,4.15,4.15,0,0,1-.48-.11,3.17,3.17,0,0,0-.86-.2,10.71,10.71,0,0,1-1.49-.13c-.39-.06-.78-.16-1.16-.24l-1.09-.18a5.49,5.49,0,0,0-1.07-.06c-.38,0-.78,0-1.16,0a13.9,13.9,0,0,1-1.43-.09l-.32-.12-.38-.15a3.13,3.13,0,0,0-1.08-.2l-.48,0a4.85,4.85,0,0,0-.75-.11c-.43,0-.85-.15-1.28-.17s-.73-.06-1.11-.05c-.15,0-.3,0-.45,0l-.28,0c-.15,0-.3,0-.44-.06a8.58,8.58,0,0,0-.87-.1h-.69l-.16,0-.22,0a2.4,2.4,0,0,0-.28,0l-.15,0a1.55,1.55,0,0,1-.3,0,1.45,1.45,0,0,0-.3,0h-.88l-.31,0a1.84,1.84,0,0,0-.41,0h-.33a.69.69,0,0,1-.2,0l-.22,0h-1.34l-.6,0a5.27,5.27,0,0,0-.57,0,1.15,1.15,0,0,1-.26,0,2.06,2.06,0,0,0-.36,0,3.23,3.23,0,0,1-.44,0,4.47,4.47,0,0,0-.52,0,9.16,9.16,0,0,1-1,0h-.07l-.49-.05-.23,0-.46,0a3.93,3.93,0,0,1-.49,0,2.66,2.66,0,0,0-.63,0,2,2,0,0,1-.54,0c-.29,0-.59-.1-.87-.16l-.29-.05-.43-.19a10.08,10.08,0,0,0-2.28-.72c-.2,0-.39-.06-.59-.11s-.29,0-.4-.07a5.53,5.53,0,0,0-1.28-.29,9.1,9.1,0,0,0-.91,0c-.29,0-.56-.05-.86-.05-.53,0-1.05,0-1.58.05a8.12,8.12,0,0,1-2.51-.18,1.12,1.12,0,0,1-.35-.12c-.16-.09-.19,0-.35-.05a.76.76,0,0,0-.2-.06h-.15c-.15,0-.15-.06-.29-.14s-.62-.29-.92-.45a4.37,4.37,0,0,1-.44-.31,5,5,0,0,1-1-.12c-.37-.09-.75-.15-1.15-.22s-.77-.06-1.14-.12l-.4-.09q-.62-.07-1.23-.12h0c-.42,0-.83,0-1.24-.05-.22,0-.44,0-.66,0-.44,0-.92,0-1.37,0a8.57,8.57,0,0,1-1.08-.09,6.46,6.46,0,0,0-1,.16l-2.38,1.58c-1,1.23-1.78,2.87-3,3.55l.48.07a2.06,2.06,0,0,0,.35,0l.45-.06a3.38,3.38,0,0,0,.54-.09,7.08,7.08,0,0,1,1.52-.24c.54-.06,1.07-.19,1.61-.24a8.16,8.16,0,0,0,1.28-.29l.26,0,.25-.08a2.73,2.73,0,0,1,.69-.14c.14,0,.26,0,.39,0l.4,0,1-.09c.19,0,.36-.09.55-.11s.29-.08.44-.1a3.71,3.71,0,0,0,.48-.1,4,4,0,0,1,.6,0c.55,0,1.1,0,1.64,0,.2,0,.4-.07.61-.07a1.86,1.86,0,0,0,.34-.06c.13,0,.26,0,.38,0l.33,0,.24,0,.22,0c.09,0,.18,0,.26,0a1,1,0,0,1,.23,0l.11,0h.09a1.78,1.78,0,0,1,.46,0,2.06,2.06,0,0,0,.35,0l.22,0a.44.44,0,0,1,.2,0l.5.06.57.08a2.91,2.91,0,0,0,.66,0h.32c.13,0,.25,0,.38,0s.49,0,.73.05l.31,0,.33.06a8.22,8.22,0,0,0,.86,0c.17,0,.33,0,.49,0l.48,0,1-.05h0l.79.09h.05a9.3,9.3,0,0,0,1,0h.64A5.43,5.43,0,0,1,210,287c.24.06.49.13.74.17l.26,0a1.54,1.54,0,0,1,.31.05,3.06,3.06,0,0,0,.55.1l.51.05c.34,0,.69.07,1.05.07l.35,0,.31.06.61.07c.36.05.72.07,1.07.14a7.27,7.27,0,0,0,1,.07l.65.08a4,4,0,0,1,.68.1c.17.05.33.12.5.16a2.63,2.63,0,0,1,.3.09,3.25,3.25,0,0,0,.45.07c.47.08.94.21,1.42.26.19,0,.39,0,.59,0s.25.12.21.12l.61-.1a.65.65,0,0,1,.24,0c.12,0,.24,0,.36,0,.38,0,.76.07,1.15,0a4.9,4.9,0,0,1,.94,0,5.92,5.92,0,0,0,.84,0,3.07,3.07,0,0,1,.53.07c.16,0,.32.11.48.13s.27,0,.41.06.3.06.45.06.32,0,.48.05.45,0,.68,0,.73.09,1.09.17l.22.05h.24a4.33,4.33,0,0,0,.5.08c.44,0,.9-.07,1.34-.05a5.43,5.43,0,0,0,.57,0c.12,0,.24,0,.36,0l.24,0c.32,0,.64,0,1,0l.61,0c.23,0,.47,0,.69,0l.41,0,.11,0,.14,0h.11l.05,0a.42.42,0,0,0,.15.08l.3.1a.93.93,0,0,0,.24,0l.11,0,.16,0a.77.77,0,0,0,.27.07H238l.16,0,.16,0a2.08,2.08,0,0,0,.43,0h.16l.22.06.43.15.66.23a3.41,3.41,0,0,1,.33.17c.12.06.25.1.37.17a2,2,0,0,0,.76.22c.29,0,.59,0,.88.05s.67,0,1,0h.2a2.93,2.93,0,0,1,.29.05l.46.07a9.1,9.1,0,0,0,1.16.11c.25,0,.49.07.74.09l.36.05,1,.18c0,.07.12.06.18.07l.47.06a2.08,2.08,0,0,0,.43,0,2.62,2.62,0,0,0,.28,0l.35,0c.2,0,.39,0,.59,0s.28,0,.42-.05l.51,0,.78,0c.13,0,.26,0,.39-.05h.5c.5,0,1,0,1.52,0l.33,0a3.39,3.39,0,0,1,.45,0c.25.06.5.09.74.14s.38.07.56.11a3.83,3.83,0,0,1,.65.22c.13.05.28.06.41.11a4.37,4.37,0,0,0,.72.25l.2,0a1.36,1.36,0,0,1,.25.11,3.78,3.78,0,0,0,.63.19c.36.08.72.19,1.08.24a8.69,8.69,0,0,0,1.14,0c.23,0,.46,0,.7,0l.46,0c.17,0,.33,0,.49,0s.53,0,.8,0,.42,0,.64,0,.44,0,.67,0l.7.1c.49.07,1,.18,1.47.29s.73.15,1.09.24h-.09l1.49.1a1.11,1.11,0,0,0,.48,0l.43,0a5.43,5.43,0,0,1,.57,0c.48,0,1,0,1.45,0s1.09.1,1.64.14,1,.14,1.57.23,1,.15,1.47.26.83.17,1.25.23,1,.14,1.47.24c.24.05.49.07.73.12a6.91,6.91,0,0,0,.78,0c.14,0,.27,0,.41,0l.51,0c.32,0,.64,0,1,0a3.77,3.77,0,0,1,.47,0c.13,0,.25.07.38.08s.44,0,.65,0a2.21,2.21,0,0,0,.37,0h.24c.22,0,.43,0,.64,0,.75,0,1.51,0,2.26.06.53,0,1.07.09,1.59.1a3.39,3.39,0,0,1,.65.11s0,0,.07,0l.1,0H291a.5.5,0,0,1,.17,0c.11,0,.22.1.33.14a.42.42,0,0,0,.24.05s.1-.08.13-.11a.4.4,0,0,0,.16-.18,1.77,1.77,0,0,0,.08-.31c0-.06,0-.12,0-.19a1.14,1.14,0,0,1,.1-.19l.24-.4a1.72,1.72,0,0,0,.23-.42,1.89,1.89,0,0,0,0-.58,1.54,1.54,0,0,1,0-.74,2.16,2.16,0,0,1,.42-.57c.07-.08.17-.13.25-.21l.3-.33a4.69,4.69,0,0,0,1-1.61A5.66,5.66,0,0,0,293.58,289.15Zm-71.52-1.44a6,6,0,0,1-1.12,0c-.3,0-.59-.11-.89-.12-.66,0-1.32-.24-2-.28s-1.61.07-2.4,0h.09l.31,0h.67a17.48,17.48,0,0,1,2.17.06l.59,0,.48,0c.3,0,.62.05.94.05a7.49,7.49,0,0,1,1.06.13l.46.07Z"/><path class="cls-4" d="M295,290.4h0Z"/><path class="cls-4" d="M294.8,290.38a.08.08,0,0,0-.05.05l.06,0A0,0,0,0,0,294.8,290.38Z"/><path class="cls-4" d="M294.71,290.47l0,0h0c-.05,0-.08.07-.13.11a.51.51,0,0,0-.13.09h0l.12-.08Z"/><path class="cls-2" d="M347,292c0-.29,2.75-5.21,2.75-5.21l1.18-1.57,1.47-1.87s2.27-1.27,2.56-1.47a15.14,15.14,0,0,0,1.28-1.38s.88-3.24,1.08-3.53a3.82,3.82,0,0,1,2-.69,44.46,44.46,0,0,1,5.11.39c.4.2,6.49,1.67,8.45,2.26s4.72,2.56,4.72,3.15.89,3.83.79,4.32.59,5.6.29,7-.78,3.63-2,4.62a7.69,7.69,0,0,1-3.25,1.27s-2.16,3.84-2.94,5.11-6.1,6.1-6.1,6.1-.39,1.86-.59,2.35-1.67,3.15-4.52,2.46-10.32-2.85-12.08-3.64-3.84-2.65-4-3.63-1.48-4.52-1.57-5.8.19-4.62.29-6.09.88-3.44,2.06-3.64Z"/><path class="cls-3" d="M363.94,293.05l1.67-2.26a14.79,14.79,0,0,1,1.08-1.37c.4-.4,1.67-2.17,2.36-2.85a7,7,0,0,0,1.57-3.05c0-.59-.09-1.08-.68-1.18s-2.56-.1-3.44-.1a8.68,8.68,0,0,1-3.54-.59c-.79-.49-3.44-2-3.74-2.16a5.9,5.9,0,0,0-1.27-.39,1.45,1.45,0,0,1,.49-1.18"/><path class="cls-3" d="M347,292s2.26-.59,2.95-.69a16.1,16.1,0,0,1,4.42.69c.49.3,1.57.79,2.06,1.18s2.07.59,2.56,1.28.78,1.18.78,1.18a1.37,1.37,0,0,0,1,.1c.39-.2,1.86-.5,2.06-1.09a6.78,6.78,0,0,1,1.08-1.57"/><path class="cls-2" d="M341.93,296.1c.1-1.48.88-3.44,2.06-3.64L347,292c0-.29,2.75-5.21,2.75-5.21l1.08-1.44-6.19-1.67s-5.25-1.45-6.12-1.45-11.07-2-11.07-2l-11.65-2-4.08-2-5.24-2.62-7.87-2.33-4.95-2.62-3.78-1.75-4.66-1.46-2.63-.87h-5.24l-4.08,2.62-3.2,4.37a7.46,7.46,0,0,0,0,2.62c.29.87,2.91,2.91,2.91,2.91a5.46,5.46,0,0,0,2.62,1.17c1.17,0,3.79.29,5.25.29S296,282.49,296,282.49L306.52,286c.87.29,10.78,2.62,12.23,2.91s18.94,7,18.94,7l4.18,1C341.9,296.59,341.91,296.32,341.93,296.1Z"/><path class="cls-3" d="M341.93,296.1c.1-1.48.88-3.44,2.06-3.64L347,292a11.77,11.77,0,0,1,.83-1.7l-5-.57s-6.7-.29-9-.58-11.65-3.5-13.4-4.66-14.56-4.08-16.31-4.37S294,276.59,291.93,276s-7.86-2.33-9.9-2.33-7-2-7-2l-1.75-3.49.48-1.4-.46.3-3.2,4.37a7.46,7.46,0,0,0,0,2.62c.29.87,2.91,2.91,2.91,2.91a5.46,5.46,0,0,0,2.62,1.17c1.17,0,3.79.29,5.25.29S296,282.49,296,282.49L306.52,286c.87.29,10.78,2.62,12.23,2.91s18.94,7,18.94,7l4.18,1C341.9,296.59,341.91,296.32,341.93,296.1Z"/><path class="cls-2" d="M369.44,292.27l2.07.49s1.18.88,1.28,1.27a20.38,20.38,0,0,1,.19,3.54,6.35,6.35,0,0,1-1.27,2.56c-.4.29-1.28.88-1.68,1.18a12.73,12.73,0,0,1-2.26.78l-1.47-.29s-.89-4.82.88-7.08S369.44,292.27,369.44,292.27Z"/><path class="cls-3" d="M371.71,300.13a6.35,6.35,0,0,0,1.27-2.56,20.38,20.38,0,0,0-.19-3.54c-.08-.31-.83-.92-1.15-1.17l-.53-.1-.78,1.27-.39.5-1.58-.1,1,1.08-.89,1.47h-.88l.78.89v.78l-1.77-.09,1.48.88-.1,1.08.2.79s.18.28.39.56a7.23,7.23,0,0,0,1.47-.56C370.43,301,371.31,300.42,371.71,300.13Z"/><g class="cls-5"><path class="cls-6" d="M38.74,165.64l.12-1.52,1.13-.66,1.29-.41,1.18-.62,1.25-.49,1.16-.67,1.2-.6,1.28-.44,1.13-.52.2,1.37-1.31.38-1.11.64-1.14.59-1.18.5-1.18.51-1.22.43-1,.66,1.14.37,1.17.53,1.13.63,1.22.4,1.26.31,1.17.53,1.18.52.09,1.49-1.27-.64-1.24-.49L45.11,168l-1.27-.45-1.2-.6-1.28-.41L40.14,166Z"/><path class="cls-6" d="M54.88,170l-.16-.29.52-1.29.29-1.38.89-1.13.5-1.3.57-1.27.21-1.42.5-1.3.54-1.29.81-1.17.18-1.43.48-1.31.69-1.19-1.52.28-1.56-.06-1.45.44-.13-.1,1.24,1.11.1,1.68v1.24L57,159.93,56.33,161l-1.11.65-1.28,0-1.39-.27-1.43-.45-.51-1.41-.48-1.36,0-1.28.57-1.16.89-.91,1.18-.38,1.18-.57,1.34-.08,1.34,0,1.37.16,1.32-.26,1.3-.45,1.34,0,.24.18-.08.67-.74,1.19-.47,1.29-.4,1.32-.39,1.32-.65,1.23-.34,1.34L58.56,163l-.39,1.32-.46,1.3L57.49,167l-.6,1.25-.45,1.3-.28.08Zm1-12.08-.13-1.41-.7-1.25-1.27-.37-1.33.22-.6,1.28-.18,1.38.56,1.34.65,1.19,1.12.59,1.36-.29.3-1.37Zm3.47,7.95.23-1.23.44-1.15.65-1.12,1.3-.22,1.18-.22,1.38.25,1.4.45.86,1.23.31,1.48-.44,1.2-.13,1.29-.85,1-1.22.45-1.24.32-1.43-.41-1.44-.52-.57-1.41Zm5.81-.18L65,164.3l-.7-1.25-1.27-.37-1.33.21-.6,1.29L61,165.55l.56,1.35.65,1.18,1.11.59,1.37-.28L65,167Z"/><path class="cls-6" d="M68.6,162.63l-.17-1.34h1.5l1.4-.09,1.41,0,1.41,0,1.41-.05L77,161l1.34.16,0,1.11-1.34,0-1.4.23-1.4,0-1.41,0-1.41-.15-1.41.25Zm.11,4-.17-1.34H70l1.4-.09,1.41,0,1.41,0,1.41-.05,1.4-.18,1.34.16,0,1.11-1.33,0-1.4.23-1.41,0-1.41,0-1.41-.14-1.41.25Z"/><path class="cls-6" d="M88.91,155.42l.52-.35.58.46.79,1.14.65,1.21.38,1.37.94,1.06.5,1.3.6,1.24.86,1.11.52,1.28.56-1.26.61-1.25.43-1.34.61-1.25.77-1.18.76-1.19.37-1.37.68-1.23.35-.4.57.42.16,1.39.18,1.37.17,1.38.6,1.31.19,1.37-.11,1.44.21,1.37.25,1.37.42,1,.7.86h1.1l.2.14-.38.12-1.28-.17-1.27.53h-1.28l-.64-.45h.37l.25-1-.37-1.25-.57-1.22-.06-1.3-.3-1.27,0-1.31-.08-1.3-.2,0-.28,1.27-1,.95-.5,1.15-.6,1.12-.19,1.3-.52,1.16-.55,1.14-.81.73-.89-.55-.8-1.3-.6-1.42-.85-1.29-.42-1.33-1-1.07L89.91,160l0,.09-.46,1.34v1.39l-.28,1.37.1,1.41L89.22,167l-.3.83.66.72.69-.35.08.37-.22.21-1.95.12-1.83,0-.32-.23.28.07.53-.48.55-1.23.29-1.28.48-1.25,0-1.3L88,161.88l.28-1.27.26-1.28V158l.5-1.26Z"/><path class="cls-6" d="M109,163.56v.36l-.69,1.13-.49,1.21-.21,1.15.83.55.27-.14.3.24-.3.32h-1l-1-.19-1,.32-1.09-.14-.39-.18.26-.15.52-.27.88-.47.72-.93.6-1.2.33-1.33.36-1.31.55-1.23.67-1.19.6-1.21.24-1.36.53-1.25.45-1.28.62-.66.55.53.53,1.21.73,1.11.35,1.29.63,1.17.67,1.14.56,1.21.32,1.31.8,1.09.43,1.26.6,1.14,1.05.59.68.16.28.19-.81.21-1.18.17h-1.18l-1.19-.17-.34-.08v-.16l.25-.47-.52-1.18L114,165l-.45-1.22-.16-.15-1.45,0-1.45.32Zm3.93-.75-.07-.22-.23-1.2-.44-1.12-.51-1.09-.48-1.11-.15-.07-.08.11-.33,1.16-.4,1.13-.58,1.06-.19,1.22-.11,0,1.18-.08,1.19.06Z"/><path class="cls-6" d="M122.62,165.43l.13,1.08.62,1,1-.2.33.36-.43.08h-1.19l-1.2.21-2,.21-.54-.36.41-.08.77-.45.5-.77.26-1.19-.25-1.32,0-1.32.1-1.33,0-1.32-.24-1.32,0-1.32.21-1.33-.1-1.33.2-.53.92.37,1,.89.73,1.18,1,.84,1,.94,1,.9,1.15.74.79,1.22,1.22.78.83,1.18,1.05,1,.33-.15-.07-1.33-.4-1.31.18-1.33,0-1.32-.1-1.33-.08-1.32-.77-1.5-1-.12-.41-.19.56-.32,1.19.17,1.17-.25,1.81.1.47.15-.36.16-.51.3-.55,1.31-.21,1.41-.1,1.4.2,1.41.16,1.4,0,1.41-.18,1.41-.08,1.41.29,1.41-.35.63-.84-.33-1-1.09-1.12-1-1.08-1-1.23-.87-1-1.17-1-.78-1-.77-.88-.86-.7-1.05-1-.65v-.12l0,1.46.26,1.44,0,1.47.1,1.46Z"/><path class="cls-6" d="M140,162.9l-.09.12-.35,1.26-.66,1.14-.13,1.11.65.57.27-.16.06.25-.07.13-1,.2-1,0-1.08-.09-1.06.16-.38-.29.23-.31.56.14.9-.68.53-1,.34-1.31.83-1.12.54-1.24.25-1.35.6-1.22.44-1.28.5-1.25.62-1.21.65-1.21.33-.64.59.37.7,1.13.28,1.32.56,1.2.54,1.21.83,1.07.4,1.27.45,1.26.55,1.2.75,1.11.7,1,.86.75.69.28.48,0-1,.27-1.19-.22-1.17.26-1.19,0-.5-.2.19-.08,0-.47-.45-1.22-.31-1.28-.58-1.15-.29-.17-1.44.27-1.44.1Zm3.92-1.19v0l-.57-1.06-.27-1.19-.57-1.06-.3-1.18-.17-.06-.31,0-.27,1.18-.22,1.2-.39,1.13-.58,1.07.07,0,1.19,0,1.19-.11Z"/><path class="cls-6" d="M151.38,166.78l-.57-.55.12-1.2.25-1.18.06-.56.08.38.14,1,.74,1.07,1.17.54,1.25-.18,1.21-.16.8-.88.37-1.11-.61-1.36-1.07-1.29L154,161l-1-.94-1.2-.66-.59-1.23-.23-1.3.16-1.34.86-1,1-.91,1.32-.23,1.29-.35,1.33.11,1.32.16.42.29-.21,1.08.12,1.07-.31.49-.26-.22-.3-1.3-1.08-.55-1.15,0-1.1.24-1,.52-.27,1.09.6,1.4,1.38.81.7.53,1.28.63,1.07,1,.91,1.15,0,1.47-.19,1.26-.41,1.27-1,.85-1.45.7-1.61.19-1.53-.16Z"/><path class="cls-6" d="M162,165.41l1.28-1.3,1.35,1.16-.37,1-.93.41Z"/><path class="cls-6" d="M169.23,153.17l.39-.59.79.56.56,1.27.64,1.23.73,1.17.43,1.34.69,1.19.85,1.11.43,1.34.7,1.11.74-1.11.44-1.33.59-1.26.43-1.34.56-1.27,1-1.08.56-1.28.45-1.34.37-.78.59.81,0,1.41.36,1.35L182,157l-.24,1.46.74,1.28.16,1.38v1.42l.28,1.36.18,1.07.81.86,1.11.09h.42l-.6.45-1.28-.34-1.28.07-1.28.32-.7-.46.41-.08L181,165l-.73-1.19.19-1.35-.58-1.21.08-1.33-.21-1.28-.51-1.23.23,0-.78,1-.23,1.28-.79,1-.62,1.1-.53,1.15-.48,1.17-.15,1.33-.92,1-1-.85-.65-1.38-.86-1.28-.24-1.59-1.12-1-.31-1.41-1-1,.26-.14-.15,1.37,0,1.4-.33,1.36.09,1.41-.46,1.35.23.84.41.46.64,0,.55.26-.68.2-2,.14-1.83-.12-.43-.09.39.11.57-.26.53-1.49.13-1.29.38-1.27,0-1.3.26-1.28.06-1.31.38-1.26v-1.31l.19-1.29Z"/><path class="cls-6" d="M188.07,157.67l-.11-1.26.07-1.26-.17-1.25-.49-1.07-.71,0-.33-.17h.47l1.23-.19,1.25.18,1.17-.35,1.2.18h.57l-.48.19-.52.23-.79.86.25,1.26-.18,1.27v1.26l-.05,1.58.13,1.57.24,1.3.09,1.3,0,1.29.69.8.94,0,.34.22-.38.29-1.5.09-1.49-.07-1.2.05-1.21.13-.32-.32.24-.19.61-.23.6-.73-.07-1.29.16-1.3-.14-1.3-.05-1.58Z"/><path class="cls-6" d="M195.9,165.54l-.19-.58-.34-1.19.15-1.18.25-.55v.37l.41.91.74.93,1,.63,1.23.26,1.2-.49.86-.83.44-1.15-.54-1.55-1.42-.83-1-.76-1.08-.73-1.13-.71-.52-1.21-.3-1.25.4-1.21.65-1,.89-1,1.3-.31,1.3-.11,1.33-.07,1.33.11.25.35.1,1.07L203,154.5l-.08.54-.22-.28-.37-1.28-1.07-.51-1.14-.35-1.1.52-1.09.48-.07,1.17.44,1.45,1.44.73.66.61,1.36.51.94,1.1.7,1.19.17,1.35-.07,1.28-.45,1.25-.95,1-1.54.6-1.61.15-1.54,0Z"/><path class="cls-6" d="M207.22,165.28l-.34-.64.18-1.18v-1.19l.05-.39.16.21.11,1,.71,1.07,1.14.61,1.27.09,1.29-.3.84-1,.38-1.19-.68-1.43-1.27-1-1.08-.62-1.12-.7-.94-.92-.68-1.11-.15-1.29.15-1.27.82-1,1-.83,1.2-.58,1.32-.09,1.33.09,1.26.35.45,0-.13,1.08.06,1.07-.3.37-.2-.11-.58-1.09-.87-.7-1.14-.28-1.12.43-.88.68-.48,1,.64,1.47,1.44.73.69.56,1.18.77,1.22.76.59,1.29.34,1.35-.35,1.26-.54,1.13-.76,1.12-1.55.52-1.61.13-1.53.07Z"/><path class="cls-6" d="M219,156.8l-.28-1.26,0-1.26.13-1.26-.65-1-.67.07-.46-.31h.6l1.23-.24,1.24.17,1.18-.37h1.19l.33.26-.23.39-.57-.2-.83,1.09.31,1.26-.27,1.27.05,1.26.24,1.57-.05,1.58.25,1.3-.24,1.31.26,1.29.76.67.93.06.34.31-.39.17-1.5-.16-1.49,0-1.21.14-1.2.11-.23-.14.16-.06.69,0,.61-1,0-1.31-.21-1.29,0-1.3-.17-1.58Z"/><path class="cls-6" d="M225.36,158.19l.24-1.26.3-1.22.54-1.14.53-1.2,1-.84,1.13-.63,1.25-.32,1.21-.44,1.29-.38,1.45.05,1.38.45,1.34.5,1.31.61,1.06,1,.42,1.41.68,1.25,0,1.43.28,1.35-.36,1.31-.71,1.14-.56,1.25-1.18.69-1.12.65-1.08.84-1.37,0-1.3.14-1.28.18-1.25-.31-1.29-.2-1-.92-1.08-.69-.92-.93-.58-1.18-.28-1.27Zm12.57,0,0-1.36-.37-1.32-.59-1.24-1.07-.87-1-.83-1.22-.53-1.34-.3-1.33.38-1.06.81-.87.91-.74,1.09-.29,1.31.11,1.35.18,1.34v1.44l.85,1.14.72,1.2,1.31.52,1.23.52,1.35.31,1.24-.48,1.3-.38.94-1,.19-1.37.57-1.26Z"/><path class="cls-6" d="M245.35,162l0,1.09.73.7.93.1.19.3-.29.21-1.2.1-1.19-.15-2,.24-.65-.25.51-.23.78-.29.51-.78v-1.19l0-1.32-.17-1.32.14-1.32.2-1.33-.4-1.31.2-1.33-.17-1.33-.07-1.32.52-.66.86.55.95.95,1,.9.85,1.06.94.95,1.11.78.92,1,1,1,1.1.9,1.08.92.94,1.09-.06-.06.16-1.33.09-1.33-.09-1.31-.05-1.33-.35-1.31v-1.33l-.65-1.6-1-.25-.24,0,.4-.4,1.18,0,1.18.21,1.8-.07.56.13-.44.37-.63-.28-.51,1.68-.2,1.41.37,1.4-.05,1.41-.18,1.41.26,1.4-.3,1.41-.07,1.42.37,1.4-.43.38-.64-.3-1.27-.81-1-1.08-1.26-.82-.88-1.25-1.23-.87-1-.73-.87-.88-.82-.94-.83-.92-.79-1-.35.21.17,1.46.13,1.45,0,1.46.07,1.46Z"/><path class="cls-6" d="M270.41,164.05l-.46-.53.65-1.23.69-1.22.48-1.31.3-1.38.72-1.2.5-1.3.34-1.37.61-1.26.61-1.25.45-1.32.48-1.32.65-1.36-1.54.38-1.56,0-1.52.27-.09.15,1.26,1.07.38,1.66-.41,1.22-.31,1.2-.77,1-1.19.44-1.22.33-1.53,0-1.2-1-1-1.14-.13-1.52.12-1.28.48-1.19.77-1.1,1.26-.44,1.28,0,1.32-.48,1.35.14,1.32-.29,1.33-.19,1.35.05,1.33-.18.26.15-.19.64-.65,1.23-.52,1.28-.27,1.36-.56,1.25-.51,1.28-.36,1.34-.38,1.32-.62,1.24-.21,1.39-.71,1.21-.63,1.24-.45,1.31-.06.1Zm.86-12.2-.29-1.32-.53-1.24-1.15-.74-1.2.6-.34,1.26-.34,1.27.25,1.38.8,1.11,1,.63,1.2-.43.52-1.21Zm3.47,8,.06-1.3.6-1.17,1-.83,1.08-.59,1.22-.44,1.46.41,1.27.74,1,1.13.23,1.51-.22,1.26-.41,1.2-.83,1-1.23.35-1.2.41-1.42-.39-1.3-.64-.67-1.28Zm5.81-.18-.29-1.32-.53-1.24-1.15-.75-1.2.6-.34,1.26-.34,1.28.25,1.38.8,1.1,1.05.64,1.2-.43.52-1.21Z"/><path class="cls-6" d="M284.32,162.72l-.05-1.26,1.12-.53,1.13-.6,1.22-.44,1.12-.63,1.22-.4,1.07-.75,1.08-.44-1.08-.42-1.15-.57-1.2-.45-1.25-.33-1.14-.59-1.2-.47-1.3-.41,0-1.52,1.29.54,1.26.45,1.25.46,1.19.63,1.29.37,1.21.6,1.27.42,1.18.55.18,1.46-1.25.59-1.28.41-1.18.65-1.19.61-1.26.47-1.18.63-1.18.65Z"/></g></g></g></g></svg>