<?xml version="1.0" encoding="utf-8"?>
<!-- Generator: Adobe Illustrator 25.2.0, SVG Export Plug-In . SVG Version: 6.00 Build 0)  -->
<svg version="1.1" id="Layer_1" xmlns="http://www.w3.org/2000/svg" xmlns:xlink="http://www.w3.org/1999/xlink" x="0px" y="0px"
	 viewBox="0 0 600 600" style="enable-background:new 0 0 600 600;" xml:space="preserve">
<style type="text/css">
	*{vector-effect:non-scaling-stroke}
	.st0{fill:#FFFFFF;stroke:#000000;stroke-width:1.5;stroke-miterlimit:10;}
	.st1{fill:none;stroke:#000000;stroke-width:0.5;stroke-miterlimit:10;}
	.st2{fill:#FFFFFF;}
</style>
<g>
	<g id="Layer_2_1_">
		<g id="Layer_1-2">
			<path class="st0" d="M203.7,138.2l-13.8,1.9l-8.8,8.8l-6.9,3.1l-7.1,2l-5.6,3.1l-15.8,6.3l-9.4,5.6l-4.4,1.9
				c-1.7,0.3-3.3,1.1-4.4,2.5c-2.5,2.5-10.7,5.6-10.7,5.6l-3.8,5l-11.3,5.6c-0.9,2-2.2,4.1-3.8,5.6c-2.5,2.5-6.3,2.5-9.4,4.4
				c-3.1,1.9-14,8.9-14,8.9l-7.5,3.8c0,0-12.5,6.3-15.7,8.2c-3.1,1.9-6.9,2.5-8.2,4.4c-1.3,1.9-11.3,12.5-11.3,12.5l-3.8,4.4
				l-5.6,7.5l-6.3,6.3l-0.6,12.5L12.5,279l-0.6,7.5l1.3,6.9V314c-0.6,2-1.1,4.1-1.3,6.3v6.9c0,0,0.6,6.9,0.6,8.8s-0.6,7.5-0.6,7.5
				v5.6l-0.6,5l-1.9,3.8l-1.7,4.7L4.5,391c-0.6,2.7-0.9,5.5-1.3,8.2c0.2,3.1,0.5,6.3,1.3,9.4c0.6,2,0.9,4.2,1.3,6.3
				c0.3,2.7,0.3,5.5,0,8.2c0,1.9-1.3,5.6-0.6,7.5c0.6,1.9,1.9,2.5,6.9,6.3s5,4.5,7.7,5.6s8.2,1.9,10.7,2.5c2.5,0.6,2.5,0.6,10.7,0.6
				s10-1.9,13.8-1.9s5.6-0.6,8.8,0.6s8.2,1.9,13.8,2.5c5.6,0.6,11.3,1.9,15.1,1.9s21.5-1.9,24.6-2.5c3.1-0.6,8.8-2.5,8.8-2.5
				l45.9,1.3c2.8,0.9,5.8,1.6,8.8,1.9c5.6,0.6,38.4,0,40.9-0.6c2.5-0.6,12.5,0,17.1,0h24.6l10,0.6c2.8,0.9,5.8,1.4,8.8,1.3h15.1
				c5.6,0,15.1-0.6,20.2-0.6h30.1c4.2,0,8.3-0.2,12.5-0.6c5.6-0.5,11.3-0.8,17.1-0.6h44.7c8.2,0,12.5-0.6,15.1-0.6
				c2.5,0,21.5,0.6,27.1,1.3c5.6,0.6,27.8-2.5,27.8-2.5s5-4.4,5.6-6.9c0.6-2.5,2.5-8.8,2.5-8.8s1.9-6.9,2.5-9.4
				c0.6-2.5,3.1-25.9,1.9-30.3c-1.4-6-2.4-12.1-2.5-18.2c0.2-5-0.2-10-0.6-15.1c-1.1-6.3-1.7-12.5-1.9-18.8c0-8.2,1.3-17.7,1.3-21.5
				s-2.5-19.6-2.5-21.5s1.3-18.3,1.3-18.3v-60.4l-1.9-30.9v-26.5l-2.5-10c0,0-1.9-5.6-2.5-8.8c-0.5-4.4-0.6-8.8-0.6-13.2
				c-0.3-2.5-0.6-5-0.6-7.5c0-3.8-0.6-5.6-0.6-12.5c0-6.9,1.9-11.3-1.3-15.1c-3.1-3.8-5.6-7.5-7.5-10c-2.2-2.8-4.7-5.3-7.5-7.5
				c-1.9-1.3-6.3-2.5-9.4-4.4s-4.4-1.3-8.8-3.8c-4.4-2.5-6.3-3.8-9.4-5.6s-10.8-5.8-13.5-5.8c-2.7-0.3-5.5-0.3-8.2,0
				c-4.4,0.6-8.8,0.6-11.9,1.9c-3.1,1.3-6.9,2.5-12.5,5s-17.1,3.8-19.4,5c-2.4,1.3-6.9,2.5-15.1,5.6c-8.2,3.1-11.9,3.8-17.1,5.6
				c-5.2,1.9-30.3,6.3-32.1,6.3s-3.8,0.6-8.2,0.6s-10,1.9-13.8,3.1c-4.1,1.1-8.2,2.5-11.9,4.4c-3.4,1.7-6.7,3.6-10,5.6
				c-3.1,1.9-10.7,6.9-10.7,6.9l-19.4,6.9c0,0-7.5,5.6-11.9,8.2s-7.5,3.1-11.3,6.3c-3.8,3.1-6.3,5-7.5,6.9
				C210.7,133.8,203.7,138.2,203.7,138.2z"/>
			<path class="st1" d="M334.9,411.7c0.3-0.2,0.3-0.3,0.5-0.5c0.2-0.2,0.8-0.3,1.3-0.6c1.3-0.9,2.4-1.9,3.4-3c0.9-0.6,2-1.1,3.1-1.4
				c0.6-0.2,1.1-0.2,1.7-0.3c0.9-0.2,1.7-0.5,2.5-0.8c0.6-0.5,1.4-0.8,2-1.1c0.8-0.3,1.6-0.8,2.4-1.1c1.3-0.6,2.5-1.6,3.6-2.4
				c0.5-0.3,0.8-0.6,1.3-0.9c0.5-0.3,1.1-0.6,1.7-0.8c0.8-0.3,1.7-0.5,2.5-0.6c1.1-0.2,2.2-0.5,3.3-0.9c1.3-0.6,2.4-1.4,3.3-2.4
				c0.5-0.6,0.9-1.1,1.6-1.7c0.6-0.6,1.3-1.1,2-1.6c0.9-0.6,2-1.3,3.1-1.7c0.8-0.3,1.7-0.6,2.7-0.9c0.8-0.2,1.7-0.6,2.5-0.8
				c1.1-0.2,2.4-0.3,3.4-0.3c1.4-0.2,2.7-0.6,3.8-1.4c0.6-0.3,1.1-0.8,1.4-1.3c0.3-0.3,0.6-0.8,0.9-1.1c0.3-0.3,0.5-0.8,0.9-1.1
				c0.5-0.3,0.6-0.2,0.8-0.3c0.5-0.3,0.9-0.5,1.4-0.9c0.8-0.6,1.7-1.1,2.7-1.7c0.5-0.3,0.9-0.6,1.4-0.8c0.5-0.2,1.3-0.9,1.9-1.4
				l0.2-0.2c-0.2,0.2-0.3,0.3-0.5,0.3c-0.9,0.8-1.7,1.9-2.2,3 M127.6,426.4c0.5,0.9,0.5,1.4,1.1,1.9c0.8,0.5,1.6,0.6,2.4,0.9
				c0.9,0.3,1.9,0.6,2.8,0.9c0.9,0.3,1.9,0.5,2.8,0.8c0.6,0.3,1.4,0.6,2,0.9c0.6,0.3,1.3,0.5,1.9,0.6c0.8,0.3,1.6,0.6,2.4,1.1
				c0.3,0.5,0.8,0.8,1.3,1.1c0.9,0.5,1.9,0.8,3,0.9c1.4,0.3,3.1,0.3,4.5,0.6c0.8,0.2,1.6,0.5,2.4,0.8c0.6,0.2,1.3,0.3,1.9,0.3
				c1.1,0.2,2.2,0.5,3.1,0.5c1.4,0,2.7-0.2,3.9-0.5c1.3-0.3,2.5-0.5,3.8-0.6s2.5-0.8,3.8-1.1c1.1-0.2,2-0.2,3.1,0
				c0.8,0,1.7,0,2.5-0.2c0.6,0,1.3-0.2,1.7-0.5c0.9-0.6,1.7-1.6,2.4-2.5c0.6-1.1,1.4-1.9,2.5-2.5c0.8-0.6,1.9-1.3,3-1.4
				c0.8,0,1.6,0,2.4,0c0.8,0,0.5-0.5,0.6-1.1c0.2-1.7,3.1-1.1,4.4-1.1c1.1-0.2,2.2-0.2,3.4,0c0.9,0.2,1.7,0.2,2.7,0.5
				c0.9,0.2,2,0.5,2.8,0.9c0.5,0.3,0.9,0.8,1.6,1.1l1.9,1.1c0.8,0.5,1.4,0.2,2.2,0.5c0.8,0.2,1.7,0.2,2.5,0.2c0.8,0.2,1.6,0.2,2.2,0
				c0-0.6,0.6-1.7,0.3-2.2s-2.2-0.9-2.8-1.1c-0.9-0.3-1.7-0.6-2.7-0.9c-0.9-0.3-1.9-0.8-1.9-1.9c0-0.8-0.2-1.6-0.3-2.4
				c0-0.8-0.3-1.6-0.6-2.4c-0.3-0.5-0.6-0.5-1.1-0.6c-0.5-0.3-1.1-0.6-1.6-1.1c-0.8-0.5-2.7-1.1-3-2c-0.2-0.6-0.3-1.3-0.6-1.7
				c-0.3-0.3-1.4-0.9-1.4-1.4c0-0.9,3.4-1.6,4.1-1.7c1.3-0.2,2.4,0.2,3.4,0.8c1.4,0.6,1.6,0.2,2.4-1.1c0.5-0.8,1.1-1.4,1.7-2
				c0.2-0.2,0.2-0.5,0.3-0.8c0.6-0.5,1.3-0.9,2-1.3c0.9-0.6,2.2-1.7,3.4-1.4c0.3,0.2,0.6,0.5,0.8,0.9c0.2,0.3-0.3,0.2-0.5,0
				c-0.2-0.2-0.2,0,0,0c-0.2,0.2-0.5,1.1-0.5,1.1l0.2,0.6c0.6-0.6,1.6-0.6,2.4-0.3c0.8,0.3,1.6,0.3,2.4,0.6c1.3,0.5,2.8,0.3,3.9,0.8
				c2.2-2-1.3-3.3-2.8-3.8c-0.8-0.2-1.6-0.5-2.4-0.8c-0.6-0.3-1.1-1.1-0.8-1.7c0.2-0.3,0.5-0.6,0.8-0.8c0.3-0.2,0.8-0.3,1.1-0.5
				c0.6-0.3,1.3-0.6,1.7-0.9c1.4-0.9,2.5-2.2,3.8-3.1c0.5-0.3,0.9-0.5,1.6-0.6c0.9-0.3,1.7-0.5,2.7-0.6c0.9-0.2,1.7-0.5,2.5-0.9
				c0.8-0.5,0.8-0.8,1.7-0.8c1.4,0,2.8,0.6,4.2,0.6c0.8-0.2,1.6,0,2.4,0.3c0.9,0.5,2.4,1.7,3.4,1.7c0.8-0.2,1.4-0.8,2-1.1
				c0.8-0.5,1.6-0.8,2.4-1.1c1.1-0.5,2.4-0.9,3.4-1.6c1.1-0.5,2.4-0.9,3.4-1.1c1.6-0.3,3.4-0.8,4.9,0.2c0.3,0.3,0.8,0.6,1.1,0.9
				c0.5,0.5,1.1,0.9,1.7,1.3c1.4,0.8,2.5,1.4,2.7,3c2,0.6,4.9-0.3,6.6,0.8c1.4,1.1,3,1.7,4.9,1.7c0.8,0,1.7,0.2,2.5,0.3
				c0.6,0.2,1.6,0.2,2.2,0.8c0.5,0.9,0.5,2,0,2.8c-0.2,0.5-0.3,0.3-0.3,0.8c0,0.5,0,0.8,0.3,1.3c0.2,0.5,0.3,0.9,0.6,1.4
				c0.3,0.5,1.1,0.2,1.7,0c0.6-0.2,1.3-0.6,1.7-0.3c0.5,0.3,0.5,0.8,0.6,1.1c0.5,0.8,1.4,1.3,2.2,0.8c1.3-0.5,2-1.6,2.4-2.8
				c0.2-0.9,0-2,0-3s-0.3-1.9,0.5-2.5c0.9-0.6,1.9-0.9,3-1.1c0.8-0.2,1.3-0.3,2-0.6c0.5-0.2,0.8-0.2,1.1-0.3
				c0.5-0.2,0.9-0.3,1.4-0.3c-0.5,0,0.5-0.8,0-0.8l-0.2-0.5c0.2-0.3,0.8,0.5,0.5,0.3c-0.5,0.8,0.2,0.8,0.8,0.8
				c0.6,0,1.1,0.3,1.7,0.3c0.6,0,1.6,0,2.4,0c0.6,0.2,1.4,0,2-0.3c0.6-0.5,1.1-1.1,1.4-1.7c0.2-0.5-0.2-1.3,0-1.7
				c0.2-0.6,0.5-1.1,0.9-1.7c0.3-0.5,0.8-0.8,1.4-0.8c1.6-0.3,3-0.9,4.4-1.7c0.8-0.5,0.5-0.6,0.6-1.4c0.2-0.8,0.5-0.9,1.1-1.3
				c1.3-0.5,2.5-1.1,3.8-1.7c2.4-1.1,5-1.3,7.4-2.5c0.6-0.3,1.1-0.8,1.7-1.1c0.8-0.3,1.4-0.8,1.7-1.6c0.3-0.5,0.3-1.1,0.3-1.7
				c0-0.3,0-0.6,0-0.9c0.2-0.6,0.2-0.5,0.6-0.8c0.5-0.3,0.9-0.8,1.4-0.9c0.6-0.3,1.3-0.8,1.7-1.1c0.3-0.2,0.6-0.6,0.9-0.8
				c0.6-0.3,1.1-0.6,1.6-1.1c0.5-0.8,1.1-1.4,1.7-2c0.5-0.3,0.9-0.3,1.4-0.6c0.8-0.3,1.4-0.9,2.2-1.3c0.5-0.2,0.9-0.5,1.4-0.6
				c0.5-0.2,0.8-0.3,1.1-0.6c0.3-0.3,1.3-0.9,1.6-1.4c0.3-0.5,0-0.5,0.2-0.8s0.3-0.5,0.5-0.6c0.2-0.3,0.5-0.8,0.6-1.1
				c0.2-0.2,0.6-0.2,0.8-0.5c0.2-0.3,0.3-0.5,0.6-0.6c0.8-0.8,1.6-0.3,2.5-0.5c0.5,0,0.9-0.3,1.4-0.6c0.3-0.3,0.9-0.6,1.3-0.9
				c0.3-0.3,0.6-0.8,1.1-1.1c0.5-0.3,0.9-0.8,1.4-1.1s0.8-0.3,1.3-0.6c0.5-0.3,0.5-0.6,0.8-0.9c0.5-0.5,0.8-0.6,0.9-1.4
				c0.3-0.6,0.8-1.3,1.4-1.7c1.4-0.8,2.8-1.6,4.4-2c1.3-0.3,2.2-1.1,2.7-2.4c0.2-0.5,0.3-0.9,0.8-1.4c0.6-0.5,1.4-0.9,2.2-1.1
				c0.8-0.2,1.4-0.5,2-0.9c0.5-0.3,0.9-0.8,1.4-1.1s0.9-0.5,1.4-0.6c1.1-0.8,1.9-1.7,2.7-2.8c0.3-0.3,0.3-0.9,0.6-1.3
				c0.3-0.3,0.8-0.6,1.3-0.8c0.5-0.5,0.9-0.8,1.4-0.9c1.1-0.5,2.2-1.1,3.1-1.9c0.6-0.5,0.9-0.9,1.4-1.4c0.5-0.5,1.4-0.9,2-1.4
				l1.1-0.9c0.3-0.3,0.6-0.6,0.9-0.9c0.3-0.5,0.2-0.8,0.3-1.4c0.3-1.3,1.3-2.4,2.4-3c1.4-0.8,3.1-0.9,4.5-1.9c0.9-0.6,1.3-1.9,2-2.5
				c0.5-0.3,0.9-0.6,1.4-0.9c0.5-0.3,1.1-0.5,1.7-0.8c0.6-0.3,1.4-0.8,2-1.3c0.6-0.3,1.3-0.5,1.7-0.9c0.5-0.5,0.9-1.1,1.7-1.4
				l2.2-1.1c0.8-0.3,1.3-0.6,2-0.9c0.6-0.2,1.3-0.5,1.9-0.6c0.3-0.3,0.8-0.6,1.3-0.9 M71.5,400.9c0.9,1.1,2,2,3.1,3
				c0.9,0.8,1.7,1.9,2.4,2.8c0.6,0.6,0.9,1.4,1.1,2.2c0,0.6-0.2,1.1,0.3,1.7c0.5,0.5,0.9,0.9,1.6,1.4c0.5,0.5,1.1,0.9,1.7,1.4
				c0.6,0.5,1.3,1.1,1.7,1.7c0.5,0.5,0.8,1.1,1.1,1.7c0.2,0.2,0.3,0.3,0.3,0.5c0,0.2,0,0.5,0,0.8c0.5,1.3,2,1.4,3.1,1.7
				c1.3,0.2,2.4,0.8,3.4,1.6c0.9,0.9,1.9,0.8,3.1,0.8c1.4,0.2,2.7,0.2,4.1-0.2c0.6-0.3,1.1-0.3,1.7-0.3c0.9-0.2,1.7-0.3,2.7-0.5
				c0.3,0,0.8,0,1.1-0.2s0.6-0.6,0.8-0.8c0.8-0.5,1.4-1.1,2-1.7c0.3-0.5,0.5-0.9,0.5-1.4c0-0.8,0.5-1.4,1.1-1.7
				c0.3-0.2,0.5-0.6,0.8-0.8s0.3-0.2,0.6-0.3c1.1-0.5,1.1-1.4,1.7-2.4c0.6-0.9,1.3-0.9,1.6-2c0.2-0.8,0.5-1.4,0.8-2.2
				s0.2-1.1,0.9-1.3c0.5,0,0.9,0.2,1.3,0c0.3-0.2,0.6-0.6,0.9-1.1c0.6-0.5,1.3-0.8,1.9-1.3c0.6-0.5,1.1-0.8,1.9-1.1s1.4-1.1,2.2-1.6
				c0.6-0.5,1.1-0.8,1.6-1.3c0.5-0.5,0.8-1.3,1.4-1.6c0.6-0.3,1.3,0,1.9-0.3c0.3-0.3,0.8-0.6,1.1-1.1c0.3-0.3,0.6-0.6,0.9-0.8
				c0.5-0.6,1.1-0.9,1.9-1.1c1.1-0.3,2.2-0.8,3.3-1.3c1.9-0.6,3.9,0.2,5.8-0.8c0.9-0.5,1.7-1.3,2.7-1.7c0.6-0.3,1.4-0.3,2.2-0.3
				c0.5,0,0.8,0,1.3,0c0.6-0.2,0.5-0.2,0.9-0.5c0.2-0.2,0.3-0.2,0.5-0.3c0.3-0.3,0.6-0.6,0.8-0.9c0.5-0.6,0.8-1.1,1.6-1.3
				c1.3-0.2,2.4-0.8,3.1-1.7c1.1-0.9,2.4-1.7,3.8-2.4c1.3-0.5,2.5-0.9,3.6-1.6c0.5-0.3,0.9-0.8,1.4-1.3c0.5-0.3,0.6-0.8,1.1-1.3
				c0.8-0.6,1.3-1.3,2-2c1.1-1.1,3-1.7,3.3-3.3c0.2-0.8-0.2-1.3,0.6-1.7c0.5-0.2,0.9-0.5,1.3-0.6l1.3-1.1c1.3-0.9,2.5-2.2,3.4-3.3
				c0.5-0.6,0.9-1.3,1.3-2c0.2-0.8,0.3-1.6,0.3-2.5c0.2-0.9,0.5-0.9,1.1-0.9c0.3,0,0.6-0.2,0.9-0.2c0.5,0,1.1,0,1.6,0
				c1.6,0,3-0.8,3.8-2c0.5-0.6,1.1-1.3,1.7-1.7c0.6-0.5,1.3-0.3,2-0.6c0.5-0.2,0.9-0.3,1.4-0.3c0.8,0,0.8-0.2,1.4-0.6
				c0.5-0.5,1.1-0.9,1.6-1.4c0.3-0.5,0.6-0.9,1.3-1.4c0.6-0.2,1.3-0.3,1.9-0.5c0.6-0.2,1.3-0.3,2-0.5 M17,423.5
				c0.8,0.5,1.4,0.8,2.2,1.1c1.3,0.5,2.4,0.6,3.6,0.8c0.2,0.2,0.5,0.2,0.6,0.2c0.3,0,0.6,0,0.9,0c0.6,0,1.1,0,1.7,0
				c0.6,0.2,1.1,0.3,1.7,0.5c0.9,0.2,1.7,0.2,2.7,0.2c2.7,0,5.5,0.2,8.2,0c0.5-0.2,1.1-0.3,1.6-0.5c0.8-0.2,0.9,0.3,1.7,0.5
				c1.4,0.2,2.7,0.2,4.1,0c0.6,0,1.1,0,1.7,0.2c0.5,0.3,0.9,0.8,1.4,0.9s0.6,0.2,0.9,0.3c0.3,0.2,0.3,0.5,0.5,0.6s0.8-0.5,1.3-0.6
				c0.5-0.2,0.6-0.2,0.9-0.3c0.8,0,1.4,0,2.2,0.2c0.9,0.2,1.3-0.3,2-0.5c0.8-0.2,1.3,0.2,1.9-0.6c0.2-0.3,0.2-0.5,0.5-0.6
				c0.3-0.2,1.1,0.3,1.4,0.5c0.8,0.5,0.9,0.5,1.4-0.3c0.3-0.5,0.5-1.4,0.8-1.7c0.3-0.3,1.7,0.3,2.4,0c0.2-0.2,0.5-0.9,0.5-1.1
				 M317.8,419.1c0.8,0.2,1.6,0.3,2.4,0.3c1.3,0,3.4,0.2,3.8,1.7c0,0.6,0.3,1.3,0.8,1.6c0.6,0.5,0.9,1.1,1.6,1.6
				c0.6,0.5,1.9,0.3,2.7,0.3c0.8,0.2,1.6,0.3,2.4,0.6c1.1,0.5,2,1.3,2.8,2.2c0.5,0.6,0.8,1.3,1.1,2c0.2,0.3,0,0.6,0.2,0.8
				s0.6,0.5,0.8,0.6s0.6,0.8,1.1,1.1c0.5,0.3,0.8,0.3,1.3,0.5c0.9,0.5,1.9,0.8,3,1.1c1.1,0.3,1.4,0.2,2.2,0.3
				c0.8,0.2,1.7,0.6,2.7,0.8c1.1,0.3,2.4,0.5,3.4,0.9c0.5,0.2,0.9,0.3,1.4,0.5c0.3,0,0.6,0,0.9,0c0.3,0,0.3,0.3,0.5,0.3
				c0.3,0,0.6,0,0.9,0c0.8,0.2,1.7-0.2,2.4-0.6c0.9-0.6,1.7-1.6,2.8-2c1.3-0.5,2.7-0.6,4.1-0.6h9.3c1.7-0.2,3.3,0,5,0.2
				c0.6,0,1.3,0.2,1.9,0.3c0.9,0.3,1.9,0.8,2.8,1.3c1.4,0.5,2.5,1.3,3.8,1.7c0.9,0.3,1.9,0.5,2.8,0.5c2,0,4.2,0.3,6.3,0.8
				c0.8,0.2,1.6,0.3,2.4,0.3c0.6,0,1.1,0.2,1.7,0.3c1.4,0,2.7-0.5,3.8-1.3c0.9-0.6,2-0.9,3.1-1.4s1.7-0.9,2.5-1.4
				c1.6-1.3,3-2.5,4.2-4.1c0.2-0.2,0.2-0.3,0.3-0.5c0.3-0.2,0.6-0.3,0.9-0.5c0.6-0.5,1.1-0.9,1.6-1.6c0.8-0.8,1.6-1.4,2.5-2.2
				c0.3-0.5,0.8-0.8,1.3-1.1c0.3,0,0.5-0.2,0.8-0.2c1.7-0.3,3.6-0.8,5.2-1.4c1.3-0.8,2.5-1.3,3.9-1.7c0.9,0,1.9-0.3,2.7-0.9
				s1.4-1.6,2.2-2c0.9-0.3,1.9-0.3,3-0.2h4.9c0,1.1,3.1,0.9,3.9,0.9c1.1,0,2.4,0,3.4,0c0.9,0.2,2,0.3,3,0.5h5.2
				c1.9-0.2,3.8-0.2,5.6,0.3c1.9,0.8,3.8,0.6,3.9-2c0-0.9,0-1.7,0-2.5c0-1.3-0.2-1.9,0.8-2.5c2.8-1.7,5.8-3.3,8.8-4.7
				c1.1-0.6,3-0.5,3.8-1.3c0.3-0.3,0.5-0.6,0.9-0.9c0.9-0.6,1.9-1.3,3-1.7c1.1-0.5,2.2-1.3,3.3-1.6c1.6-0.5,2.8-1.1,4.4-1.7
				c1.7-0.6,3.1-1.6,4.4-2.8 M448.4,164.1c-0.2-1.1,0-2.4,0.5-3.4c0,0,0,0,0-0.2l-0.5,0.5c-0.2-1.1,0.5-1.4,1.1-1.7l0,0
				c0.3-0.5,0.8-0.9,1.1-1.1l-0.8,0.9c0.3,0,0.6-0.2,0.8-0.2c1.4-0.2,1.1-1.9,2.5-2.5c1.4-0.3,2.8-0.3,4.2,0c1.1,0,2,0.2,3,0.8
				 M431.2,128c0.3-0.8,0.6-1.6,1.1-2.2c0.6-1.4,0.8-2.5,2.7-1.9c0.5,0.2,0.8,0.6,1.3,0.8c0.6,0.2,1.1,0.3,1.7,0.5 M347.8,183.8
				c0.9-0.3,1.7-0.9,2.5-1.3c1.1-0.3,2.2-0.5,3.4-0.6c1.1-0.2,2.4-0.2,3-1.1c0.3-0.8,0.5-1.6,0.5-2.5c0-1.3,0.2-1.4,1.3-2
				c0.9-0.6,1.9-0.9,3-1.3c2.5-0.8,4.4-2.7,6.6-3.9c0.6-0.2,1.1-0.5,1.6-0.8c0.3-0.3,0.2-0.6,0.3-0.9c0.5-0.6,1.4-1.1,2-1.7
				c0.6-0.6,1.4-1.7,2.2-2.5c0.5-0.5,0.9-1.1,1.3-1.7c0.2-0.8-0.2-1.4,0.3-2.2c0.3-0.6,0.6-1.1,1.1-1.7c0.6-0.6,1.4-1.1,2-1.6
				c0.6-0.5,0.9-1.6,1.7-2.2c1.9-1.1,3.4-2.5,4.5-4.4c0.3-0.6,0.8-1.1,1.3-1.6c0.5-0.6,1.1-1.3,1.7-1.9c0.8-0.5,1.6-1.1,2.2-1.7
				c0.5-0.6,1.1-1.1,1.7-1.6c0.8-0.5,1.4-1.1,2-1.7c0.8-0.6,1.6-1.1,2.5-1.6c0.5-0.3,0.8-0.6,1.3-0.9c0.6-0.3,1.4-0.6,2.2-0.8
				c0.9-0.5,1.9-0.9,3-1.4c1.4-0.6,2.8-1.4,4.4-2c1.7-0.8,3.8-1.3,5.5-2c0.6-0.3,1.3-0.8,1.7-1.1l0.3-0.3c0.8-0.6,1.6-1.3,2.4-1.9
				c-0.3,0.2-0.6,0.3-1.1,0.3l0.3-0.6c0.5,0,0.8,0.3,1.3,0.5c0.5,0.2,0.8-0.2,1.1,0 M342.1,168.5c0.3-0.5,1.9-2.7,0.2-2l-1.7,0.8
				c0-0.5-0.2-1.6,0.2-2l0,0c0.5-0.5,0.9-0.9,1.6-1.3c0.6-0.2,1.4-0.2,2,0.2c0.5,0.3,0.5,1.1,0.6,1.6c0.6,1.6,1.9,0.9,3.1,1.3
				 M332.9,138.7c0.8-0.2,1.4-0.3,2.2-0.5 M318.9,153.6c-0.3-0.3-0.6-0.6-0.8-1.1c-0.2-0.8-0.3-1.7-0.2-2.5l0,0
				c0.3-0.6,1.1-0.6,1.7-0.9c0.6-0.3,1.1-0.8,1.7-1.1c1.6-0.6,3.4-0.8,5-0.2c1.1,0.2,1.1,0.6,1.6,1.4c0.5,0.8,1.1,0.8,0.9,1.6
				c-0.2,1.3-1.6,0.8-2.5,0.8c-1.4,0-0.9,0.6-0.6,1.7c0.2,0.8,0.2,1.7-0.2,2.5c-0.2,0.5-0.3,0.8-0.6,1.3c-0.3,0-0.5,0-0.8,0
				 M266.4,182.4c0.2-1.3-0.3-2.4,0.9-3.3l-2.5,0.5c0.6-0.6,3.3-2,4.2-1.7c0.9,0.5,0.2,2.2,0.3,3 M264.3,222.9h-3.8
				c0-1.3,0.6-2.4,1.7-3c0.9-0.5,2-0.6,3-0.5 M249,223.1c0.6-0.6,0.9-0.3,1.7-0.6c0.8-0.3,1.1-0.6,1.7-0.8c1.7-0.6,1.4-1.3,1.4-2.7
				v0.2l-1.3,0.8c0-0.3-0.2-1.4,0-1.6c0.2-0.2,1.3,0,1.6,0c0.9-0.2,1.7,0,2.7,0.3c0.9,0.3,1.9,0.6,2,1.7c0,0.6-0.2,1.1-0.5,1.6
				c-0.3,0.3-0.8,0-1.3,0.2 M243.6,167.9c-0.8,0.2-1.7,0.2-2.5,0c-1.7-0.6-0.3-2,0-3l0,0l0.8-1.3c0-1.1-0.2-1.7,0.9-2.2
				s3,0.5,4.2,0.8c1.3,0.3,2.4,0.2,2.2,1.7 M66.9,333.3c0.8,0,1.6,0.2,2.4,0.6 M62.8,291.4v-0.3c1.6-0.5,3.1,0.3,4.5,0.3
				 M61.1,349.3c-0.3-2,3.6-1.6,4.5-0.9c0.9,0.6,1.3,1.9,0.8,2.8 M43.2,371.2l0.2-0.2c0.2-0.2,0.3-0.3,0.5-0.3
				C43.7,370.9,43.4,371.1,43.2,371.2c-0.3,0.5-0.8,0.9-1.3,1.4c-0.3,0.2-0.6,0.5-0.8,0.8C41.7,372.5,42.3,371.9,43.2,371.2z
				 M56.4,385.8c1.3,0.2,2-0.2,2,1.4c0,0.8,0.2,1.6-0.8,2c-1.4,0.2-2.8,0.2-4.2,0c-0.9,0-1.3,0.2-1.3-0.8c0-0.6,0-1.1,0.8-0.8
				 M195,342.2c0.6,0.2,1.1-0.5,1.7-0.5c1.4-0.2,3.1,0.5,4.5-0.2c1.3-0.8,2.5-1.7,3.4-2.8c0.6-0.6,1.4-1.6,2.2-2
				c0.8-0.5,1.3-0.6,1.9-1.1c0.6-0.5,0.9-0.8,1.4-1.1c1.1-0.8,2.5-1.3,3.6-1.9c1.3-0.8,2.4-1.6,3.4-2.5c0.3-0.5,0.8-0.9,1.4-1.3
				 M44,370.9c0.2-0.2,0.2-0.3,0.2-0.6c0.2-0.6-0.2-1.1,0-1.7c0.2-0.9,0-0.8,0.8-0.8c0.6,0,1.1,0,1.7,0c1.1,0,2,0.3,3,0.8
				c0.6,0.2,3.1,1.1,3.6,0.5c0.3-0.3,0-1.3,0-1.6c0.2-0.5,0.5-0.9,0.8-1.3c0.9-0.8,2-1.3,3.1-1.3c0.9,0,2,0,3,0l-1.1,0.3h0.2
				c0.9,0.3,2,0.5,3,0.5c0.5,0,0.8,0,1.3,0c0.5,0,0.6,0.3,0.9,0.3c0.5,0.2,1.1,0.2,1.6,0.2c0.5,0,0.9,0.2,1.4,0.3
				c0.8,0.2,1.7,0.2,2.5,0.2h5.5c0.8,0.2,1.7,0.2,2.5,0c0.3-0.2,0.5-0.3,0.8-0.5c0.3-0.2,0.9,0.2,1.3,0c0.8-0.2,1.6-0.8,2.5-0.9
				c0.8,0,1.7,0,2.5,0c1.7,0,3.6,0,5.3,0c1.1-0.2,2.2-0.3,3.1-0.8c0.8-0.2,1.7-0.3,2.5-0.6c0.6-0.3,1.4-0.8,2-1.3
				c0.5-0.3,0.9-0.8,1.4-1.1c0.5-0.2,0.8-0.3,1.3-0.5c0.5,0,0.8,0,1.3,0c1.1,0,2.2-0.3,3.3-0.5c1.7-0.2,3.3-0.8,4.5-1.7
				c1.1-0.8,2.4-1.7,3.4-2.5c0.8-0.9,1.9-1.6,3-2c1.9-0.5,3.6-0.6,5.5-0.8c1.6-0.2,2.5-1.4,3.6-2.2c1.1-0.8,2.7-1.9,3.9-2.8
				c1.3-0.6,2.5-1.3,3.8-1.7c1.4-0.6,2.5-0.9,3.9-1.7c1.1-0.6,2.4-1.1,3.6-1.4c0.2-0.2,0.3-0.3,0.5-0.3h0.9c0.3-0.2,0.6-0.3,0.8-0.5
				c0.6-0.5,1.1-0.9,1.4-1.6c0.9-1.3,2.2-2.2,3.6-2.8c1.3-0.6,2.7-1.3,3.9-2c0.6-0.3,1.1-0.9,1.7-1.3c0.6-0.2,1.3-0.3,1.9-0.6
				c1.1-0.9,2.2-1.7,3.6-2.4c1.6-0.5,3.3-0.6,4.9-1.1c0.8-0.3,1.7-0.6,2.7-0.8c0.8-0.2,1.4-0.3,2-0.5c1.7-0.2,3.4-0.2,5,0h3
				c0.8,0,1.7,0.2,2.5,0s1.1-0.3,1.7-0.5c0.9-0.2,1.3,0,2-0.5c0.6-0.5,1.4-0.8,2.2-1.1c0.5-0.2,0.8-0.5,1.1-0.6
				c0.3-0.2,0.8-0.2,0.9-0.3c0.6-0.3,1.1-0.6,1.7-0.9c0.8-0.5,1.4-0.8,2.2-1.1c0.8-0.2,1.6,0,2.5-0.2c1.4-0.3,2.8-1.1,3.8-2.2
				 M145.8,369c0.3-0.3,0.2-0.6,0.5-1.1c0.3-0.2,0.5-0.5,0.8-0.6c0.6-0.5,1.4-0.8,2.2-1.3c1.6-0.6,3-1.4,4.5-2
				c0.9-0.3,1.9-0.8,2.7-1.4c0.9-0.9,1.9-1.7,3-2.4c2.5-1.6,4.2-4.1,6.4-6c0.8-0.6,1.4-0.8,1.9-1.7c0.3-0.6,0.5-1.4,0.6-2
				c0.5-1.1,1.1-1.9,2.2-2.5c0.6-0.6,1.3-1.1,2-1.6c0.8-0.3,1.4-0.8,2.2-1.3c0.9-1.1,2-1.9,3.4-2.5c1.6-0.6,3-1.4,4.4-2.4
				c1.4-0.5,2.8-1.1,4.1-1.9c0.9-0.8,2-1.6,3.1-1.9c0.6-0.2,1.4-0.3,2-0.5c0.8-0.3,1.4-0.8,2-1.3c0.9-0.8,1.9-1.6,2.7-2.5
				 M449.2,382.7c0.2-0.6,0.8-0.9,1.3-1.4c0.2-0.2,0.3-0.5,0.5-0.6v-0.2c-0.2-0.8-0.2-1.7,0-2.5c0.2-1.9,3-3.8,4.2-5
				c0.3-0.5,0.6-0.8,0.8-1.3c0.3-0.5,0.8-0.8,1.3-1.3c0.5-0.5,0.5-0.6,0.6-0.9c0.2-0.3,0.5-1.3,0.6-1.6s0-0.8,0.2-1.3
				c0.2-0.5,0.3-0.6,0.3-0.9c0.2-0.5,0.3-0.9,0.5-1.4c0-0.2,0-0.5,0-0.6c0.3-0.9,0.6-2,1.3-2.8c0-0.2,0.2-0.3,0.2-0.5
				c0-1.6,0.5-3,1.3-4.2c0.2-0.2,0.3-0.5,0.5-0.6c0-0.3,0.2-0.6,0.3-0.9c0.3-0.6,0.6-1.4,0.8-2.2c0.2-0.8,0.5-1.4,0.9-2
				c0.3-0.8,0.6-1.6,0.8-2.5c0.3-0.8,0.8-1.4,1.1-2.2c0.6-1.6,1.7-3.8,0.6-5.5c-0.6-0.8-2-1.3-2.5-2.2c-0.3-0.9-0.2-1.9,0.2-2.7
				c0.5-0.8,1.3-1.4,2.2-1.6"/>
			<path class="st1" d="M53.1,248.3c0.9-0.6,0.3-1.9,0.6-2.8c0.6-0.3,1.4,0.5,2.2,0.5c0.5,0,0.8,0,1.3-0.2c0.9-0.6,0.2-1.7,0.5-2.4
				c0.8-1.1,1.1,0,1.9,0c1.3,0,1.6-0.8,1.7-2c1.3-0.2,1.4,0,2-1.3c0.5-0.9,0.8-1.9,0.8-2.8c2.5-0.3,3.8-2.4,6.3-2.4
				c1.6,0,3-0.6,4.1-1.6c0.3-0.3,0.6-0.6,1.1-0.9c0.9-0.5,1.4-0.2,2.4-0.3c1.3-0.3,2.4-1.7,3.6-2.2c1.3-0.5,2.7-1.1,3.9-1.7
				c0.6-0.3,1.1-0.6,1.7-0.9c0.8-0.2,1.6-0.3,2.4-0.3c1.4-0.3,1.7-1.6,1.7-2.8c1.3-0.3,2.4-0.6,3.4-1.1c1.3-0.5,2.5-0.8,3.8-0.8
				l1.3-0.5c0.6-0.2,0.8,0.2,1.3-0.5c0.5-0.6,0.2-0.8,0.3-1.3c0.2-0.3,0.5-0.6,0.8-0.9c0.5-0.6,0.9-1.9,1.7-2.4s2.2,0,3.1-0.3
				c0.3-0.2,0.8-0.5,1.1-0.6c0.3-0.2,0.9-0.3,1.3-0.5c1.4-0.5,1.7-1.7,2.8-2.5c1.1-0.8,2.5,0,3.4-0.8c0.9-0.8,0.8-2.2,1.9-3
				c1.7-1.1,3.6-1.6,5.6-1.4c1.1,0.2,2.4,0.2,3.4,0c1.3-0.2,2-1.3,3-1.6c0.9-0.3,2.2,0.2,3.3-0.3c0.6-0.2,1.1-0.8,1.7-0.9
				c0.6-0.2,1.1-0.2,1.7-0.3c2.4-0.5,4.2-2.4,6.3-3.3c1.3-0.5,2.5-0.6,3.9-0.6c1.3,0,3.1,0.5,4.1-0.5c0.3-0.5,0.5-1.3,0.8-1.7
				c0.3-0.5,0.6-0.5,0.9-0.8c0.3-0.3,0.5-0.8,1.1-1.1c0.6-0.3,1.1,0,1.7-0.3c0.9-0.6,0.9-1.4,2.2-1.3c1.3,0.2,2,1.1,3.4,1.1
				c1.4,0,2.2,0.3,3-0.9c0.6-0.9,0.9-1.9,0.9-3c0-0.3,0.2-1.3-0.2-1.6c-0.3-0.3-1.3-0.3-1.6-0.8c-1.1-1.3,0.6-2.2,1.6-2.2
				c0.9-0.2,1.9-0.3,2.8-0.6c0.9-0.2,2.5,0.3,3.3-0.2c1.7-1.1,2.8-3,3.1-5c1.1,0,1.6-0.6,2.8-0.6c1.3,0,2.7,0,4.1,0
				c1.4,0,2.7,0,4.1,0c1.3,0,2.4-0.5,3.4-0.9c1.3-0.6,2.7-1.1,4.1-1.3c2-0.2,3.9-0.8,5.3-2.2c2-2,4.5-3.6,7.4-4.4
				c1.3-0.6,2.5-0.9,3.9-0.9c1.9,0.2,3.8-0.3,5.3-1.6c1.9-1.6,3.8-3.6,6.3-3.6c1.6,0,3.1,0,4.5,0c1.7,0,2-1.6,3.4-2.5
				c2-1.1,4.5-2.4,6.7-1.1c0.5-1.1,1.3-1.9,2.4-2.4c1.1-0.3,2.4-0.5,3.4-0.5c1.4,0,1.7-0.6,2.8-1.3c1.1-0.5,2.4-0.9,3.6-1.1
				c1.3-0.5,1.6-1.3,2.8-1.6c1.3-0.3,2.5-0.6,3.6-1.3c0.6-0.5,1.4-0.8,2.2-1.1c0.5-0.2,1.1,0.2,1.7,0c1.1-0.3,2.2-0.8,3.3-1.3
				c2-0.9,3.9-2.4,6-3.3c2.5-1.1,4.5-2.8,7.4-2.8c2.2-0.2,4.7,0.3,6.9-0.2c0.8-0.2,1.4-0.3,2.2-0.5c0.9-0.3,1.1-1.1,1.9-1.6
				c1.3-0.9,2-1.3,2.4-2.8c0.2-1.3-0.3-1.9-0.6-2.8c-0.2-0.6-0.2-1.3,0-1.7c0.3-0.8,0.3-0.5,1.3-0.5c0.6,0,1.1,0,1.7,0
				c0.8-0.2,1.1-0.6,1.7-1.1c1.4-0.8,3.1-1.4,4.7-1.7c1.4-0.5,2.8-1.3,4.1-2c0.5-0.5,1.1-0.8,1.7-1.3c0.8-0.3,1.4-0.5,2.2-0.5
				c2.5-0.8,4.7-2.7,7.1-4.1c1.1-0.6,1.6-0.8,1.7-2.2c0.2-1.4-0.5-2.4,0.5-3.1c1.1-0.5,2.2-0.8,3.4-0.8c0.6-0.2,1.3,0,1.7,0.2
				c0.6,0.3,0.6,1.3,1.3,1.6c2.2,1.4,4.7-1.1,6.3-2c1.1-0.6,2.2-0.9,3.3-1.3c0.5-0.2,0.6-0.5,1.1-0.6c0.8-0.2,1.6-0.2,2.4,0
				c0.9-0.2,1.9-0.3,2.8-0.6c1.1,0,2.4,0,3.4-0.2c1.1-0.3,1.9-0.8,2.8-1.1c0.6-0.2,1.1,0,1.7-0.2c0.6-0.2,1.3-0.8,1.9-0.9
				c0.9-0.3,1.9-0.6,2.7-1.1c0.6-0.5,1.3-0.8,1.7-1.3c0.6-0.6,1.6-0.8,2.2-1.3c0.6-0.5,1.1-1.1,1.7-1.6c1.1-0.5,2.2-0.9,3.4-1.3
				c2.7-0.9,5.3-1.6,8-2.2c1.1-0.2,2.4-0.2,3.4,0c1.3,0.2,1.7,1.1,2.8,1.3c2,0.3,4.2-0.3,6-1.6c0.6-0.3,0.8,0,1.1-0.6
				c0.2-0.6,0.2-1.3,0-1.7c-0.3-1.1-1.3-1.1-2.2-1.3c-1.1-4.5,4.5-2.7,6.9-3.3c0.8-0.2,0.8-0.6,1.1-1.1c0.6-1.3,0.8-1.3,2.4-1.1
				c0.8,0,2.2-0.3,3,0c1.1,0.6,0,1.7,1.7,1.7c0.8,0,1.9-1.4,2.4-1.9c0.5-0.5,0.2-2.2,1.1-2.7c0.5-0.2,0.8-0.2,1.3,0
				c0.5-0.2,0.6-0.5,1.1-0.6h1.3c0.8,0.3,0.2,0.6,0.6,1.1c1.3,0.9,3,1.1,4.5,0.8c1.3-0.3,0.9-0.9,2.2,0c0.8,0.5,1.3,1.3,1.4,2.2
				c0.5,0.2,1.1,0.2,1.6,0.2c0.5-0.2,0.8-0.3,1.3-0.5c1.3-0.2,2.4,0.2,3.3,0.9c0.9,0.6,2,1.1,3,1.6c0.3,0.2,0.9,0.5,1.1,0.6
				c0.5,0.2,1.7-0.2,2,0.2c0.3,0.3,0,2.7,0,3.3c0.2,1.4,0.5,1.6,1.7,1.7c1.3,0.2,2.7-0.3,4.1,0c1.6,0.3,3.1,0.8,4.5,1.3
				c2.2,0.3,4.2,1.6,5.6,3.4c0.5,0.9,0.9,1.6,1.7,2.4c0.8,0.6,1.7,1.1,2.5,1.6c1.6,0.8,3.3,1.4,5,1.9c1.4,0.5,2.2,0.6,2.4,2.4
				c0.2,1.7-0.5,2.8,0.6,3.6c1.6,0.6,3.1,0.9,4.7,0.9c1.6,0.2,3,0.3,4.5,0.8c1.1,0.3,2.5,0.6,3.4,0.9"/>
			<path class="st0" d="M288.8,504.4c1.9-2.5,3.9-4.9,6.1-7.1c2.5-1.9,5.6-1.3,8.8-1.3c4.2,0,8.5,1.1,12.9,1.3
				c4.4,0.2,128.1,8.2,133.3,7.8c7.7-0.5,16.6-2.2,19,7.4c0.5,1.9,0.9,6.6-1.7,7.4c-2.4,0.5-4.7,0.5-7.1,0.2
				c-3.3-0.2-146.9-14.6-154.1-14.3C300.1,505.8,294.5,505.2,288.8,504.4z"/>
			<path class="st1" d="M462.9,505.5h-0.2l-0.9-0.2c-0.3-0.2-0.8-0.2-1.1-0.2l-0.2-0.2l0,0c-2.7-0.3-5.5-0.3-8.2,0l0,0h-0.5
				c-0.6,0.2-1.4,0.2-2,0.2h-1.3c-0.3,0-0.6,0.3-1.1,0.3c-0.3,0-0.6,0-0.9,0s-0.6,0.2-0.8,0.3c-0.6,0.2-1.1,0.2-1.7,0.2
				c-0.6,0.2-1.1,0.2-1.7,0.2c-0.9,0.2-1.7,0.2-2.7,0c-2.5-0.3-4.7,0-7.2-0.2h-0.2c-1.6,0-3.3-0.3-4.9-0.5c-0.5,0-0.9,0-1.4-0.2
				c-0.8-0.2-1.6-0.3-2.4-0.5c-3.8-0.6-7.5-0.6-11.3-1.1c-0.5,0-0.8,0.2-1.3,0.2s-0.3-0.2-0.6-0.2h-0.3c-0.5,0.2-0.8,0.3-1.3,0.5
				l-2,0.6c-0.2,0-0.3,0.2-0.5,0.2s-0.3,0-0.3,0s-0.6,0.2-1.1,0.2c-0.3,0-0.6,0-0.9,0c-0.6,0-1.3,0-2,0s-1.6,0-2.2,0
				c-0.6,0-1.4,0-2,0c-1.3,0-2.7,0-3.9,0.2s-2.8,0.3-4.1,0.3c-1.7,0.3-3.4,0.5-5.2,0.5c-1.1-0.2-2.2-0.3-3.3-0.5
				c-0.3,0-0.5-0.2-0.8-0.2c-0.5-0.2-0.9-0.3-1.4-0.3c-0.8,0-1.6-0.2-2.4-0.2c-0.6-0.2-1.3-0.3-1.9-0.3l-1.7-0.3
				c-0.6-0.2-1.1-0.2-1.7-0.2c-0.6,0-1.3,0-1.9,0c-0.8,0-1.6,0-2.2-0.2l-0.5-0.2l-0.6-0.2c-0.5-0.2-1.1-0.3-1.7-0.3h-0.8
				c-0.3-0.2-0.8-0.2-1.3-0.2c-0.6,0-1.4-0.2-2-0.3c-0.6-0.2-1.1-0.2-1.7,0c-0.2,0-0.5,0-0.6,0h-0.5c-0.2,0-0.5,0-0.6-0.2
				c-0.5,0-0.9-0.2-1.4-0.2h-1.1h-0.3h-0.3c-0.2,0-0.3,0-0.5,0h0.3c-0.2,0-0.3,0-0.5,0s-0.3,0-0.5,0h-1.4h-0.5c-0.2,0-0.5,0-0.6,0
				h-0.5c-0.2,0-0.2,0-0.3,0H349h-2H346c-0.3,0-0.6,0-0.9,0c-0.2,0-0.3,0-0.5,0s-0.3,0-0.6,0c-0.2,0-0.5,0-0.6,0c-0.3,0-0.5,0-0.8,0
				c-0.5,0-1.1,0-1.6,0h-0.2h-0.8h-0.3H339c-0.3,0-0.5,0-0.8,0c-0.3,0-0.6,0-0.9,0c-0.3,0-0.6,0-0.8,0c-0.5,0-0.9-0.2-1.4-0.3h-0.5
				L334,502c-1.1-0.5-2.4-0.9-3.6-1.1c-0.3,0-0.6-0.2-0.9-0.2c-0.3,0-0.5,0-0.6-0.2c-0.6-0.2-1.3-0.3-2-0.5c-0.5,0-0.9,0-1.4,0
				c-0.5,0-0.9,0-1.4,0c-0.8,0-1.7,0-2.5,0c-1.3,0.2-2.7,0-3.9-0.3c-0.2,0-0.3-0.2-0.6-0.2c-0.3-0.2-0.3,0-0.6,0
				c-0.2,0-0.2,0-0.3-0.2h-0.2c-0.2,0-0.2-0.2-0.5-0.2c-0.3,0-0.9-0.5-1.4-0.8c-0.3-0.2-0.5-0.3-0.6-0.5c-0.5,0-1.1,0-1.6-0.2
				c-0.6-0.2-1.3-0.2-1.7-0.3c-0.5-0.2-1.3-0.2-1.7-0.2l-0.6-0.2c-0.6,0-1.3-0.2-1.9-0.2l0,0c-0.6,0-1.3,0-1.9,0c-0.3,0-0.6,0-1.1,0
				c-0.6,0-1.4,0-2.2,0c-0.6,0-1.1,0-1.7-0.2c-0.5,0-1.1,0.2-1.6,0.3l-3.8,2.5c-1.6,1.9-2.8,4.5-4.7,5.5l0.8,0.2c0.2,0,0.3,0,0.6,0
				l0.6-0.2c0.3,0,0.6,0,0.8-0.2c0.8-0.2,1.6-0.3,2.4-0.3c0.8-0.2,1.7-0.3,2.5-0.3c0.6-0.2,1.4-0.3,2-0.5h0.5l0.3-0.2
				c0.3-0.2,0.8-0.2,1.1-0.2c0.2,0,0.5,0,0.6,0h0.6l1.6-0.2c0.3,0,0.6-0.2,0.9-0.2c0.3,0,0.5-0.2,0.6-0.2c0.3,0,0.5-0.2,0.8-0.2
				s0.6,0,0.9,0c0.9,0,1.7,0,2.5,0c0.3,0,0.6-0.2,0.9-0.2c0.2,0,0.3,0,0.5-0.2c0.2,0,0.5,0,0.6,0h0.5h0.3h0.3c0.2,0,0.3,0,0.5,0
				c0.2,0,0.3,0,0.3,0h0.2h0.2c0.3,0,0.5,0,0.8,0c0.2,0,0.3,0,0.6,0h0.3c0.2,0,0.2,0,0.3,0l0.8,0.2l0.9,0.2c0.3,0,0.6,0,1.1,0h0.5
				c0.2,0,0.3,0,0.6,0s0.8,0,1.1,0h0.5l0.5,0.2c0.5,0,0.9,0,1.4,0c0.3,0,0.5,0,0.8,0h0.8h1.6l0,0l1.3,0.2h0.2c0.5,0,1.1,0,1.6,0h0.9
				c0.6-0.3,1.3-0.6,2-0.9c0.3,0.2,0.8,0.2,1.1,0.3h0.5c0.2,0,0.3,0,0.5,0c0.3,0.2,0.6,0.2,0.9,0.2h0.8c0.5,0,1.1,0.2,1.7,0.2h0.6
				l0.5,0.2l0.9,0.2c0.6,0,1.1,0.2,1.7,0.2c0.5,0,1.1,0.2,1.6,0.2l0.9,0.2c0.3,0,0.8,0,1.1,0.2c0.3,0,0.5,0.2,0.8,0.3
				c0.2,0,0.3,0.2,0.5,0.2c0.2,0,0.5,0.2,0.6,0.2c0.8,0.2,1.4,0.3,2.2,0.5c0.3,0,0.6,0,0.9,0c0.3,0,0.3,0.2,0.3,0.2l0.9-0.2
				c0.2,0,0.3,0,0.3,0c0.2,0,0.3,0,0.6,0c0.6,0,1.3,0.2,1.7,0c0.5,0,0.9,0,1.4,0s0.9,0,1.3,0c0.3,0,0.6,0,0.8,0.2
				c0.3,0,0.5,0.2,0.8,0.2c0.3,0,0.5,0,0.6,0.2s0.5,0.2,0.6,0.2s0.5,0,0.8,0c0.3,0,0.6,0,1.1,0c0.5,0,1.1,0.2,1.7,0.3h0.3h0.3
				c0.3,0,0.5,0.2,0.8,0.2c0.6,0,1.4-0.2,2,0c0.3,0,0.6,0,0.9,0c0.2,0,0.3,0,0.6,0h0.3c0.5,0,0.9,0,1.6,0h0.9c0.3,0,0.8,0,1.1,0h0.6
				h0.2h0.2h0.2h0.2l0.2,0.2l0.5,0.2c0.2,0,0.3,0,0.3,0h0.2h0.3c0.2,0,0.3,0.2,0.5,0.2h0.6h0.3h0.3c0.2,0,0.5,0,0.6,0h0.3l0.3,0.2
				l0.6,0.2l1.1,0.3c0.2,0.2,0.3,0.2,0.5,0.3c0.2,0.2,0.3,0.2,0.6,0.3c0.3,0.2,0.8,0.3,1.3,0.3c0.5,0,0.9,0,1.4,0c0.5,0,1.1,0,1.6,0
				h0.3c0.2,0,0.3,0,0.5,0l0.8,0.2c0.6,0.2,1.3,0.2,1.9,0.2c0.3,0,0.8,0.2,1.1,0.2h0.6l1.6,0.3c0,0.2,0.2,0.2,0.3,0.2l0.8,0.2
				c0.2,0,0.5,0,0.6,0c0.2,0,0.3,0,0.5,0h0.6c0.3,0,0.6,0,0.9,0c0.3,0,0.5,0,0.6,0h0.8h1.3c0.2,0,0.5,0,0.6,0h0.8c0.8,0,1.6,0,2.4,0
				h0.5c0.2,0,0.5,0,0.6,0c0.3,0.2,0.8,0.2,1.1,0.2s0.6,0.2,0.9,0.2c0.3,0.2,0.6,0.2,0.9,0.3c0.2,0,0.5,0.2,0.6,0.2
				c0.3,0.2,0.8,0.3,1.1,0.3h0.3c0.2,0,0.3,0.2,0.3,0.2c0.3,0.2,0.6,0.2,0.9,0.3c0.6,0.2,1.1,0.3,1.7,0.3c0.6,0,1.3,0,1.7,0
				c0.3,0,0.8,0,1.1,0h0.8c0.3,0,0.5,0,0.8,0s0.8,0,1.3,0s0.6,0,0.9,0c0.3,0,0.6,0,1.1,0l1.1,0.2c0.8,0.2,1.6,0.3,2.4,0.5
				c0.8,0.2,1.1,0.2,1.7,0.3H423l2.4,0.2c0.3,0,0.5,0,0.8,0h0.6c0.3,0,0.6,0,0.9,0c0.8,0,1.6,0,2.4,0c0.8,0,1.7,0.2,2.5,0.2
				s1.6,0.2,2.5,0.3c0.9,0.2,1.6,0.2,2.4,0.5c0.8,0.3,1.3,0.3,1.9,0.3s1.6,0.2,2.4,0.3c0.3,0,0.8,0.2,1.1,0.2c0.5,0,0.8,0,1.3,0
				c0.2,0,0.5,0,0.6,0h0.8c0.5,0,0.9,0,1.6,0c0.3,0,0.5,0,0.8,0c0.2,0,0.3,0.2,0.6,0.2s0.6,0,0.9,0c0.2,0,0.3,0,0.6,0h0.3
				c0.3,0,0.6,0,0.9,0c1.3,0,2.4,0,3.6,0.2c0.8,0,1.7,0.2,2.5,0.2c0.3,0,0.6,0.2,0.9,0.2c0,0,0,0,0.2,0h0.2l0,0c0.2,0,0.2,0,0.3,0
				s0.3,0.2,0.5,0.2c0.2,0,0.3,0.2,0.3,0l0.2-0.2c0.2,0,0.2-0.2,0.3-0.3c0-0.2,0.2-0.3,0.2-0.5s0-0.2,0-0.3c0-0.2,0.2-0.2,0.2-0.3
				l0.3-0.6c0.2-0.2,0.3-0.5,0.3-0.6c0-0.3,0-0.6,0-0.9c-0.2-0.3-0.2-0.8,0-1.1c0.2-0.3,0.3-0.6,0.6-0.9c0.2-0.2,0.3-0.2,0.3-0.3
				l0.5-0.5c0.6-0.8,1.3-1.6,1.6-2.5C464,505.5,463.3,505.5,462.9,505.5z M350.7,503.3c-0.6,0-1.1,0-1.7,0c-0.5,0-0.9-0.2-1.4-0.2
				c-1.1,0-2-0.3-3.1-0.5c-1.1-0.2-2.5,0.2-3.8,0h0.2h0.5h1.1c1.1,0,2.2,0,3.4,0.2h0.9h0.8c0.5,0,0.9,0,1.4,0c0.6,0,1.1,0.2,1.7,0.2
				l0.8,0.2L350.7,503.3z"/>
			<path class="st2" d="M465.1,507.5L465.1,507.5z"/>
			<path class="st2" d="M464.8,507.5L464.8,507.5L464.8,507.5L464.8,507.5z"/>
			<path class="st2" d="M464.6,507.7L464.6,507.7L464.6,507.7l-0.2,0.2l-0.2,0.2l0,0l0.2-0.2L464.6,507.7z"/>
			<path class="st0" d="M546.6,510c0-0.5,4.4-8.2,4.4-8.2l1.9-2.5l2.4-3c0,0,3.6-2,4.1-2.4c0.8-0.6,1.4-1.4,2-2.2c0,0,1.4-5,1.7-5.5
				c0.9-0.6,2-1.1,3.1-1.1c2.7,0,5.3,0.3,8,0.6c0.6,0.3,10.2,2.7,13.3,3.6c3.1,0.9,7.4,4.1,7.4,4.9c0,0.8,1.4,6,1.3,6.7
				c-0.2,0.8,0.9,8.8,0.5,11c-0.5,2.2-1.3,5.6-3.1,7.2c-1.6,1.1-3.3,1.7-5,2c0,0-3.4,6-4.5,8s-9.6,9.6-9.6,9.6s-0.6,3-0.9,3.8
				c-0.3,0.8-2.7,4.9-7.1,3.9c-4.4-0.9-16.2-4.5-19-5.6s-6-4.1-6.3-5.6c-0.3-1.6-2.4-7.1-2.5-9.1c-0.2-2,0.3-7.2,0.5-9.6
				c0.2-2.4,1.4-5.3,3.3-5.6L546.6,510z"/>
			<path class="st1" d="M573.1,511.6l2.7-3.6c0.5-0.8,1.1-1.4,1.7-2.2c0.6-0.6,2.7-3.4,3.8-4.5c1.3-1.4,2-3,2.5-4.7
				c0-0.9-0.2-1.7-1.1-1.9c-0.9-0.2-4.1-0.2-5.3-0.2c-1.9,0.2-3.8-0.2-5.5-0.9c-1.3-0.8-5.3-3.1-5.8-3.4c-0.6-0.3-1.3-0.5-2-0.6
				c0-0.6,0.3-1.4,0.8-1.9"/>
			<path class="st1" d="M546.6,510c0,0,3.6-0.9,4.7-1.1c2.4,0,4.7,0.5,6.9,1.1c0.8,0.5,2.5,1.3,3.3,1.9c0.8,0.6,3.3,0.9,4.1,2
				c0.8,1.1,1.3,1.9,1.3,1.9c0.5,0.3,1.1,0.3,1.6,0.2c0.6-0.3,3-0.8,3.3-1.7c0.5-0.9,0.9-1.7,1.7-2.5"/>
			<path class="st0" d="M538.6,516.5c0.2-2.4,1.4-5.3,3.3-5.6l4.7-0.8c0-0.5,4.4-8.2,4.4-8.2l1.7-2.2L543,497c0,0-8.2-2.4-9.6-2.4
				s-17.4-3.1-17.4-3.1l-18.2-3.1l-6.4-3.1l-8.2-4.1l-12.4-3.6l-7.8-4.1l-6-2.8l-7.4-2.4l-4.1-1.4h-8.2L431,471l-5,6.9
				c-0.3,1.4-0.3,2.8,0,4.1c0.5,1.4,4.5,4.5,4.5,4.5c1.3,0.9,2.7,1.6,4.1,1.9c1.9,0,6,0.5,8.2,0.5s23.7,6.1,23.7,6.1l16.5,5.5
				c1.4,0.5,16.9,4.1,19.1,4.5c2.2,0.5,29.6,11,29.6,11l6.6,1.6C538.6,517.2,538.6,516.8,538.6,516.5z"/>
			<path class="st1" d="M538.6,516.5c0.2-2.4,1.4-5.3,3.3-5.6l4.7-0.8c0.3-0.9,0.8-1.9,1.3-2.7l-7.8-0.9c0,0-10.5-0.5-14.1-0.9
				c-3.6-0.5-18.2-5.5-21-7.4c-2.8-1.9-22.9-6.4-25.6-6.9c-2.7-0.5-15.8-5.5-19.1-6.4s-12.4-3.6-15.5-3.6c-3.1,0-11-3.1-11-3.1
				l-2.8-5.5l0.8-2.2l-0.8,0.5l-5,6.9c-0.3,1.4-0.3,2.8,0,4.1c0.5,1.4,4.5,4.5,4.5,4.5c1.3,0.9,2.7,1.6,4.1,1.9c1.9,0,6,0.5,8.2,0.5
				s23.7,6.3,23.7,6.3l16.5,5.5c1.4,0.5,16.9,4.1,19.1,4.5c2.2,0.5,29.6,11,29.6,11l6.6,1.6C538.6,517.2,538.6,516.8,538.6,516.5z"
				/>
			<path class="st0" d="M581.7,510.5l3.3,0.8c0,0,1.9,1.4,2,2c0.3,1.9,0.3,3.8,0.3,5.5c-0.3,1.4-1.1,2.8-2,4.1
				c-0.6,0.5-2,1.4-2.7,1.9c-1.1,0.5-2.4,0.9-3.6,1.3l-2.4-0.5c0,0-1.4-7.5,1.4-11.1S581.7,510.5,581.7,510.5z"/>
			<path class="st1" d="M585.3,522.7c0.9-1.1,1.6-2.5,2-4.1c0-1.9,0-3.8-0.3-5.5c-0.2-0.5-1.3-1.4-1.7-1.9l-0.8-0.2l-1.3,2l-0.6,0.8
				l-2.5-0.2l1.6,1.7l-1.4,2.4h-1.4l1.3,1.4v1.3l-2.8-0.2l2.4,1.4l-0.2,1.7l0.3,1.3c0,0,0.3,0.5,0.6,0.9c0.8-0.2,1.6-0.5,2.4-0.9
				C583.3,524.1,584.7,523.2,585.3,522.7z"/>
			<g>
				<path d="M63.2,311.8l0.2-2.4l1.7-1.1l2-0.6l1.9-0.9l1.9-0.8l1.9-1.1l1.9-0.9l2-0.6l1.7-0.8l0.3,2.2l-2,0.6l-1.7,0.9l-1.7,0.9
					l-1.9,0.8l-1.9,0.8l-1.9,0.6l-1.6,1.1l1.7,0.6l1.9,0.8l1.7,0.9l1.9,0.6l2,0.5l1.9,0.8l1.9,0.8l0.2,2.4l-2-0.9l-1.9-0.8l-2-0.6
					l-2-0.6l-1.9-0.9l-2-0.6l-1.9-0.8L63.2,311.8z"/>
				<path d="M88.6,318.7l-0.3-0.5l0.8-2l0.5-2.2l1.4-1.7l0.8-2l0.9-2l0.3-2.2l0.8-2l0.8-2l1.3-1.9l0.3-2.2l0.8-2l1.1-1.9l-2.4,0.5
					l-2.5-0.2l-2.4,0.6l-0.2-0.2l1.9,1.7l0.2,2.7v1.9l-0.9,1.7l-1.1,1.7l-1.7,0.9h-2l-2.2-0.5l-2.2-0.6l-0.8-2.2l-0.8-2.2v-2
					l0.9-1.9l1.4-1.4l1.9-0.6L87,293l2-0.2h2l2.2,0.3l2-0.5l2-0.6h2.4l0.3,0.3l-0.2,1.1l-1.1,1.9l-0.8,2l-0.6,2l-0.6,2l-1.1,1.9
					l-0.5,2l-0.9,1.9l-0.6,2l-0.8,2l-0.3,2.2l-0.9,1.9l-0.8,2l-0.5,0.2L88.6,318.7z M90.1,299.7l-0.2-2.2l-1.1-1.9l-2-0.6l-2,0.3
					l-0.9,2l-0.3,2.2l0.9,2l1.1,1.9l1.7,0.9l2.2-0.5l0.5-2.2L90.1,299.7z M95.6,312.3l0.3-1.9l0.6-1.7l1.1-1.7l2-0.3l1.9-0.3
					l2.2,0.3l2.2,0.6l1.4,1.9l0.5,2.4l-0.6,1.9l-0.2,2l-1.3,1.6l-1.9,0.6l-1.9,0.5l-2.2-0.6l-2.2-0.8l-0.9-2.2L95.6,312.3z
					 M104.7,312l-0.3-2.2l-1.1-1.9l-2-0.6l-2,0.3l-0.9,2l-0.2,2.2l0.9,2.2l1.1,1.9l1.7,0.9l2.2-0.5l0.3-2.4L104.7,312z"/>
				<path d="M110,307.1l-0.3-2h2.4l2.2-0.2h2.2h2.2l2.2-0.2l2.4-0.2l2,0.3v1.7h-2l-2.2,0.3h-2.2h-2.2l-2.2-0.2l-2.2,0.3H110z
					 M110.2,313.4l-0.3-2h2.4l2.2-0.2h2.2h2.2l2.2-0.2l2.2-0.2l2,0.3v1.7h-2l-2.2,0.3h-2.2h-2.2l-2.2-0.2l-2.2,0.3L110.2,313.4z"/>
				<path d="M141.9,295.8l0.8-0.6l0.9,0.8l1.3,1.7l1.1,1.9l0.6,2.2l1.4,1.7l0.8,2l0.9,1.9l1.4,1.7l0.8,2l0.9-2l0.9-1.9l0.6-2
					l0.9-1.9l1.3-1.9l1.3-1.9l0.6-2.2l1.1-1.9l0.5-0.6l0.9,0.6l0.3,2.2l0.3,2.2l0.3,2.2l0.9,2l0.3,2.2l-0.2,2.2l0.3,2.2l0.3,2.2
					l0.6,1.6l1.1,1.4h1.7l0.3,0.2l-0.6,0.2l-2-0.3l-2,0.8h-2l-0.9-0.6h0.6l0.3-1.6l-0.6-1.9l-0.9-1.9l-0.2-2l-0.5-2v-2l-0.2-2H158
					l-0.5,2L156,306l-0.8,1.7l-0.9,1.7l-0.3,2l-0.8,1.9l-0.9,1.7l-1.3,1.1l-1.4-0.9l-1.3-2l-0.9-2.2l-1.3-2l-0.6-2l-1.6-1.7
					l-0.5-2.2v0.2l-0.8,2v2.2l-0.5,2.2l0.2,2.2l-0.2,2.2l-0.5,1.3l1.1,1.1l1.1-0.6l0.2,0.6l-0.3,0.3l-3,0.2H138l-0.5-0.3l0.5,0.2
					l0.8-0.8l0.9-1.9l0.5-2l0.8-1.9v-2l-0.3-2l0.5-2l0.5-2v-2l0.8-2L141.9,295.8z"/>
				<path d="M173.4,308.7v0.6l-1.1,1.7l-0.8,1.9l-0.3,1.7l1.3,0.9l0.5-0.2l0.5,0.3l-0.5,0.5h-1.6l-1.6-0.3l-1.6,0.5l-1.7-0.2
					l-0.6-0.3l0.5-0.2l0.8-0.5l1.4-0.8l1.1-1.4l0.9-1.9l0.5-2l0.6-2l0.9-1.9l1.1-1.9l0.9-1.9l0.3-2.2l0.8-1.9l0.6-2l0.9-1.1l0.9,0.8
					l0.8,1.9l1.1,1.7l0.5,2l0.9,1.9l1.1,1.7l0.9,1.9l0.5,2l1.3,1.7l0.6,2l0.9,1.7l1.7,0.9l1.1,0.3l0.5,0.3l-1.3,0.3l-1.9,0.3h-1.9
					l-1.9-0.3l-0.5-0.2v-0.3l0.3-0.8l-0.8-1.9l-1.1-1.6l-0.6-1.9l-0.3-0.2h-2.2l-2.2,0.5L173.4,308.7z M179.5,307.4l-0.2-0.3
					l-0.3-1.9l-0.6-1.7l-0.8-1.7l-0.8-1.7l-0.3-0.2l-0.2,0.2l-0.5,1.9l-0.6,1.7l-0.9,1.7l-0.3,1.9h-0.2l1.9-0.2l1.9,0.2L179.5,307.4
					z"/>
				<path d="M194.7,311.5l0.2,1.7l0.9,1.6l1.6-0.3l0.5,0.6l-0.6,0.2h-1.9l-1.9,0.3l-3.1,0.3l-0.8-0.6l0.6-0.2l1.3-0.6l0.8-1.3
					l0.5-1.9l-0.5-2v-2l0.2-2V303l-0.3-2v-2l0.3-2l-0.2-2l0.3-0.8l1.4,0.6l1.6,1.4l1.1,1.9l1.6,1.3l1.6,1.4l1.6,1.4l1.7,1.1l1.3,1.9
					l1.9,1.3l1.3,1.9l1.7,1.6l0.5-0.2l-0.2-2l-0.6-2l0.3-2v-2l-0.2-2l-0.2-2l-1.3-2.4l-1.6-0.2l-0.6-0.3l0.9-0.5l1.9,0.3l1.9-0.3
					l2.8,0.2l0.8,0.2l-0.6,0.3l-0.8,0.5l-0.9,2l-0.3,2.2l-0.2,2.2l0.3,2.2l0.3,2.2v2.2l-0.3,2.2l-0.2,2.2l0.5,2.2l-0.6,0.9l-1.3-0.5
					l-1.6-1.7l-1.7-1.6l-1.7-1.6l-1.9-1.4l-1.6-1.9l-1.6-1.3l-1.6-1.3l-1.4-1.4l-1.1-1.7l-1.6-0.9v-0.2v2.4l0.5,2.2v2.4l0.2,2.4
					L194.7,311.5z"/>
				<path d="M222,307.6l-0.2,0.2l-0.6,2l-1.1,1.7l-0.2,1.7l0.9,0.9l0.5-0.3l0.2,0.3l-0.2,0.2l-1.6,0.3h-1.6l-1.7-0.2l-1.7,0.3
					l-0.6-0.5l0.3-0.5l0.9,0.2l1.4-1.1l0.8-1.6l0.5-2l1.3-1.7l0.8-1.9l0.3-2.2l0.9-1.9l0.6-2l0.8-1.9l0.9-1.9l0.9-1.9l0.5-0.9
					l0.9,0.6l1.1,1.7l0.5,2l0.9,1.9l0.8,1.9l1.3,1.7l0.6,2l0.6,2l0.9,1.9l1.3,1.7l1.1,1.6l1.4,1.3l1.1,0.5h0.8l-1.6,0.5L235,314
					l-1.9,0.5h-1.9l-0.8-0.3l0.3-0.2v-0.8l-0.6-1.9l-0.5-2l-0.9-1.7l-0.5-0.3l-2.2,0.5l-2.2,0.2L222,307.6z M228.1,305.7
					L228.1,305.7l-0.9-1.7l-0.5-1.9l-0.9-1.7l-0.5-1.9l-0.3-0.2h-0.5l-0.5,1.9l-0.3,1.9l-0.6,1.7l-0.9,1.7h0.2h1.9l1.9-0.2
					L228.1,305.7z"/>
				<path d="M239.9,313.7l-0.9-0.9l0.2-1.9l0.3-1.9l0.2-0.9l0.2,0.6l0.2,1.6l1.1,1.7l1.9,0.8l1.9-0.3l1.9-0.3l1.3-1.4l0.6-1.7
					l-0.9-2.2l-1.7-2l-1.9-0.2l-1.6-1.4l-1.9-1.1l-0.9-1.9l-0.3-2l0.3-2l1.4-1.6l1.6-1.4l2-0.3l2-0.6l2,0.2l2,0.3l0.6,0.5l-0.3,1.7
					l0.2,1.7l-0.5,0.8l-0.5-0.6l-0.5-2l-1.7-0.9h-1.7l-1.7,0.3l-1.6,0.8l-0.5,1.7l0.9,2.2l2.2,1.3l1.1,0.8l2,0.9l1.7,1.6l1.4,1.7
					v2.4l-0.3,2l-0.6,2l-1.6,1.4l-2.2,1.1l-2.5,0.3l-2.4-0.3L239.9,313.7z"/>
				<path d="M256.5,311.5l2-2l2.2,1.9l-0.6,1.6l-1.4,0.6L256.5,311.5z"/>
				<path d="M267.8,292.4l0.6-0.9l1.3,0.9l0.9,2l0.9,1.9l1.1,1.9l0.6,2l1.1,1.9l1.4,1.7l0.6,2l1.1,1.7l1.1-1.7l0.6-2l0.9-2l0.6-2
					l0.9-2l1.6-1.7l0.9-2l0.6-2l0.6-1.3l0.9,1.3v2.2l0.6,2.2l0.8,2l-0.3,2.4l1.1,2l0.3,2.2v2.2l0.5,2.2l0.3,1.7l1.3,1.4l1.7,0.2h0.6
					l-0.9,0.6l-2-0.5l-2,0.2l-2,0.5l-1.1-0.8l0.6-0.2l0.5-1.4l-1.1-1.9l0.3-2.2l-0.9-1.9l0.2-2l-0.3-2l-0.8-1.9h0.3l-1.3,1.6l-0.3,2
					l-1.3,1.6l-0.9,1.7l-0.8,1.7l-0.8,1.9l-0.2,2l-1.4,1.6l-1.6-1.4l-0.9-2.2l-1.4-2l-0.3-2.5l-1.7-1.6l-0.5-2.2l-1.6-1.6l0.5-0.2
					l-0.2,2.2v2.2l-0.5,2.2l0.2,2.2l-0.8,2.2l0.3,1.3l0.6,0.8h0.9l0.9,0.5l-1.1,0.3l-3.1,0.2l-2.8-0.2l-0.6-0.2l0.6,0.2l0.9-0.5
					l0.8-2.4l0.2-2l0.6-2v-2l0.5-2l0.2-2l0.6-2v-2l0.3-2L267.8,292.4z"/>
				<path d="M297.4,299.4l-0.2-2l0.2-2l-0.3-1.9l-0.8-1.7h-1.1l-0.5-0.3h0.8l1.9-0.3l1.9,0.3l1.9-0.6l1.9,0.3h0.9l-0.8,0.3l-0.8,0.3
					l-1.3,1.4l0.3,2l-0.3,2v2l-0.2,2.5l0.2,2.5l0.3,2l0.2,2v2l1.1,1.3h1.4l0.5,0.3l-0.6,0.5l-2,0l-2.4-0.2l-1.9,0.2l-1.9,0.2
					l-0.5-0.5l0.3-0.3l0.9-0.3l0.9-1.1l-0.2-2l0.3-2l-0.2-2l-0.2-2.5L297.4,299.4z"/>
				<path d="M309.7,311.7l-0.3-0.9l-0.5-1.9l0.2-1.9l0.3-0.9v0.6l0.6,1.4l1.1,1.4l1.6,0.9l1.9,0.5l1.9-0.8l1.4-1.3l0.6-1.7l-0.8-2.5
					l-2.2-1.3l-1.6-1.3l-1.7-1.1l-1.7-1.1l-0.8-1.9l-0.5-1.9l0.6-1.9l0.9-1.6l1.4-1.6l2-0.5l2-0.2l2-0.2l2,0.2l0.3,0.6l0.2,1.7
					l-0.3,1.6l-0.2,0.8l-0.3-0.5l-0.6-2l-1.7-0.8l-1.7-0.6l-1.7,0.8l-1.7,0.8l-0.2,1.9l0.6,2.2l2.2,1.1l1.1,0.9l2.2,0.8l1.4,1.7
					l1.1,1.9l0.3,2.2l-0.2,2l-0.6,1.9l-1.4,1.6l-2.4,0.9l-2.5,0.2h-2.4L309.7,311.7z"/>
				<path d="M327.4,311.3l-0.5-0.9l0.3-1.9v-1.9l0.2-0.6l0.3,0.3l0.2,1.6l1.1,1.7l1.7,0.9l2,0.2l2-0.5l1.3-1.6l0.6-1.9l-1.1-2.2
					l-2-1.6l-1.7-0.9L330,301l-1.4-1.4l-1.1-1.7l-0.2-2l0.2-2l1.3-1.6l1.6-1.3l1.9-0.9l2-0.2l2,0.2l2,0.6h0.6l-0.2,1.7l0.2,1.7
					l-0.5,0.6l-0.3-0.2l-0.9-1.7l-1.4-1.1l-1.7-0.5l-1.7,0.6L331,293l-0.8,1.6l0.9,2.4l2.2,1.1l1.1,0.9l1.9,1.3l1.9,1.3l0.9,2
					l0.5,2.2l-0.6,2l-0.8,1.7l-1.3,1.7l-2.5,0.8l-2.5,0.2l-2.4,0.2L327.4,311.3z"/>
				<path d="M345.9,298l-0.5-2v-2l0.2-2l-0.9-1.6l-1.1,0.2l-0.8-0.5h0.9l1.9-0.3l1.9,0.3l1.9-0.6h1.9l0.5,0.5l-0.3,0.6l-0.9-0.3
					l-1.3,1.7l0.5,2l-0.5,2l0.2,2l0.3,2.5l-0.2,2.5l0.3,2l-0.3,2l0.5,2l1.3,1.1l1.4,0.2l0.5,0.5l-0.6,0.3l-2.4-0.3h-2.4l-1.9,0.2
					l-1.6-0.2l-0.3-0.2l0.3-0.2h1.1l0.9-1.6v-2l-0.3-2v-2l-0.3-2.5L345.9,298z"/>
				<path d="M355.9,300.2l0.3-2l0.5-1.9l0.8-1.7l0.8-1.9l1.6-1.3l1.7-0.9l1.9-0.5l1.9-0.6l2-0.6l2.2,0.2l2.2,0.6l2,0.8l2,0.9
					l1.7,1.6l0.6,2.2l1.1,1.9v2.2l0.5,2.2l-0.6,2l-1.1,1.7l-0.9,1.9l-1.9,1.1l-1.7,0.9l-1.7,1.3h-2.2l-2,0.2l-2,0.3l-1.9-0.5l-2-0.3
					l-1.6-1.4l-1.7-1.1l-1.4-1.4l-0.9-1.9l-0.5-2L355.9,300.2z M375.5,300.2V298l-0.6-2l-0.9-1.9l-1.7-1.4l-1.6-1.3l-1.9-0.8l-2-0.5
					l-2,0.6l-1.7,1.3l-1.4,1.4l-1.1,1.7l-0.5,2l0.2,2.2l0.3,2v2.2l1.4,1.7l1.1,1.9l2,0.8l1.9,0.8l2.2,0.5l1.9-0.8l2-0.6l1.4-1.6
					l0.3-2.2l0.9-2L375.5,300.2z"/>
				<path d="M387.3,306.2v1.7l1.1,1.1l1.4,0.2l0.3,0.5l-0.5,0.3l-1.9,0.2l-1.9-0.2l-3.1,0.3l-0.9-0.3l0.8-0.3l1.3-0.5l0.8-1.3V306
					v-2l-0.3-2l0.2-2l0.3-2l-0.6-2l0.3-2l-0.3-2l-0.2-2l0.8-1.1l1.4,0.9l1.4,1.4l1.6,1.4l1.4,1.7l1.4,1.4l1.7,1.3l1.4,1.6l1.6,1.6
					l1.7,1.4l1.7,1.4l1.4,1.7l-0.2-0.2l0.3-2l0.2-2l-0.2-2l-0.2-2l-0.6-2v-2l-0.9-2.5l-1.6-0.3h-0.3l0.6-0.6h1.9l1.9,0.3l2.8-0.2
					l0.9,0.2l-0.6,0.6l-0.9-0.5l-0.8,2.7l-0.3,2.2l0.6,2.2v2.2l-0.3,2.2l0.5,2.2l-0.5,2.2l-0.2,2.2l0.6,2.2l-0.6,0.6l-0.9-0.5
					l-2-1.3l-1.6-1.7l-2-1.3l-1.4-1.9l-1.9-1.4l-1.6-1.1l-1.4-1.4l-1.3-1.4l-1.3-1.4l-1.3-1.6l-0.6,0.3l0.3,2.4l0.2,2.2v2.4l0.2,2.4
					L387.3,306.2z"/>
				<path d="M426.5,309.5l-0.8-0.8l0.9-1.9l1.1-1.9l0.8-2l0.5-2.2l1.1-1.9l0.8-2l0.5-2.2l0.9-2l0.9-1.9l0.8-2l0.8-2l0.9-2.2
					l-2.4,0.6h-2.5l-2.4,0.5l-0.2,0.2l2,1.7l0.6,2.7l-0.6,1.9l-0.5,1.9l-1.3,1.6l-1.9,0.6l-1.9,0.5h-2.4l-1.9-1.6l-1.6-1.7l-0.2-2.4
					l0.2-2l0.8-1.9l1.3-1.7l2-0.6h2l2-0.8l2.2,0.2l2-0.5l2-0.3l2.2,0.2l2-0.3l0.5,0.2l-0.3,0.9l-0.9,1.9l-0.8,2l-0.5,2.2l-0.9,1.9
					l-0.8,2l-0.6,2l-0.6,2l-0.9,1.9l-0.3,2.2l-1.1,1.9l-0.9,1.9l-0.8,2l-0.2,0.2L426.5,309.5z M427.9,290.3l-0.5-2l-0.8-1.9
					l-1.7-1.1l-1.9,0.9l-0.5,2l-0.5,2l0.3,2.2l1.3,1.7l1.6,0.9l1.9-0.6l0.8-1.9L427.9,290.3z M433.2,302.9l0.2-2l0.9-1.9l1.6-1.3
					l1.7-0.9l1.9-0.6l2.4,0.6l2,1.1l1.6,1.7l0.3,2.4l-0.3,2l-0.6,1.9l-1.3,1.6l-1.9,0.6l-1.9,0.6l-2.2-0.6l-2-0.9l-1.1-2
					L433.2,302.9z M442.3,302.6l-0.5-2l-0.8-1.9l-1.7-1.3l-1.9,0.9l-0.5,2l-0.5,2l0.3,2.2l1.3,1.7l1.6,0.9l1.9-0.6l0.8-1.9
					L442.3,302.6z"/>
				<path d="M448.3,307.3v-2l1.7-0.8l1.7-0.9l1.9-0.6l1.7-0.9l1.9-0.6l1.7-1.3l1.7-0.6l-1.7-0.6l-1.7-0.9l-1.9-0.6l-1.9-0.5
					l-1.7-0.9l-1.9-0.8l-2-0.6v-2.4l2,0.8l2,0.6l1.9,0.8l1.9,0.9l2,0.6l1.9,0.9l2,0.6l1.9,0.9l0.3,2.4l-1.9,0.9l-2,0.6l-1.9,0.9
					l-1.9,0.9l-2,0.8l-1.9,0.9l-1.9,0.9L448.3,307.3z"/>
			</g>
		</g>
	</g>
</g>
</svg>
