<?xml version="1.0" encoding="utf-8"?>
<!-- Generator: Adobe Illustrator 25.0.0, SVG Export Plug-In . SVG Version: 6.00 Build 0)  -->
<svg version="1.1" id="Layer_1" xmlns="http://www.w3.org/2000/svg" xmlns:xlink="http://www.w3.org/1999/xlink" x="0px" y="0px"
	 viewBox="0 0 379.2 315.9" style="enable-background:new 0 0 379.2 315.9;" xml:space="preserve">
<style type="text/css">
	*{vector-effect:non-scaling-stroke}
	.st0{fill:#FFFFFF;stroke:#000000;stroke-width:1.5;stroke-miterlimit:10;}
	.st1{fill:none;stroke:#000000;stroke-width:0.5;stroke-miterlimit:10;}
	.st2{fill:#FFFFFF;}
</style>
<g>
	<g id="Layer_2_1_">
		<g id="Layer_1-2">
			<path class="st0" d="M128.3,54.9l-8.8,1.2l-5.6,5.6l-4.4,2L105,65l-3.6,2l-10.1,4l-6,3.6l-2.8,1.2c-1.1,0.2-2.1,0.7-2.8,1.6
				c-1.6,1.6-6.8,3.6-6.8,3.6l-2.4,3.2l-7.2,3.6c-0.6,1.3-1.4,2.6-2.4,3.6c-1.6,1.6-4,1.6-6,2.8S46,99.9,46,99.9l-4.8,2.4
				c0,0-8,4-10,5.2s-4.4,1.6-5.2,2.8s-7.2,8-7.2,8l-2.4,2.8l-3.6,4.8l-4,4l-0.4,8l-2,6.8l-0.4,4.8l0.8,4.4V167
				c-0.4,1.3-0.7,2.6-0.8,4v4.4c0,0,0.4,4.4,0.4,5.6s-0.4,4.8-0.4,4.8v3.6l-0.4,3.2l-1.2,2.4L3.3,198l-2,18.1
				c-0.4,1.7-0.6,3.5-0.8,5.2c0.1,2,0.3,4,0.8,6c0.4,1.3,0.6,2.7,0.8,4c0.2,1.7,0.2,3.5,0,5.2c0,1.2-0.8,3.6-0.4,4.8s1.2,1.6,4.4,4
				s3.2,2.9,4.9,3.6s5.2,1.2,6.8,1.6s1.6,0.4,6.8,0.4s6.4-1.2,8.8-1.2s3.6-0.4,5.6,0.4s5.2,1.2,8.8,1.6s7.2,1.2,9.6,1.2
				s13.7-1.2,15.7-1.6s5.6-1.6,5.6-1.6l29.3,0.8c1.8,0.6,3.7,1,5.6,1.2c3.6,0.4,24.5,0,26.1-0.4s8,0,10.9,0h15.7l6.4,0.4
				c1.8,0.6,3.7,0.9,5.6,0.8h9.6c3.6,0,9.6-0.4,12.9-0.4H220c2.7,0,5.3-0.1,8-0.4c3.6-0.3,7.2-0.5,10.9-0.4h28.5
				c5.2,0,8-0.4,9.6-0.4s13.7,0.4,17.3,0.8s17.7-1.6,17.7-1.6s3.2-2.8,3.6-4.4s1.6-5.6,1.6-5.6s1.2-4.4,1.6-6s2-16.5,1.2-19.3
				c-0.9-3.8-1.5-7.7-1.6-11.6c0.1-3.2-0.1-6.4-0.4-9.6c-0.7-4-1.1-8-1.2-12c0-5.2,0.8-11.3,0.8-13.7s-1.6-12.5-1.6-13.7
				s0.8-11.7,0.8-11.7V104l-1.2-19.7V67.4L314,61c0,0-1.2-3.6-1.6-5.6c-0.3-2.8-0.4-5.6-0.4-8.4c-0.2-1.6-0.4-3.2-0.4-4.8
				c0-2.4-0.4-3.6-0.4-8s1.2-7.2-0.8-9.6s-3.6-4.8-4.8-6.4c-1.4-1.8-3-3.4-4.8-4.8c-1.2-0.8-4-1.6-6-2.8s-2.8-0.8-5.6-2.4
				s-4-2.4-6-3.6s-6.9-3.7-8.6-3.7c-1.7-0.2-3.5-0.2-5.2,0c-2.8,0.4-5.6,0.4-7.6,1.2s-4.4,1.6-8,3.2s-10.9,2.4-12.4,3.2
				s-4.4,1.6-9.6,3.6s-7.6,2.4-10.9,3.6s-19.3,4-20.5,4s-2.4,0.4-5.2,0.4s-6.4,1.2-8.8,2c-2.6,0.7-5.2,1.6-7.6,2.8
				c-2.2,1.1-4.3,2.3-6.4,3.6c-2,1.2-6.8,4.4-6.8,4.4l-12.4,4.4c0,0-4.8,3.6-7.6,5.2s-4.8,2-7.2,4s-4,3.2-4.8,4.4
				S128.3,54.9,128.3,54.9z"/>
			<path class="st1" d="M212,229.3c0.2-0.1,0.2-0.2,0.3-0.3s0.5-0.2,0.8-0.4c0.8-0.6,1.5-1.2,2.2-1.9c0.6-0.4,1.3-0.7,2-0.9
				c0.4-0.1,0.7-0.1,1.1-0.2c0.6-0.1,1.1-0.3,1.6-0.5c0.4-0.3,0.9-0.5,1.3-0.7c0.5-0.2,1-0.5,1.5-0.7c0.8-0.4,1.6-1,2.3-1.5
				c0.3-0.2,0.5-0.4,0.8-0.6c0.3-0.2,0.7-0.4,1.1-0.5c0.5-0.2,1.1-0.3,1.6-0.4c0.7-0.1,1.4-0.3,2.1-0.6c0.8-0.4,1.5-0.9,2.1-1.5
				c0.3-0.4,0.6-0.7,1-1.1c0.4-0.4,0.8-0.7,1.3-1c0.6-0.4,1.3-0.8,2-1.1c0.5-0.2,1.1-0.4,1.7-0.6c0.5-0.1,1.1-0.4,1.6-0.5
				c0.7-0.1,1.5-0.2,2.2-0.2c0.9-0.1,1.7-0.4,2.4-0.9c0.4-0.2,0.7-0.5,0.9-0.8c0.2-0.2,0.4-0.5,0.6-0.7c0.2-0.2,0.3-0.5,0.6-0.7
				s0.4-0.1,0.5-0.2c0.3-0.2,0.6-0.3,0.9-0.6c0.5-0.4,1.1-0.7,1.7-1.1c0.3-0.2,0.6-0.4,0.9-0.5s0.8-0.6,1.2-0.9l0.1-0.1
				c-0.1,0.1-0.2,0.2-0.3,0.2c-0.6,0.5-1.1,1.2-1.4,1.9 M79.8,238.7c0.3,0.6,0.3,0.9,0.7,1.2c0.5,0.3,1,0.4,1.5,0.6
				c0.6,0.2,1.2,0.4,1.8,0.6s1.2,0.3,1.8,0.5c0.4,0.2,0.9,0.4,1.3,0.6s0.8,0.3,1.2,0.4c0.5,0.2,1,0.4,1.5,0.7
				c0.2,0.3,0.5,0.5,0.8,0.7c0.6,0.3,1.2,0.5,1.9,0.6c0.9,0.2,2,0.2,2.9,0.4c0.5,0.1,1,0.3,1.5,0.5c0.4,0.1,0.8,0.2,1.2,0.2
				c0.7,0.1,1.4,0.3,2,0.3c0.9,0,1.7-0.1,2.5-0.3c0.8-0.2,1.6-0.3,2.4-0.4s1.6-0.5,2.4-0.7c0.7-0.1,1.3-0.1,2,0c0.5,0,1.1,0,1.6-0.1
				c0.4,0,0.8-0.1,1.1-0.3c0.6-0.4,1.1-1,1.5-1.6c0.4-0.7,0.9-1.2,1.6-1.6c0.5-0.4,1.2-0.8,1.9-0.9c0.5,0,1,0,1.5,0s0.3-0.3,0.4-0.7
				c0.1-1.1,2-0.7,2.8-0.7c0.7-0.1,1.4-0.1,2.2,0c0.6,0.1,1.1,0.1,1.7,0.3c0.6,0.1,1.3,0.3,1.8,0.6c0.3,0.2,0.6,0.5,1,0.7l1.2,0.7
				c0.5,0.3,0.9,0.1,1.4,0.3c0.5,0.1,1.1,0.1,1.6,0.1c0.5,0.1,1,0.1,1.4,0c0-0.4,0.4-1.1,0.2-1.4s-1.4-0.6-1.8-0.7
				c-0.6-0.2-1.1-0.4-1.7-0.6s-1.2-0.5-1.2-1.2c0-0.5-0.1-1-0.2-1.5c0-0.5-0.2-1-0.4-1.5c-0.2-0.3-0.4-0.3-0.7-0.4
				c-0.3-0.2-0.7-0.4-1-0.7c-0.5-0.3-1.7-0.7-1.9-1.3c-0.1-0.4-0.2-0.8-0.4-1.1c-0.2-0.2-0.9-0.6-0.9-0.9c0-0.6,2.2-1,2.6-1.1
				c0.8-0.1,1.5,0.1,2.2,0.5c0.9,0.4,1,0.1,1.5-0.7c0.3-0.5,0.7-0.9,1.1-1.3c0.1-0.1,0.1-0.3,0.2-0.5c0.4-0.3,0.8-0.6,1.3-0.8
				c0.6-0.4,1.4-1.1,2.2-0.9c0.2,0.1,0.4,0.3,0.5,0.6c0.1,0.2-0.2,0.1-0.3,0s-0.1,0,0,0c-0.1,0.1-0.3,0.7-0.3,0.7l0.1,0.4
				c0.4-0.4,1-0.4,1.5-0.2c0.5,0.2,1,0.2,1.5,0.4c0.8,0.3,1.8,0.2,2.5,0.5c1.4-1.3-0.8-2.1-1.8-2.4c-0.5-0.1-1-0.3-1.5-0.5
				c-0.4-0.2-0.7-0.7-0.5-1.1c0.1-0.2,0.3-0.4,0.5-0.5c0.2-0.1,0.5-0.2,0.7-0.3c0.4-0.2,0.8-0.4,1.1-0.6c0.9-0.6,1.6-1.4,2.4-2
				c0.3-0.2,0.6-0.3,1-0.4c0.6-0.2,1.1-0.3,1.7-0.4c0.6-0.1,1.1-0.3,1.6-0.6c0.5-0.3,0.5-0.5,1.1-0.5c0.9,0,1.8,0.4,2.7,0.4
				c0.5-0.1,1,0,1.5,0.2c0.6,0.3,1.5,1.1,2.2,1.1c0.5-0.1,0.9-0.5,1.3-0.7c0.5-0.3,1-0.5,1.5-0.7c0.7-0.3,1.5-0.6,2.2-1
				c0.7-0.3,1.5-0.6,2.2-0.7c1-0.2,2.2-0.5,3.1,0.1c0.2,0.2,0.5,0.4,0.7,0.6c0.3,0.3,0.7,0.6,1.1,0.8c0.9,0.5,1.6,0.9,1.7,1.9
				c1.3,0.4,3.1-0.2,4.2,0.5c0.9,0.7,1.9,1.1,3.1,1.1c0.5,0,1.1,0.1,1.6,0.2c0.4,0.1,1,0.1,1.4,0.5c0.3,0.6,0.3,1.3,0,1.8
				c-0.1,0.3-0.2,0.2-0.2,0.5c0,0.3,0,0.5,0.2,0.8c0.1,0.3,0.2,0.6,0.4,0.9c0.2,0.3,0.7,0.1,1.1,0s0.8-0.4,1.1-0.2s0.3,0.5,0.4,0.7
				c0.3,0.5,0.9,0.8,1.4,0.5c0.8-0.3,1.3-1,1.5-1.8c0.1-0.6,0-1.3,0-1.9s-0.2-1.2,0.3-1.6c0.6-0.4,1.2-0.6,1.9-0.7
				c0.5-0.1,0.8-0.2,1.3-0.4c0.3-0.1,0.5-0.1,0.7-0.2c0.3-0.1,0.6-0.2,0.9-0.2c-0.3,0,0.3-0.5,0-0.5l-0.1-0.3
				c0.1-0.2,0.5,0.3,0.3,0.2c-0.3,0.5,0.1,0.5,0.5,0.5s0.7,0.2,1.1,0.2s1,0,1.5,0c0.4,0.1,0.9,0,1.3-0.2c0.4-0.3,0.7-0.7,0.9-1.1
				c0.1-0.3-0.1-0.8,0-1.1c0.1-0.4,0.3-0.7,0.6-1.1c0.2-0.3,0.5-0.5,0.9-0.5c1-0.2,1.9-0.6,2.8-1.1c0.5-0.3,0.3-0.4,0.4-0.9
				s0.3-0.6,0.7-0.8c0.8-0.3,1.6-0.7,2.4-1.1c1.5-0.7,3.2-0.8,4.7-1.6c0.4-0.2,0.7-0.5,1.1-0.7c0.5-0.2,0.9-0.5,1.1-1
				c0.2-0.3,0.2-0.7,0.2-1.1c0-0.2,0-0.4,0-0.6c0.1-0.4,0.1-0.3,0.4-0.5c0.3-0.2,0.6-0.5,0.9-0.6c0.4-0.2,0.8-0.5,1.1-0.7
				c0.2-0.1,0.4-0.4,0.6-0.5c0.4-0.2,0.7-0.4,1-0.7c0.3-0.5,0.7-0.9,1.1-1.3c0.3-0.2,0.6-0.2,0.9-0.4c0.5-0.2,0.9-0.6,1.4-0.8
				c0.3-0.1,0.6-0.3,0.9-0.4c0.3-0.1,0.5-0.2,0.7-0.4c0.2-0.2,0.8-0.6,1-0.9s0-0.3,0.1-0.5s0.2-0.3,0.3-0.4c0.1-0.2,0.3-0.5,0.4-0.7
				c0.1-0.1,0.4-0.1,0.5-0.3s0.2-0.3,0.4-0.4c0.5-0.5,1-0.2,1.6-0.3c0.3,0,0.6-0.2,0.9-0.4c0.2-0.2,0.6-0.4,0.8-0.6s0.4-0.5,0.7-0.7
				s0.6-0.5,0.9-0.7s0.5-0.2,0.8-0.4s0.3-0.4,0.5-0.6c0.3-0.3,0.5-0.4,0.6-0.9c0.2-0.4,0.5-0.8,0.9-1.1c0.9-0.5,1.8-1,2.8-1.3
				c0.8-0.2,1.4-0.7,1.7-1.5c0.1-0.3,0.2-0.6,0.5-0.9c0.4-0.3,0.9-0.6,1.4-0.7c0.5-0.1,0.9-0.3,1.3-0.6c0.3-0.2,0.6-0.5,0.9-0.7
				c0.3-0.2,0.6-0.3,0.9-0.4c0.7-0.5,1.2-1.1,1.7-1.8c0.2-0.2,0.2-0.6,0.4-0.8c0.2-0.2,0.5-0.4,0.8-0.5c0.3-0.3,0.6-0.5,0.9-0.6
				c0.7-0.3,1.4-0.7,2-1.2c0.4-0.3,0.6-0.6,0.9-0.9s0.9-0.6,1.3-0.9l0.7-0.6c0.2-0.2,0.4-0.4,0.6-0.6c0.2-0.3,0.1-0.5,0.2-0.9
				c0.2-0.8,0.8-1.5,1.5-1.9c0.9-0.5,2-0.6,2.9-1.2c0.6-0.4,0.8-1.2,1.3-1.6c0.3-0.2,0.6-0.4,0.9-0.6s0.7-0.3,1.1-0.5
				c0.4-0.2,0.9-0.5,1.3-0.8c0.4-0.2,0.8-0.3,1.1-0.6s0.6-0.7,1.1-0.9l1.4-0.7c0.5-0.2,0.8-0.4,1.3-0.6c0.4-0.1,0.8-0.3,1.2-0.4
				c0.2-0.2,0.5-0.4,0.8-0.6 M44,222.4c0.6,0.7,1.3,1.3,2,1.9c0.6,0.5,1.1,1.2,1.5,1.8c0.4,0.4,0.6,0.9,0.7,1.4
				c0,0.4-0.1,0.7,0.2,1.1c0.3,0.3,0.6,0.6,1,0.9c0.3,0.3,0.7,0.6,1.1,0.9c0.4,0.3,0.8,0.7,1.1,1.1c0.3,0.3,0.5,0.7,0.7,1.1
				c0.1,0.1,0.2,0.2,0.2,0.3s0,0.3,0,0.5c0.3,0.8,1.3,0.9,2,1.1c0.8,0.1,1.5,0.5,2.2,1c0.6,0.6,1.2,0.5,2,0.5
				c0.9,0.1,1.7,0.1,2.6-0.1c0.4-0.2,0.7-0.2,1.1-0.2c0.6-0.1,1.1-0.2,1.7-0.3c0.2,0,0.5,0,0.7-0.1c0.2-0.1,0.4-0.4,0.5-0.5
				c0.5-0.3,0.9-0.7,1.3-1.1c0.2-0.3,0.3-0.6,0.3-0.9c0-0.5,0.3-0.9,0.7-1.1c0.2-0.1,0.3-0.4,0.5-0.5s0.2-0.1,0.4-0.2
				c0.7-0.3,0.7-0.9,1.1-1.5s0.8-0.6,1-1.3c0.1-0.5,0.3-0.9,0.5-1.4s0.1-0.7,0.6-0.8c0.3,0,0.6,0.1,0.8,0s0.4-0.4,0.6-0.7
				c0.4-0.3,0.8-0.5,1.2-0.8c0.4-0.3,0.7-0.5,1.2-0.7s0.9-0.7,1.4-1c0.4-0.3,0.7-0.5,1-0.8c0.3-0.3,0.5-0.8,0.9-1s0.8,0,1.2-0.2
				c0.2-0.2,0.5-0.4,0.7-0.7c0.2-0.2,0.4-0.4,0.6-0.5c0.3-0.4,0.7-0.6,1.2-0.7c0.7-0.2,1.4-0.5,2.1-0.8c1.2-0.4,2.5,0.1,3.7-0.5
				c0.6-0.3,1.1-0.8,1.7-1.1c0.4-0.2,0.9-0.2,1.4-0.2c0.3,0,0.5,0,0.8,0c0.4-0.1,0.3-0.1,0.6-0.3c0.1-0.1,0.2-0.1,0.3-0.2
				c0.2-0.2,0.4-0.4,0.5-0.6c0.3-0.4,0.5-0.7,1-0.8c0.8-0.1,1.5-0.5,2-1.1c0.7-0.6,1.5-1.1,2.4-1.5c0.8-0.3,1.6-0.6,2.3-1
				c0.3-0.2,0.6-0.5,0.9-0.8c0.3-0.2,0.4-0.5,0.7-0.8c0.5-0.4,0.8-0.8,1.3-1.3c0.7-0.7,1.9-1.1,2.1-2.1c0.1-0.5-0.1-0.8,0.4-1.1
				c0.3-0.1,0.6-0.3,0.8-0.4l0.8-0.7c0.8-0.6,1.6-1.4,2.2-2.1c0.3-0.4,0.6-0.8,0.8-1.3c0.1-0.5,0.2-1,0.2-1.6
				c0.1-0.6,0.3-0.6,0.7-0.6c0.2,0,0.4-0.1,0.6-0.1c0.3,0,0.7,0,1,0c1,0,1.9-0.5,2.4-1.3c0.3-0.4,0.7-0.8,1.1-1.1
				c0.4-0.3,0.8-0.2,1.3-0.4c0.3-0.1,0.6-0.2,0.9-0.2c0.5,0,0.5-0.1,0.9-0.4c0.3-0.3,0.7-0.6,1-0.9c0.2-0.3,0.4-0.6,0.8-0.9
				c0.4-0.1,0.8-0.2,1.2-0.3c0.4-0.1,0.8-0.2,1.3-0.3 M9.3,236.8c0.5,0.3,0.9,0.5,1.4,0.7c0.8,0.3,1.5,0.4,2.3,0.5
				c0.1,0.1,0.3,0.1,0.4,0.1c0.2,0,0.4,0,0.6,0c0.4,0,0.7,0,1.1,0c0.4,0.1,0.7,0.2,1.1,0.3c0.6,0.1,1.1,0.1,1.7,0.1
				c1.7,0,3.5,0.1,5.2,0c0.3-0.1,0.7-0.2,1-0.3c0.5-0.1,0.6,0.2,1.1,0.3c0.9,0.1,1.7,0.1,2.6,0c0.4,0,0.7,0,1.1,0.1
				c0.3,0.2,0.6,0.5,0.9,0.6s0.4,0.1,0.6,0.2s0.2,0.3,0.3,0.4s0.5-0.3,0.8-0.4s0.4-0.1,0.6-0.2c0.5,0,0.9,0,1.4,0.1
				c0.6,0.1,0.8-0.2,1.3-0.3s0.8,0.1,1.2-0.4c0.1-0.2,0.1-0.3,0.3-0.4s0.7,0.2,0.9,0.3c0.5,0.3,0.6,0.3,0.9-0.2
				c0.2-0.3,0.3-0.9,0.5-1.1s1.1,0.2,1.5,0c0.1-0.1,0.3-0.6,0.3-0.7 M201.1,234c0.5,0.1,1,0.2,1.5,0.2c0.8,0,2.2,0.1,2.4,1.1
				c0,0.4,0.2,0.8,0.5,1c0.4,0.3,0.6,0.7,1,1s1.2,0.2,1.7,0.2c0.5,0.1,1,0.2,1.5,0.4c0.7,0.3,1.3,0.8,1.8,1.4
				c0.3,0.4,0.5,0.8,0.7,1.3c0.1,0.2,0,0.4,0.1,0.5s0.4,0.3,0.5,0.4s0.4,0.5,0.7,0.7s0.5,0.2,0.8,0.3c0.6,0.3,1.2,0.5,1.9,0.7
				s0.9,0.1,1.4,0.2s1.1,0.4,1.7,0.5c0.7,0.2,1.5,0.3,2.2,0.6c0.3,0.1,0.6,0.2,0.9,0.3c0.2,0,0.4,0,0.6,0s0.2,0.2,0.3,0.2
				c0.2,0,0.4,0,0.6,0c0.5,0.1,1.1-0.1,1.5-0.4c0.6-0.4,1.1-1,1.8-1.3c0.8-0.3,1.7-0.4,2.6-0.4h5.9c1.1-0.1,2.1,0,3.2,0.1
				c0.4,0,0.8,0.1,1.2,0.2c0.6,0.2,1.2,0.5,1.8,0.8c0.9,0.3,1.6,0.8,2.4,1.1c0.6,0.2,1.2,0.3,1.8,0.3c1.3,0,2.7,0.2,4,0.5
				c0.5,0.1,1,0.2,1.5,0.2c0.4,0,0.7,0.1,1.1,0.2c0.9,0,1.7-0.3,2.4-0.8c0.6-0.4,1.3-0.6,2-0.9s1.1-0.6,1.6-0.9
				c1-0.8,1.9-1.6,2.7-2.6c0.1-0.1,0.1-0.2,0.2-0.3c0.2-0.1,0.4-0.2,0.6-0.3c0.4-0.3,0.7-0.6,1-1c0.5-0.5,1-0.9,1.6-1.4
				c0.2-0.3,0.5-0.5,0.8-0.7c0.2,0,0.3-0.1,0.5-0.1c1.1-0.2,2.3-0.5,3.3-0.9c0.8-0.5,1.6-0.8,2.5-1.1c0.6,0,1.2-0.2,1.7-0.6
				c0.5-0.4,0.9-1,1.4-1.3c0.6-0.2,1.2-0.2,1.9-0.1h3.1c0,0.7,2,0.6,2.5,0.6c0.7,0,1.5,0,2.2,0c0.6,0.1,1.3,0.2,1.9,0.3h3.3
				c1.2-0.1,2.4-0.1,3.6,0.2c1.2,0.5,2.4,0.4,2.5-1.3c0-0.6,0-1.1,0-1.6c0-0.8-0.1-1.2,0.5-1.6c1.8-1.1,3.7-2.1,5.6-3
				c0.7-0.4,1.9-0.3,2.4-0.8c0.2-0.2,0.3-0.4,0.6-0.6c0.6-0.4,1.2-0.8,1.9-1.1c0.7-0.3,1.4-0.8,2.1-1c1-0.3,1.8-0.7,2.8-1.1
				c1.1-0.4,2-1,2.8-1.8 M284.4,71.4c-0.1-0.7,0-1.5,0.3-2.2c0,0,0,0,0-0.1l-0.3,0.3c-0.1-0.7,0.3-0.9,0.7-1.1l0,0
				c0.2-0.3,0.5-0.6,0.7-0.7l-0.5,0.6c0.2,0,0.4-0.1,0.5-0.1c0.9-0.1,0.7-1.2,1.6-1.6c0.9-0.2,1.8-0.2,2.7,0c0.7,0,1.3,0.1,1.9,0.5
				 M273.4,48.4c0.2-0.5,0.4-1,0.7-1.4c0.4-0.9,0.5-1.6,1.7-1.2c0.3,0.1,0.5,0.4,0.8,0.5c0.4,0.1,0.7,0.2,1.1,0.3 M220.2,84
				c0.6-0.2,1.1-0.6,1.6-0.8c0.7-0.2,1.4-0.3,2.2-0.4c0.7-0.1,1.5-0.1,1.9-0.7c0.2-0.5,0.3-1,0.3-1.6c0-0.8,0.1-0.9,0.8-1.3
				c0.6-0.4,1.2-0.6,1.9-0.8c1.6-0.5,2.8-1.7,4.2-2.5c0.4-0.1,0.7-0.3,1-0.5c0.2-0.2,0.1-0.4,0.2-0.6c0.3-0.4,0.9-0.7,1.3-1.1
				s0.9-1.1,1.4-1.6c0.3-0.3,0.6-0.7,0.8-1.1c0.1-0.5-0.1-0.9,0.2-1.4c0.2-0.4,0.4-0.7,0.7-1.1c0.4-0.4,0.9-0.7,1.3-1s0.6-1,1.1-1.4
				c1.2-0.7,2.2-1.6,2.9-2.8c0.2-0.4,0.5-0.7,0.8-1c0.3-0.4,0.7-0.8,1.1-1.2c0.5-0.3,1-0.7,1.4-1.1c0.3-0.4,0.7-0.7,1.1-1
				c0.5-0.3,0.9-0.7,1.3-1.1c0.5-0.4,1-0.7,1.6-1c0.3-0.2,0.5-0.4,0.8-0.6c0.4-0.2,0.9-0.4,1.4-0.5c0.6-0.3,1.2-0.6,1.9-0.9
				c0.9-0.4,1.8-0.9,2.8-1.3c1.1-0.5,2.4-0.8,3.5-1.3c0.4-0.2,0.8-0.5,1.1-0.7l0.2-0.2c0.5-0.4,1-0.8,1.5-1.2
				c-0.2,0.1-0.4,0.2-0.7,0.2L264,50c0.3,0,0.5,0.2,0.8,0.3s0.5-0.1,0.7,0 M216.6,74.2c0.2-0.3,1.2-1.7,0.1-1.3l-1.1,0.5
				c0-0.3-0.1-1,0.1-1.3v0c0.3-0.3,0.6-0.6,1-0.8c0.4-0.1,0.9-0.1,1.3,0.1c0.3,0.2,0.3,0.7,0.4,1c0.4,1,1.2,0.6,2,0.8 M210.7,55.2
				c0.5-0.1,0.9-0.2,1.4-0.3 M201.8,64.7c-0.2-0.2-0.4-0.4-0.5-0.7c-0.1-0.5-0.2-1.1-0.1-1.6v0c0.2-0.4,0.7-0.4,1.1-0.6
				s0.7-0.5,1.1-0.7c1-0.4,2.2-0.5,3.2-0.1c0.7,0.1,0.7,0.4,1,0.9s0.7,0.5,0.6,1c-0.1,0.8-1,0.5-1.6,0.5c-0.9,0-0.6,0.4-0.4,1.1
				c0.1,0.5,0.1,1.1-0.1,1.6c-0.1,0.3-0.2,0.5-0.4,0.8c-0.2,0-0.3,0-0.5,0 M168.3,83.1c0.1-0.8-0.2-1.5,0.6-2.1l-1.6,0.3
				c0.4-0.4,2.1-1.3,2.7-1.1c0.6,0.3,0.1,1.4,0.2,1.9 M167,108.9h-2.4c0-0.8,0.4-1.5,1.1-1.9c0.6-0.3,1.3-0.4,1.9-0.3 M157.2,109
				c0.4-0.4,0.6-0.2,1.1-0.4s0.7-0.4,1.1-0.5c1.1-0.4,0.9-0.8,0.9-1.7v0.1l-0.8,0.5c0-0.2-0.1-0.9,0-1s0.8,0,1,0
				c0.6-0.1,1.1,0,1.7,0.2c0.6,0.2,1.2,0.4,1.3,1.1c0,0.4-0.1,0.7-0.3,1c-0.2,0.2-0.5,0-0.8,0.1 M153.8,73.8c-0.5,0.1-1.1,0.1-1.6,0
				c-1.1-0.4-0.2-1.3,0-1.9v0l0.5-0.8c0-0.7-0.1-1.1,0.6-1.4s1.9,0.3,2.7,0.5s1.5,0.1,1.4,1.1 M41.1,179.3c0.5,0,1,0.1,1.5,0.4
				 M41.2,180.7 M38.5,152.6v-0.2c1-0.3,2,0.2,2.9,0.2 M37.4,189.5c-0.2-1.3,2.3-1,2.9-0.6c0.6,0.4,0.8,1.2,0.5,1.8 M26,203.5
				l0.1-0.1c0.1-0.1,0.2-0.2,0.3-0.2C26.3,203.3,26.1,203.4,26,203.5c-0.2,0.3-0.5,0.6-0.8,0.9c-0.2,0.1-0.4,0.3-0.5,0.5
				C25,204.3,25.4,203.9,26,203.5z M34.4,212.8c0.8,0.1,1.3-0.1,1.3,0.9c0,0.5,0.1,1-0.5,1.3c-0.9,0.1-1.8,0.1-2.7,0
				c-0.6,0-0.8,0.1-0.8-0.5c0-0.4,0-0.7,0.5-0.5 M122.8,185c0.4,0.1,0.7-0.3,1.1-0.3c0.9-0.1,2,0.3,2.9-0.1c0.8-0.5,1.6-1.1,2.2-1.8
				c0.4-0.4,0.9-1,1.4-1.3s0.8-0.4,1.2-0.7s0.6-0.5,0.9-0.7c0.7-0.5,1.6-0.8,2.3-1.2c0.8-0.5,1.5-1,2.2-1.6c0.2-0.3,0.5-0.6,0.9-0.8
				 M26.5,203.3c0.1-0.1,0.1-0.2,0.1-0.4c0.1-0.4-0.1-0.7,0-1.1c0.1-0.6,0-0.5,0.5-0.5c0.4,0,0.7,0,1.1,0c0.7,0,1.3,0.2,1.9,0.5
				c0.4,0.1,2,0.7,2.3,0.3c0.2-0.2,0-0.8,0-1c0.1-0.3,0.3-0.6,0.5-0.8c0.6-0.5,1.3-0.8,2-0.8c0.6,0,1.3,0,1.9,0l-0.7,0.2h0.1
				c0.6,0.2,1.3,0.3,1.9,0.3c0.3,0,0.5,0,0.8,0c0.3,0,0.4,0.2,0.6,0.2c0.3,0.1,0.7,0.1,1,0.1c0.3,0,0.6,0.1,0.9,0.2
				c0.5,0.1,1.1,0.1,1.6,0.1h3.5c0.5,0.1,1.1,0.1,1.6,0c0.2-0.1,0.3-0.2,0.5-0.3s0.6,0.1,0.8,0c0.5-0.1,1-0.5,1.6-0.6
				c0.5,0,1.1,0,1.6,0c1.1,0,2.3,0,3.4,0c0.7-0.1,1.4-0.2,2-0.5c0.5-0.1,1.1-0.2,1.6-0.4c0.4-0.2,0.9-0.5,1.3-0.8
				c0.3-0.2,0.6-0.5,0.9-0.7c0.3-0.1,0.5-0.2,0.8-0.3c0.3,0,0.5,0,0.8,0c0.7,0,1.4-0.2,2.1-0.3c1.1-0.1,2.1-0.5,2.9-1.1
				c0.7-0.5,1.5-1.1,2.2-1.6c0.5-0.6,1.2-1,1.9-1.3c1.2-0.3,2.3-0.4,3.5-0.5c1-0.1,1.6-0.9,2.3-1.4s1.7-1.2,2.5-1.8
				c0.8-0.4,1.6-0.8,2.4-1.1c0.9-0.4,1.6-0.6,2.5-1.1c0.7-0.4,1.5-0.7,2.3-0.9c0.1-0.1,0.2-0.2,0.3-0.2h0.6c0.2-0.1,0.4-0.2,0.5-0.3
				c0.4-0.3,0.7-0.6,0.9-1c0.6-0.8,1.4-1.4,2.3-1.8c0.8-0.4,1.7-0.8,2.5-1.3c0.4-0.2,0.7-0.6,1.1-0.8c0.4-0.1,0.8-0.2,1.2-0.4
				c0.7-0.6,1.4-1.1,2.3-1.5c1-0.3,2.1-0.4,3.1-0.7c0.5-0.2,1.1-0.4,1.7-0.5c0.5-0.1,0.9-0.2,1.3-0.3c1.1-0.1,2.2-0.1,3.2,0h1.9
				c0.5,0,1.1,0.1,1.6,0s0.7-0.2,1.1-0.3c0.6-0.1,0.8,0,1.3-0.3c0.4-0.3,0.9-0.5,1.4-0.7c0.3-0.1,0.5-0.3,0.7-0.4
				c0.2-0.1,0.5-0.1,0.6-0.2c0.4-0.2,0.7-0.4,1.1-0.6c0.5-0.3,0.9-0.5,1.4-0.7c0.5-0.1,1,0,1.6-0.1c0.9-0.2,1.8-0.7,2.4-1.4
				 M91.4,202.1c0.2-0.2,0.1-0.4,0.3-0.7c0.2-0.1,0.3-0.3,0.5-0.4c0.4-0.3,0.9-0.5,1.4-0.8c1-0.4,1.9-0.9,2.9-1.3
				c0.6-0.2,1.2-0.5,1.7-0.9c0.6-0.6,1.2-1.1,1.9-1.5c1.6-1,2.7-2.6,4.1-3.8c0.5-0.4,0.9-0.5,1.2-1.1c0.2-0.4,0.3-0.9,0.4-1.3
				c0.3-0.7,0.7-1.2,1.4-1.6c0.4-0.4,0.8-0.7,1.3-1c0.5-0.2,0.9-0.5,1.4-0.8c0.6-0.7,1.3-1.2,2.2-1.6c1-0.4,1.9-0.9,2.8-1.5
				c0.9-0.3,1.8-0.7,2.6-1.2c0.6-0.5,1.3-1,2-1.2c0.4-0.1,0.9-0.2,1.3-0.3c0.5-0.2,0.9-0.5,1.3-0.8c0.6-0.5,1.2-1,1.7-1.6
				 M284.9,210.8c0.1-0.4,0.5-0.6,0.8-0.9c0.1-0.1,0.2-0.3,0.3-0.4c0,0,0-0.1,0-0.1c-0.1-0.5-0.1-1.1,0-1.6c0.1-1.2,1.9-2.4,2.7-3.2
				c0.2-0.3,0.4-0.5,0.5-0.8c0.2-0.3,0.5-0.5,0.8-0.8s0.3-0.4,0.4-0.6s0.3-0.8,0.4-1s0-0.5,0.1-0.8s0.2-0.4,0.2-0.6
				c0.1-0.3,0.2-0.6,0.3-0.9c0-0.1,0-0.3,0-0.4c0.2-0.6,0.4-1.3,0.8-1.8c0-0.1,0.1-0.2,0.1-0.3c0-1,0.3-1.9,0.8-2.7
				c0.1-0.1,0.2-0.3,0.3-0.4c0-0.2,0.1-0.4,0.2-0.6c0.2-0.4,0.4-0.9,0.5-1.4c0.1-0.5,0.3-0.9,0.6-1.3c0.2-0.5,0.4-1,0.5-1.6
				c0.2-0.5,0.5-0.9,0.7-1.4c0.4-1,1.1-2.4,0.4-3.5c-0.4-0.5-1.3-0.8-1.6-1.4c-0.2-0.6-0.1-1.2,0.1-1.7c0.3-0.5,0.8-0.9,1.4-1"/>
			<path class="st1" d="M32.3,125.1c0.6-0.4,0.2-1.2,0.4-1.8c0.4-0.2,0.9,0.3,1.4,0.3c0.3,0,0.5,0,0.8-0.1c0.6-0.4,0.1-1.1,0.3-1.5
				c0.5-0.7,0.7,0,1.2,0c0.8,0,1-0.5,1.1-1.3c0.8-0.1,0.9,0,1.3-0.8c0.3-0.6,0.5-1.2,0.5-1.8c1.6-0.2,2.4-1.5,4-1.5
				c1,0,1.9-0.4,2.6-1c0.2-0.2,0.4-0.4,0.7-0.6c0.6-0.3,0.9-0.1,1.5-0.2c0.8-0.2,1.5-1.1,2.3-1.4s1.7-0.7,2.5-1.1
				c0.4-0.2,0.7-0.4,1.1-0.6c0.5-0.1,1-0.2,1.5-0.2c0.9-0.2,1.1-1,1.1-1.8c0.8-0.2,1.5-0.4,2.2-0.7c0.8-0.3,1.6-0.5,2.4-0.5l0.8-0.3
				c0.4-0.1,0.5,0.1,0.8-0.3s0.1-0.5,0.2-0.8c0.1-0.2,0.3-0.4,0.5-0.6c0.3-0.4,0.6-1.2,1.1-1.5s1.4,0,2-0.2c0.2-0.1,0.5-0.3,0.7-0.4
				s0.6-0.2,0.8-0.3c0.9-0.3,1.1-1.1,1.8-1.6s1.6,0,2.2-0.5s0.5-1.4,1.2-1.9c1.1-0.7,2.3-1,3.6-0.9c0.7,0.1,1.5,0.1,2.2,0
				c0.8-0.1,1.3-0.8,1.9-1s1.4,0.1,2.1-0.2c0.4-0.1,0.7-0.5,1.1-0.6s0.7-0.1,1.1-0.2c1.5-0.3,2.7-1.5,4-2.1c0.8-0.3,1.6-0.4,2.5-0.4
				c0.8,0,2,0.3,2.6-0.3c0.2-0.3,0.3-0.8,0.5-1.1s0.4-0.3,0.6-0.5s0.3-0.5,0.7-0.7s0.7,0,1.1-0.2c0.6-0.4,0.6-0.9,1.4-0.8
				s1.3,0.7,2.2,0.7s1.4,0.2,1.9-0.6c0.4-0.6,0.6-1.2,0.6-1.9c0-0.2,0.1-0.8-0.1-1s-0.8-0.2-1-0.5c-0.7-0.8,0.4-1.4,1-1.4
				c0.6-0.1,1.2-0.2,1.8-0.4c0.6-0.1,1.6,0.2,2.1-0.1c1.1-0.7,1.8-1.9,2-3.2c0.7,0,1-0.4,1.8-0.4s1.7,0,2.6,0s1.7,0,2.6,0
				c0.8,0,1.5-0.3,2.2-0.6c0.8-0.4,1.7-0.7,2.6-0.8c1.3-0.1,2.5-0.5,3.4-1.4c1.3-1.3,2.9-2.3,4.7-2.8c0.8-0.4,1.6-0.6,2.5-0.6
				c1.2,0.1,2.4-0.2,3.4-1c1.2-1,2.4-2.3,4-2.3c1,0,2,0,2.9,0c1.1,0,1.3-1,2.2-1.6c1.3-0.7,2.9-1.5,4.3-0.7c0.3-0.7,0.8-1.2,1.5-1.5
				c0.7-0.2,1.5-0.3,2.2-0.3c0.9,0,1.1-0.4,1.8-0.8c0.7-0.3,1.5-0.6,2.3-0.7c0.8-0.3,1-0.8,1.8-1c0.8-0.2,1.6-0.4,2.3-0.8
				c0.4-0.3,0.9-0.5,1.4-0.7c0.3-0.1,0.7,0.1,1.1,0c0.7-0.2,1.4-0.5,2.1-0.8c1.3-0.6,2.5-1.5,3.8-2.1c1.6-0.7,2.9-1.8,4.7-1.8
				c1.4-0.1,3,0.2,4.4-0.1c0.5-0.1,0.9-0.2,1.4-0.3c0.6-0.2,0.7-0.7,1.2-1c0.8-0.6,1.3-0.8,1.5-1.8c0.1-0.8-0.2-1.2-0.4-1.8
				c-0.1-0.4-0.1-0.8,0-1.1c0.2-0.5,0.2-0.3,0.8-0.3c0.4,0,0.7,0,1.1,0c0.5-0.1,0.7-0.4,1.1-0.7c0.9-0.5,2-0.9,3-1.1
				c0.9-0.3,1.8-0.8,2.6-1.3c0.3-0.3,0.7-0.5,1.1-0.8c0.5-0.2,0.9-0.3,1.4-0.3c1.6-0.5,3-1.7,4.5-2.6c0.7-0.4,1-0.5,1.1-1.4
				s-0.3-1.5,0.3-2c0.7-0.3,1.4-0.5,2.2-0.5c0.4-0.1,0.8,0,1.1,0.1c0.4,0.2,0.4,0.8,0.8,1c1.4,0.9,3-0.7,4-1.3
				c0.7-0.4,1.4-0.6,2.1-0.8c0.3-0.1,0.4-0.3,0.7-0.4c0.5-0.1,1-0.1,1.5,0c0.6-0.1,1.2-0.2,1.8-0.4c0.7,0,1.5,0,2.2-0.1
				c0.7-0.2,1.2-0.5,1.8-0.7c0.4-0.1,0.7,0,1.1-0.1s0.8-0.5,1.2-0.6c0.6-0.2,1.2-0.4,1.7-0.7c0.4-0.3,0.8-0.5,1.1-0.8
				c0.4-0.4,1-0.5,1.4-0.8s0.7-0.7,1.1-1c0.7-0.3,1.4-0.6,2.2-0.8c1.7-0.6,3.4-1,5.1-1.4c0.7-0.1,1.5-0.1,2.2,0
				c0.8,0.1,1.1,0.7,1.8,0.8c1.3,0.2,2.7-0.2,3.8-1c0.4-0.2,0.5,0,0.7-0.4c0.1-0.4,0.1-0.8,0-1.1c-0.2-0.7-0.8-0.7-1.4-0.8
				c-0.7-2.9,2.9-1.7,4.4-2.1c0.5-0.1,0.5-0.4,0.7-0.7c0.4-0.8,0.5-0.8,1.5-0.7c0.5,0,1.4-0.2,1.9,0c0.7,0.4,0,1.1,1.1,1.1
				c0.5,0,1.2-0.9,1.5-1.2s0.1-1.4,0.7-1.7c0.3-0.1,0.5-0.1,0.8,0c0.3-0.1,0.4-0.3,0.7-0.4h0.8c0.5,0.2,0.1,0.4,0.4,0.7
				c0.8,0.6,1.9,0.7,2.9,0.5c0.8-0.2,0.6-0.6,1.4,0c0.5,0.3,0.8,0.8,0.9,1.4c0.3,0.1,0.7,0.1,1,0.1c0.3-0.1,0.5-0.2,0.8-0.3
				c0.8-0.1,1.5,0.1,2.1,0.6c0.6,0.4,1.3,0.7,1.9,1c0.2,0.1,0.6,0.3,0.7,0.4c0.3,0.1,1.1-0.1,1.3,0.1s0,1.7,0,2.1
				c0.1,0.9,0.3,1,1.1,1.1s1.7-0.2,2.6,0c1,0.2,2,0.5,2.9,0.8c1.4,0.2,2.7,1,3.6,2.2c0.3,0.6,0.6,1,1.1,1.5c0.5,0.4,1.1,0.7,1.6,1
				c1,0.5,2.1,0.9,3.2,1.2c0.9,0.3,1.4,0.4,1.5,1.5s-0.3,1.8,0.4,2.3c1,0.4,2,0.6,3,0.6c1,0.1,1.9,0.2,2.9,0.5
				c0.7,0.2,1.6,0.4,2.2,0.6"/>
			<path class="st0" d="M182.6,288.4c1.2-1.6,2.5-3.1,3.9-4.5c1.6-1.2,3.6-0.8,5.6-0.8c2.7,0,5.4,0.7,8.2,0.8s81.7,5.2,85,5
				c4.9-0.3,10.6-1.4,12.1,4.7c0.3,1.2,0.6,4.2-1.1,4.7c-1.5,0.3-3,0.3-4.5,0.1c-2.1-0.1-93.7-9.3-98.3-9.1
				C189.8,289.3,186.2,288.9,182.6,288.4z"/>
			<path class="st1" d="M293.6,289.1h-0.1l-0.6-0.1c-0.2-0.1-0.5-0.1-0.7-0.1l-0.1-0.1l0,0c-1.7-0.2-3.5-0.2-5.2,0l0,0l-0.3,0
				c-0.4,0.1-0.9,0.1-1.3,0.1l-0.8,0c-0.2,0-0.4,0.2-0.7,0.2c-0.2,0-0.4,0-0.6,0c-0.2,0-0.4,0.1-0.5,0.2c-0.4,0.1-0.7,0.1-1.1,0.1
				c-0.4,0.1-0.7,0.1-1.1,0.1c-0.6,0.1-1.1,0.1-1.7,0c-1.6-0.2-3,0-4.6-0.1h-0.1c-1,0-2.1-0.2-3.1-0.3c-0.3,0-0.6,0-0.9-0.1
				c-0.5-0.1-1-0.2-1.5-0.3c-2.4-0.4-4.8-0.4-7.2-0.7c-0.3,0-0.5,0.1-0.8,0.1s-0.2-0.1-0.4-0.1h-0.2c-0.3,0.1-0.5,0.2-0.8,0.3
				l-1.3,0.4c-0.1,0-0.2,0.1-0.3,0.1c-0.1,0-0.2,0-0.2,0s-0.4,0.1-0.7,0.1c-0.2,0-0.4,0-0.6,0c-0.4,0-0.8,0-1.3,0c-0.5,0-1,0-1.4,0
				c-0.4,0-0.9,0-1.3,0c-0.8,0-1.7,0-2.5,0.1s-1.8,0.2-2.6,0.2c-1.1,0.2-2.2,0.3-3.3,0.3c-0.7-0.1-1.4-0.2-2.1-0.3
				c-0.2,0-0.3-0.1-0.5-0.1c-0.3-0.1-0.6-0.2-0.9-0.2c-0.5,0-1-0.1-1.5-0.1c-0.4-0.1-0.8-0.2-1.2-0.2l-1.1-0.2
				c-0.4-0.1-0.7-0.1-1.1-0.1c-0.4,0-0.8,0-1.2,0c-0.5,0-1,0-1.4-0.1l-0.3-0.1l-0.4-0.1c-0.3-0.1-0.7-0.2-1.1-0.2h-0.5
				c-0.2-0.1-0.5-0.1-0.8-0.1c-0.4,0-0.9-0.1-1.3-0.2s-0.7-0.1-1.1,0c-0.1,0-0.3,0-0.4,0h-0.3c-0.1,0-0.3,0-0.4-0.1
				c-0.3,0-0.6-0.1-0.9-0.1h-0.7h-0.2h-0.2c-0.1,0-0.2,0-0.3,0H224c-0.1,0-0.2,0-0.3,0c-0.1,0-0.2,0-0.3,0h-0.9h-0.3
				c-0.1,0-0.3,0-0.4,0h-0.3c-0.1,0-0.1,0-0.2,0H221h-1.3h-0.6c-0.2,0-0.4,0-0.6,0c-0.1,0-0.2,0-0.3,0c-0.1,0-0.2,0-0.4,0
				c-0.1,0-0.3,0-0.4,0c-0.2,0-0.3,0-0.5,0c-0.3,0-0.7,0-1,0h-0.1l-0.5,0h-0.2h-0.5c-0.2,0-0.3,0-0.5,0c-0.2,0-0.4,0-0.6,0
				c-0.2,0-0.4,0-0.5,0c-0.3,0-0.6-0.1-0.9-0.2l-0.3,0l-0.4-0.2c-0.7-0.3-1.5-0.6-2.3-0.7c-0.2,0-0.4-0.1-0.6-0.1s-0.3,0-0.4-0.1
				c-0.4-0.1-0.8-0.2-1.3-0.3c-0.3,0-0.6,0-0.9,0c-0.3,0-0.6,0-0.9,0c-0.5,0-1.1,0-1.6,0c-0.8,0.1-1.7,0-2.5-0.2
				c-0.1,0-0.2-0.1-0.4-0.1c-0.2-0.1-0.2,0-0.4,0c-0.1,0-0.1,0-0.2-0.1h-0.1c-0.1,0-0.1-0.1-0.3-0.1s-0.6-0.3-0.9-0.5
				c-0.2-0.1-0.3-0.2-0.4-0.3c-0.3,0-0.7,0-1-0.1c-0.4-0.1-0.8-0.1-1.1-0.2s-0.8-0.1-1.1-0.1l-0.4-0.1c-0.4,0-0.8-0.1-1.2-0.1l0,0
				c-0.4,0-0.8,0-1.2,0c-0.2,0-0.4,0-0.7,0c-0.4,0-0.9,0-1.4,0c-0.4,0-0.7,0-1.1-0.1c-0.3,0-0.7,0.1-1,0.2l-2.4,1.6
				c-1,1.2-1.8,2.9-3,3.5l0.5,0.1c0.1,0,0.2,0,0.4,0l0.4-0.1c0.2,0,0.4,0,0.5-0.1c0.5-0.1,1-0.2,1.5-0.2c0.5-0.1,1.1-0.2,1.6-0.2
				c0.4-0.1,0.9-0.2,1.3-0.3h0.3l0.2-0.1c0.2-0.1,0.5-0.1,0.7-0.1c0.1,0,0.3,0,0.4,0h0.4l1-0.1c0.2,0,0.4-0.1,0.6-0.1
				s0.3-0.1,0.4-0.1c0.2,0,0.3-0.1,0.5-0.1c0.2,0,0.4,0,0.6,0c0.6,0,1.1,0,1.6,0c0.2,0,0.4-0.1,0.6-0.1c0.1,0,0.2,0,0.3-0.1
				c0.1,0,0.3,0,0.4,0h0.3h0.2h0.2c0.1,0,0.2,0,0.3,0c0.1,0,0.2,0,0.2,0h0.1h0.1c0.2,0,0.3,0,0.5,0c0.1,0,0.2,0,0.4,0h0.2
				c0.1,0,0.1,0,0.2,0l0.5,0.1l0.6,0.1c0.2,0,0.4,0,0.7,0h0.3c0.1,0,0.2,0,0.4,0s0.5,0,0.7,0h0.3l0.3,0.1c0.3,0,0.6,0,0.9,0
				c0.2,0,0.3,0,0.5,0h0.5l1,0l0,0l0.8,0.1h0.1c0.3,0,0.7,0,1,0h0.6c0.4-0.2,0.8-0.4,1.3-0.6c0.2,0.1,0.5,0.1,0.7,0.2h0.3
				c0.1,0,0.2,0,0.3,0c0.2,0.1,0.4,0.1,0.6,0.1l0.5,0c0.3,0,0.7,0.1,1.1,0.1h0.4l0.3,0.1l0.6,0.1c0.4,0,0.7,0.1,1.1,0.1
				c0.3,0,0.7,0.1,1,0.1l0.6,0.1c0.2,0,0.5,0,0.7,0.1c0.2,0,0.3,0.1,0.5,0.2c0.1,0,0.2,0.1,0.3,0.1c0.1,0,0.3,0.1,0.4,0.1
				c0.5,0.1,0.9,0.2,1.4,0.3c0.2,0,0.4,0,0.6,0s0.2,0.1,0.2,0.1l0.6-0.1c0.1,0,0.2,0,0.2,0c0.1,0,0.2,0,0.4,0c0.4,0,0.8,0.1,1.1,0
				c0.3,0,0.6,0,0.9,0c0.3,0,0.6,0,0.8,0c0.2,0,0.4,0,0.5,0.1c0.2,0,0.3,0.1,0.5,0.1s0.3,0,0.4,0.1s0.3,0.1,0.4,0.1s0.3,0,0.5,0
				s0.4,0,0.7,0s0.7,0.1,1.1,0.2l0.2,0h0.2c0.2,0,0.3,0.1,0.5,0.1c0.4,0,0.9-0.1,1.3,0c0.2,0,0.4,0,0.6,0c0.1,0,0.2,0,0.4,0h0.2
				c0.3,0,0.6,0,1,0h0.6c0.2,0,0.5,0,0.7,0h0.4h0.1h0.1h0.1h0.1c0,0,0.1,0.1,0.1,0.1l0.3,0.1c0.1,0,0.2,0,0.2,0h0.1h0.2
				c0.1,0,0.2,0.1,0.3,0.1h0.4h0.2h0.2c0.1,0,0.3,0,0.4,0h0.2l0.2,0.1l0.4,0.1l0.7,0.2c0.1,0.1,0.2,0.1,0.3,0.2
				c0.1,0.1,0.2,0.1,0.4,0.2c0.2,0.1,0.5,0.2,0.8,0.2c0.3,0,0.6,0,0.9,0s0.7,0,1,0h0.2c0.1,0,0.2,0,0.3,0l0.5,0.1
				c0.4,0.1,0.8,0.1,1.2,0.1c0.2,0,0.5,0.1,0.7,0.1l0.4,0l1,0.2c0,0.1,0.1,0.1,0.2,0.1l0.5,0.1c0.1,0,0.3,0,0.4,0c0.1,0,0.2,0,0.3,0
				h0.4c0.2,0,0.4,0,0.6,0s0.3,0,0.4,0h0.5h0.8c0.1,0,0.3,0,0.4,0h0.5c0.5,0,1,0,1.5,0h0.3c0.1,0,0.3,0,0.4,0
				c0.2,0.1,0.5,0.1,0.7,0.1s0.4,0.1,0.6,0.1c0.2,0.1,0.4,0.1,0.6,0.2c0.1,0,0.3,0.1,0.4,0.1c0.2,0.1,0.5,0.2,0.7,0.2h0.2
				c0.1,0,0.2,0.1,0.2,0.1c0.2,0.1,0.4,0.1,0.6,0.2c0.4,0.1,0.7,0.2,1.1,0.2c0.4,0,0.8,0,1.1,0c0.2,0,0.5,0,0.7,0h0.5
				c0.2,0,0.3,0,0.5,0s0.5,0,0.8,0s0.4,0,0.6,0s0.4,0,0.7,0l0.7,0.1c0.5,0.1,1,0.2,1.5,0.3s0.7,0.1,1.1,0.2h-0.1l1.5,0.1
				c0.2,0,0.3,0,0.5,0h0.4c0.2,0,0.4,0,0.6,0c0.5,0,1,0,1.5,0s1.1,0.1,1.6,0.1s1,0.1,1.6,0.2s1,0.1,1.5,0.3s0.8,0.2,1.2,0.2
				s1,0.1,1.5,0.2c0.2,0,0.5,0.1,0.7,0.1c0.3,0,0.5,0,0.8,0c0.1,0,0.3,0,0.4,0h0.5c0.3,0,0.6,0,1,0c0.2,0,0.3,0,0.5,0
				c0.1,0,0.2,0.1,0.4,0.1s0.4,0,0.6,0c0.1,0,0.2,0,0.4,0h0.2c0.2,0,0.4,0,0.6,0c0.8,0,1.5,0,2.3,0.1c0.5,0,1.1,0.1,1.6,0.1
				c0.2,0,0.4,0.1,0.6,0.1c0,0,0,0,0.1,0h0.1h0c0.1,0,0.1,0,0.2,0c0.1,0,0.2,0.1,0.3,0.1c0.1,0,0.2,0.1,0.2,0c0,0,0.1-0.1,0.1-0.1
				c0.1,0,0.1-0.1,0.2-0.2c0-0.1,0.1-0.2,0.1-0.3c0-0.1,0-0.1,0-0.2c0-0.1,0.1-0.1,0.1-0.2l0.2-0.4c0.1-0.1,0.2-0.3,0.2-0.4
				c0-0.2,0-0.4,0-0.6c-0.1-0.2-0.1-0.5,0-0.7c0.1-0.2,0.2-0.4,0.4-0.6c0.1-0.1,0.2-0.1,0.2-0.2l0.3-0.3c0.4-0.5,0.8-1,1-1.6
				C294.3,289.1,293.9,289.1,293.6,289.1z M222.1,287.7c-0.4,0-0.7,0-1.1,0c-0.3,0-0.6-0.1-0.9-0.1c-0.7,0-1.3-0.2-2-0.3
				s-1.6,0.1-2.4,0h0.1h0.3h0.7c0.7,0,1.4,0,2.2,0.1h0.6h0.5c0.3,0,0.6,0,0.9,0c0.4,0,0.7,0.1,1.1,0.1l0.5,0.1L222.1,287.7z"/>
			<path class="st2" d="M295,290.4L295,290.4z"/>
			<path class="st2" d="M294.8,290.4C294.8,290.4,294.8,290.4,294.8,290.4L294.8,290.4L294.8,290.4z"/>
			<path class="st2" d="M294.7,290.5L294.7,290.5L294.7,290.5c0,0-0.1,0.1-0.1,0.1c0,0-0.1,0.1-0.1,0.1l0,0l0.1-0.1L294.7,290.5z"/>
			<path class="st0" d="M347,292c0-0.3,2.8-5.2,2.8-5.2l1.2-1.6l1.5-1.9c0,0,2.3-1.3,2.6-1.5c0.5-0.4,0.9-0.9,1.3-1.4
				c0,0,0.9-3.2,1.1-3.5c0.6-0.4,1.3-0.7,2-0.7c1.7,0,3.4,0.2,5.1,0.4c0.4,0.2,6.5,1.7,8.5,2.3s4.7,2.6,4.7,3.1s0.9,3.8,0.8,4.3
				s0.6,5.6,0.3,7s-0.8,3.6-2,4.6c-1,0.7-2.1,1.1-3.2,1.3c0,0-2.2,3.8-2.9,5.1s-6.1,6.1-6.1,6.1s-0.4,1.9-0.6,2.4s-1.7,3.1-4.5,2.5
				s-10.3-2.9-12.1-3.6s-3.8-2.6-4-3.6s-1.5-4.5-1.6-5.8s0.2-4.6,0.3-6.1s0.9-3.4,2.1-3.6L347,292z"/>
			<path class="st1" d="M363.9,293l1.7-2.3c0.3-0.5,0.7-0.9,1.1-1.4c0.4-0.4,1.7-2.2,2.4-2.9c0.8-0.9,1.3-1.9,1.6-3
				c0-0.6-0.1-1.1-0.7-1.2s-2.6-0.1-3.4-0.1c-1.2,0.1-2.4-0.1-3.5-0.6c-0.8-0.5-3.4-2-3.7-2.2c-0.4-0.2-0.8-0.3-1.3-0.4
				c0-0.4,0.2-0.9,0.5-1.2"/>
			<path class="st1" d="M347,292c0,0,2.3-0.6,3-0.7c1.5,0,3,0.3,4.4,0.7c0.5,0.3,1.6,0.8,2.1,1.2s2.1,0.6,2.6,1.3s0.8,1.2,0.8,1.2
				c0.3,0.2,0.7,0.2,1,0.1c0.4-0.2,1.9-0.5,2.1-1.1c0.3-0.6,0.6-1.1,1.1-1.6"/>
			<path class="st0" d="M341.9,296.1c0.1-1.5,0.9-3.4,2.1-3.6l3-0.5c0-0.3,2.8-5.2,2.8-5.2l1.1-1.4l-6.2-1.7c0,0-5.2-1.5-6.1-1.5
				s-11.1-2-11.1-2l-11.6-2l-4.1-2l-5.2-2.6l-7.9-2.3l-5-2.6l-3.8-1.8l-4.7-1.5l-2.6-0.9h-5.2l-4.1,2.6l-3.2,4.4
				c-0.2,0.9-0.2,1.8,0,2.6c0.3,0.9,2.9,2.9,2.9,2.9c0.8,0.6,1.7,1,2.6,1.2c1.2,0,3.8,0.3,5.2,0.3s15.1,3.9,15.1,3.9l10.5,3.5
				c0.9,0.3,10.8,2.6,12.2,2.9s18.9,7,18.9,7l4.2,1C341.9,296.6,341.9,296.3,341.9,296.1z"/>
			<path class="st1" d="M341.9,296.1c0.1-1.5,0.9-3.4,2.1-3.6l3-0.5c0.2-0.6,0.5-1.2,0.8-1.7l-5-0.6c0,0-6.7-0.3-9-0.6
				s-11.6-3.5-13.4-4.7s-14.6-4.1-16.3-4.4s-10.1-3.5-12.2-4.1s-7.9-2.3-9.9-2.3s-7-2-7-2l-1.8-3.5l0.5-1.4l-0.5,0.3l-3.2,4.4
				c-0.2,0.9-0.2,1.8,0,2.6c0.3,0.9,2.9,2.9,2.9,2.9c0.8,0.6,1.7,1,2.6,1.2c1.2,0,3.8,0.3,5.2,0.3s15.1,4,15.1,4l10.5,3.5
				c0.9,0.3,10.8,2.6,12.2,2.9s18.9,7,18.9,7l4.2,1C341.9,296.6,341.9,296.3,341.9,296.1z"/>
			<path class="st0" d="M369.4,292.3l2.1,0.5c0,0,1.2,0.9,1.3,1.3c0.2,1.2,0.2,2.4,0.2,3.5c-0.2,0.9-0.7,1.8-1.3,2.6
				c-0.4,0.3-1.3,0.9-1.7,1.2c-0.7,0.3-1.5,0.6-2.3,0.8l-1.5-0.3c0,0-0.9-4.8,0.9-7.1S369.4,292.3,369.4,292.3z"/>
			<path class="st1" d="M371.7,300.1c0.6-0.7,1-1.6,1.3-2.6c0-1.2,0-2.4-0.2-3.5c-0.1-0.3-0.8-0.9-1.1-1.2l-0.5-0.1l-0.8,1.3
				l-0.4,0.5l-1.6-0.1l1,1.1l-0.9,1.5h-0.9l0.8,0.9v0.8l-1.8-0.1l1.5,0.9l-0.1,1.1l0.2,0.8c0,0,0.2,0.3,0.4,0.6
				c0.5-0.1,1-0.3,1.5-0.6C370.4,301,371.3,300.4,371.7,300.1z"/>
			<g>
				<path d="M38.7,165.6l0.1-1.5l1.1-0.7l1.3-0.4l1.2-0.6l1.2-0.5l1.2-0.7l1.2-0.6l1.3-0.4l1.1-0.5l0.2,1.4l-1.3,0.4l-1.1,0.6
					l-1.1,0.6l-1.2,0.5l-1.2,0.5l-1.2,0.4l-1,0.7l1.1,0.4l1.2,0.5l1.1,0.6l1.2,0.4l1.3,0.3l1.2,0.5l1.2,0.5l0.1,1.5l-1.3-0.6
					l-1.2-0.5l-1.3-0.4l-1.3-0.4l-1.2-0.6l-1.3-0.4l-1.2-0.5L38.7,165.6z"/>
				<path d="M54.9,170l-0.2-0.3l0.5-1.3l0.3-1.4l0.9-1.1l0.5-1.3l0.6-1.3l0.2-1.4l0.5-1.3l0.5-1.3l0.8-1.2l0.2-1.4l0.5-1.3l0.7-1.2
					l-1.5,0.3l-1.6-0.1l-1.5,0.4l-0.1-0.1l1.2,1.1l0.1,1.7v1.2l-0.6,1.1l-0.7,1.1l-1.1,0.6h-1.3l-1.4-0.3l-1.4-0.4l-0.5-1.4
					l-0.5-1.4v-1.3l0.6-1.2l0.9-0.9l1.2-0.4l1.2-0.6l1.3-0.1h1.3l1.4,0.2l1.3-0.3l1.3-0.4H62l0.2,0.2l-0.1,0.7l-0.7,1.2l-0.5,1.3
					l-0.4,1.3l-0.4,1.3l-0.7,1.2l-0.3,1.3l-0.6,1.2l-0.4,1.3l-0.5,1.3l-0.2,1.4l-0.6,1.2l-0.5,1.3l-0.3,0.1L54.9,170z M55.9,157.9
					l-0.1-1.4l-0.7-1.2l-1.3-0.4l-1.3,0.2l-0.6,1.3l-0.2,1.4l0.6,1.3l0.7,1.2l1.1,0.6l1.4-0.3l0.3-1.4L55.9,157.9z M59.4,165.9
					l0.2-1.2l0.4-1.1l0.7-1.1l1.3-0.2l1.2-0.2l1.4,0.2l1.4,0.4l0.9,1.2l0.3,1.5l-0.4,1.2l-0.1,1.3l-0.8,1l-1.2,0.4l-1.2,0.3
					l-1.4-0.4l-1.4-0.5l-0.6-1.4L59.4,165.9z M65.2,165.7l-0.2-1.4l-0.7-1.2l-1.3-0.4l-1.3,0.2l-0.6,1.3l-0.1,1.4l0.6,1.4l0.7,1.2
					l1.1,0.6l1.4-0.3L65,167L65.2,165.7z"/>
				<path d="M68.6,162.6l-0.2-1.3h1.5l1.4-0.1h1.4h1.4l1.4-0.1L77,161l1.3,0.2v1.1H77l-1.4,0.2h-1.4h-1.4l-1.4-0.1l-1.4,0.2
					L68.6,162.6z M68.7,166.6l-0.2-1.3H70l1.4-0.1h1.4h1.4l1.4-0.1L77,165l1.3,0.2v1.1H77l-1.4,0.2h-1.4h-1.4l-1.4-0.1l-1.4,0.2
					L68.7,166.6z"/>
				<path d="M88.9,155.4l0.5-0.4l0.6,0.5l0.8,1.1l0.7,1.2l0.4,1.4l0.9,1.1l0.5,1.3l0.6,1.2l0.9,1.1l0.5,1.3l0.6-1.3l0.6-1.2l0.4-1.3
					l0.6-1.2l0.8-1.2l0.8-1.2l0.4-1.4l0.7-1.2l0.3-0.4l0.6,0.4l0.2,1.4l0.2,1.4l0.2,1.4l0.6,1.3l0.2,1.4l-0.1,1.4l0.2,1.4l0.2,1.4
					l0.4,1l0.7,0.9h1.1l0.2,0.1l-0.4,0.1l-1.3-0.2l-1.3,0.5h-1.3l-0.6-0.4h0.4l0.2-1l-0.4-1.2l-0.6-1.2l-0.1-1.3l-0.3-1.3v-1.3
					l-0.1-1.3h-0.2l-0.3,1.3l-1,0.9l-0.5,1.1l-0.6,1.1l-0.2,1.3l-0.5,1.2l-0.6,1.1l-0.8,0.7l-0.9-0.6l-0.8-1.3l-0.6-1.4l-0.8-1.3
					l-0.4-1.3l-1-1.1l-0.3-1.4v0.1l-0.5,1.3v1.4l-0.3,1.4l0.1,1.4l-0.1,1.4l-0.3,0.8l0.7,0.7l0.7-0.4l0.1,0.4l-0.2,0.2l-1.9,0.1
					h-1.8l-0.3-0.2l0.3,0.1l0.5-0.5l0.6-1.2l0.3-1.3l0.5-1.2v-1.3l-0.2-1.3l0.3-1.3l0.3-1.3V158l0.5-1.3L88.9,155.4z"/>
				<path d="M109,163.6v0.4l-0.7,1.1l-0.5,1.2l-0.2,1.1l0.8,0.6l0.3-0.1l0.3,0.2l-0.3,0.3h-1l-1-0.2l-1,0.3l-1.1-0.1l-0.4-0.2
					l0.3-0.1l0.5-0.3l0.9-0.5l0.7-0.9l0.6-1.2l0.3-1.3l0.4-1.3l0.6-1.2l0.7-1.2l0.6-1.2l0.2-1.4l0.5-1.2l0.4-1.3l0.6-0.7l0.6,0.5
					l0.5,1.2l0.7,1.1l0.3,1.3l0.6,1.2l0.7,1.1l0.6,1.2l0.3,1.3l0.8,1.1l0.4,1.3l0.6,1.1l1.1,0.6l0.7,0.2l0.3,0.2l-0.8,0.2l-1.2,0.2
					h-1.2l-1.2-0.2l-0.3-0.1v-0.2l0.2-0.5l-0.5-1.2L114,165l-0.4-1.2l-0.2-0.1h-1.4l-1.4,0.3L109,163.6z M112.9,162.8l-0.1-0.2
					l-0.2-1.2l-0.4-1.1l-0.5-1.1l-0.5-1.1L111,158l-0.1,0.1l-0.3,1.2l-0.4,1.1l-0.6,1.1l-0.2,1.2h-0.1l1.2-0.1l1.2,0.1L112.9,162.8z
					"/>
				<path d="M122.6,165.4l0.1,1.1l0.6,1l1-0.2l0.3,0.4l-0.4,0.1h-1.2l-1.2,0.2l-2,0.2l-0.5-0.4l0.4-0.1l0.8-0.4l0.5-0.8l0.3-1.2
					L121,164v-1.3l0.1-1.3V160l-0.2-1.3v-1.3l0.2-1.3l-0.1-1.3l0.2-0.5l0.9,0.4l1,0.9l0.7,1.2l1,0.8l1,0.9l1,0.9l1.1,0.7l0.8,1.2
					l1.2,0.8l0.8,1.2l1.1,1l0.3-0.1l-0.1-1.3l-0.4-1.3l0.2-1.3v-1.3l-0.1-1.3l-0.1-1.3l-0.8-1.5l-1-0.1l-0.4-0.2l0.6-0.3l1.2,0.2
					l1.2-0.2l1.8,0.1l0.5,0.1l-0.4,0.2l-0.5,0.3l-0.6,1.3l-0.2,1.4l-0.1,1.4l0.2,1.4l0.2,1.4v1.4l-0.2,1.4l-0.1,1.4l0.3,1.4
					l-0.4,0.6l-0.8-0.3l-1-1.1l-1.1-1l-1.1-1l-1.2-0.9l-1-1.2l-1-0.8l-1-0.8l-0.9-0.9l-0.7-1.1l-1-0.6v-0.1v1.5l0.3,1.4v1.5l0.1,1.5
					L122.6,165.4z"/>
				<path d="M140,162.9l-0.1,0.1l-0.4,1.3l-0.7,1.1l-0.1,1.1l0.6,0.6l0.3-0.2l0.1,0.2l-0.1,0.1l-1,0.2h-1l-1.1-0.1l-1.1,0.2
					l-0.4-0.3l0.2-0.3l0.6,0.1l0.9-0.7l0.5-1l0.3-1.3l0.8-1.1l0.5-1.2l0.2-1.4l0.6-1.2l0.4-1.3l0.5-1.2l0.6-1.2l0.6-1.2l0.3-0.6
					l0.6,0.4l0.7,1.1l0.3,1.3l0.6,1.2l0.5,1.2l0.8,1.1l0.4,1.3l0.4,1.3l0.6,1.2l0.8,1.1l0.7,1l0.9,0.8l0.7,0.3h0.5l-1,0.3l-1.2-0.2
					l-1.2,0.3h-1.2l-0.5-0.2l0.2-0.1v-0.5l-0.4-1.2l-0.3-1.3l-0.6-1.1l-0.3-0.2l-1.4,0.3l-1.4,0.1L140,162.9z M143.9,161.7
					L143.9,161.7l-0.6-1.1l-0.3-1.2l-0.6-1.1l-0.3-1.2l-0.2-0.1h-0.3l-0.3,1.2l-0.2,1.2l-0.4,1.1l-0.6,1.1h0.1h1.2l1.2-0.1
					L143.9,161.7z"/>
				<path d="M151.4,166.8l-0.6-0.6l0.1-1.2l0.2-1.2l0.1-0.6l0.1,0.4l0.1,1l0.7,1.1l1.2,0.5l1.2-0.2l1.2-0.2l0.8-0.9l0.4-1.1
					l-0.6-1.4l-1.1-1.3L154,161l-1-0.9l-1.2-0.7l-0.6-1.2l-0.2-1.3l0.2-1.3l0.9-1l1-0.9l1.3-0.2l1.3-0.4l1.3,0.1l1.3,0.2l0.4,0.3
					l-0.2,1.1l0.1,1.1l-0.3,0.5L158,156l-0.3-1.3l-1.1-0.6h-1.1l-1.1,0.2l-1,0.5l-0.3,1.1l0.6,1.4l1.4,0.8l0.7,0.5l1.3,0.6l1.1,1
					l0.9,1.1v1.5l-0.2,1.3l-0.4,1.3l-1,0.9l-1.4,0.7l-1.6,0.2l-1.5-0.2L151.4,166.8z"/>
				<path d="M162,165.4l1.3-1.3l1.4,1.2l-0.4,1l-0.9,0.4L162,165.4z"/>
				<path d="M169.2,153.2l0.4-0.6l0.8,0.6l0.6,1.3l0.6,1.2l0.7,1.2l0.4,1.3l0.7,1.2l0.9,1.1l0.4,1.3l0.7,1.1l0.7-1.1l0.4-1.3
					l0.6-1.3l0.4-1.3l0.6-1.3l1-1.1l0.6-1.3l0.4-1.3l0.4-0.8l0.6,0.8v1.4l0.4,1.4l0.5,1.3l-0.2,1.5l0.7,1.3l0.2,1.4v1.4l0.3,1.4
					l0.2,1.1l0.8,0.9l1.1,0.1h0.4l-0.6,0.4l-1.3-0.3l-1.3,0.1l-1.3,0.3l-0.7-0.5l0.4-0.1l0.3-0.9l-0.7-1.2l0.2-1.4l-0.6-1.2l0.1-1.3
					l-0.2-1.3l-0.5-1.2h0.2l-0.8,1l-0.2,1.3l-0.8,1l-0.6,1.1l-0.5,1.1l-0.5,1.2l-0.1,1.3l-0.9,1l-1-0.9l-0.6-1.4l-0.9-1.3l-0.2-1.6
					l-1.1-1l-0.3-1.4l-1-1l0.3-0.1l-0.1,1.4v1.4l-0.3,1.4l0.1,1.4l-0.5,1.4l0.2,0.8l0.4,0.5h0.6l0.6,0.3l-0.7,0.2l-2,0.1l-1.8-0.1
					l-0.4-0.1l0.4,0.1l0.6-0.3l0.5-1.5l0.1-1.3l0.4-1.3v-1.3l0.3-1.3l0.1-1.3l0.4-1.3v-1.3l0.2-1.3L169.2,153.2z"/>
				<path d="M188.1,157.7l-0.1-1.3l0.1-1.3l-0.2-1.2l-0.5-1.1h-0.7l-0.3-0.2h0.5l1.2-0.2l1.2,0.2l1.2-0.4l1.2,0.2h0.6l-0.5,0.2
					l-0.5,0.2l-0.8,0.9l0.2,1.3l-0.2,1.3v1.3l-0.1,1.6l0.1,1.6l0.2,1.3l0.1,1.3v1.3l0.7,0.8h0.9l0.3,0.2l-0.4,0.3L191,166l-1.5-0.1
					l-1.2,0.1l-1.2,0.1l-0.3-0.3l0.2-0.2l0.6-0.2l0.6-0.7l-0.1-1.3l0.2-1.3l-0.1-1.3l-0.1-1.6L188.1,157.7z"/>
				<path d="M195.9,165.5l-0.2-0.6l-0.3-1.2l0.1-1.2l0.2-0.6v0.4l0.4,0.9l0.7,0.9l1,0.6l1.2,0.3l1.2-0.5l0.9-0.8l0.4-1.1l-0.5-1.6
					l-1.4-0.8l-1-0.8l-1.1-0.7l-1.1-0.7l-0.5-1.2l-0.3-1.2l0.4-1.2l0.6-1l0.9-1l1.3-0.3l1.3-0.1l1.3-0.1l1.3,0.1l0.2,0.4l0.1,1.1
					l-0.2,1l-0.1,0.5l-0.2-0.3l-0.4-1.3l-1.1-0.5l-1.1-0.4l-1.1,0.5l-1.1,0.5l-0.1,1.2l0.4,1.4l1.4,0.7l0.7,0.6l1.4,0.5l0.9,1.1
					l0.7,1.2l0.2,1.4l-0.1,1.3l-0.4,1.2l-0.9,1l-1.5,0.6l-1.6,0.1h-1.5L195.9,165.5z"/>
				<path d="M207.2,165.3l-0.3-0.6l0.2-1.2v-1.2l0.1-0.4l0.2,0.2l0.1,1l0.7,1.1l1.1,0.6l1.3,0.1l1.3-0.3l0.8-1l0.4-1.2l-0.7-1.4
					l-1.3-1l-1.1-0.6l-1.1-0.7l-0.9-0.9l-0.7-1.1l-0.1-1.3l0.1-1.3l0.8-1l1-0.8l1.2-0.6l1.3-0.1l1.3,0.1l1.3,0.4h0.4l-0.1,1.1
					l0.1,1.1l-0.3,0.4l-0.2-0.1l-0.6-1.1l-0.9-0.7l-1.1-0.3l-1.1,0.4l-0.9,0.7l-0.5,1l0.6,1.5l1.4,0.7l0.7,0.6l1.2,0.8l1.2,0.8
					l0.6,1.3l0.3,1.4l-0.4,1.3l-0.5,1.1l-0.8,1.1l-1.6,0.5l-1.6,0.1l-1.5,0.1L207.2,165.3z"/>
				<path d="M219,156.8l-0.3-1.3v-1.3l0.1-1.3l-0.6-1l-0.7,0.1l-0.5-0.3h0.6l1.2-0.2l1.2,0.2l1.2-0.4h1.2l0.3,0.3l-0.2,0.4l-0.6-0.2
					l-0.8,1.1l0.3,1.3l-0.3,1.3l0.1,1.3l0.2,1.6l-0.1,1.6l0.2,1.3l-0.2,1.3l0.3,1.3l0.8,0.7l0.9,0.1l0.3,0.3l-0.4,0.2l-1.5-0.2h-1.5
					l-1.2,0.1L218,165l-0.2-0.1l0.2-0.1h0.7l0.6-1v-1.3l-0.2-1.3v-1.3l-0.2-1.6L219,156.8z"/>
				<path d="M225.4,158.2l0.2-1.3l0.3-1.2l0.5-1.1l0.5-1.2l1-0.8l1.1-0.6l1.2-0.3l1.2-0.4l1.3-0.4l1.4,0.1l1.4,0.4l1.3,0.5l1.3,0.6
					l1.1,1l0.4,1.4l0.7,1.2v1.4l0.3,1.4l-0.4,1.3l-0.7,1.1l-0.6,1.2l-1.2,0.7l-1.1,0.6l-1.1,0.8h-1.4l-1.3,0.1l-1.3,0.2l-1.2-0.3
					l-1.3-0.2l-1-0.9l-1.1-0.7l-0.9-0.9l-0.6-1.2l-0.3-1.3L225.4,158.2z M237.9,158.2v-1.4l-0.4-1.3l-0.6-1.2l-1.1-0.9l-1-0.8
					l-1.2-0.5l-1.3-0.3l-1.3,0.4l-1.1,0.8l-0.9,0.9l-0.7,1.1l-0.3,1.3l0.1,1.4l0.2,1.3v1.4l0.9,1.1l0.7,1.2l1.3,0.5l1.2,0.5l1.4,0.3
					l1.2-0.5l1.3-0.4l0.9-1l0.2-1.4l0.6-1.3L237.9,158.2z"/>
				<path d="M245.4,162v1.1l0.7,0.7l0.9,0.1l0.2,0.3l-0.3,0.2l-1.2,0.1l-1.2-0.1l-2,0.2l-0.6-0.2l0.5-0.2l0.8-0.3l0.5-0.8v-1.2v-1.3
					l-0.2-1.3l0.1-1.3l0.2-1.3l-0.4-1.3l0.2-1.3l-0.2-1.3l-0.1-1.3l0.5-0.7l0.9,0.6l0.9,0.9l1,0.9l0.9,1.1l0.9,0.9l1.1,0.8l0.9,1
					l1,1l1.1,0.9l1.1,0.9l0.9,1.1l-0.1-0.1l0.2-1.3l0.1-1.3l-0.1-1.3l-0.1-1.3l-0.4-1.3v-1.3l-0.6-1.6l-1-0.2h-0.2l0.4-0.4h1.2
					l1.2,0.2l1.8-0.1l0.6,0.1l-0.4,0.4l-0.6-0.3l-0.5,1.7l-0.2,1.4l0.4,1.4l0,1.4l-0.2,1.4l0.3,1.4l-0.3,1.4l-0.1,1.4l0.4,1.4
					l-0.4,0.4l-0.6-0.3l-1.3-0.8l-1-1.1l-1.3-0.8l-0.9-1.2l-1.2-0.9l-1-0.7l-0.9-0.9l-0.8-0.9l-0.8-0.9l-0.8-1l-0.4,0.2l0.2,1.5
					l0.1,1.4v1.5l0.1,1.5L245.4,162z"/>
				<path d="M270.4,164.1l-0.5-0.5l0.6-1.2l0.7-1.2l0.5-1.3l0.3-1.4l0.7-1.2l0.5-1.3l0.3-1.4l0.6-1.3l0.6-1.2l0.5-1.3l0.5-1.3
					l0.6-1.4l-1.5,0.4h-1.6l-1.5,0.3l-0.1,0.1l1.3,1.1l0.4,1.7l-0.4,1.2l-0.3,1.2l-0.8,1l-1.2,0.4l-1.2,0.3h-1.5l-1.2-1l-1-1.1
					l-0.1-1.5l0.1-1.3l0.5-1.2l0.8-1.1l1.3-0.4h1.3l1.3-0.5l1.4,0.1l1.3-0.3l1.3-0.2l1.4,0.1l1.3-0.2l0.3,0.1l-0.2,0.6l-0.6,1.2
					l-0.5,1.3l-0.3,1.4l-0.6,1.2l-0.5,1.3l-0.4,1.3l-0.4,1.3l-0.6,1.2l-0.2,1.4l-0.7,1.2l-0.6,1.2l-0.5,1.3l-0.1,0.1L270.4,164.1z
					 M271.3,151.9l-0.3-1.3l-0.5-1.2l-1.1-0.7l-1.2,0.6l-0.3,1.3l-0.3,1.3l0.2,1.4l0.8,1.1l1,0.6l1.2-0.4l0.5-1.2L271.3,151.9z
					 M274.7,159.9l0.1-1.3l0.6-1.2l1-0.8l1.1-0.6l1.2-0.4l1.5,0.4l1.3,0.7l1,1.1l0.2,1.5l-0.2,1.3l-0.4,1.2l-0.8,1l-1.2,0.4
					l-1.2,0.4l-1.4-0.4l-1.3-0.6l-0.7-1.3L274.7,159.9z M280.5,159.7l-0.3-1.3l-0.5-1.2l-1.1-0.8l-1.2,0.6l-0.3,1.3l-0.3,1.3
					l0.2,1.4l0.8,1.1l1,0.6l1.2-0.4l0.5-1.2L280.5,159.7z"/>
				<path d="M284.3,162.7l0-1.3l1.1-0.5l1.1-0.6l1.2-0.4l1.1-0.6l1.2-0.4l1.1-0.8l1.1-0.4l-1.1-0.4l-1.1-0.6l-1.2-0.4l-1.2-0.3
					l-1.1-0.6l-1.2-0.5l-1.3-0.4v-1.5l1.3,0.5l1.3,0.4l1.2,0.5l1.2,0.6l1.3,0.4l1.2,0.6l1.3,0.4l1.2,0.6l0.2,1.5l-1.2,0.6l-1.3,0.4
					l-1.2,0.6l-1.2,0.6l-1.3,0.5l-1.2,0.6l-1.2,0.6L284.3,162.7z"/>
			</g>
		</g>
	</g>
</g>
</svg>
