<svg xmlns="http://www.w3.org/2000/svg" viewBox="0 0 884.23 215.33"><defs><style>*{vector-effect:non-scaling-stroke}.cls-1,.cls-3,.cls-4{fill:none;stroke:#231f20;}.cls-1,.cls-3{stroke-linejoin:round;}.cls-1{stroke-width:0.25px;}.cls-2{fill:#231f20;}.cls-4{stroke-miterlimit:10;}</style></defs><g id="Layer_2" data-name="Layer 2"><g id="Layer_1-2" data-name="Layer 1"><path class="cls-1" d="M833.67,146.26V8.34A7.35,7.35,0,0,0,826.32,1H624.2a7.35,7.35,0,0,0-7.35,7.34V146.26Z"/><path class="cls-1" d="M601.85,154.76c2.36,3.27,7.09,5.51,12.55,5.51H870.54c5.46,0,10.19-2.24,12.55-5.51"/><path class="cls-1" d="M601.71,146.26v8.13c0,.54.85,1,1.89,1H881.35c1,0,1.88-.44,1.88-1v-8.13Z"/><path class="cls-2" d="M826.32,1a7.35,7.35,0,0,1,7.35,7.34V146.26h49.56v8.13a.59.59,0,0,1-.14.37h0c-2.36,3.27-7.09,5.5-12.54,5.5H614.4c-5.45,0-10.18-2.23-12.54-5.5h0a.55.55,0,0,1-.15-.37v-8.13h15.14V8.34A7.35,7.35,0,0,1,624.2,1H826.32m0-1H624.2a8.36,8.36,0,0,0-8.35,8.34V145.26H601.71a1,1,0,0,0-1,1v8.13a1.58,1.58,0,0,0,.34,1l0,0c2.64,3.63,7.74,5.89,13.33,5.89H870.54c5.59,0,10.69-2.25,13.32-5.88l0,0a1.57,1.57,0,0,0,.33-1v-8.13a1,1,0,0,0-1-1H834.67V8.34A8.36,8.36,0,0,0,826.32,0Z"/><path class="cls-1" d="M720.86,146.26v2.43a1.76,1.76,0,0,0,1.76,1.76h39.7a1.76,1.76,0,0,0,1.76-1.76v-2.43Z"/><path class="cls-1" d="M720.86,146.26v2.43a1.76,1.76,0,0,0,1.76,1.76h39.7a1.76,1.76,0,0,0,1.76-1.76v-2.43Z"/><line class="cls-3" x1="616.79" y1="145.86" x2="833.72" y2="145.86"/><path class="cls-2" d="M867.1,151a.47.47,0,0,1-.47.47h-8.81a.46.46,0,0,1-.46-.47h0a.46.46,0,0,1,.46-.46h8.81a.47.47,0,0,1,.47.46Z"/><circle class="cls-3" cx="724.45" cy="7.41" r="0.81"/><path class="cls-1" d="M550.27,146.26V8.34A7.34,7.34,0,0,0,542.93,1H340.8a7.34,7.34,0,0,0-7.34,7.34V146.26Z"/><path class="cls-1" d="M301.25,154.76c2.35,3.27,7.09,5.51,12.54,5.51H569.94c5.45,0,10.18-2.24,12.54-5.51"/><path class="cls-1" d="M301.11,146.26v8.13c0,.54.84,1,1.88,1H580.74c1,0,1.88-.44,1.88-1v-8.13Z"/><path class="cls-1" d="M420.26,146.26v2.43a1.75,1.75,0,0,0,1.75,1.76h39.7a1.76,1.76,0,0,0,1.76-1.76v-2.43Z"/><path class="cls-1" d="M420.26,146.26v2.43a1.75,1.75,0,0,0,1.75,1.76h39.7a1.76,1.76,0,0,0,1.76-1.76v-2.43Z"/><line class="cls-3" x1="334.4" y1="146.26" x2="549.33" y2="146.26"/><path class="cls-2" d="M566.49,151a.47.47,0,0,1-.46.47h-8.81a.47.47,0,0,1-.47-.47h0a.47.47,0,0,1,.47-.46H566a.47.47,0,0,1,.46.46Z"/><path class="cls-3" d="M441.86,7.41a.81.81,0,1,1-.8-.8A.8.8,0,0,1,441.86,7.41Z"/><path class="cls-1" d="M266.88,146.26V8.34A7.35,7.35,0,0,0,259.53,1H57.41a7.35,7.35,0,0,0-7.35,7.34V146.26Z"/><path class="cls-1" d="M.64,154.76C3,158,7.73,160.27,13.19,160.27H269.33c5.46,0,10.19-2.24,12.54-5.51"/><path class="cls-1" d="M.5,146.26v8.13c0,.54.84,1,1.88,1H280.13c1,0,1.89-.44,1.89-1v-8.13Z"/><path class="cls-1" d="M119.65,146.26v2.43a1.76,1.76,0,0,0,1.76,1.76h39.7a1.76,1.76,0,0,0,1.76-1.76v-2.43Z"/><line class="cls-3" x1="51.01" y1="146.26" x2="265.93" y2="146.26"/><path class="cls-2" d="M265.89,151a.47.47,0,0,1-.47.47h-8.81a.47.47,0,0,1-.47-.47h0a.47.47,0,0,1,.47-.46h8.81a.47.47,0,0,1,.47.46Z"/><path class="cls-3" d="M158.47,7.41a.81.81,0,1,1-.81-.8A.81.81,0,0,1,158.47,7.41Z"/><rect class="cls-4" x="144.07" y="186.03" width="28.8" height="28.8"/><rect class="cls-4" x="427.47" y="186.03" width="28.8" height="28.8"/><rect class="cls-4" x="710.86" y="186.03" width="28.8" height="28.8"/><path class="cls-2" d="M180.78,181.57a2.63,2.63,0,0,0-3.62,0c-5.42,4.48-11.07,8.75-16.41,13.34l-1.55-1.32q-3.78-3.2-7.65-6.26a18.15,18.15,0,0,0-4.17-3c-2-.78-3.46,1.43-3.15,3.13.37,2,2.26,4.38,3.59,5.81a2.27,2.27,0,0,0,3.26.2c1.51,1.23,3,2.48,4.52,3.74l1.31,1.11a90.65,90.65,0,0,0-6.83,7c-2.15,2.48,1.47,6.1,3.64,3.6a91.05,91.05,0,0,1,7.06-7.24c1.05.95,2.09,1.9,3.11,2.88s2.21,2.16,3.26,3.3a13.46,13.46,0,0,1,2,2.58c1.72,2.8,6.15.22,4.41-2.59a35.72,35.72,0,0,0-5.84-6.68c-1-1-2.07-2-3.13-2.91,5.27-4.52,10.84-8.73,16.18-13.14A2.57,2.57,0,0,0,180.78,181.57Zm-31.61,4.55c-.16-.36-.12-.63,0,0Zm-3.73,2.94c-.62-.27-.41-.24,0,0Z"/><path class="cls-3" d="M582.62,146.26H550.27V8.34A7.34,7.34,0,0,0,542.93,1H340.8a7.34,7.34,0,0,0-7.34,7.34V146.26H301.11v8.13a.59.59,0,0,0,.14.37h0c2.36,3.27,7.08,5.5,12.53,5.5H569.94c5.44,0,10.17-2.23,12.53-5.5h0a.59.59,0,0,0,.14-.37Z"/><path class="cls-3" d="M266.88,8.34A7.35,7.35,0,0,0,259.53,1H57.41a7.35,7.35,0,0,0-7.35,7.34V146.26H.5v8.13a.59.59,0,0,0,.14.37h0c2.36,3.27,7.09,5.5,12.54,5.5H269.33c5.45,0,10.18-2.23,12.53-5.5h0a.6.6,0,0,0,.15-.37v-8.13H266.88Z"/></g></g></svg>