<?xml version="1.0" encoding="utf-8"?>
<!-- Generator: Adobe Illustrator 25.2.0, SVG Export Plug-In . SVG Version: 6.00 Build 0)  -->
<svg version="1.1" id="Layer_1" xmlns="http://www.w3.org/2000/svg" xmlns:xlink="http://www.w3.org/1999/xlink" x="0px" y="0px"
	 viewBox="0 0 600 600" style="enable-background:new 0 0 600 600;" xml:space="preserve">
<style type="text/css">
	*{vector-effect:non-scaling-stroke}
	.st0{fill:none;stroke:#231F20;stroke-miterlimit:10;}
	.st1{fill:#231F20;}
	.st2{fill:none;stroke:#231F20;stroke-width:0.25;stroke-linejoin:round;}
	.st3{fill:none;stroke:#231F20;stroke-linejoin:round;}
</style>
<g id="Layer_2_1_">
	<g id="Layer_1-2">
		<rect x="133" y="380.2" class="st0" width="29.6" height="29.6"/>
		<path class="st1" d="M170.7,375.5c-1-1-2.7-1-3.7,0c-5.6,4.6-11.4,9-16.9,13.7l-1.6-1.4c-2.6-2.2-5.2-4.3-7.9-6.4
			c-1.3-1.2-2.7-2.3-4.3-3.1c-2.1-0.8-3.6,1.5-3.2,3.2c0.4,2.1,2.3,4.5,3.7,6c0.8,1,2.3,1.1,3.3,0.3c0,0,0,0,0.1-0.1
			c1.6,1.3,3.1,2.5,4.6,3.8l1.3,1.1c-2.5,2.3-4.8,4.7-7,7.2s1.5,6.3,3.7,3.7c2.3-2.6,4.7-5.1,7.2-7.4c1.1,1,2.1,2,3.2,3
			c1,1,2.3,2.2,3.3,3.4c0.8,0.8,1.5,1.7,2.1,2.6c1.8,2.9,6.3,0.2,4.5-2.7c-1.7-2.5-3.7-4.8-6-6.9c-1-1-2.1-2.1-3.2-3
			c5.4-4.6,11.1-9,16.6-13.5C171.7,378.2,171.7,376.7,170.7,375.5z M138.3,380.2C138.1,380,138.1,379.7,138.3,380.2z M134.4,383.2
			C133.8,383,134,383,134.4,383.2z"/>
		<path class="st2" d="M563.5,339.4V197.8c0-4.2-3.4-7.5-7.5-7.5l0,0H348.4c-4.2,0-7.5,3.4-7.5,7.5v141.6H563.5z"/>
		<path class="st2" d="M307.8,348c2.4,3.4,7.3,5.7,12.9,5.7h263c5.6,0,10.5-2.3,12.9-5.7"/>
		<path class="st2" d="M307.7,339.4v8.3c0,0.6,0.9,1,1.9,1h285.2c1,0,1.9-0.5,1.9-1v-8.3H307.7z"/>
		<path class="st2" d="M430,339.4v2.5c0,1,0.8,1.8,1.8,1.8l0,0h40.8c1,0,1.8-0.8,1.8-1.8l0,0v-2.5H430z"/>
		<path class="st2" d="M430,339.4v2.5c0,1,0.8,1.8,1.8,1.8l0,0h40.8c1,0,1.8-0.8,1.8-1.8l0,0v-2.5H430z"/>
		<line class="st3" x1="341.8" y1="339.4" x2="562.5" y2="339.4"/>
		<path class="st1" d="M580.2,344.2c0,0.3-0.2,0.5-0.5,0.5h-9c-0.3,0-0.5-0.2-0.5-0.5l0,0c0-0.3,0.2-0.5,0.5-0.5h9
			C579.9,343.8,580.1,344,580.2,344.2L580.2,344.2z"/>
		<rect x="437.4" y="380.2" class="st0" width="29.6" height="29.6"/>
		<path class="st3" d="M596.7,339.4h-33.2V197.8c0-4.2-3.4-7.5-7.5-7.5l0,0H348.4c-4.2,0-7.5,3.4-7.5,7.5v141.6h-33.2v8.3
			c0,0.1,0.1,0.3,0.1,0.4l0,0c2.4,3.4,7.3,5.6,12.9,5.6h263c5.6,0,10.4-2.3,12.9-5.6l0,0c0.1-0.1,0.1-0.2,0.1-0.4L596.7,339.4z"/>
		<path class="st2" d="M259.1,339.4V197.8c0-4.2-3.4-7.5-7.5-7.5l0,0H44c-4.2,0-7.5,3.4-7.5,7.5v141.6H259.1z"/>
		<path class="st2" d="M3.4,348c2.4,3.4,7.3,5.7,12.9,5.7h263c5.6,0,10.5-2.3,12.9-5.7"/>
		<path class="st2" d="M3.3,339.4v8.3c0,0.6,0.9,1,1.9,1h285.2c1,0,1.9-0.5,1.9-1v-8.3H3.3z"/>
		<path class="st2" d="M125.6,339.4v2.5c0,1,0.8,1.8,1.8,1.8l0,0h40.8c1,0,1.8-0.8,1.8-1.8l0,0v-2.5H125.6z"/>
		<path class="st2" d="M125.6,339.4v2.5c0,1,0.8,1.8,1.8,1.8l0,0h40.8c1,0,1.8-0.8,1.8-1.8l0,0v-2.5H125.6z"/>
		<line class="st3" x1="37.5" y1="339.4" x2="258.2" y2="339.4"/>
		<path class="st1" d="M275.8,344.2c0,0.3-0.2,0.5-0.5,0.5h-9c-0.3,0-0.5-0.2-0.5-0.5l0,0c0-0.3,0.2-0.5,0.5-0.5h9
			C275.5,343.8,275.7,344,275.8,344.2L275.8,344.2z"/>
		<path class="st3" d="M292.3,339.4h-33.2V197.8c0-4.2-3.4-7.5-7.5-7.5l0,0H44c-4.2,0-7.5,3.4-7.5,7.5v141.6H3.3v8.3
			c0,0.1,0.1,0.3,0.1,0.4l0,0c2.4,3.4,7.3,5.6,12.9,5.6h263c5.6,0,10.4-2.3,12.9-5.6l0,0c0.1-0.1,0.1-0.2,0.1-0.4V339.4z"/>
	</g>
</g>
</svg>
