<?xml version="1.0" encoding="utf-8"?>
<!-- Generator: Adobe Illustrator 25.2.0, SVG Export Plug-In . SVG Version: 6.00 Build 0)  -->
<svg version="1.1" id="Layer_1" xmlns="http://www.w3.org/2000/svg" xmlns:xlink="http://www.w3.org/1999/xlink" x="0px" y="0px"
	 viewBox="0 0 600 600" style="enable-background:new 0 0 600 600;" xml:space="preserve">
<style type="text/css">
	*{vector-effect:non-scaling-stroke}
	.st0{fill:none;stroke:#000000;stroke-width:0.5;stroke-miterlimit:5;}
	.st1{fill:#FFFFFF;stroke:#000000;stroke-width:0.5;stroke-miterlimit:5;}
	.st2{fill:#FFFFFF;stroke:#000000;stroke-width:1.5;stroke-miterlimit:5;}
	.st3{fill:none;stroke:#000000;stroke-width:1.5;stroke-miterlimit:5;}
	.st4{fill:#FFFFFF;stroke:#000000;stroke-width:0.5;stroke-miterlimit:5.0003;}
	.st5{fill:none;stroke:#000000;stroke-width:1.5;stroke-miterlimit:5.0003;}
	.st6{fill:#FFFFFF;stroke:#000000;stroke-width:0.5;stroke-miterlimit:5.0006;}
</style>
<line class="st0" x1="125.4" y1="378.4" x2="0.1" y2="528.5"/>
<line class="st0" x1="147.5" y1="352" x2="136" y2="365.8"/>
<polyline class="st1" points="600,528.5 600,528.5 452.6,351.8 "/>
<g id="Layer_2_1_">
	<g id="Layer_2-2">
		<polyline class="st1" points="141.4,0 171.3,323.4 428.9,323.4 458.8,0 		"/>
		<path class="st2" d="M447.6,406.9c-7.8-4.7-16.6-7.4-25.7-8c-8-0.4-17.5,3.4-21.2,9.9s-7.1,12.4-2.3,17.3s11.5,2.8,22,5.7
			s22.8,7.4,29.5,3.1"/>
		<path class="st3" d="M161.7,300.7L121.1,344c-0.8,0.7-0.8,1.3-0.7,3.2s0.9,4.5,7.4,4.5c5.3,0.1,45.3,0.5,50.2,0.5
			s11.2-1.8,12.8-4.5s2.8-5.4,5.2-9.4c7.1-11.8,33.3-18.7,54.1-19.3c11.5-0.4,38.3-0.6,43.5-0.6s7.8-1.8,7.9-3.2s-0.3-14-0.4-15.3
			s-2.6-1.9-5.8-1.9s-114.2,0-121.7-0.2C166,297.7,163.8,299.1,161.7,300.7z"/>
		<path class="st1" d="M127.6,348.9c5.3,0.1,45.3,0.5,50.2,0.6s11.2-1.8,12.8-4.4s2.8-5.3,5.2-9.3c7.1-11.7,33.3-18.7,54.1-19.2
			c11.5-0.4,38.3-0.5,43.5-0.6s8-1.8,8.1-3.2c0-0.6,0-2.9,0-5.6c-0.1-3.2-0.2-6.3-0.2-7c-0.1-1.3-2.6-1.9-5.8-1.9
			s-114.2,0-121.7-0.2s-9.9,1.1-12,2.8l-40.6,43.3c-0.4,0.4-0.6,0.8-0.7,1.4C120.4,347.2,122.4,348.8,127.6,348.9z"/>
		<path class="st3" d="M136.7,351.9c-1.7,2.1-3,4.4-4,6.9c-0.4,0.7-1,1.3-1.8,1.5c0.2,2.7,0.5,6,0.7,9.6l0.1,0.1
			c2-0.4,4.2-1.8,4.6-6.3c0.4-4.5,1.3-9.3,3.3-11.7H136.7z"/>
		<path class="st1" d="M138.5,351.9h-1.7c-1.7,2.1-3,4.4-4,6.9c-0.4,0.7-1,1.3-1.8,1.5c0,0.5,0.1,0.8,0.1,1.3h0.2
			c1.2,0,2.2-0.7,2.8-2.4C135.2,356.6,136.6,354.1,138.5,351.9z"/>
		<path class="st1" d="M137.6,351.9c-1.7,2.1-3.1,4.5-4.1,7.1c-0.8,1.8-1.7,2-2.3,2h-0.3l0.1,0.6h0.2c1.2,0,2.2-0.7,2.8-2.4
			c1.1-2.7,2.6-5.1,4.4-7.4L137.6,351.9L137.6,351.9z"/>
		<path class="st3" d="M122.9,354.7l6.3,58c0.2,2.1,6.3,1.8,6.2-0.8c-0.2-2.1-4.6-55.1-4.8-57.8"/>
		<path class="st3" d="M130.4,353c-0.1-0.8-1.8-1.4-4-1.2c-2.1,0.2-3.9,0.9-3.8,1.8c0,0.2,0.1,0.8,0.1,0.9c0.1,0.8,1.8,1.4,4,1.2
			c2.1-0.2,3.9-0.9,3.8-1.8C130.5,353.8,130.4,353.2,130.4,353z"/>
		
			<ellipse transform="matrix(0.9973 -7.375511e-02 7.375511e-02 0.9973 -25.7128 10.2947)" class="st4" cx="126.5" cy="353.3" rx="3.9" ry="1.5"/>
		<path class="st3" d="M441.2,300.7l40.6,43.3c0.8,0.7,0.8,1.3,0.7,3.2s-0.9,4.5-7.4,4.5c-5.3,0.1-45.3,0.5-50.2,0.5
			s-11.2-1.8-12.8-4.5s-2.8-5.4-5.2-9.4c-7.1-11.8-33.3-18.7-54.1-19.3c-11.5-0.4-38.3-0.6-43.5-0.6s-7.8-1.8-7.9-3.2
			s0.3-14,0.4-15.3s2.5-1.9,5.8-1.9s114.2,0,121.7-0.2S439.2,299.1,441.2,300.7z"/>
		<path class="st1" d="M475.4,348.9c-5.3,0.1-45.3,0.5-50.2,0.6s-11.2-1.8-12.8-4.4s-2.8-5.3-5.2-9.3c-7.1-11.7-33.3-18.7-54.1-19.2
			c-11.5-0.4-38.3-0.5-43.5-0.6s-8-1.8-8.1-3.2c0-0.6,0-2.9,0-5.6c0.1-3.2,0.2-6.3,0.2-7c0.1-1.3,2.5-1.9,5.8-1.9s114.2,0,121.7-0.2
			s9.9,1.1,11.9,2.8l40.6,43.3c0.4,0.4,0.6,0.8,0.7,1.4C482.6,347.2,480.6,348.8,475.4,348.9z"/>
		<path class="st3" d="M466.3,351.9c1.7,2.1,3,4.4,4,6.9c0.4,0.7,1,1.3,1.8,1.5c-0.2,2.7-0.5,6-0.7,9.6l-0.2,0.1
			c-2-0.4-4.2-1.8-4.6-6.3s-1.3-9.3-3.3-11.7H466.3z"/>
		<path class="st1" d="M464.6,351.9h1.7c1.7,2.1,3,4.4,4,6.9c0.4,0.7,1,1.3,1.8,1.5c0,0.5-0.1,0.8-0.1,1.3h-0.2
			c-1.2,0-2.2-0.7-2.8-2.4C467.9,356.6,466.4,354.1,464.6,351.9L464.6,351.9z"/>
		<path class="st1" d="M465.3,351.9c1.7,2.1,3.1,4.5,4.1,7.1c0.8,1.8,1.7,2,2.3,2c0.1,0,0.2,0,0.3,0v0.6h-0.2
			c-1.2,0-2.2-0.7-2.8-2.4c-1.1-2.7-2.6-5.1-4.4-7.3L465.3,351.9z"/>
		<path class="st2" d="M480.2,354.7l-6.3,58c-0.2,2.1-6.3,1.8-6.2-0.8c0.2-2.1,4.6-55.1,4.8-57.8"/>
		<path class="st1" d="M472.6,353c0.1-0.8,1.8-1.4,4-1.2s3.9,0.9,3.8,1.8c0,0.2-0.1,0.8-0.1,0.9c-0.1,0.8-1.8,1.4-4,1.2
			s-3.9-0.9-3.8-1.8C472.5,353.8,472.6,353.2,472.6,353z"/>
		
			<ellipse transform="matrix(7.375515e-02 -0.9973 0.9973 7.375515e-02 88.8895 802.4127)" class="st5" cx="476.4" cy="353.4" rx="1.5" ry="3.9"/>
		<path class="st1" d="M431.3,302.6l-1.4,24.7c0,1,2.8,1.9,5.6,1.9s4.6-0.8,4.7-1.8s0.4-24.4,0.4-24.4l-0.4-0.1c0,0-0.6-2.8-4.1-2.9
			s-4.5,2.5-4.5,2.5L431.3,302.6z"/>
		<path class="st1" d="M435.5,329.3c-1.8,0.1-3.6-0.4-5.1-1.3v0.1c0,0.9,2.7,1.8,5.1,1.8s4.2-0.7,4.3-1.7l0,0
			C438.6,329,437,329.4,435.5,329.3z"/>
		<path class="st1" d="M440.6,304.1v-0.4c-2.7,1.1-7.1,0.6-9.4-0.5v0.4C433.5,304.7,437.9,305.1,440.6,304.1z"/>
		<path class="st1" d="M440.6,303.7v-0.4c-2.7,1.1-7.1,0.6-9.4-0.5v0.4C433.5,304.3,437.9,304.8,440.6,303.7z"/>
		<path class="st1" d="M440.6,303L440.6,303l-0.4-0.1l0,0c-2.8,0.7-5.9,0.6-8.7-0.4l-0.3,0.1l0,0C433.6,303.7,437.9,304.1,440.6,303
			z"/>
		<path class="st1" d="M436.2,300c-1.1-0.1-2.1,0.2-3,0.7l0,0c0.5,0.7,2.1,1.7,4.6,1.7c1.5,0,1.9-0.5,1.9-1
			C438.7,300.5,437.5,299.9,436.2,300z"/>
		<path class="st1" d="M440.6,303.7l-1,0.3c-0.5,0.1-0.7,0.3-0.7,0.8c-0.1,2.9,0.4,14.7,0.5,16.4c0,0.5,0.4,0.7,1,0.6
			C440.5,315.6,440.6,306.2,440.6,303.7z"/>
		<path class="st1" d="M440.3,321.7c0,0,2.5-2.3,2.8-8.9s-2.6-8.8-2.6-8.8l-0.7,0.2c-0.4,0.1-0.6,0.4-0.6,0.8v1.3
			c0,0.2,0.1,0.5,0.2,0.6c1.4,1.7,2,3.8,1.8,6c-0.1,3-0.9,5.9-1.7,6.5c-0.1,0.2-0.2,0.5-0.1,0.6l0.1,1.3c0,0.2,0.2,0.4,0.4,0.4
			L440.3,321.7z"/>
		<path class="st1" d="M439.2,305v1.3c0,0.2,0.1,0.5,0.2,0.6c1.4,1.7,2,3.8,1.8,6c-0.1,3-0.9,5.9-1.7,6.5c-0.1,0.2-0.2,0.5-0.1,0.6
			l0.1,1.3c0,0.2,0.2,0.4,0.4,0.4c1.1-1.6,1.8-3.4,2.3-7.1c0.6-4.1-0.1-7.4-2.4-10.5C439.5,304.2,439.2,304.6,439.2,305z"/>
		<path class="st1" d="M442.1,309.8c-0.3-2-1.1-4-2.4-5.6c-0.3,0.1-0.6,0.4-0.6,0.6c1.3,1.5,2.1,3.2,2.6,5.1
			C442.1,310.9,442.3,310.9,442.1,309.8z"/>
		<path class="st1" d="M438.9,299.8c0-0.5-1.2-0.9-2.8-0.9s-2.8,0.2-2.8,0.6l-0.1,1.1c0,0.5,1.2,0.9,2.8,0.9s2.8-0.2,2.8-0.6
			L438.9,299.8z"/>
		<path class="st2" d="M438.9,299.8c0-0.5-1.2-0.9-2.8-0.9s-2.8,0.2-2.8,0.6v0.7c0.8,0.5,1.8,0.7,2.8,0.7c0.9,0.2,1.9,0.1,2.8-0.2
			V299.8z"/>
		<path class="st1" d="M439.4,299.1c0-0.6-1.4-1-3.2-1.1s-3.3,0.3-3.3,0.7v0.6c0,0.6,1.4,1,3.2,1.1s3.3-0.3,3.3-0.7V299.1z"/>
		<path class="st1" d="M439.2,299.1c0,0.5-1.4,0.8-3.1,0.7s-3-0.6-3-1s1.4-0.8,3.1-0.7S439.2,298.5,439.2,299.1z"/>
		<path class="st1" d="M430.4,332.1c0,2.1-1.7,3.9-3.9,3.9s-3.9-1.7-3.9-3.9c0-1,0.4-1.9,1.1-2.7c0.8-0.6,1.7-0.9,2.8-0.8
			c1.1-0.1,2.1,0.3,2.9,0.9C430,330.1,430.4,331.1,430.4,332.1z"/>
		<path class="st1" d="M429.4,329.5c-0.8-0.6-1.8-1-2.9-0.9c-1-0.1-1.9,0.3-2.8,0.8c-0.1,0.1-0.1,0.1-0.2,0.2
			c-0.1,0.4-0.2,0.8-0.2,1.2c-0.6,1.8,0.3,4,2.2,4.6c1.8,0.6,4-0.3,4.6-2.2c0.2-0.4,0.2-0.8,0.2-1.2
			C430.4,331.1,430,330.2,429.4,329.5z"/>
		<path class="st1" d="M428.9,329.1c0.1,0.1,0.2,0.2,0.2,0.4c0,0.6-1.2,1-2.7,1c-0.8,0-1.7-0.1-2.4-0.6c0.7,0.5,1.7,0.7,2.5,0.6
			c1.5,0,2.7-0.5,2.7-1C429.2,329.3,429.1,329.2,428.9,329.1z"/>
		<ellipse class="st1" cx="426.5" cy="329.4" rx="2.2" ry="0.7"/>
		<path class="st1" d="M424.6,329.8c0.6,0.3,1.3,0.4,1.9,0.4s1.3-0.1,1.9-0.4c-0.6-0.3-1.3-0.4-1.9-0.4S425.1,329.5,424.6,329.8z"/>
		<path class="st1" d="M426.2,330.1c-0.6-1.4-2.9-6.7-3-7s-0.2-0.2-0.3-0.2h-0.4c-0.2,0-0.2,0.1-0.1,0.3c0.1,0.2,2.8,6.7,2.9,6.8
			C425.6,330,425.9,330.1,426.2,330.1z"/>
		<path class="st1" d="M425.8,330.1c-1-2.4-2.8-6.6-2.9-6.8s-0.1-0.3-0.2-0.3h-0.1c0,0,0,0.2,0.1,0.4s1.9,4.4,2.8,6.6L425.8,330.1z"
			/>
		<path class="st2" d="M208,295.6l17.3,11.9c0,1.7-1,13.6,0,19.5s2.8,22.2,5.7,27.5c1.2,2.2-2.4,9.3-0.3,13c1.4,5.4-0.2,11.9,0,13.2
			c0.4,2.3,5.7,11.4,6.2,14.1s13.4,15.3,13.4,15.3s7.6,3.2,11,4c1.2,3.6,2.4,6.8,3.5,7.3c1.7,0.7,1.7,9.1,1.7,10.8s1.7,8.7,2.8,9.7
			s4.9,2.1,4.9,2.1s7.4-3.9,9.7-4.5s9.4-4.1,12.2-4.9s7-2.8,9.4-2.8c2.4-0.2,4.7-0.6,7-1l1.4,8.2c0,0,6.6,2.8,7.6,2.8
			c1,0,12.1,2.5,13.5,2.5s13,0.8,17.1,1.8c2.8,0.6,5.8,1,8.7,1c0,0,2.5-10.1,2.5-11.5v-16.4c0,0,5.9-4.5,7.4-6.2
			c0.7-1.2,1.3-2.6,1.5-4c1.8-1.9,4.8-5.1,4.8-5.9c0-1.1,0.7-13.4,0.7-17.6s0.4-23,0.4-24.2c0-0.5-0.1-1.8-0.1-3.4
			c0.5-2.1,0.9-3.9,1.2-4.5c0.7-1.7,3.9-15.3,4.5-18.1c0.6-2.8,0-8.7,1-11.9s4.1-12.5,4.1-12.5l8.4-14.2"/>
		<path class="st1" d="M306.6,335.6c0.4,1.7,1.7,6.8,1.7,6.8s3.4-2.4,3,2.7c-0.2,2.8-0.5,5.4-1,8.1c0,1.3,0.4,2.6,1,3.7
			c1,1.4,1-8.1,1-8.1l-1.4-10.5l0.6-7.1"/>
		<path class="st2" d="M264.9,157.9l-4.1,1c-1.9,0.5-15.7,5.2-17.2,5.7s-10,1.5-13.3,2.8c-3.3,1.4-10.9,3.8-12.9,7.2
			s-6.7,10-8.1,11.9s-4.8,10.5-6.2,14.8s-4.8,18.6-5.2,21.5s-5.2,23.8-5.7,25.7s-1.9,11.5-2.8,16.2s-5.2,9.6-6.2,12.4
			s-1.9,17.6-0.9,19.1s10.9,15.7,12.4,16.7c1.5,1,4.3,2.8,7.2,2.8s5.7,0.5,7.6,0c0.3-0.1,11.9-7.2,12.2-7.3l0.6,13l1.3,8.8l-0.9,5.7
			l3.3,6.1c0,0,8.4-1.1,9.9-2.2c1.1-0.7,2.4-1.2,3.7-1.3l-5.4-8.9c0,0-3.5-7.7-3.9-9.6s-1.1-12.3-1.1-13.4s-2.2-10.8-2.2-10.8
			s3.8-6.2,4.3-7.6s1.5-5.2,1.5-5.2l-0.5-4.4l-2.7-7.2c0,0-4.2-10.5-5.2-11.4s-4.6-4-4.6-4s6.2-6.2,7.5-7.2s13.5-10.5,13.5-10.5
			s7.8-6.9,9.8-8.5s10.5-5.2,13.4-4.6s7.5,4.2,9.2,5.9s8.7,4,11.7,5.4c4.6,2.4,13.5,17.7,13.5,17.7c2.5,1.2,5.7,10.2,5.3,12.7
			s-3.3,10.2-3.7,12.7c-0.4,2.5-3.3,13.1-2.8,16s2.4,25.7,2.8,28.6c0.1,0.5,0.1,0.9,0,1.4l2.5,6.1l0.4,3v10.6l0.4,9.5
			c0,0,2.8,1,3,3.4s1,6.4,2,8.5s2.8,5.1,2.8,5.1l2.4-1.4c0.2-2.8,0.2-5.6,0-8.5c-0.4-2.7,0.6-6.8,0.6-10.1s0.6-5.7-0.4-8.5
			s-0.6-5.7-0.6-8.1c0.3-2.6,0.8-5.1,1.5-7.6l-0.3,0.3l1-2.8c0,0,1.3-1.3,1.3-2.3s1.8-31.4,1.8-32.3s1.3-23.5,2.6-25.8
			c1.3-2.3,4.6-10.5,5.2-11.4s1.9-9.2,3.6-10.8c1.7-1.6,7.8-7.8,8.8-8.2s8.4-5.2,10.7-5.6c3.8-0.4,7.6-0.4,11.5,0
			c1.9,0.4,20.9,11.5,20.9,11.5s3.3,8.2,4.2,10.8s4.2,17,4.2,19.6s0,10.1-1.3,15.1s-2.6,12.8-2.3,15.1c0.1,1.2,0.1,2.5,0,3.7
			c0.8,2.8,1.5,5.7,1.9,7.9l-1.5,4.3l0.5,1c0,0,4.6,1.7,6.2,1.7c2.8-0.1,5.7-0.5,8.5-1c1-0.4,12.4-10.1,12.4-10.1s2.9-4,4-5.5
			s4-6.9,4.2-7.8c0.5-2.1,0.6-4.3,0.6-6.5c0-2-0.2-4-0.6-5.9c-0.4-1.3-0.4-5.5-1.3-6.5s-3.6-4-3.6-4l0.6-6.2l-2.9-1.9
			c0,0-1.3-7.2-1.3-8.2c0-1-1-7.2-1-8.5s-1-12-1-12c-1.7-2.1-2.8-4.6-3.2-7.2c-0.6-4-1.7-10.8-2.3-13.4s-3.3-7.9-4.2-11.8
			s-2.3-11.8-2.3-11.8s-2.9-4.2-4-5.2c-2-2-4.3-3.7-6.9-4.9c-2.9-1.3-13.7-6.2-14.7-6.9s-2.9-2.9-7.2-5.2s-9.8-4.2-14.7-6.2
			c-0.6-0.3-1.4-0.6-1.9-0.8"/>
		<path class="st2" d="M213.1,255.2c0.5-0.8,4.9-2.8,6.2-4.2c1.3-1.6,2.5-3.2,3.4-5.1c0.5-0.8,3.8-9.2,4.4-10.7s1.1-4.5,2-5.5
			s3.4-1.8,4.7-2.2s7.5-2.9,8.9-3.6s4-2,5.1-1.6c1.3,0.8,2.8,1.5,4.2,2c1.6,0.6,2.9,1.5,4.2,2.5l0.3,0.8l4.4,0.5
			c0,0,0.9,1.8-0.2,3.1s-3.9,2-4.4,2.2c-1.7,0.2-3.6,0.1-5.3-0.2c-0.6-0.3-2.5-1.1-2.5-1.1l-1.5-1.4l-0.6,1.7
			c-0.6,0.4-1.1,0.6-1.7,0.8c-0.8,0.2-3.1,0.8-3.1,0.8l-0.6,1.3l2.2,1.4c0,0,5.8-0.2,6.5,0s5.1,0.2,6,0.2c0.8,0,11.4-0.6,11.4-0.6
			s3.6-0.5,4-0.6s3.5,1.1,3.5,1.1l3.9,1.7l2.8,2.4l1.3,4.5l-1.1,1.6c0,0-2,0.2-2.5,0.2s-6-1.4-6.4-1.4s-3.6-0.3-3.6-0.3l-6.5,1.1
			l-4.9,0.5c0.8,0.5,4.9,0.2,6.2,0.2s4.9-0.6,5.3-0.6h2.8c1.3,0.2,2.7,0.5,3.9,0.8c0.5,0.2,6.5,0.9,6.5,0.9s1.6,0.9,1.8,1.7
			s1.7,2.9,1.7,3.8s-2,3.3-2,3.3l-2.8,0.5c0,0-3.1-0.9-3.6-0.9h-5.3c-0.9,0-6.5-0.2-7.4,0.2s-6,1.3-6,1.3s1.8,0.2,2.3,0.2
			s6.2,0.2,7.2,0.2s4.7-0.2,5.5-0.2c0.9,0.1,1.9,0.2,2.8,0.5c1,0.2,1.9,0.3,2.9,0.3c1.3,0.4,2.7,0.7,4,1.3c0,0,1.1,2.5,0.6,3.1
			s-1.8,2.7-2.5,2.9c-1,0.3-2.1,0.5-3.1,0.5h-1.1c-1.7-0.1-3.5,0-5.1,0.2c-0.8,0.2-1.7,0.3-2.7,0.2c-0.5,0-0.9-0.1-1.4-0.2
			c-0.6-0.2-4.5-0.2-5.1-0.2s-3.8,0.2-4.2,0.2c-1.1,0.3-2.1,0.6-3.1,1.1c0,0,2.3-0.3,3.1-0.5s4.7-0.2,5.6-0.2s7.4,0.8,7.4,0.8
			l1.8-0.6c0,0,5.3-1.1,5.5,1.3c0.2,2.4-2.7,5.3-2.7,5.3s-3.8,0.5-4.5,0.6c-0.7,0.2-6.7,0.9-7.8,0.9s-5.6-0.3-6.5-0.2
			s-6,1.4-6.9,1.7s-11.1,3.1-12.2,3.1s-8.3,0.2-8.3,0.2s-4,6.2-4.4,6.4s-3.8,3.9-3.8,3.9s-4.2-4.5-4.7-5.3s-2.8-3.6-3.6-5.1
			s-2.9-5.5-2.4-7.8c0.6-2.2,1-4.3,1.3-6.5C212.8,265.6,211.2,258.6,213.1,255.2z"/>
		<path class="st1" d="M276.9,258.6c-0.8-0.3-1.7-0.4-2.6-0.5c0.3,0.5,0.6,0.9,0.7,1.4c0.2,0.6,0.2,4.4,0.2,4.9
			c0,0.4-0.2,0.7-0.3,1.1c0.4,0.1,0.7,0.2,1.1,0.2c0.6,0-0.2,0.9,0.6,0c0.6-0.6,1.1-1.3,1.6-2c0.6-0.8,1-1.7,1.3-2.7
			c0-0.4-0.1-1.5-0.1-2C278.5,258.8,277.7,258.7,276.9,258.6z"/>
		<path class="st2" d="M404.7,261.1c0,0-2.7-4.4-3.5-4.9c-1.7-1.1-3.2-2.3-4.7-3.6c-0.6-0.8-4.2-9.2-4.9-10.4
			c-0.6-1.2-4.1-6.2-4.2-7.1c-0.3-1.9-1.7-3.4-3.6-3.8c-2.7-0.5-6.9-3.5-6.9-3.5s-3.7-1.4-4.1-1.7c-1-0.5-1.9-0.8-3-1.1
			c0,0-2.8,0.9-3.5,1.1s-3.1,0.5-3.1,0.5l-0.9,0.5l-4.7,0.4l-0.2,2.4c0,0,1.4,1.3,2,1.7s2.8,0.8,3.5,1.3s4.6,1.3,4.6,1.3l3.5-0.9
			c0,0,0.5,1.9,0.9,2c0.8,0.5,1.6,0.9,2.4,1.5l1.9,1.1l0.9,1.9v0.8c-0.8,0.3-1.7,0.4-2.6,0.4c-1.1-0.2-11.5,0.5-11.5,0.5l-6.4-0.3
			c0,0-6.4,0-6.9,0.5s-4,1.3-4.6,1.4s-4.4,1.3-5.2,1.6s-2.8,2.2-2.2,4s4.2,2,4.9,2.4c1.2,0.3,2.4,0.4,3.6,0.3
			c1.5-0.3,2.8-0.6,4.2-1.1c0,0,3.5-0.5,4-0.6s5.7-0.2,6.2-0.2s8.1,0.3,8.1,0.3s2.4,0.2,1.9,0.8c-0.5,0.6-3.6,0.5-4.7,0.6
			c-1.1,0.2-10.8,0-11.7,0s-4.2,0.6-5.2,0.8c-1,0.2-5.2,0.8-6.3,0.8c-1.7,0.1-3.3,0.5-4.9,1.1c-0.8,0.5-3.5,2.6-2.6,4.2
			s2.4,3.3,3.7,3.3s3.5-0.6,5.1-0.6s6.2-0.5,7.4-0.5s6.4-0.2,7.3-0.2h6.4c1.3,0.1,2.7,0.3,4,0.5c-0.7,0.6-1.7,0.9-2.7,0.9
			c-1.7,0-5.2-0.2-6.6-0.2s-7.1-0.2-7.9-0.2s-5.9,0.5-6.4,0.5s-5.3-0.2-7.4,0.9s-1.4,6.2,1.6,6.8s7.7-0.8,8.4-0.8s6.2,0.3,7.1,0.3
			h11.7c0.6,0,4.6,0.9,4.6,0.9c-0.6,0.4-1.4,0.6-2,0.9c-1.3,0.5-4.7,0.3-6,0.2s-8.8-0.2-9.6-0.2h-5.8c-0.6,0-2.6,0.2-2.7,1.1
			s-0.8,2.8,0.5,3.8s4.6,1.7,6,2c2.6,0.6,5.2,1,7.9,1.3c1.6,0,5.7-0.3,6.9-0.5c2.1-0.1,4.3,0,6.4,0.3c0.9,0.3,3.1,1.7,4.2,1.7
			s5.5,2.8,8.1,3.1c1.6,0.2,3,0.2,4.6,0c0,0-0.6,7.3,0.6,9.5s5.1,3.3,6.3,3c1.3-0.3,5.5-3.6,5.9-4.7s1.9-7.1,2.4-9.6
			c0.6-3.3,1-6.7,1.3-10.1C405.8,269.3,405.8,263.5,404.7,261.1z"/>
		<path class="st1" d="M346.4,250.8H346C346.1,250.8,346.3,250.8,346.4,250.8z"/>
		<path class="st1" d="M381.3,268.5c-0.1-0.2-0.2-0.4-0.3-0.6v0.1L381.3,268.5z"/>
		<path class="st2" d="M273.2,444.1l-0.6,6.5c0,0-1.3,5.3-1.6,6.2s-3.1,6.9-3.8,7.8s-2.5,8.2-2.5,9.1v5.6l-0.9,3.5
			c0,0,0,5.3,0.6,6.2c0.6,0.9,3.8,11.3,3.8,11.3l3.8,3.8c0,0,8.5,4,9.6,4.4s7.5,1.3,9.6,0.6s7.2-0.6,8.2-0.6s6-2.8,7.5-3.8
			s5.3-5.3,5.3-5.3c0.6-1.5,1.1-3,1.3-4.7c0-1.8,0.6-7.2,0.6-8.5s-1.8-10.9-1.8-10.9l-0.9-6c0,0,0.9-6.2,0.6-7.2s-2.8-8.2-2.8-8.2
			v-6c0,0,2.5-8.5,2.5-9.6c0-1.2-0.8-7.3-0.8-7.3"/>
		<path class="st1" d="M283.9,451.7c0,0,4.1-1.8,4.5-1.9c0.4-0.1,3-0.6,3.4-0.6c1-0.1,2.1,0,3.1,0.1c0.7,0.2,1.3,0.6,2,0.8
			c0.9,0.4,1.7,0.8,2.6,1.4l1.4-0.6l1,0.2c0.4,0.5,0.6,0.9,0.8,1.4c0,0.6-0.2,1.1-0.5,1.5c-0.4,0.5-0.7,0.8-1.2,1.1
			c-0.6,0.3-1.1,0.4-1.7,0.5l-1.1-0.5l-0.8-1.7l0.7,0.8c0.3,0.1,0.5,0.1,0.7,0.1h0.7c0,0,0.3-0.8,0-0.8c-0.8-0.5-1.6-1-2.3-1.6
			c0,0-2.1-0.8-2.6-0.9c-1.4-0.2-2.8-0.2-4.1-0.2c-1.2,0.2-2.4,0.6-3.6,0.9c-0.4,0.2-1.1,0.6-1.8,1c-0.7,0.4-1.5,0.6-2.2,0.8
			C282.6,453.8,281.9,452.2,283.9,451.7z"/>
		<path class="st1" d="M284.3,443.1c0.8-0.6,1.7-1,2.7-1.5c0.7-0.3,1.6-0.5,2.3-0.6c1.2-0.2,2.5-0.2,3.7,0c1.1,0.6,2.2,1.2,3.2,1.9
			c0.5,0.3,1.9,1,2.4,1.3c0.5,0.3,1.4,0.7,1.4,0.7l-0.9,0.5c0,0-0.7,0.2-0.3,0.5c0.5,0.3,0.9,0.6,1.4,0.6c0.3,0,0.6,0,0.9-0.1
			s0.9-0.9,0.9-0.9l0.3-0.9c0.1-0.6,0-1.1-0.3-1.6c-0.4-0.5-0.9-0.8-1.4-1.1c-0.4-0.2-0.8-0.3-1.2-0.4c0,0-2.1-0.7-2.4-0.9
			c-0.8-0.4-1.7-0.7-2.5-1c-0.9-0.3-1.7-0.5-2.7-0.6c-1-0.1-2,0-2.9,0.2c-0.6,0.3-3,0.9-3.7,1.3c-0.6,0.4-2.5,1.4-2.5,1.4
			s-0.7,0.3-0.3,0.7c0.4,0.4,0.8,0.6,1.4,0.6h0.5V443.1z"/>
		<path class="st1" d="M288.1,442.9c0.3-0.1,0.6,2.7,0.8,3.2c0.1,0.6,0.2,1.4,0.2,2c0,0-0.6,1.5-0.8,0.8S286.3,443.3,288.1,442.9z"
			/>
		<path class="st1" d="M289.1,442.9c0,0,1.6-0.1,1.9-0.1s0.7-0.3,1.4,0c0.5,0.2,0.8,0.5,1.1,0.8c0.2,0.2,0.6-0.6,0.6-0.6
			s0.6-0.5,0.8-0.3s0.5,0.8,0.5,1.2s0.6,1.9,0.6,2.7v2.5l-0.7-0.3c-0.3-0.5-0.5-0.9-0.6-1.4c-0.1-0.5-0.5-1.8-0.5-2
			s-0.2-0.3-0.4-0.2c-0.1,0-0.2,0.1-0.2,0.2c-0.1,0.3-0.6,1.9-0.7,2.2c-0.3,0.5-0.7,0.7-1.2,0.9c-0.5,0.1-0.9,0.1-1.4,0.1
			c0,0-1-2-1-2.2C289.2,446.3,288.5,443.3,289.1,442.9z"/>
		<path class="st1" d="M289.4,452.4c0,0,2.8-1.4,3.8-0.9s2.4,0.9,2.8,1.7s-0.3,3.2,0,4c0.3,1,0.6,2,1.2,2.9c0.5,0.6,0.6,1.5,0.4,2.3
			c-0.2,0.5-1.2,0.4-2.8,0.6s-3.6,0.3-4.4,0.7s-6.9,1.3-7.4,1.2s-0.1-1.7-0.1-1.7c1-0.6,1.9-1.3,2.8-2c0.8-0.8,3.2-6.2,3.5-6.8
			C289.3,453.6,289.4,453.1,289.4,452.4z"/>
		<path class="st1" d="M268.2,491.7c0,0,5.2,5,6,5.5s2.8,1.5,4.8,2.4s5.5,2.1,7.4,2.1s6.9,0.7,8.4,0.7s10-1.9,10.8-2.8
			s2.7-3.4,2.7-3.4l3.6-6.2l-0.3,5.1l-5.5,7.4c0,0-8.4,3.1-10.2,3.1h-12.4c-0.9,0-6.2-2.4-7.4-3.1
			C274.7,501.7,269.4,494.1,268.2,491.7z"/>
		<path class="st2" d="M319.6,441.1c0,0,0.1,7.8,0.6,9.1c0.6,1.3,1.6,7.6,1.6,7.6s-2.7,7.1-2.8,7.8c-0.8,3.1-1.4,6.2-1.8,9.5
			c0,1.6,0.3,7.6,0.3,7.6s-1,6.2-1,7.4s-1.8,5.2-1,7.1s1.8,6.2,2.1,7.1s1.8,6.5,2.7,8.1c1.1,1.7,2.8,3,4.7,3.7
			c1.8,0.6,6.1,0.8,7.1,1.3s6.5,1,8.4,1s9.9-0.8,9.9-0.8l4.7-3.1l3.7-4l4-8.1c0,0,3.1-6.5,2.7-18.4s-2.4-15.4-2.7-16.3
			s-2.1-3.4-2.7-5s-1.8-6.5-2.1-7.6s-1.3-2.8-1.3-4.5s-0.3-3.7-0.3-3.7"/>
		<path class="st1" d="M343,447.4c-0.4,0.8-0.7,1.7-0.9,2.7c-0.3,0.9-0.6,1.7-1.1,2.5l1.8-0.3c0.1-0.8,0.2-1.6,0.3-2.3
			c0.2-0.5,1.4-2.8,1.4-2.8L343,447.4z"/>
		<path class="st1" d="M339.9,451.3l-0.6-2.9c0,0-1.4-1.3-1.8-1.3c-1.1,0.4-2.2,0.7-3.2,1.3v4.7l1.3-0.6l0.2-2.5l0.9,2.3h1.7
			L339.9,451.3z"/>
		<path class="st1" d="M335.4,458.5c-0.1,0.7-0.1,1.5,0,2.2c0,0.6-2.2,2.5-2.2,2.5v2.2h4.5c1.3-0.2,2.6-0.3,3.9-0.3
			c0.5,0.2,0.9-0.2,0.9-0.9s-1.4-3.9-1.4-4.4c-0.2-0.8-0.4-1.6-0.6-2.3C340.5,457.4,336.3,456.5,335.4,458.5z"/>
		<path class="st1" d="M317.6,492.4c-0.2,0.9-0.6,2.9,0.2,3.8s1.7,3.6,2.7,4.8s0.9,2,1.8,2.9c0.7,0.9,1.7,1.6,2.8,2
			c1.3,0.5,2,0.9,3.4,1.4c1.8,0.6,3.7,1.1,5.6,1.4c1.6,0.3,3.2,0.4,4.8,0.3c1.4-0.2,2.9-0.3,4.5-0.6s5.4-1.7,5.9-1.8
			s2.7-1.7,3.3-1.8s2.7-2.5,3.4-3.4s1.7-2.3,2.7-3.3c0.7-0.8,1.4-1.7,1.8-2.7c0.6-1.3,0.9-2.7,1.3-4c0,0-2.9,8.9-4.2,10.4
			c-1.3,1.7-2.7,3.4-4.2,5c-2.6,2-5.3,3.7-8.3,5c-3.6,0.6-7.2,0.8-10.8,0.7c-1.6-0.1-3-0.4-4.5-0.9c-1.1-0.5-3.4-1.8-4.3-2.3
			s-4.7-5.9-4.7-5.9l-3.1-5l-1.1-2.9L317.6,492.4z"/>
		<line class="st0" x1="312.5" y1="430.7" x2="313.9" y2="438.8"/>
		<path class="st3" d="M313.9,438.8c0,0,6.6,2.8,7.6,2.8s12.1,2.5,13.5,2.5s13,0.8,17.1,1.8c2.8,0.6,5.8,1,8.7,1"/>
		<path class="st2" d="M274.2,443.9c0,0,7.4-3.9,9.7-4.5s9.4-4.1,12.2-4.9s7-2.8,9.4-2.8c2.4-0.2,4.7-0.6,7-1"/>
		<path class="st3" d="M277.3,187.8c0,0,1.1,20.4,4.6,24.3s12.6,11.7,13.1,12.4s6.1,8.8,11.2,9.4s7.8-0.2,11-3.6s8.5-10.1,9.9-11.2
			c1.4-1.1,7.1-5.9,8-9.2s2.5-8.8,2.8-9.9s1.6-13.1,1.6-13.1"/>
		<path class="st3" d="M300,221.7c0.5,0.9,2.7,5.6,4.6,7.4s6.2,1.9,7.3,1.7s2.6-4.8,4.4-6.5c1.8-1.7,1.9-5.1,0.7-5.5"/>
		<path class="st3" d="M284.8,188.2c0.6,2.1,2.3,6.9,1.4,7.5c-0.9,0.6,1,0.1,1,0.1l0.7-2.5l0.2-1.9v4.2l-0.7,3l2.1-0.7
			c0.3-0.5,0.6-1,0.7-1.6c0.2-0.6,0.9-2.1,0.9-2.1l1.1-0.4l0.9,3.2v4.2l2.5-0.6l1.9-0.7l2.1-1.9c0,0,0.6-0.9,0.7-0.4
			c0.3,0.9,0.5,1.9,0.6,2.8c0.2,0.9,0.5,1.8,0.7,2.7c0.2-1,0.4-2,0.4-3v-2.1c0,0,4.2,2.8,4.4,3.4c0.1,0.6,0.1,1.3,0,1.9l1.9,1.1
			l-0.9,2.3l1.6-0.7l0.7-2.8c-0.4-0.6-0.7-1.3-1.1-1.9c-0.6-0.7-2.1-2.3-2.1-2.3l4.2,1.7c0,0,3,1.7,4,1.7c1.2-0.2,2.4-0.6,3.4-1.1
			c0.8-0.4,1.5-0.9,1.9-1.7c0,0-4.6,0.4-5.1,0.4s-0.9,0.4-1.4-0.4c-0.3-0.6-0.6-1.4-0.7-2.1l0.2-1.1l3.8,0.9l3-0.2
			c0.6-0.2,1.2-0.6,1.7-0.9c0.6-0.6,5-1.4,5-1.4l0.7,0.2l-1.9-1.9l-1.1-0.7l5.1-1.7c0.6-0.6,0.9-1.1,1.4-1.7
			c0.4-0.7,0.2-1.1,0.9-1.9s0.7-1.1,2.3-1.6c1.5-0.6,2.9-1.4,4.2-2.3c0.4,0.8,0.6,1.7,0.7,2.7c0,0.9-0.7,1.9-0.7,2.7
			c-0.3,1.7-0.6,3.3-1,5l1.6,1.1c0,0,0.7-4.2,1.4-4.6c0.8-0.5,1.6-1.1,2.1-1.9c0.9-1.3,2.8-3.6,2.8-3.6l0.6-3v-2.7l1.1-3.6l0.7-1.6
			c0.4-0.7-0.2-5.9-0.2-5.9s2.1-2.1,0.6-4.4c-1.6-2.3,1.1-2.7,1.6-1.7s0.8,4.5,1.4,3.4c0.4-0.7,0-4,0.2-5.7c0.2-1.3-0.1-2.7-0.7-3.8
			c-0.5-0.9-0.7-2-0.7-3c0,0,0.4-1.9,0.9-2.1s0.9-2.1,0.9-2.1v-1.7c-0.4,0.3-0.8,0.4-1.4,0.4c-0.7-0.2-1.4-0.5-1.9-0.9
			c0,0-0.7-3-0.9-4c-0.4-1.4-0.9-2.8-1.7-4c-0.6-0.7-1.6-4.2-2.5-6.7c-0.9-2.5-1.6-3.8-3.4-5c-1.8-1.2-4.8-1.6-6.3-3.2
			c-1.6-1.7-3-3-4.6-4.6s-4.4-2.3-6.1-2.7s-5.1-0.7-5.1-0.7l-3.8,0.4l-0.2-1.7l4.2-1.6h-4.4c-0.9-0.1-1.9-0.1-2.8,0
			c-0.6,0.2-3.8,0.9-3.8,0.9s-1.7,0.9-2.5,1.6c-0.5,0.4-0.9,0.9-1.1,1.6c0,0-2.1,0.9-3.6,0c-1.1-0.7-2.5-1.2-3.8-1.1
			c-1.1,0-4.8-0.4-5.7,0s-2.3,0-3.8,1.1s-3,1.4-4.2,2.8c-1.2,1.5-1.7,1.9-2.1,2.5c-0.8,0.8-1.7,1.3-2.8,1.6
			c-1.4,0.4-4.6-4.2-4.6-4.2l0.9,4.2l3,1.7l-2.6,1.9c0,0-2.8,1.7-3.6,3c-1.1,1.7-1.9,3.5-2.5,5.3c-0.6,2.3-1.7,4-2.8,6.5
			c-1,2-2.2,4-3.4,5.9l-1.6,1.3l3.2,0.2l1.4,3c0,0-1.1,2.3-0.2,3.6s0.4,2.1,1.4,3s0,6.3,0,6.3l1.4,2.5c0,0,0.4,0.4,1.4,1.1
			c1.1,1.1,1.9,2.4,2.5,3.8c0,0.6-0.4,6.1-0.2,7.1c0.2,1.2,0.6,2.4,1.1,3.4c0.7,1.3,1.5,2.5,2.3,3.6c0.9,1.1,2.3,5.3,2.3,5.3
			l1.6-1.6l2.7-1.7L284.8,188.2z"/>
		<path class="st2" d="M395.6,457c-0.5-0.2-1-0.1-1.6,0.1c-0.6,0.4-2.2,1.6-2.2,1.6l0.4,0.6c0,0-0.5,3.9,2.3,4.6
			c1.9,0.6,4-0.4,4.7-2.2C399.5,460.2,399.1,457.4,395.6,457z"/>
		<path class="st1" d="M392.6,458.9c1-0.5,2.8-0.3,3.9,2.8S391.2,459.4,392.6,458.9z"/>
		<path class="st2" d="M417.5,479.6l-3.1,1.1c-0.7,1.8-0.6,3.9,0.4,5.5c1.7,2.9,2.8,1.1,2.8,1.1l1.1-0.3c0.2,0.3,0.6,0.5,0.9,0.4
			C420.6,487.5,423.3,483.6,417.5,479.6z"/>
		<path class="st1" d="M414.9,481.3c-0.5,0.5,0.8,4,1.9,4.6s1-1.6,0.8-2.8S416.5,479.5,414.9,481.3z"/>
		<path class="st2" d="M458,477.7c0,0-1.9,0.6-2,1c-0.1,0.4-0.2,0.6-0.2,1c-0.1,1.8,0.6,3.7,1.8,5c2.1,2,4.7,0.2,5.1-1.6
			S462.6,478.2,458,477.7z"/>
		<path class="st1" d="M457.8,479.5c0.9,0.9,1.5,4.5,0.4,3.8s-2.3-3.2-1.8-4S457.5,479.3,457.8,479.5z"/>
		<path class="st2" d="M434.4,460.9l-0.1,1.7c-1.4,0.7-3.1,0.6-4.3-0.5v-2.4L434.4,460.9z"/>
		<path class="st2" d="M424.8,444.3c0,0,0,2.3-0.6,2.8c-0.3,0.3-0.7,0.4-1.1,0.3l-0.6,0.4c0,0-0.3,1.5-1.4,1.4s-2.8-0.8-3.1-3.9
			s3.6-2.9,3.6-2.9C422.1,442,424.8,442.7,424.8,444.3z"/>
		<path class="st1" d="M419.5,443.7c0.8,0.5,2.8,2.4,2.3,2.8s-2.8-0.6-3-2.2C418.5,443.8,418.9,443.4,419.5,443.7z"/>
		<path class="st2" d="M457,453.3c-0.7,0.3-1.4,0.6-2.1,0.9c-0.5,0.3-0.9,2.3,0.7,4.4s3.3,1.2,3.8,0.6l0.6-0.2
			c0.3,0.1,0.6,0.2,0.8,0.1c0.4-0.1,1.5-1.5,1-3.8S459,452.4,457,453.3z"/>
		<path class="st1" d="M457.4,454.5c0.7,1,1.2,2.2,1.2,3.4c-0.1,0.9-1.6-0.4-2.1-1.5S456.2,453.4,457.4,454.5z"/>
		<path class="st2" d="M428.3,451.5c-0.6,0.4-11.3-0.2-17.8,0.2c-6.5,0.4-12.5,1.1-14,2.4c-1.5,1.3-1.9,3.7-1.1,4.6s3.8,1.1,4.5-0.2
			c0.6-1.5,2.1-2.4,3.7-2.4c7.9-0.6,15.9,0,23.6,2c-4,5.3-8.1,12-9.6,17.5s-1.8,7.2,1.5,8.1s2.9-3.3,3.3-6.5s4.7-12.3,8.6-16.4
			c2.6,0.5,3.1,0.3,4.6-0.2c5.4,1.9,16.9,9.5,20.7,13.8c1.5,1.7,1.2,2.9,1.7,4.8s6.9,3.1,6.4-0.1s-3.6-6.1-6.4-8.8
			s-12.5-10.3-18.4-14.2c6.5-2.8,12.7-3.8,17.1-2.8c1.8,2.3,2.8,2.6,4.5,2.4s2.4-1.8,0.8-3.7s-3-2.4-6.4-2.4
			c-6.7,0.2-13.3,0.9-19.9,2.1c-3.3-4.3-7.1-8.3-11.2-11.9c-1.2-1-3-0.9-4.1,0.3c-0.5,0.5-0.6,1.1-0.7,1.7c0.2,1.7,2,2.8,4.2,2.4
			C425.7,445.6,427.3,447.4,428.3,451.5z"/>
		<path class="st1" d="M439,456.7c-3.8-2.1-1.1-2.8,1.6-3.7c3.7-1.2,7.4-1.9,11.3-2.2c3.5-0.3,1.3-0.7-3.9-0.8
			c-4.2,0.4-8.4,0.9-12.5,1.7c-3-3.9-6.3-7.4-9.9-10.8c-0.4,0.4-0.4,1.5,0.7,3.5c2.2,4.1,4,8.3,1.4,8.5s-15.5-0.7-16.7,0.4
			s21.1-0.1,18.7,3.1c-1,1.4-9.4,15-10.3,19.7s-0.5,6.2,0.7,6.2s1.1-6.3,3.2-10.8s7.3-13.5,9.4-14.1s4.9,0.9,9.8,4
			c5,3,14,10.8,15,10.6S442.8,458.9,439,456.7z"/>
		<path class="st2" d="M436.2,443.7l-0.2-1.2l-0.4-0.5l0.1-3.6c-1.8-0.9-3.8-1.7-5.7-2.4l0.1,6l-0.4,0.5l-0.2,1.2l0.5,0.4l-0.8,0.4
			v6.4l0.6,0.5l-0.1,1.1l-0.3,0.3v1.8c0,0,0.5,1.5,3.5,1.5s3.5-1.5,3.5-1.5v-1.8l-0.3-0.3l-0.1-1.1l0.6-0.5v-6.4l-0.8-0.4
			L436.2,443.7z"/>
		<path class="st2" d="M398.3,426.1c-0.3,1.9,0.9,3.7,2.8,4.2c3.6,1,7.2,1.7,10.8,2.4l0.7-0.7l3,0.7c-1.9,4.1-4,4.5-6.5,5.6
			s-1.2,4.2,1.3,3.2s6.1-4,6.8-7.1l0.2,4.3l1,2l6.7,1.3l1.6-1.1l-0.2-2.1l1.7-1.9l-0.7-1.7c3.9,1.2,7.6,2.8,11.1,4.9
			c2.8,1.8,5.7,2.6,7.4,2.4c4-0.3,2.9-3.4,2.9-3.4h0.7c0,0,0.5,2.4,0.8,3.7s1.6,1.6,4.4,1.7s7.6-0.2,9.2-1.6s2.6-5.8,2.6-11.6
			s0-19,0.2-23.4s-2.1-6.9-4.7-7.6c0,0,3.8-15.1,5-17.8s5-4.9,6.3-7.6s2.7-8,2.3-10.5s-1.7-3.8-3.5-2.8s-7.7,21.5-13.3,30.7
			c-5.6,9.2-10.8,18.7-9.9,32.8l0.7,9.7L398.3,426.1z"/>
		<path class="st2" d="M417.2,429.6c0,0-4-15.2-4.6-17.1c-0.6-2.5-3-4.1-6.6-4.7c-3.9-0.6-5.7-1.5-5.7-3.3s1.7-2.5,4.8-2.6
			c3.8-0.1,19.5,1.8,26.7,5.5s4.5,6.2-0.3,5.1s-8-1.5-8.5-0.9c-1.1,1,1.1,18.3,1.1,19.1S417.8,431.2,417.2,429.6z"/>
		<path class="st1" d="M431.8,407.6c-7.2-3.7-22.9-5.6-26.7-5.5c-2.2,0.1-3.8,0.5-4.4,1.4c-0.5,1.1,0.5,2.8,6.2,3.5
			c8.5,1.2,16.8,2.8,25.2,4.8c2.5,0.6,3.6,0,3.8-1C435.3,409.8,434.1,408.8,431.8,407.6z"/>
		<path class="st1" d="M431.9,411.2c2.3,0.6,3.5,0.1,3.8-0.8c-1.1-1.2-2.4-2.1-3.9-2.8c-7.2-3.7-22.9-5.6-26.7-5.5
			c-2.2,0.1-3.8,0.5-4.4,1.4c-0.1,0.3-0.1,0.5-0.1,0.7c0.6,0.9,2.2,1.7,6.2,2.2C415.2,407.6,423.6,409.2,431.9,411.2z"/>
		<path class="st1" d="M417.2,412.6c1.1,0.5,1.2,1.4-0.1,0.6s-1.7-0.1-1.7-0.4S416.4,412.4,417.2,412.6z"/>
		<path class="st1" d="M423.5,431.2l0.4,2c0,0-1.4,0.6-1.8,0.8c-1.3,0.2-2.7-0.3-3.6-1.2c-0.5-1.1-0.8-2.1-1.1-3.3L423.5,431.2z"/>
		<path class="st1" d="M423.5,431.2l-2.7-0.7c0.2,0.7,0.6,2.4,0.7,2.8s0.4,0.6,0.8,0.5c0.5-0.2,1-0.4,1.5-0.6L423.5,431.2z"/>
		<path class="st1" d="M461.6,403.7c-0.5,2.1-1.1,4.1-1.9,6.1c-0.6,1.5-0.6,3.8-0.6,6s-0.3,22-0.3,22c2.4-1.3,3.3-2.2,3.3-6
			s0.6-17.5,0.6-18.9s-0.4-1.7-1.6-2.2s-0.7-1.3-0.2-1.3s2.4,0.2,2.7-1.2S463.9,403.8,461.6,403.7z"/>
		
			<ellipse transform="matrix(0.3654 -0.9309 0.9309 0.3654 -90.6504 690.6407)" class="st6" cx="461.2" cy="411.8" rx="0.8" ry="1.3"/>
		<path class="st1" d="M399.3,454c-0.2-0.3-1-0.3-1.3,0.5s0.5,1.3,1.3,0.8s1.8-1,4.8-1.3s18.2,0,22.4,0.7s2.5-0.4,0-0.5
			s-15.6-0.5-18.7-0.5s-6.2-0.4-7.1,0S399.6,454.5,399.3,454z"/>
		<path class="st1" d="M458.7,472.7c1.1,0.2,0.9,2.1,1.3,2.8s1.4,1.2,1.1,1.9s-2.2,0.4-2-0.9s0.3-1.6-0.6-2.2
			S457.9,472.6,458.7,472.7z"/>
		<path class="st1" d="M432.8,457.3c-1.2-0.4,2.8-0.4,3.7,0.4s-0.6,0.7-1.3,0.2C434.4,457.6,433.6,457.4,432.8,457.3z"/>
		<path class="st1" d="M418.2,477.8c0.7-0.4,0.9,0.9,0.9,1.3s1,0.2,1.2,0.8c0.5,1.7-2.3,2.1-2.8,0.6
			C416.9,479.5,417.2,478.3,418.2,477.8z"/>
		<path class="st2" d="M420.8,382c6.5,1.7,7.3,2.3,8.6,8.5c0.8,4,1.8,8.4,2.1,9.9c2.1,0.6,4.2,1.2,6.3,2c-0.2-2.8-0.6-11.5-0.7-13.5
			c-0.1-2.4,0.3-2.8,1.7-2.4s7.6,1.8,9.2,1.7c1.6-0.2,3-2-0.3-3.9c-5-2.5-10.1-4.5-15.4-6.1c-4.7-1.2-10.3-1.9-12.2-0.8
			S416.8,380.9,420.8,382z"/>
		<path class="st1" d="M448,387.5c1.2-0.3,1.7-0.8,1.5-1.8c-0.5-0.6-1-1.1-1.7-1.4c-5-2.5-10.1-4.5-15.4-6.1
			c-4.7-1.2-10.3-1.9-12.2-0.8c-0.2,0.1-0.4,0.2-0.5,0.4c-0.4,0.3-1.5,1.8-0.7,2.3c2,1.5,8.7,2.2,11.7,2.8
			C435.4,384,446.3,387.8,448,387.5z"/>
		<path class="st1" d="M436.4,444.4l-0.8-0.4l0.4-0.3c-2,0.9-4.4,0.9-6.4,0l0.4,0.3l-0.8,0.4C431.4,445.7,434.2,445.7,436.4,444.4z"
			/>
		<path class="st1" d="M429.6,452.4l-0.3,0.3l0,0c2.1,1.4,4.9,1.4,7.1,0l0,0l-0.3-0.3l-0.1-1.1l0.6-0.5c-2.2,1.5-5.1,1.5-7.4,0
			l0.6,0.5L429.6,452.4z"/>
		<path class="st3" d="M449,425.2c-4.2-5.5-3.3-14.1-0.7-20.1s11.2-18,13-23.2"/>
		<path class="st2" d="M455.6,392.8c-1.1-10,9-28.9,13.9-30.9s5.2,3.4,3.9,7.1s-3.7,8.5-8.5,10.8s-1.2,7.7-7.2,14.8"/>
		<path class="st3" d="M333.7,200.9c0,0-4.9,5.9-7.3,8.1s-7.4,2.8-9.9,2.8s-5.4-0.6-6.9-0.6c-2.8-0.1-5.4,0.1-8.2,0.4
			c-1.7,0.4-12.5,0.5-15.4-3.3c-1.6-2-2.9-4.3-4-6.7"/>
		<path class="st2" d="M227,295.7c-3.5,7.8-1.3,8.1-5.4,12.8"/>
		<path class="st2" d="M310.7,371.8c1.9,6.5,2.3,17.6,2.3,17.6l-2.3,9.4l1.1,9.6l0.7,22.2"/>
	</g>
</g>
<polyline class="st2" points="401.2,256.3 408.4,258.1 410.9,262 413.6,267.9 "/>
<polyline class="st2" points="213.1,255.2 208,256.3 202.9,258.1 199.6,262 "/>
</svg>
