<?xml version="1.0" encoding="utf-8"?>
<!-- Generator: Adobe Illustrator 25.0.0, SVG Export Plug-In . SVG Version: 6.00 Build 0)  -->
<svg version="1.1" id="Layer_1" xmlns="http://www.w3.org/2000/svg" xmlns:xlink="http://www.w3.org/1999/xlink" x="0px" y="0px"
	 viewBox="0 0 653.1 575.2" style="enable-background:new 0 0 653.1 575.2;" xml:space="preserve">
<style type="text/css">
	*{vector-effect:non-scaling-stroke}
	.st0{fill:none;stroke:#000000;stroke-width:0.5;stroke-miterlimit:5;}
	.st1{fill:#FFFFFF;stroke:#000000;stroke-width:0.5;stroke-miterlimit:5;}
	.st2{fill:#FFFFFF;stroke:#000000;stroke-width:1.5;stroke-miterlimit:5;}
	.st3{fill:none;stroke:#000000;stroke-width:1.5;stroke-miterlimit:5;}
	.st4{fill:#FFFFFF;stroke:#000000;stroke-width:0.5;stroke-miterlimit:5.0001;}
	.st5{fill:none;stroke:#000000;stroke-width:1.5;stroke-miterlimit:5.0001;}
	.st6{fill:#FFFFFF;stroke:#000000;stroke-width:0.5;stroke-miterlimit:5.0002;}
</style>
<line class="st0" x1="136.5" y1="411.8" x2="0.1" y2="575.2"/>
<line class="st0" x1="160.5" y1="383.1" x2="148" y2="398.1"/>
<polyline class="st1" points="653,575.2 653,575.2 492.6,382.9 "/>
<g id="Layer_2_1_">
	<g id="Layer_2-2">
		<polyline class="st1" points="153.9,0 186.4,352 466.8,352 499.3,0 		"/>
		<path class="st2" d="M487.1,442.8c-8.5-5.1-18.1-8.1-28-8.7c-8.7-0.4-19,3.7-23.1,10.8s-7.7,13.5-2.5,18.8s12.5,3.1,23.9,6.2
			s24.8,8.1,32.1,3.4"/>
		<path class="st3" d="M176,327.3l-44.2,47.1c-0.9,0.8-0.9,1.4-0.8,3.5s1,4.9,8.1,4.9c5.8,0.1,49.3,0.5,54.6,0.5s12.2-2,13.9-4.9
			s3.1-5.9,5.7-10.2c7.7-12.8,36.2-20.4,58.9-21c12.5-0.4,41.7-0.6,47.3-0.6s8.5-2,8.6-3.5s-0.3-15.2-0.4-16.6s-2.8-2.1-6.3-2.1
			s-124.3,0-132.5-0.2S178.3,325.5,176,327.3z"/>
		<path class="st1" d="M138.9,379.7c5.8,0.1,49.3,0.5,54.6,0.6s12.2-2,13.9-4.8s3.1-5.8,5.7-10.1c7.7-12.7,36.2-20.3,58.9-20.9
			c12.5-0.4,41.7-0.5,47.3-0.6s8.7-2,8.8-3.5c0-0.6,0-3.2,0-6.1c-0.1-3.5-0.2-6.9-0.2-7.6c-0.1-1.4-2.8-2.1-6.3-2.1
			s-124.3,0-132.5-0.2s-10.8,1.2-13.1,3l-44.2,47.1c-0.4,0.4-0.7,0.9-0.8,1.5C131,377.9,133.2,379.6,138.9,379.7z"/>
		<path class="st3" d="M148.8,383c-1.8,2.3-3.3,4.8-4.3,7.5c-0.4,0.8-1.1,1.4-2,1.6c0.2,2.9,0.5,6.5,0.8,10.4l0.1,0.1
			c2.2-0.4,4.6-2,5-6.9s1.4-10.1,3.6-12.7H148.8z"/>
		<path class="st1" d="M150.7,383h-1.9c-1.8,2.3-3.3,4.8-4.3,7.5c-0.4,0.8-1.1,1.4-2,1.6c0,0.5,0.1,0.9,0.1,1.4h0.2
			c1.3,0,2.4-0.8,3.1-2.6C147.1,388.1,148.7,385.4,150.7,383z"/>
		<path class="st1" d="M149.8,383c-1.9,2.3-3.4,4.9-4.5,7.7c-0.9,2-1.8,2.2-2.5,2.2h-0.3l0.1,0.7h0.2c1.3,0,2.4-0.8,3.1-2.6
			c1.2-2.9,2.8-5.6,4.8-8L149.8,383L149.8,383z"/>
		<path class="st3" d="M133.7,386l6.9,63.1c0.2,2.3,6.9,2,6.7-0.9c-0.2-2.3-5-60-5.2-62.9"/>
		<path class="st3" d="M141.9,384.2c-0.1-0.9-2-1.5-4.3-1.3s-4.2,1-4.1,2c0,0.2,0.1,0.9,0.1,1c0.1,0.9,2,1.5,4.3,1.3s4.2-1,4.1-2
			C142,385.1,141.9,384.4,141.9,384.2z"/>
		
			<ellipse transform="matrix(0.9973 -7.375862e-02 7.375862e-02 0.9973 -27.9858 11.204)" class="st4" cx="137.7" cy="384.5" rx="4.2" ry="1.6"/>
		<path class="st3" d="M480.2,327.3l44.2,47.1c0.9,0.8,0.9,1.4,0.8,3.5s-1,4.9-8.1,4.9c-5.8,0.1-49.3,0.5-54.6,0.5s-12.2-2-13.9-4.9
			s-3.1-5.9-5.7-10.2c-7.7-12.8-36.2-20.4-58.9-21c-12.5-0.4-41.7-0.6-47.3-0.6s-8.5-2-8.6-3.5s0.3-15.2,0.4-16.6s2.7-2.1,6.3-2.1
			s124.3,0,132.5-0.2S478,325.5,480.2,327.3z"/>
		<path class="st1" d="M517.4,379.7c-5.8,0.1-49.3,0.5-54.6,0.6s-12.2-2-13.9-4.8s-3.1-5.8-5.7-10.1c-7.7-12.7-36.2-20.3-58.9-20.9
			c-12.5-0.4-41.7-0.5-47.3-0.6s-8.7-2-8.8-3.5c0-0.6,0-3.2,0-6.1c0.1-3.5,0.2-6.9,0.2-7.6c0.1-1.4,2.7-2.1,6.3-2.1
			s124.3,0,132.5-0.2s10.8,1.2,13,3l44.2,47.1c0.4,0.4,0.7,0.9,0.8,1.5C525.2,377.9,523.1,379.6,517.4,379.7z"/>
		<path class="st3" d="M507.5,383c1.8,2.3,3.3,4.8,4.3,7.5c0.4,0.8,1.1,1.4,2,1.6c-0.2,2.9-0.5,6.5-0.8,10.4l-0.2,0.1
			c-2.2-0.4-4.6-2-5-6.9s-1.4-10.1-3.6-12.7H507.5z"/>
		<path class="st1" d="M505.6,383h1.9c1.8,2.3,3.3,4.8,4.3,7.5c0.4,0.8,1.1,1.4,2,1.6c0,0.5-0.1,0.9-0.1,1.4h-0.2
			c-1.3,0-2.4-0.8-3.1-2.6C509.2,388.1,507.6,385.4,505.6,383L505.6,383z"/>
		<path class="st1" d="M506.4,383c1.9,2.3,3.4,4.9,4.5,7.7c0.9,2,1.8,2.2,2.5,2.2c0.1,0,0.2,0,0.3,0v0.7h-0.2
			c-1.3,0-2.4-0.8-3.1-2.6c-1.2-2.9-2.8-5.6-4.8-7.9L506.4,383z"/>
		<path class="st2" d="M522.6,386l-6.9,63.1c-0.2,2.3-6.9,2-6.7-0.9c0.2-2.3,5-60,5.2-62.9"/>
		<path class="st1" d="M514.3,384.2c0.1-0.9,2-1.5,4.3-1.3s4.2,1,4.1,2c0,0.2-0.1,0.9-0.1,1c-0.1,0.9-2,1.5-4.3,1.3s-4.2-1-4.1-2
			C514.2,385.1,514.3,384.4,514.3,384.2z"/>
		
			<ellipse transform="matrix(7.375866e-02 -0.9973 0.9973 7.375866e-02 96.835 873.2863)" class="st5" cx="518.5" cy="384.5" rx="1.6" ry="4.2"/>
		<path class="st2" d="M469.4,329.3l-1.5,26.9c0,1.1,3.1,2.1,6.1,2.1s5-0.9,5.1-2s0.4-26.6,0.4-26.6l-0.4-0.1c0,0-0.6-3-4.5-3.2
			s-4.9,2.7-4.9,2.7L469.4,329.3z"/>
		<path class="st2" d="M474,358.4c-2,0.1-3.9-0.4-5.6-1.4v0.1c0,1,2.9,2,5.6,2s4.6-0.8,4.7-1.8l0,0
			C477.3,358.1,475.6,358.5,474,358.4z"/>
		<path class="st1" d="M479.5,331v-0.4c-2.9,1.2-7.7,0.6-10.2-0.5v0.4C471.8,331.6,476.6,332.1,479.5,331z"/>
		<path class="st1" d="M479.5,330.5v-0.4c-2.9,1.2-7.7,0.6-10.2-0.5v0.4C471.8,331.2,476.6,331.7,479.5,330.5z"/>
		<path class="st1" d="M479.5,329.8L479.5,329.8l-0.4-0.1l0,0c-3.1,0.8-6.4,0.7-9.5-0.4l-0.3,0.1l0,0
			C471.9,330.5,476.6,331,479.5,329.8z"/>
		<path class="st1" d="M474.7,326.5c-1.2-0.1-2.3,0.2-3.3,0.8l0,0c0.5,0.8,2.3,1.9,5,1.9c1.6,0,2.1-0.5,2.1-1.1
			C477.5,327,476.1,326.4,474.7,326.5z"/>
		<path class="st1" d="M479.5,330.5l-1.1,0.3c-0.5,0.1-0.8,0.3-0.8,0.9c-0.1,3.2,0.4,16,0.5,17.9c0,0.5,0.4,0.8,1.1,0.6
			C479.4,343.5,479.5,333.3,479.5,330.5z"/>
		<path class="st2" d="M479.2,350.1c0,0,2.7-2.5,3.1-9.7s-2.8-9.6-2.8-9.6l-0.8,0.2c-0.4,0.1-0.7,0.4-0.7,0.9v1.4
			c0,0.2,0.1,0.5,0.2,0.6c1.5,1.8,2.2,4.1,2,6.5c-0.1,3.3-1,6.4-1.8,7.1c-0.1,0.2-0.2,0.5-0.1,0.7l0.1,1.4c0,0.2,0.2,0.4,0.4,0.4
			L479.2,350.1z"/>
		<path class="st1" d="M478,331.9v1.4c0,0.2,0.1,0.5,0.2,0.6c1.5,1.8,2.2,4.1,2,6.5c-0.1,3.3-1,6.4-1.8,7.1
			c-0.1,0.2-0.2,0.5-0.1,0.7l0.1,1.4c0,0.2,0.2,0.4,0.4,0.4c1.2-1.7,2-3.7,2.5-7.7c0.6-4.5-0.1-8-2.6-11.4
			C478.3,331.1,478,331.5,478,331.9z"/>
		<path class="st1" d="M481.2,337.2c-0.3-2.2-1.2-4.3-2.6-6.1c-0.3,0.1-0.6,0.4-0.6,0.7c1.4,1.6,2.3,3.5,2.8,5.5
			C481.1,338.4,481.4,338.4,481.2,337.2z"/>
		<path class="st1" d="M477.7,326.3c0-0.5-1.3-1-3-1s-3.1,0.2-3.1,0.7l-0.1,1.2c0,0.5,1.3,1,3,1s3.1-0.2,3.1-0.7L477.7,326.3z"/>
		<path class="st2" d="M477.7,326.3c0-0.5-1.3-1-3-1s-3.1,0.2-3.1,0.7v0.8c0.9,0.5,2,0.8,3,0.8c1,0.2,2.1,0.1,3.1-0.2V326.3z"/>
		<path class="st2" d="M478.2,325.5c0-0.6-1.5-1.1-3.5-1.2s-3.6,0.3-3.6,0.8v0.7c0,0.6,1.5,1.1,3.5,1.2s3.6-0.3,3.6-0.8V325.5z"/>
		<path class="st1" d="M478,325.5c0,0.5-1.5,0.9-3.4,0.8s-3.3-0.6-3.3-1.1s1.5-0.9,3.4-0.8S478,324.9,478,325.5z"/>
		<path class="st2" d="M468.4,361.4c0,2.3-1.9,4.2-4.2,4.2s-4.2-1.9-4.2-4.2c0-1.1,0.4-2.1,1.2-2.9c0.9-0.7,1.9-1,3-0.9
			c1.2-0.1,2.3,0.3,3.2,1C468,359.3,468.4,360.3,468.4,361.4z"/>
		<path class="st1" d="M467.3,358.6c-0.9-0.7-2-1.1-3.2-1c-1.1-0.1-2.1,0.3-3,0.9c-0.1,0.1-0.1,0.1-0.2,0.2
			c-0.1,0.4-0.2,0.9-0.2,1.3c-0.7,2,0.3,4.3,2.4,5c2,0.7,4.3-0.3,5-2.4c0.2-0.4,0.2-0.9,0.2-1.3C468.4,360.4,468,359.4,467.3,358.6z
			"/>
		<path class="st1" d="M466.8,358.2c0.1,0.1,0.2,0.2,0.2,0.4c0,0.6-1.3,1.1-2.9,1.1c-0.9,0-1.8-0.1-2.6-0.6c0.8,0.5,1.8,0.8,2.7,0.7
			c1.6,0,2.9-0.5,2.9-1.1C467.1,358.4,467,358.3,466.8,358.2z"/>
		<ellipse class="st1" cx="464.2" cy="358.5" rx="2.4" ry="0.8"/>
		<path class="st1" d="M462.1,358.9c0.7,0.3,1.4,0.4,2.1,0.4s1.4-0.1,2.1-0.4c-0.7-0.3-1.4-0.4-2.1-0.4S462.7,358.6,462.1,358.9z"/>
		<path class="st2" d="M463.8,359.3c-0.7-1.5-3.2-7.3-3.3-7.6s-0.2-0.2-0.3-0.2h-0.4c-0.2,0-0.2,0.1-0.1,0.3s3.1,7.3,3.2,7.4
			C463.2,359.2,463.5,359.3,463.8,359.3z"/>
		<path class="st1" d="M463.4,359.3c-1.1-2.6-3.1-7.2-3.2-7.4s-0.1-0.3-0.2-0.3h-0.1c0,0,0,0.2,0.1,0.4s2.1,4.8,3.1,7.2L463.4,359.3
			z"/>
		<path class="st2" d="M226.4,321.7l18.8,13c0,1.9-1.1,14.8,0,21.2s3.1,24.2,6.2,29.9c1.3,2.4-2.6,10.1-0.3,14.1
			c1.5,5.9-0.2,13,0,14.4c0.4,2.5,6.2,12.4,6.7,15.3s14.6,16.7,14.6,16.7s8.3,3.5,12,4.4c1.3,3.9,2.6,7.4,3.8,7.9
			c1.9,0.8,1.9,9.9,1.9,11.8s1.9,9.5,3,10.6s5.3,2.3,5.3,2.3s8-4.2,10.6-4.9s10.2-4.5,13.3-5.3s7.6-3,10.2-3
			c2.6-0.2,5.1-0.6,7.6-1.1l1.5,8.9c0,0,7.2,3,8.3,3s13.2,2.7,14.7,2.7s14.1,0.9,18.6,2c3.1,0.7,6.3,1.1,9.5,1.1
			c0,0,2.7-11,2.7-12.5v-17.8c0,0,6.4-4.9,8-6.8c0.8-1.3,1.4-2.8,1.6-4.3c2-2.1,5.2-5.5,5.2-6.4c0-1.2,0.8-14.6,0.8-19.2
			s0.4-25,0.4-26.3c0-0.5-0.1-2-0.1-3.7c0.5-2.3,1-4.2,1.3-4.9c0.8-1.9,4.2-16.7,4.9-19.7s0-9.5,1.1-12.9s4.5-13.6,4.5-13.6
			l9.1-15.5"/>
		<path class="st1" d="M333.7,365.3c0.4,1.8,1.8,7.4,1.8,7.4s3.7-2.6,3.3,2.9c-0.2,3-0.5,5.9-1.1,8.8c0,1.4,0.4,2.8,1.1,4
			c1.1,1.5,1.1-8.8,1.1-8.8l-1.5-11.4l0.7-7.7"/>
		<path class="st2" d="M288.3,171.8l-4.5,1.1c-2.1,0.5-17.1,5.7-18.7,6.2s-10.9,1.6-14.5,3.1s-11.9,4.1-14,7.8s-7.3,10.9-8.8,13
			s-5.2,11.4-6.8,16.1s-5.2,20.2-5.7,23.4s-5.7,25.9-6.2,28S207,283,206,288.1s-5.7,10.4-6.8,13.5s-2.1,19.2-1,20.8
			s11.9,17.1,13.5,18.2s4.7,3.1,7.8,3.1s6.2,0.5,8.3,0c0.3-0.1,12.9-7.8,13.3-7.9l0.7,14.1l1.4,9.6l-1,6.2l3.6,6.6
			c0,0,9.1-1.2,10.8-2.4c1.2-0.8,2.6-1.3,4-1.4l-5.9-9.7c0,0-3.8-8.4-4.2-10.4s-1.2-13.4-1.2-14.6s-2.4-11.7-2.4-11.7
			s4.1-6.7,4.7-8.3s1.6-5.7,1.6-5.7l-0.5-4.8l-2.9-7.8c0,0-4.6-11.4-5.7-12.4s-5-4.3-5-4.3s6.8-6.8,8.2-7.8s14.7-11.4,14.7-11.4
			s8.5-7.5,10.7-9.2s11.4-5.7,14.6-5s8.2,4.6,10,6.4s9.5,4.3,12.7,5.9c5,2.6,14.7,19.3,14.7,19.3c2.7,1.3,6.2,11.1,5.8,13.8
			s-3.6,11.1-4,13.8s-3.6,14.3-3.1,17.4s2.6,28,3.1,31.1c0.1,0.5,0.1,1,0,1.5l2.7,6.6l0.4,3.3V376l0.4,10.3c0,0,3,1.1,3.3,3.7
			s1.1,7,2.2,9.2s3,5.5,3,5.5l2.6-1.5c0.2-3.1,0.2-6.1,0-9.2c-0.4-2.9,0.7-7.4,0.7-11s0.7-6.2-0.4-9.2s-0.7-6.2-0.7-8.8
			c0.3-2.8,0.9-5.6,1.6-8.3L342,357l1.1-3.1c0,0,1.4-1.4,1.4-2.5s2-34.2,2-35.2s1.4-25.6,2.8-28.1s5-11.4,5.7-12.4s2.1-10,3.9-11.7
			s8.5-8.5,9.6-8.9s9.1-5.7,11.6-6.1c4.1-0.4,8.3-0.4,12.5,0c2.1,0.4,22.8,12.5,22.8,12.5s3.6,8.9,4.6,11.7s4.6,18.5,4.6,21.3
			s0,11-1.4,16.4s-2.8,13.9-2.5,16.4c0.1,1.3,0.1,2.7,0,4c0.9,3.1,1.6,6.2,2.1,8.6l-1.6,4.7l0.5,1.1c0,0,5,1.8,6.8,1.8
			c3.1-0.1,6.2-0.5,9.2-1.1c1.1-0.4,13.5-11,13.5-11s3.2-4.3,4.3-6s4.3-7.5,4.6-8.5c0.5-2.3,0.7-4.7,0.7-7.1c0-2.2-0.2-4.3-0.7-6.4
			c-0.4-1.4-0.4-6-1.4-7.1s-3.9-4.3-3.9-4.3l0.7-6.8l-3.2-2.1c0,0-1.4-7.8-1.4-8.9s-1.1-7.8-1.1-9.2s-1.1-13.1-1.1-13.1
			c-1.8-2.3-3-5-3.5-7.8c-0.7-4.3-1.8-11.7-2.5-14.6s-3.6-8.6-4.6-12.8s-2.5-12.8-2.5-12.8s-3.2-4.6-4.3-5.7c-2.2-2.2-4.7-4-7.5-5.3
			c-3.2-1.4-14.9-6.8-16-7.5s-3.2-3.2-7.8-5.7s-10.7-4.6-16-6.8c-0.7-0.3-1.5-0.6-2.1-0.9"/>
		<path class="st2" d="M231.9,277.7c0.5-0.9,5.3-3.1,6.8-4.6c1.4-1.7,2.7-3.5,3.7-5.5c0.5-0.9,4.1-10,4.8-11.6s1.2-4.9,2.2-6
			s3.7-2,5.1-2.4s8.2-3.2,9.7-3.9s4.4-2.2,5.5-1.7c1.4,0.9,3,1.6,4.6,2.2c1.7,0.7,3.2,1.6,4.6,2.7l0.3,0.9l4.8,0.5c0,0,1,2-0.2,3.4
			s-4.2,2.2-4.8,2.4c-1.9,0.2-3.9,0.1-5.8-0.2c-0.7-0.3-2.7-1.2-2.7-1.2l-1.6-1.5l-0.7,1.9c-0.6,0.4-1.2,0.7-1.9,0.9
			c-0.9,0.2-3.4,0.9-3.4,0.9l-0.7,1.4l2.4,1.5c0,0,6.3-0.2,7.1,0s5.6,0.2,6.5,0.2s12.4-0.7,12.4-0.7s3.9-0.5,4.4-0.7
			s3.8,1.2,3.8,1.2l4.2,1.9l3.1,2.6l1.4,4.9l-1.2,1.7c0,0-2.2,0.2-2.7,0.2s-6.5-1.5-7-1.5s-3.9-0.3-3.9-0.3l-7.1,1.2l-5.3,0.5
			c0.9,0.5,5.3,0.2,6.8,0.2s5.3-0.7,5.8-0.7h3.1c1.4,0.2,2.9,0.5,4.2,0.9c0.5,0.2,7.1,1,7.1,1s1.7,1,2,1.9s1.9,3.2,1.9,4.1
			S309,280,309,280l-3.1,0.5c0,0-3.4-1-3.9-1h-5.8c-1,0-7.1-0.2-8,0.2s-6.5,1.4-6.5,1.4s2,0.2,2.5,0.2s6.8,0.2,7.8,0.2
			s5.1-0.2,6-0.2c1,0.1,2.1,0.2,3.1,0.5c1.1,0.2,2.1,0.3,3.2,0.3c1.4,0.4,2.9,0.8,4.3,1.4c0,0,1.2,2.7,0.7,3.4s-2,2.9-2.7,3.2
			c-1.1,0.3-2.3,0.5-3.4,0.5H302c-1.9-0.1-3.8,0-5.6,0.2c-0.9,0.2-1.9,0.3-2.9,0.2c-0.5,0-1-0.1-1.5-0.2c-0.7-0.2-4.9-0.2-5.6-0.2
			s-4.1,0.2-4.6,0.2c-1.2,0.3-2.3,0.7-3.4,1.2c0,0,2.5-0.3,3.4-0.5s5.1-0.2,6.1-0.2s8,0.9,8,0.9l2-0.7c0,0,5.8-1.2,6,1.4
			s-2.9,5.8-2.9,5.8s-4.1,0.5-4.9,0.7s-7.3,1-8.5,1s-6.1-0.3-7.1-0.2s-6.5,1.5-7.5,1.9s-12.1,3.4-13.3,3.4s-9,0.2-9,0.2
			s-4.3,6.8-4.8,7s-4.1,4.2-4.1,4.2s-4.6-4.9-5.1-5.8s-3.1-3.9-3.9-5.5s-3.2-6-2.6-8.5c0.6-2.4,1.1-4.7,1.4-7.1
			C231.6,289.1,229.9,281.4,231.9,277.7z"/>
		<path class="st1" d="M301.4,281.4c-0.9-0.3-1.9-0.4-2.8-0.5c0.3,0.5,0.6,1,0.8,1.5c0.2,0.7,0.2,4.8,0.2,5.3c0,0.4-0.2,0.8-0.3,1.2
			c0.4,0.1,0.8,0.2,1.2,0.2c0.7,0-0.2,1,0.7,0c0.6-0.7,1.2-1.4,1.7-2.2c0.6-0.9,1.1-1.8,1.4-2.9c0-0.4-0.1-1.6-0.1-2.2
			C303.1,281.7,302.2,281.6,301.4,281.4z"/>
		<path class="st2" d="M440.4,284.2c0,0-2.9-4.8-3.8-5.3c-1.8-1.2-3.5-2.5-5.1-3.9c-0.7-0.9-4.6-10-5.3-11.3s-4.5-6.7-4.6-7.7
			c-0.3-2.1-1.9-3.7-3.9-4.1c-2.9-0.5-7.5-3.8-7.5-3.8s-4-1.5-4.5-1.9c-1.1-0.5-2.1-0.9-3.3-1.2c0,0-3.1,1-3.8,1.2s-3.4,0.5-3.4,0.5
			l-1,0.5l-5.1,0.4l-0.2,2.6c0,0,1.5,1.4,2.2,1.9s3.1,0.9,3.8,1.4s5,1.4,5,1.4l3.8-1c0,0,0.5,2.1,1,2.2c0.9,0.5,1.7,1,2.6,1.6
			l2.1,1.2l1,2.1v0.9c-0.9,0.3-1.8,0.4-2.8,0.4c-1.2-0.2-12.5,0.5-12.5,0.5l-7-0.3c0,0-7,0-7.5,0.5s-4.3,1.4-5,1.5s-4.8,1.4-5.7,1.7
			s-3.1,2.4-2.4,4.3s4.6,2.2,5.3,2.6c1.3,0.3,2.6,0.4,3.9,0.3c1.6-0.3,3.1-0.7,4.6-1.2c0,0,3.8-0.5,4.3-0.7s6.2-0.2,6.7-0.2
			s8.8,0.3,8.8,0.3s2.6,0.2,2.1,0.9s-3.9,0.5-5.1,0.7s-11.7,0-12.7,0s-4.6,0.7-5.7,0.9s-5.7,0.9-6.9,0.9c-1.8,0.1-3.6,0.5-5.3,1.2
			c-0.9,0.5-3.8,2.8-2.8,4.6s2.6,3.6,4,3.6s3.8-0.7,5.5-0.7s6.7-0.5,8.1-0.5s7-0.2,7.9-0.2h7c1.4,0.1,2.9,0.3,4.3,0.5
			c-0.8,0.7-1.9,1-2.9,1c-1.9,0-5.7-0.2-7.2-0.2s-7.7-0.2-8.6-0.2s-6.4,0.5-7,0.5s-5.8-0.2-8.1,1s-1.5,6.7,1.7,7.4s8.4-0.9,9.1-0.9
			s6.7,0.3,7.7,0.3h12.7c0.7,0,5,1,5,1c-0.7,0.4-1.5,0.7-2.2,1c-1.4,0.5-5.1,0.3-6.5,0.2s-9.6-0.2-10.5-0.2h-6.3
			c-0.7,0-2.8,0.2-2.9,1.2s-0.9,3.1,0.5,4.1s5,1.9,6.5,2.2c2.8,0.6,5.7,1.1,8.6,1.4c1.7,0,6.2-0.3,7.5-0.5c2.3-0.1,4.7,0,7,0.3
			c1,0.3,3.4,1.9,4.6,1.9s6,3.1,8.8,3.4c1.7,0.2,3.3,0.2,5,0c0,0-0.7,7.9,0.7,10.3s5.5,3.6,6.9,3.3s6-3.9,6.4-5.1s2.1-7.7,2.6-10.5
			c0.7-3.6,1.1-7.3,1.4-11C441.6,293.1,441.6,286.8,440.4,284.2z"/>
		<path class="st1" d="M377,273h-0.4C376.7,273,376.9,273,377,273z"/>
		<path class="st1" d="M415,292.2c-0.1-0.2-0.2-0.4-0.3-0.6v0.1L415,292.2z"/>
		<path class="st2" d="M297.3,483.3l-0.7,7.1c0,0-1.4,5.8-1.7,6.8s-3.4,7.5-4.1,8.5s-2.7,8.9-2.7,9.9v6.1l-1,3.8c0,0,0,5.8,0.7,6.8
			s4.1,12.3,4.1,12.3l4.1,4.1c0,0,9.2,4.4,10.5,4.8s8.2,1.4,10.5,0.7s7.8-0.7,8.9-0.7s6.5-3.1,8.2-4.1s5.8-5.8,5.8-5.8
			c0.7-1.6,1.2-3.3,1.4-5.1c0-2,0.7-7.8,0.7-9.2s-2-11.9-2-11.9l-1-6.5c0,0,1-6.8,0.7-7.8s-3.1-8.9-3.1-8.9v-6.5
			c0,0,2.7-9.2,2.7-10.5s-0.9-7.9-0.9-7.9"/>
		<path class="st1" d="M309,491.6c0,0,4.5-2,4.9-2.1s3.3-0.6,3.7-0.6c1.1-0.1,2.3,0,3.4,0.1c0.8,0.2,1.4,0.7,2.2,0.9
			c1,0.4,1.9,0.9,2.8,1.5l1.5-0.6l1.1,0.2c0.4,0.5,0.7,1,0.9,1.5c0,0.6-0.2,1.2-0.5,1.6c-0.4,0.5-0.8,0.9-1.3,1.2
			c-0.6,0.3-1.2,0.4-1.8,0.5l-1.2-0.5l-0.9-1.8l0.8,0.9c0.3,0.1,0.5,0.1,0.8,0.1h0.8c0,0,0.3-0.9,0-0.9c-0.9-0.5-1.7-1.1-2.5-1.7
			c0,0-2.3-0.9-2.8-1c-1.5-0.2-3-0.2-4.5-0.2c-1.3,0.2-2.6,0.6-3.9,1c-0.4,0.2-1.2,0.6-2,1.1c-0.8,0.4-1.6,0.7-2.4,0.9
			C307.6,493.9,306.8,492.2,309,491.6z"/>
		<path class="st1" d="M309.4,482.3c0.9-0.6,1.9-1.1,2.9-1.6c0.8-0.3,1.7-0.5,2.5-0.6c1.3-0.2,2.7-0.2,4,0c1.2,0.6,2.4,1.3,3.5,2.1
			c0.5,0.3,2.1,1.1,2.6,1.4s1.5,0.8,1.5,0.8l-1,0.5c0,0-0.8,0.2-0.3,0.5s1,0.6,1.5,0.7c0.3,0,0.7,0,1-0.1s1-1,1-1l0.3-1
			c0.1-0.6,0-1.2-0.3-1.7c-0.4-0.5-1-0.9-1.5-1.2c-0.4-0.2-0.9-0.3-1.3-0.4c0,0-2.3-0.8-2.6-1c-0.9-0.4-1.8-0.8-2.7-1.1
			c-1-0.3-1.9-0.5-2.9-0.6c-1.1-0.1-2.2,0-3.2,0.2c-0.7,0.3-3.3,1-4,1.4s-2.7,1.5-2.7,1.5s-0.8,0.3-0.3,0.8c0.4,0.4,0.9,0.7,1.5,0.7
			h0.5V482.3z"/>
		<path class="st1" d="M313.5,482c0.3-0.1,0.7,2.9,0.9,3.5c0.1,0.7,0.2,1.5,0.2,2.2c0,0-0.7,1.6-0.9,0.9S311.6,482.5,313.5,482z"/>
		<path class="st1" d="M314.6,482c0,0,1.7-0.1,2.1-0.1s0.8-0.3,1.5,0c0.5,0.2,0.9,0.5,1.2,0.9c0.2,0.2,0.6-0.6,0.6-0.6
			s0.6-0.5,0.9-0.3s0.5,0.9,0.5,1.3s0.6,2.1,0.6,2.9v2.7l-0.8-0.3c-0.3-0.5-0.5-1-0.7-1.5c-0.1-0.5-0.5-2-0.5-2.2s-0.2-0.3-0.4-0.2
			c-0.1,0-0.2,0.1-0.2,0.2c-0.1,0.3-0.6,2.1-0.8,2.4c-0.3,0.5-0.8,0.8-1.3,1c-0.5,0.1-1,0.1-1.5,0.1c0,0-1.1-2.2-1.1-2.4
			S314,482.5,314.6,482z"/>
		<path class="st1" d="M315,492.4c0,0,3.1-1.5,4.1-1s2.6,1,3.1,1.8s-0.3,3.5,0,4.3c0.3,1.1,0.7,2.2,1.3,3.2c0.5,0.7,0.6,1.6,0.4,2.5
			c-0.2,0.5-1.3,0.4-3,0.6s-3.9,0.3-4.8,0.8s-7.5,1.4-8,1.3S308,504,308,504c1.1-0.7,2.1-1.4,3-2.2c0.9-0.9,3.5-6.7,3.8-7.4
			C314.9,493.7,315,493.1,315,492.4z"/>
		<path class="st1" d="M291.9,535.1c0,0,5.7,5.4,6.5,6s3.1,1.6,5.2,2.6s6,2.3,8,2.3s7.5,0.8,9.1,0.8s10.9-2.1,11.7-3.1
			s2.9-3.7,2.9-3.7l3.9-6.7l-0.3,5.5l-6,8c0,0-9.1,3.4-11.1,3.4h-13.5c-1,0-6.7-2.6-8-3.4S293.2,537.7,291.9,535.1z"/>
		<path class="st2" d="M347.8,480.1c0,0,0.1,8.5,0.7,9.9s1.7,8.3,1.7,8.3s-2.9,7.7-3.1,8.5c-0.9,3.4-1.5,6.8-2,10.3
			c0,1.7,0.3,8.3,0.3,8.3s-1.1,6.8-1.1,8s-2,5.7-1.1,7.7s2,6.8,2.3,7.7s2,7.1,2.9,8.8c1.2,1.9,3,3.3,5.1,4c2,0.6,6.6,0.9,7.7,1.4
			s7.1,1.1,9.1,1.1s10.8-0.9,10.8-0.9l5.1-3.4l4-4.3l4.3-8.8c0,0,3.4-7.1,2.9-20s-2.6-16.8-2.9-17.7s-2.3-3.7-2.9-5.4
			s-2-7.1-2.3-8.3s-1.4-3.1-1.4-4.9s-0.3-4-0.3-4"/>
		<path class="st1" d="M373.3,486.9c-0.4,0.9-0.8,1.9-1,2.9c-0.3,1-0.7,1.9-1.2,2.7l2-0.3c0.1-0.9,0.2-1.7,0.3-2.5
			c0.2-0.5,1.5-3,1.5-3L373.3,486.9z"/>
		<path class="st1" d="M369.9,491.2l-0.7-3.2c0,0-1.5-1.4-2-1.4c-1.2,0.4-2.4,0.8-3.5,1.4v5.1l1.4-0.7l0.2-2.7l1,2.5h1.8
			L369.9,491.2z"/>
		<path class="st1" d="M365,499c-0.1,0.8-0.1,1.6,0,2.4c0,0.7-2.4,2.7-2.4,2.7v2.4h4.9c1.4-0.2,2.8-0.3,4.2-0.3c0.5,0.2,1-0.2,1-1
			s-1.5-4.2-1.5-4.8c-0.2-0.9-0.4-1.7-0.7-2.5C370.6,497.8,366,496.8,365,499z"/>
		<path class="st1" d="M345.7,535.9c-0.2,1-0.7,3.2,0.2,4.1s1.9,3.9,2.9,5.2s1,2.2,2,3.2c0.8,1,1.9,1.7,3,2.2c1.4,0.5,2.2,1,3.7,1.5
			c2,0.7,4,1.2,6.1,1.5c1.7,0.3,3.5,0.4,5.2,0.3c1.5-0.2,3.2-0.3,4.9-0.7s5.9-1.9,6.4-2s2.9-1.9,3.6-2s2.9-2.7,3.7-3.7
			s1.9-2.5,2.9-3.6c0.8-0.9,1.5-1.8,2-2.9c0.6-1.4,1-2.9,1.4-4.4c0,0-3.2,9.7-4.6,11.3c-1.4,1.9-2.9,3.7-4.6,5.4
			c-2.8,2.2-5.8,4-9,5.4c-3.9,0.6-7.8,0.9-11.7,0.8c-1.7-0.1-3.3-0.4-4.9-1c-1.2-0.5-3.7-2-4.7-2.5s-5.1-6.4-5.1-6.4l-3.4-5.4
			l-1.2-3.2L345.7,535.9z"/>
		<line class="st0" x1="340.1" y1="468.7" x2="341.6" y2="477.6"/>
		<path class="st3" d="M341.6,477.6c0,0,7.2,3,8.3,3s13.2,2.7,14.7,2.7s14.1,0.9,18.6,2c3.1,0.7,6.3,1.1,9.5,1.1"/>
		<path class="st2" d="M298.4,483.1c0,0,8-4.2,10.6-4.9s10.2-4.5,13.3-5.3s7.6-3,10.2-3c2.6-0.2,5.1-0.6,7.6-1.1"/>
		<path class="st3" d="M301.8,204.4c0,0,1.2,22.2,5,26.4s13.7,12.7,14.3,13.5s6.6,9.6,12.2,10.2s8.5-0.2,12-3.9s9.3-11,10.8-12.2
			s7.7-6.4,8.7-10s2.7-9.6,3.1-10.8s1.7-14.3,1.7-14.3"/>
		<path class="st3" d="M326.5,241.3c0.5,1,2.9,6.1,5,8.1s6.8,2.1,7.9,1.9s2.8-5.2,4.8-7.1s2.1-5.6,0.8-6"/>
		<path class="st3" d="M310,204.8c0.6,2.3,2.5,7.5,1.5,8.2s1.1,0.1,1.1,0.1l0.8-2.7l0.2-2.1v4.6l-0.8,3.3l2.3-0.8
			c0.3-0.5,0.6-1.1,0.8-1.7c0.2-0.6,1-2.3,1-2.3l1.2-0.4l1,3.5v4.6l2.7-0.6l2.1-0.8l2.3-2.1c0,0,0.6-1,0.8-0.4
			c0.3,1,0.5,2.1,0.6,3.1c0.2,1,0.5,2,0.8,2.9c0.2-1.1,0.4-2.2,0.4-3.3v-2.3c0,0,4.6,3.1,4.8,3.7c0.1,0.7,0.1,1.4,0,2.1l2.1,1.2
			l-1,2.5l1.7-0.8l0.8-3.1c-0.4-0.7-0.8-1.4-1.2-2.1c-0.6-0.8-2.3-2.5-2.3-2.5l4.6,1.9c0,0,3.3,1.9,4.4,1.9c1.3-0.2,2.6-0.6,3.7-1.2
			c0.9-0.4,1.6-1,2.1-1.9c0,0-5,0.4-5.6,0.4s-1,0.4-1.5-0.4c-0.3-0.7-0.6-1.5-0.8-2.3l0.2-1.2l4.1,1l3.3-0.2c0.7-0.2,1.3-0.6,1.9-1
			c0.6-0.6,5.4-1.5,5.4-1.5l0.8,0.2l-2.1-2.1l-1.2-0.8l5.6-1.9c0.6-0.6,1-1.2,1.5-1.9c0.4-0.8,0.2-1.2,1-2.1s0.8-1.2,2.5-1.7
			c1.6-0.6,3.2-1.5,4.6-2.5c0.4,0.9,0.7,1.9,0.8,2.9c0,1-0.8,2.1-0.8,2.9c-0.3,1.8-0.7,3.6-1.1,5.4l1.7,1.2c0,0,0.8-4.6,1.5-5
			c0.9-0.5,1.7-1.2,2.3-2.1c1-1.4,3.1-3.9,3.1-3.9l0.6-3.3v-2.9l1.2-3.9l0.8-1.7c0.4-0.8-0.2-6.4-0.2-6.4s2.3-2.3,0.6-4.8
			s1.2-2.9,1.7-1.9s0.9,4.9,1.5,3.7c0.4-0.8,0-4.4,0.2-6.2c0.2-1.4-0.1-2.9-0.8-4.1c-0.5-1-0.8-2.2-0.8-3.3c0,0,0.4-2.1,1-2.3
			s1-2.3,1-2.3v-1.9c-0.4,0.3-0.9,0.4-1.5,0.4c-0.8-0.2-1.5-0.5-2.1-1c0,0-0.8-3.3-1-4.4c-0.4-1.5-1-3-1.9-4.4
			c-0.6-0.8-1.7-4.6-2.7-7.3s-1.7-4.1-3.7-5.4s-5.2-1.7-6.9-3.5s-3.3-3.3-5-5s-4.8-2.5-6.6-2.9s-5.6-0.8-5.6-0.8l-4.1,0.4l-0.2-1.9
			l4.6-1.7H341c-1-0.1-2.1-0.1-3.1,0c-0.6,0.2-4.1,1-4.1,1s-1.9,1-2.7,1.7c-0.5,0.4-1,1-1.2,1.7c0,0-2.3,1-3.9,0
			c-1.2-0.8-2.7-1.3-4.1-1.2c-1.2,0-5.2-0.4-6.2,0s-2.5,0-4.1,1.2s-3.3,1.5-4.6,3.1c-1.3,1.6-1.9,2.1-2.3,2.7
			c-0.9,0.9-1.9,1.4-3.1,1.7c-1.5,0.4-5-4.6-5-4.6l1,4.6l3.3,1.9l-2.8,2.1c0,0-3.1,1.9-3.9,3.3c-1.2,1.8-2.1,3.8-2.7,5.8
			c-0.6,2.5-1.9,4.4-3.1,7.1c-1.1,2.2-2.4,4.4-3.7,6.4l-1.7,1.4l3.5,0.2l1.5,3.3c0,0-1.2,2.5-0.2,3.9s0.4,2.3,1.5,3.3s0,6.9,0,6.9
			l1.5,2.7c0,0,0.4,0.4,1.5,1.2c1.2,1.2,2.1,2.6,2.7,4.1c0,0.6-0.4,6.6-0.2,7.7c0.2,1.3,0.6,2.6,1.2,3.7c0.8,1.4,1.6,2.7,2.5,3.9
			c1,1.2,2.5,5.8,2.5,5.8l1.7-1.7l2.9-1.9L310,204.8z"/>
		<path class="st2" d="M430.5,497.4c-0.5-0.2-1.1-0.1-1.7,0.1c-0.7,0.4-2.4,1.7-2.4,1.7l0.4,0.7c0,0-0.5,4.2,2.5,5
			c2.1,0.6,4.3-0.4,5.1-2.4C434.8,500.9,434.4,497.8,430.5,497.4z"/>
		<path class="st1" d="M427.3,499.4c1.1-0.5,3-0.3,4.2,3.1S425.7,500,427.3,499.4z"/>
		<path class="st2" d="M454.4,522l-3.4,1.2c-0.8,2-0.6,4.2,0.4,6c1.8,3.2,3.1,1.2,3.1,1.2l1.2-0.3c0.2,0.3,0.6,0.5,1,0.4
			C457.8,530.6,460.7,526.3,454.4,522z"/>
		<path class="st1" d="M451.5,523.8c-0.5,0.5,0.9,4.3,2.1,5s1.1-1.7,0.9-3S453.3,521.9,451.5,523.8z"/>
		<path class="st2" d="M498.5,519.9c0,0-2.1,0.7-2.2,1.1c-0.1,0.4-0.2,0.7-0.2,1.1c-0.1,2,0.6,4,2,5.4c2.3,2.2,5.1,0.2,5.5-1.7
			S503.5,520.5,498.5,519.9z"/>
		<path class="st1" d="M498.2,521.9c1,1,1.6,4.9,0.4,4.1s-2.5-3.5-2-4.3S497.9,521.6,498.2,521.9z"/>
		<path class="st2" d="M472.8,501.6l-0.1,1.8c-1.5,0.8-3.4,0.6-4.7-0.5v-2.6L472.8,501.6z"/>
		<path class="st2" d="M462.3,483.5c0,0,0,2.5-0.7,3c-0.3,0.3-0.8,0.4-1.2,0.3l-0.6,0.4c0,0-0.3,1.6-1.5,1.5s-3.1-0.9-3.4-4.2
			s3.9-3.2,3.9-3.2C459.4,481,462.3,481.8,462.3,483.5z"/>
		<path class="st1" d="M456.5,482.9c0.9,0.5,3.1,2.6,2.5,3.1s-3-0.7-3.3-2.4C455.5,483,455.9,482.6,456.5,482.9z"/>
		<path class="st2" d="M497.4,493.3c-0.8,0.3-1.5,0.6-2.3,1c-0.5,0.3-1,2.5,0.8,4.8s3.6,1.3,4.1,0.7l0.6-0.2
			c0.3,0.1,0.6,0.2,0.9,0.1c0.4-0.1,1.6-1.6,1.1-4.1S499.5,492.4,497.4,493.3z"/>
		<path class="st1" d="M497.8,494.7c0.8,1.1,1.3,2.4,1.3,3.7c-0.1,1-1.7-0.4-2.3-1.6S496.5,493.5,497.8,494.7z"/>
		<path class="st2" d="M466.1,491.4c-0.6,0.4-12.3-0.2-19.4,0.2s-13.6,1.2-15.2,2.6s-2.1,4-1.2,5s4.1,1.2,4.9-0.2
			c0.7-1.6,2.3-2.6,4-2.6c8.6-0.7,17.3,0,25.7,2.2c-4.3,5.8-8.8,13.1-10.5,19.1s-2,7.8,1.6,8.8s3.2-3.6,3.6-7.1s5.1-13.4,9.4-17.8
			c2.8,0.5,3.4,0.3,5-0.2c5.9,2.1,18.4,10.3,22.5,15c1.6,1.9,1.3,3.2,1.9,5.2s7.5,3.4,7-0.1s-3.9-6.6-7-9.6s-13.6-11.2-20-15.5
			c7.1-3,13.8-4.1,18.6-3c2,2.5,3.1,2.8,4.9,2.6s2.6-2,0.9-4s-3.3-2.6-7-2.6c-7.3,0.2-14.5,1-21.7,2.3c-3.6-4.7-7.7-9-12.2-12.9
			c-1.3-1.1-3.3-1-4.5,0.3c-0.5,0.5-0.7,1.2-0.8,1.9c0.2,1.9,2.2,3,4.6,2.6C463.3,485,465,486.9,466.1,491.4z"/>
		<path class="st1" d="M477.8,497.1c-4.1-2.3-1.2-3,1.7-4c4-1.3,8.1-2.1,12.3-2.4c3.8-0.3,1.4-0.8-4.2-0.9c-4.6,0.4-9.1,1-13.6,1.9
			c-3.3-4.2-6.9-8.1-10.8-11.7c-0.4,0.4-0.4,1.6,0.8,3.8c2.4,4.5,4.3,9,1.5,9.2s-16.9-0.8-18.2,0.4s23-0.1,20.4,3.4
			c-1.1,1.5-10.2,16.3-11.2,21.4s-0.5,6.7,0.8,6.7s1.2-6.9,3.5-11.7s7.9-14.7,10.2-15.4s5.3,1,10.7,4.3s15.2,11.8,16.3,11.5
			S481.9,499.4,477.8,497.1z"/>
		<path class="st2" d="M474.7,482.9l-0.2-1.3l-0.4-0.5l0.1-3.9c-2-1-4.1-1.9-6.2-2.6l0.1,6.5l-0.4,0.5l-0.2,1.3l0.5,0.4l-0.9,0.4v7
			l0.6,0.5l-0.1,1.2l-0.3,0.3v2c0,0,0.5,1.6,3.8,1.6s3.8-1.6,3.8-1.6v-2l-0.3-0.3l-0.1-1.2l0.6-0.5v-7l-0.9-0.4L474.7,482.9z"/>
		<path class="st2" d="M433.5,463.7c-0.3,2.1,1,4,3,4.6c3.9,1.1,7.8,1.9,11.8,2.6l0.8-0.8l3.3,0.8c-2.1,4.5-4.3,4.9-7.1,6.1
			s-1.3,4.6,1.4,3.5s6.6-4.3,7.4-7.7l0.2,4.7l1.1,2.2l7.3,1.4l1.7-1.2l-0.2-2.3l1.8-2.1l-0.8-1.8c4.2,1.3,8.3,3,12.1,5.3
			c3.1,2,6.2,2.8,8.1,2.6c4.4-0.3,3.2-3.7,3.2-3.7h0.8c0,0,0.5,2.6,0.9,4s1.7,1.7,4.8,1.9s8.3-0.2,10-1.7s2.8-6.3,2.8-12.6
			s0-20.7,0.2-25.5s-2.3-7.5-5.1-8.3c0,0,4.1-16.4,5.4-19.4s5.4-5.3,6.9-8.3s2.9-8.7,2.5-11.4s-1.8-4.1-3.8-3.1s-8.4,23.4-14.5,33.4
			s-11.8,20.3-10.8,35.7l0.8,10.6L433.5,463.7z"/>
		<path class="st2" d="M454,467.6c0,0-4.4-16.5-5-18.6c-0.7-2.7-3.3-4.5-7.2-5.1c-4.2-0.7-6.2-1.6-6.2-3.6s1.9-2.7,5.2-2.8
			c4.1-0.1,21.2,2,29.1,6s4.9,6.8-0.3,5.5s-8.7-1.6-9.3-1c-1.2,1.1,1.2,19.9,1.2,20.8S454.7,469.3,454,467.6z"/>
		<path class="st1" d="M469.9,443.6c-7.8-4-24.9-6.1-29.1-6c-2.4,0.1-4.1,0.5-4.8,1.5c-0.5,1.2,0.5,3,6.8,3.8
			c9.2,1.3,18.3,3,27.4,5.2c2.7,0.7,3.9,0,4.1-1.1C473.8,446,472.4,444.9,469.9,443.6z"/>
		<path class="st1" d="M470.1,447.5c2.5,0.6,3.8,0.1,4.1-0.9c-1.2-1.3-2.6-2.3-4.2-3c-7.8-4-24.9-6.1-29.1-6
			c-2.4,0.1-4.1,0.5-4.8,1.5c-0.1,0.3-0.1,0.5-0.1,0.8c0.6,1,2.4,1.9,6.7,2.4C451.9,443.6,461,445.3,470.1,447.5z"/>
		<path class="st1" d="M454.1,449.1c1.2,0.5,1.3,1.5-0.1,0.7s-1.8-0.1-1.9-0.4S453.2,448.8,454.1,449.1z"/>
		<path class="st1" d="M460.9,469.3l0.4,2.2c0,0-1.5,0.7-2,0.9c-1.4,0.2-2.9-0.3-3.9-1.3c-0.5-1.2-0.9-2.3-1.2-3.6L460.9,469.3z"/>
		<path class="st1" d="M460.9,469.3l-2.9-0.8c0.2,0.8,0.6,2.6,0.8,3s0.4,0.6,0.9,0.5c0.5-0.2,1.1-0.4,1.6-0.6L460.9,469.3z"/>
		<path class="st1" d="M502.4,439.4c-0.5,2.3-1.2,4.5-2.1,6.6c-0.7,1.6-0.6,4.1-0.7,6.5s-0.3,23.9-0.3,23.9c2.6-1.4,3.6-2.4,3.6-6.5
			s0.7-19,0.7-20.6s-0.4-1.8-1.7-2.4s-0.8-1.4-0.2-1.4s2.6,0.2,2.9-1.3S504.9,439.5,502.4,439.4z"/>
		
			<ellipse transform="matrix(0.3654 -0.9309 0.9309 0.3654 -98.7239 751.6459)" class="st6" cx="501.9" cy="448.2" rx="0.9" ry="1.4"/>
		<path class="st1" d="M434.6,494.1c-0.2-0.3-1.1-0.3-1.4,0.5s0.5,1.4,1.4,0.9s2-1.1,5.2-1.4s19.8,0,24.4,0.8s2.7-0.4,0-0.5
			s-17-0.5-20.3-0.5s-6.7-0.4-7.7,0S434.9,494.6,434.6,494.1z"/>
		<path class="st1" d="M499.2,514.5c1.2,0.2,1,2.3,1.4,3.1s1.5,1.3,1.2,2.1s-2.4,0.4-2.2-1s0.3-1.7-0.7-2.4S498.4,514.4,499.2,514.5
			z"/>
		<path class="st1" d="M471,497.7c-1.3-0.4,3-0.4,4,0.4s-0.6,0.8-1.4,0.2C472.8,498,471.9,497.8,471,497.7z"/>
		<path class="st1" d="M455.1,520c0.8-0.4,1,1,1,1.4s1.1,0.2,1.3,0.9c0.5,1.9-2.5,2.3-3.1,0.6C453.7,521.9,454.1,520.6,455.1,520z"
			/>
		<path class="st2" d="M458,415.7c7.1,1.8,7.9,2.5,9.4,9.2c0.9,4.4,2,9.1,2.3,10.8c2.3,0.6,4.6,1.3,6.9,2.2
			c-0.2-3-0.7-12.5-0.8-14.7c-0.1-2.6,0.3-3,1.9-2.6s8.3,2,10,1.8s3.3-2.2-0.3-4.2c-5.4-2.7-11-4.9-16.8-6.6
			c-5.1-1.3-11.2-2.1-13.3-0.9S453.6,414.6,458,415.7z"/>
		<path class="st1" d="M487.6,421.7c1.3-0.3,1.9-0.9,1.6-2c-0.5-0.6-1.1-1.2-1.9-1.5c-5.4-2.7-11-4.9-16.8-6.6
			c-5.1-1.3-11.2-2.1-13.3-0.9c-0.2,0.1-0.4,0.2-0.5,0.4c-0.4,0.3-1.6,2-0.8,2.5c2.2,1.6,9.5,2.4,12.7,3.1
			C473.9,417.9,485.7,422.1,487.6,421.7z"/>
		<path class="st1" d="M475,483.7l-0.9-0.4l0.4-0.3c-2.2,1-4.8,1-7,0l0.4,0.3l-0.9,0.4C469.5,485.1,472.5,485.1,475,483.7z"/>
		<path class="st1" d="M467.5,492.4l-0.3,0.3l0,0c2.3,1.5,5.3,1.5,7.7,0l0,0l-0.3-0.3l-0.1-1.2l0.6-0.5c-2.4,1.6-5.6,1.6-8,0
			l0.6,0.5L467.5,492.4z"/>
		<path class="st3" d="M488.7,462.8c-4.6-6-3.6-15.3-0.8-21.9s12.2-19.6,14.1-25.3"/>
		<path class="st2" d="M495.8,427.5c-1.2-10.9,9.8-31.4,15.1-33.6s5.7,3.7,4.2,7.7s-4,9.2-9.3,11.7s-1.3,8.4-7.8,16.1"/>
		<path class="st3" d="M363.2,218.6c0,0-5.3,6.4-7.9,8.8s-8.1,3.1-10.8,3s-5.9-0.6-7.5-0.6c-3-0.1-5.9,0.1-8.9,0.4
			c-1.9,0.4-13.6,0.5-16.8-3.6c-1.7-2.2-3.2-4.7-4.3-7.3"/>
		<path class="st2" d="M247,321.8c-3.8,8.5-1.4,8.8-5.9,13.9"/>
		<path class="st2" d="M338.1,404.7c2.1,7.1,2.5,19.2,2.5,19.2l-2.5,10.2l1.2,10.4l0.8,24.2"/>
	</g>
</g>
<polyline class="st2" points="436.6,278.9 444.5,280.9 447.2,285.2 450.1,291.6 "/>
<polyline class="st2" points="231.9,277.7 226.4,278.9 220.8,280.9 217.2,285.2 "/>
</svg>
