<?xml version="1.0" encoding="utf-8"?>
<!-- Generator: Adobe Illustrator 25.2.0, SVG Export Plug-In . SVG Version: 6.00 Build 0)  -->
<svg version="1.1" id="Layer_1" xmlns="http://www.w3.org/2000/svg" xmlns:xlink="http://www.w3.org/1999/xlink" x="0px" y="0px"
	 viewBox="0 0 600 600" style="enable-background:new 0 0 600 600;" xml:space="preserve">
<style type="text/css">
	*{vector-effect:non-scaling-stroke}
	.st0{fill:#FFFFFF;stroke:#000000;stroke-width:1.5;stroke-linecap:round;stroke-linejoin:round;}
	.st1{fill:#FFFFFF;stroke:#000000;stroke-width:0.5;stroke-linecap:round;stroke-linejoin:round;}
	.st2{fill:none;stroke:#000000;stroke-width:1.5;stroke-linecap:round;stroke-linejoin:round;}
</style>
<g id="Layer_2_1_">
	<g id="Layer_1-2">
		<path class="st0" d="M103.4,333.1L15.7,114.9l-8-24.2l-2.7-1.1l2.3-2.3l5.8,1l6.3,1.6c0,0,22.8,13.1,23.8,13.1s48,24.7,50.5,24.7
			c2.4,0,84.4,45,84.4,45l81.2,42.5c0,0,31.9,17.1,32.9,17.1s5.1,4.3,5.1,4.3l27.4,63.7l1.3,8.4V402H181.6L103.4,333.1z"/>
		<path class="st1" d="M43.2,102.7c-0.9,0-23.8-13.1-23.8-13.1l-6.1-1.6l-5.8-1l-2.4,2.4l2.7,1.1l8,24.4l4.1,10.3l35.9-16.4
			C48.7,105.3,43.5,102.7,43.2,102.7z"/>
		<path class="st1" d="M326,400.9v-92.5l-1.3-8.4l-27.4-63.7c0,0-4.3-4.3-5.1-4.3s-32.9-17.1-32.9-17.1l-81.2-42.5
			c0,0-82.1-45-84.5-45s-49.3-24.7-50.3-24.7c-1,0-23.7-13.1-23.7-13.1l-6.3-1.6l-5.8-1l15,15c0,0,12.7,11.1,17.7,16
			s87.4,105.6,89.8,108c2.4,2.4,77.4,92.8,77.4,92.8l7.3,14l18.4,23.8l58.6,45.2h34.2L326,400.9z"/>
		<polygon class="st0" points="361.8,337.2 512.6,105.9 525.3,87.1 533.1,79.4 533.1,85.1 473.5,214.5 438.6,284.8 409.4,341.5 		
			"/>
		<polygon class="st0" points="227.1,503.7 216.3,506.5 150.3,418.9 121.3,383.1 107.2,366.3 92.6,341.5 114.8,336.1 		"/>
		<polygon class="st0" points="329.3,315.8 329.3,307.6 276.8,294.9 278.3,301.4 		"/>
		<path class="st1" d="M276.8,294.9l-3.1,2.1l-11.8,11.7c0,0-16.2,26.2-17.4,27.4c-1.1,1.1-30.5,47.3-30.5,47.3L199.9,402l43.9,23.8
			l37.5-120.4L276.8,294.9z"/>
		<path class="st0" d="M118.5,328.8l-40,3.8c0,0-36.8,54.7-38.2,56.2c-1.4,1.4-16.4,18.8-18.2,20.7c-1.9,1.9-6.7,11.7-6.7,12.7
			s-1.6,3.6,0,3.6s6.7-3,6.7-3l6.6-6.6l7.3-0.9l44.6-37.9c0,0,15.1-13.3,16-14c0.9-0.7,10.8-14.4,10.8-14.4v-9L118.5,328.8z"/>
		<path class="st0" d="M107.2,348.7V340l7.6-7.6l-12.4,6.6l-19,13.5l-52.3,52.2c-0.7,0.7-11.7,10-11.7,11.7c0,0.9-1.9,5.4-3.7,9.3
			c2.3-0.7,4.4-1.7,6.4-3l6.6-6.6l7.3-0.9l44.6-37.9c0,0,15.1-13.3,16-14S107.2,348.7,107.2,348.7z"/>
		<polygon class="st1" points="118.5,328.8 250.9,420 238.8,520.6 190.5,450.2 166.8,416.6 150,397.1 137.7,377.2 121.2,354.6 
			111.5,343.3 107.2,340 		"/>
		<path class="st0" d="M223.8,457.5c0,0,8.7,45.5,8.7,46.5c0,1,2.3,8.6,2.3,8.6l4,8.1h2.6l43.2-59.7L223.8,457.5z"/>
		<polygon class="st0" points="223.8,457.5 225,448.9 247.9,390.6 263.7,346.7 269.6,324.7 273.6,313.7 275.1,297 279,297 
			373.3,332.4 358.9,386.4 		"/>
		<polygon class="st1" points="274.8,299.4 273.6,313.7 269.6,324.7 263.7,346.7 247.9,390.6 225,448.9 223.8,457.5 286.2,424.7 
			288.8,399.9 284.5,314.7 		"/>
		<path class="st0" d="M223.8,457.5l40.3,12.8h6.7l101.3-17.1l42.8-10.4l80.5-9.8c0,0,47.6-6.1,50.6-9.1c3-3,25.1-8,28.1-8
			s20.8-6,20.8-6v-5.6l-78.2-45.7l-56.2-28.1l-25.7-13.4l-61.6,15.2l-74.1,74.1L223.8,457.5z"/>
		<path class="st0" d="M549.2,401.9c2.4,0,28.2,3.1,45.7,5.4v-3l-78.2-45.7l-56.2-28.1l-25.7-13.4l-61.6,15.2l-74.1,74.1l40,2.7
			c0,0,91.4,1.1,95.2-2.7C438.3,402.6,545.5,401.9,549.2,401.9z"/>
		<path class="st2" d="M435,317.1l-61.6,15.2l-74.1,74.1l-75.4,51c0,0,8.7,45.5,8.7,46.5c0,1,2.3,8.6,2.3,8.6"/>
		<line class="st2" x1="118.5" y1="328.8" x2="78.4" y2="332.6"/>
		<line class="st2" x1="118.5" y1="328.8" x2="239.5" y2="412"/>
		<path class="st0" d="M114.8,332.5l-12.4,6.6l-19,13.5l-52.3,52c-0.7,0.7-11.7,10-11.7,11.7c0,0.9-1.9,5.4-3.7,9.3"/>
		<path class="st0" d="M208.4,390.6l5.7-7.4c0,0,29.4-46.2,30.5-47.3c1.1-1.1,17.2-27.4,17.2-27.4l11.8-11.8l3.1-2.1l52.4,12.7"/>
		<polyline class="st2" points="373.3,332.4 279,297 275.1,297 273.6,313.7 269.6,324.7 263.7,346.7 247.9,390.6 225,448.9 
			223.8,457.5 		"/>
		<path class="st0" d="M96.4,363.3c0.9-0.9,10.8-14.4,10.8-14.4V340"/>
		<polyline class="st0" points="238.8,520.6 190.5,450.2 166.8,416.6 150,397.1 137.7,377.2 121.2,354.6 111.5,343.3 107.2,340 		
			"/>
	</g>
</g>
</svg>
