<?xml version="1.0" encoding="utf-8"?>
<!-- Generator: Adobe Illustrator 25.0.0, SVG Export Plug-In . SVG Version: 6.00 Build 0)  -->
<svg version="1.1" id="Layer_1" xmlns="http://www.w3.org/2000/svg" xmlns:xlink="http://www.w3.org/1999/xlink" x="0px" y="0px"
	 viewBox="0 0 414.1 310.2" style="enable-background:new 0 0 414.1 310.2;" xml:space="preserve">
<style type="text/css">
	*{vector-effect:non-scaling-stroke}
	.st0{fill:#FFFFFF;stroke:#000000;stroke-width:1.5;stroke-linecap:round;stroke-linejoin:round;}
	.st1{fill:#FFFFFF;stroke:#000000;stroke-width:0.5;stroke-linecap:round;stroke-linejoin:round;}
	.st2{fill:none;stroke:#000000;stroke-width:1.5;stroke-linecap:round;stroke-linejoin:round;}
</style>
<g id="Layer_2_1_">
	<g id="Layer_1-2">
		<path class="st0" d="M69.1,178.1L7.6,25L2,8L0.1,7.2l1.6-1.6l4.1,0.7l4.4,1.1c0,0,16,9.2,16.7,9.2s33.7,17.3,35.4,17.3
			s59.2,31.6,59.2,31.6l57,29.8c0,0,22.4,12,23.1,12s3.6,3,3.6,3l19.2,44.7l0.9,5.9v65.6H124L69.1,178.1z"/>
		<path class="st1" d="M26.9,16.5c-0.6,0-16.7-9.2-16.7-9.2L5.9,6.2L1.8,5.5L0.1,7.2L2,8l5.6,17.1l2.9,7.2l25.2-11.5
			C30.7,18.3,27.1,16.5,26.9,16.5z"/>
		<path class="st1" d="M225.3,225.7v-64.9l-0.9-5.9l-19.2-44.7c0,0-3-3-3.6-3s-23.1-12-23.1-12l-57-29.8c0,0-57.6-31.6-59.3-31.6
			S27.6,16.5,26.9,16.5S10.3,7.3,10.3,7.3L5.9,6.2L1.8,5.5l10.5,10.5c0,0,8.9,7.8,12.4,11.2s61.3,74.1,63,75.8s54.3,65.1,54.3,65.1
			l5.1,9.8l12.9,16.7l41.1,31.7h24L225.3,225.7z"/>
		<polygon class="st0" points="250.4,181 356.2,18.7 365.1,5.5 370.6,0.1 370.6,4.1 328.8,94.9 304.3,144.2 283.8,184 		"/>
		<polygon class="st0" points="155.9,297.8 148.3,299.8 102,238.3 81.7,213.2 71.8,201.4 61.5,184 77.1,180.2 		"/>
		<polygon class="st0" points="227.6,166 227.6,160.2 190.8,151.3 191.8,155.9 		"/>
		<path class="st1" d="M190.8,151.3l-2.2,1.5l-8.3,8.2c0,0-11.4,18.4-12.2,19.2s-21.4,33.2-21.4,33.2l-9.9,13.1l30.8,16.7l26.3-84.5
			L190.8,151.3z"/>
		<path class="st0" d="M79.7,175.1l-28.1,2.7c0,0-25.8,38.4-26.8,39.4s-11.5,13.2-12.8,14.5s-4.7,8.2-4.7,8.9s-1.1,2.5,0,2.5
			s4.7-2.1,4.7-2.1l4.6-4.6l5.1-0.6l31.3-26.6c0,0,10.6-9.3,11.2-9.8s7.6-10.1,7.6-10.1V183L79.7,175.1z"/>
		<path class="st0" d="M71.8,189.1V183l5.3-5.3l-8.7,4.6l-13.3,9.5l-36.7,36.6c-0.5,0.5-8.2,7-8.2,8.2c0,0.6-1.3,3.8-2.6,6.5
			c1.6-0.5,3.1-1.2,4.5-2.1l4.6-4.6l5.1-0.6l31.3-26.6c0,0,10.6-9.3,11.2-9.8S71.8,189.1,71.8,189.1z"/>
		<polygon class="st1" points="79.7,175.1 172.6,239.1 164.1,309.7 130.2,260.3 113.6,236.7 101.8,223 93.2,209.1 81.6,193.2 
			74.8,185.3 71.8,183 		"/>
		<path class="st0" d="M153.6,265.4c0,0,6.1,31.9,6.1,32.6s1.6,6,1.6,6l2.8,5.7h1.8l30.3-41.9L153.6,265.4z"/>
		<polygon class="st0" points="153.6,265.4 154.4,259.4 170.5,218.5 181.6,187.7 185.7,172.2 188.5,164.5 189.6,152.8 192.3,152.8 
			258.5,177.6 248.4,215.5 		"/>
		<polygon class="st1" points="189.4,154.5 188.5,164.5 185.7,172.2 181.6,187.7 170.5,218.5 154.4,259.4 153.6,265.4 197.4,242.4 
			199.2,225 196.2,165.2 		"/>
		<path class="st0" d="M153.6,265.4l28.3,9h4.7l71.1-12l30-7.3l56.5-6.9c0,0,33.4-4.3,35.5-6.4s17.6-5.6,19.7-5.6S414,232,414,232
			v-3.9L359.1,196l-39.4-19.7l-18-9.4l-43.2,10.7l-52,52L153.6,265.4z"/>
		<path class="st0" d="M381.9,226.4c1.7,0,19.8,2.2,32.1,3.8v-2.1L359.1,196l-39.4-19.7l-18-9.4l-43.2,10.7l-52,52l28.1,1.9
			c0,0,64.1,0.8,66.8-1.9S379.3,226.4,381.9,226.4z"/>
		<path class="st2" d="M301.8,166.9l-43.2,10.7l-52,52l-52.9,35.8c0,0,6.1,31.9,6.1,32.6s1.6,6,1.6,6"/>
		<line class="st0" x1="79.7" y1="175.1" x2="51.6" y2="177.8"/>
		<line class="st0" x1="79.7" y1="175.1" x2="164.6" y2="233.5"/>
		<path class="st0" d="M77.1,177.7l-8.7,4.6l-13.3,9.5l-36.7,36.5c-0.5,0.5-8.2,7-8.2,8.2c0,0.6-1.3,3.8-2.6,6.5"/>
		<path class="st0" d="M142.8,218.5l4-5.2c0,0,20.6-32.4,21.4-33.2s12.1-19.2,12.1-19.2l8.3-8.3l2.2-1.5l36.8,8.9"/>
		<polyline class="st2" points="258.5,177.6 192.3,152.8 189.6,152.8 188.5,164.5 185.7,172.2 181.6,187.7 170.5,218.5 154.4,259.4 
			153.6,265.4 		"/>
		<path class="st0" d="M64.2,199.3c0.6-0.6,7.6-10.1,7.6-10.1V183"/>
		<polyline class="st0" points="164.1,309.7 130.2,260.3 113.6,236.7 101.8,223 93.2,209.1 81.6,193.2 74.8,185.3 71.8,183 		"/>
	</g>
</g>
</svg>
