<?xml version="1.0" encoding="utf-8"?>
<!-- Generator: Adobe Illustrator 25.2.0, SVG Export Plug-In . SVG Version: 6.00 Build 0)  -->
<svg version="1.1" id="Layer_2" xmlns="http://www.w3.org/2000/svg" xmlns:xlink="http://www.w3.org/1999/xlink" x="0px" y="0px"
	 viewBox="0 0 600 600" style="enable-background:new 0 0 600 600;" xml:space="preserve">
<style type="text/css">
	*{vector-effect:non-scaling-stroke}
	.st0{fill:none;stroke:#000000;stroke-width:0.5;stroke-linecap:round;stroke-linejoin:round;stroke-miterlimit:10;}
	.st1{fill:none;stroke:#000000;stroke-width:1.5;stroke-linecap:round;stroke-linejoin:round;stroke-miterlimit:10;}
</style>
<path d="M238.6,511.3l-13.2,6.2l-25.5-21.1l0,0c-8.3-6.9-24-8.6-35.1-3.4c-10.7,5-13.1,14.8-4.8,21.7l5.1,4.2l-13.2,6.2l-5.1-4.2
	l0,0l0,0l0,0c-8.3-6.9-24-8.6-35.1-3.4c-10.7,5-13.1,14.8-4.5,21.9l0,0l5.1,4.2l-13.2,6.2l-50.1-41.5l13.2-6.2l25.5,21.1
	c2.2-5.1,7.3-10,14.7-13.5c10.7-5,24.1-6.3,36.6-3.9c0.1-7.9,5.5-15.8,16.2-20.8c18.2-8.5,44.5-5.9,58.6,5.7l0,0L238.6,511.3z
	 M177.7,460.9l-33,15.4l0,0c-9.1,4.2-19.8,5.5-30.5,4.7l2.2-10.5c6.3,0.4,12.4-0.4,17.8-2.9l33-15.4L177.7,460.9z M67.9,446.4
	c54.5-25.4,132.9-17.7,175,17.1s32,83.7-22.5,109.1c-54.5,25.4-132.9,17.7-175-17.1S13.4,471.8,67.9,446.4 M57.7,438
	c-61.5,28.7-73.3,84.1-25.5,123.7C79.7,601,168.7,610,230.6,581.1c61.5-28.7,73.3-84.1,25.5-123.7C208.6,418,119.2,409.3,57.7,438
	L57.7,438z"/>
<ellipse transform="matrix(0.8567 -0.5157 0.5157 0.8567 -76.5008 190.5824)" class="st0" cx="304.8" cy="233" rx="129.2" ry="155"/>
<path class="st0" d="M228.2,98.3c1.1-0.7,2.2-1.4,3.3-2.1C292.6,59.4,378,89,422.1,162.4s30.4,162.6-30.7,199.4"/>
<path class="st0" d="M186.3,139.4c10.4-25.3,27.8-46.8,51.6-61.2c67.2-40.4,160.2-9.1,207.8,69.9s31.7,175.9-35.5,216.3
	c-23.1,13.9-49.3,19.3-75.6,17.2"/>
<path class="st1" d="M281.5,62.3c63.4-21.2,139.2,9.4,179.7,76.6c40.1,66.7,32.1,147.3-15.3,193.6"/>
<path class="st1" d="M397.5,76.1c4.6-4.9,10-9.3,16.1-12.9C450.8,40.8,499.8,54,523,92.6c23.2,38.6,11.9,88.1-25.3,110.5
	c-3.9,2.4-8,4.3-12.1,5.9"/>
<path class="st0" d="M428,56.5c1.7-0.8,3.3-1.6,5.1-2.4c36.8-15.5,79.1,0.1,98.9,33.1c19.8,33,13.9,77.6-17.1,102.9
	c-1.5,1.2-2.9,2.3-4.5,3.4"/>
<path class="st0" d="M406.1,68.5c7.2-20.9,21.3-39.5,41.6-51.7c46.4-27.9,107-12.2,135.4,35s13.9,108.2-32.4,136.1
	c-16,9.6-33.6,14-51,13.8"/>
<path class="st0" d="M186.3,139.4c10-23.9,26.5-44.1,49-57.6c65.2-39.3,156.3-7.7,203.4,70.6s32.4,173.6-32.8,212.8
	c-22.6,13.6-48.3,18.7-74.2,16.3"/>
<path class="st0" d="M198.5,122.5c9.2-13.7,21.2-25.4,35.8-34.2c63.2-38.1,151.5-7.4,197.2,68.4S462.9,325,399.7,363
	c-14.6,8.8-30.5,13.9-46.9,15.7"/>
<ellipse transform="matrix(0.8567 -0.5157 0.5157 0.8567 -76.5008 190.5824)" class="st0" cx="304.8" cy="233" rx="115.9" ry="139"/>
<g>
	<path class="st0" d="M319.1,153.9l-10.1,8l21.6,29.5c-5.3,0.2-10.4,1.9-14.9,5c-1.3,0.7-2.5,1.5-3.7,2.4
		c-7.7,6.1-11.5,15.6-11.3,26.1c-8.9-2.5-18.3-1.6-25.7,3.6c-1.2,0.7-2.4,1.5-3.6,2.4c-13.9,11-15.1,34.1-2.5,51.2l22.2,30.3
		l2.5-1.5l10.1-8L281,271.8c-7.4-10.1-7-23.9,1.5-30.7c0.1,0,0.1-0.1,0.2-0.1c8.2-4.2,19.3-1.2,25.9,7.9l4.6,6.2l2.5-1.5l10.1-8
		l-4.6-6.2c-7.4-10.1-7-23.9,1.5-30.7c0.1,0,0.1-0.1,0.2-0.1c8.2-4.2,19.3-1.1,26.2,8.3l4.6,6.2l2.5-1.5l10.1-8l-44.7-61
		L319.1,153.9z"/>
	<path class="st0" d="M275.7,193.7l-13.8-3.2l-2.5,1.5c-0.6,5.4-2.6,10.1-6.7,13.3l-25.3,20.1l9.4,12.8l2.5-1.5l25.3-20.1
		C271.5,211.1,275,202.9,275.7,193.7z"/>
	<path class="st0" d="M390.6,165.5c-42.7-58.3-115.8-74.7-163-37.3c-47.1,37.4-51,115.4-8.5,173.3c42.7,58.3,115.8,74.7,163,37.3
		C429.6,301.1,433.1,223.4,390.6,165.5z M373,326.3c-41.8,33.1-106.1,18.4-143.7-32.9c-37.6-51.3-34.3-119.7,7.5-152.8
		c41.8-33.1,106.1-18.4,143.7,32.9S414.7,293.2,373,326.3z"/>
</g>
<path class="st1" d="M583.2,51.9c-28.4-47.3-89.1-62.9-135.4-35c-20.2,12.2-34.4,30.6-41.5,51.5c-3.1,2.4-6.1,5-8.7,7.9l0,0
	c-36.4-20.7-78.4-26.4-116-13.8l0,0c-15.2,2.5-29.9,7.7-43.5,16c-23.9,14.4-41.3,35.9-51.6,61.2l0,0
	c-25.8,43.9-24.6,106.4,7.8,160.2c32.9,54.7,88.7,85,140.3,81.7l0.2,0.4c26.3,2.1,52.5-3.3,75.6-17.2c14.1-8.5,25.9-19.5,35.4-32.2
	l0.1,0.2c31.5-30.8,45.6-76.7,39.8-123.6l0,0c4.1-1.6,8.2-3.6,12.1-5.9c0.7-0.4,1.4-0.9,2-1.3c17.4,0.2,35.1-4.2,51-13.8
	C597.2,160.1,611.7,99.1,583.2,51.9z"/>
<path class="st0" d="M269,282.2L269,282.2c-12.5-17.1-11.4-40.1,2.5-51.2c8.2-6.5,19.2-7.2,29.4-3.6c-1-11.5,2.9-22,11.1-28.5
	c5.7-4.5,12.8-6.5,19.7-5.8L309,162l10.1-8l44.7,61l-10.1,8l-4.6-6.2l0,0c-7.7-10.5-20.6-13.1-28.9-6.6c-8.5,6.8-8.9,20.6-1.5,30.7
	l0,0l0,0l0,0l4.6,6.2l-10.1,8l-4.6-6.2c-7.4-10.1-20.4-12.7-28.6-6.2c-8.5,6.8-8.9,20.6-1.5,30.7l0,0l22.8,31.1l-10.1,8L269,282.2z"
	/>
<path class="st0" d="M227.4,225.4l25.3-20.1c4.1-3.3,6.2-8,6.7-13.3l13.8,3.2c-0.8,9.2-4.2,17.5-11.2,23l0,0l-25.3,20.1L227.4,225.4
	z"/>
</svg>
