<?xml version="1.0" encoding="utf-8"?>
<!-- Generator: Adobe Illustrator 25.0.0, SVG Export Plug-In . SVG Version: 6.00 Build 0)  -->
<svg version="1.1" id="Layer_1" xmlns="http://www.w3.org/2000/svg" xmlns:xlink="http://www.w3.org/1999/xlink" x="0px" y="0px"
	 viewBox="0 0 427.2 309.3" style="enable-background:new 0 0 427.2 309.3;" xml:space="preserve">
<style type="text/css">
	*{vector-effect:non-scaling-stroke}
	.st0{fill:none;stroke:#000000;stroke-width:1.5;stroke-miterlimit:10;}
	.st1{fill:#FFFFFF;stroke:#000000;stroke-width:0.5;stroke-linecap:round;stroke-linejoin:round;}
	.st2{fill:none;stroke:#000000;stroke-width:1.5;stroke-linecap:round;stroke-linejoin:round;}
	.st3{fill:#FFFFFF;}
	.st4{fill:none;stroke:#000000;stroke-width:0.5;stroke-linecap:round;stroke-linejoin:round;}
</style>
<g id="Layer_2_1_">
	<g id="Layer_1-2">
		<rect x="59.3" y="279.3" class="st0" width="28.5" height="28.5"/>
		<rect x="339.9" y="279.3" class="st0" width="28.5" height="28.5"/>
		<path d="M376.2,274.8c-1-1-2.6-1-3.6,0c-5.4,4.4-11,8.7-16.2,13.2c-0.5-0.4-1-0.9-1.5-1.3c-2.5-2.1-5-4.2-7.6-6.2
			c-1.2-1.2-2.6-2.2-4.1-3c-2-0.8-3.4,1.4-3.1,3.1c0.4,2,2.2,4.3,3.6,5.8c0.8,0.9,2.2,1.1,3.1,0.3c0,0,0.1,0,0.1-0.1
			c1.5,1.2,3,2.5,4.5,3.7l1.3,1.1c-2.4,2.2-4.6,4.5-6.8,6.9c-2.1,2.5,1.5,6,3.6,3.6c2.2-2.5,4.5-4.9,7-7.2c1,0.9,2.1,1.9,3.1,2.9
			c1,1,2.2,2.1,3.2,3.3c0.8,0.8,1.4,1.6,2,2.6c1.7,2.8,6.1,0.2,4.4-2.6c-1.6-2.4-3.6-4.7-5.8-6.6c-1-1-2-2-3.1-2.9
			c5.2-4.5,10.7-8.6,16-13C377.1,277.4,377.1,275.8,376.2,274.8z"/>
		<path class="st1" d="M141,236.4c0,3.1-2.5,5.6-5.6,5.6c-3.1,0-5.6-2.5-5.6-5.6c0-3.1,2.5-5.6,5.6-5.6
			C138.5,230.8,141,233.3,141,236.4C141,236.4,141,236.4,141,236.4z"/>
		<path class="st1" d="M142.8,237.2c0,3.2-2.6,5.8-5.8,5.8c-3.2,0-5.8-2.6-5.8-5.8c0-3.2,2.6-5.8,5.8-5.8l0,0
			C140.2,231.4,142.8,234,142.8,237.2z"/>
		<path class="st1" d="M144.5,238.1c0,3.3-2.7,5.9-5.9,5.9c-3.3,0-5.9-2.7-5.9-5.9c0-3.3,2.7-5.9,5.9-5.9c0,0,0,0,0,0
			C141.8,232.2,144.5,234.8,144.5,238.1z"/>
		<path class="st1" d="M121.7,265c0,3.1-2.5,5.6-5.6,5.6c-3.1,0-5.6-2.5-5.6-5.6s2.5-5.6,5.6-5.6c0,0,0,0,0,0
			C119.2,259.4,121.7,261.9,121.7,265C121.7,264.9,121.7,265,121.7,265z"/>
		<path class="st1" d="M123.5,265.7c0,3.2-2.6,5.8-5.8,5.8s-5.8-2.6-5.8-5.8c0-3.2,2.6-5.8,5.8-5.8l0,0
			C120.9,259.9,123.5,262.5,123.5,265.7C123.5,265.7,123.5,265.7,123.5,265.7z"/>
		<path class="st1" d="M125.2,266.7c0,3.3-2.6,6-5.9,6c-3.3,0-6-2.6-6-5.9s2.6-6,5.9-6c0,0,0,0,0,0
			C122.5,260.7,125.2,263.3,125.2,266.7C125.2,266.6,125.2,266.6,125.2,266.7z"/>
		<circle class="st1" cx="30.9" cy="264.3" r="5.6"/>
		<path class="st1" d="M38.3,265c0,3.2-2.6,5.8-5.8,5.8c-3.2,0-5.8-2.6-5.8-5.8c0-3.2,2.6-5.8,5.8-5.8c0,0,0,0,0,0
			C35.7,259.2,38.3,261.8,38.3,265C38.3,265,38.3,265,38.3,265z"/>
		<path class="st1" d="M40,266c0,3.3-2.6,6-5.9,6c-3.3,0-6-2.6-6-5.9c0-3.3,2.6-6,5.9-6c0,0,0,0,0,0C37.3,260.1,39.9,262.7,40,266z"
			/>
		<path class="st1" d="M15.7,236.8c0,3.1-2.5,5.6-5.6,5.6c-3.1,0-5.6-2.5-5.6-5.6c0-3.1,2.5-5.6,5.6-5.6c0,0,0,0,0,0
			C13.2,231.3,15.7,233.8,15.7,236.8C15.7,236.8,15.7,236.8,15.7,236.8z"/>
		<path class="st1" d="M17.5,237.6c0,3.2-2.6,5.8-5.8,5.8c-3.2,0-5.8-2.6-5.8-5.8s2.6-5.8,5.8-5.8l0,0
			C14.9,231.8,17.5,234.4,17.5,237.6C17.5,237.6,17.5,237.6,17.5,237.6z"/>
		<path class="st1" d="M19.2,238.5c0,3.3-2.7,5.9-5.9,5.8c-3.3,0-5.9-2.7-5.8-5.9c0-3.2,2.7-5.8,5.9-5.8
			C16.6,232.6,19.2,235.2,19.2,238.5C19.2,238.5,19.2,238.5,19.2,238.5z"/>
		<path class="st2" d="M140.4,232.5c-0.7-0.6-1.6-0.9-2.5-1.1c-0.8-0.4-1.6-0.6-2.5-0.6c-3.1,0-5.6,2.5-5.6,5.6c0,2.2,1.3,4.1,3.3,5
			c0.5,0.4,1,0.7,1.6,1c2.4,2.2,6.2,1.9,8.3-0.5c2.2-2.4,1.9-6.2-0.5-8.3C141.9,233.1,141.2,232.7,140.4,232.5L140.4,232.5z"/>
		<path class="st2" d="M121.2,261.1c-0.7-0.5-1.6-0.9-2.5-1.1c-0.8-0.4-1.6-0.6-2.5-0.6c-3.1,0-5.6,2.5-5.6,5.5
			c0,2.2,1.3,4.2,3.3,5.1c0.5,0.4,1,0.7,1.6,1c2.4,2.2,6.2,1.9,8.3-0.5c2.2-2.4,1.9-6.2-0.5-8.3
			C122.6,261.7,121.9,261.3,121.2,261.1L121.2,261.1z"/>
		<path class="st2" d="M35.9,260.4c-0.7-0.6-1.6-0.9-2.5-1.1c-2.6-1.6-6-0.8-7.6,1.9c-1.6,2.6-0.8,6,1.9,7.6c0.3,0.2,0.6,0.3,1,0.5
			c0.5,0.4,1,0.7,1.6,1c2.4,2.2,6.2,1.9,8.3-0.5c2.2-2.4,1.9-6.2-0.5-8.3C37.4,261,36.7,260.6,35.9,260.4L35.9,260.4z"/>
		<path class="st2" d="M15.1,232.9c-0.7-0.6-1.6-0.9-2.5-1.1c-0.8-0.4-1.6-0.6-2.5-0.6c-3.1,0-5.6,2.5-5.6,5.6
			c0,2.2,1.3,4.2,3.3,5.1c1.6,1.2,3.5,2.1,5.4,2.5c3.3,0,5.9-2.7,5.9-5.9C19.1,236,17.5,233.7,15.1,232.9L15.1,232.9z"/>
		<path class="st1" d="M69.3,211.9v32.5c0,0.3,1.8,0.6,4.1,0.6c2.3,0,4.1-0.2,4.1-0.6v-32.5H69.3z"/>
		<path class="st1" d="M73.3,221.4c21.5,1.3,46.1-0.7,62.1,5.4c0,0,6.2,3.5,4,2.9c-11.6-3.5-30.5-5.4-51.4-3.8
			c10.3,4.9,27.8,18.8,36.7,29.1c0.3,0.4,0.7,1.5,0.1,2c-1,0.8-2.9,1.7-6.3,1.2c-1-0.3-1.9-0.7-2.8-1.2
			c-12.2-9.9-25.9-22.2-42.4-27.4c-16.5,5.2-30.2,17.5-42.4,27.4c-0.9,0.5-1.8,0.9-2.8,1.2c-3.4,0.5-5.3-0.5-6.3-1.2
			c-0.6-0.5-0.2-1.6,0.1-2c8.8-10.3,26.4-24.2,36.6-29.1c-20.8-1.6-39.8,0.4-51.4,3.8c-2.1,0.6,4-2.9,4-2.9
			C27.2,220.7,51.9,220.2,73.3,221.4z"/>
		<path class="st1" d="M125.2,259.4L125.2,259.4v-4.2l0,0c0,0.3-0.1,0.5-0.3,0.7c-0.6,0.5-1.3,0.8-2,1h-0.1c-0.3,0.1-0.7,0.2-1,0.2
			c-1.1,0.2-2.1,0.2-3.2,0c-1-0.3-1.9-0.7-2.8-1.2c-12.2-9.9-25.9-22.2-42.4-27.4c-16.5,5.2-30.2,17.5-42.4,27.4
			c-0.9,0.5-1.8,0.9-2.8,1.2c-1.1,0.2-2.1,0.2-3.2,0c-0.3,0-0.7-0.1-1-0.2h-0.1c-0.7-0.2-1.4-0.6-2.1-1c-0.2-0.2-0.3-0.4-0.3-0.7
			l0,0v4.2l0,0c0,0.3,0.1,0.6,0.3,0.9c1,0.8,2.9,1.7,6.3,1.3c1-0.3,1.9-0.7,2.8-1.2c12.2-9.9,25.9-20,42.4-25.2
			c16.5,5.2,30.2,15.3,42.4,25.2c0.9,0.5,1.8,0.9,2.8,1.2c3.4,0.5,5.3-0.5,6.3-1.3C125.1,260.1,125.2,259.8,125.2,259.4z"/>
		<path class="st1" d="M51.4,229.9L51.4,229.9c1.4-0.9,2.8-1.8,4-2.5l0.1-0.1c0.6-0.4,1.2-0.7,1.8-1l0.1-0.1
			c0.9-0.5,1.7-0.9,2.6-1.3c-20.8-1.6-39.8,0.4-51.4,3.8c-0.5,0.1-0.5,0.1-0.4-0.1H8.2v4.5l0,0c0,0,0.2,0,0.4-0.1
			C18.6,230.1,35.1,228,51.4,229.9z"/>
		<path class="st1" d="M95.3,229.9L95.3,229.9c-1.4-0.9-2.8-1.7-4-2.5l-0.1-0.1c-0.6-0.4-1.2-0.7-1.8-1l-0.1-0.1
			c-0.9-0.5-1.7-0.9-2.5-1.3c20.8-1.6,39.8,0.4,51.4,3.8c0.4,0.1,0.5,0.1,0.4-0.1h0.1v4.5l0,0c0,0-0.2,0-0.4-0.1
			C128.1,230.1,111.6,228,95.3,229.9z"/>
		<path class="st1" d="M49.9,230.9L49.9,230.9c1.4-0.9,2.8-1.8,4-2.5l0.1-0.1c0.6-0.4,1.2-0.7,1.8-1l0.1-0.1
			c0.9-0.5,1.7-0.9,2.5-1.3c-20.8-1.6-39.8,0.4-51.4,3.8c-0.4,0.1-0.5,0.1-0.4-0.1H6.7v4.5l0,0c0,0,0.2,0,0.4-0.1
			C17,231.1,33.6,229,49.9,230.9z"/>
		<path class="st1" d="M96.8,230.9L96.8,230.9c-1.4-0.9-2.8-1.8-4-2.5l-0.1-0.1c-0.6-0.4-1.2-0.7-1.8-1l-0.1-0.1
			c-0.9-0.5-1.7-0.9-2.6-1.3c20.8-1.6,39.8,0.4,51.4,3.8c0.5,0.1,0.5,0.1,0.4-0.1h0.1v4.5l0,0c0,0-0.2,0-0.4-0.1
			C129.7,231.1,113.1,229,96.8,230.9z"/>
		<path class="st1" d="M125.2,260.4L125.2,260.4v-4.2l0,0c0,0.3-0.1,0.5-0.3,0.7c-0.6,0.5-1.3,0.8-2,1h-0.1c-0.3,0.1-0.7,0.2-1,0.2
			c-1.1,0.2-2.1,0.2-3.2,0c-1-0.3-1.9-0.7-2.8-1.2c-12.2-9.9-25.9-22.2-42.4-27.4c-16.5,5.2-30.2,17.5-42.4,27.4
			c-0.9,0.5-1.8,0.9-2.8,1.2c-1.1,0.2-2.1,0.2-3.2,0c-0.3,0-0.7-0.1-1-0.2h-0.1c-0.7-0.2-1.4-0.6-2.1-1c-0.2-0.2-0.3-0.4-0.3-0.7
			l0,0v4.2l0,0c0,0.3,0.1,0.6,0.3,0.9c1,0.8,2.9,1.7,6.3,1.2c1-0.3,1.9-0.7,2.8-1.2c12.2-9.9,25.9-20,42.4-25.2
			c16.5,5.2,30.2,15.3,42.4,25.2c0.9,0.5,1.8,0.9,2.8,1.2c3.4,0.5,5.3-0.5,6.3-1.2C125.1,261.1,125.2,260.8,125.2,260.4z"/>
		<path class="st1" d="M62.6,224c0,2.3,4.8,4.2,10.8,4.2c5.9,0,10.7-1.9,10.7-4.2s-4.8-4.2-10.7-4.2C67.4,219.7,62.6,221.6,62.6,224
			z"/>
		<path class="st1" d="M62.6,223.1c0,2.3,4.8,4.2,10.8,4.2c5.9,0,10.7-1.9,10.7-4.2s-4.8-4.2-10.7-4.2
			C67.4,218.9,62.6,220.7,62.6,223.1z"/>
		<path class="st1" d="M73.3,191.3c-3,0-5.4,0.7-5.4,1.7v29.4c0,0.4,1.1,1.5,5.4,1.5c4.4,0,5.4-1.1,5.4-1.5v-29.4
			C78.8,192,76.3,191.3,73.3,191.3z"/>
		<path class="st1" d="M67.9,192.9c0,0.9,2.4,1.7,5.4,1.7c3,0,5.4-0.7,5.4-1.7s-2.4-1.7-5.4-1.7C70.4,191.3,67.9,192,67.9,192.9z"/>
		<path class="st1" d="M70.5,157.7v34.9c0,0.2,1.3,0.4,2.9,0.4c1.6,0,2.9-0.2,2.9-0.4v-34.9H70.5z"/>
		<path class="st2" d="M139.9,229.6L139.9,229.6c-1.4-1-2.9-2-4.4-2.8c-13.5-5.2-33.1-4.5-51.8-4.9c-0.8-1-2.6-1.9-4.9-2.4v-26.5
			c0-0.6-1-1.1-2.6-1.4v-33.8h-5.7v33.8c-1.5,0.3-2.6,0.8-2.6,1.4v26.5c-1.4,0.3-2.8,0.8-4,1.6c-19-0.6-39,0.5-52.7,5.8
			c-1.5,0.8-3,1.8-4.4,2.8H6.8v4.5l0,0c0,0,0.2,0,0.4-0.1c9.9-3,26.4-5.1,42.7-3.1H50c0.7-0.5,1.4-0.9,2-1.3
			c-10.1,6.4-23,17-30.1,25.4c-0.1,0.2-0.3,0.4-0.3,0.6c0-0.1-0.1-0.2-0.1-0.4l0,0v5.1l0,0c0,0.3,0.1,0.6,0.3,0.9
			c1,0.8,2.9,1.7,6.3,1.2c1-0.3,1.9-0.7,2.8-1.2c11.2-9,23.6-18.3,38.3-23.8v6.8c0,0.3,1.8,0.6,4.1,0.6c2.3,0,4.1-0.2,4.1-0.6v-6.8
			c14.7,5.5,27.2,14.7,38.3,23.8c0.9,0.5,1.8,0.9,2.8,1.2c3.4,0.5,5.3-0.5,6.3-1.2c0.2-0.2,0.4-0.5,0.3-0.9l0,0v-4.2l0,0v-1l0,0
			c0,0.1,0,0.2-0.1,0.4c-0.1-0.2-0.2-0.4-0.3-0.6c-7.2-8.4-20-19-30.1-25.4c0.7,0.4,1.4,0.9,2,1.3h0.1c16.3-2,32.9,0.2,42.7,3.1
			c0.2,0.1,0.4,0.1,0.4,0.1l0,0L139.9,229.6L139.9,229.6z"/>
		<path class="st1" d="M135.1,136.1l1.7,1.7c0,0,2.7,6.4-0.3,8.8l-5.4-0.5l-4.5-9.1L135.1,136.1z"/>
		<path class="st1" d="M136.8,146.4c2.5-2.6,0-8.6,0-8.6l-1.7-1.7l-3,0.3L136.8,146.4z"/>
		<polygon class="st1" points="16,135.8 27.7,145.4 47.9,145.4 40.5,134.8 		"/>
		<polygon class="st1" points="22.7,135.5 31.9,145.4 27.7,145.4 16,135.8 		"/>
		<polygon class="st1" points="21,135.6 30.4,145.4 31.9,145.4 22.7,135.5 		"/>
		<path class="st1" d="M14.1,134.8c-2.9,0.4-4.7,1.7-5.6,3.7l3.6,1c1-1.6,2.6-2.7,4.5-3.2L14.1,134.8z"/>
		<path class="st1" d="M42.9,143.5c4,3.5,10.1,12,20.1,14.1c10.1,2.1,20.4,2.9,30.6,2.6c11.2-0.2,27.5-1.3,27.5-1.3v-20.3H42.9
			V143.5z"/>
		<path class="st2" d="M136.8,137.8l-1.7-1.7l-8.5,0.9l4.5,9.1l5.4,0.5C139.5,144.2,136.8,137.8,136.8,137.8z"/>
		<path class="st2" d="M40.5,134.8l-24.5,1l0.6,0.5l-2.4-1.4c-2.9,0.4-4.7,1.7-5.6,3.7l3.6,1c1-1.6,2.6-2.7,4.5-3.2l11.1,9.2h17.2
			c4,4,9.6,10.4,18.1,12.2c10.1,2.1,20.4,2.9,30.6,2.6c11.2-0.2,27.5-1.3,27.5-1.3v-20.4H43.1L40.5,134.8z"/>
		<path class="st1" d="M45.6,143.9c4.9,5.4,10.1,10.1,21.4,11.5c11.3,1.4,16,0.5,13-3.9c-1.7-2.6-3.8-4.9-6.1-6.8L45.6,143.9z"/>
		<path class="st1" d="M67.2,154.8c-10.8-1.3-16-5.8-20.7-10.9h-0.9c4.9,5.4,10.1,10.1,21.4,11.5c8.7,1.1,13.5,0.8,13.9-1.5
			C79.7,155.7,75,155.8,67.2,154.8z"/>
		<path class="st1" d="M53.8,144.2c5,3.8,10.9,7.6,26.3,7.6l-0.1-0.2c-1.7-2.6-3.8-4.9-6.1-6.8L53.8,144.2z"/>
		<path class="st1" d="M22.5,83.7v-4.2l32.1,0.1v3.3C48.8,82.2,33,82.6,22.5,83.7z"/>
		<path class="st3" d="M68.9,7.6c0,21.8,0.1,42.1-3,59.4c-3.1,17.3-5.3,32.4,2.7,53.3l64.4,17.8l4-0.4c-6.7-22.2-13.8-42.6-5.3-65.3
			s12.5-45,8.5-62.8C140.1,9.6,113-7.1,68.9,7.6z"/>
		<path class="st2" d="M68.9,7.6c0,21.8,0.1,42.1-3,59.4c-3.1,17.3-5.3,32.4,2.7,53.3l64.4,17.8l4-0.4c-6.7-22.2-13.8-42.6-5.3-65.3
			s12.5-45,8.5-62.8C140.1,9.6,113-7.1,68.9,7.6z"/>
		<path class="st4" d="M131.6,72.4c8.4-22.7,12.5-45,8.5-62.8c0,0-13.2-8.1-36.1-8c22.1,0.2,34.5,8,34.5,8
			c3.4,17.8-1.4,40.2-10.6,62.8s-2.8,43,3.1,65.2l1.8,0.5l4-0.4C130.3,115.5,123.2,95.1,131.6,72.4z"/>
		<path class="st1" d="M139.8,93.8c-1.2-1.1-10.1-1.7-20.3-1.7s-15.8,1.7-16,4.1c0,0.3-0.2,0.6-0.4,0.9c12.8-1.1,30.8-1.5,37.6-0.9
			v-2C140.4,94.2,140.1,94,139.8,93.8z"/>
		<path class="st3" d="M141.7,93.3c-1.1-4.3-10.4-6.8-24.9-6.8c-10.2,0-33.5,2.5-33.4,6.9s0.2,4.7,7.4,4.7c7.2,0,12.6,0.6,12.8-1.8
			c0.2-2.5,5.9-4.1,16-4.1s19.1,0.7,20.3,1.7C140.8,94.6,141.9,94.4,141.7,93.3z"/>
		<path class="st4" d="M141.7,93.3c-1.1-4.3-10.4-6.8-24.9-6.8c-10.2,0-33.5,2.5-33.4,6.9s0.2,4.7,7.4,4.7c7.2,0,12.6,0.6,12.8-1.8
			c0.2-2.5,5.9-4.1,16-4.1s19.1,0.7,20.3,1.7C140.8,94.6,141.9,94.4,141.7,93.3z"/>
		<path class="st1" d="M127.6,95.8l-12.2,0.4c0,0,4.2,3.2,4.2,6.1s0.6,17.6,0.6,17.6l3-0.5c0,0-0.1-14.8-0.1-16.6
			C123.1,99.4,127.6,95.8,127.6,95.8z"/>
		<polygon class="st1" points="118.4,98.4 120,100.4 122,100.3 124,98.3 		"/>
		<path class="st1" d="M115.4,96.2l-4.8,0.3c0,0,4.4,2.9,4.8,5.8c0.4,3.2,0.9,17.2,0.9,17.2l3.9,0.3c0,0-0.6-14.7-0.6-17.6
			C119.6,99.4,115.4,96.2,115.4,96.2z"/>
		<path class="st3" d="M55.4,80.5c-0.9-3.5-8.5-5.6-20.4-5.6c-8.3,0-27.4,2-27.3,5.7c0.1,3.7,0.1,3.8,6.1,3.8s10.3,0.5,10.4-1.5
			c0.2-2,4.8-3.4,13.1-3.4s15.6,0.6,16.6,1.4C54.6,81.6,55.6,81.4,55.4,80.5z"/>
		<path class="st4" d="M55.4,80.5c-0.9-3.5-8.5-5.6-20.4-5.6c-8.3,0-27.4,2-27.3,5.7c0.1,3.7,0.1,3.8,6.1,3.8s10.3,0.5,10.4-1.5
			c0.2-2,4.8-3.4,13.1-3.4s15.6,0.6,16.6,1.4C54.6,81.6,55.6,81.4,55.4,80.5z"/>
		<path class="st1" d="M40,82.7L30,83c0,0,3.4,2.6,3.4,4.9s0.5,14.4,0.5,14.4l2.4-0.4c0,0-0.1-12.2-0.1-13.6
			C36.3,85.6,40,82.7,40,82.7z"/>
		<polygon class="st1" points="32.9,84.6 34.2,86.2 35.9,86.2 37.5,84.5 		"/>
		<path class="st1" d="M33.9,102.4l2.9-0.4c0,0,3,21.8,8.4,32.6v3l-1.6,1.6l-2-0.9C41.6,138.3,36.3,126.2,33.9,102.4z"/>
		<path class="st1" d="M33.9,102.4l-4-0.4c0,0,1.2,26.8,6.4,36.2l1.8,0.8l5.4,0.3L33.9,102.4z"/>
		<path class="st1" d="M30,83l-3.9,0.2c0,0,3.6,2.4,3.9,4.7c0.3,2.6,0.7,14.1,0.7,14.1l3.2,0.3c0,0-0.5-12-0.5-14.4
			C33.4,85.6,30,83,30,83z"/>
		<polygon class="st1" points="80.1,145.4 101.7,144.6 101.2,139.5 78.7,139.5 		"/>
		<path class="st1" d="M120.2,137.5l-28.4,2.7c2.8,4.7,6.5,11.2,14.6,17.5l17.2,1.3L120.2,137.5z M110.7,152.7
			c-3.3-2.6-6.9-7.1-8.4-11.3h10c1.9,5.2,7.4,12.4,7.4,12.4L110.7,152.7z"/>
		<path class="st1" d="M124.1,137.5l-28.4,2.7c2.8,4.7,6.5,11.2,14.6,17.5l17.2,1.3L124.1,137.5z M110.7,152.7
			c-3.3-2.6-6.9-7.1-8.4-11.3h10c1.9,5.2,7.4,12.4,7.4,12.4L110.7,152.7z"/>
		<path class="st1" d="M119.7,153.8c0,0-5.5-7.2-7.4-12.4h-3.2c1.6,4.4,5.9,10.3,7.1,11.9L119.7,153.8z"/>
		<path class="st1" d="M87.5,140.8c5,1.4,14.6,5.4,19.6,5.9c5,0.5,18.4-1.6,18.4-1.6l-2.8-7.4C122.7,137.8,86.3,132.8,87.5,140.8z"
			/>
		<path class="st3" d="M125.5,130c-9.3-0.7-29.4-2.7-40.8-7.1s-21.3-5.2-36.1-5.9c-14.8-0.8-34.9,0.4-40.3,2.4s-10.2,10.1,1.9,15.4
			c12.1,5.3,36.3,9.9,50.6,11.3s18,0.9,22.5-2.5c4.5-3.4,5.6-3.9,14.5-4s24.3,0.4,29.2-0.3C132.1,138.5,133.9,130.7,125.5,130z"/>
		<path class="st2" d="M125.5,130c-9.3-0.7-29.4-2.7-40.8-7.1s-21.3-5.2-36.1-5.9c-14.8-0.8-34.9,0.4-40.3,2.4s-10.2,10.1,1.9,15.4
			c12.1,5.3,36.3,9.9,50.6,11.3s18,0.9,22.5-2.5c4.5-3.4,5.6-3.9,14.5-4s24.3,0.4,29.2-0.3C132.1,138.5,133.9,130.7,125.5,130z"/>
		<path class="st1" d="M120.2,119.9l-4.7-0.3c0,0,1.4,32.7,7.7,44.1l2.2,1l6.6,0.3L120.2,119.9z"/>
		<path class="st1" d="M120.2,119.9l3.5-0.5c0,0,3.6,26.7,10.3,39.8v3.7l-2,2l-2.4-1.1C129.6,163.8,123.2,149,120.2,119.9z"/>
		<path class="st2" d="M123.2,119.3c0,0-0.1-14.8-0.1-16.6c0-3,3.6-6.2,4.4-6.9c5.6-0.1,10.4,0,13.3,0.3v-2c0.6,0.1,1.1-0.3,0.9-1
			c-1.1-4.3-10.4-6.8-24.9-6.8c-10.2,0-33.5,2.5-33.4,6.9c0.1,4.5,0.2,4.7,7.4,4.7c6.2,0,11,0.5,12.4-1c2.4-0.2,4.9-0.4,7.6-0.6
			c0.5,0.3,4.4,3.1,4.7,5.8c0.4,3.2,0.9,17.2,0.9,17.2"/>
		<path class="st2" d="M115.5,119.5c0,0,1.4,32.7,7.7,44.1l2.2,1l6.6,0.3l2-2v-3.7c-6.7-13.2-10.3-39.8-10.3-39.8"/>
		<path class="st2" d="M39.5,116.7c-1.8-7.9-2.7-14.8-2.7-14.8l-2.9,0.4l2.4-0.4c0,0-0.1-12.2-0.1-13.6c0-2.8,3.7-5.7,3.7-5.7
			l-5.6,0.2c6.7-0.4,13.5-0.4,20.2,0v-1.6c0.5,0.1,0.9-0.2,0.8-0.8c-0.9-3.5-8.5-5.6-20.4-5.6c-8.3,0-27.4,2-27.3,5.7
			c0.1,3.7,0.1,3.8,6.1,3.8c5.1,0,9,0.4,10.1-0.8l2.5-0.2c0.7,0.5,3.5,2.6,3.7,4.6c0.3,2.5,0.7,13.3,0.7,14.1L30,102v0.1
			c0,0,0,0.1,0,0.1v0.1c0,0.1,0,0.1,0,0.2c0,0.1,0,0.1,0,0.2v0.1c0,0.5,0.1,1.2,0.1,2.1v0.1c0,0.2,0,0.4,0,0.7v0.1
			c0.2,2.8,0.5,6.7,1,11"/>
		<path class="st2" d="M30.9,261.4c12.2-9.9,25.9-20,42.4-25.2c16.5,5.2,30.2,15.3,42.4,25.2"/>
		<path class="st1" d="M421.5,236.4c0,3.1-2.5,5.6-5.6,5.6c-3.1,0-5.6-2.5-5.6-5.6c0-3.1,2.5-5.6,5.6-5.6S421.5,233.3,421.5,236.4
			C421.5,236.4,421.5,236.4,421.5,236.4z"/>
		<path class="st1" d="M423.4,237.2c0,3.2-2.6,5.8-5.8,5.8c-3.2,0-5.8-2.6-5.8-5.8c0-3.2,2.6-5.8,5.8-5.8l0,0
			C420.8,231.4,423.4,234,423.4,237.2z"/>
		<path class="st1" d="M425,238.1c0,3.3-2.7,5.9-5.9,5.8c-3.3,0-5.9-2.7-5.8-5.9c0-3.2,2.7-5.8,5.9-5.8
			C422.4,232.2,425,234.8,425,238.1z"/>
		<circle class="st1" cx="396.7" cy="265" r="5.6"/>
		<path class="st1" d="M404.1,265.7c0,3.2-2.6,5.8-5.8,5.8c-3.2,0-5.8-2.6-5.8-5.8c0-3.2,2.6-5.8,5.8-5.8c0,0,0,0,0,0
			C401.5,259.9,404.1,262.5,404.1,265.7C404.1,265.7,404.1,265.7,404.1,265.7z"/>
		<path class="st1" d="M405.8,266.7c0,3.3-2.6,6-5.9,6c-3.3,0-6-2.6-6-5.9s2.6-6,5.9-6c0,0,0,0,0,0
			C403.1,260.7,405.7,263.3,405.8,266.7C405.8,266.6,405.8,266.6,405.8,266.7z"/>
		<circle class="st1" cx="311.5" cy="264.3" r="5.6"/>
		<path class="st1" d="M318.9,265c0,3.2-2.6,5.8-5.8,5.8c-3.2,0-5.8-2.6-5.8-5.8c0-3.2,2.6-5.8,5.8-5.8l0,0
			C316.3,259.2,318.9,261.8,318.9,265z"/>
		<path class="st1" d="M320.5,266c0,3.3-2.6,5.9-5.9,5.9s-5.9-2.6-5.9-5.9c0-3.3,2.6-5.9,5.9-5.9C317.9,260.1,320.5,262.7,320.5,266
			z"/>
		<path class="st1" d="M296.2,236.8c0,3.1-2.5,5.6-5.6,5.6c-3.1,0-5.6-2.5-5.6-5.6s2.5-5.6,5.6-5.6
			C293.7,231.3,296.2,233.8,296.2,236.8C296.2,236.8,296.2,236.8,296.2,236.8z"/>
		<path class="st1" d="M298.1,237.6c0,3.2-2.6,5.8-5.8,5.8c-3.2,0-5.8-2.6-5.8-5.8c0-3.2,2.6-5.8,5.8-5.8c0,0,0,0,0,0
			C295.5,231.8,298.1,234.4,298.1,237.6C298.1,237.6,298.1,237.6,298.1,237.6z"/>
		<path class="st1" d="M299.7,238.5c0,3.3-2.7,5.9-5.9,5.9s-5.9-2.7-5.9-5.9c0-3.3,2.7-5.9,5.9-5.9c3.2,0,5.9,2.6,5.9,5.8
			C299.7,238.4,299.7,238.5,299.7,238.5z"/>
		<path class="st2" d="M421,232.5c-0.7-0.6-1.6-0.9-2.5-1.1c-2.8-1.3-6.1-0.2-7.4,2.6c-1.3,2.8-0.2,6.1,2.6,7.4c0.5,0.4,1,0.7,1.6,1
			c2.4,2.2,6.2,1.9,8.3-0.5s1.9-6.2-0.5-8.3C422.5,233.1,421.8,232.7,421,232.5L421,232.5z"/>
		<path class="st2" d="M401.7,261.1c-0.7-0.5-1.6-0.9-2.5-1.1c-2.8-1.3-6.1-0.2-7.4,2.6c-1.3,2.8-0.2,6.1,2.6,7.4
			c1.6,1.2,3.5,2.1,5.5,2.5c3.3,0,5.9-2.7,5.9-5.9C405.7,264.1,404.1,261.9,401.7,261.1L401.7,261.1z"/>
		<path class="st2" d="M316.5,260.4c-0.7-0.6-1.6-0.9-2.5-1.1c-2.6-1.6-6-0.8-7.6,1.9c-1.6,2.6-0.8,6,1.9,7.6c0.3,0.2,0.6,0.3,1,0.5
			c0.5,0.4,1,0.7,1.6,1c2.4,2.2,6.2,1.9,8.3-0.5c2.2-2.4,1.9-6.2-0.5-8.3C318,261,317.3,260.6,316.5,260.4L316.5,260.4z"/>
		<path class="st2" d="M295.7,232.9c-0.7-0.6-1.6-0.9-2.5-1.1c-0.8-0.4-1.6-0.6-2.5-0.6c-3.1,0-5.6,2.5-5.6,5.6
			c0,2.2,1.3,4.2,3.3,5.1c1.6,1.2,3.5,2.1,5.5,2.5c3.3,0,5.9-2.7,5.9-5.9C299.7,236,298.1,233.7,295.7,232.9z"/>
		<path class="st1" d="M349.8,211.9v32.5c0,0.3,1.8,0.6,4.1,0.6s4.1-0.2,4.1-0.6v-32.5H349.8z"/>
		<path class="st1" d="M353.9,221.4c21.5,1.3,46.1-0.7,62.1,5.4c0,0,6.2,3.5,4,2.9c-11.6-3.5-30.5-5.4-51.4-3.8
			c10.3,4.9,27.8,18.8,36.7,29.1c0.3,0.4,0.7,1.5,0.1,2c-1,0.8-2.9,1.7-6.3,1.2c-1-0.3-1.9-0.7-2.8-1.2
			c-12.2-9.9-25.9-22.2-42.4-27.4c-16.5,5.2-30.2,17.5-42.4,27.4c-0.9,0.5-1.8,0.9-2.8,1.2c-3.4,0.5-5.3-0.5-6.3-1.2
			c-0.6-0.5-0.2-1.6,0.1-2c8.8-10.3,26.4-24.2,36.7-29.1c-20.8-1.6-39.8,0.4-51.4,3.8c-2.1,0.6,4-2.9,4-2.9
			C307.8,220.7,332.4,220.2,353.9,221.4z"/>
		<path class="st1" d="M405.8,259.4L405.8,259.4v-4.2l0,0c0,0.3-0.1,0.5-0.3,0.7c-0.6,0.5-1.3,0.8-2.1,1h-0.1
			c-0.3,0.1-0.7,0.2-1,0.2c-1.1,0.2-2.1,0.2-3.2,0c-1-0.3-1.9-0.7-2.8-1.2c-12.2-9.9-25.9-22.2-42.4-27.4
			c-16.5,5.2-30.2,17.5-42.4,27.4c-0.9,0.5-1.8,0.9-2.8,1.2c-1.1,0.2-2.1,0.2-3.2,0c-0.3,0-0.7-0.1-1-0.2h-0.1c-0.7-0.2-1.4-0.6-2-1
			c-0.2-0.2-0.3-0.4-0.3-0.7l0,0v4.2l0,0c0,0.3,0.1,0.7,0.3,0.9c1,0.8,2.9,1.7,6.3,1.3c1-0.3,1.9-0.7,2.8-1.2
			c12.2-9.9,25.9-20,42.4-25.2c16.5,5.2,30.2,15.3,42.4,25.2c0.9,0.5,1.8,0.9,2.8,1.2c3.4,0.5,5.3-0.5,6.3-1.3
			C405.6,260.1,405.8,259.8,405.8,259.4z"/>
		<path class="st1" d="M332,229.9L332,229.9c1.4-0.9,2.7-1.8,4-2.5l0.1-0.1c0.6-0.4,1.2-0.7,1.8-1l0.1-0.1c0.9-0.5,1.7-0.9,2.5-1.3
			c-20.8-1.6-39.8,0.4-51.4,3.8c-0.4,0.1-0.5,0.1-0.4-0.1h-0.1v4.5l0,0c0,0,0.2,0,0.4-0.1C299.1,230.1,315.6,228,332,229.9z"/>
		<path class="st1" d="M375.8,229.9L375.8,229.9c-1.4-0.9-2.7-1.8-4-2.5l-0.1-0.1c-0.6-0.4-1.2-0.7-1.8-1l-0.1-0.1
			c-0.9-0.5-1.7-0.9-2.6-1.3c20.8-1.6,39.8,0.4,51.4,3.8c0.4,0.1,0.5,0.1,0.4-0.1h0.1v4.5l0,0c-0.1,0-0.2,0-0.4-0.1
			C408.7,230.1,392.2,228,375.8,229.9z"/>
		<path class="st1" d="M330.5,230.9L330.5,230.9c1.4-0.9,2.8-1.8,4-2.5l0.1-0.1c0.6-0.4,1.2-0.7,1.8-1l0.1-0.1
			c0.9-0.5,1.7-0.9,2.6-1.3c-20.8-1.6-39.8,0.4-51.4,3.8c-0.5,0.1-0.5,0.1-0.4-0.1h-0.1v4.5l0,0c0.1,0,0.2,0,0.4-0.1
			C297.6,231.1,314.1,229,330.5,230.9z"/>
		<path class="st1" d="M377.3,230.9L377.3,230.9c-1.4-0.9-2.8-1.8-4-2.5c0,0-0.1-0.1-0.1-0.1c-0.6-0.4-1.2-0.7-1.8-1l-0.1-0.1
			c-0.9-0.5-1.7-0.9-2.5-1.3c20.8-1.6,39.8,0.4,51.4,3.8c0.4,0.1,0.5,0.1,0.4-0.1h0.1v4.5l0,0c0,0-0.2,0-0.4-0.1
			C410.2,231.1,393.7,229,377.3,230.9z"/>
		<path class="st1" d="M405.8,260.4L405.8,260.4v-4.2l0,0c0,0.3-0.1,0.5-0.3,0.7c-0.6,0.5-1.3,0.8-2.1,1h-0.1
			c-0.3,0.1-0.7,0.2-1,0.2c-1.1,0.2-2.1,0.2-3.2,0c-1-0.3-1.9-0.7-2.8-1.2c-12.2-9.9-25.9-22.2-42.4-27.4
			c-16.5,5.2-30.2,17.5-42.4,27.4c-0.9,0.5-1.8,0.9-2.8,1.2c-1.1,0.2-2.1,0.2-3.2,0c-0.3,0-0.7-0.1-1-0.2h-0.1c-0.7-0.2-1.4-0.6-2-1
			c-0.2-0.2-0.3-0.4-0.3-0.7l0,0v4.2l0,0c0,0.3,0.1,0.7,0.3,0.9c1,0.8,2.9,1.7,6.3,1.2c1-0.3,1.9-0.7,2.8-1.2
			c12.2-9.9,25.9-20,42.4-25.2c16.6,5.2,30.3,15.4,42.6,25.3c0.9,0.5,1.8,0.9,2.8,1.2c3.4,0.5,5.3-0.5,6.3-1.2
			C405.8,261.1,405.9,260.8,405.8,260.4z"/>
		<path class="st1" d="M343.2,224c0,2.3,4.8,4.2,10.7,4.2c5.9,0,10.8-1.9,10.8-4.2s-4.8-4.2-10.8-4.2S343.2,221.6,343.2,224z"/>
		<path class="st1" d="M343.2,223.1c0,2.3,4.8,4.2,10.7,4.2c5.9,0,10.8-1.9,10.8-4.2s-4.9-4.2-10.8-4.2S343.2,220.7,343.2,223.1z"/>
		<path class="st1" d="M353.9,191.3c-3,0-5.4,0.7-5.4,1.7v29.4c0,0.4,1.1,1.5,5.4,1.5c4.4,0,5.4-1.1,5.4-1.5v-29.4
			C359.3,192,356.9,191.3,353.9,191.3z"/>
		<path class="st1" d="M348.5,192.9c0,0.9,2.4,1.7,5.4,1.7c3,0,5.4-0.7,5.4-1.7s-2.4-1.7-5.4-1.7C350.9,191.3,348.5,192,348.5,192.9
			z"/>
		<path class="st1" d="M351.1,157.7v34.9c0,0.2,1.3,0.4,2.9,0.4s2.9-0.2,2.9-0.4v-34.9H351.1z"/>
		<path class="st2" d="M420.4,229.6L420.4,229.6c-1.4-1-2.9-2-4.4-2.8c-13.5-5.2-33.1-4.5-51.8-4.9c-0.8-1-2.6-1.9-4.9-2.4v-26.5
			c0-0.6-1-1.1-2.6-1.4v-33.8h-5.7v33.8c-1.5,0.3-2.6,0.8-2.6,1.4v26.5c-1.4,0.3-2.8,0.8-4,1.6c-19-0.6-39,0.5-52.7,5.8
			c-1.5,0.8-3,1.8-4.4,2.8h-0.1v4.5l0,0c0.1,0,0.2,0,0.4-0.1c9.8-3,26.4-5.1,42.7-3.1h0.1c0.7-0.5,1.4-0.9,2.1-1.3
			c-10.1,6.4-23,17-30.2,25.4c-0.1,0.2-0.2,0.4-0.3,0.6c0-0.1-0.1-0.2-0.1-0.4l0,0v5.1l0,0c0,0.3,0.1,0.7,0.3,0.9
			c1,0.8,2.9,1.7,6.3,1.2c1-0.3,1.9-0.7,2.8-1.2c11.2-9,23.6-18.3,38.3-23.8v6.8c0,0.3,1.8,0.6,4.1,0.6c2.2,0,4.1-0.2,4.1-0.6v-6.8
			c14.7,5.5,27.2,14.7,38.3,23.8c0.9,0.5,1.8,0.9,2.8,1.2c3.4,0.5,5.3-0.5,6.3-1.2c0.2-0.2,0.4-0.5,0.3-0.9l0,0v-4.2l0,0v-1l0,0
			c0,0.1,0,0.2-0.1,0.4c-0.1-0.2-0.2-0.5-0.3-0.6c-7.2-8.4-20-19-30.1-25.4c0.7,0.4,1.4,0.9,2,1.3h0.1c16.3-2,32.9,0.2,42.7,3.1
			c0.2,0.1,0.4,0.1,0.4,0.1l0,0L420.4,229.6L420.4,229.6z"/>
		<path class="st1" d="M415.6,136.1l1.7,1.7c0,0,2.7,6.4-0.3,8.8l-5.4-0.5l-4.5-9.1L415.6,136.1z"/>
		<path class="st1" d="M417.3,146.4c2.5-2.6,0-8.6,0-8.6l-1.7-1.7l-3,0.3L417.3,146.4z"/>
		<polygon class="st1" points="296.5,135.8 308.2,145.4 328.5,145.4 321,134.8 		"/>
		<polygon class="st1" points="303.3,135.5 312.5,145.4 308.2,145.4 296.5,135.8 		"/>
		<polygon class="st1" points="301.5,135.6 311,145.4 312.5,145.4 303.3,135.5 		"/>
		<path class="st1" d="M294.7,134.8c-2.9,0.4-4.7,1.7-5.6,3.7l3.6,1c1-1.6,2.6-2.7,4.5-3.2L294.7,134.8z"/>
		<path class="st1" d="M323.5,143.5c4,3.5,10.1,12,20.1,14.1c10.1,2.1,20.4,2.9,30.7,2.6c11.2-0.2,27.5-1.3,27.5-1.3v-20.3h-78.3
			V143.5z"/>
		<path class="st2" d="M417.3,137.8l-1.7-1.7l-8.5,0.9l4.5,9.1l5.4,0.5C420,144.2,417.3,137.8,417.3,137.8z"/>
		<path class="st2" d="M321,134.8l-24.5,1l0.6,0.5l-2.4-1.4c-2.9,0.4-4.7,1.7-5.6,3.7l3.6,1c1-1.6,2.6-2.7,4.5-3.2l11.2,9.1h17.2
			c4,4,9.6,10.4,18.1,12.2c10.1,2.1,20.4,2.9,30.7,2.6c11.2-0.2,27.5-1.3,27.5-1.3v-20.3h-78.2L321,134.8z"/>
		<path class="st1" d="M326.2,143.9c4.9,5.4,10.1,10.1,21.3,11.5c11.3,1.4,16,0.5,13-3.9c-1.7-2.6-3.8-4.9-6.1-6.8L326.2,143.9z"/>
		<path class="st1" d="M347.8,154.8c-10.8-1.3-16-5.8-20.7-10.9h-0.9c4.9,5.4,10.1,10.1,21.3,11.5c8.7,1.1,13.5,0.8,13.9-1.5
			C360.2,155.7,355.6,155.8,347.8,154.8z"/>
		<path class="st1" d="M334.4,144.2c4.9,3.8,10.9,7.6,26.3,7.6l-0.1-0.2c-1.7-2.6-3.8-4.9-6.1-6.8L334.4,144.2z"/>
		<path class="st1" d="M303.1,83.7v-4.2l32.1,0.1v3.3C329.3,82.2,313.6,82.6,303.1,83.7z"/>
		<path class="st3" d="M349.4,7.6c0,21.8,0.1,42.1-3,59.4c-3.1,17.3-5.3,32.4,2.7,53.3l64.4,17.8l4-0.4
			c-6.7-22.2-13.8-42.6-5.3-65.3s12.5-45,8.5-62.8C420.7,9.6,393.5-7.1,349.4,7.6z"/>
		<path class="st2" d="M349.4,7.6c0,21.8,0.1,42.1-3,59.4c-3.1,17.3-5.3,32.4,2.7,53.3l64.4,17.8l4-0.4
			c-6.7-22.2-13.8-42.6-5.3-65.3s12.5-45,8.5-62.8C420.7,9.6,393.5-7.1,349.4,7.6z"/>
		<path class="st4" d="M412.2,72.4c8.4-22.7,12.5-45,8.5-62.8c0,0-13.2-8.1-36.1-8c22.1,0.2,34.5,8,34.5,8
			c3.4,17.8-1.4,40.2-10.6,62.8c-9.2,22.7-2.8,43,3.1,65.2l1.8,0.5l4-0.4C410.8,115.5,403.7,95.1,412.2,72.4z"/>
		<path class="st1" d="M420.4,93.8c-1.2-1.1-10.1-1.7-20.3-1.7s-15.8,1.7-16,4.1c0,0.3-0.2,0.6-0.4,0.9c12.8-1.1,30.8-1.5,37.6-0.9
			v-2C421,94.2,420.7,94,420.4,93.8z"/>
		<path class="st3" d="M422.2,93.3c-1.1-4.3-10.4-6.8-25-6.8c-10.2,0-33.5,2.5-33.4,6.9c0.1,4.5,0.2,4.7,7.4,4.7
			c7.2,0,12.6,0.6,12.8-1.8c0.2-2.5,5.9-4.1,16-4.1s19.1,0.7,20.3,1.7C421.3,94.6,422.5,94.4,422.2,93.3z"/>
		<path class="st4" d="M422.2,93.3c-1.1-4.3-10.4-6.8-25-6.8c-10.2,0-33.5,2.5-33.4,6.9c0.1,4.5,0.2,4.7,7.4,4.7
			c7.2,0,12.6,0.6,12.8-1.8c0.2-2.5,5.9-4.1,16-4.1s19.1,0.7,20.3,1.7C421.3,94.6,422.5,94.4,422.2,93.3z"/>
		<path class="st1" d="M408.2,95.8L396,96.2c0,0,4.2,3.2,4.2,6.1s0.6,17.6,0.6,17.6l3-0.5c0,0-0.1-14.8-0.1-16.6
			C403.7,99.4,408.2,95.8,408.2,95.8z"/>
		<polygon class="st1" points="398.9,98.4 400.5,100.4 402.6,100.3 404.5,98.3 		"/>
		<path class="st1" d="M396,96.2l-4.8,0.3c0,0,4.4,2.9,4.8,5.8c0.4,3.2,0.9,17.2,0.9,17.2l4,0.3c0,0-0.6-14.7-0.6-17.6
			C400.2,99.4,396,96.2,396,96.2z"/>
		<path class="st3" d="M335.9,80.5c-0.9-3.5-8.5-5.6-20.4-5.6c-8.3,0-27.4,2-27.3,5.7c0.1,3.7,0.1,3.8,6.1,3.8s10.3,0.5,10.4-1.5
			c0.1-2,4.8-3.4,13.1-3.4s15.6,0.6,16.6,1.4C335.2,81.6,336.2,81.4,335.9,80.5z"/>
		<path class="st4" d="M335.9,80.5c-0.9-3.5-8.5-5.6-20.4-5.6c-8.3,0-27.4,2-27.3,5.7c0.1,3.7,0.1,3.8,6.1,3.8s10.3,0.5,10.4-1.5
			c0.1-2,4.8-3.4,13.1-3.4s15.6,0.6,16.6,1.4C335.2,81.6,336.2,81.4,335.9,80.5z"/>
		<path class="st1" d="M320.5,82.7l-10,0.3c0,0,3.4,2.6,3.4,4.9s0.5,14.4,0.5,14.4l2.4-0.4c0,0-0.1-12.2-0.1-13.6
			C316.8,85.6,320.5,82.7,320.5,82.7z"/>
		<polygon class="st1" points="313.5,84.6 314.8,86.2 316.4,86.2 318,84.5 		"/>
		<path class="st1" d="M314.5,102.4l2.9-0.4c0,0,3,21.8,8.4,32.6v3l-1.6,1.6l-2-0.9C322.1,138.3,316.9,126.2,314.5,102.4z"/>
		<path class="st1" d="M314.5,102.4l-4-0.4c0,0,1.2,26.8,6.4,36.2l1.8,0.8l5.4,0.3L314.5,102.4z"/>
		<path class="st1" d="M310.6,83l-3.9,0.2c0,0,3.6,2.4,3.9,4.7c0.3,2.6,0.7,14.1,0.7,14.1l3.2,0.3c0,0-0.5-12-0.5-14.4
			S310.6,83,310.6,83z"/>
		<polygon class="st1" points="360.7,145.4 382.3,144.6 381.8,139.5 359.3,139.5 		"/>
		<path class="st1" d="M400.8,137.5l-28.4,2.7c2.8,4.7,6.5,11.2,14.6,17.5l17.2,1.3L400.8,137.5z M391.2,152.7
			c-3.3-2.6-6.9-7.1-8.4-11.3h10c1.9,5.2,7.4,12.4,7.4,12.4L391.2,152.7z"/>
		<path class="st1" d="M404.7,137.5l-28.4,2.7c2.8,4.7,6.5,11.2,14.6,17.5l17.2,1.3L404.7,137.5z M391.2,152.7
			c-3.3-2.6-6.9-7.1-8.4-11.3h10c1.9,5.2,7.4,12.4,7.4,12.4L391.2,152.7z"/>
		<path class="st1" d="M400.3,153.8c0,0-5.6-7.2-7.4-12.4h-3.2c1.6,4.4,5.9,10.3,7.1,11.9L400.3,153.8z"/>
		<path class="st1" d="M368.1,140.8c5,1.4,14.6,5.4,19.6,5.9c5,0.5,18.4-1.6,18.4-1.6l-2.8-7.4C403.3,137.7,366.8,132.8,368.1,140.8
			z"/>
		<path class="st3" d="M406.1,130c-9.3-0.7-29.4-2.7-40.8-7.1c-11.4-4.4-21.3-5.2-36.1-5.9c-14.8-0.8-34.9,0.4-40.3,2.4
			c-5.3,1.9-10.2,10.1,1.9,15.4c12.1,5.3,36.3,9.9,50.6,11.3s18,0.9,22.5-2.5c4.5-3.4,5.6-3.9,14.5-4c8.9-0.1,24.3,0.4,29.2-0.3
			C412.6,138.5,414.5,130.7,406.1,130z"/>
		<path class="st2" d="M406.1,130c-9.3-0.7-29.4-2.7-40.8-7.1c-11.4-4.4-21.3-5.2-36.1-5.9c-14.8-0.8-34.9,0.4-40.3,2.4
			c-5.3,1.9-10.2,10.1,1.9,15.4c12.1,5.3,36.3,9.9,50.6,11.3s18,0.9,22.5-2.5c4.5-3.4,5.6-3.9,14.5-4c8.9-0.1,24.3,0.4,29.2-0.3
			C412.6,138.5,414.5,130.7,406.1,130z"/>
		<path class="st1" d="M400.8,119.9l-4.7-0.3c0,0,1.4,32.7,7.7,44.1l2.2,1l6.6,0.3L400.8,119.9z"/>
		<path class="st1" d="M400.8,119.9l3.5-0.5c0,0,3.6,26.7,10.3,39.8v3.7l-2,2l-2.4-1.1C410.1,163.8,403.7,149,400.8,119.9z"/>
		<path class="st2" d="M403.7,119.3c0,0-0.1-14.8-0.1-16.6c0-3,3.6-6.2,4.4-6.9c5.6-0.1,10.4,0,13.3,0.3v-2c0.6,0.1,1.1-0.3,0.9-1
			c-1.1-4.3-10.4-6.8-25-6.8c-10.2,0-33.5,2.5-33.4,6.9c0.1,4.5,0.2,4.7,7.4,4.7c6.2,0,11,0.5,12.4-1c2.4-0.2,5-0.4,7.6-0.6
			c0.5,0.3,4.4,3.1,4.7,5.8c0.4,3.2,0.9,17.2,0.9,17.2"/>
		<path class="st2" d="M396.1,119.5c0,0,1.4,32.7,7.7,44.1l2.2,1l6.6,0.3l2-2v-3.7c-6.6-13.2-10.2-39.9-10.2-39.9"/>
		<path class="st2" d="M320,116.7c-1.8-7.9-2.7-14.8-2.7-14.8l-2.9,0.4l2.4-0.4c0,0-0.1-12.2-0.1-13.6c0-2.8,3.7-5.7,3.7-5.7
			l-5.6,0.2c6.7-0.4,13.5-0.4,20.2,0v-1.6c0.5,0.1,0.9-0.2,0.8-0.8c-0.9-3.5-8.5-5.6-20.4-5.6c-8.3,0-27.4,2-27.3,5.7
			c0.1,3.7,0.1,3.8,6.1,3.8c5.1,0,9,0.4,10.1-0.8l2.5-0.2c0.7,0.5,3.5,2.6,3.7,4.6c0.3,2.5,0.7,13.3,0.7,14.1l-0.7-0.1v0.2
			c0,0,0,0.1,0,0.1c0,0.1,0,0.1,0,0.2c0,0.1,0,0.1,0,0.2v0.1c0,0.5,0.1,1.2,0.1,2.1v0.1c0,0.2,0,0.4,0,0.7c0,0,0,0.1,0,0.1
			c0.2,2.8,0.5,6.7,1,11"/>
		<path class="st2" d="M311.5,261.4c12.2-9.9,25.9-20,42.4-25.2c16.5,5.1,30.2,15.3,42.5,25.2"/>
	</g>
</g>
</svg>
