<svg xmlns="http://www.w3.org/2000/svg" viewBox="0 0 994.43 310.31"><defs><style>*{vector-effect:non-scaling-stroke}.cls-1,.cls-4,.cls-6{fill:none;}.cls-1,.cls-3,.cls-4,.cls-6{stroke:#000000;stroke-width:1.5px;}.cls-1{stroke-miterlimit:10;}.cls-2{fill:#000000;}.cls-3,.cls-5{fill:#fff;}.cls-3,.cls-4,.cls-6{stroke-linecap:round;stroke-linejoin:round;}.cls-3,.cls-6{stroke-width:0.5px;}</style></defs><g id="Layer_2" data-name="Layer 2"><g id="Layer_1-2" data-name="Layer 1"><rect class="cls-1" x="341.12" y="281.02" width="28.8" height="28.8"/><rect class="cls-1" x="624.51" y="281.02" width="28.8" height="28.8"/><rect class="cls-1" x="907.91" y="281.02" width="28.8" height="28.8"/><path class="cls-2" d="M944.62,276.56a2.62,2.62,0,0,0-3.62,0c-5.42,4.47-11.07,8.74-16.41,13.34-.51-.44-1-.89-1.55-1.32q-3.78-3.19-7.66-6.27a18.32,18.32,0,0,0-4.16-3c-2-.77-3.46,1.43-3.15,3.13.37,2,2.26,4.39,3.59,5.81a2.25,2.25,0,0,0,3.25.2c1.52,1.24,3,2.48,4.53,3.74l1.31,1.12a88.77,88.77,0,0,0-6.83,7c-2.15,2.48,1.47,6.1,3.63,3.6a91.18,91.18,0,0,1,7.07-7.24c1,.95,2.09,1.9,3.11,2.88s2.21,2.16,3.26,3.3a14.11,14.11,0,0,1,2,2.58c1.72,2.8,6.15.23,4.41-2.59a35.72,35.72,0,0,0-5.84-6.68c-1-1-2.07-2-3.13-2.91,5.27-4.52,10.84-8.72,16.18-13.13A2.57,2.57,0,0,0,944.62,276.56Zm-598.4,4.55c-.16-.36-.13-.64,0,0ZM342.49,284c-.62-.26-.41-.23,0,0Z"/><path class="cls-3" d="M423.61,237.73A5.63,5.63,0,1,1,418,232.1,5.63,5.63,0,0,1,423.61,237.73Z"/><path class="cls-3" d="M425.46,238.5a5.87,5.87,0,1,1-5.87-5.87A5.87,5.87,0,0,1,425.46,238.5Z"/><path class="cls-3" d="M427.14,239.43a5.95,5.95,0,1,1-5.95-6A6,6,0,0,1,427.14,239.43Z"/><path class="cls-3" d="M404.15,266.58a5.63,5.63,0,1,1-5.63-5.63A5.62,5.62,0,0,1,404.15,266.58Z"/><path class="cls-3" d="M406,267.35a5.87,5.87,0,1,1-5.86-5.87A5.86,5.86,0,0,1,406,267.35Z"/><path class="cls-3" d="M407.68,268.28a5.95,5.95,0,1,1-5.95-5.95A5.94,5.94,0,0,1,407.68,268.28Z"/><circle class="cls-3" cx="312.44" cy="265.89" r="5.62"/><path class="cls-3" d="M319.91,266.66a5.87,5.87,0,1,1-5.87-5.87A5.87,5.87,0,0,1,319.91,266.66Z"/><path class="cls-3" d="M321.6,267.59a6,6,0,1,1-6-5.95A6,6,0,0,1,321.6,267.59Z"/><path class="cls-3" d="M297.06,238.16a5.63,5.63,0,1,1-5.63-5.63A5.63,5.63,0,0,1,297.06,238.16Z"/><path class="cls-3" d="M298.9,238.93a5.87,5.87,0,1,1-5.86-5.87A5.86,5.86,0,0,1,298.9,238.93Z"/><path class="cls-3" d="M300.59,239.86a6,6,0,1,1-5.95-6A5.94,5.94,0,0,1,300.59,239.86Z"/><path class="cls-4" d="M423.07,233.79a5.88,5.88,0,0,0-2.55-1.08,5.62,5.62,0,1,0-4.86,10.14,5.88,5.88,0,0,0,1.6,1,5.95,5.95,0,1,0,5.81-10.1Z"/><path class="cls-4" d="M403.61,262.63a5.91,5.91,0,0,0-2.55-1.07,5.62,5.62,0,1,0-4.86,10.14,14.61,14.61,0,0,0,5.53,2.52,5.95,5.95,0,0,0,1.88-11.59Z"/><path class="cls-4" d="M317.52,262a5.81,5.81,0,0,0-2.55-1.08A5.62,5.62,0,1,0,310.11,271a6,6,0,0,0,1.6,1,5.95,5.95,0,1,0,5.81-10.1Z"/><path class="cls-4" d="M296.52,234.21a5.79,5.79,0,0,0-2.56-1.07,5.53,5.53,0,0,0-2.53-.61,5.62,5.62,0,0,0-2.32,10.74,14.32,14.32,0,0,0,5.53,2.53,5.95,5.95,0,0,0,1.88-11.59Z"/><path class="cls-3" d="M351.19,213v32.83c0,.32,1.85.57,4.12.57s4.12-.25,4.12-.57V213Z"/><path class="cls-3" d="M355.31,222.61c21.76,1.28,46.58-.75,62.75,5.43,0,0,6.23,3.58,4.07,2.93-11.71-3.5-30.83-5.49-51.87-3.87,10.38,5,28.12,19,37.05,29.41.32.37.67,1.52.08,2-1,.79-2.94,1.76-6.38,1.26a12,12,0,0,1-2.85-1.2c-12.3-10-26.18-22.42-42.85-27.66-16.66,5.24-30.54,17.69-42.85,27.66a11.86,11.86,0,0,1-2.85,1.2c-3.43.5-5.39-.47-6.37-1.26-.6-.48-.24-1.63.07-2,8.93-10.45,26.67-24.43,37.06-29.41-21-1.62-40.16.37-51.87,3.87-2.16.65,4.06-2.93,4.06-2.93C308.73,221.86,333.55,221.33,355.31,222.61Z"/><path class="cls-3" d="M407.7,261h0v-4.2h0a.92.92,0,0,1-.31.7,5.89,5.89,0,0,1-2.08,1.05l-.11,0a8.54,8.54,0,0,1-1,.2,10.63,10.63,0,0,1-3.23,0,11.63,11.63,0,0,1-2.85-1.2c-12.3-10-26.18-22.42-42.85-27.66-16.66,5.24-30.54,17.69-42.85,27.66a11.47,11.47,0,0,1-2.85,1.2,10.57,10.57,0,0,1-3.22,0,7.7,7.7,0,0,1-1-.2l-.12,0a5.92,5.92,0,0,1-2.07-1.05.89.89,0,0,1-.32-.7h0V261h0a1,1,0,0,0,.32.88c1,.8,2.94,1.76,6.37,1.27a11.87,11.87,0,0,0,2.85-1.21c12.31-10,26.19-20.22,42.85-25.46,16.67,5.24,30.55,15.49,42.85,25.46a12,12,0,0,0,2.85,1.21c3.44.49,5.39-.47,6.38-1.27A1,1,0,0,0,407.7,261Z"/><path class="cls-3" d="M333.16,231.19l0,0c1.39-.92,2.75-1.77,4-2.54l.11-.07c.63-.37,1.25-.73,1.85-1.06l.11-.06c.89-.49,1.76-.95,2.57-1.34-21-1.62-40.16.37-51.87,3.87-.45.14-.52.08-.37-.08l-.08,0v4.52l0,0s.18,0,.42-.06C300,231.36,316.66,229.19,333.16,231.19Z"/><path class="cls-3" d="M377.46,231.19l0,0c-1.39-.92-2.74-1.77-4-2.54l-.11-.07c-.64-.37-1.25-.73-1.85-1.06l-.11-.06c-.9-.49-1.76-.95-2.58-1.34,21-1.62,40.16.37,51.87,3.87.46.14.53.08.37-.08l.09,0v4.52l0,0s-.17,0-.42-.06C410.66,231.36,394,229.19,377.46,231.19Z"/><path class="cls-3" d="M331.63,232.21l.06,0c1.39-.92,2.74-1.77,4-2.54l.11-.07c.63-.37,1.25-.73,1.85-1.06l.11-.06c.9-.5,1.76-.95,2.58-1.34-21-1.62-40.16.37-51.87,3.87-.46.14-.52.08-.37-.09l-.09,0v4.52l0,0c.06,0,.18,0,.43-.06C298.44,232.38,315.13,230.21,331.63,232.21Z"/><path class="cls-3" d="M379,232.21l-.06,0c-1.39-.92-2.74-1.77-4-2.54a.41.41,0,0,0-.11-.07c-.63-.37-1.25-.73-1.85-1.06l-.11-.06c-.89-.5-1.76-.95-2.57-1.34,21-1.62,40.16.37,51.87,3.87.45.14.52.08.37-.09l.08,0v4.52l0,0c-.05,0-.18,0-.42-.06C412.18,232.38,395.49,230.21,379,232.21Z"/><path class="cls-3" d="M407.7,262h0V257.8h0a.92.92,0,0,1-.31.71,6.06,6.06,0,0,1-2.08,1.05l-.11,0a6.76,6.76,0,0,1-1,.21,11.32,11.32,0,0,1-3.23,0,12,12,0,0,1-2.85-1.2c-12.3-10-26.18-22.42-42.85-27.66-16.66,5.24-30.54,17.69-42.85,27.66a11.86,11.86,0,0,1-2.85,1.2,11.25,11.25,0,0,1-3.22,0,6.2,6.2,0,0,1-1-.21l-.12,0a6.1,6.1,0,0,1-2.07-1.05.9.9,0,0,1-.32-.71h0V262h0a1,1,0,0,0,.32.88c1,.79,2.94,1.76,6.37,1.26a11.86,11.86,0,0,0,2.85-1.2c12.31-10,26.19-20.22,42.85-25.46C372,242.73,385.86,253,398.16,263a12,12,0,0,0,2.85,1.2c3.44.5,5.39-.47,6.38-1.26A1,1,0,0,0,407.7,262Z"/><path class="cls-3" d="M344.46,225.18c0,2.37,4.86,4.28,10.85,4.28s10.86-1.91,10.86-4.28-4.86-4.29-10.86-4.29S344.46,222.81,344.46,225.18Z"/><path class="cls-3" d="M344.46,224.26c0,2.37,4.86,4.28,10.85,4.28s10.86-1.91,10.86-4.28S361.31,220,355.31,220,344.46,221.89,344.46,224.26Z"/><path class="cls-3" d="M355.31,192.15c-3,0-5.47.75-5.47,1.67V223.5c0,.42,1.07,1.52,5.47,1.52s5.47-1.1,5.47-1.52V193.82C360.78,192.9,358.33,192.15,355.31,192.15Z"/><path class="cls-3" d="M349.84,193.82c0,.92,2.45,1.67,5.47,1.67s5.47-.75,5.47-1.67-2.45-1.67-5.47-1.67S349.84,192.9,349.84,193.82Z"/><path class="cls-3" d="M352.43,158.26V193.5c0,.22,1.29.4,2.88.4s2.89-.18,2.89-.4V158.26Z"/><path class="cls-4" d="M422.5,230.88h0a42.5,42.5,0,0,0-4.44-2.84c-13.64-5.22-33.44-4.59-52.37-5-.8-1-2.58-1.91-4.91-2.45V193.82c0-.6-1-1.12-2.58-1.42V158.26h-5.77V192.4c-1.55.3-2.59.82-2.59,1.42v26.74a11.6,11.6,0,0,0-4,1.63c-19.19-.59-39.39.55-53.25,5.85a42.5,42.5,0,0,0-4.44,2.84l-.08,0v4.52l0,0c.06,0,.18,0,.43-.06,9.94-3,26.63-5.14,43.13-3.14l.06,0c.7-.47,1.4-.91,2.08-1.34-10.21,6.43-23.22,17.22-30.46,25.68a2.07,2.07,0,0,0-.31.65,1.17,1.17,0,0,1-.08-.37h0V262h0a1,1,0,0,0,.32.88c1,.79,2.94,1.76,6.37,1.26a11.86,11.86,0,0,0,2.85-1.2c11.28-9.14,23.88-18.49,38.73-24v6.87c0,.32,1.85.57,4.12.57s4.12-.25,4.12-.57v-6.87c14.85,5.54,27.46,14.89,38.73,24a12,12,0,0,0,2.85,1.2c3.44.5,5.39-.47,6.38-1.26a1,1,0,0,0,.31-.88h0V257.8h0v-1h0a1.16,1.16,0,0,1-.07.37,1.87,1.87,0,0,0-.32-.65c-7.23-8.46-20.24-19.24-30.45-25.68.68.43,1.37.87,2.07,1.34l.06,0c16.5-2,33.19.17,43.14,3.14.24.07.37.09.42.06l0,0v-4.52Z"/><path class="cls-3" d="M417.65,136.44l1.73,1.73s2.74,6.47-.27,8.93l-5.47-.55-4.55-9.2Z"/><path class="cls-3" d="M419.39,146.82c2.52-2.63,0-8.65,0-8.65l-1.73-1.73-3,.32Z"/><polygon class="cls-3" points="297.37 136.08 309.19 145.84 329.61 145.84 322.11 135.09 297.37 136.08"/><polygon class="cls-3" points="304.15 135.81 313.49 145.84 309.19 145.84 297.37 136.08 304.15 135.81"/><polygon class="cls-3" points="302.4 135.88 311.93 145.84 313.49 145.84 304.15 135.81 302.4 135.88"/><path class="cls-3" d="M295.51,135.09c-2.93.39-4.71,1.7-5.69,3.75l3.61,1a7.73,7.73,0,0,1,4.51-3.25Z"/><path class="cls-3" d="M324.57,143.85c4,3.56,10.17,12.13,20.31,14.29a129.07,129.07,0,0,0,30.95,2.58c11.31-.25,27.81-1.34,27.81-1.34V138.84H324.57Z"/><path class="cls-4" d="M419.38,138.17l-1.73-1.73-8.56.91,4.55,9.2,5.47.55C422.12,144.64,419.38,138.17,419.38,138.17Z"/><path class="cls-4" d="M322.11,135.09l-24.74,1,.57.47-2.43-1.46c-2.93.39-4.71,1.7-5.69,3.75l3.61,1a7.73,7.73,0,0,1,4.51-3.25l11.25,9.29H326.6c4,4.09,9.71,10.47,18.28,12.3a129.07,129.07,0,0,0,30.95,2.58c11.31-.25,27.81-1.34,27.81-1.34V138.84H324.73Z"/><path class="cls-3" d="M327.32,144.33c4.92,5.41,10.18,10.24,21.57,11.66s16.12.49,13.13-3.92a33.4,33.4,0,0,0-6.16-6.91Z"/><path class="cls-3" d="M349.13,155.33c-10.89-1.36-16.18-5.85-20.93-11l-.88,0c4.92,5.41,10.18,10.24,21.57,11.66,8.81,1.09,13.62.78,14-1.47C361.7,156.16,357,156.3,349.13,155.33Z"/><path class="cls-3" d="M335.57,144.57c5,3.83,11.05,7.69,26.55,7.67l-.1-.17a33.4,33.4,0,0,0-6.16-6.91Z"/><path class="cls-3" d="M304,83.5l0-4.28,32.38.08v3.31C330.48,82,314.59,82.39,304,83.5Z"/><path class="cls-5" d="M350.79,6.64c0,22,.12,42.54-3,60s-5.39,32.76,2.69,53.85l65.07,17.95,4-.45c-6.73-22.44-13.91-43.08-5.38-66s12.62-45.5,8.58-63.45C422.76,8.62,395.33-8.25,350.79,6.64Z"/><path class="cls-4" d="M350.79,6.64c0,22,.12,42.54-3,60s-5.39,32.76,2.69,53.85l65.07,17.95,4-.45c-6.73-22.44-13.91-43.08-5.38-66s12.62-45.5,8.58-63.45C422.76,8.62,395.33-8.25,350.79,6.64Z"/><path class="cls-6" d="M414.18,72.07c8.52-22.89,12.62-45.5,8.58-63.45,0,0-13.31-8.17-36.42-8.11,22.32.23,34.88,8.11,34.88,8.11,3.44,18-1.42,40.56-10.7,63.45s-2.82,43.48,3.16,65.9l1.85.51,4-.45C412.83,115.59,405.65,95,414.18,72.07Z"/><path class="cls-3" d="M422.48,93.7c-1.18-1.07-10.19-1.76-20.48-1.76s-16,1.67-16.21,4.17a1.4,1.4,0,0,1-.39.88c12.92-1.16,31.09-1.5,38-.88v-2A1.89,1.89,0,0,1,422.48,93.7Z"/><path class="cls-5" d="M424.34,93.14c-1.11-4.35-10.47-6.85-25.21-6.85-10.28,0-33.82,2.5-33.73,7s.19,4.63,7.51,4.63,12.7.65,12.88-1.85,5.93-4.17,16.21-4.17,19.3.69,20.48,1.76C423.41,94.54,424.62,94.26,424.34,93.14Z"/><path class="cls-6" d="M424.34,93.14c-1.11-4.35-10.47-6.85-25.21-6.85-10.28,0-33.82,2.5-33.73,7s.19,4.63,7.51,4.63,12.7.65,12.88-1.85,5.93-4.17,16.21-4.17,19.3.69,20.48,1.76C423.41,94.54,424.62,94.26,424.34,93.14Z"/><path class="cls-3" d="M410.14,95.7l-12.3.39s4.22,3.24,4.22,6.14.6,17.73.6,17.73l3-.48s-.09-15-.09-16.73C405.56,99.33,410.14,95.7,410.14,95.7Z"/><polygon class="cls-3" points="400.77 98.35 402.42 100.39 404.46 100.29 406.44 98.27 400.77 98.35"/><path class="cls-3" d="M397.84,96.09l-4.81.3s4.43,2.94,4.8,5.85c.41,3.2.89,17.39.89,17.39l3.94.33s-.6-14.82-.6-17.73S397.84,96.09,397.84,96.09Z"/><path class="cls-5" d="M337.14,80.23c-.91-3.56-8.57-5.61-20.63-5.61-8.42,0-27.68,2-27.61,5.77s.16,3.79,6.15,3.79,10.39.53,10.54-1.52,4.85-3.41,13.27-3.41,15.8.57,16.77,1.44C336.38,81.37,337.38,81.14,337.14,80.23Z"/><path class="cls-6" d="M337.14,80.23c-.91-3.56-8.57-5.61-20.63-5.61-8.42,0-27.68,2-27.61,5.77s.16,3.79,6.15,3.79,10.39.53,10.54-1.52,4.85-3.41,13.27-3.41,15.8.57,16.77,1.44C336.38,81.37,337.38,81.14,337.14,80.23Z"/><path class="cls-3" d="M321.61,82.47l-10.07.31s3.46,2.66,3.46,5,.49,14.53.49,14.53l2.44-.39s-.07-12.33-.07-13.72C317.86,85.44,321.61,82.47,321.61,82.47Z"/><polygon class="cls-3" points="314.45 84.38 315.79 86.05 317.47 85.97 319.09 84.32 314.45 84.38"/><path class="cls-3" d="M315.49,102.34l2.9-.39s3,22,8.48,32.93v3.06l-1.65,1.66-2-.92S317.93,126.44,315.49,102.34Z"/><path class="cls-3" d="M315.49,102.34l-4-.39s1.19,27.12,6.42,36.61l1.81.78,5.46.26Z"/><path class="cls-3" d="M311.54,82.78,307.6,83s3.63,2.41,3.93,4.79c.33,2.62.72,14.25.72,14.25l3.24.27S315,90.2,315,87.81,311.54,82.78,311.54,82.78Z"/><polygon class="cls-3" points="362.13 145.84 383.98 145 383.48 139.8 360.77 139.8 362.13 145.84"/><path class="cls-3" d="M402.66,137.8,374,140.51c2.8,4.78,6.56,11.29,14.78,17.68l17.39,1.35ZM393,153.14c-3.3-2.61-7-7.17-8.47-11.37h10.1c1.91,5.24,7.52,12.49,7.52,12.49Z"/><path class="cls-3" d="M406.61,137.8,378,140.51c2.8,4.78,6.55,11.29,14.77,17.68l17.4,1.35ZM393,153.14c-3.3-2.61-7-7.17-8.47-11.37h10.1c1.91,5.24,7.52,12.49,7.52,12.49Z"/><path class="cls-3" d="M402.18,154.26s-5.61-7.25-7.52-12.49H391.4c1.63,4.48,6,10.42,7.18,12Z"/><path class="cls-3" d="M369.6,141.14c5.06,1.44,14.71,5.5,19.79,6S408,145.5,408,145.5l-2.85-7.44S368.37,133.12,369.6,141.14Z"/><path class="cls-5" d="M408,130.29c-9.43-.73-29.73-2.73-41.25-7.22s-21.53-5.23-36.49-6-35.3.44-40.69,2.39-10.31,10.17,1.95,15.56,36.65,10,51.15,11.37,18.22.89,22.72-2.55,5.7-3.89,14.68-4,24.53.45,29.54-.3S416.51,130.94,408,130.29Z"/><path class="cls-4" d="M408,130.29c-9.43-.73-29.73-2.73-41.25-7.22s-21.53-5.23-36.49-6-35.3.44-40.69,2.39-10.31,10.17,1.95,15.56,36.65,10,51.15,11.37,18.22.89,22.72-2.55,5.7-3.89,14.68-4,24.53.45,29.54-.3S416.51,130.94,408,130.29Z"/><path class="cls-3" d="M402.66,120l-4.75-.33s1.37,33,7.77,44.57l2.2,1,6.67.32Z"/><path class="cls-3" d="M402.66,120l3.55-.48s3.63,26.93,10.36,40.24v3.74l-2,2-2.46-1.13S405.65,149.39,402.66,120Z"/><path class="cls-4" d="M405.65,119.48s-.09-15-.09-16.73c0-3.06,3.65-6.28,4.43-6.92,5.64-.07,10.52,0,13.42.28v-2c.63.1,1.12-.26.93-1-1.11-4.35-10.47-6.85-25.21-6.85-10.28,0-33.82,2.5-33.73,7s.19,4.63,7.51,4.63c6.29,0,11.12.47,12.49-1,2.41-.22,5-.41,7.69-.56.49.34,4.4,3.09,4.74,5.81.41,3.2.89,17.39.89,17.39"/><path class="cls-4" d="M397.91,119.63s1.37,33,7.77,44.57l2.2,1,6.67.32,2-2v-3.74c-6.73-13.31-10.36-40.24-10.36-40.24"/><path class="cls-4" d="M321.11,116.86c-1.79-8-2.72-14.91-2.72-14.91l-2.9.39,2.44-.39s-.07-12.33-.07-13.72c0-2.79,3.75-5.76,3.75-5.76l-5.66.17a180.07,180.07,0,0,1,20.43,0V81.06c.52.08.92-.21.76-.83-.91-3.56-8.57-5.61-20.63-5.61-8.42,0-27.68,2-27.61,5.77s.16,3.79,6.15,3.79c5.15,0,9.12.39,10.23-.81l2.5-.22c.73.52,3.49,2.6,3.75,4.67.32,2.52.7,13.39.72,14.2l-.72-.07v.38a.92.92,0,0,0,0,.16c0,.07,0,.15,0,.25v.11c0,.52.07,1.24.13,2.14v.1c0,.22,0,.44.05.67v.13c.19,2.79.52,6.78,1.05,11.09"/><path class="cls-4" d="M312.46,263c12.31-10,26.19-20.22,42.85-25.46C372,242.73,385.86,253,398.16,263"/><rect class="cls-1" x="57.73" y="281.02" width="28.8" height="28.8"/><path class="cls-2" d="M62.82,281.11c-.16-.36-.12-.64,0,0Z"/><path class="cls-2" d="M59.09,284c-.61-.26-.41-.23,0,0Z"/><path class="cls-3" d="M140.22,237.73a5.63,5.63,0,1,1-5.63-5.63A5.63,5.63,0,0,1,140.22,237.73Z"/><path class="cls-3" d="M142.06,238.5a5.87,5.87,0,1,1-5.87-5.87A5.87,5.87,0,0,1,142.06,238.5Z"/><path class="cls-3" d="M143.75,239.43a5.95,5.95,0,1,1-5.95-6A6,6,0,0,1,143.75,239.43Z"/><path class="cls-3" d="M120.75,266.58a5.63,5.63,0,1,1-5.62-5.63A5.61,5.61,0,0,1,120.75,266.58Z"/><path class="cls-3" d="M122.6,267.35a5.87,5.87,0,1,1-5.87-5.87A5.86,5.86,0,0,1,122.6,267.35Z"/><path class="cls-3" d="M124.29,268.28a6,6,0,1,1-6-5.95A5.95,5.95,0,0,1,124.29,268.28Z"/><circle class="cls-3" cx="29.04" cy="265.89" r="5.63"/><path class="cls-3" d="M36.51,266.66a5.87,5.87,0,1,1-5.86-5.87A5.86,5.86,0,0,1,36.51,266.66Z"/><path class="cls-3" d="M38.2,267.59a6,6,0,1,1-6-5.95A6,6,0,0,1,38.2,267.59Z"/><path class="cls-3" d="M13.66,238.16A5.63,5.63,0,1,1,8,232.53,5.62,5.62,0,0,1,13.66,238.16Z"/><path class="cls-3" d="M15.51,238.93a5.87,5.87,0,1,1-5.87-5.87A5.86,5.86,0,0,1,15.51,238.93Z"/><path class="cls-3" d="M17.2,239.86a6,6,0,1,1-5.95-6A5.95,5.95,0,0,1,17.2,239.86Z"/><path class="cls-4" d="M139.68,233.79a5.93,5.93,0,0,0-2.55-1.08,5.73,5.73,0,0,0-2.54-.61,5.63,5.63,0,0,0-2.32,10.75,5.88,5.88,0,0,0,1.6,1,5.95,5.95,0,1,0,5.81-10.1Z"/><path class="cls-4" d="M120.21,262.63a5.82,5.82,0,0,0-2.54-1.07,5.73,5.73,0,0,0-2.54-.61,5.62,5.62,0,0,0-2.32,10.75,5.79,5.79,0,0,0,1.59,1,5.95,5.95,0,1,0,5.81-10.1Z"/><path class="cls-4" d="M34.13,262a5.8,5.8,0,0,0-2.56-1.08A5.62,5.62,0,1,0,26.72,271a5.88,5.88,0,0,0,1.6,1A5.95,5.95,0,1,0,34.13,262Z"/><path class="cls-4" d="M13.12,234.21a5.7,5.7,0,0,0-2.55-1.07A5.53,5.53,0,0,0,8,232.53a5.62,5.62,0,0,0-2.33,10.74,5.88,5.88,0,0,0,1.6,1,5.95,5.95,0,1,0,5.81-10.1Z"/><path class="cls-3" d="M67.8,213v32.83c0,.32,1.84.57,4.12.57s4.12-.25,4.12-.57V213Z"/><path class="cls-3" d="M71.92,222.61c21.76,1.28,46.58-.75,62.75,5.43,0,0,6.22,3.58,4.06,2.93-11.71-3.5-30.83-5.49-51.87-3.87,10.39,5,28.13,19,37.06,29.41.31.37.67,1.52.07,2-1,.79-2.94,1.76-6.38,1.26a11.78,11.78,0,0,1-2.84-1.2c-12.31-10-26.19-22.42-42.85-27.66-16.67,5.24-30.55,17.69-42.85,27.66a12,12,0,0,1-2.85,1.2c-3.44.5-5.39-.47-6.38-1.26-.6-.48-.24-1.63.08-2C28.85,246.06,46.59,232.08,57,227.1c-21-1.62-40.16.37-51.87,3.87-2.16.65,4.07-2.93,4.07-2.93C25.34,221.86,50.16,221.33,71.92,222.61Z"/><path class="cls-3" d="M124.31,261h0v-4.2h0a.93.93,0,0,1-.32.7,5.83,5.83,0,0,1-2.07,1.05l-.12,0a7.7,7.7,0,0,1-1,.2,10.63,10.63,0,0,1-3.23,0,11.4,11.4,0,0,1-2.84-1.2c-12.31-10-26.19-22.42-42.85-27.66-16.67,5.24-30.55,17.69-42.85,27.66a11.63,11.63,0,0,1-2.85,1.2,10.63,10.63,0,0,1-3.23,0,8.54,8.54,0,0,1-1-.2l-.11,0a5.89,5.89,0,0,1-2.08-1.05.92.92,0,0,1-.31-.7h0V261h0a1,1,0,0,0,.31.88c1,.8,2.94,1.76,6.38,1.27a12,12,0,0,0,2.85-1.21c12.3-10,26.18-20.22,42.85-25.46,16.66,5.24,30.54,15.49,42.85,25.46a11.8,11.8,0,0,0,2.84,1.21c3.44.49,5.4-.47,6.38-1.27A1,1,0,0,0,124.31,261Z"/><path class="cls-3" d="M49.76,231.19l.06,0c1.39-.92,2.74-1.77,4-2.54l.11-.07c.63-.37,1.25-.73,1.85-1.06l.11-.06c.9-.49,1.76-.95,2.58-1.34-21-1.62-40.16.37-51.87,3.87-.46.14-.53.08-.37-.08l-.09,0v4.52l0,0c.06,0,.18,0,.43-.06C16.57,231.36,33.26,229.19,49.76,231.19Z"/><path class="cls-3" d="M94.07,231.19l-.06,0q-2.08-1.38-4-2.54l-.11-.07c-.63-.37-1.25-.73-1.85-1.06l-.11-.06c-.89-.49-1.76-.95-2.57-1.34,21-1.62,40.16.37,51.87,3.87.45.14.52.08.37-.08l.08,0v4.52l0,0s-.18,0-.42-.06C127.26,231.36,110.57,229.19,94.07,231.19Z"/><path class="cls-3" d="M48.24,232.21l.06,0c1.38-.92,2.73-1.77,4-2.54l.12-.07c.63-.37,1.25-.73,1.85-1.06l.11-.06c.89-.5,1.76-.95,2.57-1.34-21-1.62-40.16.37-51.87,3.87-.45.14-.52.08-.37-.09l-.08,0v4.52l0,0c.05,0,.18,0,.42-.06C15.05,232.38,31.74,230.21,48.24,232.21Z"/><path class="cls-3" d="M95.6,232.21l-.06,0c-1.39-.92-2.74-1.77-4-2.54l-.11-.07c-.63-.37-1.25-.73-1.85-1.06l-.11-.06c-.9-.5-1.76-.95-2.58-1.34,21-1.62,40.16.37,51.87,3.87.46.14.53.08.37-.09l.09,0v4.52l0,0s-.18,0-.43-.06C128.79,232.38,112.1,230.21,95.6,232.21Z"/><path class="cls-3" d="M124.31,262h0V257.8h0a.93.93,0,0,1-.32.71,6,6,0,0,1-2.07,1.05l-.12,0a6.2,6.2,0,0,1-1,.21,11.32,11.32,0,0,1-3.23,0,11.78,11.78,0,0,1-2.84-1.2c-12.31-10-26.19-22.42-42.85-27.66-16.67,5.24-30.55,17.69-42.85,27.66a12,12,0,0,1-2.85,1.2,11.32,11.32,0,0,1-3.23,0,6.76,6.76,0,0,1-1-.21l-.11,0a6.06,6.06,0,0,1-2.08-1.05.92.92,0,0,1-.31-.71h0V262h0a1,1,0,0,0,.31.88c1,.79,2.94,1.76,6.38,1.26a12,12,0,0,0,2.85-1.2c12.3-10,26.18-20.22,42.85-25.46C88.58,242.73,102.46,253,114.77,263a11.78,11.78,0,0,0,2.84,1.2c3.44.5,5.4-.47,6.38-1.26A1,1,0,0,0,124.31,262Z"/><path class="cls-3" d="M61.06,225.18c0,2.37,4.86,4.28,10.86,4.28s10.85-1.91,10.85-4.28-4.86-4.29-10.85-4.29S61.06,222.81,61.06,225.18Z"/><path class="cls-3" d="M61.06,224.26c0,2.37,4.86,4.28,10.86,4.28s10.85-1.91,10.85-4.28S77.91,220,71.92,220,61.06,221.89,61.06,224.26Z"/><path class="cls-3" d="M71.92,192.15c-3,0-5.47.75-5.47,1.67V223.5c0,.42,1.06,1.52,5.47,1.52s5.47-1.1,5.47-1.52V193.82C77.39,192.9,74.94,192.15,71.92,192.15Z"/><path class="cls-3" d="M66.45,193.82c0,.92,2.45,1.67,5.47,1.67s5.47-.75,5.47-1.67-2.45-1.67-5.47-1.67S66.45,192.9,66.45,193.82Z"/><path class="cls-3" d="M69,158.26V193.5c0,.22,1.29.4,2.89.4s2.88-.18,2.88-.4V158.26Z"/><path class="cls-4" d="M139.1,230.88h0a41.5,41.5,0,0,0-4.43-2.84c-13.65-5.22-33.45-4.59-52.37-5-.8-1-2.58-1.91-4.91-2.45V193.82c0-.6-1-1.12-2.59-1.42V158.26H69V192.4c-1.55.3-2.58.82-2.58,1.42v26.74a11.44,11.44,0,0,0-4,1.63c-19.19-.59-39.4.55-53.25,5.85a41.48,41.48,0,0,0-4.44,2.84l-.08,0v4.52l0,0c.05,0,.18,0,.42-.06,10-3,26.64-5.14,43.14-3.14l.06,0c.7-.47,1.39-.91,2.07-1.34-10.2,6.43-23.22,17.22-30.45,25.68a1.87,1.87,0,0,0-.32.65,1.16,1.16,0,0,1-.07-.37h0V262h0a1,1,0,0,0,.31.88c1,.79,2.94,1.76,6.38,1.26a12,12,0,0,0,2.85-1.2c11.27-9.14,23.88-18.49,38.73-24v6.87c0,.32,1.84.57,4.12.57s4.12-.25,4.12-.57v-6.87c14.85,5.54,27.45,14.89,38.73,24a11.78,11.78,0,0,0,2.84,1.2c3.44.5,5.4-.47,6.38-1.26a1,1,0,0,0,.32-.88h0V257.8h0v-1h0a1.17,1.17,0,0,1-.08.37,2.07,2.07,0,0,0-.31-.65c-7.23-8.46-20.25-19.24-30.45-25.68.68.43,1.37.87,2.07,1.34l.06,0c16.5-2,33.19.17,43.13,3.14.25.07.38.09.43.06l0,0v-4.52Z"/><path class="cls-3" d="M134.26,136.44l1.73,1.73s2.73,6.47-.28,8.93l-5.46-.55-4.56-9.2Z"/><path class="cls-3" d="M136,146.82c2.53-2.63,0-8.65,0-8.65l-1.73-1.73-3,.32Z"/><polygon class="cls-3" points="13.97 136.08 25.8 145.84 46.22 145.84 38.71 135.09 13.97 136.08"/><polygon class="cls-3" points="20.75 135.81 30.1 145.84 25.8 145.84 13.97 136.08 20.75 135.81"/><polygon class="cls-3" points="19 135.88 28.53 145.84 30.1 145.84 20.75 135.81 19 135.88"/><path class="cls-3" d="M12.11,135.09c-2.93.39-4.7,1.7-5.69,3.75l3.61,1a7.78,7.78,0,0,1,4.52-3.25Z"/><path class="cls-3" d="M41.17,143.85c4,3.56,10.17,12.13,20.32,14.29a129,129,0,0,0,30.94,2.58c11.31-.25,27.82-1.34,27.82-1.34V138.84H41.17Z"/><path class="cls-4" d="M136,138.17l-1.73-1.73-8.57.91,4.56,9.2,5.46.55C138.72,144.64,136,138.17,136,138.17Z"/><path class="cls-4" d="M38.71,135.09l-24.74,1,.57.47-2.43-1.46c-2.93.39-4.7,1.7-5.69,3.75l3.61,1a7.78,7.78,0,0,1,4.52-3.25l11.25,9.29H43.21c4,4.09,9.71,10.47,18.28,12.3a129,129,0,0,0,30.94,2.58c11.31-.25,27.82-1.34,27.82-1.34V138.84H41.33Z"/><path class="cls-3" d="M43.92,144.33c4.92,5.41,10.19,10.24,21.57,11.66s16.13.49,13.13-3.92a33.54,33.54,0,0,0-6.15-6.91Z"/><path class="cls-3" d="M65.74,155.33c-10.9-1.36-16.19-5.85-20.93-11l-.89,0c4.92,5.41,10.19,10.24,21.57,11.66,8.82,1.09,13.63.78,14-1.47C78.3,156.16,73.61,156.3,65.74,155.33Z"/><path class="cls-3" d="M52.18,144.57c5,3.83,11,7.69,26.54,7.67l-.1-.17a33.54,33.54,0,0,0-6.15-6.91Z"/><path class="cls-3" d="M20.57,83.5l0-4.28L53,79.3v3.31C47.09,82,31.2,82.39,20.57,83.5Z"/><path class="cls-5" d="M67.4,6.64c0,22,.12,42.54-3,60S59,99.44,67.07,120.53l65.06,17.95,4-.45c-6.73-22.44-13.91-43.08-5.39-66s12.63-45.5,8.59-63.45C139.37,8.62,111.94-8.25,67.4,6.64Z"/><path class="cls-4" d="M67.4,6.64c0,22,.12,42.54-3,60S59,99.44,67.07,120.53l65.06,17.95,4-.45c-6.73-22.44-13.91-43.08-5.39-66s12.63-45.5,8.59-63.45C139.37,8.62,111.94-8.25,67.4,6.64Z"/><path class="cls-6" d="M130.78,72.07c8.53-22.89,12.63-45.5,8.59-63.45,0,0-13.31-8.17-36.43-8.11,22.33.23,34.89,8.11,34.89,8.11,3.44,18-1.42,40.56-10.71,63.45s-2.81,43.48,3.16,65.9l1.85.51,4-.45C129.44,115.59,122.26,95,130.78,72.07Z"/><path class="cls-3" d="M139.09,93.7c-1.19-1.07-10.19-1.76-20.48-1.76s-16,1.67-16.21,4.17a1.41,1.41,0,0,1-.4.88c12.93-1.16,31.09-1.5,38-.88v-2A1.85,1.85,0,0,1,139.09,93.7Z"/><path class="cls-5" d="M140.94,93.14c-1.11-4.35-10.47-6.85-25.2-6.85-10.29,0-33.82,2.5-33.73,7S82.2,98,89.52,98s12.69.65,12.88-1.85,5.93-4.17,16.21-4.17,19.29.69,20.48,1.76C140,94.54,141.23,94.26,140.94,93.14Z"/><path class="cls-6" d="M140.94,93.14c-1.11-4.35-10.47-6.85-25.2-6.85-10.29,0-33.82,2.5-33.73,7S82.2,98,89.52,98s12.69.65,12.88-1.85,5.93-4.17,16.21-4.17,19.29.69,20.48,1.76C140,94.54,141.23,94.26,140.94,93.14Z"/><path class="cls-3" d="M126.75,95.7l-12.31.39s4.23,3.24,4.23,6.14.6,17.73.6,17.73l3-.48s-.09-15-.09-16.73C122.17,99.33,126.75,95.7,126.75,95.7Z"/><polygon class="cls-3" points="117.38 98.35 119.02 100.39 121.07 100.29 123.05 98.27 117.38 98.35"/><path class="cls-3" d="M114.44,96.09l-4.8.3s4.43,2.94,4.8,5.85c.4,3.2.88,17.39.88,17.39l4,.33s-.6-14.82-.6-17.73S114.44,96.09,114.44,96.09Z"/><path class="cls-5" d="M53.75,80.23c-.91-3.56-8.57-5.61-20.63-5.61-8.42,0-27.69,2-27.61,5.77s.15,3.79,6.14,3.79S22,84.71,22.2,82.66s4.85-3.41,13.27-3.41,15.79.57,16.76,1.44C53,81.37,54,81.14,53.75,80.23Z"/><path class="cls-6" d="M53.75,80.23c-.91-3.56-8.57-5.61-20.63-5.61-8.42,0-27.69,2-27.61,5.77s.15,3.79,6.14,3.79S22,84.71,22.2,82.66s4.85-3.41,13.27-3.41,15.79.57,16.76,1.44C53,81.37,54,81.14,53.75,80.23Z"/><path class="cls-3" d="M38.21,82.47l-10.07.31s3.46,2.66,3.46,5,.49,14.53.49,14.53l2.45-.39s-.07-12.33-.07-13.72C34.47,85.44,38.21,82.47,38.21,82.47Z"/><polygon class="cls-3" points="31.05 84.38 32.4 86.05 34.07 85.97 35.69 84.32 31.05 84.38"/><path class="cls-3" d="M32.09,102.34,35,102s3,22,8.49,32.93v3.06l-1.66,1.66-2-.92S34.54,126.44,32.09,102.34Z"/><path class="cls-3" d="M32.09,102.34l-4-.39s1.19,27.12,6.42,36.61l1.8.78,5.46.26Z"/><path class="cls-3" d="M28.14,82.78,24.21,83s3.63,2.41,3.93,4.79c.33,2.62.72,14.25.72,14.25l3.23.27S31.6,90.2,31.6,87.81,28.14,82.78,28.14,82.78Z"/><polygon class="cls-3" points="78.74 145.84 100.58 145 100.08 139.8 77.38 139.8 78.74 145.84"/><path class="cls-3" d="M119.27,137.8l-28.65,2.71c2.81,4.78,6.56,11.29,14.78,17.68l17.4,1.35Zm-9.63,15.34c-3.3-2.61-7-7.17-8.47-11.37h10.09c1.91,5.24,7.52,12.49,7.52,12.49Z"/><path class="cls-3" d="M123.22,137.8l-28.65,2.71c2.81,4.78,6.56,11.29,14.78,17.68l17.4,1.35Zm-13.58,15.34c-3.3-2.61-7-7.17-8.47-11.37h10.09c1.91,5.24,7.52,12.49,7.52,12.49Z"/><path class="cls-3" d="M118.78,154.26s-5.61-7.25-7.52-12.49H108c1.63,4.48,6,10.42,7.18,12Z"/><path class="cls-3" d="M86.21,141.14c5.06,1.44,14.7,5.5,19.78,6s18.63-1.61,18.63-1.61l-2.85-7.44S85,133.12,86.21,141.14Z"/><path class="cls-5" d="M124.61,130.29c-9.43-.73-29.72-2.73-41.24-7.22s-21.54-5.23-36.49-6-35.3.44-40.69,2.39-10.32,10.17,2,15.56,36.64,10,51.15,11.37,18.22.89,22.72-2.55,5.7-3.89,14.67-4,24.53.45,29.54-.3S133.11,130.94,124.61,130.29Z"/><path class="cls-4" d="M124.61,130.29c-9.43-.73-29.72-2.73-41.24-7.22s-21.54-5.23-36.49-6-35.3.44-40.69,2.39-10.32,10.17,2,15.56,36.64,10,51.15,11.37,18.22.89,22.72-2.55,5.7-3.89,14.67-4,24.53.45,29.54-.3S133.11,130.94,124.61,130.29Z"/><path class="cls-3" d="M119.27,120l-4.76-.33s1.38,33,7.77,44.57l2.21,1,6.67.32Z"/><path class="cls-3" d="M119.27,120l3.54-.48s3.64,26.93,10.37,40.24v3.74l-2,2-2.47-1.13S122.26,149.39,119.27,120Z"/><path class="cls-4" d="M122.26,119.48s-.09-15-.09-16.73c0-3.06,3.65-6.28,4.42-6.92,5.64-.07,10.52,0,13.43.28v-2c.62.1,1.11-.26.92-1-1.11-4.35-10.47-6.85-25.2-6.85-10.29,0-33.82,2.5-33.73,7S82.2,98,89.52,98c6.28,0,11.12.47,12.48-1,2.42-.22,5-.41,7.69-.56.5.34,4.4,3.09,4.75,5.81.4,3.2.88,17.39.88,17.39"/><path class="cls-4" d="M114.51,119.63s1.38,33,7.77,44.57l2.21,1,6.67.32,2-2v-3.74c-6.73-13.31-10.37-40.24-10.37-40.24"/><path class="cls-4" d="M37.72,116.86C35.93,108.86,35,102,35,102l-2.9.39,2.45-.39s-.07-12.33-.07-13.72c0-2.79,3.74-5.76,3.74-5.76l-5.65.17a180.11,180.11,0,0,1,20.43,0V81.06c.51.08.92-.21.76-.83-.91-3.56-8.57-5.61-20.63-5.61-8.42,0-27.69,2-27.61,5.77s.15,3.79,6.14,3.79c5.16,0,9.13.39,10.23-.81l2.51-.22c.72.52,3.49,2.6,3.75,4.67.32,2.52.69,13.39.72,14.2l-.72-.07v.13s0,.07,0,.12v.29c0,.07,0,.15,0,.25v.11c0,.52.07,1.24.13,2.14v.1c0,.22,0,.44,0,.67v.13c.2,2.79.53,6.78,1.05,11.09"/><path class="cls-4" d="M29.07,263c12.3-10,26.18-20.22,42.85-25.46C88.58,242.73,102.46,253,114.77,263"/><path class="cls-3" d="M707,237.73a5.63,5.63,0,1,1-5.63-5.63A5.63,5.63,0,0,1,707,237.73Z"/><path class="cls-3" d="M708.85,238.5a5.87,5.87,0,1,1-5.87-5.87A5.87,5.87,0,0,1,708.85,238.5Z"/><path class="cls-3" d="M710.54,239.43a6,6,0,1,1-5.95-6A6,6,0,0,1,710.54,239.43Z"/><path class="cls-3" d="M687.54,266.58a5.63,5.63,0,1,1-5.62-5.63A5.61,5.61,0,0,1,687.54,266.58Z"/><path class="cls-3" d="M689.39,267.35a5.87,5.87,0,1,1-5.87-5.87A5.86,5.86,0,0,1,689.39,267.35Z"/><path class="cls-3" d="M691.08,268.28a6,6,0,1,1-6-5.95A5.95,5.95,0,0,1,691.08,268.28Z"/><circle class="cls-3" cx="595.83" cy="265.89" r="5.63"/><path class="cls-3" d="M603.3,266.66a5.87,5.87,0,1,1-5.86-5.87A5.86,5.86,0,0,1,603.3,266.66Z"/><path class="cls-3" d="M605,267.59a6,6,0,1,1-6-5.95A6,6,0,0,1,605,267.59Z"/><path class="cls-3" d="M580.45,238.16a5.63,5.63,0,1,1-5.62-5.63A5.62,5.62,0,0,1,580.45,238.16Z"/><path class="cls-3" d="M582.3,238.93a5.87,5.87,0,1,1-5.87-5.87A5.86,5.86,0,0,1,582.3,238.93Z"/><path class="cls-3" d="M584,239.86a5.95,5.95,0,1,1-5.94-6A5.94,5.94,0,0,1,584,239.86Z"/><path class="cls-4" d="M706.47,233.79a5.93,5.93,0,0,0-2.55-1.08,5.73,5.73,0,0,0-2.54-.61,5.63,5.63,0,0,0-2.32,10.75,5.88,5.88,0,0,0,1.6,1,5.95,5.95,0,1,0,5.81-10.1Z"/><path class="cls-4" d="M687,262.63a5.82,5.82,0,0,0-2.54-1.07,5.73,5.73,0,0,0-2.54-.61,5.62,5.62,0,0,0-2.32,10.75,5.79,5.79,0,0,0,1.59,1,5.95,5.95,0,1,0,5.81-10.1Z"/><path class="cls-4" d="M600.92,262a5.8,5.8,0,0,0-2.56-1.08A5.62,5.62,0,1,0,593.51,271a5.88,5.88,0,0,0,1.6,1,5.95,5.95,0,1,0,5.81-10.1Z"/><path class="cls-4" d="M579.91,234.21a5.7,5.7,0,0,0-2.55-1.07,5.53,5.53,0,0,0-2.53-.61,5.62,5.62,0,0,0-2.33,10.74A14.28,14.28,0,0,0,578,245.8a5.95,5.95,0,0,0,1.87-11.59Z"/><path class="cls-3" d="M634.59,213v32.83c0,.32,1.84.57,4.12.57s4.12-.25,4.12-.57V213Z"/><path class="cls-3" d="M638.71,222.61c21.76,1.28,46.58-.75,62.75,5.43,0,0,6.22,3.58,4.06,2.93-11.71-3.5-30.83-5.49-51.87-3.87,10.39,5,28.13,19,37.06,29.41.31.37.67,1.52.07,2-1,.79-2.94,1.76-6.38,1.26a11.78,11.78,0,0,1-2.84-1.2c-12.31-10-26.19-22.42-42.85-27.66-16.67,5.24-30.55,17.69-42.85,27.66a12,12,0,0,1-2.85,1.2c-3.44.5-5.39-.47-6.38-1.26-.6-.48-.24-1.63.08-2,8.93-10.45,26.67-24.43,37-29.41-21-1.62-40.16.37-51.87,3.87-2.16.65,4.07-2.93,4.07-2.93C592.13,221.86,617,221.33,638.71,222.61Z"/><path class="cls-3" d="M691.1,261h0v-4.2h0a.93.93,0,0,1-.32.7,5.83,5.83,0,0,1-2.07,1.05l-.12,0a7.7,7.7,0,0,1-1,.2,10.63,10.63,0,0,1-3.23,0,11.4,11.4,0,0,1-2.84-1.2c-12.31-10-26.19-22.42-42.85-27.66-16.67,5.24-30.55,17.69-42.85,27.66a11.63,11.63,0,0,1-2.85,1.2,10.63,10.63,0,0,1-3.23,0,8.54,8.54,0,0,1-1-.2l-.11,0a5.89,5.89,0,0,1-2.08-1.05,1,1,0,0,1-.32-.7h0V261h0a1,1,0,0,0,.31.88c1,.8,2.94,1.76,6.38,1.27a12,12,0,0,0,2.85-1.21c12.3-10,26.18-20.22,42.85-25.46,16.66,5.24,30.54,15.49,42.85,25.46a11.8,11.8,0,0,0,2.84,1.21c3.44.49,5.4-.47,6.38-1.27A1,1,0,0,0,691.1,261Z"/><path class="cls-3" d="M616.55,231.19l.06,0c1.39-.92,2.74-1.77,4-2.54l.11-.07c.63-.37,1.25-.73,1.85-1.06l.11-.06c.9-.49,1.76-.95,2.58-1.34-21-1.62-40.16.37-51.87,3.87-.46.14-.53.08-.38-.08l-.08,0v4.52l0,0s.18,0,.43-.06C583.36,231.36,600.05,229.19,616.55,231.19Z"/><path class="cls-3" d="M660.86,231.19l-.06,0q-2.09-1.38-4-2.54l-.11-.07c-.63-.37-1.25-.73-1.85-1.06l-.11-.06c-.89-.49-1.76-.95-2.57-1.34,21-1.62,40.16.37,51.87,3.87.45.14.52.08.37-.08l.08,0v4.52l0,0s-.18,0-.42-.06C694.05,231.36,677.36,229.19,660.86,231.19Z"/><path class="cls-3" d="M615,232.21l.06,0c1.38-.92,2.73-1.77,4-2.54l.12-.07c.63-.37,1.25-.73,1.85-1.06l.11-.06c.89-.5,1.76-.95,2.57-1.34-21-1.62-40.16.37-51.87,3.87-.45.14-.52.08-.37-.09l-.08,0v4.52l0,0s.18,0,.42-.06C581.84,232.38,598.53,230.21,615,232.21Z"/><path class="cls-3" d="M662.39,232.21l-.06,0c-1.39-.92-2.74-1.77-4-2.54l-.11-.07c-.63-.37-1.25-.73-1.85-1.06l-.11-.06c-.9-.5-1.76-.95-2.58-1.34,21-1.62,40.16.37,51.87,3.87.46.14.52.08.37-.09l.09,0v4.52l0,0s-.17,0-.42-.06C695.58,232.38,678.89,230.21,662.39,232.21Z"/><path class="cls-3" d="M691.1,262h0V257.8h0a.93.93,0,0,1-.32.71,6,6,0,0,1-2.07,1.05l-.12,0a6.2,6.2,0,0,1-1,.21,11.32,11.32,0,0,1-3.23,0,11.78,11.78,0,0,1-2.84-1.2c-12.31-10-26.19-22.42-42.85-27.66-16.67,5.24-30.55,17.69-42.85,27.66a12,12,0,0,1-2.85,1.2,11.32,11.32,0,0,1-3.23,0,6.76,6.76,0,0,1-1-.21l-.11,0a6.06,6.06,0,0,1-2.08-1.05,1,1,0,0,1-.32-.71h0V262h0a1,1,0,0,0,.31.88c1,.79,2.94,1.76,6.38,1.26a12,12,0,0,0,2.85-1.2c12.3-10,26.18-20.22,42.85-25.46,16.66,5.24,30.54,15.49,42.85,25.46a11.78,11.78,0,0,0,2.84,1.2c3.44.5,5.4-.47,6.38-1.26A1,1,0,0,0,691.1,262Z"/><path class="cls-3" d="M627.85,225.18c0,2.37,4.86,4.28,10.86,4.28s10.85-1.91,10.85-4.28-4.86-4.29-10.85-4.29S627.85,222.81,627.85,225.18Z"/><path class="cls-3" d="M627.85,224.26c0,2.37,4.86,4.28,10.86,4.28s10.85-1.91,10.85-4.28S644.7,220,638.71,220,627.85,221.89,627.85,224.26Z"/><path class="cls-3" d="M638.71,192.15c-3,0-5.48.75-5.48,1.67V223.5c0,.42,1.07,1.52,5.48,1.52s5.47-1.1,5.47-1.52V193.82C644.18,192.9,641.73,192.15,638.71,192.15Z"/><path class="cls-3" d="M633.23,193.82c0,.92,2.46,1.67,5.48,1.67s5.47-.75,5.47-1.67-2.45-1.67-5.47-1.67S633.23,192.9,633.23,193.82Z"/><path class="cls-3" d="M635.82,158.26V193.5c0,.22,1.29.4,2.89.4s2.88-.18,2.88-.4V158.26Z"/><path class="cls-4" d="M705.89,230.88h0a41.5,41.5,0,0,0-4.43-2.84c-13.65-5.22-33.45-4.59-52.37-5-.8-1-2.58-1.91-4.91-2.45V193.82c0-.6-1-1.12-2.59-1.42V158.26h-5.77V192.4c-1.55.3-2.59.82-2.59,1.42v26.74a11.46,11.46,0,0,0-4,1.63c-19.19-.59-39.4.55-53.25,5.85a41.48,41.48,0,0,0-4.44,2.84l-.08,0v4.52l0,0s.18,0,.42-.06c10-3,26.64-5.14,43.14-3.14l.06,0c.7-.47,1.39-.91,2.07-1.34-10.2,6.43-23.22,17.22-30.45,25.68a1.87,1.87,0,0,0-.32.65,1.53,1.53,0,0,1-.08-.37h0V262h0a1,1,0,0,0,.31.88c1,.79,2.94,1.76,6.38,1.26a12,12,0,0,0,2.85-1.2c11.27-9.14,23.88-18.49,38.73-24v6.87c0,.32,1.84.57,4.12.57s4.12-.25,4.12-.57v-6.87c14.85,5.54,27.45,14.89,38.73,24a11.78,11.78,0,0,0,2.84,1.2c3.44.5,5.4-.47,6.38-1.26a1,1,0,0,0,.32-.88h0V257.8h0v-1h0a1.17,1.17,0,0,1-.08.37,2.07,2.07,0,0,0-.31-.65c-7.23-8.46-20.25-19.24-30.45-25.68.68.43,1.37.87,2.07,1.34l.06,0c16.5-2,33.19.17,43.13,3.14.25.07.38.09.42.06l0,0v-4.52Z"/><path class="cls-3" d="M701.05,136.44l1.73,1.73s2.73,6.47-.28,8.93l-5.46-.55-4.56-9.2Z"/><path class="cls-3" d="M702.78,146.82c2.53-2.63,0-8.65,0-8.65l-1.73-1.73-3,.32Z"/><polygon class="cls-3" points="580.76 136.08 592.59 145.84 613.01 145.84 605.5 135.09 580.76 136.08"/><polygon class="cls-3" points="587.54 135.81 596.89 145.84 592.59 145.84 580.76 136.08 587.54 135.81"/><polygon class="cls-3" points="585.79 135.88 595.32 145.84 596.89 145.84 587.54 135.81 585.79 135.88"/><path class="cls-3" d="M578.9,135.09c-2.93.39-4.7,1.7-5.69,3.75l3.61,1a7.78,7.78,0,0,1,4.52-3.25Z"/><path class="cls-3" d="M608,143.85c4,3.56,10.17,12.13,20.32,14.29a129,129,0,0,0,30.94,2.58c11.31-.25,27.82-1.34,27.82-1.34V138.84H608Z"/><path class="cls-4" d="M702.78,138.17l-1.73-1.73-8.57.91,4.56,9.2,5.46.55C705.51,144.64,702.78,138.17,702.78,138.17Z"/><path class="cls-4" d="M605.5,135.09l-24.74,1,.57.47-2.43-1.46c-2.93.39-4.7,1.7-5.69,3.75l3.61,1a7.78,7.78,0,0,1,4.52-3.25l11.25,9.29H610c4,4.09,9.71,10.47,18.28,12.3a129,129,0,0,0,30.94,2.58c11.31-.25,27.82-1.34,27.82-1.34V138.84H608.12Z"/><path class="cls-3" d="M610.71,144.33c4.92,5.41,10.19,10.24,21.57,11.66s16.13.49,13.13-3.92a33.54,33.54,0,0,0-6.15-6.91Z"/><path class="cls-3" d="M632.53,155.33c-10.9-1.36-16.19-5.85-20.94-11l-.88,0c4.92,5.41,10.19,10.24,21.57,11.66,8.82,1.09,13.63.78,14-1.47C645.09,156.16,640.4,156.3,632.53,155.33Z"/><path class="cls-3" d="M619,144.57c5,3.83,11,7.69,26.54,7.67l-.1-.17a33.54,33.54,0,0,0-6.15-6.91Z"/><path class="cls-3" d="M587.36,83.5l0-4.28,32.39.08v3.31C613.88,82,598,82.39,587.36,83.5Z"/><path class="cls-5" d="M634.19,6.64c0,22,.12,42.54-3,60s-5.39,32.76,2.69,53.85l65.06,17.95,4-.45c-6.73-22.44-13.91-43.08-5.38-66s12.62-45.5,8.58-63.45C706.16,8.62,678.73-8.25,634.19,6.64Z"/><path class="cls-4" d="M634.19,6.64c0,22,.12,42.54-3,60s-5.39,32.76,2.69,53.85l65.06,17.95,4-.45c-6.73-22.44-13.91-43.08-5.38-66s12.62-45.5,8.58-63.45C706.16,8.62,678.73-8.25,634.19,6.64Z"/><path class="cls-6" d="M697.58,72.07c8.52-22.89,12.62-45.5,8.58-63.45,0,0-13.31-8.17-36.43-8.11,22.33.23,34.89,8.11,34.89,8.11,3.44,18-1.42,40.56-10.71,63.45s-2.81,43.48,3.16,65.9l1.85.51,4-.45C696.23,115.59,689.05,95,697.58,72.07Z"/><path class="cls-3" d="M705.88,93.7c-1.19-1.07-10.19-1.76-20.48-1.76s-16,1.67-16.21,4.17a1.41,1.41,0,0,1-.4.88c12.93-1.16,31.09-1.5,38-.88v-2A1.85,1.85,0,0,1,705.88,93.7Z"/><path class="cls-5" d="M707.73,93.14c-1.11-4.35-10.47-6.85-25.2-6.85-10.29,0-33.82,2.5-33.73,7S649,98,656.31,98s12.69.65,12.88-1.85,5.93-4.17,16.21-4.17,19.29.69,20.48,1.76C706.81,94.54,708,94.26,707.73,93.14Z"/><path class="cls-6" d="M707.73,93.14c-1.11-4.35-10.47-6.85-25.2-6.85-10.29,0-33.82,2.5-33.73,7S649,98,656.31,98s12.69.65,12.88-1.85,5.93-4.17,16.21-4.17,19.29.69,20.48,1.76C706.81,94.54,708,94.26,707.73,93.14Z"/><path class="cls-3" d="M693.54,95.7l-12.31.39s4.23,3.24,4.23,6.14.6,17.73.6,17.73l3-.48s-.09-15-.09-16.73C689,99.33,693.54,95.7,693.54,95.7Z"/><polygon class="cls-3" points="684.17 98.35 685.81 100.39 687.86 100.29 689.84 98.27 684.17 98.35"/><path class="cls-3" d="M681.23,96.09l-4.8.3s4.43,2.94,4.8,5.85c.4,3.2.88,17.39.88,17.39l3.95.33s-.6-14.82-.6-17.73S681.23,96.09,681.23,96.09Z"/><path class="cls-5" d="M620.54,80.23c-.91-3.56-8.57-5.61-20.63-5.61-8.42,0-27.69,2-27.61,5.77s.15,3.79,6.14,3.79,10.39.53,10.55-1.52,4.85-3.41,13.27-3.41,15.79.57,16.76,1.44C619.78,81.37,620.77,81.14,620.54,80.23Z"/><path class="cls-6" d="M620.54,80.23c-.91-3.56-8.57-5.61-20.63-5.61-8.42,0-27.69,2-27.61,5.77s.15,3.79,6.14,3.79,10.39.53,10.55-1.52,4.85-3.41,13.27-3.41,15.79.57,16.76,1.44C619.78,81.37,620.77,81.14,620.54,80.23Z"/><path class="cls-3" d="M605,82.47l-10.07.31s3.46,2.66,3.46,5,.49,14.53.49,14.53l2.45-.39s-.08-12.33-.08-13.72C601.25,85.44,605,82.47,605,82.47Z"/><polygon class="cls-3" points="597.84 84.38 599.19 86.05 600.86 85.97 602.48 84.32 597.84 84.38"/><path class="cls-3" d="M598.88,102.34l2.9-.39s3,22,8.49,32.93v3.06l-1.66,1.66-2-.92S601.33,126.44,598.88,102.34Z"/><path class="cls-3" d="M598.88,102.34l-4-.39s1.19,27.12,6.42,36.61l1.8.78,5.46.26Z"/><path class="cls-3" d="M594.93,82.78,591,83s3.63,2.41,3.93,4.79c.33,2.62.72,14.25.72,14.25l3.23.27s-.49-12.14-.49-14.53S594.93,82.78,594.93,82.78Z"/><polygon class="cls-3" points="645.53 145.84 667.37 145 666.88 139.8 644.16 139.8 645.53 145.84"/><path class="cls-3" d="M686.06,137.8l-28.65,2.71c2.81,4.78,6.56,11.29,14.78,17.68l17.4,1.35Zm-9.63,15.34c-3.3-2.61-7-7.17-8.47-11.37h10.09c1.91,5.24,7.52,12.49,7.52,12.49Z"/><path class="cls-3" d="M690,137.8l-28.65,2.71c2.81,4.78,6.56,11.29,14.78,17.68l17.4,1.35Zm-13.58,15.34c-3.3-2.61-7-7.17-8.47-11.37h10.09c1.91,5.24,7.52,12.49,7.52,12.49Z"/><path class="cls-3" d="M685.57,154.26S680,147,678.05,141.77h-3.26c1.63,4.48,6,10.42,7.18,12Z"/><path class="cls-3" d="M653,141.14c5.06,1.44,14.7,5.5,19.78,6s18.63-1.61,18.63-1.61l-2.85-7.44S651.77,133.12,653,141.14Z"/><path class="cls-5" d="M691.4,130.29c-9.43-.73-29.72-2.73-41.24-7.22s-21.54-5.23-36.49-6-35.3.44-40.69,2.39-10.32,10.17,1.95,15.56,36.64,10,51.15,11.37,18.22.89,22.72-2.55,5.7-3.89,14.67-4,24.53.45,29.54-.3S699.91,130.94,691.4,130.29Z"/><path class="cls-4" d="M691.4,130.29c-9.43-.73-29.72-2.73-41.24-7.22s-21.54-5.23-36.49-6-35.3.44-40.69,2.39-10.32,10.17,1.95,15.56,36.64,10,51.15,11.37,18.22.89,22.72-2.55,5.7-3.89,14.67-4,24.53.45,29.54-.3S699.91,130.94,691.4,130.29Z"/><path class="cls-3" d="M686.06,120l-4.76-.33s1.38,33,7.77,44.57l2.21,1,6.67.32Z"/><path class="cls-3" d="M686.06,120l3.54-.48s3.64,26.93,10.37,40.24v3.74l-2,2-2.47-1.13S689.05,149.39,686.06,120Z"/><path class="cls-4" d="M689.05,119.48s-.09-15-.09-16.73c0-3.06,3.65-6.28,4.42-6.92,5.64-.07,10.52,0,13.43.28v-2c.62.1,1.11-.26.92-1-1.11-4.35-10.47-6.85-25.2-6.85-10.29,0-33.82,2.5-33.73,7S649,98,656.31,98c6.28,0,11.12.47,12.48-1,2.42-.22,5-.41,7.69-.56.5.34,4.4,3.09,4.75,5.81.4,3.2.88,17.39.88,17.39"/><path class="cls-4" d="M681.3,119.63s1.38,33,7.77,44.57l2.21,1,6.67.32,2-2v-3.74c-6.73-13.31-10.37-40.24-10.37-40.24"/><path class="cls-4" d="M604.51,116.86c-1.79-8-2.73-14.91-2.73-14.91l-2.9.39,2.45-.39s-.08-12.33-.08-13.72c0-2.79,3.75-5.76,3.75-5.76l-5.65.17a180.11,180.11,0,0,1,20.43,0V81.06c.51.08.92-.21.76-.83-.91-3.56-8.57-5.61-20.63-5.61-8.42,0-27.69,2-27.61,5.77s.15,3.79,6.14,3.79c5.16,0,9.13.39,10.23-.81l2.51-.22c.72.52,3.49,2.6,3.75,4.67.32,2.52.69,13.39.72,14.2l-.72-.07v.13s0,.07,0,.12v.13a.81.81,0,0,1,0,.16c0,.07,0,.15,0,.25v.11c0,.52.07,1.24.13,2.14v.1c0,.22,0,.44,0,.67v.13c.2,2.79.53,6.78,1.05,11.09"/><path class="cls-4" d="M595.86,263c12.3-10,26.18-20.22,42.85-25.46,16.66,5.24,30.54,15.49,42.85,25.46"/><path class="cls-3" d="M990.4,237.73a5.63,5.63,0,1,1-5.63-5.63A5.63,5.63,0,0,1,990.4,237.73Z"/><path class="cls-3" d="M992.25,238.5a5.87,5.87,0,1,1-5.87-5.87A5.87,5.87,0,0,1,992.25,238.5Z"/><path class="cls-3" d="M993.93,239.43a5.95,5.95,0,1,1-5.95-6A6,6,0,0,1,993.93,239.43Z"/><circle class="cls-3" cx="965.31" cy="266.58" r="5.63"/><path class="cls-3" d="M972.78,267.35a5.87,5.87,0,1,1-5.86-5.87A5.86,5.86,0,0,1,972.78,267.35Z"/><path class="cls-3" d="M974.47,268.28a6,6,0,1,1-6-5.95A5.94,5.94,0,0,1,974.47,268.28Z"/><circle class="cls-3" cx="879.23" cy="265.89" r="5.63"/><path class="cls-3" d="M886.7,266.66a5.87,5.87,0,1,1-5.87-5.87A5.87,5.87,0,0,1,886.7,266.66Z"/><path class="cls-3" d="M888.39,267.59a5.95,5.95,0,1,1-5.95-5.95A6,6,0,0,1,888.39,267.59Z"/><path class="cls-3" d="M863.85,238.16a5.63,5.63,0,1,1-5.63-5.63A5.63,5.63,0,0,1,863.85,238.16Z"/><path class="cls-3" d="M865.69,238.93a5.87,5.87,0,1,1-5.86-5.87A5.86,5.86,0,0,1,865.69,238.93Z"/><path class="cls-3" d="M867.38,239.86a6,6,0,1,1-6-6A5.94,5.94,0,0,1,867.38,239.86Z"/><path class="cls-4" d="M989.86,233.79a5.88,5.88,0,0,0-2.55-1.08,5.62,5.62,0,1,0-4.86,10.14,5.88,5.88,0,0,0,1.6,1,5.95,5.95,0,1,0,5.81-10.1Z"/><path class="cls-4" d="M970.4,262.63a5.91,5.91,0,0,0-2.55-1.07A5.62,5.62,0,1,0,963,271.7a14.61,14.61,0,0,0,5.53,2.52,5.95,5.95,0,0,0,1.88-11.59Z"/><path class="cls-4" d="M884.31,262a5.81,5.81,0,0,0-2.55-1.08A5.62,5.62,0,1,0,876.91,271a5.82,5.82,0,0,0,1.59,1,5.95,5.95,0,1,0,5.81-10.1Z"/><path class="cls-4" d="M863.31,234.21a5.79,5.79,0,0,0-2.56-1.07,5.53,5.53,0,0,0-2.53-.61,5.62,5.62,0,0,0-2.32,10.74,14.32,14.32,0,0,0,5.53,2.53,5.95,5.95,0,0,0,1.88-11.59Z"/><path class="cls-3" d="M918,213v32.83c0,.32,1.85.57,4.12.57s4.12-.25,4.12-.57V213Z"/><path class="cls-3" d="M922.1,222.61c21.76,1.28,46.58-.75,62.75,5.43,0,0,6.23,3.58,4.07,2.93-11.71-3.5-30.83-5.49-51.87-3.87,10.38,5,28.12,19,37.05,29.41.32.37.67,1.52.08,2-1,.79-2.94,1.76-6.38,1.26a12,12,0,0,1-2.85-1.2c-12.3-10-26.18-22.42-42.85-27.66-16.66,5.24-30.54,17.69-42.85,27.66a12,12,0,0,1-2.84,1.2c-3.44.5-5.4-.47-6.38-1.26-.6-.48-.24-1.63.07-2,8.93-10.45,26.67-24.43,37.06-29.41-21-1.62-40.16.37-51.87,3.87-2.16.65,4.06-2.93,4.06-2.93C875.52,221.86,900.34,221.33,922.1,222.61Z"/><path class="cls-3" d="M974.49,261h0v-4.2h0a1,1,0,0,1-.32.7,5.89,5.89,0,0,1-2.08,1.05l-.11,0a8.54,8.54,0,0,1-1,.2,10.63,10.63,0,0,1-3.23,0,11.63,11.63,0,0,1-2.85-1.2c-12.3-10-26.18-22.42-42.85-27.66-16.66,5.24-30.54,17.69-42.85,27.66a11.56,11.56,0,0,1-2.84,1.2,10.63,10.63,0,0,1-3.23,0,7.7,7.7,0,0,1-1-.2l-.12,0a5.92,5.92,0,0,1-2.07-1.05.89.89,0,0,1-.32-.7h0V261h0a1,1,0,0,0,.32.88c1,.8,2.94,1.76,6.38,1.27a12,12,0,0,0,2.84-1.21c12.31-10,26.19-20.22,42.85-25.46,16.67,5.24,30.55,15.49,42.85,25.46a12,12,0,0,0,2.85,1.21c3.44.49,5.39-.47,6.38-1.27A1,1,0,0,0,974.49,261Z"/><path class="cls-3" d="M900,231.19l0,0c1.39-.92,2.75-1.77,4-2.54l.11-.07c.63-.37,1.25-.73,1.85-1.06l.11-.06c.89-.49,1.76-.95,2.57-1.34-21-1.62-40.16.37-51.87,3.87-.45.14-.52.08-.37-.08l-.08,0v4.52l0,0c.05,0,.18,0,.42-.06C866.75,231.36,883.45,229.19,900,231.19Z"/><path class="cls-3" d="M944.25,231.19l0,0c-1.39-.92-2.74-1.77-4-2.54l-.11-.07c-.64-.37-1.25-.73-1.85-1.06l-.11-.06c-.9-.49-1.76-.95-2.58-1.34,21-1.62,40.16.37,51.87,3.87.45.14.53.08.37-.08l.09,0v4.52l0,0c-.06,0-.18,0-.43-.06C977.45,231.36,960.76,229.19,944.25,231.19Z"/><path class="cls-3" d="M898.42,232.21l.06,0c1.39-.92,2.74-1.77,4-2.54l.11-.07c.63-.37,1.25-.73,1.85-1.06l.11-.06c.9-.5,1.76-.95,2.58-1.34-21-1.62-40.16.37-51.87,3.87-.46.14-.52.08-.37-.09l-.09,0v4.52l0,0c.06,0,.18,0,.43-.06C865.23,232.38,881.92,230.21,898.42,232.21Z"/><path class="cls-3" d="M945.78,232.21l-.06,0c-1.39-.92-2.74-1.77-4-2.54a.41.41,0,0,0-.11-.07c-.63-.37-1.25-.73-1.85-1.06l-.11-.06c-.89-.5-1.76-.95-2.57-1.34,21-1.62,40.16.37,51.87,3.87.45.14.52.08.37-.09l.08,0v4.52l0,0c-.05,0-.17,0-.42-.06C979,232.38,962.28,230.21,945.78,232.21Z"/><path class="cls-3" d="M974.49,262h0V257.8h0a1,1,0,0,1-.32.71,6.06,6.06,0,0,1-2.08,1.05l-.11,0a6.76,6.76,0,0,1-1,.21,11.32,11.32,0,0,1-3.23,0,12,12,0,0,1-2.85-1.2c-12.3-10-26.18-22.42-42.85-27.66-16.66,5.24-30.54,17.69-42.85,27.66a12,12,0,0,1-2.84,1.2,11.32,11.32,0,0,1-3.23,0,6.2,6.2,0,0,1-1-.21l-.12,0a6.1,6.1,0,0,1-2.07-1.05.9.9,0,0,1-.32-.71h0V262h0a1,1,0,0,0,.32.88c1,.79,2.94,1.76,6.38,1.26a12,12,0,0,0,2.84-1.2c12.31-10,26.19-20.22,42.85-25.46C938.77,242.73,952.65,253,965,263a12,12,0,0,0,2.85,1.2c3.44.5,5.39-.47,6.38-1.26A1,1,0,0,0,974.49,262Z"/><path class="cls-3" d="M911.25,225.18c0,2.37,4.86,4.28,10.85,4.28S933,227.55,933,225.18s-4.86-4.29-10.86-4.29S911.25,222.81,911.25,225.18Z"/><path class="cls-3" d="M911.25,224.26c0,2.37,4.86,4.28,10.85,4.28S933,226.63,933,224.26,928.1,220,922.1,220,911.25,221.89,911.25,224.26Z"/><path class="cls-3" d="M922.1,192.15c-3,0-5.47.75-5.47,1.67V223.5c0,.42,1.07,1.52,5.47,1.52s5.47-1.1,5.47-1.52V193.82C927.57,192.9,925.12,192.15,922.1,192.15Z"/><path class="cls-3" d="M916.63,193.82c0,.92,2.45,1.67,5.47,1.67s5.47-.75,5.47-1.67-2.45-1.67-5.47-1.67S916.63,192.9,916.63,193.82Z"/><path class="cls-3" d="M919.22,158.26V193.5c0,.22,1.29.4,2.88.4s2.89-.18,2.89-.4V158.26Z"/><path class="cls-4" d="M989.29,230.88h0a42.5,42.5,0,0,0-4.44-2.84c-13.64-5.22-33.44-4.59-52.37-5-.8-1-2.58-1.91-4.91-2.45V193.82c0-.6-1-1.12-2.58-1.42V158.26h-5.77V192.4c-1.55.3-2.59.82-2.59,1.42v26.74a11.6,11.6,0,0,0-4,1.63c-19.19-.59-39.39.55-53.25,5.85a42.5,42.5,0,0,0-4.44,2.84l-.08,0v4.52l0,0c.06,0,.18,0,.43-.06,9.94-3,26.63-5.14,43.13-3.14l.06,0c.7-.47,1.4-.91,2.08-1.34-10.21,6.43-23.22,17.22-30.46,25.68a2.07,2.07,0,0,0-.31.65,1.17,1.17,0,0,1-.08-.37h0V262h0a1,1,0,0,0,.32.88c1,.79,2.94,1.76,6.38,1.26a12,12,0,0,0,2.84-1.2c11.28-9.14,23.88-18.49,38.73-24v6.87c0,.32,1.85.57,4.12.57s4.12-.25,4.12-.57v-6.87c14.85,5.54,27.46,14.89,38.73,24a12,12,0,0,0,2.85,1.2c3.44.5,5.39-.47,6.38-1.26a1,1,0,0,0,.31-.88h0V257.8h0v-1h0a1.53,1.53,0,0,1-.08.37,1.87,1.87,0,0,0-.32-.65c-7.23-8.46-20.24-19.24-30.45-25.68.68.43,1.37.87,2.07,1.34l.06,0c16.5-2,33.19.17,43.14,3.14.25.07.37.09.42.06l0,0v-4.52Z"/><path class="cls-3" d="M984.44,136.44l1.73,1.73s2.74,6.47-.27,8.93l-5.47-.55-4.55-9.2Z"/><path class="cls-3" d="M986.18,146.82c2.52-2.63,0-8.65,0-8.65l-1.73-1.73-3,.32Z"/><polygon class="cls-3" points="864.16 136.08 875.98 145.84 896.4 145.84 888.9 135.09 864.16 136.08"/><polygon class="cls-3" points="870.94 135.81 880.28 145.84 875.98 145.84 864.16 136.08 870.94 135.81"/><polygon class="cls-3" points="869.19 135.88 878.72 145.84 880.28 145.84 870.94 135.81 869.19 135.88"/><path class="cls-3" d="M862.3,135.09c-2.93.39-4.71,1.7-5.69,3.75l3.61,1a7.73,7.73,0,0,1,4.51-3.25Z"/><path class="cls-3" d="M891.36,143.85c4,3.56,10.17,12.13,20.31,14.29a129.07,129.07,0,0,0,31,2.58c11.31-.25,27.81-1.34,27.81-1.34V138.84H891.36Z"/><path class="cls-4" d="M986.17,138.17l-1.73-1.73-8.56.91,4.55,9.2,5.47.55C988.91,144.64,986.17,138.17,986.17,138.17Z"/><path class="cls-4" d="M888.9,135.09l-24.74,1,.57.47-2.43-1.46c-2.93.39-4.71,1.7-5.69,3.75l3.61,1a7.73,7.73,0,0,1,4.51-3.25L876,145.84h17.41c4,4.09,9.71,10.47,18.28,12.3a129.07,129.07,0,0,0,31,2.58c11.31-.25,27.81-1.34,27.81-1.34V138.84H891.51Z"/><path class="cls-3" d="M894.11,144.33c4.92,5.41,10.18,10.24,21.56,11.66s16.13.49,13.14-3.92a33.4,33.4,0,0,0-6.16-6.91Z"/><path class="cls-3" d="M915.92,155.33c-10.89-1.36-16.18-5.85-20.93-11l-.88,0c4.92,5.41,10.18,10.24,21.56,11.66,8.82,1.09,13.63.78,14-1.47C928.49,156.16,923.8,156.3,915.92,155.33Z"/><path class="cls-3" d="M902.36,144.57c5,3.83,11,7.69,26.55,7.67l-.1-.17a33.4,33.4,0,0,0-6.16-6.91Z"/><path class="cls-3" d="M870.76,83.5l0-4.28,32.38.08v3.31C897.27,82,881.38,82.39,870.76,83.5Z"/><path class="cls-5" d="M917.58,6.64c0,22,.12,42.54-3,60s-5.39,32.76,2.69,53.85l65.07,17.95,4-.45c-6.73-22.44-13.91-43.08-5.38-66s12.62-45.5,8.58-63.45C989.55,8.62,962.12-8.25,917.58,6.64Z"/><path class="cls-4" d="M917.58,6.64c0,22,.12,42.54-3,60s-5.39,32.76,2.69,53.85l65.07,17.95,4-.45c-6.73-22.44-13.91-43.08-5.38-66s12.62-45.5,8.58-63.45C989.55,8.62,962.12-8.25,917.58,6.64Z"/><path class="cls-6" d="M981,72.07c8.53-22.89,12.62-45.5,8.58-63.45,0,0-13.31-8.17-36.42-8.11C975.45.74,988,8.62,988,8.62c3.44,18-1.42,40.56-10.7,63.45s-2.82,43.48,3.16,65.9l1.85.51,4-.45C979.62,115.59,972.44,95,981,72.07Z"/><path class="cls-3" d="M989.27,93.7c-1.18-1.07-10.19-1.76-20.48-1.76s-16,1.67-16.21,4.17a1.4,1.4,0,0,1-.39.88c12.92-1.16,31.09-1.5,38-.88v-2A1.89,1.89,0,0,1,989.27,93.7Z"/><path class="cls-5" d="M991.13,93.14c-1.12-4.35-10.47-6.85-25.21-6.85-10.28,0-33.82,2.5-33.73,7S932.38,98,939.7,98s12.7.65,12.88-1.85,5.93-4.17,16.21-4.17,19.3.69,20.48,1.76C990.2,94.54,991.41,94.26,991.13,93.14Z"/><path class="cls-6" d="M991.13,93.14c-1.12-4.35-10.47-6.85-25.21-6.85-10.28,0-33.82,2.5-33.73,7S932.38,98,939.7,98s12.7.65,12.88-1.85,5.93-4.17,16.21-4.17,19.3.69,20.48,1.76C990.2,94.54,991.41,94.26,991.13,93.14Z"/><path class="cls-3" d="M976.93,95.7l-12.3.39s4.22,3.24,4.22,6.14.6,17.73.6,17.73l3-.48s-.09-15-.09-16.73C972.35,99.33,976.93,95.7,976.93,95.7Z"/><polygon class="cls-3" points="967.56 98.35 969.21 100.39 971.25 100.29 973.23 98.27 967.56 98.35"/><path class="cls-3" d="M964.63,96.09l-4.81.3s4.43,2.94,4.8,5.85c.41,3.2.88,17.39.88,17.39l4,.33s-.6-14.82-.6-17.73S964.63,96.09,964.63,96.09Z"/><path class="cls-5" d="M903.93,80.23c-.91-3.56-8.57-5.61-20.63-5.61-8.42,0-27.68,2-27.61,5.77s.15,3.79,6.15,3.79,10.39.53,10.54-1.52,4.85-3.41,13.28-3.41,15.79.57,16.76,1.44C903.17,81.37,904.17,81.14,903.93,80.23Z"/><path class="cls-6" d="M903.93,80.23c-.91-3.56-8.57-5.61-20.63-5.61-8.42,0-27.68,2-27.61,5.77s.15,3.79,6.15,3.79,10.39.53,10.54-1.52,4.85-3.41,13.28-3.41,15.79.57,16.76,1.44C903.17,81.37,904.17,81.14,903.93,80.23Z"/><path class="cls-3" d="M888.4,82.47l-10.07.31s3.46,2.66,3.46,5,.49,14.53.49,14.53l2.44-.39s-.07-12.33-.07-13.72C884.65,85.44,888.4,82.47,888.4,82.47Z"/><polygon class="cls-3" points="881.24 84.38 882.58 86.05 884.26 85.97 885.88 84.32 881.24 84.38"/><path class="cls-3" d="M882.28,102.34l2.9-.39s3,22,8.48,32.93v3.06L892,139.6l-2-.92S884.72,126.44,882.28,102.34Z"/><path class="cls-3" d="M882.28,102.34l-4-.39s1.19,27.12,6.42,36.61l1.81.78,5.46.26Z"/><path class="cls-3" d="M878.33,82.78l-3.94.25s3.63,2.41,3.93,4.79c.33,2.62.72,14.25.72,14.25l3.24.27s-.49-12.14-.49-14.53S878.33,82.78,878.33,82.78Z"/><polygon class="cls-3" points="928.92 145.84 950.77 145 950.27 139.8 927.56 139.8 928.92 145.84"/><path class="cls-3" d="M969.45,137.8l-28.64,2.71c2.8,4.78,6.56,11.29,14.78,17.68L973,159.54Zm-9.63,15.34c-3.3-2.61-7-7.17-8.47-11.37h10.1c1.91,5.24,7.52,12.49,7.52,12.49Z"/><path class="cls-3" d="M973.4,137.8l-28.64,2.71c2.8,4.78,6.56,11.29,14.77,17.68l17.4,1.35Zm-13.58,15.34c-3.3-2.61-7-7.17-8.47-11.37h10.1c1.91,5.24,7.52,12.49,7.52,12.49Z"/><path class="cls-3" d="M969,154.26s-5.61-7.25-7.52-12.49h-3.26c1.63,4.48,6,10.42,7.18,12Z"/><path class="cls-3" d="M936.39,141.14c5.06,1.44,14.71,5.5,19.79,6s18.63-1.61,18.63-1.61L972,138.06S935.16,133.12,936.39,141.14Z"/><path class="cls-5" d="M974.8,130.29c-9.43-.73-29.73-2.73-41.25-7.22s-21.53-5.23-36.49-6-35.3.44-40.68,2.39-10.32,10.17,1.94,15.56,36.65,10,51.15,11.37,18.22.89,22.72-2.55,5.7-3.89,14.68-4,24.53.45,29.54-.3S983.3,130.94,974.8,130.29Z"/><path class="cls-4" d="M974.8,130.29c-9.43-.73-29.73-2.73-41.25-7.22s-21.53-5.23-36.49-6-35.3.44-40.68,2.39-10.32,10.17,1.94,15.56,36.65,10,51.15,11.37,18.22.89,22.72-2.55,5.7-3.89,14.68-4,24.53.45,29.54-.3S983.3,130.94,974.8,130.29Z"/><path class="cls-3" d="M969.45,120l-4.75-.33s1.37,33,7.77,44.57l2.2,1,6.67.32Z"/><path class="cls-3" d="M969.45,120l3.55-.48s3.63,26.93,10.36,40.24v3.74l-2,2-2.46-1.13S972.44,149.39,969.45,120Z"/><path class="cls-4" d="M972.44,119.48s-.09-15-.09-16.73c0-3.06,3.65-6.28,4.43-6.92,5.64-.07,10.52,0,13.42.28v-2c.63.1,1.12-.26.93-1-1.12-4.35-10.47-6.85-25.21-6.85-10.28,0-33.82,2.5-33.73,7S932.38,98,939.7,98c6.29,0,11.13.47,12.49-1,2.41-.22,5-.41,7.69-.56.49.34,4.4,3.09,4.74,5.81.41,3.2.88,17.39.88,17.39"/><path class="cls-4" d="M964.7,119.63s1.37,33,7.77,44.57l2.2,1,6.67.32,2-2v-3.74C976.63,146.41,973,119.48,973,119.48"/><path class="cls-4" d="M887.9,116.86c-1.79-8-2.72-14.91-2.72-14.91l-2.9.39,2.44-.39s-.07-12.33-.07-13.72c0-2.79,3.75-5.76,3.75-5.76l-5.66.17a180.09,180.09,0,0,1,20.43,0V81.06c.51.08.92-.21.76-.83-.91-3.56-8.57-5.61-20.63-5.61-8.42,0-27.68,2-27.61,5.77s.15,3.79,6.15,3.79c5.15,0,9.12.39,10.23-.81l2.5-.22c.73.52,3.49,2.6,3.75,4.67.32,2.52.7,13.39.72,14.2l-.72-.07v.25s0,.08,0,.13a.92.92,0,0,0,0,.16c0,.07,0,.15,0,.25v.11c0,.52.07,1.24.13,2.14v.1c0,.22,0,.44,0,.67,0,0,0,.09,0,.13.19,2.79.52,6.78,1.05,11.09"/><path class="cls-4" d="M879.25,263c12.31-10,26.19-20.22,42.85-25.46C938.77,242.73,952.65,253,965,263"/></g></g></svg>