<?xml version="1.0" encoding="utf-8"?>
<!-- Generator: Adobe Illustrator 25.2.0, SVG Export Plug-In . SVG Version: 6.00 Build 0)  -->
<svg version="1.1" id="Layer_1" xmlns="http://www.w3.org/2000/svg" xmlns:xlink="http://www.w3.org/1999/xlink" x="0px" y="0px"
	 viewBox="0 0 600 600" style="enable-background:new 0 0 600 600;" xml:space="preserve">
<style type="text/css">
	*{vector-effect:non-scaling-stroke}
	.st0{fill:none;stroke:#000000;stroke-width:1.5;stroke-miterlimit:10;}
	.st1{fill:#FFFFFF;stroke:#000000;stroke-width:0.5;stroke-linecap:round;stroke-linejoin:round;}
	.st2{fill:none;stroke:#000000;stroke-width:1.5;stroke-linecap:round;stroke-linejoin:round;}
	.st3{fill:#FFFFFF;}
	.st4{fill:none;stroke:#000000;stroke-width:0.5;stroke-linecap:round;stroke-linejoin:round;}
</style>
<g id="Layer_2_1_">
	<g id="Layer_1-2">
		<rect x="84.4" y="473.9" class="st0" width="39.8" height="39.8"/>
		<rect x="475.9" y="473.9" class="st0" width="39.8" height="39.8"/>
		<path d="M526.5,467.6c-1.4-1.4-3.6-1.4-5,0c-7.5,6.1-15.3,12.1-22.6,18.4c-0.7-0.6-1.4-1.3-2.1-1.8c-3.5-2.9-7-5.9-10.6-8.7
			c-1.7-1.7-3.6-3.1-5.7-4.2c-2.8-1.1-4.7,2-4.3,4.3c0.6,2.8,3.1,6,5,8.1c1.1,1.3,3.1,1.5,4.3,0.4c0,0,0.1,0,0.1-0.1
			c2.1,1.7,4.2,3.5,6.3,5.2l1.8,1.5c-3.3,3.1-6.4,6.3-9.5,9.6c-2.9,3.5,2.1,8.4,5,5c3.1-3.5,6.3-6.8,9.8-10c1.4,1.3,2.9,2.7,4.3,4
			s3.1,2.9,4.5,4.6c1.1,1.1,2,2.2,2.8,3.6c2.4,3.9,8.5,0.3,6.1-3.6c-2.2-3.3-5-6.6-8.1-9.2c-1.4-1.4-2.8-2.8-4.3-4
			c7.3-6.3,14.9-12,22.3-18.1C527.8,471.2,527.8,469,526.5,467.6z"/>
		<path class="st1" d="M198.4,414c0,4.3-3.5,7.8-7.8,7.8s-7.8-3.5-7.8-7.8s3.5-7.8,7.8-7.8S198.4,409.7,198.4,414L198.4,414z"/>
		<path class="st1" d="M200.9,415.1c0,4.5-3.6,8.1-8.1,8.1c-4.5,0-8.1-3.6-8.1-8.1c0-4.5,3.6-8.1,8.1-8.1l0,0
			C197.2,407.1,200.9,410.7,200.9,415.1z"/>
		<path class="st1" d="M203.2,416.4c0,4.6-3.8,8.2-8.2,8.2c-4.6,0-8.2-3.8-8.2-8.2c0-4.6,3.8-8.2,8.2-8.2l0,0
			C199.5,408.2,203.2,411.8,203.2,416.4z"/>
		<path class="st1" d="M171.4,453.9c0,4.3-3.5,7.8-7.8,7.8c-4.3,0-7.8-3.5-7.8-7.8s3.5-7.8,7.8-7.8l0,0
			C167.9,446.1,171.4,449.6,171.4,453.9C171.4,453.8,171.4,453.9,171.4,453.9z"/>
		<path class="st1" d="M173.9,454.9c0,4.5-3.6,8.1-8.1,8.1s-8.1-3.6-8.1-8.1c0-4.5,3.6-8.1,8.1-8.1l0,0
			C170.3,446.8,173.9,450.4,173.9,454.9L173.9,454.9z"/>
		<path class="st1" d="M176.3,456.3c0,4.6-3.6,8.4-8.2,8.4s-8.4-3.6-8.4-8.2c0-4.6,3.6-8.4,8.2-8.4l0,0
			C172.6,447.9,176.3,451.6,176.3,456.3C176.3,456.2,176.3,456.2,176.3,456.3z"/>
		<circle class="st1" cx="44.7" cy="453" r="7.8"/>
		<path class="st1" d="M55.1,453.9c0,4.5-3.6,8.1-8.1,8.1s-8.1-3.6-8.1-8.1c0-4.5,3.6-8.1,8.1-8.1l0,0
			C51.4,445.8,55.1,449.5,55.1,453.9L55.1,453.9z"/>
		<path class="st1" d="M57.4,455.3c0,4.6-3.6,8.4-8.2,8.4c-4.6,0-8.4-3.6-8.4-8.2c0-4.6,3.6-8.4,8.2-8.4l0,0
			C53.7,447.1,57.3,450.7,57.4,455.3z"/>
		<path class="st1" d="M23.5,414.6c0,4.3-3.5,7.8-7.8,7.8s-7.8-3.5-7.8-7.8s3.5-7.8,7.8-7.8l0,0C20.1,406.9,23.5,410.4,23.5,414.6
			L23.5,414.6z"/>
		<path class="st1" d="M26.1,415.7c0,4.5-3.6,8.1-8.1,8.1s-8.1-3.6-8.1-8.1c0-4.5,3.6-8.1,8.1-8.1l0,0
			C22.4,407.6,26.1,411.2,26.1,415.7L26.1,415.7z"/>
		<path class="st1" d="M28.4,417c0,4.6-3.8,8.2-8.2,8.1c-4.6,0-8.2-3.8-8.1-8.2c0-4.5,3.8-8.1,8.2-8.1S28.4,412.4,28.4,417L28.4,417
			z"/>
		<path class="st2" d="M197.5,408.6c-1-0.8-2.2-1.3-3.5-1.5c-1.1-0.6-2.2-0.8-3.5-0.8c-4.3,0-7.8,3.5-7.8,7.8c0,3.1,1.8,5.7,4.6,7
			c0.7,0.6,1.4,1,2.2,1.4c3.3,3.1,8.7,2.7,11.6-0.7c3.1-3.3,2.7-8.7-0.7-11.6C199.6,409.4,198.6,408.9,197.5,408.6L197.5,408.6z"/>
		<path class="st2" d="M170.7,448.5c-1-0.7-2.2-1.3-3.5-1.5c-1.1-0.6-2.2-0.8-3.5-0.8c-4.3,0-7.8,3.5-7.8,7.7c0,3.1,1.8,5.9,4.6,7.1
			c0.7,0.6,1.4,1,2.2,1.4c3.3,3.1,8.7,2.7,11.6-0.7c3.1-3.3,2.7-8.7-0.7-11.6C172.7,449.3,171.7,448.8,170.7,448.5L170.7,448.5z"/>
		<path class="st2" d="M51.7,447.5c-1-0.8-2.2-1.3-3.5-1.5c-3.6-2.2-8.4-1.1-10.6,2.7c-2.2,3.6-1.1,8.4,2.7,10.6
			c0.4,0.3,0.8,0.4,1.4,0.7c0.7,0.6,1.4,1,2.2,1.4c3.3,3.1,8.7,2.7,11.6-0.7c3.1-3.3,2.7-8.7-0.7-11.6
			C53.8,448.4,52.8,447.8,51.7,447.5L51.7,447.5z"/>
		<path class="st2" d="M22.7,409.1c-1-0.8-2.2-1.3-3.5-1.5c-1.1-0.6-2.2-0.8-3.5-0.8c-4.3,0-7.8,3.5-7.8,7.8c0,3.1,1.8,5.9,4.6,7.1
			c2.2,1.7,4.9,2.9,7.5,3.5c4.6,0,8.2-3.8,8.2-8.2C28.3,413.5,26.1,410.3,22.7,409.1L22.7,409.1z"/>
		<path class="st1" d="M98.3,379.8v45.3c0,0.4,2.5,0.8,5.7,0.8c3.2,0,5.7-0.3,5.7-0.8v-45.3H98.3z"/>
		<path class="st1" d="M103.9,393.1c30,1.8,64.3-1,86.6,7.5c0,0,8.7,4.9,5.6,4c-16.2-4.9-42.6-7.5-71.7-5.3
			c14.4,6.8,38.8,26.2,51.2,40.6c0.4,0.6,1,2.1,0.1,2.8c-1.4,1.1-4,2.4-8.8,1.7c-1.4-0.4-2.7-1-3.9-1.7c-17-13.8-36.1-31-59.2-38.2
			c-23,7.3-42.1,24.4-59.2,38.2c-1.3,0.7-2.5,1.3-3.9,1.7c-4.7,0.7-7.4-0.7-8.8-1.7c-0.8-0.7-0.3-2.2,0.1-2.8
			c12.3-14.4,36.8-33.8,51.1-40.6c-29-2.2-55.5,0.6-71.7,5.3c-2.9,0.8,5.6-4,5.6-4C39.6,392.1,74,391.4,103.9,393.1z"/>
		<path class="st1" d="M176.3,446.1L176.3,446.1v-5.9l0,0c0,0.4-0.1,0.7-0.4,1c-0.8,0.7-1.8,1.1-2.8,1.4H173c-0.4,0.1-1,0.3-1.4,0.3
			c-1.5,0.3-2.9,0.3-4.5,0c-1.4-0.4-2.7-1-3.9-1.7c-17-13.8-36.1-31-59.2-38.2c-23,7.3-42.1,24.4-59.2,38.2
			c-1.3,0.7-2.5,1.3-3.9,1.7c-1.5,0.3-2.9,0.3-4.5,0c-0.4,0-1-0.1-1.4-0.3H35c-1-0.3-2-0.8-2.9-1.4c-0.3-0.3-0.4-0.6-0.4-1l0,0v5.9
			l0,0c0,0.4,0.1,0.8,0.4,1.3c1.4,1.1,4,2.4,8.8,1.8c1.4-0.4,2.7-1,3.9-1.7c17-13.8,36.1-27.9,59.2-35.2c23,7.3,42.1,21.3,59.2,35.2
			c1.3,0.7,2.5,1.3,3.9,1.7c4.7,0.7,7.4-0.7,8.8-1.8C176.2,447.1,176.3,446.7,176.3,446.1z"/>
		<path class="st1" d="M73.3,405L73.3,405c2-1.3,3.9-2.5,5.6-3.5l0.1-0.1c0.8-0.6,1.7-1,2.5-1.4l0.1-0.1c1.3-0.7,2.4-1.3,3.6-1.8
			c-29-2.2-55.5,0.6-71.7,5.3c-0.7,0.1-0.7,0.1-0.6-0.1h0v6.3l0,0c0,0,0.3,0,0.6-0.1C27.6,405.2,50.6,402.3,73.3,405z"/>
		<path class="st1" d="M134.6,405L134.6,405c-2-1.3-3.9-2.4-5.6-3.5l-0.1-0.1c-0.8-0.6-1.7-1-2.5-1.4l-0.1-0.1
			c-1.3-0.7-2.4-1.3-3.5-1.8c29-2.2,55.5,0.6,71.7,5.3c0.6,0.1,0.7,0.1,0.6-0.1h0.1v6.3l0,0c0,0-0.3,0-0.6-0.1
			C180.4,405.2,157.3,402.3,134.6,405z"/>
		<path class="st1" d="M71.3,406.4L71.3,406.4c2-1.3,3.9-2.5,5.6-3.5l0.1-0.1c0.8-0.6,1.7-1,2.5-1.4l0.1-0.1
			c1.3-0.7,2.4-1.3,3.5-1.8c-29-2.2-55.5,0.6-71.7,5.3c-0.6,0.1-0.7,0.1-0.6-0.1H11v6.3l0,0c0,0,0.3,0,0.6-0.1
			C25.4,406.6,48.5,403.7,71.3,406.4z"/>
		<path class="st1" d="M136.7,406.4L136.7,406.4c-2-1.3-3.9-2.5-5.6-3.5l-0.1-0.1c-0.8-0.6-1.7-1-2.5-1.4l-0.1-0.1
			c-1.3-0.7-2.4-1.3-3.6-1.8c29-2.2,55.5,0.6,71.7,5.3c0.7,0.1,0.7,0.1,0.6-0.1h0.1v6.3l0,0c0,0-0.3,0-0.6-0.1
			C182.6,406.6,159.4,403.7,136.7,406.4z"/>
		<path class="st1" d="M176.3,447.5L176.3,447.5v-5.9l0,0c0,0.4-0.1,0.7-0.4,1c-0.8,0.7-1.8,1.1-2.8,1.4H173c-0.4,0.1-1,0.3-1.4,0.3
			c-1.5,0.3-2.9,0.3-4.5,0c-1.4-0.4-2.7-1-3.9-1.7c-17-13.8-36.1-31-59.2-38.2c-23,7.3-42.1,24.4-59.2,38.2
			c-1.3,0.7-2.5,1.3-3.9,1.7c-1.5,0.3-2.9,0.3-4.5,0c-0.4,0-1-0.1-1.4-0.3H35c-1-0.3-2-0.8-2.9-1.4c-0.3-0.3-0.4-0.6-0.4-1l0,0v5.9
			l0,0c0,0.4,0.1,0.8,0.4,1.3c1.4,1.1,4,2.4,8.8,1.7c1.4-0.4,2.7-1,3.9-1.7c17-13.8,36.1-27.9,59.2-35.2c23,7.3,42.1,21.3,59.2,35.2
			c1.3,0.7,2.5,1.3,3.9,1.7c4.7,0.7,7.4-0.7,8.8-1.7C176.2,448.5,176.3,448.1,176.3,447.5z"/>
		<path class="st1" d="M89,396.7c0,3.2,6.7,5.9,15.1,5.9c8.2,0,14.9-2.7,14.9-5.9c0-3.2-6.7-5.9-14.9-5.9
			C95.7,390.7,89,393.4,89,396.7z"/>
		<path class="st1" d="M89,395.5c0,3.2,6.7,5.9,15.1,5.9c8.2,0,14.9-2.7,14.9-5.9c0-3.2-6.7-5.9-14.9-5.9
			C95.7,389.6,89,392.1,89,395.5z"/>
		<path class="st1" d="M103.9,351.1c-4.2,0-7.5,1-7.5,2.4v41c0,0.6,1.5,2.1,7.5,2.1c6.1,0,7.5-1.5,7.5-2.1v-41
			C111.6,352.1,108.1,351.1,103.9,351.1z"/>
		<path class="st1" d="M96.4,353.3c0,1.3,3.3,2.4,7.5,2.4c4.2,0,7.5-1,7.5-2.4c0-1.4-3.3-2.4-7.5-2.4
			C99.9,351.1,96.4,352.1,96.4,353.3z"/>
		<path class="st1" d="M100,304.2v48.7c0,0.3,1.8,0.6,4,0.6s4-0.3,4-0.6v-48.7L100,304.2L100,304.2z"/>
		<path class="st2" d="M196.8,404.5L196.8,404.5c-2-1.4-4-2.8-6.1-3.9c-18.8-7.3-46.2-6.3-72.3-6.8c-1.1-1.4-3.6-2.7-6.8-3.3v-37
			c0-0.8-1.4-1.5-3.6-2v-47.2h-8v47.2c-2.1,0.4-3.6,1.1-3.6,2v37c-2,0.4-3.9,1.1-5.6,2.2c-26.5-0.8-54.4,0.7-73.5,8.1
			c-2.1,1.1-4.2,2.5-6.1,3.9h0v6.3l0,0c0,0,0.3,0,0.6-0.1c13.8-4.2,36.8-7.1,59.6-4.3h0.1c1-0.7,2-1.3,2.8-1.8
			c-14.1,8.9-32.1,23.7-42,35.4c-0.1,0.3-0.4,0.6-0.4,0.8c0-0.1-0.1-0.3-0.1-0.6l0,0v7.1l0,0c0,0.4,0.1,0.8,0.4,1.3
			c1.4,1.1,4,2.4,8.8,1.7c1.4-0.4,2.7-1,3.9-1.7c15.6-12.6,32.9-25.5,53.4-33.2v9.5c0,0.4,2.5,0.8,5.7,0.8c3.2,0,5.7-0.3,5.7-0.8
			v-9.5c20.5,7.7,38,20.5,53.4,33.2c1.3,0.7,2.5,1.3,3.9,1.7c4.7,0.7,7.4-0.7,8.8-1.7c0.3-0.3,0.6-0.7,0.4-1.3l0,0v-5.9l0,0v-1.4
			l0,0c0,0.1,0,0.3-0.1,0.6c-0.1-0.3-0.3-0.6-0.4-0.8c-10-11.7-27.9-26.5-42-35.4c1,0.6,2,1.3,2.8,1.8h0.1
			c22.7-2.8,45.9,0.3,59.6,4.3c0.3,0.1,0.6,0.1,0.6,0.1l0,0L196.8,404.5L196.8,404.5z"/>
		<path class="st1" d="M190.1,274.1l2.4,2.4c0,0,3.8,8.9-0.4,12.3l-7.5-0.7l-6.3-12.7L190.1,274.1z"/>
		<path class="st1" d="M192.5,288.5c3.5-3.6,0-12,0-12l-2.4-2.4l-4.2,0.4L192.5,288.5z"/>
		<polygon class="st1" points="24,273.7 40.3,287.1 68.5,287.1 58.1,272.3 		"/>
		<polygon class="st1" points="33.3,273.2 46.1,287.1 40.3,287.1 24,273.7 		"/>
		<polygon class="st1" points="30.9,273.4 44,287.1 46.1,287.1 33.3,273.2 		"/>
		<path class="st1" d="M21.3,272.3c-4,0.6-6.6,2.4-7.8,5.2l5,1.4c1.4-2.2,3.6-3.8,6.3-4.5L21.3,272.3z"/>
		<path class="st1" d="M61.5,284.4c5.6,4.9,14.1,16.7,28,19.7c14.1,2.9,28.5,4,42.7,3.6c15.6-0.3,38.4-1.8,38.4-1.8v-28.3H61.5
			V284.4z"/>
		<path class="st2" d="M192.5,276.5l-2.4-2.4l-11.9,1.3l6.3,12.7l7.5,0.7C196.3,285.4,192.5,276.5,192.5,276.5z"/>
		<path class="st2" d="M58.1,272.3L24,273.7l0.8,0.7l-3.3-2c-4,0.6-6.6,2.4-7.8,5.2l5,1.4c1.4-2.2,3.6-3.8,6.3-4.5l15.5,12.8h24
			c5.6,5.6,13.4,14.5,25.3,17c14.1,2.9,28.5,4,42.7,3.6c15.6-0.3,38.4-1.8,38.4-1.8v-28.5h-109L58.1,272.3z"/>
		<path class="st1" d="M65.3,285c6.8,7.5,14.1,14.1,29.9,16s22.3,0.7,18.1-5.4c-2.4-3.6-5.3-6.8-8.5-9.5L65.3,285z"/>
		<path class="st1" d="M95.4,300.2c-15.1-1.8-22.3-8.1-28.9-15.2h-1.3c6.8,7.5,14.1,14.1,29.9,16c12.1,1.5,18.8,1.1,19.4-2.1
			C112.8,301.4,106.3,301.6,95.4,300.2z"/>
		<path class="st1" d="M76.7,285.4c7,5.3,15.2,10.6,36.7,10.6l-0.1-0.3c-2.4-3.6-5.3-6.8-8.5-9.5L76.7,285.4z"/>
		<path class="st1" d="M33,201v-5.9l44.8,0.1v4.6C69.7,198.9,47.7,199.4,33,201z"/>
		<path class="st3" d="M97.8,94.8c0,30.4,0.1,58.7-4.2,82.9c-4.3,24.1-7.4,45.2,3.8,74.4l89.9,24.8l5.6-0.6
			c-9.3-31-19.3-59.4-7.4-91.1c11.9-31.7,17.4-62.8,11.9-87.6C197.1,97.6,159.3,74.3,97.8,94.8z"/>
		<path class="st2" d="M97.8,94.8c0,30.4,0.1,58.7-4.2,82.9c-4.3,24.1-7.4,45.2,3.8,74.4l89.9,24.8l5.6-0.6
			c-9.3-31-19.3-59.4-7.4-91.1c11.9-31.7,17.4-62.8,11.9-87.6C197.1,97.6,159.3,74.3,97.8,94.8z"/>
		<path class="st4" d="M185.2,185.2c11.7-31.7,17.4-62.8,11.9-87.6c0,0-18.4-11.3-50.4-11.2c30.8,0.3,48.1,11.2,48.1,11.2
			c4.7,24.8-2,56.1-14.8,87.6s-3.9,60,4.3,91l2.5,0.7l5.6-0.6C183.4,245.3,173.5,216.9,185.2,185.2z"/>
		<path class="st1" d="M196.7,215.1c-1.7-1.5-14.1-2.4-28.3-2.4s-22,2.4-22.3,5.7c0,0.4-0.3,0.8-0.6,1.3c17.9-1.5,43-2.1,52.5-1.3
			v-2.8C197.5,215.6,197.1,215.3,196.7,215.1z"/>
		<path class="st3" d="M199.3,214.4c-1.5-6-14.5-9.5-34.7-9.5c-14.2,0-46.7,3.5-46.6,9.6c0.1,6.1,0.3,6.6,10.3,6.6
			s17.6,0.8,17.9-2.5c0.3-3.5,8.2-5.7,22.3-5.7s26.6,1,28.3,2.4C198.1,216.2,199.6,215.9,199.3,214.4z"/>
		<path class="st4" d="M199.3,214.4c-1.5-6-14.5-9.5-34.7-9.5c-14.2,0-46.7,3.5-46.6,9.6c0.1,6.1,0.3,6.6,10.3,6.6
			s17.6,0.8,17.9-2.5c0.3-3.5,8.2-5.7,22.3-5.7s26.6,1,28.3,2.4C198.1,216.2,199.6,215.9,199.3,214.4z"/>
		<path class="st1" d="M179.7,217.9l-17,0.6c0,0,5.9,4.5,5.9,8.5s0.8,24.6,0.8,24.6l4.2-0.7c0,0-0.1-20.6-0.1-23.2
			C173.4,222.9,179.7,217.9,179.7,217.9z"/>
		<polygon class="st1" points="166.8,221.5 169.1,224.3 171.9,224.1 174.6,221.3 		"/>
		<path class="st1" d="M162.6,218.4l-6.7,0.4c0,0,6.1,4,6.7,8.1c0.6,4.5,1.3,24,1.3,24l5.4,0.4c0,0-0.8-20.5-0.8-24.6
			C168.5,222.9,162.6,218.4,162.6,218.4z"/>
		<path class="st3" d="M78.9,196.5c-1.3-4.9-11.9-7.8-28.5-7.8c-11.6,0-38.2,2.8-38.1,8s0.1,5.3,8.5,5.3s14.4,0.7,14.5-2.1
			c0.3-2.8,6.7-4.7,18.3-4.7s21.8,0.8,23.2,2C77.8,198,79.2,197.8,78.9,196.5z"/>
		<path class="st4" d="M78.9,196.5c-1.3-4.9-11.9-7.8-28.5-7.8c-11.6,0-38.2,2.8-38.1,8s0.1,5.3,8.5,5.3s14.4,0.7,14.5-2.1
			c0.3-2.8,6.7-4.7,18.3-4.7s21.8,0.8,23.2,2C77.8,198,79.2,197.8,78.9,196.5z"/>
		<path class="st1" d="M57.4,199.6l-14,0.4c0,0,4.7,3.6,4.7,6.8c0,3.2,0.7,20.1,0.7,20.1l3.3-0.6c0,0-0.1-17-0.1-19
			C52.3,203.6,57.4,199.6,57.4,199.6z"/>
		<polygon class="st1" points="47.5,202.2 49.4,204.5 51.7,204.5 54,202.1 		"/>
		<path class="st1" d="M48.9,227.1l4-0.6c0,0,4.2,30.4,11.7,45.5v4.2l-2.2,2.2l-2.8-1.3C59.7,277.2,52.3,260.3,48.9,227.1z"/>
		<path class="st1" d="M48.9,227.1l-5.6-0.6c0,0,1.7,37.4,8.9,50.5l2.5,1.1l7.5,0.4L48.9,227.1z"/>
		<path class="st1" d="M43.5,200l-5.4,0.3c0,0,5,3.3,5.4,6.6c0.4,3.6,1,19.7,1,19.7l4.5,0.4c0,0-0.7-16.7-0.7-20.1
			C48.2,203.6,43.5,200,43.5,200z"/>
		<polygon class="st1" points="113.4,287.1 143.5,285.9 142.8,278.8 111.4,278.8 		"/>
		<path class="st1" d="M169.3,276l-39.6,3.8c3.9,6.6,9.1,15.6,20.4,24.4l24,1.8L169.3,276z M156.1,297.2c-4.6-3.6-9.6-9.9-11.7-15.8
			h14c2.7,7.3,10.3,17.3,10.3,17.3L156.1,297.2z"/>
		<path class="st1" d="M174.8,276l-39.6,3.8c3.9,6.6,9.1,15.6,20.4,24.4l24,1.8L174.8,276z M156.1,297.2c-4.6-3.6-9.6-9.9-11.7-15.8
			h14c2.7,7.3,10.3,17.3,10.3,17.3L156.1,297.2z"/>
		<path class="st1" d="M168.6,298.8c0,0-7.7-10-10.3-17.3h-4.5c2.2,6.1,8.2,14.4,9.9,16.6L168.6,298.8z"/>
		<path class="st1" d="M123.7,280.6c7,2,20.4,7.5,27.3,8.2c7,0.7,25.7-2.2,25.7-2.2l-3.9-10.3C172.8,276.5,122,269.5,123.7,280.6z"
			/>
		<path class="st3" d="M176.7,265.6c-13-1-41-3.8-56.9-9.9s-29.7-7.3-50.4-8.2c-20.6-1.1-48.7,0.6-56.2,3.3s-14.2,14.1,2.7,21.5
			c16.9,7.4,50.6,13.8,70.6,15.8c20,2,25.1,1.3,31.4-3.5c6.3-4.7,7.8-5.4,20.2-5.6s33.9,0.6,40.7-0.4
			C185.9,277.4,188.5,266.6,176.7,265.6z"/>
		<path class="st2" d="M176.7,265.6c-13-1-41-3.8-56.9-9.9s-29.7-7.3-50.4-8.2c-20.6-1.1-48.7,0.6-56.2,3.3s-14.2,14.1,2.7,21.5
			c16.9,7.4,50.6,13.8,70.6,15.8c20,2,25.1,1.3,31.4-3.5c6.3-4.7,7.8-5.4,20.2-5.6s33.9,0.6,40.7-0.4
			C185.9,277.4,188.5,266.6,176.7,265.6z"/>
		<path class="st1" d="M169.3,251.5l-6.6-0.4c0,0,2,45.6,10.7,61.5l3.1,1.4l9.2,0.4L169.3,251.5z"/>
		<path class="st1" d="M169.3,251.5l4.9-0.7c0,0,5,37.3,14.4,55.5v5.2l-2.8,2.8l-3.3-1.5C182.5,312.7,173.5,292.1,169.3,251.5z"/>
		<path class="st2" d="M173.5,250.6c0,0-0.1-20.6-0.1-23.2c0-4.2,5-8.7,6.1-9.6c7.8-0.1,14.5,0,18.6,0.4v-2.8
			c0.8,0.1,1.5-0.4,1.3-1.4c-1.5-6-14.5-9.5-34.7-9.5c-14.2,0-46.7,3.5-46.6,9.6c0.1,6.3,0.3,6.6,10.3,6.6c8.7,0,15.3,0.7,17.3-1.4
			c3.3-0.3,6.8-0.6,10.6-0.8c0.7,0.4,6.1,4.3,6.6,8.1c0.6,4.5,1.3,24,1.3,24"/>
		<path class="st2" d="M162.8,250.9c0,0,2,45.6,10.7,61.5l3.1,1.4l9.2,0.4l2.8-2.8v-5.2c-9.3-18.4-14.4-55.5-14.4-55.5"/>
		<path class="st2" d="M56.7,247c-2.5-11-3.8-20.6-3.8-20.6l-4,0.6l3.3-0.6c0,0-0.1-17-0.1-19c0-3.9,5.2-8,5.2-8l-7.8,0.3
			c9.3-0.6,18.8-0.6,28.2,0v-2.2c0.7,0.1,1.3-0.3,1.1-1.1c-1.3-4.9-11.9-7.8-28.5-7.8c-11.6,0-38.2,2.8-38.1,8
			c0.1,5.2,0.1,5.3,8.5,5.3c7.1,0,12.6,0.6,14.1-1.1l3.5-0.3c1,0.7,4.9,3.6,5.2,6.4c0.4,3.5,1,18.6,1,19.7h-1v0.1v0.1v0.1
			c0,0.1,0,0.1,0,0.3s0,0.1,0,0.3v0.1c0,0.7,0.1,1.7,0.1,2.9v0.1c0,0.3,0,0.6,0,1v0.1c0.3,3.9,0.7,9.3,1.4,15.3"/>
		<path class="st2" d="M44.7,448.9c17-13.8,36.1-27.9,59.2-35.2c23,7.3,42.1,21.3,59.2,35.2"/>
		<path class="st1" d="M589.7,414c0,4.3-3.5,7.8-7.8,7.8s-7.8-3.5-7.8-7.8s3.5-7.8,7.8-7.8S589.7,409.7,589.7,414L589.7,414z"/>
		<path class="st1" d="M592.4,415.1c0,4.5-3.6,8.1-8.1,8.1s-8.1-3.6-8.1-8.1c0-4.5,3.6-8.1,8.1-8.1l0,0
			C588.8,407.1,592.4,410.7,592.4,415.1z"/>
		<path class="st1" d="M594.6,416.4c0,4.6-3.8,8.2-8.2,8.1c-4.6,0-8.2-3.8-8.1-8.2c0-4.5,3.8-8.1,8.2-8.1
			C591,408.2,594.6,411.8,594.6,416.4z"/>
		<circle class="st1" cx="555.1" cy="453.9" r="7.8"/>
		<path class="st1" d="M565.5,454.9c0,4.5-3.6,8.1-8.1,8.1s-8.1-3.6-8.1-8.1c0-4.5,3.6-8.1,8.1-8.1l0,0
			C561.8,446.8,565.5,450.4,565.5,454.9L565.5,454.9z"/>
		<path class="st1" d="M567.8,456.3c0,4.6-3.6,8.4-8.2,8.4c-4.6,0-8.4-3.6-8.4-8.2c0-4.6,3.6-8.4,8.2-8.4l0,0
			C564.1,447.9,567.7,451.6,567.8,456.3C567.8,456.2,567.8,456.2,567.8,456.3z"/>
		<circle class="st1" cx="436.3" cy="453" r="7.8"/>
		<path class="st1" d="M446.6,453.9c0,4.5-3.6,8.1-8.1,8.1c-4.5,0-8.1-3.6-8.1-8.1c0-4.5,3.6-8.1,8.1-8.1l0,0
			C442.9,445.8,446.6,449.5,446.6,453.9z"/>
		<path class="st1" d="M448.8,455.3c0,4.6-3.6,8.2-8.2,8.2c-4.6,0-8.2-3.6-8.2-8.2c0-4.6,3.6-8.2,8.2-8.2
			C445.2,447.1,448.8,450.7,448.8,455.3z"/>
		<path class="st1" d="M414.9,414.6c0,4.3-3.5,7.8-7.8,7.8c-4.3,0-7.8-3.5-7.8-7.8s3.5-7.8,7.8-7.8
			C411.4,406.9,414.9,410.4,414.9,414.6L414.9,414.6z"/>
		<path class="st1" d="M417.6,415.7c0,4.5-3.6,8.1-8.1,8.1c-4.5,0-8.1-3.6-8.1-8.1c0-4.5,3.6-8.1,8.1-8.1l0,0
			C413.9,407.6,417.6,411.2,417.6,415.7L417.6,415.7z"/>
		<path class="st1" d="M419.8,417c0,4.6-3.8,8.2-8.2,8.2s-8.2-3.8-8.2-8.2c0-4.6,3.8-8.2,8.2-8.2c4.5,0,8.2,3.6,8.2,8.1
			C419.8,416.8,419.8,417,419.8,417z"/>
		<path class="st2" d="M589,408.6c-1-0.8-2.2-1.3-3.5-1.5c-3.9-1.8-8.5-0.3-10.3,3.6c-1.8,3.9-0.3,8.5,3.6,10.3
			c0.7,0.6,1.4,1,2.2,1.4c3.3,3.1,8.7,2.7,11.6-0.7c2.9-3.3,2.7-8.7-0.7-11.6C591.1,409.4,590.1,408.9,589,408.6L589,408.6z"/>
		<path class="st2" d="M562.1,448.5c-1-0.7-2.2-1.3-3.5-1.5c-3.9-1.8-8.5-0.3-10.3,3.6c-1.8,3.9-0.3,8.5,3.6,10.3
			c2.2,1.7,4.9,2.9,7.7,3.5c4.6,0,8.2-3.8,8.2-8.2C567.7,452.7,565.5,449.6,562.1,448.5L562.1,448.5z"/>
		<path class="st2" d="M443.2,447.5c-1-0.8-2.2-1.3-3.5-1.5c-3.6-2.2-8.4-1.1-10.6,2.7c-2.2,3.6-1.1,8.4,2.7,10.6
			c0.4,0.3,0.8,0.4,1.4,0.7c0.7,0.6,1.4,1,2.2,1.4c3.3,3.1,8.7,2.7,11.6-0.7c3.1-3.3,2.7-8.7-0.7-11.6
			C445.3,448.4,444.3,447.8,443.2,447.5L443.2,447.5z"/>
		<path class="st2" d="M414.2,409.1c-1-0.8-2.2-1.3-3.5-1.5c-1.1-0.6-2.2-0.8-3.5-0.8c-4.3,0-7.8,3.5-7.8,7.8c0,3.1,1.8,5.9,4.6,7.1
			c2.2,1.7,4.9,2.9,7.7,3.5c4.6,0,8.2-3.8,8.2-8.2C419.8,413.5,417.6,410.3,414.2,409.1z"/>
		<path class="st1" d="M489.7,379.8v45.3c0,0.4,2.5,0.8,5.7,0.8c3.2,0,5.7-0.3,5.7-0.8v-45.3H489.7z"/>
		<path class="st1" d="M495.4,393.1c30,1.8,64.3-1,86.6,7.5c0,0,8.7,4.9,5.6,4c-16.2-4.9-42.6-7.5-71.7-5.3
			c14.4,6.8,38.8,26.2,51.2,40.6c0.4,0.6,1,2.1,0.1,2.8c-1.4,1.1-4,2.4-8.8,1.7c-1.4-0.4-2.7-1-3.9-1.7c-17-13.8-36.1-31-59.2-38.2
			c-23,7.3-42.1,24.4-59.2,38.2c-1.3,0.7-2.5,1.3-3.9,1.7c-4.7,0.7-7.4-0.7-8.8-1.7c-0.8-0.7-0.3-2.2,0.1-2.8
			c12.3-14.4,36.8-33.8,51.2-40.6c-29-2.2-55.5,0.6-71.7,5.3c-2.9,0.8,5.6-4,5.6-4C431.1,392.1,465.4,391.4,495.4,393.1z"/>
		<path class="st1" d="M567.8,446.1L567.8,446.1v-5.9l0,0c0,0.4-0.1,0.7-0.4,1c-0.8,0.7-1.8,1.1-2.9,1.4h-0.1
			c-0.4,0.1-1,0.3-1.4,0.3c-1.5,0.3-2.9,0.3-4.5,0c-1.4-0.4-2.7-1-3.9-1.7c-17-13.8-36.1-31-59.2-38.2c-23,7.3-42.1,24.4-59.2,38.2
			c-1.3,0.7-2.5,1.3-3.9,1.7c-1.5,0.3-2.9,0.3-4.5,0c-0.4,0-1-0.1-1.4-0.3h-0.1c-1-0.3-2-0.8-2.8-1.4c-0.3-0.3-0.4-0.6-0.4-1l0,0
			v5.9l0,0c0,0.4,0.1,1,0.4,1.3c1.4,1.1,4,2.4,8.8,1.8c1.4-0.4,2.7-1,3.9-1.7c17-13.8,36.1-27.9,59.2-35.2
			c23,7.3,42.1,21.3,59.2,35.2c1.3,0.7,2.5,1.3,3.9,1.7c4.7,0.7,7.4-0.7,8.8-1.8C567.5,447.1,567.8,446.7,567.8,446.1z"/>
		<path class="st1" d="M464.9,405L464.9,405c2-1.3,3.8-2.5,5.6-3.5l0.1-0.1c0.8-0.6,1.7-1,2.5-1.4l0.1-0.1c1.3-0.7,2.4-1.3,3.5-1.8
			c-29-2.2-55.5,0.6-71.7,5.3c-0.6,0.1-0.7,0.1-0.6-0.1h-0.1v6.3l0,0c0,0,0.3,0,0.6-0.1C419,405.2,442,402.3,464.9,405z"/>
		<path class="st1" d="M526,405L526,405c-2-1.3-3.8-2.5-5.6-3.5l-0.1-0.1c-0.8-0.6-1.7-1-2.5-1.4l-0.1-0.1c-1.3-0.7-2.4-1.3-3.6-1.8
			c29-2.2,55.5,0.6,71.7,5.3c0.6,0.1,0.7,0.1,0.6-0.1h0.1v6.3l0,0c-0.1,0-0.3,0-0.6-0.1C571.9,405.2,548.8,402.3,526,405z"/>
		<path class="st1" d="M462.8,406.4L462.8,406.4c2-1.3,3.9-2.5,5.6-3.5l0.1-0.1c0.8-0.6,1.7-1,2.5-1.4l0.1-0.1
			c1.3-0.7,2.4-1.3,3.6-1.8c-29-2.2-55.5,0.6-71.7,5.3c-0.7,0.1-0.7,0.1-0.6-0.1h-0.1v6.3l0,0c0.1,0,0.3,0,0.6-0.1
			C416.9,406.6,439.9,403.7,462.8,406.4z"/>
		<path class="st1" d="M528.1,406.4L528.1,406.4c-2-1.3-3.9-2.5-5.6-3.5l-0.1-0.1c-0.8-0.6-1.7-1-2.5-1.4l-0.1-0.1
			c-1.3-0.7-2.4-1.3-3.5-1.8c29-2.2,55.5,0.6,71.7,5.3c0.6,0.1,0.7,0.1,0.6-0.1h0.1v6.3l0,0c0,0-0.3,0-0.6-0.1
			C574,406.6,550.9,403.7,528.1,406.4z"/>
		<path class="st1" d="M567.8,447.5L567.8,447.5v-5.9l0,0c0,0.4-0.1,0.7-0.4,1c-0.8,0.7-1.8,1.1-2.9,1.4h-0.1
			c-0.4,0.1-1,0.3-1.4,0.3c-1.5,0.3-2.9,0.3-4.5,0c-1.4-0.4-2.7-1-3.9-1.7c-17-13.8-36.1-31-59.2-38.2c-23,7.3-42.1,24.4-59.2,38.2
			c-1.3,0.7-2.5,1.3-3.9,1.7c-1.5,0.3-2.9,0.3-4.5,0c-0.4,0-1-0.1-1.4-0.3h-0.1c-1-0.3-2-0.8-2.8-1.4c-0.3-0.3-0.4-0.6-0.4-1l0,0
			v5.9l0,0c0,0.4,0.1,1,0.4,1.3c1.4,1.1,4,2.4,8.8,1.7c1.4-0.4,2.7-1,3.9-1.7c17-13.8,36.1-27.9,59.2-35.2
			c23.2,7.3,42.3,21.5,59.4,35.3c1.3,0.7,2.5,1.3,3.9,1.7c4.7,0.7,7.4-0.7,8.8-1.7C567.8,448.5,568,448.1,567.8,447.5z"/>
		<path class="st1" d="M480.5,396.7c0,3.2,6.7,5.9,14.9,5.9c8.2,0,15.1-2.7,15.1-5.9c0-3.2-6.7-5.9-15.1-5.9
			S480.5,393.4,480.5,396.7z"/>
		<path class="st1" d="M480.5,395.5c0,3.2,6.7,5.9,14.9,5.9c8.2,0,15.1-2.7,15.1-5.9c0-3.2-6.8-5.9-15.1-5.9
			C487.2,389.6,480.5,392.1,480.5,395.5z"/>
		<path class="st1" d="M495.4,351.1c-4.2,0-7.5,1-7.5,2.4v41c0,0.6,1.5,2.1,7.5,2.1c6.1,0,7.5-1.5,7.5-2.1v-41
			C502.9,352.1,499.6,351.1,495.4,351.1z"/>
		<path class="st1" d="M487.9,353.3c0,1.3,3.3,2.4,7.5,2.4s7.5-1,7.5-2.4c0-1.4-3.3-2.4-7.5-2.4
			C491.2,351.1,487.9,352.1,487.9,353.3z"/>
		<path class="st1" d="M491.5,304.2v48.7c0,0.3,1.8,0.6,4,0.6c2.2,0,4-0.3,4-0.6v-48.7L491.5,304.2L491.5,304.2z"/>
		<path class="st2" d="M588.2,404.5L588.2,404.5c-2-1.4-4-2.8-6.1-3.9c-18.8-7.3-46.2-6.3-72.3-6.8c-1.1-1.4-3.6-2.7-6.8-3.3v-37
			c0-0.8-1.4-1.5-3.6-2v-47.2h-8v47.2c-2.1,0.4-3.6,1.1-3.6,2v37c-2,0.4-3.9,1.1-5.6,2.2c-26.5-0.8-54.4,0.7-73.5,8.1
			c-2.1,1.1-4.2,2.5-6.1,3.9h-0.1v6.3l0,0c0.1,0,0.3,0,0.6-0.1c13.7-4.2,36.8-7.1,59.6-4.3h0.1c1-0.7,2-1.3,2.9-1.8
			c-14.1,8.9-32.1,23.7-42.1,35.4c-0.1,0.3-0.3,0.6-0.4,0.8c0-0.1-0.1-0.3-0.1-0.6l0,0v7.1l0,0c0,0.4,0.1,1,0.4,1.3
			c1.4,1.1,4,2.4,8.8,1.7c1.4-0.4,2.7-1,3.9-1.7c15.6-12.6,32.9-25.5,53.4-33.2v9.5c0,0.4,2.5,0.8,5.7,0.8c3.1,0,5.7-0.3,5.7-0.8
			v-9.5c20.5,7.7,38,20.5,53.4,33.2c1.3,0.7,2.5,1.3,3.9,1.7c4.7,0.7,7.4-0.7,8.8-1.7c0.3-0.3,0.6-0.7,0.4-1.3l0,0v-5.9l0,0v-1.4
			l0,0c0,0.1,0,0.3-0.1,0.6c-0.1-0.3-0.3-0.7-0.4-0.8c-10-11.7-27.9-26.5-42-35.4c1,0.6,2,1.3,2.8,1.8h0.1
			c22.7-2.8,45.9,0.3,59.6,4.3c0.3,0.1,0.6,0.1,0.6,0.1l0,0L588.2,404.5L588.2,404.5z"/>
		<path class="st1" d="M581.5,274.1l2.4,2.4c0,0,3.8,8.9-0.4,12.3l-7.5-0.7l-6.3-12.7L581.5,274.1z"/>
		<path class="st1" d="M583.9,288.5c3.5-3.6,0-12,0-12l-2.4-2.4l-4.2,0.4L583.9,288.5z"/>
		<polygon class="st1" points="415.3,273.7 431.6,287.1 460,287.1 449.5,272.3 		"/>
		<polygon class="st1" points="424.8,273.2 437.6,287.1 431.6,287.1 415.3,273.7 		"/>
		<polygon class="st1" points="422.3,273.4 435.6,287.1 437.6,287.1 424.8,273.2 		"/>
		<path class="st1" d="M412.8,272.3c-4,0.6-6.6,2.4-7.8,5.2l5,1.4c1.4-2.2,3.6-3.8,6.3-4.5L412.8,272.3z"/>
		<path class="st1" d="M453,284.4c5.6,4.9,14.1,16.7,28,19.7c14.1,2.9,28.5,4,42.8,3.6c15.6-0.3,38.4-1.8,38.4-1.8v-28.3H453V284.4z
			"/>
		<path class="st2" d="M583.9,276.5l-2.4-2.4l-11.9,1.3l6.3,12.7l7.5,0.7C587.6,285.4,583.9,276.5,583.9,276.5z"/>
		<path class="st2" d="M449.5,272.3l-34.2,1.4l0.8,0.7l-3.3-2c-4,0.6-6.6,2.4-7.8,5.2l5,1.4c1.4-2.2,3.6-3.8,6.3-4.5l15.6,12.7h24
			c5.6,5.6,13.4,14.5,25.3,17c14.1,2.9,28.5,4,42.8,3.6c15.6-0.3,38.4-1.8,38.4-1.8v-28.3H453.3L449.5,272.3z"/>
		<path class="st1" d="M456.8,285c6.8,7.5,14.1,14.1,29.7,16c15.8,2,22.3,0.7,18.1-5.4c-2.4-3.6-5.3-6.8-8.5-9.5L456.8,285z"/>
		<path class="st1" d="M486.9,300.2c-15.1-1.8-22.3-8.1-28.9-15.2h-1.3c6.8,7.5,14.1,14.1,29.7,16c12.1,1.5,18.8,1.1,19.4-2.1
			C504.2,301.4,497.8,301.6,486.9,300.2z"/>
		<path class="st1" d="M468.2,285.4c6.8,5.3,15.2,10.6,36.7,10.6l-0.1-0.3c-2.4-3.6-5.3-6.8-8.5-9.5L468.2,285.4z"/>
		<path class="st1" d="M424.5,201v-5.9l44.8,0.1v4.6C461.1,198.9,439.2,199.4,424.5,201z"/>
		<path class="st3" d="M489.1,94.8c0,30.4,0.1,58.7-4.2,82.9c-4.3,24.1-7.4,45.2,3.8,74.4l89.9,24.8l5.6-0.6
			c-9.3-31-19.3-59.4-7.4-91.1s17.4-62.8,11.9-87.6C588.6,97.6,550.7,74.3,489.1,94.8z"/>
		<path class="st2" d="M489.1,94.8c0,30.4,0.1,58.7-4.2,82.9c-4.3,24.1-7.4,45.2,3.8,74.4l89.9,24.8l5.6-0.6
			c-9.3-31-19.3-59.4-7.4-91.1s17.4-62.8,11.9-87.6C588.6,97.6,550.7,74.3,489.1,94.8z"/>
		<path class="st4" d="M576.8,185.2c11.7-31.7,17.4-62.8,11.9-87.6c0,0-18.4-11.3-50.4-11.2c30.8,0.3,48.1,11.2,48.1,11.2
			c4.7,24.8-2,56.1-14.8,87.6c-12.8,31.7-3.9,60,4.3,91l2.5,0.7l5.6-0.6C574.8,245.3,564.9,216.9,576.8,185.2z"/>
		<path class="st1" d="M588.2,215.1c-1.7-1.5-14.1-2.4-28.3-2.4s-22,2.4-22.3,5.7c0,0.4-0.3,0.8-0.6,1.3c17.9-1.5,43-2.1,52.5-1.3
			v-2.8C589,215.6,588.6,215.3,588.2,215.1z"/>
		<path class="st3" d="M590.7,214.4c-1.5-6-14.5-9.5-34.9-9.5c-14.2,0-46.7,3.5-46.6,9.6c0.1,6.3,0.3,6.6,10.3,6.6
			c10,0,17.6,0.8,17.9-2.5c0.3-3.5,8.2-5.7,22.3-5.7s26.6,1,28.3,2.4C589.4,216.2,591.1,215.9,590.7,214.4z"/>
		<path class="st4" d="M590.7,214.4c-1.5-6-14.5-9.5-34.9-9.5c-14.2,0-46.7,3.5-46.6,9.6c0.1,6.3,0.3,6.6,10.3,6.6
			c10,0,17.6,0.8,17.9-2.5c0.3-3.5,8.2-5.7,22.3-5.7s26.6,1,28.3,2.4C589.4,216.2,591.1,215.9,590.7,214.4z"/>
		<path class="st1" d="M571.2,217.9l-17,0.6c0,0,5.9,4.5,5.9,8.5c0,4,0.8,24.6,0.8,24.6l4.2-0.7c0,0-0.1-20.6-0.1-23.2
			C564.9,222.9,571.2,217.9,571.2,217.9z"/>
		<polygon class="st1" points="558.2,221.5 560.4,224.3 563.4,224.1 566,221.3 		"/>
		<path class="st1" d="M554.1,218.4l-6.7,0.4c0,0,6.1,4,6.7,8.1c0.6,4.5,1.3,24,1.3,24l5.6,0.4c0,0-0.8-20.5-0.8-24.6
			C560,222.9,554.1,218.4,554.1,218.4z"/>
		<path class="st3" d="M470.3,196.5c-1.3-4.9-11.9-7.8-28.5-7.8c-11.6,0-38.2,2.8-38.1,8c0.1,5.2,0.1,5.3,8.5,5.3s14.4,0.7,14.5-2.1
			c0.1-2.8,6.7-4.7,18.3-4.7s21.8,0.8,23.2,2C469.3,198,470.7,197.8,470.3,196.5z"/>
		<path class="st4" d="M470.3,196.5c-1.3-4.9-11.9-7.8-28.5-7.8c-11.6,0-38.2,2.8-38.1,8c0.1,5.2,0.1,5.3,8.5,5.3s14.4,0.7,14.5-2.1
			c0.1-2.8,6.7-4.7,18.3-4.7s21.8,0.8,23.2,2C469.3,198,470.7,197.8,470.3,196.5z"/>
		<path class="st1" d="M448.8,199.6l-14,0.4c0,0,4.7,3.6,4.7,6.8c0,3.2,0.7,20.1,0.7,20.1l3.3-0.6c0,0-0.1-17-0.1-19
			C443.6,203.6,448.8,199.6,448.8,199.6z"/>
		<polygon class="st1" points="439,202.2 440.9,204.5 443.1,204.5 445.3,202.1 		"/>
		<path class="st1" d="M440.4,227.1l4-0.6c0,0,4.2,30.4,11.7,45.5v4.2l-2.2,2.2l-2.8-1.3C451,277.2,443.8,260.3,440.4,227.1z"/>
		<path class="st1" d="M440.4,227.1l-5.6-0.6c0,0,1.7,37.4,8.9,50.5l2.5,1.1l7.5,0.4L440.4,227.1z"/>
		<path class="st1" d="M435,200l-5.4,0.3c0,0,5,3.3,5.4,6.6c0.4,3.6,1,19.7,1,19.7l4.5,0.4c0,0-0.7-16.7-0.7-20.1S435,200,435,200z"
			/>
		<polygon class="st1" points="504.9,287.1 535,285.9 534.3,278.8 502.9,278.8 		"/>
		<path class="st1" d="M560.8,276l-39.6,3.8c3.9,6.6,9.1,15.6,20.4,24.4l24,1.8L560.8,276z M547.5,297.2c-4.6-3.6-9.6-9.9-11.7-15.8
			h14c2.7,7.3,10.3,17.3,10.3,17.3L547.5,297.2z"/>
		<path class="st1" d="M566.3,276l-39.6,3.8c3.9,6.6,9.1,15.6,20.4,24.4l24,1.8L566.3,276z M547.5,297.2c-4.6-3.6-9.6-9.9-11.7-15.8
			h14c2.7,7.3,10.3,17.3,10.3,17.3L547.5,297.2z"/>
		<path class="st1" d="M560.1,298.8c0,0-7.8-10-10.3-17.3h-4.5c2.2,6.1,8.2,14.4,9.9,16.6L560.1,298.8z"/>
		<path class="st1" d="M515.2,280.6c7,2,20.4,7.5,27.3,8.2c7,0.7,25.7-2.2,25.7-2.2l-3.9-10.3C564.3,276.3,513.4,269.5,515.2,280.6z
			"/>
		<path class="st3" d="M568.2,265.6c-13-1-41-3.8-56.9-9.9c-15.9-6.1-29.7-7.3-50.4-8.2c-20.6-1.1-48.7,0.6-56.2,3.3
			c-7.4,2.7-14.2,14.1,2.7,21.5c16.9,7.4,50.6,13.8,70.6,15.8c20,2,25.1,1.3,31.4-3.5c6.3-4.7,7.8-5.4,20.2-5.6s33.9,0.6,40.7-0.4
			C577.3,277.4,580,266.6,568.2,265.6z"/>
		<path class="st2" d="M568.2,265.6c-13-1-41-3.8-56.9-9.9c-15.9-6.1-29.7-7.3-50.4-8.2c-20.6-1.1-48.7,0.6-56.2,3.3
			c-7.4,2.7-14.2,14.1,2.7,21.5c16.9,7.4,50.6,13.8,70.6,15.8c20,2,25.1,1.3,31.4-3.5c6.3-4.7,7.8-5.4,20.2-5.6s33.9,0.6,40.7-0.4
			C577.3,277.4,580,266.6,568.2,265.6z"/>
		<path class="st1" d="M560.8,251.5l-6.6-0.4c0,0,2,45.6,10.7,61.5l3.1,1.4l9.2,0.4L560.8,251.5z"/>
		<path class="st1" d="M560.8,251.5l4.9-0.7c0,0,5,37.3,14.4,55.5v5.2l-2.8,2.8l-3.3-1.5C573.8,312.7,564.9,292.1,560.8,251.5z"/>
		<path class="st2" d="M564.9,250.6c0,0-0.1-20.6-0.1-23.2c0-4.2,5-8.7,6.1-9.6c7.8-0.1,14.5,0,18.6,0.4v-2.8
			c0.8,0.1,1.5-0.4,1.3-1.4c-1.5-6-14.5-9.5-34.9-9.5c-14.2,0-46.7,3.5-46.6,9.6c0.1,6.3,0.3,6.6,10.3,6.6c8.7,0,15.3,0.7,17.3-1.4
			c3.3-0.3,7-0.6,10.6-0.8c0.7,0.4,6.1,4.3,6.6,8.1c0.6,4.5,1.3,24,1.3,24"/>
		<path class="st2" d="M554.3,250.9c0,0,2,45.6,10.7,61.5l3.1,1.4l9.2,0.4l2.8-2.8v-5.2c-9.2-18.4-14.2-55.7-14.2-55.7"/>
		<path class="st2" d="M448.1,247c-2.5-11-3.8-20.6-3.8-20.6l-4,0.6l3.3-0.6c0,0-0.1-17-0.1-19c0-3.9,5.2-8,5.2-8l-7.8,0.3
			c9.3-0.6,18.8-0.6,28.2,0v-2.2c0.7,0.1,1.3-0.3,1.1-1.1c-1.3-4.9-11.9-7.8-28.5-7.8c-11.6,0-38.2,2.8-38.1,8
			c0.1,5.2,0.1,5.3,8.5,5.3c7.1,0,12.6,0.6,14.1-1.1l3.5-0.3c1,0.7,4.9,3.6,5.2,6.4c0.4,3.5,1,18.6,1,19.7l-1-0.1v0.3v0.1
			c0,0.1,0,0.1,0,0.3c0,0.1,0,0.1,0,0.3v0.1c0,0.7,0.1,1.7,0.1,2.9v0.1c0,0.3,0,0.6,0,1v0.1c0.3,3.9,0.7,9.3,1.4,15.3"/>
		<path class="st2" d="M436.3,448.9c17-13.8,36.1-27.9,59.2-35.2c23,7.1,42.1,21.3,59.3,35.2"/>
	</g>
</g>
</svg>
