<?xml version="1.0" encoding="utf-8"?>
<!-- Generator: Adobe Illustrator 25.2.0, SVG Export Plug-In . SVG Version: 6.00 Build 0)  -->
<svg version="1.1" id="Layer_1" xmlns="http://www.w3.org/2000/svg" xmlns:xlink="http://www.w3.org/1999/xlink" x="0px" y="0px"
	 viewBox="0 0 600 600" style="enable-background:new 0 0 600 600;" xml:space="preserve">
<style type="text/css">
	*{vector-effect:non-scaling-stroke}
	.st0{fill:none;stroke:#000000;stroke-width:1.5;stroke-linecap:round;stroke-linejoin:round;}
	.st1{fill:#FFFFFF;stroke:#000000;stroke-width:0.5;stroke-linecap:round;stroke-linejoin:round;}
	.st2{fill-rule:evenodd;clip-rule:evenodd;}
	.st3{fill:none;stroke:#000000;stroke-width:0.5;stroke-linecap:round;stroke-linejoin:round;}
	.st4{fill-rule:evenodd;clip-rule:evenodd;fill:#FFFFFF;stroke:#000000;stroke-width:0.5;stroke-linecap:round;stroke-linejoin:round;}
	.st5{clip-path:url(#SVGID_2_);}
	.st6{fill:#FFFFFF;stroke:#000000;stroke-width:1.5;stroke-linecap:round;stroke-linejoin:round;}
</style>
<g id="Layer_2_1_">
	<g id="Layer_1-2">
		<path class="st0" d="M248.3,111.8l240.5-71.9c0,0,43.4,160.5,52.6,189.3s53.9,161.8,53.9,161.8s-49.3,14-116.6,33.3"/>
		<path class="st0" d="M262.3,487c-71.5,21.1-132.2,39.4-153.6,47.3C67.9,397.6,4.8,184.5,4.8,184.5l222.9-66.6"/>
		<path class="st1" d="M495.1,272.9c9.8,1,8.4,4.7,24.2,0.1c15.8-4.5,24.7-4.4,28.6-2.9"/>
		<path class="st1" d="M405.4,283.7c9.1-0.5,17.3-0.9,20.2-0.9"/>
		<path class="st1" d="M372.4,185.3c-2,10.3-4.9,39.4-2.9,55.8s-2,38.9-0.5,40.9c1.5,2,5.4,3.4,5.4,3.4l7.7-0.5"/>
		<path class="st2" d="M492.7,237.2c0,0-0.1-6.9-2.5-11.8c-3.7,4.2-5.7,10.7-5.7,10.7L492.7,237.2z"/>
		<path class="st0" d="M494,284c1.2-9.1,2.2-17.2,2.3-19c0.2-4.9-3.7-16.7-3.7-16.7l1.4-9.2l-1-2.5c-1.4-0.4-2.7-0.7-4.1-0.9
			c-1.5-0.2-2.8-0.2-4.3-0.2l-1.6,2.2l-1.4,9.2c0,0-7.1,10.2-8.2,15c-1.1,4.8-7.7,50.1-7.7,50.1"/>
		<path class="st0" d="M446.9,587.2c0.7-1.6,4.5-13.3,6.3-18.6c1.7-5.3,4.3-13.8,5.9-20.6c1.6-6.9,12.5-74.8,12.5-74.8l-2-2.9
			c-4.4-1.1-8.8-2-13.3-2.7c-7.1-1-14.5-1.4-14.5-1.4l-2.7,2.5c0,0-8.4,68.3-8.6,75.3s-0.2,15.8,0,21.5s0.6,17.8,1,19.5
			c0.4,1.7,4.3,4.8,7.1,5.2C441.5,590.5,446.2,588.7,446.9,587.2z"/>
		<path class="st0" d="M443,458c-0.4,3.4-0.7,6.3-1,8.4l27.9,3.9c1.2-7.2,3.7-23.6,6.6-43.1"/>
		<path class="st1" d="M224.9,88.9c-2,0.4-3.9,0.6-6.3,0.7c-9,0.5-25.4-0.9-33.1,1.4c-7.6,2.2-13.9,7.6-20.5,9.8
			c-6.6,2.2-20.5,9-26.8,13.4c-6.3,4.4-16.6,5.8-19.3,9.8c-1.8,2.8-3.6,4.3-3.3,7l-0.2,0.1c-1.7,2.8-1,8.8-0.7,12.7
			c0.1,2.7-0.1,5.4-0.7,8.1l0.1,0.1c-2,1.5-3.6,2.7-4.7,3.7c-4.5,4.1-11.7,9.3-10.7,14c-1.5,2.8-0.2,3.8,0.7,6.1
			c-1,2,1.2,7.6,2.8,10.2l1.7-0.7c-1.5,1.7-2.8,2.9-3.4,3.7c-2.3,2.6-4.5,5.7-4.5,5.7s-2.1,1-1.7,5.3c0.4,4.3,0.2,9.1,0.2,9.1
			l1.5-0.5c-0.2,1.4-3.2,3.6-2.2,6.1c-1,3.9-2.9,8.8-0.6,10.2c-0.6,4.3-1.4,18.1,0,22.4s0.6,11.5,0.6,13.5s2.6,4.7,2.6,4.7
			s-0.4,4.9,1,7.5c1.6,2.7,3.4,5.3,5.5,7.9c-0.6,6.6,0.6,16.1,4.7,22.4c0,0,3.6,4.7,8.8,2.9c4.4-1.4,8.7-6.4,10.4-15.6 M136.1,302.5
			l0.5-3.4c0,0,2.3,10.4,11.8,2.9c6.9-5.4,4.4-10.3,4.4-10.3v-0.4c8.6-3.7,20.9-10.6,20.9-10.6l-0.4-0.1l0.4-0.1l0.5-0.4
			c0.5,0.1,1,0.2,1.5,0.4c3.2,0.2,6.4,0.1,9.6-0.6c0,0,6.6,1.6,10.6,2.3c3.9,0.7,8.6,0.6,9.6-3.6c5.9,0.4,5.7-2.6,7.2-4.9
			c4.9,0.6,14.1-5.7,21-10.2s10.6-9.8,14.7-11.5c4.2-1.7,10.6-3.9,12.8-6.3c2.2-2.3,13.1-18.4,13.1-18.4s4.5-1,6.3-3.9
			c5.9,0.4,11.5-6.3,15.5-10.8c6.3-0.6,8.6-3.9,8.6-7.5c2.8-0.6,5-2.9,5.3-5.9c3.9-1,4.3-4.9,10.2-9.2c5.9-4.3,6.3-4.9,11.2-6.3
			c4.9-1.4,12.8-1,19.7,0c6.9,1,24.3,2.3,31.9,3.6l2.5-1.2c1.7-6.6,3.2-13.3,4.3-20c2-14.7,9.3-42.9,9.3-55.3c0-9-5-17.8-10.1-23.2
			c-5.9-0.1-11.7-0.9-17.3-2.2c-7.6-1.8-12.5-1.4-19.2-1.4s-17-1.8-26.4-3.1c-9.5-1.2-31.7,2.2-40.7,3.1c-4.4,0.5-13,0.2-21.5,0.1
			 M215.1,221.3c-0.1,0.2-0.2,0.5-0.2,0.9l-2.3,5.5c-3.7,1-11.4,4.7-11.2,8.4c-6.6,0.4-12.5,3.6-13.1,6.6c-5.7,1-11.2,1.6-16.7,4.7
			c-1.6-5.4-16.1-17.2-25.4-17.2c5.4-4.9,2-16.2,2-16.2s7.4,2.9,13.8,0.5s2-14.3,2-14.3l-0.1-0.1c1.5-0.6,2.8-1.4,4.1-2.3
			c1.6-1.5,3.6-5.3,5.4-5.7c1.4-0.4,2.7-1,3.8-2l15.4,3.3c1.6,3.6,0.6,9.2,7.9,12.5c5.9,2.7,12.3,5.8,14.6,6.9
			c0.2,1.5,0.6,2.9,1.2,4.3c0.4,0.6,0.6,1.1,0.9,1.5C216.1,219.3,215.6,220.3,215.1,221.3L215.1,221.3z"/>
		<path class="st1" d="M384.7,267.8c-2.6-1-5-1.8-7.4-2.7c-2.9-4.9-2-21.3,1.5-27.6c3.4-6.4,6.4-24.7,4.4-33.1
			c-2-8.4,4.4-23.7,6.4-38.5c2-14.7,9.3-42.9,9.3-55.3s-9.5-24.1-15.4-27.5"/>
		<path class="st1" d="M400.5,268.6c8.5,2.7,17.6,6.4,24.1,10.9c-7.9-1.6-15.5-3.7-23.1-6"/>
		<path class="st1" d="M380.2,263.2c2,0.5,4.8,1.1,7.9,1.8"/>
		<path class="st0" d="M514.4,324.6c0,0,1.6-6.3,0.6-8.8s-0.4-8.5-2.6-10.6c0,0,0.4-7.9-2.3-13.8c-2.7-5.9-5.5-7.9-5.5-7.9l-2.6,1.6
			c0,0-2.3-4.3-6.9-1s-7.5,17.8-7.9,19c-0.1,1.7,0,3.4,0.2,5.2c-1.7-6.1-4.9-12.5-5.8-13.4c0.4-1-1.6-5.7-1.6-5.7
			c-0.4-3.2-0.5-6.4-0.4-9.6c0.4-4.3-4.7-10.8-4.7-10.8s0.4-13.1,0.4-14.7s-5.3-7.5-10.6-5.9c-8.5-3.3-12.5,3.7-14.4,6.9
			c-0.1-2.3-0.4-4.7-0.7-6.9c-0.6-2.3-3.6-5.9-7.5-5.9c-8.6-2.9-14.7,5.7-16.5,10.2c-1.7,4.5,0.6,11.2-0.4,13.8
			c-1,2.6,1,10.2,1,10.2s0,7.5-1.6,10.2c-1.6,2.7-2.3,13.8-0.4,22.7c-2.2,1.2-4.7,6.1-5.9,8.7v-0.1c-0.6-2.3-2-4.9-2-6.6
			c0-1.7-0.4-4.5-1.6-5.5c-1.2-1-5.3-2.9-4.7-6.6c-0.5-4.1-1.5-8-2.9-11.8l-4.5-9.8c0,0-1.6-10.2-3.7-12.2c-2.1-2-6.9-2.3-7.5-1
			c-7.2,0.6-11.5,8.6-10.6,15.1c0.9,4.8,2.3,9.6,4.3,14.1c0,0-3.3,14.1,3.3,19.8c-3.3,3.6-4.7,8.5-3.7,13.1
			c-7.5,1.4-11.2,4.9-11.2,4.9l-5.3,4.5c-4.7,0-9,2.3-11.5,6.3c-8.2,0.6-10.8,4.3-12.5,6.3c-1.7,2.1-3.3,4.3-4.7,6.6
			c-0.2,0.7-2.8,3.3-4.1,5h-1c0,0-5.9,1.6-6.9,2.9c-1,1.4-6.6,10.8-6.6,10.8c-1.6,0.2-3.1,0.7-4.3,1.6c-0.6-0.1-8.2-1.2-10.4,0.6
			s-6.9,9.6-6.9,9.6l0.2,1.7l-10.2,2.6v0.1c-3.8-4.1-10.1-5.4-13.8-5.7l-0.2,0.5c-3.7-3.2-7.2-4.3-9.7-6.4
			c-3.9-3.3-22-8.8-24.7-10.6c-2.7-1.7-11.5-7.4-15.6-8.7c-2.5,4.9-4.5,10-4.8,13c-0.6,4.9-2.1,9.7-4.3,14
			c-2.3,4.9-6.6,23.3-7.6,26.7c-1,3.3-4.3,16.7-3.9,18.8c0.2,1.5-3.9,13.5-6,21l-0.4,12l1.5,0.9c6.1,3.7,13.5,6.3,20.8,9.2
			c7.2,2.9,20,8.8,27.3,9.8c7.2,1,22,3.9,27.3,4.7s29,2.6,33.2,2.6c4.2,0,18.7-2.6,25.7-4.7s38.5-9.2,44.4-9.8
			c5.9-0.6,22.4-3.9,26.7-4.9c4.3-1,18.4-7.9,22.7-9.6c4.3-1.7,22-7.5,24.9-8.6c2.9-1.1,8.6-9.2,11.5-12.5c2.9-3.3,7.2-7.9,8.8-10.6
			c1.6-2.7,8.8-13.5,12.5-17.8c3.7-4.3,9.6-11.5,11.2-16.1c1.6-4.5,6.6-12.5,8.6-15.1c1.2-1.5,1.8-3.3,2-5.3c0,0,3.3-2.3,2.9-4.3
			c0.6-1.4,0.5-2.9-0.4-4.3c0,0,1-0.6,0.6-2.9s-0.4-8.2,1.4-10.8c1.7-2.6,2.9-15.5,2.6-17.1C514.4,336.1,514.4,324.6,514.4,324.6z"
			/>
		<path class="st0" d="M154.6,202c3.8,2,4.9,0.1,6.4-0.9c1.5-1,4.9-2.1,6.6-3.6c1.7-1.5,3.6-5.3,5.4-5.7c2.5-0.6,4.5-2.2,5.8-4.4
			c0.9-2.1,1.1-4.3,0.9-6.6"/>
		<path class="st0" d="M224.3,89.2c-2,0.4-3.4,0.6-5.8,0.7c-9,0.5-25.4-0.9-33.1,1.4c-7.6,2.2-13.9,7.6-20.5,9.8
			c-6.6,2.2-20.5,9-26.8,13.4c-6.3,4.4-16.6,5.8-19.3,9.8c-2.7,4.1-5.2,5.3-1.8,11.3"/>
		<path class="st0" d="M390.4,87.6c-6.3,0-12.7-0.7-18.8-2.2c-7.6-1.8-12.5-1.4-19.2-1.4s-17-1.8-26.4-3.1
			c-9.5-1.2-31.7,2.2-40.7,3.1c-4.4,0.5-12.9,0.2-21.5,0.1"/>
		<path class="st0" d="M115.3,131.3c-1.7,2.8-1,8.8-0.7,12.7c0.1,2.7-0.1,5.4-0.7,8.1"/>
		<path class="st0" d="M180.6,100.6c-4.1,0.5-11.9,1.2-16.5,6.9c-6.4,7.2-13.1,14-20.5,20.3c-5,4.1-10.2,7.6-12.9,11.4
			c-2.7,3.8-16.7,12.7-21.3,16.7c-4.5,4.1-11.7,9.5-10.7,14c-1.5,2.8-0.2,3.8,0.7,6c-1,2.1,1.2,7.6,2.8,10.2"/>
		<path class="st0" d="M177.3,109.9c-3.8,0-11.7,0.7-16,3.8c-4.3,3.1-7.9,8.1-11.2,13.8c-3.3,5.7-8.4,14.5-12.4,18.6
			c-4.1,4.1-17.2,17-21.6,24.1c-4.4,7.1-13.5,16.5-15.7,19c-2.2,2.6-4.5,5.5-4.5,5.5s-2.1,1-1.7,5.3c0.4,4.3,0.2,9.1,0.2,9.1"/>
		<path class="st0" d="M162.3,131.3c-3.9,4.3-6.6,10.2-10.2,14.7c-3.6,4.5-18.7,17.4-24.7,25.7c-6,8.2-14.7,19-21,24.9
			c-6.3,5.9-7.9,10.6-7.6,12.2"/>
		<path class="st0" d="M100.1,204.3c-2.7,0.6-4.4,3.3-3.8,6c0,0.2,0.1,0.4,0.1,0.6"/>
		<path class="st0" d="M107.3,303.2c-3.9-6.3-5.3-15.8-4.7-22.4"/>
		<path class="st0" d="M95.8,208.6c0,1.4-3.3,3.7-2.3,6.3c-1,3.9-2.9,8.8-0.6,10.2c-0.6,4.3-1.4,18.1,0,22.4s0.6,11.5,0.6,13.5
			s2.6,4.7,2.6,4.7s-0.4,4.9,1,7.5c1.7,2.8,3.6,5.4,5.7,7.9"/>
		<path class="st0" d="M192.1,193.5c1.6,3.7,0.6,9.2,7.9,12.5s14.6,6.9,14.6,6.9"/>
		<path class="st0" d="M212.9,196.4c0.6,5.7,1.4,17.7,2.9,20.8c1.6,3.1,0.9,1.4,0.9,1.4"/>
		<path class="st0" d="M229,205.6c-4.3,2.6-12.5,11.8-13.8,15.7c-1,2.8-2.2,5.5-3.6,8.2"/>
		<path class="st0" d="M173.8,280.8c0,0-24.3,13.5-28.6,12.8"/>
		<path class="st1" d="M335.5,179.2c7.9-1,19.7,0.4,25.9,0.6c5.3,3.9,10.6,1,13.1,0.4s9.8,1,9.8,1"/>
		<path class="st1" d="M374.8,85.6c2.9-4.9,11.8-7.4,21.3-5.4s22.2,4.9,26.2,5.9c3.9,1,9.8,0,15.2,1.5"/>
		<path class="st1" d="M429.5,86.6c11.3-1.5,20.8-7.4,54.2,3.4c2-4.4,10.3,1,13.8,7.4c3.4,6.4,7.4,31.1,7.4,44.8s-5.9,24.7-4.9,31.6
			c1,6.9-2,10.8-2.5,16.7c-1.2,12.4-3.7,24.6-7.4,36.5"/>
		<line class="st3" x1="495.1" y1="93" x2="502.1" y2="93"/>
		<line class="st3" x1="505.1" y1="145.3" x2="515.9" y2="143.8"/>
		<path class="st1" d="M501.1,166.9c0,0,16.2,1,20.3,3.4"/>
		<path class="st1" d="M506.5,176.8c0,0,10.8,6.9,17.2,16.2"/>
		<path class="st1" d="M495.1,204.4c4.1-3.3,9.5-4.2,14.3-2.5c5.4,1.8,11.1,3.2,16.7,3.9"/>
		<line class="st0" x1="132" y1="297.4" x2="136.1" y2="302.6"/>
		<polyline class="st1" points="136.1,302.6 136.6,299.2 135.2,293.9 		"/>
		<path class="st0" d="M136.6,299.2c0,0,2.3,10.4,11.8,2.9c6.9-5.4,4.4-10.3,4.4-10.3"/>
		<path class="st0" d="M163.7,200c0,0,4.4,11.8-2,14.3c-6.4,2.5-13.8-0.5-13.8-0.5s3.4,11.3-2,16.2c9.3,0,23.8,11.8,25.4,17.3"/>
		<path class="st1" d="M112.1,220.1c2.9,2.3,7.4,5.8,13.5,5.5"/>
		<path class="st1" d="M115.5,228.9c3.9,1.6,8.5,0.9,11.7-2"/>
		<path class="st1" d="M107.6,264.3c5.9-0.4,11.8-5.4,14.1-7.7"/>
		<path class="st0" d="M154.6,202c0-2.6-0.2-3.6-3.2-7.9"/>
		<path class="st0" d="M222.2,199.8c-1.6,5.9-4.5,10.7-1.6,12.7"/>
		<path class="st3" d="M203.1,198.4c2.9,3.6,6.9,9.7,11.3,10.7"/>
		<path class="st3" d="M208.3,197c3.9,2,4.2,3.6,4.9,5.5"/>
		<path class="st1" d="M238.2,201.5c-2.3,1.7,0-1.4-2-4.2c-2-2.8-0.6,3.2-3.4,3.1c-2.8-0.1-0.5-4.5-3.1-5c-2.6-0.5-1,4.3-2.8,4.7
			c-1.8,0.4-2.5-5.8-5.2-6.1c-2.7-0.4-1.4,1.8-4.2,3.2c-2.8,1.4-5-2.7-7.5-2.2c-2.5,0.5-8.7-6.5-9.1-10.1
			c-0.4-3.6-0.2-13.9,11.8-3.3"/>
		<path class="st1" d="M187.9,106c8-1.4,20-4.2,30.2-6.6"/>
		<path class="st1" d="M217.4,272c0,0,11.8,6.9,17.7,7.9l5.9,1c0,0-1,7.9-0.5,10.8s3.9,17.7,4.4,21.7s-4.4,19.8-4.4,22.7
			c0,2.9-1.5,21.7-2,23.7s-1,6.4-1,6.4"/>
		<path class="st0" d="M169.5,276.7c1.6,2,3.8,3.4,6.3,3.9c3.2,0.2,6.4,0.1,9.6-0.6c0,0,6.6,1.6,10.6,2.3s8.6,0.6,9.6-3.7
			c5.9,0.4,5.7-2.6,7.2-4.9c4.9,0.6,14.1-5.7,21-10.2c6.9-4.5,10.6-9.8,14.7-11.5c4.2-1.7,10.6-3.9,12.8-6.3
			c2.2-2.3,13.1-18.4,13.1-18.4s4.5-1,6.3-3.9c5.9,0.4,11.5-6.3,15.5-10.8c6.3-0.6,8.6-3.9,8.6-7.6c2.8-0.6,5-2.9,5.3-5.9
			c3.9-1,4.3-4.9,10.2-9.2s6.3-4.9,11.2-6.3c4.9-1.4,12.8-1,19.7,0s24.3,2.3,31.9,3.6"/>
		<path class="st2" d="M103.7,316c0,0-2.6,6.4-2.3,11.9c4.9-2.5,9.3-7.7,9.3-7.7L103.7,316z"/>
		<path class="st0" d="M108.4,304.8l-5.3,9l-0.1,2.7c1.1,0.9,2.2,1.7,3.3,2.3c1.2,0.7,2.6,1.4,3.8,2l2.3-1.4l4.8-8
			c0,0,13.6-5.8,13.3-10.7c-0.1-2,3.6-6.9,8.1-12.9"/>
		<path class="st0" d="M157.2,257.5l-20.9-12.4c0,0-5.4,9.2-11.2,19.2"/>
		<path class="st4" d="M163.6,251.8c17.9-30.2,65-109.7,74.9-127.8l-24.2-14.4c-11.8,18.6-64.4,107.1-79.2,132.2l0.5,3.4
			c3.3,2.7,6.9,5.2,10.6,7.5c3.6,2.1,7.2,3.9,11.1,5.5"/>
		<path class="st0" d="M280.5,10.5c-1.2,1.2-9.3,10.4-13,14.7c-3.7,4.3-9.3,11.1-13.4,16.7s-40.3,64.3-40.3,64.3l0.6,3.4
			c3.6,2.7,7.4,5.3,11.2,7.6c6.1,3.7,12.9,6.9,12.9,6.9l3.4-1.1c0,0,33.9-60,37-66.2s6.3-14.6,8.2-19.8c2-5.2,6.3-16.7,6.6-18.4
			c0.4-1.7-2.1-6-4.5-7.5C286.7,9.7,281.8,9.4,280.5,10.5z"/>
		<path class="st0" d="M219.6,89.9c2.6-2,4.9-3.4,5.2-6.1c0.4-2.7,1.2-5.3,2.8-7.6c1.6-2.7,29.6-49.5,35-54.4
			c3.9-3.6,6.9-1.7,7.1-0.7c0.1,0.5-1.2,2.8-2.6,4.8c0.1-0.1,0.2-0.2,0.4-0.4c2.3-2.7,6.4-7.4,9.5-10.8l-4.9-2.9
			c-3.7-2.2-8.7-1.6-11.8,3.7c-2.8,4.7-40.3,66-43.2,70.8C214.1,90.9,217.1,91.8,219.6,89.9z"/>
		<path class="st4" d="M224.3,111.7c0.5,0.2,0.6,0.9,0.4,1.4s-0.9,0.6-1.4,0.4l0,0c-0.5-0.2-0.6-0.9-0.4-1.4
			C223.2,111.5,223.8,111.4,224.3,111.7L224.3,111.7z"/>
		<g>
			<g>
				<g>
					<defs>
						<path id="SVGID_1_" d="M163.6,251.8c17.9-30.2,65-109.7,74.9-127.8l-24.2-14.4c-11.8,18.6-64.4,107.1-79.2,132.2l0.5,3.4
							c3.3,2.7,6.9,5.2,10.6,7.5c3.6,2.1,7.2,3.9,11.1,5.5"/>
					</defs>
					<clipPath id="SVGID_2_">
						<use xlink:href="#SVGID_1_"  style="overflow:visible;"/>
					</clipPath>
					<g class="st5">
						<path class="st2" d="M163.2,202c0.9-1.7,2.9-4.7,4.7-3.7c2.5,1.2,2.1,5.3,2,6.5c-0.2,1-1.4,1.5-1.8,0.4
							c-0.2-3.9,0.2-5.5-0.9-5.2c-2.7,1-4.8,9.8-3.4,10.9c0.7,0.6,2.2-0.1,4.5-2.1c3.3-2.6,7.1-5,9.3-1.7c2.1,3.1,0.5,7.7-0.7,10.8
							c-0.9,2.3-3.9,6.4-5,6.3c-0.5,0.1-1.2-0.5-1.1-1c0.4-1,3.1-2.2,5-7.7c0.5-1.5,1.2-5.9-0.1-7.2c-2.2-2.3-8.2,6.1-11.7,5
							C159.7,211.9,162,204.4,163.2,202L163.2,202z M168.3,194c-0.5,0-1,0.6-0.6,1c0.7,1.6,4.7,3.9,5.4,5.4c0.2,0.6-0.5,1.7-0.2,2
							c0.7,1.1,1.5,0.2,2.3-0.2c2.6,2,6.6,6.3,6.6,3.4c0-1.2-5.8-4.9-6.3-5.7c-0.5-0.7,0.2-2.5,0.9-2.8c3.1,2.5,4.4,5.7,6.4,5.3
							c2.3-0.5,0.9-3.1,1.2-4.4c2.5,1,2.8-1.5,2.3-3.9c2.5,0.4,2.9-2,1.7-4.2c-1.6-2.8-4.3-4.8-4.2-5.4c0-0.5,0.1-0.9,0.4-1.2
							c1-1,3.4,4.9,5.9,4.9s1.5-3.1,1.7-3.7c3.8,3.1,4.8,3.7,5.3,2c0.2-0.9-6.1-4.1-8.4-8c-0.6-1-1.1-2-0.5-2.9
							c1.1-0.9,7.5,5.8,4.8,5.3c-0.6-0.1-1.5-1.5-1.5-0.5c0.7,2.6,3.3,2.6,3.8,0.9c0.4-1.4-1.5-3.6-2.1-4.2
							c-1.4-1.7-3.2-2.9-5.3-3.6c-2.5,0-1.5,3.7-1.5,3.7c-0.7-0.2-1-1.2-1.7-1.4c-2.5-0.1,0.7,2.7,3.3,5.2c3.1,2.9,2.3,4.9,2.3,5.2
							c-1.8,0.1-2.7-3.6-5.5-4.9c-1.6-0.6-1.8,0.4-2.5,2.1c-0.5-0.4-1.5-1.2-1.7-0.7c-0.5,1,0,1,0.9,2.6c-0.2,0.5-0.6,1.5-0.4,1.7
							c0.5,0.7,1.4,0.5,2-0.1c1.1,0.6,2,1.5,2.7,2.5c0.9,1.1,1.7,2.3,0.7,2.9c-1.2,0.9-4.3-5.2-5.7-3.8c-2.6-0.7-3.8,1.2-2.8,3.7
							c1.2,3.6,5.9,4.8,4.5,7.7c-1.6-0.1-4.1-4.7-6-5c-1.6-0.4-1.8,1.5-2.7,3.1C173.6,198,169,193.7,168.3,194L168.3,194z
							 M184.5,196.1c-2,0.1-5.4-3.9-4.9-5.7c0-0.4,0.4-0.5,0.6-0.7C183,193.2,185.1,194.3,184.5,196.1L184.5,196.1z M187.1,169
							c0.5,0.7,1.5,1,1.8,0.6s0.4-1.4-0.1-2.1c-0.5-0.7-1.5-1.1-2-0.6C186.3,167.6,186.5,168.5,187.1,169L187.1,169z M191.1,166.6
							c-0.6,2.2,1.4,4.8,3.1,6c0.9,0.6,1.8,1.1,2.8,1.4c-0.7,1.5-1.2,2.3-2.7,1.1c-2.8-2.3-3.9-6.4-5-4.9c-0.5,0.6,1,2.9,2.5,4.7
							c2,2.2,2.8,2.9,4.4,2.8c2,0,2.2-2.7,2.7-3.7c2.2,0.1,4.1-1.5,4.2-3.7c0.1-1.8-2.9-4.8-3.4-3.3c0.9,1.4,1.6,1.8,1.7,2.7
							c0.1,1.4-0.9,2.6-2.2,2.7c0,0,0,0-0.1,0c-1.4,0.1-0.5-2.3-2.6-5S191.8,164.6,191.1,166.6L191.1,166.6z M196.7,171.7
							c-1.4-0.1-3.8-2.9-3.7-3.9c0-0.1,0.1-0.4,0.2-0.4C193.8,167.4,195.9,168.7,196.7,171.7L196.7,171.7z M202,166.2
							c0.6,0.4,1.4,0.1,1.7-0.4c0.4-0.6,0.1-1.4-0.5-1.6c-0.6-0.4-1.4-0.2-1.7,0.4l0,0C201.1,165.1,201.3,165.8,202,166.2L202,166.2
							L202,166.2z M203.9,166c-0.4,0.7-1.4,0.9-2.1,0.5l0,0c-0.7-0.4-1-1.2-0.6-2c0,0,0,0,0-0.1c0.4-0.7,1.4-1,2.1-0.6l0,0
							C204,164.2,204.3,165.2,203.9,166z M202.6,165.5l0.6,0.4l-0.1,0.2l-1.5-0.9l0.4-0.5c0.1-0.4,0.5-0.4,0.7-0.2
							c0.2,0.1,0.4,0.4,0.2,0.6h0.9l-0.1,0.2h-0.9L202.6,165.5L202.6,165.5z M202.3,165.3l0.1-0.2c0.1-0.2,0.2-0.4,0-0.5
							c-0.2-0.1-0.4,0-0.5,0.2l-0.1,0.2L202.3,165.3L202.3,165.3z M199.9,154.5l0.6,0.4l-0.9,1.5l0.7,0.4l0.9-1.5l0.6,0.4l-0.9,1.5
							l1.2,0.7l-0.5,0.7l-3.2-2L199.9,154.5z M200.2,153.9l0.5-0.7l3.2,2l-0.5,0.7L200.2,153.9z M202.4,150.2l0.5-0.7l3.2,2
							l-0.5,0.7l-2.9,0.4l2,1.2l-0.5,0.7l-3.2-2l0.4-0.6l3.1-0.4L202.4,150.2z M204.7,146.3l0.6,0.4l-1,1.6l0.6,0.4l0.9-1.5l0.6,0.4
							l-0.9,1.5l0.6,0.4l1-1.6l0.6,0.4l-1.5,2.3l-3.2-2L204.7,146.3z M204.7,157.4c0.4-0.1,0.7,0,1.1,0.2c0.4,0.1,0.6,0.5,0.7,0.9
							c0,0.5-0.1,0.9-0.4,1.2l-0.2,0.4l0.9,0.5l-0.4,0.7l-3.2-2l0.7-1.1C203.9,157.9,204.3,157.6,204.7,157.4L204.7,157.4z
							 M205.6,158.6c-0.1-0.1-0.2-0.2-0.4-0.4c-0.1-0.1-0.4-0.1-0.5-0.1c-0.1,0.1-0.4,0.2-0.5,0.5L204,159l1.1,0.6l0.2-0.5
							C205.6,159.1,205.6,158.8,205.6,158.6L205.6,158.6z M209.3,155.2c0.1,0.5,0,1-0.2,1.5s-0.7,0.9-1.2,1c-1,0.2-2.1-0.4-2.3-1.5
							c-0.1-0.5,0-1.1,0.2-1.5c0.2-0.5,0.7-0.9,1.2-1C208,153.6,209.1,154.2,209.3,155.2C209.3,155.3,209.3,155.3,209.3,155.2
							L209.3,155.2z M208,154.8c-0.2-0.1-0.6-0.2-0.9-0.1c-0.6,0.1-1,0.7-0.9,1.2v0.1c0.1,0.2,0.2,0.6,0.6,0.7
							c0.2,0.1,0.6,0.2,0.9,0.1c0.2,0,0.6-0.2,0.7-0.5c0.1-0.2,0.2-0.6,0.1-0.9C208.5,155.2,208.2,154.9,208,154.8L208,154.8z
							 M207.2,152.4l0.5-0.7l3.2,2l-0.5,0.7L207.2,152.4z M209.4,148.6l0.5-0.7l3.2,2l-0.5,0.7l-2.9,0.4l2,1.2l-0.5,0.7l-3.2-1.8
							l0.4-0.7l2.9-0.4L209.4,148.6z M211.8,146.2l2.6,1.5l-0.4,0.7l-2.6-1.6l-0.5,1l-0.6-0.4l1.5-2.6l0.6,0.4L211.8,146.2z
							 M183.5,205.4c0.2-0.1,0.5,0,0.7,0.1c0.2,0.1,0.4,0.2,0.4,0.5s0,0.5-0.2,0.7l-0.1,0.2l0.5,0.4l-0.2,0.5l-2-1.2l0.4-0.7
							C183.2,205.6,183.4,205.5,183.5,205.4L183.5,205.4z M184.1,206.1c0-0.1-0.1-0.1-0.2-0.2c-0.1,0-0.2,0-0.2,0
							c-0.1,0-0.1,0.1-0.2,0.2l-0.1,0.2l0.7,0.4l0.1-0.2C184.1,206.5,184.3,206.4,184.1,206.1L184.1,206.1z M184.6,203.3l0.4,0.2
							l-0.6,1l0.4,0.2l0.5-0.9l0.4,0.2l-0.5,0.9l0.4,0.2l0.6-1l0.4,0.2l-0.9,1.5l-2-1.2L184.6,203.3z M186.5,201.7
							c0.2,0.1,0.5,0.5,0.4,0.7l1-0.1l-0.4,0.5l-0.9,0.1l-0.1,0.2l0.6,0.4l-0.2,0.5l-2-1.2l0.5-0.7c0.1-0.2,0.4-0.5,0.5-0.6
							C186.1,201.5,186.3,201.6,186.5,201.7L186.5,201.7z M186.3,202.3c0-0.1-0.1-0.1-0.1-0.2c-0.1,0-0.2,0-0.2,0
							c-0.1,0.1-0.1,0.1-0.2,0.2l-0.2,0.4l0.6,0.4l0.1-0.4C186.3,202.7,186.3,202.5,186.3,202.3L186.3,202.3z M187.8,199.5l0.7,1.2
							l-0.1,0.2l-1.4-0.1l1.2,0.7l-0.2,0.5l-2-1.2l0.4-0.6l1.4,0.1l-0.7-1.1l0.4-0.6l2,1.2l-0.2,0.5L187.8,199.5z M190.5,197.9
							l-0.5-0.1l-0.5,0.9l0.4,0.5l-0.2,0.5l-1.5-2.1l0.2-0.5l2.5,0.4L190.5,197.9z M188.7,197.7l0.5,0.6l0.2-0.5L188.7,197.7z
							 M189.8,194.6l0.2-0.5l2,1.1l-0.2,0.5l-1.8,0.2l1.2,0.7l-0.2,0.5l-2-1.2l0.2-0.4l1.8-0.2L189.8,194.6z M191.1,192.3l0.4,0.2
							l-0.6,1l0.4,0.2l0.5-0.9l0.4,0.2l-0.5,0.9l0.4,0.2l0.6-1l0.4,0.2l-0.9,1.5l-2-1.2L191.1,192.3z M192.2,190.4l0.2-0.5l2,1.2
							l-0.2,0.5l-1.8,0.2l1.2,0.7l-0.2,0.5l-2-1.2l0.2-0.4l1.8-0.2L192.2,190.4z M193.7,188.9l1.6,1l-0.2,0.5l-1.6-1l-0.4,0.6
							l-0.4-0.2l1-1.6l0.4,0.2L193.7,188.9z M197.8,182.8l0.7,1.2l-0.1,0.2l-1.4-0.1l1.2,0.7l-0.2,0.5l-2-1.2l0.4-0.6l1.4,0.1
							l-0.7-1.1l0.4-0.6l2,1.2l-0.2,0.5L197.8,182.8z M200.5,181.1H200l-0.5,0.9l0.4,0.5l-0.2,0.5l-1.5-2.1l0.2-0.5l2.5,0.4
							L200.5,181.1z M198.6,181l0.5,0.6l0.2-0.5L198.6,181z M200.5,178c0.2,0.1,0.5,0.4,0.4,0.7l1-0.1l-0.4,0.5l-0.9,0.1l-0.1,0.2
							l0.6,0.4l-0.2,0.5l-2-1.2l0.5-0.7c0.1-0.2,0.4-0.5,0.5-0.6C200.1,177.9,200.4,177.9,200.5,178L200.5,178z M200.4,178.7
							c0-0.1-0.1-0.1-0.1-0.2c-0.1,0-0.2,0-0.2,0c-0.1,0.1-0.1,0.1-0.2,0.2l-0.2,0.4l0.6,0.4l0.2-0.4
							C200.4,179,200.4,178.9,200.4,178.7L200.4,178.7z M200.1,177.1l0.2-0.5l0.9,0.5l-0.4-1.2l0.4-0.5l0.4,1.4h0.7l0.9-0.1
							l-0.2,0.5l-1.1,0.1l0.1,0.4l0.6,0.4l-0.2,0.5L200.1,177.1z M202.1,173.7l0.4,0.2l-0.5,1.1l0.4,0.2l0.5-0.9l0.4,0.2l-0.5,0.9
							l0.4,0.2l0.6-1l0.4,0.2l-0.9,1.5l-2-1.2L202.1,173.7z M204,172.1c0.2,0.1,0.5,0.5,0.4,0.7l1-0.1l-0.4,0.5l-0.9,0.1l-0.1,0.2
							l0.6,0.4l-0.2,0.5l-2-1.2l0.5-0.7c0.1-0.2,0.4-0.5,0.5-0.6C203.5,171.9,203.8,172,204,172.1L204,172.1z M203.9,172.7
							c0-0.1-0.1-0.1-0.2-0.2c-0.1,0-0.2,0-0.2,0c-0.1,0.1-0.1,0.1-0.2,0.2l-0.2,0.4l0.6,0.4l0.2-0.4
							C203.9,173.1,203.9,173,203.9,172.7L203.9,172.7z"/>
					</g>
				</g>
			</g>
		</g>
		<path class="st0" d="M228.1,117.8l-13.6-8.1c-11.8,18.6-64.4,107.1-79.2,132.2l0.5,3.4c3.3,2.7,6.9,5.2,10.6,7.5
			c3.6,2.1,7.2,3.9,11.1,5.5"/>
		<path class="st0" d="M163.6,251.8c17.9-30.2,65-109.7,74.9-127.8l-10.4-6.3"/>
		<path class="st1" d="M101.4,327.3c-0.6,6.9-3.2,8.1-3.2,15.1s-3.2,8.7-5.7,13.8s-2.5,12.5-4.4,20.2c-2,7.6-6.9,25.2-5,32.1
			c1.8,6.9,5.5,29.1,8.8,29.4c3.3,0.2,5.9,2.3,8.8,2.3s5-3.8,6.5,0.9c1.5,4.7,2.9,5.9,7.6,7.1c4.7,1.2,5,2.1,12.2,3.8
			c4.1,1.1,8.4,0.5,11.8-1.7"/>
		<path class="st1" d="M127.9,442.8c4.2,2.3,9.8,8.6,14.3,10.7s9.7-0.9,13.6,1.5s12.4,6.5,14.5,6.1"/>
		<path class="st1" d="M165.1,455.8c2.1,1.5,5.7,7.1,10.9,8c5.3,0.9,10.1,0.9,12.4,2.9c2.3,2.1,10.1,6.5,13.3,6.1
			c2.1-0.4,3.8-1.7,4.7-3.6"/>
		<path class="st1" d="M79.1,345.3c1,4.5,6.9,12.8,5.9,15.5s-2,6.6-0.4,7.2c1.6,0.6,3.7,8.4,3.7,8.4"/>
		<path class="st1" d="M76.1,357.1c1.6,7.9,0.6,28.3-1,36.5s4.7,23,4.7,23"/>
		<path class="st1" d="M38.9,258.5c11.2,1,16.7,1.6,23.3,2.6s18.4-4.3,23-2c3.4,1.8,6.8,4.1,9.8,6.6"/>
		<path class="st1" d="M37.9,279.9c6.6,2.3,15.8,4.9,18.7,4.9s10.2,4.9,13.1,6.3c2.9,1.4,5.9-1.4,10.2,2.3
			c4.3,3.7,20.8,2.9,23.7,4.9"/>
		<path class="st1" d="M48.1,287.5c6.9,2.9,17.1,7.9,19,9.8s9.2,8.6,9.2,10.2"/>
		<path class="st1" d="M76.8,301c3.3,3.2,7.2,5.5,11.5,6.9c3.3,1.4,8.2,7.9,11.2,11.2l2.9,3.3"/>
		<path class="st0" d="M200.4,465.6c6.1,3.7,13.5,6.3,20.8,9.2c7.2,2.9,20,8.8,27.3,9.8c7.2,1,22,3.9,27.3,4.7
			c5.3,0.7,29,2.6,33.2,2.6s18.7-2.6,25.7-4.7c7-2.1,38.5-9.2,44.4-9.8c5.9-0.6,22.4-3.9,26.7-4.9c4.3-1,18.4-7.9,22.7-9.6
			c4.3-1.7,22-7.5,24.9-8.6c2.9-1.1,8.6-9.2,11.5-12.5c2.9-3.3,7.2-7.9,8.8-10.6s8.8-13.5,12.5-17.8c3.7-4.3,9.6-11.5,11.2-16.1
			c1.6-4.5,6.6-12.5,8.6-15.1c1.2-1.5,1.8-3.3,2-5.3c0,0,3.3-2.3,2.9-4.3c0.6-1.4,0.5-2.9-0.4-4.3c0,0,1-0.6,0.6-2.9
			s-0.4-8.2,1.4-10.8c1.7-2.6,2.9-15.5,2.6-17.1s-0.6-13.1-0.6-13.1s1.6-6.3,0.6-8.8s-0.4-8.5-2.6-10.6c0,0,0.4-7.9-2.3-13.8
			c-2.7-5.9-5.5-7.9-5.5-7.9l-2.6,1.6c0,0-2.3-4.3-6.9-1c-4.5,3.3-7.5,17.7-7.9,19c-0.4,1.4,0.6,9.6,0.6,9.6"/>
		<path class="st1" d="M501.9,285.1c0,0-2.3,7.5,1.4,10.8c2.5,2.3,4.8,4.9,6.9,7.5"/>
		<path class="st6" d="M449.9,255.9c1.6-2.6,5.5-11.2,14.7-7.6c5.3-1.6,10.6,4.3,10.6,5.9s-0.4,14.7-0.4,14.7s4.9,6.6,4.7,10.8
			c-0.1,3.2,0,6.4,0.4,9.6c0,0,2,4.5,1.6,5.5c1.4,1.4,7.6,14.5,6.9,21.4s2.6,11.5,2.9,14.1c0.4,2.6,2.3,6.9,1,9.2
			c2,3.9,1.6,6.3-0.4,6.6c-0.4,2.7-2,5-4.3,6.3c-0.9,3.8-2.6,7.4-4.9,10.6c-2,2.6-4.3,14.1-5.9,16.1s-9.2,14.1-10.2,18.8
			c-0.6,3.6-1.1,7.2-1.4,10.8"/>
		<path class="st1" d="M500.9,360.8c2,0.6,6.9,1,7.2,3.3c0.4,1.7,1.2,3.3,2.3,4.7"/>
		<path class="st1" d="M503.2,366.1c1.5,2.1,3.3,3.9,5.3,5.5l2.3,1.4"/>
		<path class="st1" d="M499.9,370.3c2,3.9,4.5,7.5,7.9,6.9"/>
		<path class="st1" d="M513.8,323.4c0,0,0.4-5.7-3.3-5.7s-10.6-2.3-10.6-2.3"/>
		<path class="st1" d="M498.3,319.3c2.6-0.4,5.3,1.4,6.3,2c1,0.6,4.9-0.4,4.9-0.4"/>
		<path class="st1" d="M464.8,248.3c0,0-2.3,5.3,0,9.2c2.3,3.9,4.9,8.2,4.9,8.2l5.3,3.3"/>
		<path class="st1" d="M468.7,283.5l-4.9,4.9l11.5,4.7"/>
		<path class="st1" d="M469.7,288.8c3.3,1,11.8,6.3,11.8,6.3"/>
		<path class="st1" d="M492.4,339.7c0,0-0.6,0.6-2.3,0c-1.7-0.6-4.3-5.5-5.3-5.9c-1-0.4-4.7-1.4-4.7-1.4"/>
		<path class="st1" d="M479.9,330.5c3.9-0.4,7.2-1.4,8.2,0.4c1,1.7,2.9,6.3,2.9,6.3"/>
		<path class="st1" d="M480.2,336.5c2,0.6,6.6,4.9,6.6,4.9l5.3,4.9"/>
		<path class="st1" d="M471.6,332.2c1.5,1.6,2.9,3.2,4.3,4.9c1.1,1.2,2.5,2.1,3.9,2.6"/>
		<line class="st3" x1="487.7" y1="352.6" x2="485.8" y2="349.9"/>
		<path class="st1" d="M471.6,337.7c0,0,2.6,2.9,3.3,3.9s2.6,3.3,3.6,3.3"/>
		<path class="st6" d="M417.7,319.7c0,0,3.7-8.6,6.6-10.2c-2-8.8-1.4-20,0.4-22.7c1.7-2.7,1.6-10.2,1.6-10.2s-2-7.6-1-10.2
			c1-2.6-1.4-9.2,0.4-13.8c1.7-4.5,7.9-13.1,16.5-10.2c3.9,0,6.9,3.6,7.5,5.9c0.6,2.3,1,12.2,1,12.2c2,0.6,2.9,8.2,2,11.5
			c-0.6,1.8-0.6,3.8,0,5.7c0.1,2,0.1,3.9-0.4,5.9c-0.6,2.3,1,8.2,1,9.8c0,1.6,1.6,17.4,1.6,17.4s2.6,3.6-0.4,6.3
			c2.6,5.7,0,8.8,0,8.8s-3.3,18.7-5.3,22c-2,3.3-6.3,22-5.9,25.3"/>
		<path class="st0" d="M449.3,347.9c0,0,5.5-8.8,9.2-10.6c-2-7.2-3.3-13.1-3.3-13.1"/>
		<path class="st1" d="M436.1,309.5c1.6,0,8.2,0,10.2,3.6s8.2,3.9,8.2,3.9"/>
		<path class="st1" d="M440.1,303c4.3-0.6,12.2,5.3,12.2,5.3l2.6,2.6"/>
		<path class="st1" d="M437.7,315.7c0,0,10.8,3.6,13.1,6.3"/>
		<path class="st1" d="M429.5,314.1c0.6,2.3,4.7,6.6,8.2,6.3"/>
		<path class="st1" d="M442,242.4l-3.3,3.6c0,0,2,8.8,4.7,10.8c2.2,1.5,4.7,2.7,7.2,3.7"/>
		<path class="st3" d="M427.3,346.7c-0.4-1-4.7-14.5-5.3-16.7c-0.6-2.2-2.9-9.6-3.6-11.8c-0.6-2.2-2-4.9-2-6.6s-0.4-4.5-1.6-5.5
			s-5.3-2.9-4.7-6.6c-0.5-4.1-1.5-8-2.9-11.8l-4.5-9.8c0,0-1.6-10.2-3.7-12.2c-2.1-2-6.9-2.3-7.5-1c-7.2,0.6-11.5,8.6-10.6,15.1
			c0.9,4.8,2.3,9.6,4.3,14.1c0,0-3.3,14.1,3.3,19.8c-3.3,3.4-4.7,8.5-3.7,13.1c-7.5,1.4-11.2,4.9-11.2,4.9l-5.3,4.5
			c-4.7,0-9,2.3-11.5,6.3c-8.2,0.6-10.8,4.3-12.5,6.3c-1.7,2.1-3.3,4.2-4.7,6.6c-0.4,1-4.7,4.9-4.7,6.3c0,1.4-0.4,4.3-0.4,4.3"/>
		<path class="st3" d="M334.9,360.1c0,0-5.9,1.6-6.9,2.9c-1,1.4-6.6,10.8-6.6,10.8s-5.7,0.6-5.9,4.3"/>
		<path class="st3" d="M317.1,375.6c0,0-8.2-1.4-10.6,0.6c-2.3,2-6.9,9.6-6.9,9.6l1,6.3c0,0,9.6,12.8,11.2,17.1
			c1.6,4.3,4.9,10.6,5.3,11.5"/>
		<path class="st1" d="M331.6,372c0.6,4.9,2.9,8.8,7.6,14.1"/>
		<path class="st1" d="M321.4,374c0,2,2,10.6,5.9,14.1s7.6,7.5,7.6,7.5"/>
		<path class="st1" d="M314.1,380.9c0,0,0.4,11.2,3.3,13.5"/>
		<line class="st3" x1="300" y1="387.4" x2="289.8" y2="390.1"/>
		<path class="st1" d="M225.4,359.1c3.6,1,13.5,7.2,16.1,8.8c2.6,1.6,20.8,7.2,24.7,10.6c3.9,3.3,10.8,4.3,16.5,15.5"/>
		<path class="st3" d="M276,384.4c4.9,0.4,14.5,2.6,16.5,10.6c2,8,6.3,21.7,10.6,25.3"/>
		<path class="st1" d="M417.2,346.7c-0.5,3.2-10.8,11.5-16.5,14.3"/>
		<path class="st1" d="M446.3,270.4c1.4,1.4,2.2,3.2,2.6,5c0.6,2,2.6,2.6,2.8,3.8"/>
		<path class="st1" d="M440.8,274.1c0.9-0.1,2.8,0.6,4.4,1.5c1.6,0.9,5.3,6,5.3,6"/>
		<path class="st1" d="M442.5,279.1c0.5,0,4.4,1.1,5.5,2.8c1,1.4,2,2.8,2.8,4.3"/>
		<path class="st1" d="M442.8,308.9c0,0,4.4-1.1,6.1,0.4c1.7,1.5,3.9,3.9,3.9,3.9"/>
		<path class="st1" d="M385.4,325.6c1.5-0.9,2.2-3.7,7.9-0.6"/>
		<path class="st1" d="M382,327.3c4.8,1.2,8,2.9,8.1,4.9"/>
		<path class="st1" d="M388.5,313.4c0.9-2.9,6.3-5.2,9.6-4.9"/>
		<path class="st3" d="M391.4,264.5c-1.1,1.5-4.3,6.3,1.7,9.8c6,3.6,8.2,2.8,8.2,2.8"/>
		<path class="st0" d="M212.5,227.6c-2.9,0-11.5,4.3-11.2,8.6c-6.6,0.4-12.5,3.6-13.1,6.6c-5.7,1-11.2,1.6-16.7,4.7
			c-5.5,3.1-10.2,5.3-12.2,8.8c-2,3.6-10.6,6.6-14.1,11.2s-8.8,16.5-5.3,21l3.6,4.7"/>
		<path class="st1" d="M145.2,293.7c-2.6-6.3-1.6-8.8,2-12.5s14.1-5.7,14.1-5.7"/>
		<path class="st0" d="M107.3,303.2c0,0,3.6,4.5,8.8,2.9c5.3-1.6,10.6-8.6,11.2-21.7c0.6-13.1-2.9-24.3-5.7-28
			c6.3-6.3,7.2-23.7,5.3-29.6c1-2-1.4-1.4-1.4-1.4s7.2-2.6,12.2-4.9c4.9-2.5,9.3-6,12.7-10.3c2.8-3.8,3.8-5.7,4.1-8.4"/>
		<path class="st3" d="M102.7,280.8l4.3,5.3l1.6,5.7l1.6,7.2c0,0,0.6,2.6-2.9,4.3"/>
		<path class="st1" d="M204.3,280.6c0,0,5.7,2.9,7.9,5.7s4.3,2.9,6.9,4.3c2.6,1.4,3.9,5.3,6.6,6.9s6.6,2.3,9.6,3.6
			c1.7,0.7,3.4,1.7,4.9,2.9c-0.6,2.9-1.5,5.8-2.6,8.6c-1.4,2.6-2.6,5.3-2,7.5c0.6,2.2,0,9.2-1.6,10.6c-1.6,1.4-0.6,15.1-4.3,21.7
			c-3.7,6.6-8.2,15.5-8.6,20c-0.5,4.9-2,9.7-4.2,14c-2.3,4.9-6.6,23.3-7.6,26.7c-1,3.3-4.3,16.7-3.9,18.7c0.4,2-6.9,21.7-7.2,25.9
			s-1.4,9.6,0.6,11.8"/>
	</g>
</g>
</svg>
