<?xml version="1.0" encoding="utf-8"?>
<!-- Generator: Adobe Illustrator 25.0.0, SVG Export Plug-In . SVG Version: 6.00 Build 0)  -->
<svg version="1.1" id="Layer_1" xmlns="http://www.w3.org/2000/svg" xmlns:xlink="http://www.w3.org/1999/xlink" x="0px" y="0px"
	 viewBox="0 0 481.6 473.4" style="enable-background:new 0 0 481.6 473.4;" xml:space="preserve">
<style type="text/css">
	*{vector-effect:non-scaling-stroke}
	.st0{fill:none;stroke:#000000;stroke-width:1.5;stroke-linecap:round;stroke-linejoin:round;}
	.st1{fill:#FFFFFF;stroke:#000000;stroke-width:0.5;stroke-linecap:round;stroke-linejoin:round;}
	.st2{fill-rule:evenodd;clip-rule:evenodd;}
	.st3{fill:none;stroke:#000000;stroke-width:0.5;stroke-linecap:round;stroke-linejoin:round;}
	.st4{fill-rule:evenodd;clip-rule:evenodd;fill:#FFFFFF;stroke:#000000;stroke-width:0.5;stroke-linecap:round;stroke-linejoin:round;}
	.st5{clip-path:url(#SVGID_2_);}
	.st6{fill:#FFFFFF;stroke:#000000;stroke-width:1.5;stroke-linecap:round;stroke-linejoin:round;}
</style>
<g id="Layer_2_1_">
	<g id="Layer_1-2">
		<path class="st0" d="M198.7,83.5L394.4,25c0,0,35.3,130.6,42.8,154.1s43.9,131.7,43.9,131.7s-40.1,11.4-94.9,27.1"/>
		<path class="st0" d="M210.1,388.9c-58.2,17.2-107.6,32.1-125,38.5C51.9,316.1,0.5,142.7,0.5,142.7l181.4-54.2"/>
		<path class="st1" d="M399.6,214.6c8,0.8,6.8,3.8,19.7,0.1s20.1-3.6,23.3-2.4"/>
		<path class="st1" d="M326.6,223.4c7.4-0.4,14.1-0.7,16.4-0.7"/>
		<path class="st1" d="M299.7,143.3c-1.6,8.4-4,32.1-2.4,45.4s-1.6,31.7-0.4,33.3s4.4,2.8,4.4,2.8l6.3-0.4"/>
		<path class="st2" d="M397.6,185.6c0,0-0.1-5.6-2-9.6c-3,3.4-4.6,8.7-4.6,8.7L397.6,185.6z"/>
		<path class="st0" d="M398.7,223.7c1-7.4,1.8-14,1.9-15.5c0.2-4-3-13.6-3-13.6l1.1-7.5l-0.8-2c-1.1-0.3-2.2-0.6-3.3-0.7
			c-1.2-0.2-2.3-0.2-3.5-0.2l-1.3,1.8l-1.1,7.5c0,0-5.8,8.3-6.7,12.2s-6.3,40.8-6.3,40.8"/>
		<path class="st0" d="M360.4,470.4c0.6-1.3,3.7-10.8,5.1-15.1s3.5-11.2,4.8-16.8s10.2-60.9,10.2-60.9l-1.6-2.4
			c-3.6-0.9-7.2-1.6-10.8-2.2c-5.8-0.8-11.8-1.1-11.8-1.1l-2.2,2c0,0-6.8,55.6-7,61.3s-0.2,12.9,0,17.5s0.5,14.5,0.8,15.9
			s3.5,3.9,5.8,4.2S359.8,471.7,360.4,470.4z"/>
		<path class="st0" d="M357.2,365.3c-0.3,2.8-0.6,5.1-0.8,6.8l22.7,3.2c1-5.9,3-19.2,5.4-35.1"/>
		<path class="st1" d="M179.7,64.9c-1.6,0.3-3.2,0.5-5.1,0.6c-7.3,0.4-20.7-0.7-26.9,1.1s-11.3,6.2-16.7,8s-16.7,7.3-21.8,10.9
			s-13.5,4.7-15.7,8c-1.5,2.3-2.9,3.5-2.7,5.7l-0.2,0.1c-1.4,2.3-0.8,7.2-0.6,10.3c0.1,2.2-0.1,4.4-0.6,6.6l0.1,0.1
			c-1.6,1.2-2.9,2.2-3.8,3c-3.7,3.3-9.5,7.6-8.7,11.4c-1.2,2.3-0.2,3.1,0.6,5c-0.8,1.6,1,6.2,2.3,8.3l1.4-0.6
			c-1.2,1.4-2.3,2.4-2.8,3c-1.9,2.1-3.7,4.6-3.7,4.6s-1.7,0.8-1.4,4.3s0.2,7.4,0.2,7.4l1.2-0.4c-0.2,1.1-2.6,2.9-1.8,5
			c-0.8,3.2-2.4,7.2-0.5,8.3c-0.5,3.5-1.1,14.7,0,18.2s0.5,9.4,0.5,11s2.1,3.8,2.1,3.8s-0.3,4,0.8,6.1c1.3,2.2,2.8,4.3,4.5,6.4
			c-0.5,5.4,0.5,13.1,3.8,18.2c0,0,2.9,3.8,7.2,2.4c3.6-1.1,7.1-5.2,8.5-12.7 M107.4,238.7l0.4-2.8c0,0,1.9,8.5,9.6,2.4
			c5.6-4.4,3.6-8.4,3.6-8.4v-0.3c7-3,17-8.6,17-8.6l-0.3-0.1l0.3-0.1l0.4-0.3c0.4,0.1,0.8,0.2,1.2,0.3c2.6,0.2,5.2,0.1,7.8-0.5
			c0,0,5.4,1.3,8.6,1.9s7,0.5,7.8-2.9c4.8,0.3,4.6-2.1,5.9-4c4,0.5,11.5-4.6,17.1-8.3s8.6-8,12-9.4s8.6-3.2,10.4-5.1
			s10.7-15,10.7-15s3.7-0.8,5.1-3.2c4.8,0.3,9.4-5.1,12.6-8.8c5.1-0.5,7-3.2,7-6.1c2.3-0.5,4.1-2.4,4.3-4.8c3.2-0.8,3.5-4,8.3-7.5
			c4.8-3.5,5.1-4,9.1-5.1s10.4-0.8,16,0s19.8,1.9,26,2.9l2-1c1.4-5.4,2.6-10.8,3.5-16.3c1.6-12,7.6-34.9,7.6-45
			c0-7.3-4.1-14.5-8.2-18.9c-4.8-0.1-9.5-0.7-14.1-1.8c-6.2-1.5-10.2-1.1-15.6-1.1s-13.8-1.5-21.5-2.5s-25.8,1.8-33.1,2.5
			c-3.6,0.4-10.6,0.2-17.5,0.1 M171.7,172.6c-0.1,0.2-0.2,0.4-0.2,0.7l-1.9,4.5c-3,0.8-9.3,3.8-9.1,6.8c-5.4,0.3-10.2,2.9-10.7,5.4
			c-4.6,0.8-9.1,1.3-13.6,3.8c-1.3-4.4-13.1-14-20.7-14c4.4-4,1.6-13.2,1.6-13.2s6,2.4,11.2,0.4c5.2-2,1.6-11.6,1.6-11.6l-0.1-0.1
			c1.2-0.5,2.3-1.1,3.3-1.9c1.3-1.2,2.9-4.3,4.4-4.6c1.1-0.3,2.2-0.8,3.1-1.6l12.5,2.7c1.3,2.9,0.5,7.5,6.4,10.2
			c4.8,2.2,10,4.7,11.9,5.6c0.2,1.2,0.5,2.4,1,3.5c0.3,0.5,0.5,0.9,0.7,1.2C172.5,171,172.1,171.8,171.7,172.6L171.7,172.6z"/>
		<path class="st1" d="M309.7,210.5c-2.1-0.8-4.1-1.5-6-2.2c-2.4-4-1.6-17.3,1.2-22.5s5.2-20.1,3.6-26.9s3.6-19.3,5.2-31.3
			s7.6-34.9,7.6-45s-7.7-19.6-12.5-22.4"/>
		<path class="st1" d="M322.6,211.1c6.9,2.2,14.3,5.2,19.6,8.9c-6.4-1.3-12.6-3-18.8-4.9"/>
		<path class="st1" d="M306.1,206.7c1.6,0.4,3.9,0.9,6.4,1.5"/>
		<path class="st0" d="M415.3,256.7c0,0,1.3-5.1,0.5-7.2s-0.3-6.9-2.1-8.6c0,0,0.3-6.4-1.9-11.2s-4.5-6.4-4.5-6.4l-2.1,1.3
			c0,0-1.9-3.5-5.6-0.8s-6.1,14.5-6.4,15.5c-0.1,1.4,0,2.8,0.2,4.2c-1.4-5-4-10.2-4.7-10.9c0.3-0.8-1.3-4.6-1.3-4.6
			c-0.3-2.6-0.4-5.2-0.3-7.8c0.3-3.5-3.8-8.8-3.8-8.8s0.3-10.7,0.3-12s-4.3-6.1-8.6-4.8c-6.9-2.7-10.2,3-11.7,5.6
			c-0.1-1.9-0.3-3.8-0.6-5.6c-0.5-1.9-2.9-4.8-6.1-4.8c-7-2.4-12,4.6-13.4,8.3s0.5,9.1-0.3,11.2s0.8,8.3,0.8,8.3s0,6.1-1.3,8.3
			s-1.9,11.2-0.3,18.5c-1.8,1-3.8,5-4.8,7.1v-0.1c-0.5-1.9-1.6-4-1.6-5.4s-0.3-3.7-1.3-4.5s-4.3-2.4-3.8-5.4
			c-0.4-3.3-1.2-6.5-2.4-9.6l-3.7-8c0,0-1.3-8.3-3-9.9s-5.6-1.9-6.1-0.8c-5.9,0.5-9.4,7-8.6,12.3c0.7,3.9,1.9,7.8,3.5,11.5
			c0,0-2.7,11.5,2.7,16.1c-2.7,2.9-3.8,6.9-3,10.7c-6.1,1.1-9.1,4-9.1,4l-4.3,3.7c-3.8,0-7.3,1.9-9.4,5.1c-6.7,0.5-8.8,3.5-10.2,5.1
			c-1.4,1.7-2.7,3.5-3.8,5.4c-0.2,0.6-2.3,2.7-3.3,4.1h-0.8c0,0-4.8,1.3-5.6,2.4s-5.4,8.8-5.4,8.8c-1.3,0.2-2.5,0.6-3.5,1.3
			c-0.5-0.1-6.7-1-8.5,0.5s-5.6,7.8-5.6,7.8l0.2,1.4l-8.3,2.1v0.1c-3.1-3.3-8.2-4.4-11.2-4.6L221,306c-3-2.6-5.9-3.5-7.9-5.2
			c-3.2-2.7-17.9-7.2-20.1-8.6s-9.4-6-12.7-7.1c-2,4-3.7,8.1-3.9,10.6c-0.5,4-1.7,7.9-3.5,11.4c-1.9,4-5.4,19-6.2,21.7
			s-3.5,13.6-3.2,15.3c0.2,1.2-3.2,11-4.9,17.1l-0.3,9.8l1.2,0.7c5,3,11,5.1,16.9,7.5s16.3,7.2,22.2,8s17.9,3.2,22.2,3.8
			s23.6,2.1,27,2.1s15.2-2.1,20.9-3.8s31.3-7.5,36.1-8s18.2-3.2,21.7-4s15-6.4,18.5-7.8s17.9-6.1,20.3-7s7-7.5,9.4-10.2
			s5.9-6.4,7.2-8.6s7.2-11,10.2-14.5s7.8-9.4,9.1-13.1s5.4-10.2,7-12.3c1-1.2,1.5-2.7,1.6-4.3c0,0,2.7-1.9,2.4-3.5
			c0.5-1.1,0.4-2.4-0.3-3.5c0,0,0.8-0.5,0.5-2.4s-0.3-6.7,1.1-8.8s2.4-12.6,2.1-13.9S415.3,256.7,415.3,256.7z"/>
		<path class="st0" d="M122.5,156.9c3.1,1.6,4,0.1,5.2-0.7s4-1.7,5.4-2.9s2.9-4.3,4.4-4.6c2-0.5,3.7-1.8,4.7-3.6
			c0.7-1.7,0.9-3.5,0.7-5.4"/>
		<path class="st0" d="M179.2,65.1c-1.6,0.3-2.8,0.5-4.7,0.6c-7.3,0.4-20.7-0.7-26.9,1.1s-11.3,6.2-16.7,8s-16.7,7.3-21.8,10.9
			s-13.5,4.7-15.7,8s-4.2,4.3-1.5,9.2"/>
		<path class="st0" d="M314.4,63.8c-5.1,0-10.3-0.6-15.3-1.8c-6.2-1.5-10.2-1.1-15.6-1.1s-13.8-1.5-21.5-2.5s-25.8,1.8-33.1,2.5
			c-3.6,0.4-10.5,0.2-17.5,0.1"/>
		<path class="st0" d="M90.5,99.4c-1.4,2.3-0.8,7.2-0.6,10.3c0.1,2.2-0.1,4.4-0.6,6.6"/>
		<path class="st0" d="M143.6,74.4c-3.3,0.4-9.7,1-13.4,5.6c-5.2,5.9-10.7,11.4-16.7,16.5c-4.1,3.3-8.3,6.2-10.5,9.3
			s-13.6,10.3-17.3,13.6s-9.5,7.7-8.7,11.4c-1.2,2.3-0.2,3.1,0.6,4.9c-0.8,1.7,1,6.2,2.3,8.3"/>
		<path class="st0" d="M140.9,82c-3.1,0-9.5,0.6-13,3.1s-6.4,6.6-9.1,11.2s-6.8,11.8-10.1,15.1s-14,13.8-17.6,19.6
			s-11,13.4-12.8,15.5s-3.7,4.5-3.7,4.5s-1.7,0.8-1.4,4.3s0.2,7.4,0.2,7.4"/>
		<path class="st0" d="M128.7,99.4c-3.2,3.5-5.4,8.3-8.3,12s-15.2,14.2-20.1,20.9c-4.9,6.7-12,15.5-17.1,20.3s-6.4,8.6-6.2,9.9"/>
		<path class="st0" d="M78.1,158.8c-2.2,0.5-3.6,2.7-3.1,4.9c0,0.2,0.1,0.3,0.1,0.5"/>
		<path class="st0" d="M84,239.3c-3.2-5.1-4.3-12.9-3.8-18.2"/>
		<path class="st0" d="M74.6,162.3c0,1.1-2.7,3-1.9,5.1c-0.8,3.2-2.4,7.2-0.5,8.3c-0.5,3.5-1.1,14.7,0,18.2s0.5,9.4,0.5,11
			s2.1,3.8,2.1,3.8s-0.3,4,0.8,6.1c1.4,2.3,2.9,4.4,4.6,6.4"/>
		<path class="st0" d="M153,150c1.3,3,0.5,7.5,6.4,10.2s11.9,5.6,11.9,5.6"/>
		<path class="st0" d="M169.9,152.4c0.5,4.6,1.1,14.4,2.4,16.9s0.7,1.1,0.7,1.1"/>
		<path class="st0" d="M183,159.9c-3.5,2.1-10.2,9.6-11.2,12.8c-0.8,2.3-1.8,4.5-2.9,6.7"/>
		<path class="st0" d="M138.1,221.1c0,0-19.8,11-23.3,10.4"/>
		<path class="st1" d="M269.7,138.4c6.4-0.8,16,0.3,21.1,0.5c4.3,3.2,8.6,0.8,10.7,0.3s8,0.8,8,0.8"/>
		<path class="st1" d="M301.7,62.2c2.4-4,9.6-6,17.3-4.4s18.1,4,21.3,4.8s8,0,12.4,1.2"/>
		<path class="st1" d="M346.2,63c9.2-1.2,16.9-6,44.1,2.8c1.6-3.6,8.4,0.8,11.2,6s6,25.3,6,36.5s-4.8,20.1-4,25.7s-1.6,8.8-2,13.6
			c-1,10.1-3,20-6,29.7"/>
		<line class="st3" x1="399.6" y1="68.2" x2="405.3" y2="68.2"/>
		<line class="st3" x1="407.7" y1="110.8" x2="416.5" y2="109.6"/>
		<path class="st1" d="M404.5,128.4c0,0,13.2,0.8,16.5,2.8"/>
		<path class="st1" d="M408.9,136.4c0,0,8.8,5.6,14,13.2"/>
		<path class="st1" d="M399.6,158.9c3.3-2.7,7.7-3.4,11.6-2c4.4,1.5,9,2.6,13.6,3.2"/>
		<line class="st0" x1="104.1" y1="234.6" x2="107.4" y2="238.8"/>
		<polyline class="st1" points="107.4,238.8 107.8,236 106.7,231.7 		"/>
		<path class="st0" d="M107.8,236c0,0,1.9,8.5,9.6,2.4c5.6-4.4,3.6-8.4,3.6-8.4"/>
		<path class="st0" d="M129.9,155.3c0,0,3.6,9.6-1.6,11.6s-11.2-0.4-11.2-0.4s2.8,9.2-1.6,13.2c7.6,0,19.4,9.6,20.7,14.1"/>
		<path class="st1" d="M87.9,171.7c2.4,1.9,6,4.7,11,4.5"/>
		<path class="st1" d="M90.6,178.8c3.2,1.3,6.9,0.7,9.5-1.6"/>
		<path class="st1" d="M84.2,207.6c4.8-0.3,9.6-4.4,11.5-6.3"/>
		<path class="st0" d="M122.5,156.9c0-2.1-0.2-2.9-2.6-6.4"/>
		<path class="st0" d="M177.5,155.1c-1.3,4.8-3.7,8.7-1.3,10.3"/>
		<path class="st3" d="M161.9,154c2.4,2.9,5.6,7.9,9.2,8.7"/>
		<path class="st3" d="M166.2,152.9c3.2,1.6,3.4,2.9,4,4.5"/>
		<path class="st1" d="M190.5,156.5c-1.9,1.4,0-1.1-1.6-3.4s-0.5,2.6-2.8,2.5s-0.4-3.7-2.5-4.1s-0.8,3.5-2.3,3.8s-2-4.7-4.2-5
			s-1.1,1.5-3.4,2.6s-4.1-2.2-6.1-1.8s-7.1-5.3-7.4-8.2s-0.2-11.3,9.6-2.7"/>
		<path class="st1" d="M149.6,78.8c6.5-1.1,16.3-3.4,24.6-5.4"/>
		<path class="st1" d="M173.6,213.9c0,0,9.6,5.6,14.4,6.4l4.8,0.8c0,0-0.8,6.4-0.4,8.8s3.2,14.4,3.6,17.7s-3.6,16.1-3.6,18.5
			s-1.2,17.7-1.6,19.3s-0.8,5.2-0.8,5.2"/>
		<path class="st0" d="M134.6,217.7c1.3,1.6,3.1,2.8,5.1,3.2c2.6,0.2,5.2,0.1,7.8-0.5c0,0,5.4,1.3,8.6,1.9s7,0.5,7.8-3
			c4.8,0.3,4.6-2.1,5.9-4c4,0.5,11.5-4.6,17.1-8.3s8.6-8,12-9.4s8.6-3.2,10.4-5.1s10.7-15,10.7-15s3.7-0.8,5.1-3.2
			c4.8,0.3,9.4-5.1,12.6-8.8c5.1-0.5,7-3.2,7-6.2c2.3-0.5,4.1-2.4,4.3-4.8c3.2-0.8,3.5-4,8.3-7.5s5.1-4,9.1-5.1s10.4-0.8,16,0
			s19.8,1.9,26,2.9"/>
		<path class="st2" d="M81,249.7c0,0-2.1,5.2-1.9,9.7c4-2,7.6-6.3,7.6-6.3L81,249.7z"/>
		<path class="st0" d="M84.9,240.6l-4.3,7.3l-0.1,2.2c0.9,0.7,1.8,1.4,2.7,1.9c1,0.6,2.1,1.1,3.1,1.6l1.9-1.1l3.9-6.5
			c0,0,11.1-4.7,10.8-8.7c-0.1-1.6,2.9-5.6,6.6-10.5"/>
		<path class="st0" d="M124.6,202.1l-17-10.1c0,0-4.4,7.5-9.1,15.6"/>
		<path class="st4" d="M129.8,197.5c14.6-24.6,52.9-89.3,61-104l-19.7-11.7c-9.6,15.1-52.4,87.2-64.5,107.6l0.4,2.8
			c2.7,2.2,5.6,4.2,8.6,6.1c2.9,1.7,5.9,3.2,9,4.5"/>
		<path class="st0" d="M224.9,1.1c-1,1-7.6,8.5-10.6,12s-7.6,9-10.9,13.6S170.6,79,170.6,79l0.5,2.8c2.9,2.2,6,4.3,9.1,6.2
			c5,3,10.5,5.6,10.5,5.6l2.8-0.9c0,0,27.6-48.8,30.1-53.9s5.1-11.9,6.7-16.1s5.1-13.6,5.4-15S234,2.8,232,1.6S226,0.2,224.9,1.1z"
			/>
		<path class="st0" d="M175.4,65.7c2.1-1.6,4-2.8,4.2-5c0.3-2.2,1-4.3,2.3-6.2c1.3-2.2,24.1-40.3,28.5-44.3c3.2-2.9,5.6-1.4,5.8-0.6
			c0.1,0.4-1,2.3-2.1,3.9c0.1-0.1,0.2-0.2,0.3-0.3c1.9-2.2,5.2-6,7.7-8.8l-4-2.4c-3-1.8-7.1-1.3-9.6,3c-2.3,3.8-32.8,53.7-35.2,57.6
			S173.3,67.2,175.4,65.7z"/>
		<path class="st4" d="M179.2,83.4c0.4,0.2,0.5,0.7,0.3,1.1s-0.7,0.5-1.1,0.3l0,0c-0.4-0.2-0.5-0.7-0.3-1.1
			C178.3,83.3,178.8,83.2,179.2,83.4L179.2,83.4z"/>
		<g>
			<g>
				<defs>
					<path id="SVGID_1_" d="M129.8,197.5c14.6-24.6,52.9-89.3,61-104l-19.7-11.7c-9.6,15.1-52.4,87.2-64.5,107.6l0.4,2.8
						c2.7,2.2,5.6,4.2,8.6,6.1c2.9,1.7,5.9,3.2,9,4.5"/>
				</defs>
				<clipPath id="SVGID_2_">
					<use xlink:href="#SVGID_1_"  style="overflow:visible;"/>
				</clipPath>
				<g class="st5">
					<path class="st2" d="M129.5,156.9c0.7-1.4,2.4-3.8,3.8-3c2,1,1.7,4.3,1.6,5.3c-0.2,0.8-1.1,1.2-1.5,0.3
						c-0.2-3.2,0.2-4.5-0.7-4.2c-2.2,0.8-3.9,8-2.8,8.9c0.6,0.5,1.8-0.1,3.7-1.7c2.7-2.1,5.8-4.1,7.6-1.4c1.7,2.5,0.4,6.3-0.6,8.8
						c-0.7,1.9-3.2,5.2-4.1,5.1c-0.4,0.1-1-0.4-0.9-0.8c0.3-0.8,2.5-1.8,4.1-6.3c0.4-1.2,1-4.8-0.1-5.9c-1.8-1.9-6.7,5-9.5,4.1
						C126.6,165,128.5,158.9,129.5,156.9L129.5,156.9z M133.6,150.4c-0.4,0-0.8,0.5-0.5,0.8c0.6,1.3,3.8,3.2,4.4,4.4
						c0.2,0.5-0.4,1.4-0.2,1.6c0.6,0.9,1.2,0.2,1.9-0.2c2.1,1.6,5.4,5.1,5.4,2.8c0-1-4.7-4-5.1-4.6s0.2-2,0.7-2.3
						c2.5,2,3.6,4.6,5.2,4.3c1.9-0.4,0.7-2.5,1-3.6c2,0.8,2.3-1.2,1.9-3.2c2,0.3,2.4-1.6,1.4-3.4c-1.3-2.3-3.5-3.9-3.4-4.4
						c0-0.4,0.1-0.7,0.3-1c0.8-0.8,2.8,4,4.8,4s1.2-2.5,1.4-3c3.1,2.5,3.9,3,4.3,1.6c0.2-0.7-5-3.3-6.8-6.5
						c-0.5-0.8-0.9-1.6-0.4-2.4c0.9-0.7,6.1,4.7,3.9,4.3c-0.5-0.1-1.2-1.2-1.2-0.4c0.6,2.1,2.7,2.1,3.1,0.7c0.3-1.1-1.2-2.9-1.7-3.4
						c-1.1-1.4-2.6-2.4-4.3-2.9c-2,0-1.2,3-1.2,3c-0.6-0.2-0.8-1-1.4-1.1c-2-0.1,0.6,2.2,2.7,4.2c2.5,2.4,1.9,4,1.9,4.2
						c-1.5,0.1-2.2-2.9-4.5-4c-1.3-0.5-1.5,0.3-2,1.7c-0.4-0.3-1.2-1-1.4-0.6c-0.4,0.8,0,0.8,0.7,2.1c-0.2,0.4-0.5,1.2-0.3,1.4
						c0.4,0.6,1.1,0.4,1.6-0.1c0.9,0.5,1.6,1.2,2.2,2c0.7,0.9,1.4,1.9,0.6,2.4c-1,0.7-3.5-4.2-4.6-3.1c-2.1-0.6-3.1,1-2.3,3
						c1,2.9,4.8,3.9,3.7,6.3c-1.3-0.1-3.3-3.8-4.9-4.1c-1.3-0.3-1.5,1.2-2.2,2.5C137.9,153.7,134.2,150.2,133.6,150.4L133.6,150.4z
						 M146.8,152.1c-1.6,0.1-4.4-3.2-4-4.6c0-0.3,0.3-0.4,0.5-0.6C145.6,149.8,147.3,150.7,146.8,152.1L146.8,152.1z M148.9,130.1
						c0.4,0.6,1.2,0.8,1.5,0.5s0.3-1.1-0.1-1.7s-1.2-0.9-1.6-0.5C148.3,128.9,148.4,129.7,148.9,130.1L148.9,130.1z M152.2,128.1
						c-0.5,1.8,1.1,3.9,2.5,4.9c0.7,0.5,1.5,0.9,2.3,1.1c-0.6,1.2-1,1.9-2.2,0.9c-2.3-1.9-3.2-5.2-4.1-4c-0.4,0.5,0.8,2.4,2,3.8
						c1.6,1.8,2.3,2.4,3.6,2.3c1.6,0,1.8-2.2,2.2-3c1.8,0.1,3.3-1.2,3.4-3c0.1-1.5-2.4-3.9-2.8-2.7c0.7,1.1,1.3,1.5,1.4,2.2
						c0.1,1.1-0.7,2.1-1.8,2.2c0,0,0,0-0.1,0c-1.1,0.1-0.4-1.9-2.1-4.1S152.7,126.5,152.2,128.1L152.2,128.1z M156.7,132.3
						c-1.1-0.1-3.1-2.4-3-3.2c0-0.1,0.1-0.3,0.2-0.3C154.4,128.8,156.1,129.8,156.7,132.3L156.7,132.3z M161,127.8
						c0.5,0.3,1.1,0.1,1.4-0.3c0.3-0.5,0.1-1.1-0.4-1.3c-0.5-0.3-1.1-0.2-1.4,0.3l0,0C160.3,126.9,160.5,127.5,161,127.8L161,127.8
						L161,127.8z M162.6,127.6c-0.3,0.6-1.1,0.7-1.7,0.4l0,0c-0.6-0.3-0.8-1-0.5-1.6c0,0,0,0,0-0.1c0.3-0.6,1.1-0.8,1.7-0.5l0,0
						C162.7,126.2,162.9,127,162.6,127.6z M161.5,127.2l0.5,0.3l-0.1,0.2l-1.2-0.7l0.3-0.4c0.1-0.3,0.4-0.3,0.6-0.2
						c0.2,0.1,0.3,0.3,0.2,0.5h0.7l-0.1,0.2h-0.7L161.5,127.2L161.5,127.2z M161.3,127.1l0.1-0.2c0.1-0.2,0.2-0.3,0-0.4
						s-0.3,0-0.4,0.2l-0.1,0.2L161.3,127.1L161.3,127.1z M159.3,118.3l0.5,0.3l-0.7,1.2l0.6,0.3l0.7-1.2l0.5,0.3l-0.7,1.2l1,0.6
						l-0.4,0.6l-2.6-1.6L159.3,118.3z M159.6,117.8l0.4-0.6l2.6,1.6l-0.4,0.6L159.6,117.8z M161.4,114.8l0.4-0.6l2.6,1.6l-0.4,0.6
						l-2.4,0.3l1.6,1l-0.4,0.6l-2.6-1.6l0.3-0.5l2.5-0.3L161.4,114.8z M163.2,111.6l0.5,0.3l-0.8,1.3l0.5,0.3l0.7-1.2l0.5,0.3
						l-0.7,1.2l0.5,0.3l0.8-1.3l0.5,0.3l-1.2,1.9l-2.6-1.6L163.2,111.6z M163.2,120.6c0.3-0.1,0.6,0,0.9,0.2
						c0.3,0.1,0.5,0.4,0.6,0.7c0,0.4-0.1,0.7-0.3,1l-0.2,0.3l0.7,0.4l-0.3,0.6l-2.6-1.6l0.6-0.9C162.6,121,162.9,120.8,163.2,120.6
						L163.2,120.6z M164,121.6c-0.1-0.1-0.2-0.2-0.3-0.3c-0.1-0.1-0.3-0.1-0.4-0.1c-0.1,0.1-0.3,0.2-0.4,0.4l-0.2,0.3l0.9,0.5
						l0.2-0.4C164,122,164,121.8,164,121.6L164,121.6z M167,118.8c0.1,0.4,0,0.8-0.2,1.2c-0.2,0.4-0.6,0.7-1,0.8
						c-0.8,0.2-1.7-0.3-1.9-1.2c-0.1-0.4,0-0.9,0.2-1.2c0.2-0.4,0.6-0.7,1-0.8C165.9,117.5,166.8,118,167,118.8
						C167,118.9,167,118.9,167,118.8L167,118.8z M165.9,118.5c-0.2-0.1-0.5-0.2-0.7-0.1c-0.5,0.1-0.8,0.6-0.7,1v0.1
						c0.1,0.2,0.2,0.5,0.5,0.6c0.2,0.1,0.5,0.2,0.7,0.1c0.2,0,0.5-0.2,0.6-0.4c0.1-0.2,0.2-0.5,0.1-0.7
						C166.3,118.8,166.1,118.6,165.9,118.5L165.9,118.5z M165.3,116.6l0.4-0.6l2.6,1.6l-0.4,0.6L165.3,116.6z M167.1,113.5l0.4-0.6
						l2.6,1.6l-0.4,0.6l-2.4,0.3l1.6,1l-0.4,0.6l-2.6-1.5l0.3-0.6l2.4-0.3L167.1,113.5z M169,111.5l2.1,1.2l-0.3,0.6l-2.1-1.3
						l-0.4,0.8l-0.5-0.3l1.2-2.1l0.5,0.3L169,111.5z M146,159.7c0.2-0.1,0.4,0,0.6,0.1c0.2,0.1,0.3,0.2,0.3,0.4s0,0.4-0.2,0.6
						l-0.1,0.2l0.4,0.3l-0.2,0.4l-1.6-1l0.3-0.6C145.7,159.9,145.9,159.8,146,159.7L146,159.7z M146.5,160.3c0-0.1-0.1-0.1-0.2-0.2
						c-0.1,0-0.2,0-0.2,0c-0.1,0-0.1,0.1-0.2,0.2l-0.1,0.2l0.6,0.3l0.1-0.2C146.5,160.6,146.6,160.5,146.5,160.3L146.5,160.3z
						 M146.9,158l0.3,0.2l-0.5,0.8l0.3,0.2l0.4-0.7l0.3,0.2l-0.4,0.7l0.3,0.2l0.5-0.8l0.3,0.2l-0.7,1.2l-1.6-1L146.9,158z
						 M148.4,156.7c0.2,0.1,0.4,0.4,0.3,0.6l0.8-0.1l-0.3,0.4l-0.7,0.1l-0.1,0.2l0.5,0.3l-0.2,0.4l-1.6-1l0.4-0.6
						c0.1-0.2,0.3-0.4,0.4-0.5C148.1,156.5,148.3,156.6,148.4,156.7L148.4,156.7z M148.3,157.2c0-0.1-0.1-0.1-0.1-0.2
						c-0.1,0-0.2,0-0.2,0c-0.1,0.1-0.1,0.1-0.2,0.2l-0.2,0.3l0.5,0.3l0.1-0.3C148.3,157.5,148.3,157.3,148.3,157.2L148.3,157.2z
						 M149.5,154.9l0.6,1l-0.1,0.2l-1.1-0.1l1,0.6l-0.2,0.4l-1.6-1l0.3-0.5l1.1,0.1l-0.6-0.9l0.3-0.5l1.6,1l-0.2,0.4L149.5,154.9z
						 M151.7,153.6l-0.4-0.1l-0.4,0.7l0.3,0.4L151,155l-1.2-1.7l0.2-0.4l2,0.3L151.7,153.6z M150.2,153.4l0.4,0.5l0.2-0.4
						L150.2,153.4z M151.1,150.9l0.2-0.4l1.6,0.9l-0.2,0.4l-1.5,0.2l1,0.6L152,153l-1.6-1l0.2-0.3l1.5-0.2L151.1,150.9z M152.2,149
						l0.3,0.2L152,150l0.3,0.2l0.4-0.7l0.3,0.2l-0.4,0.7l0.3,0.2l0.5-0.8l0.3,0.2l-0.7,1.2l-1.6-1L152.2,149z M153.1,147.5l0.2-0.4
						l1.6,1l-0.2,0.4l-1.5,0.2l1,0.6l-0.2,0.4l-1.6-1l0.2-0.3l1.5-0.2L153.1,147.5z M154.3,146.3l1.3,0.8l-0.2,0.4l-1.3-0.8
						l-0.3,0.5l-0.3-0.2l0.8-1.3l0.3,0.2L154.3,146.3z M157.6,141.3l0.6,1l-0.1,0.2l-1.1-0.1l1,0.6l-0.2,0.4l-1.6-1l0.3-0.5l1.1,0.1
						l-0.6-0.9l0.3-0.5l1.6,1l-0.2,0.4L157.6,141.3z M159.8,139.9h-0.4l-0.4,0.7l0.3,0.4l-0.2,0.4l-1.2-1.7l0.2-0.4l2,0.3
						L159.8,139.9z M158.3,139.8l0.4,0.5l0.2-0.4L158.3,139.8z M159.8,137.4c0.2,0.1,0.4,0.3,0.3,0.6l0.8-0.1l-0.3,0.4l-0.7,0.1
						l-0.1,0.2l0.5,0.3l-0.2,0.4l-1.6-1l0.4-0.6c0.1-0.2,0.3-0.4,0.4-0.5C159.5,137.3,159.7,137.3,159.8,137.4L159.8,137.4z
						 M159.7,138c0-0.1-0.1-0.1-0.1-0.2c-0.1,0-0.2,0-0.2,0c-0.1,0.1-0.1,0.1-0.2,0.2l-0.2,0.3l0.5,0.3l0.2-0.3
						C159.7,138.2,159.7,138.1,159.7,138L159.7,138z M159.5,136.7l0.2-0.4l0.7,0.4l-0.3-1l0.3-0.4l0.3,1.1h0.6l0.7-0.1l-0.2,0.4
						l-0.9,0.1l0.1,0.3l0.5,0.3l-0.2,0.4L159.5,136.7z M161.1,133.9l0.3,0.2L161,135l0.3,0.2l0.4-0.7l0.3,0.2l-0.4,0.7l0.3,0.2
						l0.5-0.8l0.3,0.2l-0.7,1.2l-1.6-1L161.1,133.9z M162.7,132.6c0.2,0.1,0.4,0.4,0.3,0.6l0.8-0.1l-0.3,0.4l-0.7,0.1l-0.1,0.2
						l0.5,0.3l-0.2,0.4l-1.6-1l0.4-0.6c0.1-0.2,0.3-0.4,0.4-0.5C162.3,132.4,162.5,132.5,162.7,132.6L162.7,132.6z M162.6,133.1
						c0-0.1-0.1-0.1-0.2-0.2c-0.1,0-0.2,0-0.2,0c-0.1,0.1-0.1,0.1-0.2,0.2l-0.2,0.3l0.5,0.3l0.2-0.3
						C162.6,133.4,162.6,133.3,162.6,133.1L162.6,133.1z"/>
				</g>
			</g>
		</g>
		<path class="st0" d="M182.3,88.4l-11.1-6.6c-9.6,15.1-52.4,87.2-64.5,107.6l0.4,2.8c2.7,2.2,5.6,4.2,8.6,6.1
			c2.9,1.7,5.9,3.2,9,4.5"/>
		<path class="st0" d="M129.8,197.5c14.6-24.6,52.9-89.3,61-104l-8.5-5.1"/>
		<path class="st1" d="M79.2,258.9c-0.5,5.6-2.6,6.6-2.6,12.3s-2.6,7.1-4.6,11.2s-2,10.2-3.6,16.4s-5.6,20.5-4.1,26.1
			s4.5,23.7,7.2,23.9s4.8,1.9,7.2,1.9s4.1-3.1,5.3,0.7s2.4,4.8,6.2,5.8s4.1,1.7,9.9,3.1c3.3,0.9,6.8,0.4,9.6-1.4"/>
		<path class="st1" d="M100.7,352.9c3.4,1.9,8,7,11.6,8.7s7.9-0.7,11.1,1.2s10.1,5.3,11.8,5"/>
		<path class="st1" d="M131,363.5c1.7,1.2,4.6,5.8,8.9,6.5s8.2,0.7,10.1,2.4s8.2,5.3,10.8,5c1.7-0.3,3.1-1.4,3.8-2.9"/>
		<path class="st1" d="M61,273.6c0.8,3.7,5.6,10.4,4.8,12.6s-1.6,5.4-0.3,5.9s3,6.8,3,6.8"/>
		<path class="st1" d="M58.6,283.2c1.3,6.4,0.5,23-0.8,29.7s3.8,18.7,3.8,18.7"/>
		<path class="st1" d="M28.3,202.9c9.1,0.8,13.6,1.3,19,2.1s15-3.5,18.7-1.6c2.8,1.5,5.5,3.3,8,5.4"/>
		<path class="st1" d="M27.5,220.3c5.4,1.9,12.9,4,15.2,4s8.3,4,10.7,5.1s4.8-1.1,8.3,1.9c3.5,3,16.9,2.4,19.3,4"/>
		<path class="st1" d="M35.8,226.5c5.6,2.4,13.9,6.4,15.5,8s7.5,7,7.5,8.3"/>
		<path class="st1" d="M59.1,237.5c2.7,2.6,5.9,4.5,9.4,5.6c2.7,1.1,6.7,6.4,9.1,9.1l2.4,2.7"/>
		<path class="st0" d="M159.7,371.5c5,3,11,5.1,16.9,7.5s16.3,7.2,22.2,8s17.9,3.2,22.2,3.8s23.6,2.1,27,2.1s15.2-2.1,20.9-3.8
			s31.3-7.5,36.1-8s18.2-3.2,21.7-4s15-6.4,18.5-7.8s17.9-6.1,20.3-7s7-7.5,9.4-10.2s5.9-6.4,7.2-8.6s7.2-11,10.2-14.5
			s7.8-9.4,9.1-13.1s5.4-10.2,7-12.3c1-1.2,1.5-2.7,1.6-4.3c0,0,2.7-1.9,2.4-3.5c0.5-1.1,0.4-2.4-0.3-3.5c0,0,0.8-0.5,0.5-2.4
			s-0.3-6.7,1.1-8.8s2.4-12.6,2.1-13.9s-0.5-10.7-0.5-10.7s1.3-5.1,0.5-7.2s-0.3-6.9-2.1-8.6c0,0,0.3-6.4-1.9-11.2s-4.5-6.4-4.5-6.4
			l-2.1,1.3c0,0-1.9-3.5-5.6-0.8s-6.1,14.4-6.4,15.5s0.5,7.8,0.5,7.8"/>
		<path class="st1" d="M405.1,224.6c0,0-1.9,6.1,1.1,8.8c2,1.9,3.9,4,5.6,6.1"/>
		<path class="st6" d="M362.8,200.8c1.3-2.1,4.5-9.1,12-6.2c4.3-1.3,8.6,3.5,8.6,4.8s-0.3,12-0.3,12s4,5.4,3.8,8.8
			c-0.1,2.6,0,5.2,0.3,7.8c0,0,1.6,3.7,1.3,4.5c1.1,1.1,6.2,11.8,5.6,17.4s2.1,9.4,2.4,11.5s1.9,5.6,0.8,7.5
			c1.6,3.2,1.3,5.1-0.3,5.4c-0.3,2.2-1.6,4.1-3.5,5.1c-0.7,3.1-2.1,6-4,8.6c-1.6,2.1-3.5,11.5-4.8,13.1s-7.5,11.5-8.3,15.3
			c-0.5,2.9-0.9,5.9-1.1,8.8"/>
		<path class="st1" d="M404.3,286.2c1.6,0.5,5.6,0.8,5.9,2.7c0.3,1.4,1,2.7,1.9,3.8"/>
		<path class="st1" d="M406.2,290.5c1.2,1.7,2.7,3.2,4.3,4.5l1.9,1.1"/>
		<path class="st1" d="M403.5,293.9c1.6,3.2,3.7,6.1,6.4,5.6"/>
		<path class="st1" d="M414.8,255.7c0,0,0.3-4.6-2.7-4.6s-8.6-1.9-8.6-1.9"/>
		<path class="st1" d="M402.2,252.4c2.1-0.3,4.3,1.1,5.1,1.6s4-0.3,4-0.3"/>
		<path class="st1" d="M374.9,194.6c0,0-1.9,4.3,0,7.5s4,6.7,4,6.7l4.3,2.7"/>
		<path class="st1" d="M378.1,223.3l-4,4l9.4,3.8"/>
		<path class="st1" d="M378.9,227.6c2.7,0.8,9.6,5.1,9.6,5.1"/>
		<path class="st1" d="M397.4,269c0,0-0.5,0.5-1.9,0s-3.5-4.5-4.3-4.8s-3.8-1.1-3.8-1.1"/>
		<path class="st1" d="M387.2,261.5c3.2-0.3,5.9-1.1,6.7,0.3s2.4,5.1,2.4,5.1"/>
		<path class="st1" d="M387.5,266.4c1.6,0.5,5.4,4,5.4,4l4.3,4"/>
		<path class="st1" d="M380.5,262.9c1.2,1.3,2.4,2.6,3.5,4c0.9,1,2,1.7,3.2,2.1"/>
		<line class="st3" x1="393.6" y1="279.5" x2="392" y2="277.3"/>
		<path class="st1" d="M380.5,267.4c0,0,2.1,2.4,2.7,3.2s2.1,2.7,2.9,2.7"/>
		<path class="st6" d="M336.6,252.7c0,0,3-7,5.4-8.3c-1.6-7.2-1.1-16.3,0.3-18.5s1.3-8.3,1.3-8.3s-1.6-6.2-0.8-8.3
			s-1.1-7.5,0.3-11.2s6.4-10.7,13.4-8.3c3.2,0,5.6,2.9,6.1,4.8s0.8,9.9,0.8,9.9c1.6,0.5,2.4,6.7,1.6,9.4c-0.5,1.5-0.5,3.1,0,4.6
			c0.1,1.6,0.1,3.2-0.3,4.8c-0.5,1.9,0.8,6.7,0.8,8s1.3,14.2,1.3,14.2s2.1,2.9-0.3,5.1c2.1,4.6,0,7.2,0,7.2s-2.7,15.2-4.3,17.9
			s-5.1,17.9-4.8,20.6"/>
		<path class="st0" d="M362.3,275.7c0,0,4.5-7.2,7.5-8.6c-1.6-5.9-2.7-10.7-2.7-10.7"/>
		<path class="st1" d="M351.6,244.4c1.3,0,6.7,0,8.3,2.9s6.7,3.2,6.7,3.2"/>
		<path class="st1" d="M354.8,239.1c3.5-0.5,9.9,4.3,9.9,4.3l2.1,2.1"/>
		<path class="st1" d="M352.9,249.5c0,0,8.8,2.9,10.7,5.1"/>
		<path class="st1" d="M346.2,248.2c0.5,1.9,3.8,5.4,6.7,5.1"/>
		<path class="st1" d="M356.4,189.8l-2.7,2.9c0,0,1.6,7.2,3.8,8.8c1.8,1.2,3.8,2.2,5.9,3"/>
		<path class="st3" d="M344.4,274.7c-0.3-0.8-3.8-11.8-4.3-13.6s-2.4-7.8-2.9-9.6s-1.6-4-1.6-5.4s-0.3-3.7-1.3-4.5s-4.3-2.4-3.8-5.4
			c-0.4-3.3-1.2-6.5-2.4-9.6l-3.7-8c0,0-1.3-8.3-3-9.9s-5.6-1.9-6.1-0.8c-5.9,0.5-9.4,7-8.6,12.3c0.7,3.9,1.9,7.8,3.5,11.5
			c0,0-2.7,11.5,2.7,16.1c-2.7,2.8-3.8,6.9-3,10.7c-6.1,1.1-9.1,4-9.1,4l-4.3,3.7c-3.8,0-7.3,1.9-9.4,5.1c-6.7,0.5-8.8,3.5-10.2,5.1
			c-1.4,1.7-2.7,3.4-3.8,5.4c-0.3,0.8-3.8,4-3.8,5.1s-0.3,3.5-0.3,3.5"/>
		<path class="st3" d="M269.2,285.6c0,0-4.8,1.3-5.6,2.4s-5.4,8.8-5.4,8.8s-4.6,0.5-4.8,3.5"/>
		<path class="st3" d="M254.7,298.2c0,0-6.7-1.1-8.6,0.5s-5.6,7.8-5.6,7.8l0.8,5.1c0,0,7.8,10.4,9.1,13.9s4,8.6,4.3,9.4"/>
		<path class="st1" d="M266.5,295.3c0.5,4,2.4,7.2,6.2,11.5"/>
		<path class="st1" d="M258.2,296.9c0,1.6,1.6,8.6,4.8,11.5s6.2,6.1,6.2,6.1"/>
		<path class="st1" d="M252.3,302.5c0,0,0.3,9.1,2.7,11"/>
		<line class="st3" x1="240.8" y1="307.8" x2="232.5" y2="310"/>
		<path class="st1" d="M180.1,284.8c2.9,0.8,11,5.9,13.1,7.2s16.9,5.9,20.1,8.6s8.8,3.5,13.4,12.6"/>
		<path class="st3" d="M221.3,305.4c4,0.3,11.8,2.1,13.4,8.6s5.1,17.7,8.6,20.6"/>
		<path class="st1" d="M336.2,274.7c-0.4,2.6-8.8,9.4-13.4,11.6"/>
		<path class="st1" d="M359.9,212.6c1.1,1.1,1.8,2.6,2.1,4.1c0.5,1.6,2.1,2.1,2.3,3.1"/>
		<path class="st1" d="M355.4,215.6c0.7-0.1,2.3,0.5,3.6,1.2s4.3,4.9,4.3,4.9"/>
		<path class="st1" d="M356.8,219.7c0.4,0,3.6,0.9,4.5,2.3c0.8,1.1,1.6,2.3,2.3,3.5"/>
		<path class="st1" d="M357,243.9c0,0,3.6-0.9,5,0.3s3.2,3.2,3.2,3.2"/>
		<path class="st1" d="M310.3,257.5c1.2-0.7,1.8-3,6.4-0.5"/>
		<path class="st1" d="M307.5,258.9c3.9,1,6.5,2.4,6.6,4"/>
		<path class="st1" d="M312.8,247.6c0.7-2.4,5.1-4.2,7.8-4"/>
		<path class="st3" d="M315.2,207.8c-0.9,1.2-3.5,5.1,1.4,8s6.7,2.3,6.7,2.3"/>
		<path class="st0" d="M169.6,177.8c-2.4,0-9.4,3.5-9.1,7c-5.4,0.3-10.2,2.9-10.7,5.4c-4.6,0.8-9.1,1.3-13.6,3.8s-8.3,4.3-9.9,7.2
			s-8.6,5.4-11.5,9.1s-7.2,13.4-4.3,17.1l2.9,3.8"/>
		<path class="st1" d="M114.8,231.6c-2.1-5.1-1.3-7.2,1.6-10.2s11.5-4.6,11.5-4.6"/>
		<path class="st0" d="M84,239.3c0,0,2.9,3.7,7.2,2.4s8.6-7,9.1-17.7s-2.4-19.8-4.6-22.8c5.1-5.1,5.9-19.3,4.3-24.1
			c0.8-1.6-1.1-1.1-1.1-1.1s5.9-2.1,9.9-4c4-2,7.6-4.9,10.3-8.4c2.3-3.1,3.1-4.6,3.3-6.8"/>
		<path class="st3" d="M80.2,221.1l3.5,4.3L85,230l1.3,5.9c0,0,0.5,2.1-2.4,3.5"/>
		<path class="st1" d="M162.9,220.9c0,0,4.6,2.4,6.4,4.6s3.5,2.4,5.6,3.5s3.2,4.3,5.4,5.6s5.4,1.9,7.8,2.9c1.4,0.6,2.8,1.4,4,2.4
			c-0.5,2.4-1.2,4.7-2.1,7c-1.1,2.1-2.1,4.3-1.6,6.1s0,7.5-1.3,8.6s-0.5,12.3-3.5,17.7s-6.7,12.6-7,16.3c-0.4,4-1.6,7.9-3.4,11.4
			c-1.9,4-5.4,19-6.2,21.7s-3.5,13.6-3.2,15.2s-5.6,17.7-5.9,21.1s-1.1,7.8,0.5,9.6"/>
	</g>
</g>
</svg>
