<?xml version="1.0" encoding="utf-8"?>
<!-- Generator: Adobe Illustrator 25.2.0, SVG Export Plug-In . SVG Version: 6.00 Build 0)  -->
<svg version="1.1" id="Layer_3" xmlns="http://www.w3.org/2000/svg" xmlns:xlink="http://www.w3.org/1999/xlink" x="0px" y="0px"
	 viewBox="0 0 600 600" style="enable-background:new 0 0 600 600;" xml:space="preserve">
<style type="text/css">
	*{vector-effect:non-scaling-stroke}
	.st0{fill:none;stroke:#000000;stroke-width:1.5;stroke-miterlimit:10;}
	.st1{fill:none;stroke:#000000;stroke-width:0.5;stroke-miterlimit:10;}
</style>
<path class="st0" d="M42.9,193c22.8-21.3,49.1-23.5,86.1-15.6c37,7.8,403.2,106.7,428.1,114.5c24.9,7.8,38.4,35.6,27.7,54.1
	c7.1,11.9,5.3,21.6-1.4,31.3c5,8.5,2.8,17.8,0.7,21.3c7.1,8.5-2.8,19.2-2.8,19.2c1.4,10.7-0.7,19.2-14.2,29.9s-46.2,19.9-90.3,8.5
	C432.7,444.7,69.3,344.5,52.9,338.8S29.4,312.5,28,300.4c-3.8-6-3-12.8,0.1-17.7c-3.4-9.1-1.8-16.6,3.4-22.8
	c-3.6-7.1-4.3-17.1,1.4-24.9C29.4,222.8,27.7,207.3,42.9,193z"/>
<path class="st0" d="M70.7,176.6c-5.7-19.2-38.5-44.1-56.2-14.2c-11.4,19.2-3.6,61.2,18.5,72.5"/>
<path class="st0" d="M30.6,215.5c-13.5-21.3-7.6-51.7,5.2-56s23.3,11.4,23.3,11.4s-5.1,4.5-1.6,10.9"/>
<path class="st0" d="M59.1,170.9c0,0,2.6,3,4.4,7.8"/>
<path class="st1" d="M41.5,158.8c-23.5-8.5-38.4,35.6-10.7,66.9"/>
<path class="st1" d="M33,234.9c7.1,12.1,24.2,17.1,54.8,24.9S454,360.8,491,370.1c37,9.2,88.2,0,93.9-24.2"/>
<path class="st1" d="M31.6,228.1c7.1,12.1,25.6,18.9,56.2,26.8c30.6,7.8,366.3,101,403.2,110.2c37,9.2,86.1-0.7,93.9-19.2"/>
<path class="st1" d="M572.6,357.2c0-20-10.3-27.3-29.8-32.8l13.4-13.4c21.3,6.7,30.4,17,30.4,29.8"/>
<path class="st1" d="M31.6,259.8c10.7,14.7,19.2,15.3,86,32.4c72.3,24.9,221.1,67.4,246.6,75.9c25.5,8.5,51.6,17,83.8,13.4
	c23.1,1.8,23.1,1.8,23.1,1.8l14-13.4"/>
<path class="st1" d="M448.1,381.5c0,0,43.7,18.2,71.7,17.6c32.2-0.7,50.3-7.4,63.7-21.9"/>
<path class="st1" d="M30.8,239.5c-2.4,10.3-4.8,28.5,52.3,38.9"/>
<path class="st1" d="M83,283.1v-12.8c0,0,283.7,89.9,306.1,96c22.5,6.1,51.6,4.3,51.6,4.3l30.6,5.5l-0.3,7.3
	c55.9,17,84.4,7.9,103.3-4.3c18.8-12.1,13.4-28.5,13.4-28.5"/>
<path class="st1" d="M426.8,353.5c-6.1,9.7-15.6,11.8-43,3.8c-26.5-7.8-83.2-25-83.2-25l-7.5-6.5l-37.6-0.2"/>
<path class="st1" d="M83,270.3l-0.1-11.5l176.9,57.7l33.4,0.6l7.3,6.7c0,0,68,22.5,85,26.1c17,3.6,28.5,8.5,35.2,1.8"/>
<line class="st1" x1="300.5" y1="323.8" x2="300.6" y2="332.3"/>
<line class="st1" x1="293.2" y1="317.1" x2="293.1" y2="325.8"/>
<path class="st1" d="M494.9,371.2v13.2c16.9,6.3,34.9,10.6,55.5-5.8v-9"/>
<path class="st1" d="M496,374.9c0,0,9.5,5.3,25.4,5.3s25.4-9.5,25.4-9.5"/>
<path class="st1" d="M584.2,398.5c-5.2,12.3-45.4,35.6-102.4,20.3s-77.7-23.2-133.7-34.9c-56-11.6-189.1-34.9-225.1-67.1"/>
<path class="st1" d="M93.9,286.2c18,38.6,51.2,38.6,121.5,55.5c70.3,16.9,252.5,59.2,252.5,59.2"/>
<path class="st1" d="M586.4,390.2c-1,13.3-40.7,48.1-144.2,13.7"/>
<path class="st1" d="M468.5,389.2l-1.1,21.1c0,0-53.9-13.7-107.8-23.8"/>
<polyline class="st1" points="45.3,245.5 45,262.2 82.8,267.9 "/>
<path class="st1" d="M28.2,282.6c6.2,14.7,27.7,25.2,99.2,38.2"/>
<path class="st1" d="M26.5,274.6c2.4,13.2,21.5,26,92.3,39.5"/>
<path class="st1" d="M40.2,269.2c0,0,0,4.6,0,10.5c0,5.9,6.2,14.3,28.9,11.9s25.7-3.2,25.7-3.2"/>
<path class="st1" d="M39.9,273.3c5.4,8.9,14.6,9.2,35.1,8.4"/>
<path class="st1" d="M80.8,311.5v5.9c0,0,204.3,68.9,254,83.2c49.7,14.3,89.1,30,152.6,24.6v-4.9"/>
<path class="st1" d="M581.3,417.7c-13.2,14.4-48.6,32.6-128.4,8.4"/>
<path class="st1" d="M586.4,405.5c-3,10.8-32.5,40.4-116.2,20.7"/>
<path class="st1" d="M140.9,323.8c54.2,29.5,216.6,52.2,216.6,52.2"/>
<path class="st1" d="M98.5,286.8c31,28.1,61,33.5,127.5,48.2c66.5,14.8,124.1,29,124.1,29"/>
<line class="st1" x1="471.4" y1="376" x2="481" y2="367.6"/>
<line class="st1" x1="259.8" y1="316.5" x2="259.5" y2="325.7"/>
<path class="st1" d="M242.8,362.2c0,0,107.8,35,145.7,45.8c37.9,10.8,58.5,13.3,93.3,10.8"/>
<path class="st1" d="M28,300.4c6,10.6,27.7,20.4,130.1,42.6"/>
<path class="st1" d="M25.2,289.3c0.5,12.3,21.2,20.7,65,31.5"/>
<path class="st1" d="M467.5,410.3l5.2-6.8c0,0,18.2,5.4,34,9.4s23.1-1.5,28.1-14.3"/>
<line class="st1" x1="472.7" y1="403.5" x2="472.7" y2="390.2"/>
<path class="st1" d="M472.7,396.1c0,0,23.1,5.9,35.4,9.4c12.3,3.4,19.2-0.5,23.1-6.9"/>
<path class="st1" d="M132.3,197.4l-2.3,2l-10.4-2.8l0,0c-3.4-0.9-7.7-0.4-9.7,1.3c-1.9,1.6-0.7,3.8,2.6,4.7l2.1,0.6l-2.3,2l-2.1-0.6
	l0,0l0,0l0,0c-3.4-0.9-7.7-0.4-9.7,1.3c-1.9,1.6-0.7,3.8,2.8,4.7l0,0l2.1,0.6l-2.3,2l-20.3-5.6l2.3-2l10.4,2.8
	c-0.4-1.2,0.1-2.5,1.4-3.6c1.9-1.6,5.1-2.7,8.8-2.9c-1.4-1.6-1.4-3.5,0.5-5.2c3.2-2.8,10.4-3.8,16.1-2.2l0,0L132.3,197.4z
	 M107.5,190.6l-5.8,5.1l0,0c-1.6,1.4-4.1,2.3-7,2.7l-1.3-2.3c1.7-0.3,3.1-0.8,4.1-1.6l5.8-5.1L107.5,190.6z M76.7,194.1
	c9.5-8.4,31.1-11.3,48.2-6.7s23.2,15.2,13.7,23.6c-9.5,8.4-31.1,11.3-48.2,6.7S67.1,202.4,76.7,194.1 M72.5,192.9
	c-10.7,9.4-3.9,21.5,15.5,26.8c19.3,5.3,43.8,1.9,54.6-7.6c10.7-9.4,3.9-21.5-15.5-26.8C107.8,180.1,83.3,183.5,72.5,192.9
	L72.5,192.9z"/>
</svg>
