<svg xmlns="http://www.w3.org/2000/svg" viewBox="0 0 249.88 397.05"><defs><style>*{vector-effect:non-scaling-stroke}.cls-1,.cls-4{fill:none;}.cls-1,.cls-2,.cls-4{stroke:#000000;stroke-linecap:round;stroke-linejoin:round;stroke-width:1.5px;}.cls-1,.cls-2{stroke-width:0.5px;}.cls-2{fill:#fff;}.cls-3{fill:#000000;}</style></defs><g id="Layer_2" data-name="Layer 2"><g id="Layer_1-2" data-name="Layer 1"><path class="cls-1" d="M114.36,185.12l2.33,209.76L132,396l-.92-209.66Zm12.19,206.33a2.64,2.64,0,0,1-2.5-2.47,2.16,2.16,0,0,1,2.47-2.1,2.63,2.63,0,0,1,2.49,2.47A2.16,2.16,0,0,1,126.55,391.45Zm0-7.51a2.66,2.66,0,0,1-2.51-2.49,2.18,2.18,0,0,1,2.47-2.12,2.66,2.66,0,0,1,2.51,2.49A2.18,2.18,0,0,1,126.5,383.94Zm-.06-7.57a2.66,2.66,0,0,1-2.51-2.5,2.19,2.19,0,0,1,2.48-2.14,2.68,2.68,0,0,1,2.52,2.51A2.2,2.2,0,0,1,126.44,376.37Zm0-7.62a2.68,2.68,0,0,1-2.52-2.52,2.21,2.21,0,0,1,2.49-2.15,2.68,2.68,0,0,1,2.52,2.53A2.19,2.19,0,0,1,126.39,368.75Zm0-7.66a2.7,2.7,0,0,1-2.53-2.54,2.22,2.22,0,0,1,2.5-2.17,2.71,2.71,0,0,1,2.53,2.55A2.22,2.22,0,0,1,126.34,361.09Zm0-7.72a2.72,2.72,0,0,1-2.54-2.55,2.23,2.23,0,0,1,2.5-2.19,2.7,2.7,0,0,1,2.54,2.56A2.22,2.22,0,0,1,126.29,353.37Zm-.05-7.77a2.73,2.73,0,0,1-2.55-2.57,2.23,2.23,0,0,1,2.51-2.2,2.72,2.72,0,0,1,2.55,2.57A2.24,2.24,0,0,1,126.24,345.6Zm-.06-7.83a2.74,2.74,0,0,1-2.56-2.58,2.24,2.24,0,0,1,2.53-2.21,2.72,2.72,0,0,1,2.56,2.59A2.24,2.24,0,0,1,126.18,337.77Zm-.05-7.87a2.75,2.75,0,0,1-2.57-2.6,2.26,2.26,0,0,1,2.54-2.23,2.73,2.73,0,0,1,2.56,2.61A2.25,2.25,0,0,1,126.13,329.9Zm-.06-7.93a2.76,2.76,0,0,1-2.57-2.62,2.27,2.27,0,0,1,2.54-2.24,2.75,2.75,0,0,1,2.58,2.62A2.27,2.27,0,0,1,126.07,322Zm0-8a2.77,2.77,0,0,1-2.58-2.64,2.28,2.28,0,0,1,2.55-2.26,2.77,2.77,0,0,1,2.58,2.64A2.28,2.28,0,0,1,126,314Zm0-8a2.79,2.79,0,0,1-2.6-2.65,2.3,2.3,0,0,1,2.56-2.28,2.79,2.79,0,0,1,2.6,2.66A2.3,2.3,0,0,1,126,306Zm-.06-8.09a2.8,2.8,0,0,1-2.6-2.67,2.3,2.3,0,0,1,2.57-2.29,2.79,2.79,0,0,1,2.6,2.67A2.31,2.31,0,0,1,125.91,297.86Zm0-8.15a2.81,2.81,0,0,1-2.61-2.69,2.3,2.3,0,0,1,2.57-2.3,2.79,2.79,0,0,1,2.61,2.69A2.3,2.3,0,0,1,125.86,289.71Zm-.06-8.2a2.84,2.84,0,0,1-2.62-2.71,2.32,2.32,0,0,1,2.59-2.32,2.82,2.82,0,0,1,2.62,2.71A2.33,2.33,0,0,1,125.8,281.51Zm-.06-8.26a2.85,2.85,0,0,1-2.62-2.73,2.33,2.33,0,0,1,2.59-2.34,2.84,2.84,0,0,1,2.63,2.73A2.34,2.34,0,0,1,125.74,273.25Zm0-8.32a2.85,2.85,0,0,1-2.64-2.74,2.35,2.35,0,0,1,2.6-2.36,2.86,2.86,0,0,1,2.64,2.75A2.34,2.34,0,0,1,125.69,264.93Z"/><path class="cls-1" d="M114.36,185.12l2.33,209.76-7.18-.54-3-209.81Zm16.73,1.24L132,396l7.19.53L138.94,187Z"/><path class="cls-1" d="M249.27,144.14c-2.9,68.17-58.11,116.85-123.47,112S4.52,194.3.71,125.63C-3.32,53.05,51.83-4.53,124.09.85S252.32,72.08,249.27,144.14Z"/><polygon class="cls-1" points="117.43 185.35 119.5 395.09 116.69 394.88 114.36 185.12 117.43 185.35"/><path class="cls-2" d="M114.77.5C47.15.5-3.14,56.2.71,125.63,4.52,194.3,60.44,251.25,125.8,256.12q4.53.35,9,.34c61.36,0,111.73-47.3,114.49-112.32C252.32,72.08,196.35,6.23,124.09.85Q119.38.51,114.77.5Z"/><path class="cls-3" d="M185.28,176.79l-1.21,12.59a18,18,0,0,1-26.57-3.55,18.16,18.16,0,0,1-26.6-4.05c-11.38,9.32-37,5.13-39.58-19.37-2-18.81-4.33-55-5.91-67.19-1.79-13.84-8.34-23.59-20-25.64,2-3,5.89-4.49,11.63-3.57C89.13,67.94,96.15,79.87,97.51,97.5c1.07,13.69,3.86,46.91,5.64,62.12,1.12,9.59,13.74,20.08,28.95,8.94,7.49,9.7,15.42,11.86,26.71,4C166.25,183,175.38,183.21,185.28,176.79ZM138,156.22c.81,17.32,11.5,19,20.74,10.76,6.21,9.83,19.2,13.14,27.1,4L187,159.19c-10,6.57-19.3,6.27-26.83-4.46-6,7.49-12,10.37-12.75-2.65-.53-9.61-2.68-41.48-3.08-48.6-.59-10.53-2.72-19.59-8.95-21.16-2.62-.66-5,.66-7.07,3.61,4.78-.35,5.07,5.21,6.59,18.7C135.6,110.87,137.17,138.41,138,156.22ZM113.14,95c-1-12-4.59-20.11-12-22-2.68-.68-5.07.66-7.11,3.66,4.87-.34,5.31,5.34,7.22,19.1.89,6.37,3.24,33.19,4.56,51.39,1.28,17.67,6.87,20,13.53,20C118.23,157.68,113.72,102.2,113.14,95Zm19.73,58.72c-1.21-19.66-3.32-48.85-3.69-54.42-.84-12.34-3.67-20.91-10.84-22.72-2.66-.68-5,.65-7.1,3.63,4.83-.34,6,5.25,6.91,18.93l5.62,67C129,165.66,133.22,159.27,132.87,153.67Z"/><path class="cls-2" d="M226.62,96.83a124.47,124.47,0,0,0-23.05-39.21C182.67,33.49,154.37,19,123.9,16.68c-2.72-.2-5.46-.3-8.16-.3C88,16.38,62.5,27.18,44,46.79,24.39,67.46,14.54,95.48,16.22,125.7A122.84,122.84,0,0,0,50.89,204c20.59,21.31,47.26,34.19,75.09,36.27,2.62.19,5.26.29,7.86.29,54.58,0,97.53-42.17,99.9-98.1A118.4,118.4,0,0,0,226.62,96.83ZM41.43,125c-1.29-23.21,6.17-44.64,21-60.33C76.36,50,95.56,41.88,116.49,41.88c2.08,0,4.19.08,6.28.24a88.93,88.93,0,0,1,48.6,19.16l-106.48,121A96.05,96.05,0,0,1,41.43,125Zm167.09,15.63c-1.8,42.43-34.22,74.43-75.41,74.43-2,0-4-.08-6-.23-17.74-1.32-34.92-8.38-49.43-20.13L184.3,73.57c.16.18.33.35.49.54A98.16,98.16,0,0,1,203,105,92.41,92.41,0,0,1,208.52,140.65Z"/><path class="cls-1" d="M129.76,34.54a5.12,5.12,0,0,1-5.41,5.38,6.22,6.22,0,0,1-5.49-6.19,5.12,5.12,0,0,1,5.41-5.41A6.22,6.22,0,0,1,129.76,34.54Z"/><path class="cls-1" d="M130.66,228.6a4.55,4.55,0,0,1-5,4.6,5.54,5.54,0,0,1-5.08-5.35,4.55,4.55,0,0,1,5-4.61A5.53,5.53,0,0,1,130.66,228.6Z"/><path class="cls-4" d="M114.77.5C47.15.5-3.14,56.2.71,125.63,4.52,194.3,60.44,251.25,125.8,256.12q4.53.35,9,.34c61.36,0,111.73-47.3,114.49-112.32C252.32,72.08,196.35,6.23,124.09.85Q119.38.51,114.77.5Z"/><polyline class="cls-4" points="107.49 253.16 109.51 394.34 116.69 394.88 132.01 396.02 139.19 396.55 139.02 256.46"/></g></g></svg>