<?xml version="1.0" encoding="utf-8"?>
<!-- Generator: Adobe Illustrator 25.2.0, SVG Export Plug-In . SVG Version: 6.00 Build 0)  -->
<svg version="1.1" id="Layer_1" xmlns="http://www.w3.org/2000/svg" xmlns:xlink="http://www.w3.org/1999/xlink" x="0px" y="0px"
	 viewBox="0 0 600 600" style="enable-background:new 0 0 600 600;" xml:space="preserve">
<style type="text/css">
	*{vector-effect:non-scaling-stroke}
	.st0{fill:none;stroke:#000000;stroke-width:0.5;stroke-linecap:round;stroke-linejoin:round;}
	.st1{fill:#FFFFFF;stroke:#000000;stroke-width:0.5;stroke-linecap:round;stroke-linejoin:round;}
	.st2{fill:none;stroke:#000000;stroke-width:1.5;stroke-linecap:round;stroke-linejoin:round;}
</style>
<g id="Layer_2_1_">
	<g id="Layer_1-2">
		<path class="st0" d="M284.3,280.1l3.5,310.6l22.7,1.7L309.1,282L284.3,280.1z M302.4,585.7c-2-0.1-3.6-1.7-3.7-3.7
			c0-1.8,1.5-3.2,3.3-3.1c0.1,0,0.3,0,0.4,0c2,0.1,3.6,1.7,3.7,3.7c0,1.8-1.5,3.2-3.3,3.1C302.6,585.7,302.5,585.7,302.4,585.7z
			 M302.4,574.6c-2-0.1-3.6-1.7-3.7-3.7c0-1.8,1.5-3.2,3.3-3.2c0.1,0,0.2,0,0.4,0c2,0.1,3.6,1.7,3.7,3.7c0,1.8-1.5,3.2-3.3,3.2
			C302.6,574.6,302.4,574.6,302.4,574.6L302.4,574.6z M302.3,563.4c-2-0.1-3.6-1.7-3.7-3.7c0-1.8,1.5-3.2,3.3-3.2c0.1,0,0.3,0,0.4,0
			c2,0.1,3.6,1.7,3.7,3.7c0,1.8-1.5,3.2-3.3,3.2C302.5,563.4,302.3,563.4,302.3,563.4L302.3,563.4z M302.3,552.1
			c-2-0.1-3.6-1.7-3.7-3.7c0-1.8,1.5-3.2,3.3-3.2c0.1,0,0.2,0,0.4,0c2,0.1,3.6,1.7,3.7,3.7c0,1.8-1.5,3.2-3.3,3.2
			c-0.2,0-0.4,0-0.6-0.1H302.3z M302.3,540.7c-2-0.1-3.6-1.7-3.7-3.8c0-1.8,1.5-3.3,3.3-3.2c0.1,0,0.2,0,0.4,0
			c2,0.1,3.6,1.8,3.7,3.8c0,1.8-1.5,3.3-3.3,3.3c-0.2,0-0.4,0-0.6-0.1H302.3z M302.3,529.3c-2-0.1-3.6-1.7-3.8-3.8
			c0-1.8,1.5-3.3,3.3-3.3c0.1,0,0.2,0,0.4,0c2,0.1,3.7,1.8,3.8,3.8c0,1.8-1.5,3.3-3.3,3.3c-0.2,0-0.5,0-0.7-0.1H302.3z M302.2,517.8
			c-2-0.1-3.7-1.8-3.8-3.8c0-1.8,1.5-3.3,3.3-3.3c0.1,0,0.3,0,0.4,0c2,0.1,3.7,1.8,3.8,3.8c0,1.8-1.5,3.3-3.3,3.3
			c-0.2,0-0.5,0-0.7-0.1H302.2z M302.1,506.2c-2-0.1-3.7-1.8-3.8-3.8c0-1.8,1.5-3.3,3.3-3.3c0.1,0,0.3,0,0.4,0
			c2.1,0.1,3.7,1.8,3.8,3.8c0,1.8-1.5,3.3-3.3,3.3c-0.3,0-0.5,0-0.7-0.1L302.1,506.2z M302,494.5c-2.1-0.1-3.7-1.8-3.8-3.9
			c0-1.8,1.5-3.3,3.4-3.3c0.1,0,0.3,0,0.4,0c2.1,0.1,3.7,1.8,3.8,3.9c0,1.8-1.5,3.3-3.3,3.4c-0.2,0-0.5,0-0.7-0.1L302,494.5z
			 M301.9,482.8c-2.1-0.1-3.7-1.8-3.8-3.9c0-1.9,1.5-3.4,3.4-3.3c0.1,0,0.3,0,0.4,0c2.1,0.1,3.7,1.8,3.8,3.9c0,1.9-1.4,3.4-3.3,3.4
			c-0.3,0-0.5,0-0.8-0.1L301.9,482.8z M301.9,471c-2.1-0.1-3.7-1.8-3.8-3.9c0-1.9,1.5-3.4,3.4-3.4c0.1,0,0.3,0,0.4,0
			c2.1,0.1,3.7,1.8,3.8,3.9c0.1,1.9-1.4,3.4-3.3,3.5c-0.3,0-0.6,0-0.9-0.1L301.9,471z M301.9,459.1c-2.1-0.1-3.7-1.8-3.9-3.9
			c0-1.9,1.5-3.4,3.4-3.4c0.1,0,0.3,0,0.4,0c2.1,0.1,3.8,1.8,3.9,3.9c0.1,1.9-1.4,3.4-3.3,3.5c-0.3,0-0.6,0-0.9-0.1L301.9,459.1z
			 M301.9,447.1c-2.1-0.1-3.8-1.8-3.9-4c0-1.9,1.5-3.4,3.4-3.4c0.1,0,0.3,0,0.4,0c2.1,0.1,3.8,1.8,3.9,4c0,1.9-1.5,3.4-3.4,3.5
			c-0.3,0-0.6,0-0.9-0.1L301.9,447.1z M301.9,435.1c-2.1-0.1-3.8-1.9-3.9-4c0-1.9,1.5-3.4,3.4-3.4c0.1,0,0.3,0,0.4,0
			c2.1,0.1,3.8,1.9,3.9,4c0.1,1.9-1.4,3.4-3.3,3.5c-0.3,0-0.7,0-1-0.1L301.9,435.1z M301.8,422.9c-2.1-0.2-3.8-1.9-3.9-4
			c0-1.9,1.5-3.4,3.4-3.5c0.1,0,0.3,0,0.4,0c2.1,0.1,3.8,1.9,3.9,4c0,1.9-1.5,3.5-3.4,3.5c-0.3,0-0.7,0-1-0.1L301.8,422.9z
			 M301.7,410.7c-2.1-0.2-3.8-1.9-3.9-4c0-1.9,1.5-3.5,3.4-3.5c0.1,0,0.3,0,0.4,0c2.1,0.2,3.8,1.9,3.9,4c0,1.9-1.5,3.5-3.4,3.6
			c-0.3,0-0.7,0-1-0.1L301.7,410.7z M301.7,398.4c-2.1-0.2-3.8-1.9-3.9-4.1c0-1.9,1.5-3.5,3.4-3.5c0.1,0,0.3,0,0.4,0
			c2.1,0.2,3.8,1.9,3.9,4.1c0.1,1.9-1.4,3.5-3.3,3.6c-0.4,0-0.7,0-1.1-0.1L301.7,398.4z"/>
		<path class="st0" d="M284.3,280.1l3.5,310.6l-10.6-0.8l-4.4-310.7L284.3,280.1z M309.1,282l1.3,310.5l10.6,0.8l-0.4-310.3
			L309.1,282z"/>
		<path class="st0" d="M484.1,219.5c-4.3,101-86.1,173-182.8,165.9c-96.8-7.2-179.6-91.6-185.2-193.3C110,84.6,191.7-0.7,298.7,7.3
			S488.6,112.8,484.1,219.5z"/>
		<polygon class="st0" points="288.9,280.5 291.9,591.1 287.8,590.8 284.3,280.1 		"/>
		<path class="st1" d="M284.9,6.8C184.8,6.8,110.3,89.2,116,192.1c5.6,101.7,88.5,186,185.2,193.2c4.5,0.3,8.9,0.5,13.3,0.5
			c90.9,0,165.5-70,169.5-166.3c4.5-106.7-78.4-204.2-185.4-212.2C294.1,6.9,289.5,6.8,284.9,6.8z"/>
		<path d="M389.3,267.8l-1.8,18.6c-11.2,9.6-28,8.2-37.6-2.9c-0.6-0.7-1.2-1.5-1.8-2.3c-11.5,9.4-28.5,7.6-37.8-3.9
			c-0.6-0.7-1.1-1.4-1.6-2.1c-16.9,13.8-54.8,7.6-58.6-28.7c-3-27.9-6.4-81.4-8.8-99.5c-2.7-20.5-12.4-34.9-29.6-38
			c3-4.4,8.7-6.6,17.2-5.3c17.9,2.9,28.3,20.5,30.3,46.6c1.6,20.3,5.7,69.5,8.4,92c1.7,14.2,20.3,29.7,42.9,13.2
			c11.1,14.4,22.8,17.6,39.6,5.9C361.2,277,374.7,277.3,389.3,267.8z M319.3,237.4c1.2,25.6,17,28.1,30.7,15.9
			c9.2,14.6,28.4,19.5,40.1,5.9l1.7-17.5c-14.8,9.7-28.6,9.3-39.7-6.6c-8.9,11.1-17.8,15.4-18.9-3.9c-0.8-14.2-4-61.4-4.6-72
			c-0.9-15.6-4-29-13.3-31.3c-3.9-1-7.4,1-10.5,5.3c7.1-0.5,7.5,7.7,9.8,27.7C315.8,170.2,318.1,211,319.3,237.4z M282.5,146.7
			c-1.5-17.8-6.8-29.8-17.8-32.6c-4-1-7.5,1-10.5,5.4c7.2-0.5,7.9,7.9,10.7,28.3c1.3,9.4,4.8,49.2,6.8,76.1
			c1.9,26.2,10.2,29.6,20,29.6C290,239.5,283.4,157.4,282.5,146.7z M311.7,233.6c-1.8-29.1-4.9-72.3-5.5-80.6
			c-1.2-18.3-5.4-31-16.1-33.6c-3.9-1-7.4,1-10.5,5.4c7.2-0.5,8.9,7.8,10.2,28l8.3,99.2C306,251.3,312.2,241.9,311.7,233.6
			L311.7,233.6z"/>
		<path class="st1" d="M450.6,149.4c-7.7-21.3-19.3-41-34.1-58.1c-31-35.7-72.9-57.2-118-60.6c-4-0.3-8.1-0.4-12.1-0.4
			c-41.1,0-78.8,16-106.2,45c-29,30.6-43.6,72.1-41.1,116.9c2.7,43.6,20.9,84.7,51.3,116c30.5,31.6,70,50.6,111.2,53.7
			c3.9,0.3,7.8,0.4,11.6,0.4c80.8,0,144.4-62.4,147.9-145.3C462.1,194,458.5,171,450.6,149.4z M176.3,191.1
			c-1.9-34.4,9.1-66.1,31.1-89.3C228,80.1,256.5,68,287.5,68c3.1,0,6.2,0.1,9.3,0.4c26.3,2,51.4,11.9,72,28.4L211.1,275.9
			C190.4,252.3,178.2,222.5,176.3,191.1z M423.7,214.3c-2.7,62.8-50.7,110.2-111.7,110.2c-3,0-5.9-0.1-8.9-0.3
			c-26.3-2-51.7-12.4-73.2-29.8L387.9,115c0.2,0.3,0.5,0.5,0.7,0.8c11.7,13.5,20.9,29,27,45.7C421.7,178.4,424.5,196.3,423.7,214.3
			L423.7,214.3z"/>
		<path class="st0" d="M307.1,57.2c0.2,4.2-3,7.7-7.2,8c-0.3,0-0.6,0-0.8,0c-4.6-0.5-8.1-4.5-8.1-9.2c-0.2-4.2,2.9-7.8,7.1-8
			c0.3,0,0.6,0,0.9,0C303.6,48.5,307.1,52.5,307.1,57.2z"/>
		<path class="st0" d="M308.4,344.5c0.1,3.7-2.9,6.8-6.6,6.8c-0.3,0-0.5,0-0.8,0c-4.2-0.3-7.4-3.8-7.5-7.9c-0.1-3.7,2.9-6.8,6.6-6.9
			c0.3,0,0.5,0,0.8,0C305.1,336.9,308.3,340.4,308.4,344.5z"/>
		<path class="st2" d="M284.9,6.8C184.8,6.8,110.3,89.2,116,192.1c5.6,101.7,88.5,186,185.2,193.2c4.5,0.3,8.9,0.5,13.3,0.5
			c90.9,0,165.5-70,169.5-166.3c4.5-106.7-78.4-204.2-185.4-212.2C294.1,6.9,289.5,6.8,284.9,6.8z"/>
		<polyline class="st2" points="274.1,380.9 277.1,590 287.8,590.8 310.4,592.5 321.1,593.2 320.8,385.8 		"/>
	</g>
</g>
</svg>
