<?xml version="1.0" encoding="utf-8"?>
<!-- Generator: Adobe Illustrator 25.0.0, SVG Export Plug-In . SVG Version: 6.00 Build 0)  -->
<svg version="1.1" id="Layer_1" xmlns="http://www.w3.org/2000/svg" xmlns:xlink="http://www.w3.org/1999/xlink" x="0px" y="0px"
	 viewBox="0 0 36 36" style="enable-background:new 0 0 36 36;" xml:space="preserve">
<path d="M15.8,9.9c0-1.5,0.7-2.3,2.2-2.3s2.2,0.8,2.2,2.3c0,1.5-0.7,2.2-2.2,2.2S15.8,11.4,15.8,9.9 M22.3,14v6.5h-1.8v7.8h-5v-7.8
	h-1.8V14c0-0.3,0.1-0.5,0.3-0.7c0.2-0.2,0.4-0.3,0.7-0.3h6.6c0.3,0,0.5,0.1,0.7,0.3C22.2,13.5,22.3,13.7,22.3,14 M18,4.9
	c-3.6,0-6.7,1.3-9.2,3.8c-2.6,2.7-3.9,5.8-3.9,9.3c0,3.5,1.3,6.6,3.9,9.2s5.7,3.9,9.3,3.9c3.6,0,6.7-1.3,9.3-3.9
	c2.5-2.4,3.8-5.5,3.8-9.2c0-3.6-1.3-6.7-3.8-9.3S21.6,4.9,18,4.9 M18,2c4.5,0,8.3,1.5,11.4,4.6C32.4,9.7,34,13.5,34,18
	c0,4.5-1.5,8.2-4.6,11.2C26.2,32.4,22.4,34,18,34c-4.3,0-8.1-1.6-11.3-4.7C3.6,26.1,2,22.4,2,18c0-4.4,1.6-8.2,4.7-11.4
	C9.8,3.5,13.6,2,18,2"/>
</svg>
