<?xml version="1.0" encoding="utf-8"?>
<!-- Generator: Adobe Illustrator 25.0.0, SVG Export Plug-In . SVG Version: 6.00 Build 0)  -->
<svg version="1.1" id="Layer_1" xmlns="http://www.w3.org/2000/svg" xmlns:xlink="http://www.w3.org/1999/xlink" x="0px" y="0px"
	 viewBox="0 0 36 36" style="enable-background:new 0 0 36 36;" xml:space="preserve">
<path d="M27.1,15.3l-2.1,1.1c-0.2-0.5-0.5-0.8-0.8-1c-0.3-0.2-0.7-0.3-1-0.3c-1.4,0-2.1,0.9-2.1,2.8c0,0.9,0.2,1.5,0.5,2.1
	c0.4,0.5,0.9,0.8,1.6,0.8c0.9,0,1.6-0.5,2-1.4l2,1c-0.4,0.8-1,1.4-1.8,1.8c-0.7,0.4-1.6,0.7-2.4,0.7c-1.4,0-2.6-0.4-3.5-1.3
	c-0.9-0.9-1.3-2.1-1.3-3.7c0-1.5,0.4-2.7,1.3-3.6c0.9-0.9,2-1.3,3.4-1.3C24.8,13,26.2,13.8,27.1,15.3 M17.8,15.3l-2.1,1.1
	c-0.2-0.5-0.5-0.8-0.8-1c-0.3-0.2-0.6-0.3-0.9-0.3c-1.4,0-2.1,0.9-2.1,2.8c0,0.9,0.2,1.5,0.5,2.1c0.4,0.5,0.9,0.8,1.6,0.8
	c0.9,0,1.6-0.5,2-1.4l2,1c-0.4,0.8-1,1.4-1.7,1.8c-0.7,0.4-1.6,0.7-2.5,0.7c-1.4,0-2.6-0.4-3.5-1.3c-0.9-0.9-1.3-2.1-1.3-3.7
	c0-1.5,0.4-2.7,1.3-3.6c0.9-0.9,2-1.3,3.4-1.3C15.6,13,17,13.8,17.8,15.3 M18,4.9c-3.7,0-6.7,1.3-9.2,3.8C7.5,10,6.6,11.4,5.9,13
	s-1,3.3-1,5c0,1.7,0.3,3.4,1,5c0.7,1.6,1.6,3,2.9,4.3c1.3,1.2,2.7,2.2,4.3,2.9c1.6,0.7,3.2,1,5,1c1.7,0,3.4-0.3,5-1
	c1.6-0.7,3.1-1.6,4.4-2.9c2.5-2.4,3.7-5.5,3.7-9.2c0-1.8-0.3-3.4-1-5c-0.6-1.6-1.6-3-2.8-4.2C24.7,6.2,21.6,4.9,18,4.9 M18,2
	c4.5,0,8.3,1.6,11.4,4.7c1.5,1.5,2.6,3.2,3.4,5.2c0.8,1.9,1.2,4,1.2,6.2c0,2.2-0.4,4.2-1.2,6.2c-0.8,1.9-1.9,3.6-3.4,5.1
	c-1.6,1.5-3.3,2.7-5.3,3.5c-2,0.8-4,1.2-6.1,1.2c-2.1,0-4.1-0.4-6.1-1.2c-1.9-0.8-3.7-2-5.2-3.5C5.2,27.7,4,26,3.2,24.1
	C2.4,22.2,2,20.1,2,18c0-2.1,0.4-4.1,1.2-6.1c0.8-2,2-3.7,3.5-5.2C9.8,3.6,13.5,2,18,2"/>
</svg>
