<?xml version="1.0" encoding="utf-8"?>
<!-- Generator: Adobe Illustrator 25.0.0, SVG Export Plug-In . SVG Version: 6.00 Build 0)  -->
<svg version="1.1" id="Layer_1" xmlns="http://www.w3.org/2000/svg" xmlns:xlink="http://www.w3.org/1999/xlink" x="0px" y="0px"
	 viewBox="0 0 36 36" style="enable-background:new 0 0 36 36;" xml:space="preserve">
<path d="M18,4.9c-3.6,0-6.7,1.3-9.2,3.9C8.2,9.3,7.6,10.1,7,10.9l6.1,2.7c0.3-0.8,0.8-1.5,1.5-2c0.7-0.5,1.6-0.8,2.6-0.8V8.3h1.9
	v2.5c1.5,0.1,2.8,0.6,4,1.5L21,14.4c-0.9-0.6-1.8-0.9-2.7-0.9c-0.5,0-0.9,0.1-1.3,0.3c-0.4,0.2-0.6,0.5-0.6,1c0,0.1,0,0.3,0.1,0.4
	l2,0.9l1.4,0.6l2.6,1.1l8.2,3.7c0.3-1.1,0.4-2.3,0.4-3.4c0-3.7-1.3-6.8-3.8-9.3C24.8,6.1,21.7,4.9,18,4.9 M5.6,13.7
	C5.1,15,4.9,16.4,4.9,18c0,3.5,1.3,6.6,3.9,9.2c2.6,2.6,5.7,3.9,9.3,3.9c3.6,0,6.7-1.3,9.3-3.9c0.9-0.9,1.7-1.8,2.2-2.8l-6-2.7
	c-0.2,1-0.7,1.8-1.5,2.5s-1.8,1-2.9,1.1v2.5h-1.9v-2.5c-1.8,0-3.4-0.7-4.9-1.9l2.2-2.2c1,1,2.2,1.5,3.6,1.5c0.6,0,1-0.1,1.4-0.4
	c0.4-0.2,0.6-0.7,0.6-1.2c0-0.4-0.1-0.7-0.4-1l-1.5-0.7l-1.9-0.9l-2.5-1.1L5.6,13.7z M18,2c4.5,0,8.3,1.5,11.4,4.6
	C32.4,9.7,34,13.5,34,18c0,4.5-1.5,8.2-4.6,11.2C26.2,32.4,22.4,34,18,34c-4.3,0-8.1-1.6-11.3-4.7C3.6,26.1,2,22.4,2,18
	c0-4.4,1.6-8.2,4.7-11.4C9.8,3.5,13.6,2,18,2"/>
</svg>
