<?xml version="1.0" encoding="utf-8"?>
<!-- Generator: Adobe Illustrator 25.0.0, SVG Export Plug-In . SVG Version: 6.00 Build 0)  -->
<svg version="1.1" id="Layer_1" xmlns="http://www.w3.org/2000/svg" xmlns:xlink="http://www.w3.org/1999/xlink" x="0px" y="0px"
	 viewBox="0 0 36 36" style="enable-background:new 0 0 36 36;" xml:space="preserve">
<path d="M10.9,15.7c0.3-2,1.1-3.5,2.4-4.6s2.8-1.6,4.7-1.6c2.5,0,4.5,0.8,6,2.4c1.5,1.6,2.2,3.7,2.2,6.2c0,2.5-0.8,4.5-2.3,6.1
	c-1.5,1.6-3.5,2.4-6,2.4c-1.8,0-3.4-0.5-4.7-1.6c-1.3-1.1-2.1-2.6-2.4-4.6h4c0.1,1.9,1.3,2.9,3.5,2.9c1.1,0,2-0.5,2.7-1.5
	c0.7-1,1-2.3,1-3.9c0-1.7-0.3-3-0.9-3.9c-0.6-0.9-1.5-1.3-2.7-1.3c-2.1,0-3.3,0.9-3.6,2.8H16l-3.2,3.2l-3.2-3.2H10.9z M18,4.9
	c-3.6,0-6.7,1.3-9.2,3.9c-2.6,2.6-3.9,5.7-3.9,9.3c0,3.6,1.3,6.6,3.9,9.2c2.6,2.6,5.7,3.9,9.3,3.9c3.6,0,6.7-1.3,9.3-3.9
	c2.5-2.4,3.8-5.5,3.8-9.2c0-3.7-1.3-6.7-3.8-9.3C24.8,6.2,21.7,4.9,18,4.9 M18,2c4.5,0,8.3,1.6,11.4,4.7C32.4,9.7,34,13.5,34,18
	c0,4.5-1.5,8.2-4.6,11.3c-3.2,3.2-7,4.7-11.5,4.7c-4.3,0-8.1-1.6-11.3-4.7C3.6,26.1,2,22.4,2,18c0-4.4,1.6-8.1,4.7-11.3
	C9.8,3.6,13.6,2,18,2"/>
</svg>
